<?xml version="1.0" standalone="no"?>
<!DOCTYPE svg PUBLIC "-//W3C//DTD SVG 1.1//EN" "http://www.w3.org/Graphics/SVG/1.1/DTD/svg11.dtd" >
<svg xmlns="http://www.w3.org/2000/svg" xmlns:xlink="http://www.w3.org/1999/xlink" version="1.1">
<metadata>
Created by FontForge 20170731 at Thu Feb  5 13:05:20 2015
 By Aleksey,,,
Copyright (c) 2015 Monotype Imaging Inc.  All rights reserved.
</metadata>
<defs>
<font id="NeueHaasUnicaPro-ThinItalic" horiz-adv-x="549" >
  <font-face 
    font-family="Neue Haas Unica Pro Thin"
    font-weight="300"
    font-style="italic"
    font-variant="small-caps"
    font-stretch="normal"
    units-per-em="1000"
    panose-1="2 11 3 4 3 2 6 9 2 3"
    ascent="764"
    descent="-236"
    x-height="508"
    cap-height="712"
    bbox="-218 -275 1018 940"
    underline-thickness="50"
    underline-position="-175"
    slope="-14"
    unicode-range="U+0020-FEFF"
  />
<missing-glyph horiz-adv-x="596" 
d="M536 744q33 -33 33 -91v-594q0 -58 -33 -91t-91 -33h-295q-57 0 -90 33t-33 91v594q0 58 33 91t90 33h295q58 0 91 -33zM80 723q-26 -26 -26 -70v-594q0 -44 26 -70t70 -26h295q44 0 70 26t26 70v594q0 44 -26 70t-70 26h-295q-44 0 -70 -26zM409.5 604.5
q44.5 -39.5 44.5 -101.5q0 -43 -17 -72.5t-70 -74.5q-33 -28 -48 -48.5t-20.5 -47.5t-5.5 -76h-33v21q0 44 6.5 71.5t23.5 50t51 52.5q46 40 60 64.5t14 59.5q0 48 -33.5 77t-87.5 29q-58 0 -91.5 -31.5t-37.5 -90.5h-37q5 76 48 116.5t118 40.5q71 0 115.5 -39.5zM253 65
v68h45v-68h-45z" />
    <glyph glyph-name="f_f" unicode="ff" horiz-adv-x="501" 
d="M600 711l-8 -32q-14 4 -27 4q-40 0 -66 -24.5t-39 -77.5l-18 -73h105l-8 -32h-105l-118 -476h-36l119 476h-198l-119 -476h-36l119 476h-95l8 32h95l20 82q31 125 137 125q23 0 36 -4l-8 -32q-14 4 -27 4q-40 0 -65.5 -24.5t-38.5 -77.5l-18 -73h198l20 82
q31 125 137 125q23 0 36 -4z" />
    <glyph glyph-name="f_f_i" unicode="ffi" horiz-adv-x="712" 
d="M600 711l-8 -32q-14 4 -27 4q-40 0 -66 -24.5t-39 -77.5l-18 -73h105l-8 -32h-105l-118 -476h-36l119 476h-198l-119 -476h-36l119 476h-95l8 32h95l20 82q31 125 137 125q23 0 36 -4l-8 -32q-14 4 -27 4q-40 0 -65.5 -24.5t-38.5 -77.5l-18 -73h198l20 82
q31 125 137 125q23 0 36 -4zM526 0l126 508h36l-126 -508h-36zM683 631l20 81h36l-20 -81h-36z" />
    <glyph glyph-name="f_f_l" unicode="ffl" horiz-adv-x="712" 
d="M600 711l-8 -32q-14 4 -27 4q-40 0 -66 -24.5t-39 -77.5l-18 -73h105l-8 -32h-105l-118 -476h-36l119 476h-198l-119 -476h-36l119 476h-95l8 32h95l20 82q31 125 137 125q23 0 36 -4l-8 -32q-14 4 -27 4q-40 0 -65.5 -24.5t-38.5 -77.5l-18 -73h198l20 82
q31 125 137 125q23 0 36 -4zM526 0l177 712h36l-177 -712h-36z" />
    <glyph glyph-name="f_i" unicode="fi" horiz-adv-x="479" 
d="M366 711l-8 -32q-14 4 -27 4q-40 0 -65.5 -24.5t-38.5 -77.5l-18 -73h105l-8 -32h-105l-119 -476h-36l119 476h-95l8 32h95l20 82q31 125 137 125q23 0 36 -4zM293 0l126 508h36l-126 -508h-36zM450 631l20 81h36l-20 -81h-36z" />
    <glyph glyph-name="f_l" unicode="fl" horiz-adv-x="479" 
d="M366 711l-8 -32q-14 4 -27 4q-40 0 -65.5 -24.5t-38.5 -77.5l-18 -73h105l-8 -32h-105l-119 -476h-36l119 476h-95l8 32h95l20 82q31 125 137 125q23 0 36 -4zM293 0l177 712h36l-177 -712h-36z" />
    <glyph glyph-name=".notdef" horiz-adv-x="596" 
d="M536 744q33 -33 33 -91v-594q0 -58 -33 -91t-91 -33h-295q-57 0 -90 33t-33 91v594q0 58 33 91t90 33h295q58 0 91 -33zM80 723q-26 -26 -26 -70v-594q0 -44 26 -70t70 -26h295q44 0 70 26t26 70v594q0 44 -26 70t-70 26h-295q-44 0 -70 -26zM409.5 604.5
q44.5 -39.5 44.5 -101.5q0 -43 -17 -72.5t-70 -74.5q-33 -28 -48 -48.5t-20.5 -47.5t-5.5 -76h-33v21q0 44 6.5 71.5t23.5 50t51 52.5q46 40 60 64.5t14 59.5q0 48 -33.5 77t-87.5 29q-58 0 -91.5 -31.5t-37.5 -90.5h-37q5 76 48 116.5t118 40.5q71 0 115.5 -39.5zM253 65
v68h45v-68h-45z" />
    <glyph glyph-name=".null" horiz-adv-x="0" 
 />
    <glyph glyph-name="nonmarkingreturn" horiz-adv-x="333" 
 />
    <glyph glyph-name="NULL" horiz-adv-x="293" 
 />
    <glyph glyph-name="NULL" horiz-adv-x="293" 
 />
    <glyph glyph-name="space" unicode=" " horiz-adv-x="230" 
 />
    <glyph glyph-name="exclam" unicode="!" horiz-adv-x="223" 
d="M71 149l131 563h47l-149 -563h-29zM26 0l20 80h45l-20 -80h-45z" />
    <glyph glyph-name="quotedbl" unicode="&#x22;" horiz-adv-x="305" 
d="M134 462l56 250h39l-69 -250h-26zM249 462l56 250h39l-69 -250h-26z" />
    <glyph glyph-name="numbersign" unicode="#" horiz-adv-x="627" 
d="M417 239h135l-13 -30h-135l-85 -209h-33l85 209h-178l-85 -209h-33l85 209h-136l12 30h137l81 199h-137l12 30h137l84 206h33l-84 -206h178l84 206h33l-84 -206h135l-13 -30h-134zM287 438l-81 -199h178l81 199h-178z" />
    <glyph glyph-name="dollar" unicode="$" horiz-adv-x="520" 
d="M523 526q0 -32 -8 -63h-37q8 35 8 60q0 111 -112 125l-72 -288q52 -19 83.5 -38t49.5 -50t18 -79q0 -50 -27 -97t-80.5 -77t-129.5 -30h-6l-22 -88h-34l22 90q-71 9 -108.5 51t-37.5 115q0 29 9 69h37q-8 -35 -8 -67q0 -119 117 -133l77 307q-72 27 -106 61.5t-34 97.5
q0 46 25 90.5t74.5 74t118.5 29.5h10l19 78h34l-20 -80q140 -18 140 -158zM338 650q-56 0 -96 -22.5t-61 -58.5t-21 -74q0 -47 26.5 -74t84.5 -50l70 279h-3zM386 269q-29 27 -93 52l-74 -297q66 0 110 25t65 63t21 78q0 52 -29 79z" />
    <glyph glyph-name="percent" unicode="%" horiz-adv-x="792" 
d="M117 -30l560 734h39l-560 -734h-39zM356.5 652.5q27.5 -32.5 27.5 -95.5q0 -51 -20 -106t-59 -92.5t-94 -37.5q-54 0 -81.5 33t-27.5 96q0 51 20 105.5t59 92t94 37.5q54 0 81.5 -32.5zM201.5 619q-30.5 -33 -46 -80t-15.5 -88q0 -97 71 -97q43 0 73.5 33t46 80.5
t15.5 88.5q0 96 -71 96q-43 0 -73.5 -33zM731 224q0 -51 -19.5 -105.5t-58.5 -92t-94 -37.5q-54 0 -81.5 33t-27.5 96q0 51 20 105.5t59 92t94 37.5q108 0 108 -129zM549.5 287q-30.5 -33 -46 -80.5t-15.5 -88.5q0 -96 71 -96q43 0 73.5 33t45.5 80.5t15 88.5q0 96 -70 96
q-43 0 -73.5 -33z" />
    <glyph glyph-name="ampersand" unicode="&#x26;" horiz-adv-x="712" 
d="M531 137l107 -137h-47l-86 111q-60 -59 -128.5 -91t-141.5 -32q-89 0 -139 42.5t-50 114.5q0 78 54 141.5t179 117.5q-31 45 -43.5 78t-12.5 70q0 40 20.5 80t59 65.5t89.5 25.5q60 0 94.5 -34.5t34.5 -90.5q0 -60 -42 -111.5t-146 -95.5l177 -227q79 94 114 232h38
q-37 -152 -131 -259zM319 668q-30 -21 -45.5 -53t-15.5 -63q0 -33 12.5 -63.5t43.5 -72.5q99 42 135.5 86.5t36.5 94.5q0 42 -25 67t-71 25q-41 0 -71 -21zM485 137l-187 241q-121 -54 -167.5 -108.5t-46.5 -122.5q0 -56 40.5 -90t112.5 -34q134 0 248 114z" />
    <glyph glyph-name="quotesingle" unicode="'" horiz-adv-x="191" 
d="M134 462l56 250h39l-69 -250h-26z" />
    <glyph glyph-name="parenleft" unicode="(" horiz-adv-x="250" 
d="M150 434.5q-64 -162.5 -64 -314.5q0 -131 34 -267h-33q-39 136 -39 275q0 152 64.5 314.5t189.5 298.5h39q-127 -144 -191 -306.5z" />
    <glyph glyph-name="parenright" unicode=")" horiz-adv-x="250" 
d="M121 159.5q64 162.5 64 314.5q0 131 -34 267h33q39 -136 39 -275q0 -152 -64.5 -314.5t-189.5 -298.5h-39q127 144 191 306.5z" />
    <glyph glyph-name="asterisk" unicode="*" horiz-adv-x="383" 
d="M421 594l4 -42l-138 2l59 -124l-39 -17l-43 134l-100 -97l-27 33l111 81l-123 62l24 36l112 -80l25 137l40 -10l-43 -133z" />
    <glyph glyph-name="plus" unicode="+" horiz-adv-x="566" 
d="M491 334v-34h-191v-191h-34v191h-191v34h191v191h34v-191h191z" />
    <glyph glyph-name="comma" unicode="," horiz-adv-x="171" 
d="M-18 -127h-27l62 127h-13l19 79h48l-20 -79z" />
    <glyph glyph-name="hyphen" unicode="-" horiz-adv-x="281" 
d="M35 274l9 36h221l-10 -36h-220z" />
    <glyph glyph-name="period" unicode="." horiz-adv-x="171" 
d="M-2 0l19 79h49l-19 -79h-49z" />
    <glyph glyph-name="slash" unicode="/" horiz-adv-x="418" 
d="M-56 -89l503 834h42l-503 -834h-42z" />
    <glyph glyph-name="zero" unicode="0" horiz-adv-x="530" 
d="M521 461q0 -95 -34.5 -205.5t-103.5 -188.5t-166 -78q-166 0 -166 224q0 95 34.5 206t103 188.5t164.5 77.5q168 0 168 -224zM208.5 576q-59.5 -73 -89.5 -175.5t-30 -185.5q0 -191 130 -191q84 0 143.5 73t89.5 175.5t30 185.5q0 96 -32.5 143.5t-98.5 47.5
q-83 0 -142.5 -73z" />
    <glyph glyph-name="one" unicode="1" horiz-adv-x="530" 
d="M196 0l143 576h-1q-48 -47 -155 -47l8 33q73 0 113.5 25.5t65.5 86.5h32l-168 -674h-38z" />
    <glyph glyph-name="two" unicode="2" horiz-adv-x="530" 
d="M476.5 641.5q45.5 -43.5 45.5 -114.5q0 -55 -23.5 -96.5t-76.5 -79.5t-146 -82q-85 -39 -133.5 -75.5t-72 -73t-36.5 -85.5h387l-8 -35h-426q14 73 44 124.5t85 93t146 84.5q86 40 133.5 73t67.5 67.5t20 80.5q0 59 -34.5 92.5t-97.5 33.5q-70 0 -119.5 -42.5
t-73.5 -117.5h-41q27 92 89 144t147 52q78 0 123.5 -43.5z" />
    <glyph glyph-name="three" unicode="3" horiz-adv-x="530" 
d="M474.5 642.5q49.5 -42.5 49.5 -115.5q0 -62 -43 -114t-126 -72v-1q100 -37 100 -143q0 -48 -29 -96.5t-84.5 -80t-130.5 -31.5q-90 0 -137.5 40t-47.5 111q0 27 6 46h38q-5 -19 -5 -43q0 -57 37 -88t109 -31q64 0 110.5 26t71 66t24.5 81q0 63 -39.5 96t-112.5 33h-38
l9 35h36q71 0 119.5 25t71.5 63t23 77q0 57 -39.5 90.5t-109.5 33.5t-120 -41.5t-69 -118.5h-38q21 92 82.5 143.5t145.5 51.5q87 0 136.5 -42.5z" />
    <glyph glyph-name="four" unicode="4" horiz-adv-x="530" 
d="M360 197l-49 -197h-37l49 197h-316l10 42l408 435h54l-110 -442h129l-9 -35h-129zM332 232l26 106l72 290h-1l-247 -263l-125 -133h275z" />
    <glyph glyph-name="five" unicode="5" horiz-adv-x="530" 
d="M229 639l-94 -272h2q27 32 67 50t86 18q83 0 128 -48.5t45 -135.5q0 -59 -30.5 -120t-89 -101.5t-138.5 -40.5t-125 37.5t-45 104.5q0 19 6 43h38q-5 -17 -5 -39q0 -53 35.5 -81.5t97.5 -28.5q68 0 117.5 35t74.5 87t25 102q0 72 -36 111.5t-103 39.5q-57 0 -103 -30.5
t-77 -90.5l-36 2l136 393h341l-9 -35h-308z" />
    <glyph glyph-name="six" unicode="6" horiz-adv-x="530" 
d="M493 645.5q42 -39.5 42 -109.5q0 -13 -1 -22h-39q1 7 1 15q0 120 -125 120q-84 0 -156 -83t-111 -243h2q31 51 83 82.5t112 31.5q80 0 125.5 -52.5t45.5 -142.5q0 -55 -29.5 -114t-85 -99t-128.5 -40q-88 0 -132.5 50t-44.5 149t38.5 216t111 199t169.5 82
q80 0 122 -39.5zM184.5 367.5q-47.5 -33.5 -72.5 -84.5t-25 -101q0 -77 36 -117t106 -40q63 0 109.5 34.5t70.5 84.5t24 96q0 75 -36 118t-101 43q-64 0 -111.5 -33.5z" />
    <glyph glyph-name="seven" unicode="7" horiz-adv-x="530" 
d="M345.5 351.5q-106.5 -155.5 -196.5 -351.5h-45q98 206 202.5 358.5t221.5 280.5h-390l9 35h435l-9 -36q-121 -131 -227.5 -286.5z" />
    <glyph glyph-name="eight" unicode="8" horiz-adv-x="530" 
d="M481.5 642q48.5 -43 48.5 -115q0 -65 -44 -115.5t-123 -69.5v-1q46 -18 72.5 -56t26.5 -91q0 -48 -28.5 -95.5t-83 -78.5t-128.5 -31q-88 0 -139.5 46.5t-51.5 125.5q0 67 48 121.5t135 71.5v1q-41 18 -64.5 53t-23.5 83q0 45 27.5 90t79 74.5t119.5 29.5q81 0 129.5 -43
zM250.5 624.5q-42.5 -24.5 -64.5 -62t-22 -74.5q0 -56 37 -89.5t104 -33.5q61 0 103 24t62.5 61t20.5 75q0 57 -38 90.5t-102 33.5q-58 0 -100.5 -24.5zM162.5 305.5q-45.5 -25.5 -69.5 -64.5t-24 -80q0 -63 41.5 -99.5t112.5 -36.5q64 0 109.5 26t68.5 66t23 79
q0 61 -41.5 98t-112.5 37q-62 0 -107.5 -25.5z" />
    <glyph glyph-name="nine" unicode="9" horiz-adv-x="530" 
d="M79 28.5q-42 39.5 -42 109.5q0 13 1 22h38q-1 -7 -1 -15q0 -58 31.5 -89t94.5 -31q84 0 156 83t110 243h-2q-30 -51 -82 -82.5t-113 -31.5q-80 0 -125 52.5t-45 142.5q0 55 29.5 114t85 99t128.5 40q87 0 132 -50t45 -149t-38.5 -216t-111 -199t-169.5 -82
q-80 0 -122 39.5zM386.5 306.5q47.5 33.5 72.5 84.5t25 101q0 77 -36 117t-106 40q-63 0 -109.5 -34.5t-70.5 -84.5t-24 -96q0 -75 36.5 -118t100.5 -43t111.5 33.5z" />
    <glyph glyph-name="colon" unicode=":" horiz-adv-x="171" 
d="M-1 0l19 79h49l-19 -79h-49zM105 429l19 79h49l-19 -79h-49z" />
    <glyph glyph-name="semicolon" unicode=";" horiz-adv-x="171" 
d="M-18 -127h-27l62 127h-13l19 79h48l-20 -79zM110 429l19 79h49l-19 -79h-49z" />
    <glyph glyph-name="less" unicode="&#x3c;" horiz-adv-x="566" 
d="M110 318v-2l381 -168v-38l-416 184v46l416 184v-38z" />
    <glyph glyph-name="equal" unicode="=" horiz-adv-x="566" 
d="M75 368v34h416v-34h-416zM75 231v34h416v-34h-416z" />
    <glyph glyph-name="greater" unicode="&#x3e;" horiz-adv-x="566" 
d="M491 294l-416 -184v38l381 168v2l-381 168v38l416 -184v-46z" />
    <glyph glyph-name="question" unicode="?" horiz-adv-x="483" 
d="M466 680q48 -43 48 -114q0 -58 -33.5 -105.5t-124.5 -108.5q-50 -34 -75.5 -59t-41.5 -57.5t-31 -90.5h-33q16 66 32 102.5t43.5 63.5t83.5 66q59 40 89.5 71t41 57.5t10.5 58.5q0 57 -37.5 90.5t-101.5 33.5q-70 0 -121 -41t-73 -118h-38q27 94 88 144t145 50
q81 0 129 -43zM133 0l19 80h45l-19 -80h-45z" />
    <glyph glyph-name="at" unicode="@" horiz-adv-x="851" 
d="M666.5 643.5q70.5 -35.5 107.5 -102t37 -156.5q0 -73 -26.5 -143t-77.5 -115t-118 -45q-40 0 -59.5 19.5t-19.5 54.5q0 9 4 33h-1q-33 -54 -74.5 -80.5t-87.5 -26.5q-56 0 -84.5 34.5t-28.5 102.5q0 61 30 131.5t84 119t121 48.5q55 0 82 -32.5t26 -85.5h1q15 41 46 108
h35q-52 -114 -87.5 -209t-35.5 -133q0 -27 13.5 -39t40.5 -12q56 0 97.5 42t63.5 105t22 122q0 122 -74 192t-206 70q-124 0 -214.5 -68t-137.5 -168.5t-47 -193.5q0 -131 69 -203t196 -72q126 0 232 59l12 -28q-112 -64 -243 -64q-142 0 -221.5 81t-79.5 226
q0 101 52 209.5t151 181.5t232 73q98 0 168.5 -35.5zM371.5 441q-45.5 -44 -71 -106t-25.5 -113q0 -107 86 -107q55 0 100.5 47.5t71 114t25.5 116.5q0 44 -21.5 68t-62.5 24q-57 0 -102.5 -44z" />
    <glyph glyph-name="A" unicode="A" horiz-adv-x="648" 
d="M150 250l-164 -250h-43l469 712h51l115 -712h-38l-40 250h-350zM481 373q-9 55 -22 138l-27 168h-1l-200 -306l-58 -88h322z" />
    <glyph glyph-name="B" unicode="B" horiz-adv-x="600" 
d="M554.5 671.5q48.5 -40.5 48.5 -111.5q0 -41 -20.5 -81.5t-60.5 -72t-96 -43.5v-2q50 -11 78.5 -49.5t28.5 -97.5q0 -50 -28.5 -99.5t-85 -82t-136.5 -32.5h-242l177 712h191q97 0 145.5 -40.5zM173 381h162q80 0 132 27.5t75 68t23 81.5q0 120 -162 120h-156zM86 34h196
q70 0 118 27.5t71 69t23 83.5q0 63 -39.5 98t-121.5 35h-168z" />
    <glyph glyph-name="C" unicode="C" horiz-adv-x="672" 
d="M562.5 694.5q50.5 -28.5 76.5 -79t26 -114.5q0 -13 -2 -39h-39q2 26 2 37q0 85 -49.5 136.5t-138.5 51.5q-104 0 -180 -64.5t-115.5 -162.5t-39.5 -194q0 -111 54 -176t151 -65q91 0 163 54t104 142h40q-36 -105 -119 -168.5t-190 -63.5q-114 0 -177.5 74.5t-63.5 200.5
q0 106 44 212.5t129 176.5t202 70q72 0 122.5 -28.5z" />
    <glyph glyph-name="D" unicode="D" horiz-adv-x="712" 
d="M611 634.5q81 -77.5 81 -224.5q0 -99 -46 -193t-142 -155.5t-237 -61.5h-226l177 712h156q156 0 237 -77.5zM86 35h182q129 0 216 56.5t128 142.5t41 174q0 131 -71 200t-209 69h-127z" />
    <glyph glyph-name="E" unicode="E" horiz-adv-x="597" 
d="M246 677l-73 -294h368l-9 -35h-367l-79 -313h399l-8 -35h-436l177 712h423l-9 -35h-386z" />
    <glyph glyph-name="F" unicode="F" horiz-adv-x="552" 
d="M246 677l-74 -296h357l-9 -35h-356l-86 -346h-37l177 712h413l-9 -35h-376z" />
    <glyph glyph-name="G" unicode="G" horiz-adv-x="710" 
d="M622 667.5q60 -55.5 60 -147.5q0 -11 -2 -31h-39q1 8 1 25q0 81 -49 127t-141 46q-109 0 -188.5 -64t-120 -161.5t-40.5 -196.5q0 -111 53 -175.5t150 -64.5q96 0 177 68t118 218h-225l9 35h261l-86 -346h-36l33 134h-1q-39 -67 -107.5 -106t-148.5 -39q-111 0 -173 75
t-62 201q0 109 45.5 215t134 174.5t209.5 68.5q108 0 168 -55.5z" />
    <glyph glyph-name="H" unicode="H" horiz-adv-x="717" 
d="M513 0l88 352h-435l-88 -352h-37l177 712h37l-81 -325h436l80 325h38l-177 -712h-38z" />
    <glyph glyph-name="I" unicode="I" horiz-adv-x="245" 
d="M41 0l177 712h37l-177 -712h-37z" />
    <glyph glyph-name="J" unicode="J" horiz-adv-x="318" 
d="M125.5 41q-52.5 -45 -127.5 -45q-27 0 -46 7l9 34q18 -5 37 -5q63 0 105.5 37.5t60.5 113.5l132 529h38l-135 -539q-21 -87 -73.5 -132z" />
    <glyph glyph-name="K" unicode="K" horiz-adv-x="567" 
d="M499 0h-48l-281 365h-1l-91 -365h-37l177 712h37l-82 -327h2l411 327h58l-431 -341z" />
    <glyph glyph-name="L" unicode="L" horiz-adv-x="538" 
d="M476 35l-8 -35h-427l177 712h37l-169 -677h390z" />
    <glyph glyph-name="M" unicode="M" horiz-adv-x="876" 
d="M672 0l93 377q31 122 73 293h-1l-196 -299l-243 -371h-46l-59 371q-11 74 -41 263l-6 36h-1l-73 -293l-94 -377h-37l177 712h58l61 -389l44 -282h2q119 182 185 282l254 389h64l-177 -712h-37z" />
    <glyph glyph-name="N" unicode="N" horiz-adv-x="730" 
d="M509 0l-126 326q-81 207 -136 349h-1l-93 -373l-75 -302h-37l177 712h54l126 -326q81 -207 136 -349h1q46 185 59 238q12 45 34 135l75 302h38l-177 -712h-55z" />
    <glyph glyph-name="O" unicode="O" horiz-adv-x="712" 
d="M576.5 687q58.5 -36 89 -100.5t30.5 -149.5q0 -104 -44.5 -208t-129 -172t-197.5 -68q-81 0 -139 36t-88.5 100.5t-30.5 149.5q0 104 44.5 208t128.5 172t197 68q81 0 139.5 -36zM260 624q-75 -63 -115 -158.5t-40 -190.5q0 -113 58 -181.5t163 -68.5q101 0 176.5 62.5
t115.5 158.5t40 191q0 113 -58.5 181.5t-163.5 68.5q-101 0 -176 -63z" />
    <glyph glyph-name="P" unicode="P" horiz-adv-x="589" 
d="M572 665q51 -47 51 -130q0 -52 -27.5 -102t-83.5 -82.5t-137 -32.5h-218l-79 -318h-37l177 712h201q102 0 153 -47zM165 353h211q69 0 116.5 28t70 69.5t22.5 83.5q0 68 -41.5 105.5t-126.5 37.5h-171z" />
    <glyph glyph-name="Q" unicode="Q" horiz-adv-x="711" 
d="M652 232.5q-44 -103.5 -122 -168.5l62 -92l-31 -21l-61 91q-80 -53 -177 -53q-80 0 -138 35.5t-88 100t-30 148.5q0 105 44.5 209t129 172.5t198.5 68.5q80 0 138 -35.5t88.5 -100t30.5 -148.5q0 -103 -44 -206.5zM481 72l-73 109l30 21l72 -108q70 60 109 154.5
t39 188.5q0 113 -58.5 181.5t-163.5 68.5q-101 0 -176 -63t-115 -158.5t-40 -190.5q0 -113 58 -181.5t163 -68.5q84 0 155 47z" />
    <glyph glyph-name="R" unicode="R" horiz-adv-x="607" 
d="M555 670q49 -42 49 -120q0 -45 -23 -89t-66.5 -75.5t-103.5 -41.5v-1q34 -12 51 -40.5t25 -92.5l26 -210h-37l-24 205q-5 48 -17.5 74.5t-37.5 38.5t-69 12h-168l-82 -330h-37l177 712h188q100 0 149 -42zM168 365h172q77 0 127.5 28.5t74 70t23.5 82.5q0 64 -40 97.5
t-121 33.5h-158z" />
    <glyph glyph-name="S" unicode="S" horiz-adv-x="586" 
d="M579 552q0 -33 -8 -64h-37q8 37 8 61q0 139 -170 139q-66 0 -111 -25t-67 -63t-22 -76q0 -56 36 -86t117 -56q63 -21 100.5 -41.5t59 -54t21.5 -86.5q0 -52 -29.5 -100.5t-88 -79.5t-142.5 -31q-103 0 -156 45t-53 134q0 35 8 70h38q-9 -39 -9 -68q0 -146 174 -146
q75 0 124.5 26.5t72.5 66.5t23 81q0 42 -18.5 68.5t-51.5 43.5t-92 37q-60 21 -96.5 41.5t-56 52.5t-19.5 81q0 47 27.5 93.5t82 77t130.5 30.5q205 0 205 -171z" />
    <glyph glyph-name="T" unicode="T" horiz-adv-x="579" 
d="M413 677l-168 -677h-37l168 677h-263l8 35h564l-9 -35h-263z" />
    <glyph glyph-name="U" unicode="U" horiz-adv-x="684" 
d="M475.5 50.5q-73.5 -61.5 -183.5 -61.5q-98 0 -149.5 50t-51.5 147q0 45 15 102l106 424h37l-108 -434q-13 -49 -13 -91q0 -162 167 -162q94 0 158.5 54.5t91.5 162.5l118 470h37l-120 -480q-31 -120 -104.5 -181.5z" />
    <glyph glyph-name="V" unicode="V" horiz-adv-x="610" 
d="M216 0l-94 712h37l45 -341l44 -334h1l211 334l214 341h43l-449 -712h-52z" />
    <glyph glyph-name="W" unicode="W" horiz-adv-x="876" 
d="M554 0l-5 334q-4 228 -5 342h-2l-175 -342l-170 -334h-59l-12 712h36l6 -326l6 -350h2l178 352l166 324h60l4 -324q4 -233 5 -352h2l46 89l133 261l168 326h41l-366 -712h-59z" />
    <glyph glyph-name="X" unicode="X" horiz-adv-x="604" 
d="M530 0h-41l-162 337h-1l-326 -337h-52l358 368l-166 344h41l152 -316h2l306 316h51l-337 -347z" />
    <glyph glyph-name="Y" unicode="Y" horiz-adv-x="585" 
d="M248 0h-37l77 312l-168 400h40l68 -163l83 -199h1l185 201l146 161h50l-367 -400z" />
    <glyph glyph-name="Z" unicode="Z" horiz-adv-x="551" 
d="M8 37v-2h472l-9 -35h-517l11 45l609 630v2h-445l8 35h490l-11 -45z" />
    <glyph glyph-name="bracketleft" unicode="[" horiz-adv-x="258" 
d="M229 710l-206 -827h122l-7 -31h-158l221 889h158l-8 -31h-122z" />
    <glyph glyph-name="backslash" unicode="\" horiz-adv-x="416" 
d="M279 -89h-36l-91 834h36z" />
    <glyph glyph-name="bracketright" unicode="]" horiz-adv-x="257" 
d="M49 -117l207 827h-122l7 31h158l-221 -889h-158l7 31h122z" />
    <glyph glyph-name="asciicircum" unicode="^" horiz-adv-x="402" 
d="M352 371l-150 310h-2l-150 -310h-36l166 341h42l166 -341h-36z" />
    <glyph glyph-name="underscore" unicode="_" horiz-adv-x="500" 
d="M-82 -76l6 26h500l-6 -26h-500z" />
    <glyph glyph-name="grave" unicode="`" horiz-adv-x="242" 
d="M271 573h-33l-73 139h45z" />
    <glyph glyph-name="a" unicode="a" horiz-adv-x="508" 
d="M408 482.5q42 -36.5 42 -109.5q0 -26 -9 -67l-48 -190q-17 -67 -19 -116h-35q1 32 16 93h-1q-68 -103 -194 -103q-70 0 -110 34.5t-40 92.5q0 61 47 105.5t160 61.5q87 13 188 20l3 12q8 34 8 57q0 57 -33.5 85.5t-91.5 28.5q-66 0 -109.5 -36t-56.5 -96h-38
q16 74 71 119t134 45q74 0 116 -36.5zM220 252q-97 -14 -134.5 -49t-37.5 -83q0 -46 31.5 -72t86.5 -26q79 0 136 49t79 137l16 64q-104 -8 -177 -20z" />
    <glyph glyph-name="b" unicode="b" horiz-adv-x="554" 
d="M166 415q33 49 80.5 76.5t100.5 27.5q80 0 124 -51t44 -141q0 -76 -31 -154.5t-91 -130.5t-141 -52q-67 0 -108.5 38.5t-48.5 104.5h-1l-33 -133h-36l178 712h36l-75 -297h2zM220.5 439.5q-51.5 -47.5 -78 -117.5t-26.5 -136q0 -78 34.5 -121t99.5 -43q71 0 122.5 46.5
t78 116.5t26.5 138q0 78 -35 121t-100 43q-70 0 -121.5 -47.5z" />
    <glyph glyph-name="c" unicode="c" horiz-adv-x="505" 
d="M435.5 473q44.5 -46 44.5 -124q0 -12 -1 -19h-37q1 7 1 18q0 64 -35 101t-97 37q-72 0 -125 -47t-80.5 -117t-27.5 -137q0 -77 37 -120t104 -43q63 0 114 39.5t73 101.5h39q-27 -78 -88.5 -126t-139.5 -48q-84 0 -130 51t-46 143q0 76 31.5 154t93.5 130t147 52
q78 0 122.5 -46z" />
    <glyph glyph-name="d" unicode="d" horiz-adv-x="553" 
d="M366 0l23 93h-2q-33 -49 -80 -76.5t-101 -27.5q-80 0 -123.5 50.5t-43.5 141.5q0 76 31 154.5t90.5 130.5t140.5 52q68 0 109 -38.5t48 -104.5h1l85 337h36l-178 -712h-36zM180.5 439.5q-51.5 -46.5 -78 -116.5t-26.5 -138q0 -78 35 -121t100 -43q70 0 121.5 47.5
t78 117.5t26.5 136q0 78 -34.5 121t-99.5 43q-71 0 -122.5 -46.5z" />
    <glyph glyph-name="e" unicode="e" horiz-adv-x="526" 
d="M75 180q0 -77 38 -118t107 -41q64 0 115.5 35.5t74.5 93.5h38q-27 -71 -88.5 -116t-141.5 -45q-87 0 -132.5 50.5t-45.5 142.5q0 76 32.5 154.5t96 130.5t149.5 52q83 0 128.5 -47.5t45.5 -134.5q0 -37 -14 -86h-395q-8 -35 -8 -71zM177 431.5q-61 -55.5 -87 -148.5h362
q6 28 6 55q0 72 -37 110.5t-104 38.5q-79 0 -140 -55.5z" />
    <glyph glyph-name="f" unicode="f" horiz-adv-x="268" 
d="M366 711l-8 -32q-14 4 -27 4q-40 0 -65.5 -24.5t-38.5 -77.5l-18 -73h105l-8 -32h-105l-119 -476h-36l119 476h-95l8 32h95l20 82q31 125 137 125q23 0 36 -4z" />
    <glyph glyph-name="g" unicode="g" horiz-adv-x="554" 
d="M411.5 482.5q39.5 -36.5 48.5 -104.5h1l32 130h36l-122 -489q-26 -103 -87.5 -156t-157.5 -53q-80 0 -124.5 33.5t-44.5 94.5q0 15 3 30h36q-3 -15 -3 -29q0 -47 35 -72t99 -25q84 0 136 47t76 143l19 80h-1q-35 -51 -83.5 -78.5t-103.5 -27.5q-79 0 -121 50.5t-42 142.5
q0 72 31.5 146.5t91.5 124t142 49.5q64 0 103.5 -36.5zM184 442q-51 -45 -77.5 -112t-26.5 -129q0 -78 33.5 -120.5t97.5 -42.5q72 0 124 46.5t78.5 114t26.5 128.5q0 76 -35 118t-100 42q-70 0 -121 -45z" />
    <glyph glyph-name="h" unicode="h" 
d="M167 422q33 46 80.5 71t99.5 25q68 0 105.5 -36.5t37.5 -105.5q0 -32 -11 -79l-74 -297h-36l74 300q11 44 11 74q0 55 -29.5 83.5t-83.5 28.5q-44 0 -85.5 -21.5t-73 -61.5t-44.5 -92l-77 -311h-36l177 712h36l-72 -290h1z" />
    <glyph glyph-name="i" unicode="i" horiz-adv-x="211" 
d="M25 0l126 508h36l-126 -508h-36zM182 631l20 81h36l-20 -81h-36z" />
    <glyph glyph-name="j" unicode="j" horiz-adv-x="220" 
d="M1.5 -155.5q-36.5 -32.5 -90.5 -32.5q-14 0 -32 4l7 33q11 -3 23 -3q44 0 71.5 25.5t43.5 89.5l136 547h36l-139 -556q-19 -75 -55.5 -107.5zM191 631l20 81h36l-20 -81h-36z" />
    <glyph glyph-name="k" unicode="k" horiz-adv-x="457" 
d="M399 0h-46l-224 270h-2l-66 -270h-36l177 712h36l-105 -422h1l305 218h57l-326 -234z" />
    <glyph glyph-name="l" unicode="l" horiz-adv-x="211" 
d="M25 0l177 712h36l-177 -712h-36z" />
    <glyph glyph-name="m" unicode="m" horiz-adv-x="826" 
d="M734 484.5q34 -33.5 34 -100.5q0 -36 -12 -83l-75 -301h-36l77 307q11 47 11 77q0 102 -102 102q-62 0 -112.5 -46.5t-69.5 -122.5l-78 -317h-36l80 323q8 32 8 57q0 50 -26 78t-75 28q-63 0 -114.5 -50t-72.5 -134l-75 -302h-36l127 508h36l-21 -81h2q30 43 71 67t88 24
q55 0 89 -29.5t40 -83.5q33 54 79.5 83.5t100.5 29.5q64 0 98 -33.5z" />
    <glyph glyph-name="n" unicode="n" 
d="M452 482q38 -36 38 -106q0 -34 -12 -79l-74 -297h-36l75 300q10 40 10 74q0 56 -29 84t-84 28q-44 0 -85.5 -21.5t-72.5 -61t-44 -92.5l-78 -311h-36l127 508h36l-22 -86h2q32 45 79.5 70.5t99.5 25.5q68 0 106 -36z" />
    <glyph glyph-name="o" unicode="o" horiz-adv-x="539" 
d="M447 465q49 -54 49 -151q0 -74 -31.5 -149.5t-92.5 -125.5t-144 -50q-89 0 -137.5 53.5t-48.5 150.5q0 75 31 150.5t91.5 125.5t143.5 50q90 0 139 -54zM183 440.5q-52 -45.5 -78.5 -114t-26.5 -134.5q0 -81 39 -125.5t113 -44.5q72 0 124 45.5t78.5 113.5t26.5 134
q0 82 -39.5 126.5t-113.5 44.5q-71 0 -123 -45.5z" />
    <glyph glyph-name="p" unicode="p" horiz-adv-x="554" 
d="M471 468q44 -51 44 -141q0 -76 -31 -154.5t-91 -130.5t-141 -52q-67 0 -108.5 38.5t-48.5 104.5h-1l-79 -318h-36l173 693h36l-24 -93h2q33 49 80.5 76.5t100.5 27.5q80 0 124 -51zM220.5 439.5q-51.5 -47.5 -78 -117.5t-26.5 -136q0 -78 34.5 -121t99.5 -43
q71 0 122.5 46.5t78 116.5t26.5 138q0 78 -35 121t-100 43q-70 0 -121.5 -47.5z" />
    <glyph glyph-name="q" unicode="q" horiz-adv-x="552" 
d="M410 480q41 -39 48 -105h1l34 133h36l-173 -693h-36l69 278h-2q-33 -49 -79.5 -76t-100.5 -27q-80 0 -124 50.5t-44 141.5q0 76 31 154.5t91 130.5t141 52q67 0 108 -39zM181.5 440.5q-51.5 -46.5 -78 -116.5t-26.5 -138q0 -78 35 -121t99 -43q70 0 122 47.5t78.5 117.5
t26.5 136q0 79 -34.5 121.5t-100.5 42.5q-70 0 -121.5 -46.5z" />
    <glyph glyph-name="r" unicode="r" horiz-adv-x="331" 
d="M382 508l-9 -35q-16 2 -29 2q-77 0 -133.5 -49.5t-79.5 -143.5l-70 -282h-36l126 508h36l-24 -95h1q73 98 188 98q17 0 30 -3z" />
    <glyph glyph-name="s" unicode="s" horiz-adv-x="461" 
d="M388.5 486q41.5 -33 41.5 -94q0 -27 -6 -47h-36q6 23 6 44q0 47 -32.5 72t-95.5 25q-65 0 -103.5 -31t-38.5 -80q0 -27 12 -44t34 -27.5t65 -23.5q52 -15 82.5 -30t49 -40.5t18.5 -66.5t-22.5 -76t-67.5 -56.5t-107 -21.5q-83 0 -127.5 35t-44.5 99q0 26 7 50h36
q-6 -25 -6 -48q0 -50 34.5 -76.5t102.5 -26.5q75 0 117 33.5t42 85.5q0 30 -14 48.5t-41 31t-78 28.5q-44 13 -70.5 26t-42 36.5t-15.5 61.5t21 71.5t62 54t97 20.5q79 0 120.5 -33z" />
    <glyph glyph-name="t" unicode="t" horiz-adv-x="284" 
d="M105 81q0 -26 14 -38t44 -12q18 0 36 4l-9 -34q-13 -3 -33 -3q-45 0 -66.5 19t-21.5 60q0 25 8 54l87 345h-96l8 32h96l29 117h36l-29 -117h103l-8 -32h-103l-88 -351q-7 -25 -7 -44z" />
    <glyph glyph-name="u" unicode="u" 
d="M96.5 26.5q-37.5 36.5 -37.5 105.5q0 34 12 79l74 297h36l-75 -300q-10 -40 -10 -74q0 -56 29 -84t83 -28q44 0 86 21.5t73 61t44 92.5l78 311h36l-127 -508h-36l21 86h-1q-33 -46 -80.5 -71t-99.5 -25q-68 0 -105.5 36.5z" />
    <glyph glyph-name="v" unicode="v" horiz-adv-x="438" 
d="M131 0l-69 508h36l31 -230l28 -216q2 -10 4 -26h1l154 242l145 230h42l-323 -508h-49z" />
    <glyph glyph-name="w" unicode="w" horiz-adv-x="746" 
d="M461 0l-17 248l-15 226h-2l-41 -72q-36 -66 -87 -154l-140 -248h-53l-34 508h36l15 -235l15 -238h2q33 58 38 68q64 114 96 169l132 236h56l15 -236l15 -237h2q29 50 87 154l47 84l132 235h40l-286 -508h-53z" />
    <glyph glyph-name="x" unicode="x" horiz-adv-x="452" 
d="M387 0h-41l-120 238h-2l-235 -238h-50l267 267l-123 241h40l108 -218h2l212 218h50l-243 -245z" />
    <glyph glyph-name="y" unicode="y" horiz-adv-x="442" 
d="M87 -123q-34 -37 -67 -51.5t-76 -14.5q-25 0 -42 7l8 32q17 -6 37 -6q35 0 61.5 12.5t55.5 45.5t72 98l-74 508h36l66 -461h2l298 461h42l-339 -523q-46 -71 -80 -108z" />
    <glyph glyph-name="z" unicode="z" horiz-adv-x="450" 
d="M14 35v-2h359l-8 -33h-406l10 40l458 433v2h-339l8 33h386l-10 -40z" />
    <glyph glyph-name="braceleft" unicode="{" horiz-adv-x="279" 
d="M278.5 686q-33.5 -26 -48.5 -86l-47 -190q-11 -46 -34.5 -71t-68.5 -38l-1 -2q27 -13 39 -32t12 -49q0 -23 -7 -50l-40 -159q-7 -28 -7 -52q0 -40 21 -58t67 -18l-6 -29h-7q-56 0 -83.5 25t-27.5 78q0 22 10 62l39 156q6 26 6 45q0 27 -11 42t-36 26l8 33q41 12 61.5 33
t31.5 64l47 188q18 71 58.5 104t106.5 33h18l-7 -29q-60 0 -93.5 -26z" />
    <glyph glyph-name="bar" unicode="|" horiz-adv-x="248" 
d="M107 -205v937h34v-937h-34z" />
    <glyph glyph-name="braceright" unicode="}" horiz-adv-x="279" 
d="M21.5 -93q33.5 26 48.5 86l47 190q11 46 34.5 71t68.5 38l1 2q-27 13 -39 32t-12 49q0 23 7 50l40 159q7 28 7 52q0 40 -21 58t-67 18l6 29h7q56 0 83.5 -25t27.5 -78q0 -22 -10 -62l-39 -156q-6 -25 -6 -45q0 -27 11 -42t36 -26l-8 -33q-41 -12 -61.5 -33t-31.5 -64
l-47 -188q-18 -71 -58.5 -104t-106.5 -33h-18l7 29q60 0 93.5 26z" />
    <glyph glyph-name="asciitilde" unicode="~" horiz-adv-x="571" 
d="M253 381.5q27 -17.5 58 -50.5q30 -32 52.5 -47t56.5 -15q46 0 80.5 32t48.5 86h31q-18 -72 -61.5 -112.5t-100.5 -40.5q-42 0 -69 17.5t-58 51.5q-30 32 -52.5 47t-56.5 15q-45 0 -80 -32.5t-48 -85.5h-30q16 72 59.5 112t100.5 40q42 0 69 -17.5z" />
    <glyph glyph-name="uni00A0" unicode="&#xa0;" horiz-adv-x="230" 
 />
    <glyph glyph-name="exclamdown" unicode="&#xa1;" horiz-adv-x="224" 
d="M197 508l-19 -80h-45l19 80h45zM152 359l-131 -563h-47l150 563h28z" />
    <glyph glyph-name="cent" unicode="&#xa2;" horiz-adv-x="520" 
d="M469 427q0 55 -27 91t-75 45l-116 -462q61 2 110 42t70 100h39q-27 -79 -88 -127t-139 -48l-22 -88h-34l23 90q-69 10 -106.5 60t-37.5 133q0 76 31.5 154t93.5 130t147 52h4l21 86h34l-22 -89q62 -10 96 -54.5t34 -112.5q0 -12 -1 -19h-36q1 6 1 17zM133 153
q30 -42 85 -50l115 463q-71 -1 -123 -48t-79.5 -117t-27.5 -137q0 -69 30 -111z" />
    <glyph glyph-name="sterling" unicode="&#xa3;" horiz-adv-x="520" 
d="M503 648q38 -37 38 -105q0 -24 -6 -54h-36q6 29 6 51q0 54 -29 82t-85 28q-61 0 -103.5 -38.5t-60.5 -111.5l-39 -157h132l-9 -33h-131l-34 -137q-26 -103 -91 -138v-1h366l-8 -34h-452l8 34q51 0 87.5 35.5t53.5 105.5l34 135h-106l8 33h106l41 165q22 86 74 131.5
t126 45.5q72 0 110 -37z" />
    <glyph glyph-name="currency" unicode="&#xa4;" horiz-adv-x="520" 
d="M415 148l79 -83l-27 -25l-77 83q-54 -43 -130 -43q-78 0 -130 43l-78 -83l-27 25l79 83q-47 58 -47 143t47 143l-79 83l27 25l78 -83q52 43 130 43q76 0 130 -43l77 83l27 -25l-79 -83q47 -56 47 -143t-47 -143zM380.5 163q45.5 48 45.5 128t-45.5 128t-120.5 48
q-76 0 -121 -48t-45 -128t45 -128t121 -48q75 0 120.5 48z" />
    <glyph glyph-name="yen" unicode="&#xa5;" horiz-adv-x="520" 
d="M489 356l-9 -34h-185l-19 -78h185l-8 -34h-186l-52 -210h-37l52 210h-185l8 34h186l19 78h-186l9 34h163l-133 318h40l48 -115q46 -114 82 -199h1l184 201l104 113h49l-293 -318h163z" />
    <glyph glyph-name="brokenbar" unicode="&#xa6;" horiz-adv-x="248" 
d="M107 382v350h34v-350h-34zM107 -205v350h34v-350h-34z" />
    <glyph glyph-name="section" unicode="&#xa7;" horiz-adv-x="513" 
d="M452 692q35 -31 35 -92q0 -16 -3 -36h-36q3 18 3 34q0 92 -104 92q-42 0 -72 -17.5t-45 -44.5t-15 -54q0 -24 10.5 -42t30.5 -34t68 -50q72 -50 99.5 -86t27.5 -81q0 -48 -31 -92.5t-95 -75.5v-2q31 -34 31 -85q0 -40 -21.5 -79t-63.5 -64.5t-101 -25.5q-147 0 -147 125
q0 21 6 46h36q-6 -25 -6 -43q0 -48 27.5 -71.5t85.5 -23.5q48 0 81 20t49 51t16 62q0 29 -11.5 50t-33 39.5t-68.5 52.5q-67 47 -92.5 80.5t-25.5 79.5t30 91t91 76v2q-16 17 -23 35t-7 42q0 36 20 71t58.5 58t91.5 23q69 0 104 -31zM121 330q0 -37 23 -66.5t82 -70.5
q49 -34 78 -58q52 27 82 65t30 77q0 37 -23.5 67t-85.5 73q-40 26 -76 54q-110 -65 -110 -141z" />
    <glyph glyph-name="dieresis" unicode="&#xa8;" horiz-adv-x="320" 
d="M145 631l20 81h36l-20 -81h-36zM328 631l20 81h36l-20 -81h-36z" />
    <glyph glyph-name="copyright" unicode="&#xa9;" horiz-adv-x="819" 
d="M596 676q81 -46 125.5 -129t44.5 -191t-44.5 -191t-125.5 -129t-187 -46q-105 0 -186 46t-125.5 129t-44.5 191t44.5 191t125.5 129t186 46q106 0 187 -46zM237 652q-74 -42 -115 -119t-41 -177t41 -177t115 -119t172 -42t172.5 42t115.5 119t41 177t-41 177t-115.5 119
t-172.5 42t-172 -42zM540.5 561.5q48.5 -47.5 53.5 -120.5h-38q-5 58 -44 95t-102 37q-78 0 -123 -58.5t-45 -159.5q0 -100 44.5 -158t120.5 -58q63 0 104 37.5t48 97.5h38q-8 -77 -59 -124t-131 -47q-94 0 -149 68t-55 184q0 118 56 186t151 68q82 0 130.5 -47.5z" />
    <glyph glyph-name="ordfeminine" unicode="&#xaa;" horiz-adv-x="369" 
d="M360 668q31 -26 31 -78q0 -20 -6 -46l-32 -130q-14 -58 -14 -84h-32q1 23 10 57h-1q-48 -64 -135 -64q-51 0 -80.5 24.5t-29.5 65.5q0 97 151 118q61 9 131 13l2 8q6 21 6 38q0 38 -23 56.5t-65 18.5q-46 0 -76 -23.5t-39 -62.5h-34q12 51 52 83t98 32q55 0 86 -26z
M226 503q-69 -10 -95 -32t-26 -55q0 -30 21.5 -47t60.5 -17q55 0 95 32.5t55 91.5l10 40q-52 -3 -121 -13z" />
    <glyph glyph-name="guillemotleft" unicode="&#xab;" horiz-adv-x="391" 
d="M289 54h-36l-66 202l161 198h41l-164 -203zM155 54h-36l-66 202l161 198h41l-164 -203z" />
    <glyph glyph-name="logicalnot" unicode="&#xac;" horiz-adv-x="566" 
d="M457 152v256h-382v34h416v-290h-34z" />
    <glyph glyph-name="uni00AD" unicode="&#xad;" horiz-adv-x="281" 
d="M35 274l9 36h221l-10 -36h-220z" />
    <glyph glyph-name="registered" unicode="&#xae;" horiz-adv-x="580" 
d="M471.5 691.5q55.5 -31.5 86.5 -88.5t31 -131q0 -75 -30.5 -132t-86.5 -88.5t-128 -31.5q-73 0 -128.5 31.5t-86 88.5t-30.5 132q0 74 30.5 131t86 88.5t128.5 31.5q72 0 127.5 -31.5zM228 671.5q-50 -28.5 -77.5 -80.5t-27.5 -119q0 -68 27.5 -120t77.5 -80.5t116 -28.5
t116 28.5t77.5 80.5t27.5 120q0 67 -27.5 119t-77.5 80.5t-116 28.5t-116 -28.5zM420.5 612q26.5 -23 26.5 -65q0 -30 -16.5 -51.5t-44.5 -26.5v-2q16 -4 26 -15.5t20 -38.5l34 -98h-33l-30 89q-9 28 -23.5 39.5t-41.5 11.5h-66v-140h-30v320h100q52 0 78.5 -23zM272 483h66
q39 0 58.5 17.5t19.5 46.5q0 28 -19 44t-59 16h-66v-124z" />
    <glyph glyph-name="macron" unicode="&#xaf;" horiz-adv-x="343" 
d="M146 637l8 32h242l-8 -32h-242z" />
    <glyph glyph-name="degree" unicode="&#xb0;" horiz-adv-x="298" 
d="M313 691q31 -31 31 -75t-31 -74.5t-75 -30.5q-43 0 -74 31t-31 74q0 44 31 75t74 31q44 0 75 -31zM185 670.5q-22 -22.5 -22 -54.5q0 -31 22 -53.5t53 -22.5t54 22.5t23 53.5q0 32 -22.5 54.5t-54.5 22.5q-31 0 -53 -22.5z" />
    <glyph glyph-name="plusminus" unicode="&#xb1;" horiz-adv-x="566" 
d="M491 338v-34h-191v-190h-34v190h-191v34h191v192h34v-192h191zM75 0v34h416v-34h-416z" />
    <glyph glyph-name="twosuperior" unicode="&#xb2;" horiz-adv-x="388" 
d="M412 779q34 -31 34 -82q0 -56 -39.5 -96t-137.5 -86q-86 -40 -121 -74t-47 -80h276l-8 -31h-310q10 52 31.5 88.5t60.5 66t106 60.5q60 28 92.5 49.5t46.5 44.5t14 53q0 41 -23.5 63.5t-67.5 22.5q-49 0 -83 -28.5t-49 -78.5h-37q19 66 63.5 102.5t107.5 36.5
q57 0 91 -31z" />
    <glyph glyph-name="threesuperior" unicode="&#xb3;" horiz-adv-x="384" 
d="M405 780q36 -30 36 -82q0 -44 -30 -79.5t-89 -50.5v-1q71 -27 71 -99q0 -34 -20.5 -67.5t-60.5 -56t-94 -22.5q-67 0 -102 28.5t-35 79.5q0 18 5 33h34q-3 -16 -3 -29q0 -39 25.5 -60t75.5 -21q44 0 76 17t48.5 43.5t16.5 53.5q0 43 -27.5 65.5t-79.5 22.5h-26l8 31h24
q50 0 84 16.5t50 42t16 52.5q0 38 -27.5 59.5t-75.5 21.5q-49 0 -83.5 -27t-47.5 -80h-34q15 65 59.5 102t105.5 37q64 0 100 -30z" />
    <glyph glyph-name="acute" unicode="&#xb4;" horiz-adv-x="241" 
d="M130 573l124 139h51l-136 -139h-39z" />
    <glyph glyph-name="mu" unicode="&#xb5;" horiz-adv-x="556" 
d="M422 63q0 -19 8 -26.5t27 -7.5q13 0 25 4l-8 -33q-12 -4 -29 -4q-57 0 -57 57q0 15 5 40h-2q-30 -47 -77.5 -74.5t-100.5 -27.5q-56 0 -89.5 25t-41.5 73l-68 -274h-36l173 693h36l-75 -298q-11 -46 -11 -75q0 -111 117 -111q42 0 82 21t70.5 61t44.5 95l76 307h36
l-96 -388q-9 -32 -9 -57z" />
    <glyph glyph-name="paragraph" unicode="&#xb6;" horiz-adv-x="521" 
d="M527 683l-200 -803h-30l200 803h-91l-200 -803h-30l111 445q-87 5 -132.5 49.5t-45.5 128.5q0 49 23.5 97.5t68 80t106.5 31.5h307l-7 -29h-80z" />
    <glyph glyph-name="periodcentered" unicode="&#xb7;" horiz-adv-x="170" 
d="M64 266l19 79h49l-19 -79h-49z" />
    <glyph glyph-name="cedilla" unicode="&#xb8;" horiz-adv-x="288" 
d="M76 -64q30 0 47 -16.5t17 -46.5q0 -36 -30 -60t-78 -24q-51 0 -91 25l13 22q31 -20 77 -20q35 0 56 15t21 41q0 20 -12.5 31t-36.5 11q-18 0 -33 -5l-12 13l72 78h34l-61 -66q8 2 17 2z" />
    <glyph glyph-name="onesuperior" unicode="&#xb9;" horiz-adv-x="229" 
d="M134 330l100 399h-2q-16 -18 -42.5 -26t-68.5 -8l7 28q53 0 82.5 18t47.5 61h28l-118 -472h-34z" />
    <glyph glyph-name="ordmasculine" unicode="&#xba;" horiz-adv-x="390" 
d="M386.5 655.5q36.5 -38.5 36.5 -107.5q0 -52 -22.5 -104.5t-66.5 -87t-104 -34.5q-66 0 -101.5 38.5t-35.5 107.5q0 52 22 104.5t65.5 87t103.5 34.5q66 0 102.5 -38.5zM197.5 633.5q-35.5 -30.5 -53.5 -76.5t-18 -90q0 -55 27 -85.5t79 -30.5q50 0 86 30.5t54 76.5t18 91
q0 55 -27 85t-80 30q-50 0 -85.5 -30.5z" />
    <glyph glyph-name="guillemotright" unicode="&#xbb;" horiz-adv-x="391" 
d="M103 454h35l66 -202l-160 -198h-41l164 203zM236 454h36l66 -202l-161 -198h-41l164 203z" />
    <glyph glyph-name="onequarter" unicode="&#xbc;" horiz-adv-x="627" 
d="M103 270l83 332h-2q-30 -24 -94 -24l7 29q46 0 71.5 15t40.5 52h28l-100 -404h-34zM-16 0l562 674h40l-562 -674h-40zM507 113l-28 -113h-33l28 113h-194l9 37l243 254h48l-65 -260h76l-8 -31h-76zM482 144l14 59l40 159h-2q-33 -35 -102 -107l-35 -37l-72 -74h157z" />
    <glyph glyph-name="onehalf" unicode="&#xbd;" horiz-adv-x="661" 
d="M103 270l83 332h-2q-30 -24 -94 -24l7 29q46 0 71.5 15t40.5 52h28l-100 -404h-34zM-16 0l562 674h40l-562 -674h-40zM601.5 385q29.5 -27 29.5 -71q0 -49 -34 -83.5t-117 -74.5q-72 -34 -101 -61t-39 -63h234l-8 -32h-268q11 67 47.5 106.5t122.5 80.5q73 34 100 60
t27 63q0 33 -19 51t-56 18q-39 0 -68 -24t-40 -64h-37q16 58 54.5 89.5t92.5 31.5q50 0 79.5 -27z" />
    <glyph glyph-name="threequarters" unicode="&#xbe;" horiz-adv-x="759" 
d="M339 656q31 -26 31 -71q0 -37 -24.5 -66.5t-74.5 -43.5v-2q27 -11 42 -32.5t15 -52.5q0 -29 -17.5 -58t-51.5 -48t-81 -19q-58 0 -89 25t-31 69q0 15 4 28h35q-3 -12 -3 -25q0 -65 84 -65q54 0 85 28.5t31 64.5q0 35 -23.5 53t-66.5 18h-21l8 32h20q61 0 93 28.5t32 64.5
q0 30 -22.5 48t-62.5 18q-42 0 -70 -22.5t-38 -66.5h-35q13 58 51.5 89.5t92.5 31.5q56 0 87 -26zM115 0l562 674h40l-562 -674h-40zM638 113l-28 -113h-33l28 113h-194l9 37l243 254h48l-65 -260h76l-8 -31h-76zM613 144l14 59l40 159h-2q-33 -35 -102 -107l-35 -37
l-72 -74h157z" />
    <glyph glyph-name="questiondown" unicode="&#xbf;" horiz-adv-x="447" 
d="M350 508l-19 -80h-46l20 80h45zM16 -172q-48 43 -48 114q0 57 33.5 105t125.5 109q50 34 75.5 59t41.5 57.5t31 90.5h33q-16 -66 -32 -102.5t-43.5 -63.5t-83.5 -66q-59 -40 -89.5 -71t-41.5 -57.5t-11 -58.5q0 -56 38 -90t102 -34q70 0 121 41t73 118h38
q-27 -94 -88 -144t-146 -50q-81 0 -129 43z" />
    <glyph glyph-name="Agrave" unicode="&#xc0;" horiz-adv-x="648" 
d="M150 250l-164 -250h-43l469 712h51l115 -712h-38l-40 250h-350zM481 373q-9 55 -22 138l-27 168h-1l-200 -306l-58 -88h322zM472 760l-82 130h47l69 -130h-34z" />
    <glyph glyph-name="Aacute" unicode="&#xc1;" horiz-adv-x="648" 
d="M150 250l-164 -250h-43l469 712h51l115 -712h-38l-40 250h-350zM481 373q-9 55 -22 138l-27 168h-1l-200 -306l-58 -88h322zM394 760l129 130h52l-141 -130h-40z" />
    <glyph glyph-name="Acircumflex" unicode="&#xc2;" horiz-adv-x="648" 
d="M150 250l-164 -250h-43l469 712h51l115 -712h-38l-40 250h-350zM481 373q-9 55 -22 138l-27 168h-1l-200 -306l-58 -88h322zM503 890l84 -130h-38l-68 104l-121 -104h-47l150 130h40z" />
    <glyph glyph-name="Atilde" unicode="&#xc3;" horiz-adv-x="648" 
d="M150 250l-164 -250h-43l469 712h51l115 -712h-38l-40 250h-350zM481 373q-9 55 -22 138l-27 168h-1l-200 -306l-58 -88h322zM595 812q-26 -24 -59 -24q-21 0 -36.5 8t-38.5 24q-18 14 -31 21t-29 7q-22 0 -38.5 -15.5t-25.5 -44.5h-32q13 44 39 68t59 24q21 0 36.5 -8
t38.5 -24q18 -14 31 -21t29 -7q22 0 38.5 15.5t26.5 44.5h32q-14 -44 -40 -68z" />
    <glyph glyph-name="Adieresis" unicode="&#xc4;" horiz-adv-x="648" 
d="M150 250l-164 -250h-43l469 712h51l115 -712h-38l-40 250h-350zM481 373q-9 55 -22 138l-27 168h-1l-200 -306l-58 -88h322zM345 779l21 81h36l-21 -81h-36zM528 779l21 81h36l-21 -81h-36z" />
    <glyph glyph-name="Aring" unicode="&#xc5;" horiz-adv-x="648" 
d="M150 250l-164 -250h-43l469 712h51l115 -712h-38l-40 250h-350zM481 373q-9 55 -22 138l-27 168h-1l-200 -306l-58 -88h322zM525.5 913.5q26.5 -26.5 26.5 -63.5t-26 -63.5t-64 -26.5q-37 0 -63.5 26.5t-26.5 63.5t26.5 63.5t63.5 26.5t63.5 -26.5zM417 895.5
q-19 -18.5 -19 -45.5t19 -45.5t45 -18.5q27 0 45.5 18.5t18.5 45.5t-18.5 45.5t-45.5 18.5q-26 0 -45 -18.5z" />
    <glyph glyph-name="AE" unicode="&#xc6;" horiz-adv-x="913" 
d="M524 383h333l-9 -35h-327l-29 -313h309l-9 -35h-339l25 268h-295l-207 -268h-45l548 712h477l-9 -35h-395zM498 677l-288 -374h272l34 374h-18z" />
    <glyph glyph-name="Ccedilla" unicode="&#xc7;" horiz-adv-x="672" 
d="M562.5 694.5q50.5 -28.5 76.5 -79t26 -114.5q0 -13 -2 -39h-39q2 26 2 37q0 85 -49.5 136.5t-138.5 51.5q-104 0 -180 -64.5t-115.5 -162.5t-39.5 -194q0 -111 54 -176t151 -65q91 0 163 54t104 142h40q-34 -100 -113 -163.5t-181 -68.5l-51 -55q8 2 17 2q30 0 47 -16.5
t17 -46.5q0 -36 -30 -60t-78 -24q-51 0 -91 25l13 22q31 -20 77 -20q35 0 56 15t21 41q0 20 -12.5 31t-36.5 11q-18 0 -33 -5l-12 13l62 68q-105 6 -163.5 79.5t-58.5 194.5q0 106 44 212.5t129 176.5t202 70q72 0 122.5 -28.5z" />
    <glyph glyph-name="Egrave" unicode="&#xc8;" horiz-adv-x="597" 
d="M246 677l-73 -294h368l-9 -35h-367l-79 -313h399l-8 -35h-436l177 712h423l-9 -35h-386zM453 760l-82 130h47l69 -130h-34z" />
    <glyph glyph-name="Eacute" unicode="&#xc9;" horiz-adv-x="597" 
d="M246 677l-73 -294h368l-9 -35h-367l-79 -313h399l-8 -35h-436l177 712h423l-9 -35h-386zM376 760l129 130h52l-141 -130h-40z" />
    <glyph glyph-name="Ecircumflex" unicode="&#xca;" horiz-adv-x="597" 
d="M246 677l-73 -294h368l-9 -35h-367l-79 -313h399l-8 -35h-436l177 712h423l-9 -35h-386zM485 890l84 -130h-38l-68 104l-121 -104h-47l150 130h40z" />
    <glyph glyph-name="Edieresis" unicode="&#xcb;" horiz-adv-x="597" 
d="M246 677l-73 -294h368l-9 -35h-367l-79 -313h399l-8 -35h-436l177 712h423l-9 -35h-386zM327 779l21 81h36l-21 -81h-36zM510 779l21 81h36l-21 -81h-36z" />
    <glyph glyph-name="Igrave" unicode="&#xcc;" horiz-adv-x="245" 
d="M41 0l177 712h37l-177 -712h-37zM270 760l-82 130h47l69 -130h-34z" />
    <glyph glyph-name="Iacute" unicode="&#xcd;" horiz-adv-x="245" 
d="M41 0l177 712h37l-177 -712h-37zM193 760l129 130h52l-141 -130h-40z" />
    <glyph glyph-name="Icircumflex" unicode="&#xce;" horiz-adv-x="245" 
d="M41 0l177 712h37l-177 -712h-37zM301 890l84 -130h-38l-68 104l-121 -104h-47l150 130h40z" />
    <glyph glyph-name="Idieresis" unicode="&#xcf;" horiz-adv-x="245" 
d="M41 0l177 712h37l-177 -712h-37zM144 779l21 81h36l-21 -81h-36zM327 779l21 81h36l-21 -81h-36z" />
    <glyph glyph-name="Eth" unicode="&#xd0;" horiz-adv-x="712" 
d="M611 634.5q81 -77.5 81 -224.5q0 -99 -46 -193t-142 -155.5t-237 -61.5h-226l86 344h-64l8 33h64l83 335h156q156 0 237 -77.5zM484 91.5q87 56.5 128 142.5t41 174q0 131 -71 200t-209 69h-127l-75 -300h241l-9 -33h-240l-77 -309h182q129 0 216 56.5z" />
    <glyph glyph-name="Ntilde" unicode="&#xd1;" horiz-adv-x="730" 
d="M509 0l-126 326q-81 207 -136 349h-1l-93 -373l-75 -302h-37l177 712h54l126 -326q81 -207 136 -349h1q46 185 59 238q12 45 34 135l75 302h38l-177 -712h-55zM636 812q-26 -24 -59 -24q-21 0 -36.5 8t-38.5 24q-18 14 -31 21t-29 7q-22 0 -38.5 -15.5t-25.5 -44.5h-32
q13 44 39 68t59 24q21 0 36.5 -8t38.5 -24q18 -14 31 -21t29 -7q22 0 38.5 15.5t26.5 44.5h32q-14 -44 -40 -68z" />
    <glyph glyph-name="Ograve" unicode="&#xd2;" horiz-adv-x="712" 
d="M576.5 687q58.5 -36 89 -100.5t30.5 -149.5q0 -104 -44.5 -208t-129 -172t-197.5 -68q-81 0 -139 36t-88.5 100.5t-30.5 149.5q0 104 44.5 208t128.5 172t197 68q81 0 139.5 -36zM260 624q-75 -63 -115 -158.5t-40 -190.5q0 -113 58 -181.5t163 -68.5q101 0 176.5 62.5
t115.5 158.5t40 191q0 113 -58.5 181.5t-163.5 68.5q-101 0 -176 -63zM480 760l-82 130h47l69 -130h-34z" />
    <glyph glyph-name="Oacute" unicode="&#xd3;" horiz-adv-x="712" 
d="M576.5 687q58.5 -36 89 -100.5t30.5 -149.5q0 -104 -44.5 -208t-129 -172t-197.5 -68q-81 0 -139 36t-88.5 100.5t-30.5 149.5q0 104 44.5 208t128.5 172t197 68q81 0 139.5 -36zM260 624q-75 -63 -115 -158.5t-40 -190.5q0 -113 58 -181.5t163 -68.5q101 0 176.5 62.5
t115.5 158.5t40 191q0 113 -58.5 181.5t-163.5 68.5q-101 0 -176 -63zM402 760l129 130h52l-141 -130h-40z" />
    <glyph glyph-name="Ocircumflex" unicode="&#xd4;" horiz-adv-x="712" 
d="M576.5 687q58.5 -36 89 -100.5t30.5 -149.5q0 -104 -44.5 -208t-129 -172t-197.5 -68q-81 0 -139 36t-88.5 100.5t-30.5 149.5q0 104 44.5 208t128.5 172t197 68q81 0 139.5 -36zM260 624q-75 -63 -115 -158.5t-40 -190.5q0 -113 58 -181.5t163 -68.5q101 0 176.5 62.5
t115.5 158.5t40 191q0 113 -58.5 181.5t-163.5 68.5q-101 0 -176 -63zM511 890l84 -130h-38l-68 104l-121 -104h-47l150 130h40z" />
    <glyph glyph-name="Otilde" unicode="&#xd5;" horiz-adv-x="712" 
d="M576.5 687q58.5 -36 89 -100.5t30.5 -149.5q0 -104 -44.5 -208t-129 -172t-197.5 -68q-81 0 -139 36t-88.5 100.5t-30.5 149.5q0 104 44.5 208t128.5 172t197 68q81 0 139.5 -36zM260 624q-75 -63 -115 -158.5t-40 -190.5q0 -113 58 -181.5t163 -68.5q101 0 176.5 62.5
t115.5 158.5t40 191q0 113 -58.5 181.5t-163.5 68.5q-101 0 -176 -63zM603 812q-26 -24 -59 -24q-21 0 -36.5 8t-38.5 24q-18 14 -31 21t-29 7q-22 0 -38.5 -15.5t-25.5 -44.5h-32q13 44 39 68t59 24q21 0 36.5 -8t38.5 -24q18 -14 31 -21t29 -7q22 0 38.5 15.5t26.5 44.5
h32q-14 -44 -40 -68z" />
    <glyph glyph-name="Odieresis" unicode="&#xd6;" horiz-adv-x="712" 
d="M576.5 687q58.5 -36 89 -100.5t30.5 -149.5q0 -104 -44.5 -208t-129 -172t-197.5 -68q-81 0 -139 36t-88.5 100.5t-30.5 149.5q0 104 44.5 208t128.5 172t197 68q81 0 139.5 -36zM260 624q-75 -63 -115 -158.5t-40 -190.5q0 -113 58 -181.5t163 -68.5q101 0 176.5 62.5
t115.5 158.5t40 191q0 113 -58.5 181.5t-163.5 68.5q-101 0 -176 -63zM353 779l21 81h36l-21 -81h-36zM536 779l21 81h36l-21 -81h-36z" />
    <glyph glyph-name="multiply" unicode="&#xd7;" horiz-adv-x="566" 
d="M306 306l204 -204l-23 -23l-204 204l-203 -203l-23 23l203 203l-203 203l23 23l203 -203l204 204l23 -23z" />
    <glyph glyph-name="Oslash" unicode="&#xd8;" horiz-adv-x="712" 
d="M696 439q0 -104 -45 -208.5t-129.5 -173t-198.5 -68.5q-65 0 -115 23.5t-83 66.5l-71 -70l-24 24l76 75q-39 67 -39 165q0 105 44.5 209t129 172.5t198.5 68.5q64 0 114.5 -23t83.5 -66l70 69l25 -24l-75 -74q39 -69 39 -166zM135 136l474 470q-28 39 -72 60t-101 21
q-101 0 -176 -63t-115 -158.5t-40 -190.5q0 -81 30 -139zM628 576l-475 -469q28 -40 72 -61t101 -21q101 0 176.5 62.5t115.5 158.5t40 191q0 82 -30 139z" />
    <glyph glyph-name="Ugrave" unicode="&#xd9;" horiz-adv-x="684" 
d="M475.5 50.5q-73.5 -61.5 -183.5 -61.5q-98 0 -149.5 50t-51.5 147q0 45 15 102l106 424h37l-108 -434q-13 -49 -13 -91q0 -162 167 -162q94 0 158.5 54.5t91.5 162.5l118 470h37l-120 -480q-31 -120 -104.5 -181.5zM480 760l-82 130h47l69 -130h-34z" />
    <glyph glyph-name="Uacute" unicode="&#xda;" horiz-adv-x="684" 
d="M475.5 50.5q-73.5 -61.5 -183.5 -61.5q-98 0 -149.5 50t-51.5 147q0 45 15 102l106 424h37l-108 -434q-13 -49 -13 -91q0 -162 167 -162q94 0 158.5 54.5t91.5 162.5l118 470h37l-120 -480q-31 -120 -104.5 -181.5zM402 760l129 130h52l-141 -130h-40z" />
    <glyph glyph-name="Ucircumflex" unicode="&#xdb;" horiz-adv-x="684" 
d="M475.5 50.5q-73.5 -61.5 -183.5 -61.5q-98 0 -149.5 50t-51.5 147q0 45 15 102l106 424h37l-108 -434q-13 -49 -13 -91q0 -162 167 -162q94 0 158.5 54.5t91.5 162.5l118 470h37l-120 -480q-31 -120 -104.5 -181.5zM511 890l84 -130h-38l-68 104l-121 -104h-47l150 130
h40z" />
    <glyph glyph-name="Udieresis" unicode="&#xdc;" horiz-adv-x="684" 
d="M475.5 50.5q-73.5 -61.5 -183.5 -61.5q-98 0 -149.5 50t-51.5 147q0 45 15 102l106 424h37l-108 -434q-13 -49 -13 -91q0 -162 167 -162q94 0 158.5 54.5t91.5 162.5l118 470h37l-120 -480q-31 -120 -104.5 -181.5zM353 779l21 81h36l-21 -81h-36zM536 779l21 81h36
l-21 -81h-36z" />
    <glyph glyph-name="Yacute" unicode="&#xdd;" horiz-adv-x="585" 
d="M248 0h-37l77 312l-168 400h40l68 -163l83 -199h1l185 201l146 161h50l-367 -400zM349 760l129 130h52l-141 -130h-40z" />
    <glyph glyph-name="Thorn" unicode="&#xde;" horiz-adv-x="588" 
d="M383 566q101 0 152.5 -47t51.5 -130q0 -52 -27.5 -102t-83.5 -82.5t-138 -32.5h-217l-43 -172h-37l177 712h37l-36 -146h164zM129 207h210q70 0 117.5 27.5t70 69.5t22.5 84q0 68 -41.5 105.5t-126.5 37.5h-171z" />
    <glyph glyph-name="germandbls" unicode="&#xdf;" horiz-adv-x="537" 
d="M493 686q42 -37 42 -100q0 -64 -41 -116.5t-120 -68.5v-2q50 -14 79 -53.5t29 -106.5q0 -60 -30.5 -116.5t-93 -92.5t-151.5 -36q-35 0 -64 9l8 32q22 -7 57 -7q78 0 131.5 31.5t80 80t26.5 100.5q0 68 -39 106t-109 38h-5l8 35q68 0 112.5 24.5t64.5 61.5t20 76
q0 51 -32 80t-92 29q-70 0 -117.5 -47t-69.5 -135l-126 -508h-36l127 513q25 100 82.5 155t140.5 55q76 0 118 -37z" />
    <glyph glyph-name="agrave" unicode="&#xe0;" horiz-adv-x="508" 
d="M408 482.5q42 -36.5 42 -109.5q0 -26 -9 -67l-48 -190q-17 -67 -19 -116h-35q1 32 16 93h-1q-68 -103 -194 -103q-70 0 -110 34.5t-40 92.5q0 61 47 105.5t160 61.5q87 13 188 20l3 12q8 34 8 57q0 57 -33.5 85.5t-91.5 28.5q-66 0 -109.5 -36t-56.5 -96h-38
q16 74 71 119t134 45q74 0 116 -36.5zM220 252q-97 -14 -134.5 -49t-37.5 -83q0 -46 31.5 -72t86.5 -26q79 0 136 49t79 137l16 64q-104 -8 -177 -20zM363 573h-33l-73 139h45z" />
    <glyph glyph-name="aacute" unicode="&#xe1;" horiz-adv-x="508" 
d="M408 482.5q42 -36.5 42 -109.5q0 -26 -9 -67l-48 -190q-17 -67 -19 -116h-35q1 32 16 93h-1q-68 -103 -194 -103q-70 0 -110 34.5t-40 92.5q0 61 47 105.5t160 61.5q87 13 188 20l3 12q8 34 8 57q0 57 -33.5 85.5t-91.5 28.5q-66 0 -109.5 -36t-56.5 -96h-38
q16 74 71 119t134 45q74 0 116 -36.5zM220 252q-97 -14 -134.5 -49t-37.5 -83q0 -46 31.5 -72t86.5 -26q79 0 136 49t79 137l16 64q-104 -8 -177 -20zM260 573l124 139h51l-136 -139h-39z" />
    <glyph glyph-name="acircumflex" unicode="&#xe2;" horiz-adv-x="508" 
d="M408 482.5q42 -36.5 42 -109.5q0 -26 -9 -67l-48 -190q-17 -67 -19 -116h-35q1 32 16 93h-1q-68 -103 -194 -103q-70 0 -110 34.5t-40 92.5q0 61 47 105.5t160 61.5q87 13 188 20l3 12q8 34 8 57q0 57 -33.5 85.5t-91.5 28.5q-66 0 -109.5 -36t-56.5 -96h-38
q16 74 71 119t134 45q74 0 116 -36.5zM220 252q-97 -14 -134.5 -49t-37.5 -83q0 -46 31.5 -72t86.5 -26q79 0 136 49t79 137l16 64q-104 -8 -177 -20zM410 573l-67 113l-122 -113h-46l151 139h40l82 -139h-38z" />
    <glyph glyph-name="atilde" unicode="&#xe3;" horiz-adv-x="508" 
d="M408 482.5q42 -36.5 42 -109.5q0 -26 -9 -67l-48 -190q-17 -67 -19 -116h-35q1 32 16 93h-1q-68 -103 -194 -103q-70 0 -110 34.5t-40 92.5q0 61 47 105.5t160 61.5q87 13 188 20l3 12q8 34 8 57q0 57 -33.5 85.5t-91.5 28.5q-66 0 -109.5 -36t-56.5 -96h-38
q16 74 71 119t134 45q74 0 116 -36.5zM220 252q-97 -14 -134.5 -49t-37.5 -83q0 -46 31.5 -72t86.5 -26q79 0 136 49t79 137l16 64q-104 -8 -177 -20zM458 634q-26 -24 -59 -24q-21 0 -37 8t-37 24q-20 15 -32 21.5t-28 6.5q-22 0 -38.5 -15.5t-25.5 -44.5h-32q13 44 39 68
t59 24q21 0 37 -8t37 -24q20 -15 32 -21.5t28 -6.5q22 0 38.5 15.5t26.5 44.5h32q-14 -44 -40 -68z" />
    <glyph glyph-name="adieresis" unicode="&#xe4;" horiz-adv-x="508" 
d="M408 482.5q42 -36.5 42 -109.5q0 -26 -9 -67l-48 -190q-17 -67 -19 -116h-35q1 32 16 93h-1q-68 -103 -194 -103q-70 0 -110 34.5t-40 92.5q0 61 47 105.5t160 61.5q87 13 188 20l3 12q8 34 8 57q0 57 -33.5 85.5t-91.5 28.5q-66 0 -109.5 -36t-56.5 -96h-38
q16 74 71 119t134 45q74 0 116 -36.5zM220 252q-97 -14 -134.5 -49t-37.5 -83q0 -46 31.5 -72t86.5 -26q79 0 136 49t79 137l16 64q-104 -8 -177 -20zM217 631l20 81h36l-20 -81h-36zM400 631l20 81h36l-20 -81h-36z" />
    <glyph glyph-name="aring" unicode="&#xe5;" horiz-adv-x="508" 
d="M408 482.5q42 -36.5 42 -109.5q0 -26 -9 -67l-48 -190q-17 -67 -19 -116h-35q1 32 16 93h-1q-68 -103 -194 -103q-70 0 -110 34.5t-40 92.5q0 61 47 105.5t160 61.5q87 13 188 20l3 12q8 34 8 57q0 57 -33.5 85.5t-91.5 28.5q-66 0 -109.5 -36t-56.5 -96h-38
q16 74 71 119t134 45q74 0 116 -36.5zM220 252q-97 -14 -134.5 -49t-37.5 -83q0 -46 31.5 -72t86.5 -26q79 0 136 49t79 137l16 64q-104 -8 -177 -20zM389.5 735.5q26.5 -26.5 26.5 -63.5t-26.5 -63.5t-63.5 -26.5t-63.5 26.5t-26.5 63.5q0 38 26.5 64t63.5 26t63.5 -26.5z
M280.5 717.5q-18.5 -18.5 -18.5 -45.5t18.5 -45.5t45.5 -18.5t45.5 18.5t18.5 45.5t-18.5 45.5t-45.5 18.5t-45.5 -18.5z" />
    <glyph glyph-name="ae" unicode="&#xe6;" horiz-adv-x="833" 
d="M412 180q0 -77 34.5 -118t95.5 -41q59 0 106.5 35.5t68.5 93.5h38q-26 -71 -83 -116t-131 -45q-70 0 -109.5 40.5t-47.5 115.5q-30 -72 -89 -114t-128 -42q-74 0 -115.5 34t-41.5 94q0 42 22 79.5t75 62t140 24.5h147l9 33q7 33 7 51q0 61 -31 90.5t-88 29.5
q-66 0 -109.5 -36t-56.5 -96h-38q16 74 71 119t134 45q65 0 103.5 -31.5t44.5 -95.5q34 58 85.5 92.5t115.5 34.5q75 0 116.5 -47.5t41.5 -134.5q0 -35 -13 -86h-366q-8 -35 -8 -71zM508 431q-57 -56 -80 -148h331q6 28 6 55q0 72 -33 110.5t-93 38.5q-74 0 -131 -56z
M301 73.5q56 52.5 77 145.5l9 32h-141q-107 0 -152.5 -37.5t-45.5 -91.5q0 -48 31 -74.5t88 -26.5q78 0 134 52.5z" />
    <glyph glyph-name="ccedilla" unicode="&#xe7;" horiz-adv-x="505" 
d="M443 348q0 64 -35 101t-97 37q-72 0 -125 -47t-80.5 -117t-27.5 -137q0 -77 37 -120t104 -43q63 0 114 39.5t73 101.5h39q-25 -71 -78.5 -117.5t-122.5 -54.5l-52 -57q8 2 17 2q30 0 47 -16.5t17 -46.5q0 -36 -30 -60t-78 -24q-51 0 -91 25l13 22q31 -20 77 -20
q35 0 56 15t21 41q0 20 -12.5 31t-36.5 11q-18 0 -33 -5l-12 13l62 67q-80 3 -124 54t-44 140q0 76 31.5 154t93.5 130t147 52q78 0 122.5 -46t44.5 -124q0 -12 -1 -19h-37q1 7 1 18z" />
    <glyph glyph-name="egrave" unicode="&#xe8;" horiz-adv-x="526" 
d="M75 180q0 -77 38 -118t107 -41q64 0 115.5 35.5t74.5 93.5h38q-27 -71 -88.5 -116t-141.5 -45q-87 0 -132.5 50.5t-45.5 142.5q0 76 32.5 154.5t96 130.5t149.5 52q83 0 128.5 -47.5t45.5 -134.5q0 -37 -14 -86h-395q-8 -35 -8 -71zM177 431.5q-61 -55.5 -87 -148.5h362
q6 28 6 55q0 72 -37 110.5t-104 38.5q-79 0 -140 -55.5zM374 573h-33l-73 139h45z" />
    <glyph glyph-name="eacute" unicode="&#xe9;" horiz-adv-x="526" 
d="M75 180q0 -77 38 -118t107 -41q64 0 115.5 35.5t74.5 93.5h38q-27 -71 -88.5 -116t-141.5 -45q-87 0 -132.5 50.5t-45.5 142.5q0 76 32.5 154.5t96 130.5t149.5 52q83 0 128.5 -47.5t45.5 -134.5q0 -37 -14 -86h-395q-8 -35 -8 -71zM177 431.5q-61 -55.5 -87 -148.5h362
q6 28 6 55q0 72 -37 110.5t-104 38.5q-79 0 -140 -55.5zM270 573l124 139h51l-136 -139h-39z" />
    <glyph glyph-name="ecircumflex" unicode="&#xea;" horiz-adv-x="526" 
d="M75 180q0 -77 38 -118t107 -41q64 0 115.5 35.5t74.5 93.5h38q-27 -71 -88.5 -116t-141.5 -45q-87 0 -132.5 50.5t-45.5 142.5q0 76 32.5 154.5t96 130.5t149.5 52q83 0 128.5 -47.5t45.5 -134.5q0 -37 -14 -86h-395q-8 -35 -8 -71zM177 431.5q-61 -55.5 -87 -148.5h362
q6 28 6 55q0 72 -37 110.5t-104 38.5q-79 0 -140 -55.5zM421 573l-67 113l-122 -113h-46l151 139h40l82 -139h-38z" />
    <glyph glyph-name="edieresis" unicode="&#xeb;" horiz-adv-x="526" 
d="M75 180q0 -77 38 -118t107 -41q64 0 115.5 35.5t74.5 93.5h38q-27 -71 -88.5 -116t-141.5 -45q-87 0 -132.5 50.5t-45.5 142.5q0 76 32.5 154.5t96 130.5t149.5 52q83 0 128.5 -47.5t45.5 -134.5q0 -37 -14 -86h-395q-8 -35 -8 -71zM177 431.5q-61 -55.5 -87 -148.5h362
q6 28 6 55q0 72 -37 110.5t-104 38.5q-79 0 -140 -55.5zM227 631l20 81h36l-20 -81h-36zM410 631l20 81h36l-20 -81h-36z" />
    <glyph glyph-name="igrave" unicode="&#xec;" horiz-adv-x="211" 
d="M25 0l126 508h36l-126 -508h-36zM237 573h-33l-73 139h45z" />
    <glyph glyph-name="iacute" unicode="&#xed;" horiz-adv-x="211" 
d="M25 0l126 508h36l-126 -508h-36zM134 573l124 139h51l-136 -139h-39z" />
    <glyph glyph-name="icircumflex" unicode="&#xee;" horiz-adv-x="211" 
d="M25 0l126 508h36l-126 -508h-36zM266 574l-48 112l-106 -112h-45l131 138h43l63 -138h-38z" />
    <glyph glyph-name="idieresis" unicode="&#xef;" horiz-adv-x="211" 
d="M25 0l126 508h36l-126 -508h-36zM112 635l19 77h36l-19 -77h-36zM255 635l19 77h36l-19 -77h-36z" />
    <glyph glyph-name="eth" unicode="&#xf0;" horiz-adv-x="539" 
d="M497 318q0 -76 -31.5 -152.5t-93.5 -126.5t-147 -50q-88 0 -135.5 53t-47.5 149q0 74 31.5 149.5t93 125.5t144.5 50q89 0 130 -61l1 1q-32 86 -96 164l-143 -65l-13 27l135 61q-27 31 -58 58l24 22q28 -26 65 -66l138 63l13 -27l-132 -60q122 -150 122 -315zM354 67.5
q53 45.5 80 114t27 133.5q0 81 -39 125t-112 44q-72 0 -125 -46t-80 -114.5t-27 -133.5q0 -81 38.5 -124.5t110.5 -43.5q74 0 127 45.5z" />
    <glyph glyph-name="ntilde" unicode="&#xf1;" 
d="M452 482q38 -36 38 -106q0 -34 -12 -79l-74 -297h-36l75 300q10 40 10 74q0 56 -29 84t-84 28q-44 0 -85.5 -21.5t-72.5 -61t-44 -92.5l-78 -311h-36l127 508h36l-22 -86h2q32 45 79.5 70.5t99.5 25.5q68 0 106 -36zM501 634q-26 -24 -59 -24q-21 0 -37 8t-37 24
q-20 15 -32 21.5t-28 6.5q-22 0 -38.5 -15.5t-25.5 -44.5h-32q13 44 39 68t59 24q21 0 37 -8t37 -24q20 -15 32 -21.5t28 -6.5q22 0 38.5 15.5t26.5 44.5h32q-14 -44 -40 -68z" />
    <glyph glyph-name="ograve" unicode="&#xf2;" horiz-adv-x="539" 
d="M447 465q49 -54 49 -151q0 -74 -31.5 -149.5t-92.5 -125.5t-144 -50q-89 0 -137.5 53.5t-48.5 150.5q0 75 31 150.5t91.5 125.5t143.5 50q90 0 139 -54zM183 440.5q-52 -45.5 -78.5 -114t-26.5 -134.5q0 -81 39 -125.5t113 -44.5q72 0 124 45.5t78.5 113.5t26.5 134
q0 82 -39.5 126.5t-113.5 44.5q-71 0 -123 -45.5zM381 573h-33l-73 139h45z" />
    <glyph glyph-name="oacute" unicode="&#xf3;" horiz-adv-x="539" 
d="M447 465q49 -54 49 -151q0 -74 -31.5 -149.5t-92.5 -125.5t-144 -50q-89 0 -137.5 53.5t-48.5 150.5q0 75 31 150.5t91.5 125.5t143.5 50q90 0 139 -54zM183 440.5q-52 -45.5 -78.5 -114t-26.5 -134.5q0 -81 39 -125.5t113 -44.5q72 0 124 45.5t78.5 113.5t26.5 134
q0 82 -39.5 126.5t-113.5 44.5q-71 0 -123 -45.5zM277 573l124 139h51l-136 -139h-39z" />
    <glyph glyph-name="ocircumflex" unicode="&#xf4;" horiz-adv-x="539" 
d="M447 465q49 -54 49 -151q0 -74 -31.5 -149.5t-92.5 -125.5t-144 -50q-89 0 -137.5 53.5t-48.5 150.5q0 75 31 150.5t91.5 125.5t143.5 50q90 0 139 -54zM183 440.5q-52 -45.5 -78.5 -114t-26.5 -134.5q0 -81 39 -125.5t113 -44.5q72 0 124 45.5t78.5 113.5t26.5 134
q0 82 -39.5 126.5t-113.5 44.5q-71 0 -123 -45.5zM428 573l-67 113l-122 -113h-46l151 139h40l82 -139h-38z" />
    <glyph glyph-name="otilde" unicode="&#xf5;" horiz-adv-x="539" 
d="M447 465q49 -54 49 -151q0 -74 -31.5 -149.5t-92.5 -125.5t-144 -50q-89 0 -137.5 53.5t-48.5 150.5q0 75 31 150.5t91.5 125.5t143.5 50q90 0 139 -54zM183 440.5q-52 -45.5 -78.5 -114t-26.5 -134.5q0 -81 39 -125.5t113 -44.5q72 0 124 45.5t78.5 113.5t26.5 134
q0 82 -39.5 126.5t-113.5 44.5q-71 0 -123 -45.5zM475 634q-26 -24 -59 -24q-21 0 -37 8t-37 24q-20 15 -32 21.5t-28 6.5q-22 0 -38.5 -15.5t-25.5 -44.5h-32q13 44 39 68t59 24q21 0 37 -8t37 -24q20 -15 32 -21.5t28 -6.5q22 0 38.5 15.5t26.5 44.5h32q-14 -44 -40 -68z
" />
    <glyph glyph-name="odieresis" unicode="&#xf6;" horiz-adv-x="539" 
d="M447 465q49 -54 49 -151q0 -74 -31.5 -149.5t-92.5 -125.5t-144 -50q-89 0 -137.5 53.5t-48.5 150.5q0 75 31 150.5t91.5 125.5t143.5 50q90 0 139 -54zM183 440.5q-52 -45.5 -78.5 -114t-26.5 -134.5q0 -81 39 -125.5t113 -44.5q72 0 124 45.5t78.5 113.5t26.5 134
q0 82 -39.5 126.5t-113.5 44.5q-71 0 -123 -45.5zM234 631l20 81h36l-20 -81h-36zM417 631l20 81h36l-20 -81h-36z" />
    <glyph glyph-name="divide" unicode="&#xf7;" horiz-adv-x="566" 
d="M264 438v65h38v-65h-38zM75 300v34h416v-34h-416zM264 131v65h38v-65h-38z" />
    <glyph glyph-name="oslash" unicode="&#xf8;" horiz-adv-x="539" 
d="M496 314q0 -75 -32 -150t-94 -125t-147 -50q-91 0 -139 59l-60 -59l-22 22l65 64q-25 47 -25 118q0 75 32 150.5t94 125.5t147 50q93 0 139 -61l60 59l23 -22l-65 -64q24 -46 24 -117zM186.5 440.5q-53.5 -45.5 -81 -114t-27.5 -134.5q0 -54 16 -90l335 331
q-39 53 -116 53q-73 0 -126.5 -45.5zM351.5 67.5q53.5 45.5 81 113.5t27.5 134q0 51 -16 89l-334 -331q39 -51 115 -51q73 0 126.5 45.5z" />
    <glyph glyph-name="ugrave" unicode="&#xf9;" 
d="M96.5 26.5q-37.5 36.5 -37.5 105.5q0 34 12 79l74 297h36l-75 -300q-10 -40 -10 -74q0 -56 29 -84t83 -28q44 0 86 21.5t73 61t44 92.5l78 311h36l-127 -508h-36l21 86h-1q-33 -46 -80.5 -71t-99.5 -25q-68 0 -105.5 36.5zM396 573h-33l-73 139h45z" />
    <glyph glyph-name="uacute" unicode="&#xfa;" 
d="M96.5 26.5q-37.5 36.5 -37.5 105.5q0 34 12 79l74 297h36l-75 -300q-10 -40 -10 -74q0 -56 29 -84t83 -28q44 0 86 21.5t73 61t44 92.5l78 311h36l-127 -508h-36l21 86h-1q-33 -46 -80.5 -71t-99.5 -25q-68 0 -105.5 36.5zM293 573l124 139h51l-136 -139h-39z" />
    <glyph glyph-name="ucircumflex" unicode="&#xfb;" 
d="M96.5 26.5q-37.5 36.5 -37.5 105.5q0 34 12 79l74 297h36l-75 -300q-10 -40 -10 -74q0 -56 29 -84t83 -28q44 0 86 21.5t73 61t44 92.5l78 311h36l-127 -508h-36l21 86h-1q-33 -46 -80.5 -71t-99.5 -25q-68 0 -105.5 36.5zM443 573l-67 113l-122 -113h-46l151 139h40
l82 -139h-38z" />
    <glyph glyph-name="udieresis" unicode="&#xfc;" 
d="M96.5 26.5q-37.5 36.5 -37.5 105.5q0 34 12 79l74 297h36l-75 -300q-10 -40 -10 -74q0 -56 29 -84t83 -28q44 0 86 21.5t73 61t44 92.5l78 311h36l-127 -508h-36l21 86h-1q-33 -46 -80.5 -71t-99.5 -25q-68 0 -105.5 36.5zM250 631l20 81h36l-20 -81h-36zM433 631l20 81
h36l-20 -81h-36z" />
    <glyph glyph-name="yacute" unicode="&#xfd;" horiz-adv-x="442" 
d="M87 -123q-34 -37 -67 -51.5t-76 -14.5q-25 0 -42 7l8 32q17 -6 37 -6q35 0 61.5 12.5t55.5 45.5t72 98l-74 508h36l66 -461h2l298 461h42l-339 -523q-46 -71 -80 -108zM229 573l124 139h51l-136 -139h-39z" />
    <glyph glyph-name="thorn" unicode="&#xfe;" horiz-adv-x="555" 
d="M165 415q34 49 81 76.5t100 27.5q80 0 124 -50.5t44 -141.5q0 -76 -31 -154.5t-91 -130.5t-141 -52q-67 0 -108 38.5t-48 104.5h-2l-79 -318h-36l224 897h36l-74 -297h1zM220.5 439.5q-51.5 -47.5 -78 -117.5t-26.5 -136q0 -78 34.5 -121t99.5 -43q71 0 122 46.5
t77.5 116.5t26.5 138q0 78 -34.5 121t-99.5 43q-70 0 -121.5 -47.5z" />
    <glyph glyph-name="ydieresis" unicode="&#xff;" horiz-adv-x="442" 
d="M87 -123q-34 -37 -67 -51.5t-76 -14.5q-25 0 -42 7l8 32q17 -6 37 -6q35 0 61.5 12.5t55.5 45.5t72 98l-74 508h36l66 -461h2l298 461h42l-339 -523q-46 -71 -80 -108zM186 631l20 81h36l-20 -81h-36zM369 631l20 81h36l-20 -81h-36z" />
    <glyph glyph-name="Amacron" unicode="&#x100;" horiz-adv-x="648" 
d="M150 250l-164 -250h-43l469 712h51l115 -712h-38l-40 250h-350zM481 373q-9 55 -22 138l-27 168h-1l-200 -306l-58 -88h322zM338 798l8 32h242l-8 -32h-242z" />
    <glyph glyph-name="amacron" unicode="&#x101;" horiz-adv-x="508" 
d="M408 482.5q42 -36.5 42 -109.5q0 -26 -9 -67l-48 -190q-17 -67 -19 -116h-35q1 32 16 93h-1q-68 -103 -194 -103q-70 0 -110 34.5t-40 92.5q0 61 47 105.5t160 61.5q87 13 188 20l3 12q8 34 8 57q0 57 -33.5 85.5t-91.5 28.5q-66 0 -109.5 -36t-56.5 -96h-38
q16 74 71 119t134 45q74 0 116 -36.5zM220 252q-97 -14 -134.5 -49t-37.5 -83q0 -46 31.5 -72t86.5 -26q79 0 136 49t79 137l16 64q-104 -8 -177 -20zM206 637l8 32h242l-8 -32h-242z" />
    <glyph glyph-name="Abreve" unicode="&#x102;" horiz-adv-x="648" 
d="M150 250l-164 -250h-43l469 712h51l115 -712h-38l-40 250h-350zM481 373q-9 55 -22 138l-27 168h-1l-200 -306l-58 -88h322zM563 792.5q-44 -34.5 -107 -34.5q-58 0 -88.5 28.5t-30.5 81.5q0 14 2 22h30q-1 -6 -1 -18q0 -41 22.5 -62t65.5 -21q50 0 85 25.5t52 75.5h34
q-20 -63 -64 -97.5z" />
    <glyph glyph-name="abreve" unicode="&#x103;" horiz-adv-x="508" 
d="M408 482.5q42 -36.5 42 -109.5q0 -26 -9 -67l-48 -190q-17 -67 -19 -116h-35q1 32 16 93h-1q-68 -103 -194 -103q-70 0 -110 34.5t-40 92.5q0 61 47 105.5t160 61.5q87 13 188 20l3 12q8 34 8 57q0 57 -33.5 85.5t-91.5 28.5q-66 0 -109.5 -36t-56.5 -96h-38
q16 74 71 119t134 45q74 0 116 -36.5zM220 252q-97 -14 -134.5 -49t-37.5 -83q0 -46 31.5 -72t86.5 -26q79 0 136 49t79 137l16 64q-104 -8 -177 -20zM426 614.5q-44 -34.5 -107 -34.5q-58 0 -88 28.5t-30 82.5q0 13 1 21h30q-1 -6 -1 -18q0 -41 22.5 -62t65.5 -21
q50 0 85 25.5t52 75.5h34q-20 -63 -64 -97.5z" />
    <glyph glyph-name="Aogonek" unicode="&#x104;" horiz-adv-x="648" 
d="M475.5 -152.5q9.5 -8.5 29.5 -8.5t37 6l-7 -30q-17 -5 -36 -5q-34 0 -51.5 15.5t-17.5 45.5q0 33 25.5 63.5t84.5 68.5l-40 247h-350l-164 -250h-43l469 712h51l115 -712q-64 -41 -88 -70.5t-24 -55.5q0 -18 9.5 -26.5zM481 373q-9 55 -22 138l-27 168h-1l-200 -306
l-58 -88h322z" />
    <glyph glyph-name="aogonek" unicode="&#x105;" horiz-adv-x="508" 
d="M408 482.5q42 -36.5 42 -109.5q0 -26 -9 -67l-48 -190q-17 -67 -19 -116q-64 -41 -88 -70.5t-24 -55.5q0 -18 9.5 -26.5t29.5 -8.5t37 6l-7 -30q-17 -5 -36 -5q-34 0 -51.5 15.5t-17.5 45.5q0 33 26 64t87 71q2 26 16 87h-1q-68 -103 -194 -103q-70 0 -110 34.5t-40 92.5
q0 61 47 105.5t160 61.5q87 13 188 20l3 12q8 34 8 57q0 57 -33.5 85.5t-91.5 28.5q-66 0 -109.5 -36t-56.5 -96h-38q16 74 71 119t134 45q74 0 116 -36.5zM220 252q-97 -14 -134.5 -49t-37.5 -83q0 -46 31.5 -72t86.5 -26q79 0 136 49t79 137l16 64q-104 -8 -177 -20z" />
    <glyph glyph-name="Cacute" unicode="&#x106;" horiz-adv-x="672" 
d="M562.5 694.5q50.5 -28.5 76.5 -79t26 -114.5q0 -13 -2 -39h-39q2 26 2 37q0 85 -49.5 136.5t-138.5 51.5q-104 0 -180 -64.5t-115.5 -162.5t-39.5 -194q0 -111 54 -176t151 -65q91 0 163 54t104 142h40q-36 -105 -119 -168.5t-190 -63.5q-114 0 -177.5 74.5t-63.5 200.5
q0 106 44 212.5t129 176.5t202 70q72 0 122.5 -28.5zM405 760l129 130h52l-141 -130h-40z" />
    <glyph glyph-name="cacute" unicode="&#x107;" horiz-adv-x="505" 
d="M435.5 473q44.5 -46 44.5 -124q0 -12 -1 -19h-37q1 7 1 18q0 64 -35 101t-97 37q-72 0 -125 -47t-80.5 -117t-27.5 -137q0 -77 37 -120t104 -43q63 0 114 39.5t73 101.5h39q-27 -78 -88.5 -126t-139.5 -48q-84 0 -130 51t-46 143q0 76 31.5 154t93.5 130t147 52
q78 0 122.5 -46zM274 573l124 139h51l-136 -139h-39z" />
    <glyph glyph-name="Ccircumflex" unicode="&#x108;" horiz-adv-x="672" 
d="M562.5 694.5q50.5 -28.5 76.5 -79t26 -114.5q0 -13 -2 -39h-39q2 26 2 37q0 85 -49.5 136.5t-138.5 51.5q-104 0 -180 -64.5t-115.5 -162.5t-39.5 -194q0 -111 54 -176t151 -65q91 0 163 54t104 142h40q-36 -105 -119 -168.5t-190 -63.5q-114 0 -177.5 74.5t-63.5 200.5
q0 106 44 212.5t129 176.5t202 70q72 0 122.5 -28.5zM514 890l84 -130h-38l-68 104l-121 -104h-47l150 130h40z" />
    <glyph glyph-name="ccircumflex" unicode="&#x109;" horiz-adv-x="505" 
d="M435.5 473q44.5 -46 44.5 -124q0 -12 -1 -19h-37q1 7 1 18q0 64 -35 101t-97 37q-72 0 -125 -47t-80.5 -117t-27.5 -137q0 -77 37 -120t104 -43q63 0 114 39.5t73 101.5h39q-27 -78 -88.5 -126t-139.5 -48q-84 0 -130 51t-46 143q0 76 31.5 154t93.5 130t147 52
q78 0 122.5 -46zM425 573l-67 113l-122 -113h-46l151 139h40l82 -139h-38z" />
    <glyph glyph-name="Cdotaccent" unicode="&#x10a;" horiz-adv-x="672" 
d="M562.5 694.5q50.5 -28.5 76.5 -79t26 -114.5q0 -13 -2 -39h-39q2 26 2 37q0 85 -49.5 136.5t-138.5 51.5q-104 0 -180 -64.5t-115.5 -162.5t-39.5 -194q0 -111 54 -176t151 -65q91 0 163 54t104 142h40q-36 -105 -119 -168.5t-190 -63.5q-114 0 -177.5 74.5t-63.5 200.5
q0 106 44 212.5t129 176.5t202 70q72 0 122.5 -28.5zM448 779l21 81h36l-21 -81h-36z" />
    <glyph glyph-name="cdotaccent" unicode="&#x10b;" horiz-adv-x="505" 
d="M435.5 473q44.5 -46 44.5 -124q0 -12 -1 -19h-37q1 7 1 18q0 64 -35 101t-97 37q-72 0 -125 -47t-80.5 -117t-27.5 -137q0 -77 37 -120t104 -43q63 0 114 39.5t73 101.5h39q-27 -78 -88.5 -126t-139.5 -48q-84 0 -130 51t-46 143q0 76 31.5 154t93.5 130t147 52
q78 0 122.5 -46zM323 631l20 81h36l-20 -81h-36z" />
    <glyph glyph-name="Ccaron" unicode="&#x10c;" horiz-adv-x="672" 
d="M562.5 694.5q50.5 -28.5 76.5 -79t26 -114.5q0 -13 -2 -39h-39q2 26 2 37q0 85 -49.5 136.5t-138.5 51.5q-104 0 -180 -64.5t-115.5 -162.5t-39.5 -194q0 -111 54 -176t151 -65q91 0 163 54t104 142h40q-36 -105 -119 -168.5t-190 -63.5q-114 0 -177.5 74.5t-63.5 200.5
q0 106 44 212.5t129 176.5t202 70q72 0 122.5 -28.5zM441 760l-85 130h39l68 -104l120 104h48l-150 -130h-40z" />
    <glyph glyph-name="ccaron" unicode="&#x10d;" horiz-adv-x="505" 
d="M435.5 473q44.5 -46 44.5 -124q0 -12 -1 -19h-37q1 7 1 18q0 64 -35 101t-97 37q-72 0 -125 -47t-80.5 -117t-27.5 -137q0 -77 37 -120t104 -43q63 0 114 39.5t73 101.5h39q-27 -78 -88.5 -126t-139.5 -48q-84 0 -130 51t-46 143q0 76 31.5 154t93.5 130t147 52
q78 0 122.5 -46zM306 573l-82 139h38l66 -113l122 113h47l-151 -139h-40z" />
    <glyph glyph-name="Dcaron" unicode="&#x10e;" horiz-adv-x="712" 
d="M611 634.5q81 -77.5 81 -224.5q0 -99 -46 -193t-142 -155.5t-237 -61.5h-226l177 712h156q156 0 237 -77.5zM86 35h182q129 0 216 56.5t128 142.5t41 174q0 131 -71 200t-209 69h-127zM429 760l-85 130h39l68 -104l120 104h48l-150 -130h-40z" />
    <glyph glyph-name="dcaron" unicode="&#x10f;" horiz-adv-x="553" 
d="M366 0l23 93h-2q-33 -49 -80 -76.5t-101 -27.5q-80 0 -123.5 50.5t-43.5 141.5q0 76 31 154.5t90.5 130.5t140.5 52q68 0 109 -38.5t48 -104.5h1l85 337h36l-178 -712h-36zM180.5 439.5q-51.5 -46.5 -78 -116.5t-26.5 -138q0 -78 35 -121t100 -43q70 0 121.5 47.5
t78 117.5t26.5 136q0 78 -34.5 121t-99.5 43q-71 0 -122.5 -46.5zM584 537l79 175h39l-91 -175h-27z" />
    <glyph glyph-name="Dcroat" unicode="&#x110;" horiz-adv-x="712" 
d="M611 634.5q81 -77.5 81 -224.5q0 -99 -46 -193t-142 -155.5t-237 -61.5h-226l86 344h-64l8 33h64l83 335h156q156 0 237 -77.5zM484 91.5q87 56.5 128 142.5t41 174q0 131 -71 200t-209 69h-127l-75 -300h241l-9 -33h-240l-77 -309h182q129 0 216 56.5z" />
    <glyph glyph-name="dcroat" unicode="&#x111;" horiz-adv-x="551" 
d="M550 590l-148 -590h-36l23 93h-2q-33 -49 -80 -76.5t-101 -27.5q-80 0 -123.5 50.5t-43.5 141.5q0 76 31 154.5t90.5 130.5t140.5 52q68 0 109 -38.5t48 -104.5h1l54 215h-146l7 30h147l23 92h36l-23 -92h60l-8 -30h-59zM332.5 68.5q51.5 47.5 78 117.5t26.5 136
q0 78 -34.5 121t-99.5 43q-71 0 -122.5 -46.5t-78 -116.5t-26.5 -138q0 -78 35 -121t100 -43q70 0 121.5 47.5z" />
    <glyph glyph-name="Emacron" unicode="&#x112;" horiz-adv-x="597" 
d="M246 677l-73 -294h368l-9 -35h-367l-79 -313h399l-8 -35h-436l177 712h423l-9 -35h-386zM320 798l8 32h242l-8 -32h-242z" />
    <glyph glyph-name="emacron" unicode="&#x113;" horiz-adv-x="526" 
d="M75 180q0 -77 38 -118t107 -41q64 0 115.5 35.5t74.5 93.5h38q-27 -71 -88.5 -116t-141.5 -45q-87 0 -132.5 50.5t-45.5 142.5q0 76 32.5 154.5t96 130.5t149.5 52q83 0 128.5 -47.5t45.5 -134.5q0 -37 -14 -86h-395q-8 -35 -8 -71zM177 431.5q-61 -55.5 -87 -148.5h362
q6 28 6 55q0 72 -37 110.5t-104 38.5q-79 0 -140 -55.5zM217 637l8 32h242l-8 -32h-242z" />
    <glyph glyph-name="Ebreve" unicode="&#x114;" horiz-adv-x="597" 
d="M246 677l-73 -294h368l-9 -35h-367l-79 -313h399l-8 -35h-436l177 712h423l-9 -35h-386zM544 792.5q-44 -34.5 -107 -34.5q-58 0 -88.5 28.5t-30.5 81.5q0 14 2 22h30q-1 -6 -1 -18q0 -41 22.5 -62t65.5 -21q50 0 85 25.5t52 75.5h34q-20 -63 -64 -97.5z" />
    <glyph glyph-name="ebreve" unicode="&#x115;" horiz-adv-x="526" 
d="M75 180q0 -77 38 -118t107 -41q64 0 115.5 35.5t74.5 93.5h38q-27 -71 -88.5 -116t-141.5 -45q-87 0 -132.5 50.5t-45.5 142.5q0 76 32.5 154.5t96 130.5t149.5 52q83 0 128.5 -47.5t45.5 -134.5q0 -37 -14 -86h-395q-8 -35 -8 -71zM177 431.5q-61 -55.5 -87 -148.5h362
q6 28 6 55q0 72 -37 110.5t-104 38.5q-79 0 -140 -55.5zM436 614.5q-44 -34.5 -107 -34.5q-58 0 -88 28.5t-30 82.5q0 13 1 21h30q-1 -6 -1 -18q0 -41 22.5 -62t65.5 -21q50 0 85 25.5t52 75.5h34q-20 -63 -64 -97.5z" />
    <glyph glyph-name="Edotaccent" unicode="&#x116;" horiz-adv-x="597" 
d="M246 677l-73 -294h368l-9 -35h-367l-79 -313h399l-8 -35h-436l177 712h423l-9 -35h-386zM418 779l21 81h36l-21 -81h-36z" />
    <glyph glyph-name="edotaccent" unicode="&#x117;" horiz-adv-x="526" 
d="M75 180q0 -77 38 -118t107 -41q64 0 115.5 35.5t74.5 93.5h38q-27 -71 -88.5 -116t-141.5 -45q-87 0 -132.5 50.5t-45.5 142.5q0 76 32.5 154.5t96 130.5t149.5 52q83 0 128.5 -47.5t45.5 -134.5q0 -37 -14 -86h-395q-8 -35 -8 -71zM177 431.5q-61 -55.5 -87 -148.5h362
q6 28 6 55q0 72 -37 110.5t-104 38.5q-79 0 -140 -55.5zM319 631l20 81h36l-20 -81h-36z" />
    <glyph glyph-name="Eogonek" unicode="&#x118;" horiz-adv-x="597" 
d="M173 383h368l-9 -35h-367l-79 -313h399l-8 -35q-64 -41 -88 -70.5t-24 -55.5q0 -18 9.5 -26.5t29.5 -8.5t37 6l-7 -30q-17 -5 -36 -5q-34 0 -51.5 15.5t-17.5 45.5q0 32 24 62t81 67h-393l177 712h423l-9 -35h-386z" />
    <glyph glyph-name="eogonek" unicode="&#x119;" horiz-adv-x="524" 
d="M74 180q0 -77 37.5 -118t106.5 -41q65 0 116 35.5t75 93.5h37q-15 -42 -44 -75.5t-75 -65.5q-66 -45 -91 -77t-25 -58q0 -18 9.5 -26.5t29.5 -8.5q21 0 37 6l-7 -30q-17 -5 -36 -5q-34 0 -51.5 15.5t-17.5 45.5t22 59t73 66v1q-26 -8 -53 -8q-87 0 -133 50.5t-46 142.5
q0 76 33 154.5t96.5 130.5t149.5 52q82 0 127.5 -47.5t45.5 -134.5q0 -35 -13 -86h-395q-8 -35 -8 -71zM175 431q-61 -56 -86 -148h361q6 23 6 55q0 72 -37 110.5t-104 38.5q-79 0 -140 -56z" />
    <glyph glyph-name="Ecaron" unicode="&#x11a;" horiz-adv-x="597" 
d="M246 677l-73 -294h368l-9 -35h-367l-79 -313h399l-8 -35h-436l177 712h423l-9 -35h-386zM412 760l-85 130h39l68 -104l120 104h48l-150 -130h-40z" />
    <glyph glyph-name="ecaron" unicode="&#x11b;" horiz-adv-x="526" 
d="M75 180q0 -77 38 -118t107 -41q64 0 115.5 35.5t74.5 93.5h38q-27 -71 -88.5 -116t-141.5 -45q-87 0 -132.5 50.5t-45.5 142.5q0 76 32.5 154.5t96 130.5t149.5 52q83 0 128.5 -47.5t45.5 -134.5q0 -37 -14 -86h-395q-8 -35 -8 -71zM177 431.5q-61 -55.5 -87 -148.5h362
q6 28 6 55q0 72 -37 110.5t-104 38.5q-79 0 -140 -55.5zM302 573l-82 139h38l66 -113l122 113h47l-151 -139h-40z" />
    <glyph glyph-name="Gcircumflex" unicode="&#x11c;" horiz-adv-x="710" 
d="M622 667.5q60 -55.5 60 -147.5q0 -11 -2 -31h-39q1 8 1 25q0 81 -49 127t-141 46q-109 0 -188.5 -64t-120 -161.5t-40.5 -196.5q0 -111 53 -175.5t150 -64.5q96 0 177 68t118 218h-225l9 35h261l-86 -346h-36l33 134h-1q-39 -67 -107.5 -106t-148.5 -39q-111 0 -173 75
t-62 201q0 109 45.5 215t134 174.5t209.5 68.5q108 0 168 -55.5zM516 890l84 -130h-38l-68 104l-121 -104h-47l150 130h40z" />
    <glyph glyph-name="gcircumflex" unicode="&#x11d;" horiz-adv-x="554" 
d="M411.5 482.5q39.5 -36.5 48.5 -104.5h1l32 130h36l-122 -489q-26 -103 -87.5 -156t-157.5 -53q-80 0 -124.5 33.5t-44.5 94.5q0 15 3 30h36q-3 -15 -3 -29q0 -47 35 -72t99 -25q84 0 136 47t76 143l19 80h-1q-35 -51 -83.5 -78.5t-103.5 -27.5q-79 0 -121 50.5t-42 142.5
q0 72 31.5 146.5t91.5 124t142 49.5q64 0 103.5 -36.5zM184 442q-51 -45 -77.5 -112t-26.5 -129q0 -78 33.5 -120.5t97.5 -42.5q72 0 124 46.5t78.5 114t26.5 128.5q0 76 -35 118t-100 42q-70 0 -121 -45zM445 573l-67 113l-122 -113h-46l151 139h40l82 -139h-38z" />
    <glyph glyph-name="Gbreve" unicode="&#x11e;" horiz-adv-x="710" 
d="M622 667.5q60 -55.5 60 -147.5q0 -11 -2 -31h-39q1 8 1 25q0 81 -49 127t-141 46q-109 0 -188.5 -64t-120 -161.5t-40.5 -196.5q0 -111 53 -175.5t150 -64.5q96 0 177 68t118 218h-225l9 35h261l-86 -346h-36l33 134h-1q-39 -67 -107.5 -106t-148.5 -39q-111 0 -173 75
t-62 201q0 109 45.5 215t134 174.5t209.5 68.5q108 0 168 -55.5zM575 792.5q-44 -34.5 -107 -34.5q-58 0 -88.5 28.5t-30.5 81.5q0 14 2 22h30q-1 -6 -1 -18q0 -41 22.5 -62t65.5 -21q50 0 85 25.5t52 75.5h34q-20 -63 -64 -97.5z" />
    <glyph glyph-name="gbreve" unicode="&#x11f;" horiz-adv-x="554" 
d="M411.5 482.5q39.5 -36.5 48.5 -104.5h1l32 130h36l-122 -489q-26 -103 -87.5 -156t-157.5 -53q-80 0 -124.5 33.5t-44.5 94.5q0 15 3 30h36q-3 -15 -3 -29q0 -47 35 -72t99 -25q84 0 136 47t76 143l19 80h-1q-35 -51 -83.5 -78.5t-103.5 -27.5q-79 0 -121 50.5t-42 142.5
q0 72 31.5 146.5t91.5 124t142 49.5q64 0 103.5 -36.5zM184 442q-51 -45 -77.5 -112t-26.5 -129q0 -78 33.5 -120.5t97.5 -42.5q72 0 124 46.5t78.5 114t26.5 128.5q0 76 -35 118t-100 42q-70 0 -121 -45zM461 614.5q-44 -34.5 -107 -34.5q-58 0 -88 28.5t-30 82.5
q0 13 1 21h30q-1 -6 -1 -18q0 -41 22.5 -62t65.5 -21q50 0 85 25.5t52 75.5h34q-20 -63 -64 -97.5z" />
    <glyph glyph-name="Gdotaccent" unicode="&#x120;" horiz-adv-x="710" 
d="M622 667.5q60 -55.5 60 -147.5q0 -11 -2 -31h-39q1 8 1 25q0 81 -49 127t-141 46q-109 0 -188.5 -64t-120 -161.5t-40.5 -196.5q0 -111 53 -175.5t150 -64.5q96 0 177 68t118 218h-225l9 35h261l-86 -346h-36l33 134h-1q-39 -67 -107.5 -106t-148.5 -39q-111 0 -173 75
t-62 201q0 109 45.5 215t134 174.5t209.5 68.5q108 0 168 -55.5zM449 779l21 81h36l-21 -81h-36z" />
    <glyph glyph-name="gdotaccent" unicode="&#x121;" horiz-adv-x="554" 
d="M411.5 482.5q39.5 -36.5 48.5 -104.5h1l32 130h36l-122 -489q-26 -103 -87.5 -156t-157.5 -53q-80 0 -124.5 33.5t-44.5 94.5q0 15 3 30h36q-3 -15 -3 -29q0 -47 35 -72t99 -25q84 0 136 47t76 143l19 80h-1q-35 -51 -83.5 -78.5t-103.5 -27.5q-79 0 -121 50.5t-42 142.5
q0 72 31.5 146.5t91.5 124t142 49.5q64 0 103.5 -36.5zM184 442q-51 -45 -77.5 -112t-26.5 -129q0 -78 33.5 -120.5t97.5 -42.5q72 0 124 46.5t78.5 114t26.5 128.5q0 76 -35 118t-100 42q-70 0 -121 -45zM343 631l20 81h36l-20 -81h-36z" />
    <glyph glyph-name="Gcommaaccent" unicode="&#x122;" horiz-adv-x="710" 
d="M622 667.5q60 -55.5 60 -147.5q0 -11 -2 -31h-39q1 8 1 25q0 81 -49 127t-141 46q-109 0 -188.5 -64t-120 -161.5t-40.5 -196.5q0 -111 53 -175.5t150 -64.5q96 0 177 68t118 218h-225l9 35h261l-86 -346h-36l33 134h-1q-39 -67 -107.5 -106t-148.5 -39q-111 0 -173 75
t-62 201q0 109 45.5 215t134 174.5t209.5 68.5q108 0 168 -55.5zM222 -244h-20l55 98h-13l18 72h41l-17 -72z" />
    <glyph glyph-name="gcommaaccent" unicode="&#x123;" horiz-adv-x="554" 
d="M411.5 482.5q39.5 -36.5 48.5 -104.5h1l32 130h36l-122 -489q-26 -103 -87.5 -156t-157.5 -53q-80 0 -124.5 33.5t-44.5 94.5q0 15 3 30h36q-3 -15 -3 -29q0 -47 35 -72t99 -25q84 0 136 47t76 143l19 80h-1q-35 -51 -83.5 -78.5t-103.5 -27.5q-79 0 -121 50.5t-42 142.5
q0 72 31.5 146.5t91.5 124t142 49.5q64 0 103.5 -36.5zM184 442q-51 -45 -77.5 -112t-26.5 -129q0 -78 33.5 -120.5t97.5 -42.5q72 0 124 46.5t78.5 114t26.5 128.5q0 76 -35 118t-100 42q-70 0 -121 -45zM379 659l-18 -72h-41l18 72l63 98h21l-56 -98h13z" />
    <glyph glyph-name="Hcircumflex" unicode="&#x124;" horiz-adv-x="717" 
d="M513 0l88 352h-435l-88 -352h-37l177 712h37l-81 -325h436l80 325h38l-177 -712h-38zM538 890l84 -130h-38l-68 104l-121 -104h-47l150 130h40z" />
    <glyph glyph-name="hcircumflex" unicode="&#x125;" 
d="M167 422q33 46 80.5 71t99.5 25q68 0 105.5 -36.5t37.5 -105.5q0 -32 -11 -79l-74 -297h-36l74 300q11 44 11 74q0 55 -29.5 83.5t-83.5 28.5q-44 0 -85.5 -21.5t-73 -61.5t-44.5 -92l-77 -311h-36l177 712h36l-72 -290h1zM454 890l84 -130h-38l-68 104l-121 -104h-47
l150 130h40z" />
    <glyph glyph-name="Hbar" unicode="&#x126;" horiz-adv-x="717" 
d="M697 587l-146 -587h-38l88 352h-435l-88 -352h-37l146 587h-60l7 33h61l23 92h37l-23 -92h435l23 92h38l-23 -92h60l-8 -33h-60zM224 587l-50 -200h436l49 200h-435z" />
    <glyph glyph-name="hbar" unicode="&#x127;" 
d="M452.5 481.5q37.5 -36.5 37.5 -105.5q0 -32 -11 -79l-74 -297h-36l74 300q11 44 11 74q0 55 -29.5 83.5t-83.5 28.5q-44 0 -85.5 -21.5t-73 -61.5t-44.5 -92l-77 -311h-36l147 590h-63l7 30h63l23 92h36l-23 -92h143l-7 -30h-143l-42 -168h1q33 46 80.5 71t99.5 25
q68 0 105.5 -36.5z" />
    <glyph glyph-name="Itilde" unicode="&#x128;" horiz-adv-x="245" 
d="M41 0l177 712h37l-177 -712h-37zM393 812q-26 -24 -59 -24q-21 0 -36.5 8t-38.5 24q-18 14 -31 21t-29 7q-22 0 -38.5 -15.5t-25.5 -44.5h-32q13 44 39 68t59 24q21 0 36.5 -8t38.5 -24q18 -14 31 -21t29 -7q22 0 38.5 15.5t26.5 44.5h32q-14 -44 -40 -68z" />
    <glyph glyph-name="itilde" unicode="&#x129;" horiz-adv-x="211" 
d="M25 0l126 508h36l-126 -508h-36zM316 634q-24 -24 -54 -24q-19 0 -33 8.5t-31 24.5q-16 14 -26.5 20.5t-23.5 6.5q-18 0 -32.5 -15.5t-22.5 -44.5h-33q14 44 38 68t53 24q19 0 33 -8.5t31 -24.5q16 -14 26.5 -20.5t23.5 -6.5q39 0 57 60h31q-13 -44 -37 -68z" />
    <glyph glyph-name="Imacron" unicode="&#x12a;" horiz-adv-x="245" 
d="M41 0l177 712h37l-177 -712h-37zM136 798l8 32h242l-8 -32h-242z" />
    <glyph glyph-name="imacron" unicode="&#x12b;" horiz-adv-x="211" 
d="M25 0l126 508h36l-126 -508h-36zM95 637l8 32h212l-8 -32h-212z" />
    <glyph glyph-name="Ibreve" unicode="&#x12c;" horiz-adv-x="245" 
d="M41 0l177 712h37l-177 -712h-37zM361 792.5q-44 -34.5 -107 -34.5q-58 0 -88.5 28.5t-30.5 81.5q0 14 2 22h30q-1 -6 -1 -18q0 -41 22.5 -62t65.5 -21q50 0 85 25.5t52 75.5h34q-20 -63 -64 -97.5z" />
    <glyph glyph-name="ibreve" unicode="&#x12d;" horiz-adv-x="211" 
d="M25 0l126 508h36l-126 -508h-36zM285 614.5q-39 -34.5 -92 -34.5q-48 0 -73 27t-25 78q0 11 2 27h29q-1 -6 -1 -23q0 -38 18 -58t52 -20q40 0 69 26t45 75h33q-18 -63 -57 -97.5z" />
    <glyph glyph-name="Iogonek" unicode="&#x12e;" horiz-adv-x="245" 
d="M-10 -70.5q-24 -29.5 -24 -55.5q0 -18 9.5 -26.5t29.5 -8.5q21 0 37 6l-7 -30q-17 -5 -36 -5q-34 0 -51.5 15.5t-17.5 45.5q0 33 25.5 63.5t86.5 70.5l176 707h37l-177 -712q-64 -41 -88 -70.5z" />
    <glyph glyph-name="iogonek" unicode="&#x12f;" horiz-adv-x="211" 
d="M218 631h-36l20 81h36zM187 508l-126 -508q-64 -41 -88 -70.5t-24 -55.5q0 -18 9.5 -26.5t29.5 -8.5t37 6l-7 -30q-17 -5 -36 -5q-34 0 -51.5 15.5t-17.5 45.5q0 33 26 64t87 71l125 502h36z" />
    <glyph glyph-name="Idotaccent" unicode="&#x130;" horiz-adv-x="245" 
d="M41 0l177 712h37l-177 -712h-37zM235 779l21 81h36l-21 -81h-36z" />
    <glyph glyph-name="dotlessi" unicode="&#x131;" horiz-adv-x="211" 
d="M25 0l126 508h36l-126 -508h-36z" />
    <glyph glyph-name="IJ" unicode="&#x132;" horiz-adv-x="563" 
d="M41 0l177 712h37l-177 -712h-37zM370.5 41q-52.5 -45 -127.5 -45q-27 0 -46 7l9 34q18 -5 37 -5q63 0 105.5 37.5t60.5 113.5l132 529h38l-135 -539q-21 -87 -73.5 -132z" />
    <glyph glyph-name="ij" unicode="&#x133;" horiz-adv-x="431" 
d="M182 631l20 81h36l-20 -81h-36zM402 631l20 81h36l-20 -81h-36zM25 0l126 508h36l-126 -508h-36zM212.5 -155.5q-36.5 -32.5 -90.5 -32.5q-14 0 -32 4l7 33q10 -3 23 -3q44 0 71.5 25.5t43.5 89.5l136 547h36l-139 -556q-19 -75 -55.5 -107.5z" />
    <glyph glyph-name="Jcircumflex" unicode="&#x134;" horiz-adv-x="318" 
d="M125.5 41q-52.5 -45 -127.5 -45q-27 0 -46 7l9 34q18 -5 37 -5q63 0 105.5 37.5t60.5 113.5l132 529h38l-135 -539q-21 -87 -73.5 -132zM380 890l84 -130h-38l-68 104l-121 -104h-47l150 130h40z" />
    <glyph glyph-name="jcircumflex" unicode="&#x135;" horiz-adv-x="220" 
d="M1.5 -155.5q-36.5 -32.5 -90.5 -32.5q-14 0 -32 4l7 33q11 -3 23 -3q44 0 71.5 25.5t43.5 89.5l136 547h36l-139 -556q-19 -75 -55.5 -107.5zM275 574l-48 112l-106 -112h-45l131 138h43l63 -138h-38z" />
    <glyph glyph-name="Kcommaaccent" unicode="&#x136;" horiz-adv-x="567" 
d="M499 0h-48l-281 365h-1l-91 -365h-37l177 712h37l-82 -327h2l411 327h58l-431 -341zM174 -244h-20l55 98h-13l18 72h41l-17 -72z" />
    <glyph glyph-name="kcommaaccent" unicode="&#x137;" horiz-adv-x="457" 
d="M399 0h-46l-224 270h-2l-66 -270h-36l177 712h36l-105 -422h1l305 218h57l-326 -234zM123 -244h-20l55 98h-13l18 72h41l-17 -72z" />
    <glyph glyph-name="kgreenlandic" unicode="&#x138;" horiz-adv-x="472" 
d="M399 0h-46l-224 270h-2l-66 -270h-36l126 508h36l-54 -218h1l305 218h57l-326 -234z" />
    <glyph glyph-name="Lacute" unicode="&#x139;" horiz-adv-x="538" 
d="M476 35l-8 -35h-427l177 712h37l-169 -677h390zM229 760l129 130h52l-141 -130h-40z" />
    <glyph glyph-name="lacute" unicode="&#x13a;" horiz-adv-x="211" 
d="M25 0l177 712h36l-177 -712h-36zM215 777l124 139h51l-136 -139h-39z" />
    <glyph glyph-name="Lcommaaccent" unicode="&#x13b;" horiz-adv-x="538" 
d="M476 35l-8 -35h-427l177 712h37l-169 -677h390zM175 -244h-20l55 98h-13l18 72h41l-17 -72z" />
    <glyph glyph-name="lcommaaccent" unicode="&#x13c;" horiz-adv-x="211" 
d="M25 0l177 712h36l-177 -712h-36zM-32 -244h-20l55 98h-13l18 72h41l-17 -72z" />
    <glyph glyph-name="Lcaron" unicode="&#x13d;" horiz-adv-x="538" 
d="M476 35l-8 -35h-427l177 712h37l-169 -677h390zM277 498l89 214h39l-102 -214h-26z" />
    <glyph glyph-name="lcaron" unicode="&#x13e;" horiz-adv-x="211" 
d="M25 0l177 712h36l-177 -712h-36zM244 537l79 175h39l-91 -175h-27z" />
    <glyph glyph-name="Ldot" unicode="&#x13f;" horiz-adv-x="618" 
d="M476 35l-8 -35h-427l177 712h37l-169 -677h390zM433 356l19 79h49l-19 -79h-49z" />
    <glyph glyph-name="ldot" unicode="&#x140;" horiz-adv-x="325" 
d="M25 0l177 712h36l-177 -712h-36zM259 315l19 79h49l-19 -79h-49z" />
    <glyph glyph-name="Lslash" unicode="&#x141;" horiz-adv-x="538" 
d="M468 0h-427l79 317l-96 -50l11 42l95 50l88 353h37l-84 -335l183 95l-10 -42l-183 -95l-75 -300h390z" />
    <glyph glyph-name="lslash" unicode="&#x142;" horiz-adv-x="246" 
d="M177 399l-99 -399h-36l95 381l-110 -57l10 41l110 56l72 291h36l-68 -272l110 57l-11 -41z" />
    <glyph glyph-name="Nacute" unicode="&#x143;" horiz-adv-x="730" 
d="M509 0l-126 326q-81 207 -136 349h-1l-93 -373l-75 -302h-37l177 712h54l126 -326q81 -207 136 -349h1q46 185 59 238q12 45 34 135l75 302h38l-177 -712h-55zM436 760l129 130h52l-141 -130h-40z" />
    <glyph glyph-name="nacute" unicode="&#x144;" 
d="M452 482q38 -36 38 -106q0 -34 -12 -79l-74 -297h-36l75 300q10 40 10 74q0 56 -29 84t-84 28q-44 0 -85.5 -21.5t-72.5 -61t-44 -92.5l-78 -311h-36l127 508h36l-22 -86h2q32 45 79.5 70.5t99.5 25.5q68 0 106 -36zM303 573l124 139h51l-136 -139h-39z" />
    <glyph glyph-name="Ncommaaccent" unicode="&#x145;" horiz-adv-x="730" 
d="M509 0l-126 326q-81 207 -136 349h-1l-93 -373l-75 -302h-37l177 712h54l126 -326q81 -207 136 -349h1q46 185 59 238q12 45 34 135l75 302h38l-177 -712h-55zM223 -244h-20l55 98h-13l18 72h41l-17 -72z" />
    <glyph glyph-name="ncommaaccent" unicode="&#x146;" 
d="M452 482q38 -36 38 -106q0 -34 -12 -79l-74 -297h-36l75 300q10 40 10 74q0 56 -29 84t-84 28q-44 0 -85.5 -21.5t-72.5 -61t-44 -92.5l-78 -311h-36l127 508h36l-22 -86h2q32 45 79.5 70.5t99.5 25.5q68 0 106 -36zM133 -244h-20l55 98h-13l18 72h41l-17 -72z" />
    <glyph glyph-name="Ncaron" unicode="&#x147;" horiz-adv-x="730" 
d="M509 0l-126 326q-81 207 -136 349h-1l-93 -373l-75 -302h-37l177 712h54l126 -326q81 -207 136 -349h1q46 185 59 238q12 45 34 135l75 302h38l-177 -712h-55zM472 760l-85 130h39l68 -104l120 104h48l-150 -130h-40z" />
    <glyph glyph-name="ncaron" unicode="&#x148;" 
d="M452 482q38 -36 38 -106q0 -34 -12 -79l-74 -297h-36l75 300q10 40 10 74q0 56 -29 84t-84 28q-44 0 -85.5 -21.5t-72.5 -61t-44 -92.5l-78 -311h-36l127 508h36l-22 -86h2q32 45 79.5 70.5t99.5 25.5q68 0 106 -36zM335 573l-82 139h38l66 -113l122 113h47l-151 -139
h-40z" />
    <glyph glyph-name="napostrophe" unicode="&#x149;" horiz-adv-x="618" 
d="M150 506h-27l62 127h-14l20 79h47l-19 -79zM521 482q38 -36 38 -106q0 -34 -12 -79l-74 -297h-36l75 300q10 40 10 74q0 56 -29 84t-84 28q-44 0 -85.5 -21.5t-72.5 -61t-44 -92.5l-78 -311h-36l127 508h36l-22 -86h2q32 45 79.5 70.5t99.5 25.5q68 0 106 -36z" />
    <glyph glyph-name="Eng" unicode="&#x14a;" horiz-adv-x="730" 
d="M551 -48q-19 -75 -55.5 -107.5t-92.5 -32.5q-16 0 -31 5l7 31q14 -2 23 -2q43 0 70.5 25.5t43.5 88.5l10 40l-143 345l-135 330h-2q-29 -120 -90 -361l-78 -314h-37l177 712h54l131 -319l136 -331h2l56 223l35 139l71 288h38z" />
    <glyph glyph-name="eng" unicode="&#x14b;" 
d="M452 482q38 -36 38 -106q0 -35 -12 -79l-87 -347q-19 -75 -55 -106.5t-90 -31.5q-15 0 -33 4l8 33q11 -3 23 -3q43 0 70.5 25t43.5 88l85 341q10 40 10 74q0 56 -29 84t-84 28q-44 0 -85.5 -21.5t-72.5 -61t-44 -92.5l-78 -311h-36l127 508h36l-22 -86h2q32 45 79.5 70.5
t99.5 25.5q68 0 106 -36z" />
    <glyph glyph-name="Omacron" unicode="&#x14c;" horiz-adv-x="712" 
d="M576.5 687q58.5 -36 89 -100.5t30.5 -149.5q0 -104 -44.5 -208t-129 -172t-197.5 -68q-81 0 -139 36t-88.5 100.5t-30.5 149.5q0 104 44.5 208t128.5 172t197 68q81 0 139.5 -36zM260 624q-75 -63 -115 -158.5t-40 -190.5q0 -113 58 -181.5t163 -68.5q101 0 176.5 62.5
t115.5 158.5t40 191q0 113 -58.5 181.5t-163.5 68.5q-101 0 -176 -63zM346 798l8 32h242l-8 -32h-242z" />
    <glyph glyph-name="omacron" unicode="&#x14d;" horiz-adv-x="539" 
d="M447 465q49 -54 49 -151q0 -74 -31.5 -149.5t-92.5 -125.5t-144 -50q-89 0 -137.5 53.5t-48.5 150.5q0 75 31 150.5t91.5 125.5t143.5 50q90 0 139 -54zM183 440.5q-52 -45.5 -78.5 -114t-26.5 -134.5q0 -81 39 -125.5t113 -44.5q72 0 124 45.5t78.5 113.5t26.5 134
q0 82 -39.5 126.5t-113.5 44.5q-71 0 -123 -45.5zM224 637l8 32h242l-8 -32h-242z" />
    <glyph glyph-name="Obreve" unicode="&#x14e;" horiz-adv-x="712" 
d="M576.5 687q58.5 -36 89 -100.5t30.5 -149.5q0 -104 -44.5 -208t-129 -172t-197.5 -68q-81 0 -139 36t-88.5 100.5t-30.5 149.5q0 104 44.5 208t128.5 172t197 68q81 0 139.5 -36zM260 624q-75 -63 -115 -158.5t-40 -190.5q0 -113 58 -181.5t163 -68.5q101 0 176.5 62.5
t115.5 158.5t40 191q0 113 -58.5 181.5t-163.5 68.5q-101 0 -176 -63zM571 792.5q-44 -34.5 -107 -34.5q-58 0 -88.5 28.5t-30.5 81.5q0 14 2 22h30q-1 -6 -1 -18q0 -41 22.5 -62t65.5 -21q50 0 85 25.5t52 75.5h34q-20 -63 -64 -97.5z" />
    <glyph glyph-name="obreve" unicode="&#x14f;" horiz-adv-x="539" 
d="M447 465q49 -54 49 -151q0 -74 -31.5 -149.5t-92.5 -125.5t-144 -50q-89 0 -137.5 53.5t-48.5 150.5q0 75 31 150.5t91.5 125.5t143.5 50q90 0 139 -54zM183 440.5q-52 -45.5 -78.5 -114t-26.5 -134.5q0 -81 39 -125.5t113 -44.5q72 0 124 45.5t78.5 113.5t26.5 134
q0 82 -39.5 126.5t-113.5 44.5q-71 0 -123 -45.5zM443 614.5q-44 -34.5 -107 -34.5q-58 0 -88 28.5t-30 82.5q0 13 1 21h30q-1 -6 -1 -18q0 -41 22.5 -62t65.5 -21q50 0 85 25.5t52 75.5h34q-20 -63 -64 -97.5z" />
    <glyph glyph-name="Ohungarumlaut" unicode="&#x150;" horiz-adv-x="712" 
d="M576.5 687q58.5 -36 89 -100.5t30.5 -149.5q0 -104 -44.5 -208t-129 -172t-197.5 -68q-81 0 -139 36t-88.5 100.5t-30.5 149.5q0 104 44.5 208t128.5 172t197 68q81 0 139.5 -36zM260 624q-75 -63 -115 -158.5t-40 -190.5q0 -113 58 -181.5t163 -68.5q101 0 176.5 62.5
t115.5 158.5t40 191q0 113 -58.5 181.5t-163.5 68.5q-101 0 -176 -63zM356 757l148 133h51l-160 -133h-39zM476 757l148 133h51l-160 -133h-39z" />
    <glyph glyph-name="ohungarumlaut" unicode="&#x151;" horiz-adv-x="539" 
d="M447 465q49 -54 49 -151q0 -74 -31.5 -149.5t-92.5 -125.5t-144 -50q-89 0 -137.5 53.5t-48.5 150.5q0 75 31 150.5t91.5 125.5t143.5 50q90 0 139 -54zM183 440.5q-52 -45.5 -78.5 -114t-26.5 -134.5q0 -81 39 -125.5t113 -44.5q72 0 124 45.5t78.5 113.5t26.5 134
q0 82 -39.5 126.5t-113.5 44.5q-71 0 -123 -45.5zM228 573l148 139h52l-162 -139h-38zM347 573l149 139h51l-161 -139h-39z" />
    <glyph glyph-name="OE" unicode="&#x152;" horiz-adv-x="975" 
d="M624 677l-73 -294h368l-9 -35h-368l-78 -313h399l-9 -35h-494q-142 0 -215 78t-73 224q0 99 45 193t138 155.5t230 61.5h533l-9 -35h-385zM275 620.5q-85 -56.5 -125 -142.5t-40 -174q0 -131 64 -200t187 -69h65l160 642h-101q-125 0 -210 -56.5z" />
    <glyph glyph-name="oe" unicode="&#x153;" horiz-adv-x="866" 
d="M446 175q0 -75 33.5 -114.5t95.5 -39.5q59 0 106 35.5t70 93.5h38q-26 -72 -83.5 -116.5t-132.5 -44.5q-68 0 -108 39t-48 111q-33 -67 -87 -108.5t-124 -41.5q-80 0 -122.5 52t-42.5 146q0 76 30.5 153t89.5 128t139 51q68 0 109 -41.5t49 -117.5q35 71 90 115t127 44
q75 0 116.5 -46t41.5 -131q0 -35 -15 -91h-363q-9 -36 -9 -76zM544 431q-57 -56 -82 -148h330q7 28 7 60q0 69 -33 106.5t-93 37.5q-72 0 -129 -56zM326.5 68.5q50.5 46.5 76.5 116t26 136.5q0 79 -34 122t-97 43q-68 0 -118.5 -46.5t-76.5 -116t-26 -136.5q0 -79 34 -122
t97 -43q68 0 118.5 46.5z" />
    <glyph glyph-name="Racute" unicode="&#x154;" horiz-adv-x="607" 
d="M555 670q49 -42 49 -120q0 -45 -23 -89t-66.5 -75.5t-103.5 -41.5v-1q34 -12 51 -40.5t25 -92.5l26 -210h-37l-24 205q-5 48 -17.5 74.5t-37.5 38.5t-69 12h-168l-82 -330h-37l177 712h188q100 0 149 -42zM168 365h172q77 0 127.5 28.5t74 70t23.5 82.5q0 64 -40 97.5
t-121 33.5h-158zM351 760l129 130h52l-141 -130h-40z" />
    <glyph glyph-name="racute" unicode="&#x155;" horiz-adv-x="331" 
d="M382 508l-9 -35q-16 2 -29 2q-77 0 -133.5 -49.5t-79.5 -143.5l-70 -282h-36l126 508h36l-24 -95h1q73 98 188 98q17 0 30 -3zM226 573l124 139h51l-136 -139h-39z" />
    <glyph glyph-name="Rcommaaccent" unicode="&#x156;" horiz-adv-x="607" 
d="M555 670q49 -42 49 -120q0 -45 -23 -89t-66.5 -75.5t-103.5 -41.5v-1q34 -12 51 -40.5t25 -92.5l26 -210h-37l-24 205q-5 48 -17.5 74.5t-37.5 38.5t-69 12h-168l-82 -330h-37l177 712h188q100 0 149 -42zM168 365h172q77 0 127.5 28.5t74 70t23.5 82.5q0 64 -40 97.5
t-121 33.5h-158zM196 -244h-20l55 98h-13l18 72h41l-17 -72z" />
    <glyph glyph-name="rcommaaccent" unicode="&#x157;" horiz-adv-x="331" 
d="M382 508l-9 -35q-16 2 -29 2q-77 0 -133.5 -49.5t-79.5 -143.5l-70 -282h-36l126 508h36l-24 -95h1q73 98 188 98q17 0 30 -3zM-32 -244h-20l55 98h-13l18 72h41l-17 -72z" />
    <glyph glyph-name="Rcaron" unicode="&#x158;" horiz-adv-x="607" 
d="M555 670q49 -42 49 -120q0 -45 -23 -89t-66.5 -75.5t-103.5 -41.5v-1q34 -12 51 -40.5t25 -92.5l26 -210h-37l-24 205q-5 48 -17.5 74.5t-37.5 38.5t-69 12h-168l-82 -330h-37l177 712h188q100 0 149 -42zM168 365h172q77 0 127.5 28.5t74 70t23.5 82.5q0 64 -40 97.5
t-121 33.5h-158zM387 760l-85 130h39l68 -104l120 104h48l-150 -130h-40z" />
    <glyph glyph-name="rcaron" unicode="&#x159;" horiz-adv-x="331" 
d="M382 508l-9 -35q-16 2 -29 2q-77 0 -133.5 -49.5t-79.5 -143.5l-70 -282h-36l126 508h36l-24 -95h1q73 98 188 98q17 0 30 -3zM258 573l-82 139h38l66 -113l122 113h47l-151 -139h-40z" />
    <glyph glyph-name="Sacute" unicode="&#x15a;" horiz-adv-x="586" 
d="M579 552q0 -33 -8 -64h-37q8 37 8 61q0 139 -170 139q-66 0 -111 -25t-67 -63t-22 -76q0 -56 36 -86t117 -56q63 -21 100.5 -41.5t59 -54t21.5 -86.5q0 -52 -29.5 -100.5t-88 -79.5t-142.5 -31q-103 0 -156 45t-53 134q0 35 8 70h38q-9 -39 -9 -68q0 -146 174 -146
q75 0 124.5 26.5t72.5 66.5t23 81q0 42 -18.5 68.5t-51.5 43.5t-92 37q-60 21 -96.5 41.5t-56 52.5t-19.5 81q0 47 27.5 93.5t82 77t130.5 30.5q205 0 205 -171zM331 760l129 130h52l-141 -130h-40z" />
    <glyph glyph-name="sacute" unicode="&#x15b;" horiz-adv-x="461" 
d="M388.5 486q41.5 -33 41.5 -94q0 -27 -6 -47h-36q6 23 6 44q0 47 -32.5 72t-95.5 25q-65 0 -103.5 -31t-38.5 -80q0 -27 12 -44t34 -27.5t65 -23.5q52 -15 82.5 -30t49 -40.5t18.5 -66.5t-22.5 -76t-67.5 -56.5t-107 -21.5q-83 0 -127.5 35t-44.5 99q0 26 7 50h36
q-6 -25 -6 -48q0 -50 34.5 -76.5t102.5 -26.5q75 0 117 33.5t42 85.5q0 30 -14 48.5t-41 31t-78 28.5q-44 13 -70.5 26t-42 36.5t-15.5 61.5t21 71.5t62 54t97 20.5q79 0 120.5 -33zM239 573l124 139h51l-136 -139h-39z" />
    <glyph glyph-name="Scircumflex" unicode="&#x15c;" horiz-adv-x="586" 
d="M579 552q0 -33 -8 -64h-37q8 37 8 61q0 139 -170 139q-66 0 -111 -25t-67 -63t-22 -76q0 -56 36 -86t117 -56q63 -21 100.5 -41.5t59 -54t21.5 -86.5q0 -52 -29.5 -100.5t-88 -79.5t-142.5 -31q-103 0 -156 45t-53 134q0 35 8 70h38q-9 -39 -9 -68q0 -146 174 -146
q75 0 124.5 26.5t72.5 66.5t23 81q0 42 -18.5 68.5t-51.5 43.5t-92 37q-60 21 -96.5 41.5t-56 52.5t-19.5 81q0 47 27.5 93.5t82 77t130.5 30.5q205 0 205 -171zM440 890l84 -130h-38l-68 104l-121 -104h-47l150 130h40z" />
    <glyph glyph-name="scircumflex" unicode="&#x15d;" horiz-adv-x="461" 
d="M388.5 486q41.5 -33 41.5 -94q0 -27 -6 -47h-36q6 23 6 44q0 47 -32.5 72t-95.5 25q-65 0 -103.5 -31t-38.5 -80q0 -27 12 -44t34 -27.5t65 -23.5q52 -15 82.5 -30t49 -40.5t18.5 -66.5t-22.5 -76t-67.5 -56.5t-107 -21.5q-83 0 -127.5 35t-44.5 99q0 26 7 50h36
q-6 -25 -6 -48q0 -50 34.5 -76.5t102.5 -26.5q75 0 117 33.5t42 85.5q0 30 -14 48.5t-41 31t-78 28.5q-44 13 -70.5 26t-42 36.5t-15.5 61.5t21 71.5t62 54t97 20.5q79 0 120.5 -33zM390 573l-67 113l-122 -113h-46l151 139h40l82 -139h-38z" />
    <glyph glyph-name="Scedilla" unicode="&#x15e;" horiz-adv-x="586" 
d="M579 552q0 -33 -8 -64h-37q8 37 8 61q0 139 -170 139q-66 0 -111 -25t-67 -63t-22 -76q0 -56 36 -86t117 -56q63 -21 100.5 -41.5t59 -54t21.5 -86.5q0 -49 -26.5 -95t-79 -78t-127.5 -37l-52 -56q8 2 17 2q30 0 47 -16.5t17 -46.5q0 -36 -30 -60t-78 -24q-51 0 -91 25
l13 22q31 -20 77 -20q35 0 56 15t21 41q0 20 -12.5 31t-36.5 11q-18 0 -33 -5l-12 13l62 67q-99 2 -150 46.5t-51 132.5q0 35 8 70h38q-9 -39 -9 -68q0 -146 174 -146q75 0 124.5 26.5t72.5 66.5t23 81q0 42 -18.5 68.5t-51.5 43.5t-92 37q-60 21 -96.5 41.5t-56 52.5
t-19.5 81q0 47 27.5 93.5t82 77t130.5 30.5q205 0 205 -171z" />
    <glyph glyph-name="scedilla" unicode="&#x15f;" horiz-adv-x="461" 
d="M388.5 486q41.5 -33 41.5 -94q0 -27 -6 -47h-36q6 23 6 44q0 47 -32.5 72t-95.5 25q-65 0 -103.5 -31t-38.5 -80q0 -27 12 -44t34 -27.5t65 -23.5q52 -15 82.5 -30t49 -40.5t18.5 -66.5q0 -38 -20 -71.5t-59.5 -55.5t-94.5 -26l-52 -56q8 2 17 2q30 0 47 -16.5t17 -46.5
q0 -36 -30 -60t-78 -24q-51 0 -91 25l13 22q31 -20 77 -20q35 0 56 15t21 41q0 20 -12.5 31t-36.5 11q-18 0 -33 -5l-12 13l62 67q-78 3 -119 37.5t-41 96.5q0 26 7 50h36q-6 -25 -6 -48q0 -50 34.5 -76.5t102.5 -26.5q75 0 117 33.5t42 85.5q0 30 -14 48.5t-41 31t-78 28.5
q-44 13 -70.5 26t-42 36.5t-15.5 61.5t21 71.5t62 54t97 20.5q79 0 120.5 -33z" />
    <glyph glyph-name="Scaron" unicode="&#x160;" horiz-adv-x="586" 
d="M579 552q0 -33 -8 -64h-37q8 37 8 61q0 139 -170 139q-66 0 -111 -25t-67 -63t-22 -76q0 -56 36 -86t117 -56q63 -21 100.5 -41.5t59 -54t21.5 -86.5q0 -52 -29.5 -100.5t-88 -79.5t-142.5 -31q-103 0 -156 45t-53 134q0 35 8 70h38q-9 -39 -9 -68q0 -146 174 -146
q75 0 124.5 26.5t72.5 66.5t23 81q0 42 -18.5 68.5t-51.5 43.5t-92 37q-60 21 -96.5 41.5t-56 52.5t-19.5 81q0 47 27.5 93.5t82 77t130.5 30.5q205 0 205 -171zM367 760l-85 130h39l68 -104l120 104h48l-150 -130h-40z" />
    <glyph glyph-name="scaron" unicode="&#x161;" horiz-adv-x="461" 
d="M388.5 486q41.5 -33 41.5 -94q0 -27 -6 -47h-36q6 23 6 44q0 47 -32.5 72t-95.5 25q-65 0 -103.5 -31t-38.5 -80q0 -27 12 -44t34 -27.5t65 -23.5q52 -15 82.5 -30t49 -40.5t18.5 -66.5t-22.5 -76t-67.5 -56.5t-107 -21.5q-83 0 -127.5 35t-44.5 99q0 26 7 50h36
q-6 -25 -6 -48q0 -50 34.5 -76.5t102.5 -26.5q75 0 117 33.5t42 85.5q0 30 -14 48.5t-41 31t-78 28.5q-44 13 -70.5 26t-42 36.5t-15.5 61.5t21 71.5t62 54t97 20.5q79 0 120.5 -33zM271 573l-82 139h38l66 -113l122 113h47l-151 -139h-40z" />
    <glyph glyph-name="uni0162" unicode="&#x162;" horiz-adv-x="579" 
d="M413 677l-168 -677h-37l168 677h-263l8 35h564l-9 -35h-263zM152 -244h-20l55 98h-13l18 72h41l-17 -72z" />
    <glyph glyph-name="uni0163" unicode="&#x163;" horiz-adv-x="284" 
d="M105 81q0 -26 14 -38t44 -12q18 0 36 4l-9 -34q-13 -3 -33 -3q-45 0 -66.5 19t-21.5 60q0 25 8 54l87 345h-96l8 32h96l29 117h36l-29 -117h103l-8 -32h-103l-88 -351q-7 -25 -7 -44zM108 -74l-17 -72l-64 -98h-20l55 98h-13l18 72h41z" />
    <glyph glyph-name="Tcaron" unicode="&#x164;" horiz-adv-x="579" 
d="M413 677l-168 -677h-37l168 677h-263l8 35h564l-9 -35h-263zM388 760l-85 130h39l68 -104l120 104h48l-150 -130h-40z" />
    <glyph glyph-name="tcaron" unicode="&#x165;" horiz-adv-x="284" 
d="M105 81q0 -26 14 -38t44 -12q18 0 36 4l-9 -34q-13 -3 -33 -3q-45 0 -66.5 19t-21.5 60q0 25 8 54l87 345h-96l8 32h96l29 117h36l-29 -117h103l-8 -32h-103l-88 -351q-7 -25 -7 -44zM263 537l79 175h39l-91 -175h-27z" />
    <glyph glyph-name="Tbar" unicode="&#x166;" horiz-adv-x="579" 
d="M348 416h152l-8 -33h-152l-95 -383h-37l95 383h-152l8 33h152l65 261h-263l8 35h564l-9 -35h-263z" />
    <glyph glyph-name="tbar" unicode="&#x167;" horiz-adv-x="282" 
d="M154 293h101l-7 -30h-101l-35 -138q-7 -25 -7 -44q0 -26 14 -38t44 -12q18 0 36 4l-9 -34q-13 -3 -33 -3q-45 0 -66.5 19t-21.5 60q0 25 8 54l33 132h-92l7 30h93l46 183h-96l8 32h96l29 117h36l-29 -117h103l-8 -32h-103z" />
    <glyph glyph-name="Utilde" unicode="&#x168;" horiz-adv-x="684" 
d="M475.5 50.5q-73.5 -61.5 -183.5 -61.5q-98 0 -149.5 50t-51.5 147q0 45 15 102l106 424h37l-108 -434q-13 -49 -13 -91q0 -162 167 -162q94 0 158.5 54.5t91.5 162.5l118 470h37l-120 -480q-31 -120 -104.5 -181.5zM603 812q-26 -24 -59 -24q-21 0 -36.5 8t-38.5 24
q-18 14 -31 21t-29 7q-22 0 -38.5 -15.5t-25.5 -44.5h-32q13 44 39 68t59 24q21 0 36.5 -8t38.5 -24q18 -14 31 -21t29 -7q22 0 38.5 15.5t26.5 44.5h32q-14 -44 -40 -68z" />
    <glyph glyph-name="utilde" unicode="&#x169;" 
d="M96.5 26.5q-37.5 36.5 -37.5 105.5q0 34 12 79l74 297h36l-75 -300q-10 -40 -10 -74q0 -56 29 -84t83 -28q44 0 86 21.5t73 61t44 92.5l78 311h36l-127 -508h-36l21 86h-1q-33 -46 -80.5 -71t-99.5 -25q-68 0 -105.5 36.5zM491 634q-26 -24 -59 -24q-21 0 -37 8t-37 24
q-20 15 -32 21.5t-28 6.5q-22 0 -38.5 -15.5t-25.5 -44.5h-32q13 44 39 68t59 24q21 0 37 -8t37 -24q20 -15 32 -21.5t28 -6.5q22 0 38.5 15.5t26.5 44.5h32q-14 -44 -40 -68z" />
    <glyph glyph-name="Umacron" unicode="&#x16a;" horiz-adv-x="684" 
d="M475.5 50.5q-73.5 -61.5 -183.5 -61.5q-98 0 -149.5 50t-51.5 147q0 45 15 102l106 424h37l-108 -434q-13 -49 -13 -91q0 -162 167 -162q94 0 158.5 54.5t91.5 162.5l118 470h37l-120 -480q-31 -120 -104.5 -181.5zM346 798l8 32h242l-8 -32h-242z" />
    <glyph glyph-name="umacron" unicode="&#x16b;" 
d="M96.5 26.5q-37.5 36.5 -37.5 105.5q0 34 12 79l74 297h36l-75 -300q-10 -40 -10 -74q0 -56 29 -84t83 -28q44 0 86 21.5t73 61t44 92.5l78 311h36l-127 -508h-36l21 86h-1q-33 -46 -80.5 -71t-99.5 -25q-68 0 -105.5 36.5zM239 637l8 32h242l-8 -32h-242z" />
    <glyph glyph-name="Ubreve" unicode="&#x16c;" horiz-adv-x="684" 
d="M475.5 50.5q-73.5 -61.5 -183.5 -61.5q-98 0 -149.5 50t-51.5 147q0 45 15 102l106 424h37l-108 -434q-13 -49 -13 -91q0 -162 167 -162q94 0 158.5 54.5t91.5 162.5l118 470h37l-120 -480q-31 -120 -104.5 -181.5zM571 792.5q-44 -34.5 -107 -34.5q-58 0 -88.5 28.5
t-30.5 81.5q0 14 2 22h30q-1 -6 -1 -18q0 -41 22.5 -62t65.5 -21q50 0 85 25.5t52 75.5h34q-20 -63 -64 -97.5z" />
    <glyph glyph-name="ubreve" unicode="&#x16d;" 
d="M96.5 26.5q-37.5 36.5 -37.5 105.5q0 34 12 79l74 297h36l-75 -300q-10 -40 -10 -74q0 -56 29 -84t83 -28q44 0 86 21.5t73 61t44 92.5l78 311h36l-127 -508h-36l21 86h-1q-33 -46 -80.5 -71t-99.5 -25q-68 0 -105.5 36.5zM459 614.5q-44 -34.5 -107 -34.5
q-58 0 -88 28.5t-30 82.5q0 13 1 21h30q-1 -6 -1 -18q0 -41 22.5 -62t65.5 -21q50 0 85 25.5t52 75.5h34q-20 -63 -64 -97.5z" />
    <glyph glyph-name="Uring" unicode="&#x16e;" horiz-adv-x="684" 
d="M475.5 50.5q-73.5 -61.5 -183.5 -61.5q-98 0 -149.5 50t-51.5 147q0 45 15 102l106 424h37l-108 -434q-13 -49 -13 -91q0 -162 167 -162q94 0 158.5 54.5t91.5 162.5l118 470h37l-120 -480q-31 -120 -104.5 -181.5zM533.5 913.5q26.5 -26.5 26.5 -63.5t-26 -63.5
t-64 -26.5q-37 0 -63.5 26.5t-26.5 63.5t26.5 63.5t63.5 26.5t63.5 -26.5zM425 895.5q-19 -18.5 -19 -45.5t19 -45.5t45 -18.5q27 0 45.5 18.5t18.5 45.5t-18.5 45.5t-45.5 18.5q-26 0 -45 -18.5z" />
    <glyph glyph-name="uring" unicode="&#x16f;" 
d="M96.5 26.5q-37.5 36.5 -37.5 105.5q0 34 12 79l74 297h36l-75 -300q-10 -40 -10 -74q0 -56 29 -84t83 -28q44 0 86 21.5t73 61t44 92.5l78 311h36l-127 -508h-36l21 86h-1q-33 -46 -80.5 -71t-99.5 -25q-68 0 -105.5 36.5zM422.5 735.5q26.5 -26.5 26.5 -63.5
t-26.5 -63.5t-63.5 -26.5t-63.5 26.5t-26.5 63.5q0 38 26.5 64t63.5 26t63.5 -26.5zM313.5 717.5q-18.5 -18.5 -18.5 -45.5t18.5 -45.5t45.5 -18.5t45.5 18.5t18.5 45.5t-18.5 45.5t-45.5 18.5t-45.5 -18.5z" />
    <glyph glyph-name="Uhungarumlaut" unicode="&#x170;" horiz-adv-x="684" 
d="M475.5 50.5q-73.5 -61.5 -183.5 -61.5q-98 0 -149.5 50t-51.5 147q0 45 15 102l106 424h37l-108 -434q-13 -49 -13 -91q0 -162 167 -162q94 0 158.5 54.5t91.5 162.5l118 470h37l-120 -480q-31 -120 -104.5 -181.5zM356 757l148 133h51l-160 -133h-39zM476 757l148 133
h51l-160 -133h-39z" />
    <glyph glyph-name="uhungarumlaut" unicode="&#x171;" 
d="M96.5 26.5q-37.5 36.5 -37.5 105.5q0 34 12 79l74 297h36l-75 -300q-10 -40 -10 -74q0 -56 29 -84t83 -28q44 0 86 21.5t73 61t44 92.5l78 311h36l-127 -508h-36l21 86h-1q-33 -46 -80.5 -71t-99.5 -25q-68 0 -105.5 36.5zM244 573l148 139h52l-162 -139h-38zM363 573
l149 139h51l-161 -139h-39z" />
    <glyph glyph-name="Uogonek" unicode="&#x172;" horiz-adv-x="684" 
d="M450 31q-90 -59 -121.5 -93t-31.5 -64q0 -18 9.5 -26.5t29.5 -8.5q19 0 37 6l-8 -30q-15 -5 -35 -5q-69 0 -69 61q0 31 22 59.5t74 63.5v1q-30 -6 -65 -6q-202 0 -202 193q0 43 14 102l108 428h37l-110 -438q-12 -51 -12 -91q0 -158 168 -158q95 0 159.5 56.5t92.5 168.5
l116 462h37l-118 -472q-36 -145 -132 -209z" />
    <glyph glyph-name="uogonek" unicode="&#x173;" 
d="M310 -70.5q-24 -29.5 -24 -55.5q0 -18 9.5 -26.5t29.5 -8.5q21 0 37 6l-7 -30q-17 -5 -36 -5q-34 0 -51.5 15.5t-17.5 45.5q0 33 26 64t87 71l20 80h-1q-33 -46 -80.5 -71t-99.5 -25q-68 0 -105.5 36.5t-37.5 105.5q0 34 12 79l74 297h36l-75 -300q-10 -40 -10 -74
q0 -56 29 -84t83 -28q44 0 86 21.5t73 61t44 92.5l78 311h36l-127 -508q-64 -41 -88 -70.5z" />
    <glyph glyph-name="Wcircumflex" unicode="&#x174;" horiz-adv-x="876" 
d="M554 0l-5 334q-4 228 -5 342h-2l-175 -342l-170 -334h-59l-12 712h36l6 -326l6 -350h2l178 352l166 324h60l4 -324q4 -233 5 -352h2l46 89l133 261l168 326h41l-366 -712h-59zM616 890l84 -130h-38l-68 104l-121 -104h-47l150 130h40z" />
    <glyph glyph-name="wcircumflex" unicode="&#x175;" horiz-adv-x="746" 
d="M461 0l-17 248l-15 226h-2l-41 -72q-36 -66 -87 -154l-140 -248h-53l-34 508h36l15 -235l15 -238h2q33 58 38 68q64 114 96 169l132 236h56l15 -236l15 -237h2q29 50 87 154l47 84l132 235h40l-286 -508h-53zM549 573l-67 113l-122 -113h-46l151 139h40l82 -139h-38z" />
    <glyph glyph-name="Ycircumflex" unicode="&#x176;" horiz-adv-x="585" 
d="M248 0h-37l77 312l-168 400h40l68 -163l83 -199h1l185 201l146 161h50l-367 -400zM458 890l84 -130h-38l-68 104l-121 -104h-47l150 130h40z" />
    <glyph glyph-name="ycircumflex" unicode="&#x177;" horiz-adv-x="442" 
d="M87 -123q-34 -37 -67 -51.5t-76 -14.5q-25 0 -42 7l8 32q17 -6 37 -6q35 0 61.5 12.5t55.5 45.5t72 98l-74 508h36l66 -461h2l298 461h42l-339 -523q-46 -71 -80 -108zM380 573l-67 113l-122 -113h-46l151 139h40l82 -139h-38z" />
    <glyph glyph-name="Ydieresis" unicode="&#x178;" horiz-adv-x="585" 
d="M248 0h-37l77 312l-168 400h40l68 -163l83 -199h1l185 201l146 161h50l-367 -400zM300 779l21 81h36l-21 -81h-36zM483 779l21 81h36l-21 -81h-36z" />
    <glyph glyph-name="Zacute" unicode="&#x179;" horiz-adv-x="551" 
d="M8 37v-2h472l-9 -35h-517l11 45l609 630v2h-445l8 35h490l-11 -45zM329 760l129 130h52l-141 -130h-40z" />
    <glyph glyph-name="zacute" unicode="&#x17a;" horiz-adv-x="450" 
d="M14 35v-2h359l-8 -33h-406l10 40l458 433v2h-339l8 33h386l-10 -40zM239 573l124 139h51l-136 -139h-39z" />
    <glyph glyph-name="Zdotaccent" unicode="&#x17b;" horiz-adv-x="551" 
d="M8 37v-2h472l-9 -35h-517l11 45l609 630v2h-445l8 35h490l-11 -45zM371 779l21 81h36l-21 -81h-36z" />
    <glyph glyph-name="zdotaccent" unicode="&#x17c;" horiz-adv-x="450" 
d="M14 35v-2h359l-8 -33h-406l10 40l458 433v2h-339l8 33h386l-10 -40zM287 631l20 81h36l-20 -81h-36z" />
    <glyph glyph-name="Zcaron" unicode="&#x17d;" horiz-adv-x="551" 
d="M8 37v-2h472l-9 -35h-517l11 45l609 630v2h-445l8 35h490l-11 -45zM365 760l-85 130h39l68 -104l120 104h48l-150 -130h-40z" />
    <glyph glyph-name="zcaron" unicode="&#x17e;" horiz-adv-x="450" 
d="M14 35v-2h359l-8 -33h-406l10 40l458 433v2h-339l8 33h386l-10 -40zM270 573l-82 139h38l66 -113l122 113h47l-151 -139h-40z" />
    <glyph glyph-name="longs" unicode="&#x17f;" horiz-adv-x="268" 
d="M366 711l-8 -32q-14 4 -27 4q-40 0 -65.5 -24.5t-38.5 -77.5l-145 -581h-36l119 476h-95l8 32h95l20 82q31 125 137 125q23 0 36 -4z" />
    <glyph glyph-name="florin" unicode="&#x192;" horiz-adv-x="520" 
d="M609 710l-8 -33q-12 3 -29 3q-47 0 -77.5 -26t-64.5 -94l-47 -92h103l-7 -31h-111l-230 -457q-32 -64 -60.5 -100t-59.5 -51.5t-72 -15.5q-20 0 -30 3l8 34q9 -3 25 -3q45 0 78.5 29.5t75.5 111.5l225 449h-99l7 31h107l50 98q43 84 82.5 116.5t100.5 32.5q18 0 33 -5z
" />
    <glyph glyph-name="Scommaaccent" unicode="&#x218;" horiz-adv-x="586" 
d="M579 552q0 -33 -8 -64h-37q8 37 8 61q0 139 -170 139q-66 0 -111 -25t-67 -63t-22 -76q0 -56 36 -86t117 -56q63 -21 100.5 -41.5t59 -54t21.5 -86.5q0 -52 -29.5 -100.5t-88 -79.5t-142.5 -31q-103 0 -156 45t-53 134q0 35 8 70h38q-9 -39 -9 -68q0 -146 174 -146
q75 0 124.5 26.5t72.5 66.5t23 81q0 42 -18.5 68.5t-51.5 43.5t-92 37q-60 21 -96.5 41.5t-56 52.5t-19.5 81q0 47 27.5 93.5t82 77t130.5 30.5q205 0 205 -171zM163 -244h-20l55 98h-13l18 72h41l-17 -72z" />
    <glyph glyph-name="scommaaccent" unicode="&#x219;" horiz-adv-x="461" 
d="M388.5 486q41.5 -33 41.5 -94q0 -27 -6 -47h-36q6 23 6 44q0 47 -32.5 72t-95.5 25q-65 0 -103.5 -31t-38.5 -80q0 -27 12 -44t34 -27.5t65 -23.5q52 -15 82.5 -30t49 -40.5t18.5 -66.5t-22.5 -76t-67.5 -56.5t-107 -21.5q-83 0 -127.5 35t-44.5 99q0 26 7 50h36
q-6 -25 -6 -48q0 -50 34.5 -76.5t102.5 -26.5q75 0 117 33.5t42 85.5q0 30 -14 48.5t-41 31t-78 28.5q-44 13 -70.5 26t-42 36.5t-15.5 61.5t21 71.5t62 54t97 20.5q79 0 120.5 -33zM101 -244h-20l55 98h-13l18 72h41l-17 -72z" />
    <glyph glyph-name="uni021A" unicode="&#x21a;" horiz-adv-x="579" 
d="M413 677l-168 -677h-37l168 677h-263l8 35h564l-9 -35h-263zM152 -244h-20l55 98h-13l18 72h41l-17 -72z" />
    <glyph glyph-name="uni021B" unicode="&#x21b;" horiz-adv-x="284" 
d="M105 81q0 -26 14 -38t44 -12q18 0 36 4l-9 -34q-13 -3 -33 -3q-45 0 -66.5 19t-21.5 60q0 25 8 54l87 345h-96l8 32h96l29 117h36l-29 -117h103l-8 -32h-103l-88 -351q-7 -25 -7 -44zM27 -244h-20l55 98h-13l18 72h41l-17 -72z" />
    <glyph glyph-name="dotlessj" unicode="&#x237;" horiz-adv-x="220" 
d="M1.5 -155.5q-36.5 -32.5 -90.5 -32.5q-14 0 -32 4l7 33q11 -3 23 -3q44 0 71.5 25.5t43.5 89.5l136 547h36l-139 -556q-19 -75 -55.5 -107.5z" />
    <glyph glyph-name="uni02BC" unicode="&#x2bc;" horiz-adv-x="190" 
d="M150 506h-27l62 127h-14l20 79h47l-19 -79z" />
    <glyph glyph-name="circumflex" unicode="&#x2c6;" horiz-adv-x="374" 
d="M365 573l-67 113l-122 -113h-46l151 139h40l82 -139h-38z" />
    <glyph glyph-name="caron" unicode="&#x2c7;" horiz-adv-x="374" 
d="M247 573l-82 139h38l66 -113l122 113h47l-151 -139h-40z" />
    <glyph glyph-name="uni02C9" unicode="&#x2c9;" horiz-adv-x="343" 
d="M146 637l8 32h242l-8 -32h-242z" />
    <glyph glyph-name="breve" unicode="&#x2d8;" horiz-adv-x="388" 
d="M388 614.5q-44 -34.5 -107 -34.5q-58 0 -88 28.5t-30 82.5q0 13 1 21h30q-1 -6 -1 -18q0 -41 22.5 -62t65.5 -21q50 0 85 25.5t52 75.5h34q-20 -63 -64 -97.5z" />
    <glyph glyph-name="dotaccent" unicode="&#x2d9;" horiz-adv-x="137" 
d="M145 631l20 81h36l-20 -81h-36z" />
    <glyph glyph-name="ring" unicode="&#x2da;" horiz-adv-x="285" 
d="M310.5 735.5q26.5 -26.5 26.5 -63.5t-26.5 -63.5t-63.5 -26.5t-63.5 26.5t-26.5 63.5q0 38 26.5 64t63.5 26t63.5 -26.5zM201.5 717.5q-18.5 -18.5 -18.5 -45.5t18.5 -45.5t45.5 -18.5t45.5 18.5t18.5 45.5t-18.5 45.5t-45.5 18.5t-45.5 -18.5z" />
    <glyph glyph-name="ogonek" unicode="&#x2db;" horiz-adv-x="221" 
d="M17 -70.5q-24 -29.5 -24 -55.5q0 -18 9.5 -26.5t29.5 -8.5q21 0 37 6l-7 -30q-17 -5 -36 -5q-34 0 -51.5 15.5t-17.5 45.5q0 33 26 64.5t88 70.5l34 -6q-64 -41 -88 -70.5z" />
    <glyph glyph-name="tilde" unicode="&#x2dc;" horiz-adv-x="407" 
d="M429 634q-26 -24 -59 -24q-21 0 -37 8t-37 24q-20 15 -32 21.5t-28 6.5q-22 0 -38.5 -15.5t-25.5 -44.5h-32q13 44 39 68t59 24q21 0 37 -8t37 -24q20 -15 32 -21.5t28 -6.5q22 0 38.5 15.5t26.5 44.5h32q-14 -44 -40 -68z" />
    <glyph glyph-name="hungarumlaut" unicode="&#x2dd;" horiz-adv-x="385" 
d="M130 573l148 139h52l-162 -139h-38zM249 573l149 139h51l-161 -139h-39z" />
    <glyph glyph-name="uni0312" unicode="&#x312;" horiz-adv-x="0" 
d="M192 659l-18 -72h-41l18 72l63 98h21l-56 -98h13z" />
    <glyph glyph-name="commaaccent" unicode="&#x326;" horiz-adv-x="0" 
d="M-53 -244h-20l55 98h-13l18 72h41l-17 -72z" />
    <glyph glyph-name="uni0394" unicode="&#x394;" horiz-adv-x="647" 
d="M-57 0l469 712h51l115 -712h-635zM482 373q-9 55 -22 138l-27 168h-1q-44 -68 -67 -102q-132 -201 -134 -204l-221 -338h526z" />
    <glyph glyph-name="uni03A9" unicode="&#x3a9;" horiz-adv-x="720" 
d="M637.5 663q68.5 -60 68.5 -178q0 -120 -70 -228.5t-208 -219.5v-2h193l-9 -35h-242l9 36q147 118 217 223.5t70 221.5q0 102 -58 154t-161 52t-176.5 -53.5t-111 -136t-37.5 -168.5q0 -78 26.5 -147t76.5 -146l-9 -36h-234l8 35h195v2q-48 75 -74 145.5t-26 149.5
q0 95 41.5 185t124 148t198.5 58q120 0 188.5 -60z" />
    <glyph glyph-name="uni03BC" unicode="&#x3bc;" horiz-adv-x="556" 
d="M422 63q0 -19 8 -26.5t27 -7.5q13 0 25 4l-8 -33q-12 -4 -29 -4q-57 0 -57 57q0 15 5 40h-2q-30 -47 -77.5 -74.5t-100.5 -27.5q-56 0 -89.5 25t-41.5 73l-68 -274h-36l173 693h36l-75 -298q-11 -46 -11 -75q0 -111 117 -111q42 0 82 21t70.5 61t44.5 95l76 307h36
l-96 -388q-9 -32 -9 -57z" />
    <glyph glyph-name="pi" unicode="&#x3c0;" horiz-adv-x="632" 
d="M534 476l-82 -332q-8 -34 -8 -53q0 -34 16.5 -48t48.5 -14q17 0 26 4l-8 -33q-16 -4 -29 -4q-44 0 -67.5 20.5t-23.5 67.5q0 20 10 65l81 327h-279l-118 -476h-36l118 476h-114l8 32h599l-8 -32h-134z" />
    <glyph glyph-name="Wgrave" unicode="&#x1e80;" horiz-adv-x="876" 
d="M554 0l-5 334q-4 228 -5 342h-2l-175 -342l-170 -334h-59l-12 712h36l6 -326l6 -350h2l178 352l166 324h60l4 -324q4 -233 5 -352h2l46 89l133 261l168 326h41l-366 -712h-59zM584 760l-82 130h47l69 -130h-34z" />
    <glyph glyph-name="wgrave" unicode="&#x1e81;" horiz-adv-x="746" 
d="M461 0l-17 248l-15 226h-2l-41 -72q-36 -66 -87 -154l-140 -248h-53l-34 508h36l15 -235l15 -238h2q33 58 38 68q64 114 96 169l132 236h56l15 -236l15 -237h2q29 50 87 154l47 84l132 235h40l-286 -508h-53zM503 573h-33l-73 139h45z" />
    <glyph glyph-name="Wacute" unicode="&#x1e82;" horiz-adv-x="876" 
d="M554 0l-5 334q-4 228 -5 342h-2l-175 -342l-170 -334h-59l-12 712h36l6 -326l6 -350h2l178 352l166 324h60l4 -324q4 -233 5 -352h2l46 89l133 261l168 326h41l-366 -712h-59zM507 760l129 130h52l-141 -130h-40z" />
    <glyph glyph-name="wacute" unicode="&#x1e83;" horiz-adv-x="746" 
d="M461 0l-17 248l-15 226h-2l-41 -72q-36 -66 -87 -154l-140 -248h-53l-34 508h36l15 -235l15 -238h2q33 58 38 68q64 114 96 169l132 236h56l15 -236l15 -237h2q29 50 87 154l47 84l132 235h40l-286 -508h-53zM399 573l124 139h51l-136 -139h-39z" />
    <glyph glyph-name="Wdieresis" unicode="&#x1e84;" horiz-adv-x="876" 
d="M554 0l-5 334q-4 228 -5 342h-2l-175 -342l-170 -334h-59l-12 712h36l6 -326l6 -350h2l178 352l166 324h60l4 -324q4 -233 5 -352h2l46 89l133 261l168 326h41l-366 -712h-59zM458 779l21 81h36l-21 -81h-36zM641 779l21 81h36l-21 -81h-36z" />
    <glyph glyph-name="wdieresis" unicode="&#x1e85;" horiz-adv-x="746" 
d="M461 0l-17 248l-15 226h-2l-41 -72q-36 -66 -87 -154l-140 -248h-53l-34 508h36l15 -235l15 -238h2q33 58 38 68q64 114 96 169l132 236h56l15 -236l15 -237h2q29 50 87 154l47 84l132 235h40l-286 -508h-53zM356 631l20 81h36l-20 -81h-36zM539 631l20 81h36l-20 -81
h-36z" />
    <glyph glyph-name="Germandbls" unicode="&#x1e9e;" horiz-adv-x="733" 
d="M616.5 345q48.5 -49 48.5 -132q0 -55 -29 -106.5t-86.5 -84t-137.5 -32.5q-88 0 -134 35t-46 103q0 19 4 38h39q-4 -16 -4 -36q0 -51 36 -78t108 -27q70 0 117.5 27.5t70.5 70.5t23 88q0 79 -51 120.5t-154 53.5l8 32l233 194q-27 37 -74.5 57t-108.5 20
q-118 0 -194.5 -63.5t-107.5 -187.5l-109 -437h-37l110 443q34 136 121.5 208t218.5 72q80 0 139.5 -31t89.5 -84l-236 -196q94 -18 142.5 -67z" />
    <glyph glyph-name="Ygrave" unicode="&#x1ef2;" horiz-adv-x="585" 
d="M248 0h-37l77 312l-168 400h40l68 -163l83 -199h1l185 201l146 161h50l-367 -400zM426 760l-82 130h47l69 -130h-34z" />
    <glyph glyph-name="ygrave" unicode="&#x1ef3;" horiz-adv-x="442" 
d="M87 -123q-34 -37 -67 -51.5t-76 -14.5q-25 0 -42 7l8 32q17 -6 37 -6q35 0 61.5 12.5t55.5 45.5t72 98l-74 508h36l66 -461h2l298 461h42l-339 -523q-46 -71 -80 -108zM333 573h-33l-73 139h45z" />
    <glyph glyph-name="uni2010" unicode="&#x2010;" horiz-adv-x="281" 
d="M35 274l9 36h221l-10 -36h-220z" />
    <glyph glyph-name="endash" unicode="&#x2013;" horiz-adv-x="500" 
d="M25 274l9 36h460l-9 -36h-460z" />
    <glyph glyph-name="emdash" unicode="&#x2014;" horiz-adv-x="1000" 
d="M25 274l9 36h960l-9 -36h-960z" />
    <glyph glyph-name="uni2015" unicode="&#x2015;" horiz-adv-x="1000" 
d="M-38 274l9 36h960l-9 -36h-960z" />
    <glyph glyph-name="underscoredbl" unicode="&#x2017;" horiz-adv-x="500" 
d="M-82 -76l6 26h500l-6 -26h-500zM-112 -196l6 26h500l-6 -26h-500z" />
    <glyph glyph-name="quoteleft" unicode="&#x2018;" horiz-adv-x="191" 
d="M217 712h28l-62 -127h14l-20 -79h-48l20 79z" />
    <glyph glyph-name="quoteright" unicode="&#x2019;" horiz-adv-x="191" 
d="M150 506h-27l62 127h-14l20 79h47l-19 -79z" />
    <glyph glyph-name="quotesinglbase" unicode="&#x201a;" horiz-adv-x="191" 
d="M-10 -136h-27l62 127h-14l20 79h47l-19 -79z" />
    <glyph glyph-name="quotedblleft" unicode="&#x201c;" horiz-adv-x="315" 
d="M217 712h28l-62 -127h14l-20 -79h-48l20 79zM342 712h27l-62 -127h14l-19 -79h-48l19 79z" />
    <glyph glyph-name="quotedblright" unicode="&#x201d;" horiz-adv-x="315" 
d="M150 506h-27l62 127h-14l20 79h47l-19 -79zM274 506h-27l62 127h-14l20 79h47l-19 -79z" />
    <glyph glyph-name="quotedblbase" unicode="&#x201e;" horiz-adv-x="315" 
d="M-10 -136h-27l62 127h-14l20 79h47l-19 -79zM114 -136h-27l62 127h-14l20 79h47l-19 -79z" />
    <glyph glyph-name="dagger" unicode="&#x2020;" horiz-adv-x="510" 
d="M519 505l-9 -33h-182l-147 -592h-38l148 592h-182l8 33h182l51 207h38l-51 -207h182z" />
    <glyph glyph-name="daggerdbl" unicode="&#x2021;" horiz-adv-x="510" 
d="M519 506l-9 -34h-182l-69 -277h182l-9 -34h-182l-69 -281h-38l70 281h-182l8 34h182l70 277h-182l8 34h182l51 206h38l-51 -206h182z" />
    <glyph glyph-name="bullet" unicode="&#x2022;" horiz-adv-x="310" 
d="M88 289q-28 28 -28 67t28 67t67 28t67 -28t28 -67t-28 -67t-67 -28t-67 28z" />
    <glyph glyph-name="ellipsis" unicode="&#x2026;" horiz-adv-x="569" 
d="M-2 0l19 79h49l-19 -79h-49zM197 0l19 79h49l-19 -79h-49zM397 0l19 79h49l-19 -79h-49z" />
    <glyph glyph-name="perthousand" unicode="&#x2030;" horiz-adv-x="904" 
d="M0 -30l605 734h41l-605 -734h-41zM317 657.5q24 -28.5 24 -83.5q0 -45 -17 -93.5t-51.5 -81t-83.5 -32.5q-46 0 -70.5 28.5t-24.5 83.5q0 45 17.5 93t52 81t82.5 33q47 0 71 -28.5zM182 625.5q-26 -28.5 -39 -69t-13 -76.5q0 -81 61 -81q36 0 62 28.5t39 69.5t13 77
q0 80 -60 80q-37 0 -63 -28.5zM529 280q24 -29 24 -84q0 -45 -17 -93.5t-51.5 -81t-82.5 -32.5q-47 0 -71.5 28.5t-24.5 83.5q0 45 17.5 93.5t52 81.5t82.5 33q47 0 71 -29zM828.5 280q23.5 -29 23.5 -84q0 -46 -17 -94t-51 -80.5t-83 -32.5q-46 0 -70.5 28.5t-24.5 83.5
q0 45 17.5 93.5t52 81.5t82.5 33q47 0 70.5 -29zM394.5 248q-26.5 -28 -39.5 -68.5t-13 -76.5q0 -82 61 -82q36 0 62 28.5t39 69.5t13 77q0 80 -59 80q-37 0 -63.5 -28zM694 248q-26 -28 -39 -68.5t-13 -76.5q0 -82 61 -82q36 0 62 28.5t39 69.5t13 77q0 80 -60 80
q-37 0 -63 -28z" />
    <glyph glyph-name="guilsinglleft" unicode="&#x2039;" horiz-adv-x="257" 
d="M155 54h-36l-66 202l161 198h41l-164 -203z" />
    <glyph glyph-name="guilsinglright" unicode="&#x203a;" horiz-adv-x="257" 
d="M103 454h35l66 -202l-160 -198h-41l164 203z" />
    <glyph glyph-name="interrobang" unicode="&#x203d;" horiz-adv-x="483" 
d="M456.5 586q38.5 -41 38.5 -102q0 -49 -32.5 -93t-115.5 -95q-44 -26 -65 -43.5t-33.5 -41t-23.5 -66.5h-30l107 458q-66 -3 -112 -41.5t-67 -108.5h-37q26 90 84 136.5t140 48.5l17 74h44l-20 -76q67 -9 105.5 -50zM430 406q26 36 26 77q0 49 -30.5 80t-83.5 38l-90 -341
h1q11 15 28 28.5t48 33.5q75 48 101 84zM220 80l-20 -80h-45l19 80h46z" />
    <glyph glyph-name="overline" unicode="&#x203e;" horiz-adv-x="500" 
d="M136 798l8 32h500l-8 -32h-500z" />
    <glyph glyph-name="fraction" unicode="&#x2044;" horiz-adv-x="124" 
d="M-218 0l562 674h40l-562 -674h-40z" />
    <glyph glyph-name="zero.superior" unicode="&#x2070;" horiz-adv-x="402" 
d="M449 650q0 -67 -25 -143.5t-74.5 -130.5t-118.5 -54q-61 0 -92 40.5t-31 119.5q0 67 24.5 143.5t74 130.5t118.5 54q124 0 124 -160zM225 728.5q-41 -49.5 -61.5 -119.5t-20.5 -126q0 -64 22.5 -97.5t67.5 -33.5q57 0 98.5 50t62 119.5t20.5 126.5q0 130 -91 130
q-57 0 -98 -49.5z" />
    <glyph glyph-name="four.superior" unicode="&#x2074;" horiz-adv-x="372" 
d="M324 464l-34 -134h-33l34 134h-228l9 38l288 300h48l-77 -307h90l-8 -31h-89zM299 495l18 72l48 194h-1l-170 -176l-86 -90h191z" />
    <glyph glyph-name="five.superior" unicode="&#x2075;" horiz-adv-x="384" 
d="M231 771l-62 -177h1q18 20 45 31t58 11q60 0 93.5 -35t33.5 -96q0 -42 -21.5 -84.5t-63.5 -70.5t-100 -28q-59 0 -93 27t-34 75q0 15 4 28h35q-3 -9 -3 -24q0 -36 24.5 -55t68.5 -19q47 0 81 23.5t51 58t17 67.5q0 48 -26 75t-72 27q-39 0 -70.5 -20.5t-52.5 -60.5l-33 2
l96 276h250l-8 -31h-219z" />
    <glyph glyph-name="six.superior" unicode="&#x2076;" horiz-adv-x="389" 
d="M422.5 781.5q31.5 -28.5 31.5 -78.5q0 -10 -1 -16h-35v9q0 82 -86 82q-58 0 -107 -54t-76 -159h1q24 33 58.5 52t74.5 19q59 0 93 -37t34 -100q0 -39 -21 -80t-61 -69t-93 -28q-131 0 -131 145q0 69 27 149.5t79.5 137t122.5 56.5q58 0 89.5 -28.5zM203.5 583
q-32.5 -22 -49.5 -56t-17 -68q0 -50 25.5 -77.5t72.5 -27.5q44 0 75.5 23t48 56.5t16.5 63.5q0 50 -25.5 79t-70.5 29q-43 0 -75.5 -22z" />
    <glyph glyph-name="seven.superior" unicode="&#x2077;" horiz-adv-x="338" 
d="M159 330h-40q123 255 296 441h-276l8 31h316l-7 -32q-180 -191 -297 -440z" />
    <glyph glyph-name="eight.superior" unicode="&#x2078;" horiz-adv-x="391" 
d="M415 779q36 -31 36 -82q0 -44 -31.5 -80t-86.5 -48v-2q32 -11 51 -38t19 -64q0 -34 -20.5 -67t-60 -54.5t-92.5 -21.5q-66 0 -103.5 33t-37.5 90q0 46 34.5 84.5t95.5 48.5v2q-30 13 -47 37.5t-17 57.5q0 31 20 62.5t57 52t87 20.5q60 0 96 -31zM248 762
q-29 -16 -43.5 -40.5t-14.5 -49.5q0 -39 26 -61t73 -22q41 0 70 16t43 40.5t14 49.5q0 38 -26.5 60.5t-72.5 22.5q-40 0 -69 -16zM187 541q-31 -17 -47 -43t-16 -53q0 -43 29 -67t79 -24q44 0 75 17.5t46.5 43.5t15.5 53q0 41 -29 65.5t-79 24.5q-43 0 -74 -17z" />
    <glyph glyph-name="nine.superior" unicode="&#x2079;" horiz-adv-x="389" 
d="M122 350.5q-31 28.5 -31 78.5v16h36v-9q0 -82 86 -82q58 0 107 54t76 159h-2q-23 -33 -57.5 -52t-74.5 -19q-60 0 -93.5 37t-33.5 100q0 39 21 80t61 69t93 28q64 0 97 -36.5t33 -108.5q0 -69 -27 -149.5t-79 -137t-123 -56.5q-58 0 -89 28.5zM341.5 549q32.5 22 49.5 56
t17 68q0 50 -25.5 77.5t-72.5 27.5q-44 0 -75.5 -23t-48 -56.5t-16.5 -63.5q0 -50 25 -79t70 -29q44 0 76.5 22z" />
    <glyph glyph-name="plussuperior" unicode="&#x207a;" horiz-adv-x="405" 
d="M353 567v-30h-136v-131h-29v131h-135v30h135v131h29v-131h136z" />
    <glyph glyph-name="uni207B" unicode="&#x207b;" horiz-adv-x="406" 
d="M53 537v30h300v-30h-300z" />
    <glyph glyph-name="equalsuperior" unicode="&#x207c;" horiz-adv-x="405" 
d="M52 587v30h300v-30h-300zM52 487v30h300v-30h-300z" />
    <glyph glyph-name="parenleftsuperior" unicode="&#x207d;" horiz-adv-x="184" 
d="M174.5 632.5q-45.5 -113.5 -45.5 -219.5q0 -88 27 -186h-28q-32 93 -32 193q0 106 46.5 219.5t135.5 209.5h33q-91 -103 -136.5 -216.5z" />
    <glyph glyph-name="parenrightsuperior" unicode="&#x207e;" horiz-adv-x="184" 
d="M151.5 443.5q45.5 113.5 45.5 219.5q0 88 -27 186h28q32 -93 32 -193q0 -106 -46.5 -219.5t-135.5 -209.5h-33q91 103 136.5 216.5z" />
    <glyph glyph-name="zero.inferior" unicode="&#x2080;" horiz-adv-x="402" 
d="M324 148q0 -67 -25 -143.5t-74.5 -130.5t-118.5 -54q-61 0 -92 40.5t-31 119.5q0 67 24.5 143.5t74 130.5t118.5 54q124 0 124 -160zM100 226.5q-41 -49.5 -61.5 -119.5t-20.5 -126q0 -64 22.5 -97.5t67.5 -33.5q57 0 98.5 50t62 119.5t20.5 126.5q0 130 -91 130
q-57 0 -98 -49.5z" />
    <glyph glyph-name="one.inferior" unicode="&#x2081;" horiz-adv-x="229" 
d="M9 -172l100 399h-2q-16 -18 -42.5 -26t-68.5 -8l7 28q53 0 82.5 18t47.5 61h28l-118 -472h-34z" />
    <glyph glyph-name="two.inferior" unicode="&#x2082;" horiz-adv-x="388" 
d="M287 277q34 -31 34 -82q0 -56 -39.5 -96t-137.5 -86q-86 -40 -121 -74t-47 -80h276l-8 -31h-310q10 52 31.5 88.5t60.5 66t106 60.5q60 28 92.5 49.5t46.5 44.5t14 53q0 41 -23.5 63.5t-67.5 22.5q-49 0 -83 -28.5t-49 -78.5h-37q19 66 63.5 102.5t107.5 36.5
q57 0 91 -31z" />
    <glyph glyph-name="three.inferior" unicode="&#x2083;" horiz-adv-x="385" 
d="M280 278q36 -30 36 -82q0 -44 -30 -79.5t-89 -50.5v-1q71 -27 71 -99q0 -34 -20.5 -67.5t-60.5 -56t-94 -22.5q-67 0 -102 28.5t-35 79.5q0 18 5 33h34q-3 -16 -3 -29q0 -39 25.5 -60t75.5 -21q44 0 76 17t48.5 43.5t16.5 53.5q0 43 -27.5 65.5t-79.5 22.5h-26l8 31h24
q50 0 84 16.5t50 42t16 52.5q0 38 -27.5 59.5t-75.5 21.5q-49 0 -83.5 -27t-47.5 -80h-34q15 65 59.5 102t105.5 37q64 0 100 -30z" />
    <glyph glyph-name="four.inferior" unicode="&#x2084;" horiz-adv-x="372" 
d="M198 -38l-34 -134h-33l34 134h-228l9 38l288 300h48l-77 -307h90l-8 -31h-89zM173 -7l18 72l48 194h-1l-170 -176l-86 -90h191z" />
    <glyph glyph-name="five.inferior" unicode="&#x2085;" horiz-adv-x="385" 
d="M106 269l-62 -177h1q18 20 45 31t58 11q60 0 93.5 -35t33.5 -96q0 -42 -21.5 -84.5t-63.5 -70.5t-100 -28q-59 0 -93 27t-34 75q0 15 4 28h35q-3 -9 -3 -24q0 -36 24.5 -55t68.5 -19q47 0 81 23.5t51 58t17 67.5q0 48 -26 75t-72 27q-39 0 -70.5 -20.5t-52.5 -60.5l-33 2
l96 276h250l-8 -31h-219z" />
    <glyph glyph-name="six.inferior" unicode="&#x2086;" horiz-adv-x="388" 
d="M296.5 279.5q31.5 -28.5 31.5 -78.5q0 -10 -1 -16h-35v9q0 82 -86 82q-58 0 -107 -54t-76 -159h1q24 33 58.5 52t74.5 19q59 0 93 -37t34 -100q0 -39 -21 -80t-61 -69t-93 -28q-131 0 -131 145q0 69 27 149.5t79.5 137t122.5 56.5q58 0 89.5 -28.5zM77.5 81
q-32.5 -22 -49.5 -56t-17 -68q0 -50 25.5 -77.5t72.5 -27.5q44 0 75.5 23t48 56.5t16.5 63.5q0 50 -25.5 79t-70.5 29q-43 0 -75.5 -22z" />
    <glyph glyph-name="seven.inferior" unicode="&#x2087;" horiz-adv-x="338" 
d="M33 -172h-40q123 255 296 441h-276l8 31h316l-7 -32q-180 -191 -297 -440z" />
    <glyph glyph-name="eight.inferior" unicode="&#x2088;" horiz-adv-x="391" 
d="M290 277q36 -31 36 -82q0 -44 -31.5 -80t-86.5 -48v-2q32 -11 51 -38t19 -64q0 -34 -20.5 -67t-60 -54.5t-92.5 -21.5q-66 0 -103.5 33t-37.5 90q0 46 34.5 84.5t95.5 48.5v2q-30 13 -47 37.5t-17 57.5q0 31 20 62.5t57 52t87 20.5q60 0 96 -31zM123 260
q-29 -16 -43.5 -40.5t-14.5 -49.5q0 -39 26 -61t73 -22q41 0 70 16t43 40.5t14 49.5q0 38 -26.5 60.5t-72.5 22.5q-40 0 -69 -16zM62 39q-31 -17 -47 -43t-16 -53q0 -43 29 -67t79 -24q44 0 75 17.5t46.5 43.5t15.5 53q0 41 -29 65.5t-79 24.5q-43 0 -74 -17z" />
    <glyph glyph-name="nine.inferior" unicode="&#x2089;" horiz-adv-x="389" 
d="M-3 -151.5q-31 28.5 -31 78.5v16h36v-9q0 -82 86 -82q58 0 107 54t76 159h-2q-23 -33 -57.5 -52t-74.5 -19q-60 0 -93.5 37t-33.5 100q0 39 21 80t61 69t93 28q64 0 97 -36.5t33 -108.5q0 -69 -27 -149.5t-79 -137t-123 -56.5q-58 0 -89 28.5zM216.5 47q32.5 22 49.5 56
t17 68q0 50 -25.5 77.5t-72.5 27.5q-44 0 -75.5 -23t-48 -56.5t-16.5 -63.5q0 -50 25 -79t70 -29q44 0 76.5 22z" />
    <glyph glyph-name="uni208A" unicode="&#x208a;" horiz-adv-x="406" 
d="M353 65v-30h-136v-131h-29v131h-135v30h135v131h29v-131h136z" />
    <glyph glyph-name="uni208B" unicode="&#x208b;" horiz-adv-x="406" 
d="M53 35v30h300v-30h-300z" />
    <glyph glyph-name="uni208C" unicode="&#x208c;" horiz-adv-x="406" 
d="M52 85v30h300v-30h-300zM52 -15v30h300v-30h-300z" />
    <glyph glyph-name="uni208D" unicode="&#x208d;" horiz-adv-x="184" 
d="M49.5 130.5q-45.5 -113.5 -45.5 -219.5q0 -88 27 -186h-28q-32 93 -32 193q0 106 46.5 219.5t135.5 209.5h33q-91 -103 -136.5 -216.5z" />
    <glyph glyph-name="uni208E" unicode="&#x208e;" horiz-adv-x="184" 
d="M25.5 -58.5q45.5 113.5 45.5 219.5q0 88 -27 186h28q32 -93 32 -193q0 -106 -46.5 -219.5t-135.5 -209.5h-33q91 103 136.5 216.5z" />
    <glyph glyph-name="franc" unicode="&#x20a3;" horiz-adv-x="520" 
d="M179 387h319l-9 -35h-319l-40 -160h181l-8 -34h-181l-39 -158h-38l39 158h-80l9 34h80l120 482h377l-9 -35h-339z" />
    <glyph glyph-name="lira" unicode="&#x20a4;" horiz-adv-x="520" 
d="M503 648q38 -37 38 -105q0 -24 -6 -54h-36q6 29 6 51q0 54 -29 82t-85 28q-61 0 -103.5 -38.5t-60.5 -111.5l-25 -102h131l-8 -34h-132l-18 -75h131l-8 -34h-132l-20 -82q-26 -103 -91 -138v-1h366l-8 -34h-452l8 34q51 0 87.5 35.5t53.5 105.5l20 80h-106l8 34h106
l19 75h-106l8 34h107l27 110q22 86 74 131.5t126 45.5q72 0 110 -37z" />
    <glyph glyph-name="peseta" unicode="&#x20a7;" horiz-adv-x="775" 
d="M596 81q0 -26 14 -38t44 -12q18 0 36 4l-9 -34q-14 -3 -33 -3q-45 0 -66.5 19t-21.5 60q0 25 8 54l87 345h-87q-5 -49 -34.5 -94t-83.5 -73.5t-130 -28.5h-173l-69 -280h-37l167 674h157q98 0 149 -43.5t55 -122.5h94l29 117h36l-29 -117h103l-8 -32h-103l-88 -351
q-7 -25 -7 -44zM438.5 343q47.5 28 70 69.5t22.5 83.5q0 68 -41.5 105.5t-126.5 37.5h-127l-81 -324h166q70 0 117.5 28z" />
    <glyph glyph-name="Euro" unicode="&#x20ac;" horiz-adv-x="520" 
d="M510.5 641.5q44.5 -43.5 44.5 -128.5q0 -20 -3 -39h-38q2 24 2 34q0 141 -138 141q-91 0 -154.5 -69.5t-97.5 -175.5h283l-14 -33h-278q-10 -41 -14 -74h260l-14 -33h-250q-1 -12 -1 -34q0 -205 150 -205q69 0 119.5 42t80.5 124h39q-36 -99 -98 -150.5t-145 -51.5
q-91 0 -137.5 60.5t-46.5 179.5q0 23 1 35h-57l14 33h46q4 33 14 74h-48l15 33h42q36 120 110.5 200.5t182.5 80.5q86 0 130.5 -43.5z" />
    <glyph glyph-name="uni20B9" unicode="&#x20b9;" horiz-adv-x="520" 
d="M363 639q36 -12 56.5 -39t23.5 -66h119l-19 -33h-100q-8 -62 -66.5 -111.5t-160.5 -63.5v-1q32 -15 52.5 -45t33.5 -84l50 -196h-39l-47 185q-18 71 -49.5 101.5t-87.5 30.5h-20l8 34h41q76 0 129.5 22t82 56t34.5 72h-315l18 33h297q-10 106 -169 106h-111l18 34h455
l-18 -34h-216v-1z" />
    <glyph glyph-name="uni20BA" unicode="&#x20ba;" horiz-adv-x="520" 
d="M369 77.5q-103 -79.5 -269 -79.5q-29 0 -42 1l80 319l-111 -53l10 39l111 52l26 105l-112 -53l10 39l111 53l44 174h37l-39 -157l191 91l-9 -39l-192 -91l-26 -105l192 92l-10 -39l-192 -92l-75 -301q144 0 238.5 72t120.5 207h38q-29 -155 -132 -234.5z" />
    <glyph glyph-name="uni20BC" unicode="&#x20bc;" horiz-adv-x="600" 
d="M529 528q42 -47 42 -142q0 -51 -20 -125l-64 -261h-38l67 269q18 68 18 117q0 79 -34.5 116.5t-108.5 44.5l-136 -547h-37l136 549h-1h-2q-73 -1 -119.5 -24.5t-77.5 -76t-54 -145.5l-76 -303h-37l78 312q25 101 61.5 160.5t90.5 86t136 27.5h3h8l31 126h37l-32 -128
q87 -9 129 -56z" />
    <glyph glyph-name="uni20BD" unicode="&#x20bd;" horiz-adv-x="520" 
d="M499 629.5q48 -44.5 48 -122.5q0 -50 -26 -98t-79 -79t-130 -31h-169l-24 -93h211l-9 -34h-210l-43 -172h-36l43 172h-83l8 34h83l24 93h-83l8 34h83l85 341h155q96 0 144 -44.5zM151 333h162q66 0 110.5 26.5t65.5 66.5t21 80q0 63 -39 98.5t-118 35.5h-125z" />
    <glyph glyph-name="uni2113" unicode="&#x2113;" horiz-adv-x="433" 
d="M126 87q0 -33 15.5 -47.5t49.5 -14.5q24 0 48 7l-8 -35q-23 -5 -45 -5q-49 0 -72.5 22t-23.5 70q0 26 9 59l14 58h-8q-30 0 -53 6l7 27q23 -5 46 -5l16 1l71 286q23 95 52.5 132t74.5 37q39 0 61 -30t22 -94q0 -72 -30 -149t-87 -135t-135 -72l-17 -70q-7 -32 -7 -48z
M274 305.5q49 54.5 74.5 124.5t25.5 132q0 92 -55 92q-31 0 -51.5 -30t-39.5 -108l-70 -281q67 16 116 70.5z" />
    <glyph glyph-name="uni2117" unicode="&#x2117;" horiz-adv-x="819" 
d="M596 676q81 -46 125.5 -129t44.5 -191t-44.5 -191t-125.5 -129t-187 -46q-105 0 -186 46t-125.5 129t-44.5 191t44.5 191t125.5 129t186 46q106 0 187 -46zM237 652q-74 -42 -115 -119t-41 -177t41 -177t115 -119t172 -42t172.5 42t115.5 119t41 177t-41 177t-115.5 119
t-172.5 42t-172 -42zM564.5 556q43.5 -38 43.5 -103t-43.5 -103t-124.5 -38h-125v-208h-38v490h163q81 0 124.5 -38zM315 348h125q63 0 96 27.5t33 77.5t-33 77.5t-96 27.5h-125v-210z" />
    <glyph glyph-name="trademark" unicode="&#x2122;" horiz-adv-x="754" 
d="M270 682l-81 -326h-32l82 326h-127l7 30h286l-8 -30h-127zM695 356l46 182l34 136h-2l-12 -19q-69 -107 -76 -118l-117 -181h-37l-26 181q-5 39 -20 137h-1l-34 -136l-46 -182h-32l89 356h49l26 -181l19 -139h2l89 139l116 181h54l-89 -356h-32z" />
    <glyph glyph-name="Omega" unicode="&#x2126;" horiz-adv-x="720" 
d="M637.5 663q68.5 -60 68.5 -178q0 -120 -70 -228.5t-208 -219.5v-2h193l-9 -35h-242l9 36q147 118 217 223.5t70 221.5q0 102 -58 154t-161 52t-176.5 -53.5t-111 -136t-37.5 -168.5q0 -78 26.5 -147t76.5 -146l-9 -36h-234l8 35h195v2q-48 75 -74 145.5t-26 149.5
q0 95 41.5 185t124 148t198.5 58q120 0 188.5 -60z" />
    <glyph glyph-name="estimated" unicode="&#x212e;" horiz-adv-x="857" 
d="M632.5 636.5q86.5 -48.5 132 -131t45.5 -180.5h-609q-6 0 -9.5 -3.5t-3.5 -8.5v-166q0 -16 3 -25.5t12 -17.5q93 -91 226 -91q72 0 134.5 29.5t103.5 79.5h68q-40 -55 -117.5 -94.5t-188.5 -39.5q-114 0 -200.5 44.5t-134 123.5t-47.5 179q0 99 46.5 178.5t133 125.5
t202.5 46q117 0 203.5 -48.5zM203 566q-9 -8 -12 -17t-3 -23v-166q0 -13 13 -13h453q13 0 13 13v166q0 15 -3 23.5t-12 16.5q-94 93 -223 93q-133 0 -226 -93z" />
    <glyph glyph-name="oneeighth" unicode="&#x215b;" horiz-adv-x="663" 
d="M103 270l83 332h-2q-30 -24 -94 -24l7 29q46 0 71.5 15t40.5 52h28l-100 -404h-34zM-16 0l562 674h40l-562 -674h-40zM604 385q32 -27 32 -71q0 -39 -27 -69t-75 -41v-1q60 -20 60 -88q0 -29 -17.5 -57.5t-51 -46.5t-78.5 -18q-58 0 -91 28.5t-33 78.5q0 40 30 72t81 41
v1q-25 10 -40 31.5t-15 50.5q0 27 17 54t49 44.5t75 17.5q52 0 84 -27zM441.5 352q-27.5 -27 -27.5 -60q0 -31 21.5 -49.5t60.5 -18.5q51 0 77.5 26.5t26.5 59.5q0 31 -21.5 50t-60.5 19q-49 0 -76.5 -27zM388 164q-30 -28 -30 -64q0 -35 24 -55t66 -20q36 0 61.5 14.5
t38 36t12.5 42.5q0 35 -23.5 54.5t-65.5 19.5q-53 0 -83 -28z" />
    <glyph glyph-name="threeeighths" unicode="&#x215c;" horiz-adv-x="795" 
d="M339 656q31 -26 31 -71q0 -37 -24.5 -66.5t-74.5 -43.5v-2q27 -11 42 -32.5t15 -52.5q0 -29 -17.5 -58t-51.5 -48t-81 -19q-58 0 -89 25t-31 69q0 15 4 28h35q-3 -12 -3 -25q0 -65 84 -65q54 0 85 28.5t31 64.5q0 35 -23.5 53t-66.5 18h-21l8 32h20q61 0 93 28.5t32 64.5
q0 30 -22.5 48t-62.5 18q-42 0 -70 -22.5t-38 -66.5h-35q13 58 51.5 89.5t92.5 31.5q56 0 87 -26zM115 0l562 674h40l-562 -674h-40zM735 385q32 -27 32 -71q0 -39 -27 -69t-75 -41v-1q60 -20 60 -88q0 -29 -17.5 -57.5t-51 -46.5t-78.5 -18q-58 0 -91 28.5t-33 78.5
q0 40 30 72t81 41v1q-25 10 -40 31.5t-15 50.5q0 27 17 54t49 44.5t75 17.5q52 0 84 -27zM572.5 352q-27.5 -27 -27.5 -60q0 -31 21.5 -49.5t60.5 -18.5q51 0 77.5 26.5t26.5 59.5q0 31 -21.5 50t-60.5 19q-49 0 -76.5 -27zM519 164q-30 -28 -30 -64q0 -35 24 -55t66 -20
q36 0 61.5 14.5t38 36t12.5 42.5q0 35 -23.5 54.5t-65.5 19.5q-53 0 -83 -28z" />
    <glyph glyph-name="fiveeighths" unicode="&#x215d;" horiz-adv-x="795" 
d="M189 642l-50 -143h1q15 17 36.5 26t46.5 9q53 0 82.5 -30.5t29.5 -83.5q0 -36 -19 -72.5t-55 -60.5t-86 -24q-52 0 -81.5 23.5t-29.5 64.5q0 11 3 24h35q-2 -7 -2 -19q0 -29 20.5 -45t56.5 -16q39 0 67 19.5t42 48t14 55.5q0 39 -21.5 61.5t-60.5 22.5q-32 0 -57.5 -17.5
t-42.5 -49.5l-34 2l82 237h218l-8 -32h-187zM115 0l562 674h40l-562 -674h-40zM735 385q32 -27 32 -71q0 -39 -27 -69t-75 -41v-1q60 -20 60 -88q0 -29 -17.5 -57.5t-51 -46.5t-78.5 -18q-58 0 -91 28.5t-33 78.5q0 40 30 72t81 41v1q-25 10 -40 31.5t-15 50.5q0 27 17 54
t49 44.5t75 17.5q52 0 84 -27zM572.5 352q-27.5 -27 -27.5 -60q0 -31 21.5 -49.5t60.5 -18.5q51 0 77.5 26.5t26.5 59.5q0 31 -21.5 50t-60.5 19q-49 0 -76.5 -27zM519 164q-30 -28 -30 -64q0 -35 24 -55t66 -20q36 0 61.5 14.5t38 36t12.5 42.5q0 35 -23.5 54.5t-65.5 19.5
q-53 0 -83 -28z" />
    <glyph glyph-name="seveneighths" unicode="&#x215e;" horiz-adv-x="704" 
d="M130 270h-41q106 219 248 372h-231l7 32h274l-8 -32q-149 -156 -249 -372zM24 0l562 674h40l-562 -674h-40zM644 385q32 -27 32 -71q0 -39 -27 -69t-75 -41v-1q60 -20 60 -88q0 -29 -17.5 -57.5t-51 -46.5t-78.5 -18q-58 0 -91 28.5t-33 78.5q0 40 30 72t81 41v1
q-25 10 -40 31.5t-15 50.5q0 27 17 54t49 44.5t75 17.5q52 0 84 -27zM481.5 352q-27.5 -27 -27.5 -60q0 -31 21.5 -49.5t60.5 -18.5q51 0 77.5 26.5t26.5 59.5q0 31 -21.5 50t-60.5 19q-49 0 -76.5 -27zM428 164q-30 -28 -30 -64q0 -35 24 -55t66 -20q36 0 61.5 14.5t38 36
t12.5 42.5q0 35 -23.5 54.5t-65.5 19.5q-53 0 -83 -28z" />
    <glyph glyph-name="partialdiff" unicode="&#x2202;" horiz-adv-x="576" 
d="M489.5 660.5q48.5 -62.5 48.5 -177.5q0 -103 -36.5 -218.5t-110.5 -195.5t-178 -80q-85 0 -128.5 47.5t-43.5 133.5q0 61 29.5 132.5t89 121.5t144.5 50q61 0 99 -28t53.5 -69t12.5 -82h2q13 44 21.5 96t8.5 92q0 98 -38.5 151t-115.5 53q-59 0 -98 -35t-57 -97h-39
q21 78 70.5 123t123.5 45q94 0 142.5 -62.5zM181 394q-51 -44 -76 -107.5t-25 -117.5q0 -68 34 -106t101 -38q72 0 125 44t80.5 104.5t27.5 106.5q0 73 -37.5 115.5t-105.5 42.5q-73 0 -124 -44z" />
    <glyph glyph-name="Delta" unicode="&#x2206;" horiz-adv-x="647" 
d="M-57 0l469 712h51l115 -712h-635zM482 373q-9 55 -22 138l-27 168h-1q-44 -68 -67 -102q-132 -201 -134 -204l-221 -338h526z" />
    <glyph glyph-name="product" unicode="&#x220f;" horiz-adv-x="637" 
d="M496 -120v797h-355v-797h-37v832h430v-832h-38z" />
    <glyph glyph-name="summation" unicode="&#x2211;" horiz-adv-x="456" 
d="M76 678l229 -387l-229 -377h345v-34h-386v34l230 377l-230 387v34h386v-34h-345z" />
    <glyph glyph-name="minus" unicode="&#x2212;" horiz-adv-x="566" 
d="M75 300v34h416v-34h-416z" />
    <glyph glyph-name="uni2215" unicode="&#x2215;" horiz-adv-x="416" 
d="M-119 -89l503 834h42l-503 -834h-42z" />
    <glyph glyph-name="uni2219" unicode="&#x2219;" horiz-adv-x="293" 
d="M122 266v79h49v-79h-49z" />
    <glyph glyph-name="radical" unicode="&#x221a;" horiz-adv-x="508" 
d="M208 -120l-103 431h-80v32h106l98 -414h2l223 783h34l-238 -832h-42z" />
    <glyph glyph-name="infinity" unicode="&#x221e;" horiz-adv-x="574" 
d="M526 402q33 -36 33 -94t-33 -94t-86 -36q-50 0 -84.5 26.5t-68.5 75.5q-34 -49 -68 -75.5t-84 -26.5q-53 0 -86.5 36t-33.5 94t33.5 94t86.5 36q50 0 84 -26.5t68 -75.5q34 49 68.5 75.5t84.5 26.5q53 0 86 -36zM206.5 236q28.5 24 61.5 72q-33 48 -61.5 72t-69.5 24
q-40 0 -63.5 -26t-23.5 -70t23.5 -70t63.5 -26q41 0 69.5 24zM501.5 238q23.5 26 23.5 70t-23.5 70t-64.5 26t-69.5 -24t-61.5 -72q33 -48 61.5 -72t69.5 -24t64.5 26z" />
    <glyph glyph-name="integral" unicode="&#x222b;" horiz-adv-x="277" 
d="M264 712v-33q-14 4 -29 4q-40 0 -59 -23.5t-19 -74.5v-646q0 -127 -111 -127q-18 0 -32 3v33q12 -4 28 -4q40 0 59.5 23.5t19.5 74.5v646q0 127 110 127q19 0 33 -3z" />
    <glyph glyph-name="approxequal" unicode="&#x2248;" horiz-adv-x="566" 
d="M237.5 458q24.5 -14 56.5 -42q28 -25 47.5 -37t44.5 -12q34 0 54.5 25t20.5 67h33q0 -56 -29.5 -91t-78.5 -35q-33 0 -57 14t-56 42q-29 25 -48.5 37t-44.5 12q-34 0 -54.5 -25t-20.5 -67h-33q0 56 29.5 91t78.5 35q33 0 57.5 -14zM237.5 287q24.5 -14 56.5 -42
q28 -25 47.5 -37t44.5 -12q34 0 54.5 25t20.5 67h33q0 -56 -29.5 -91t-78.5 -35q-33 0 -57 14t-56 42q-29 25 -48.5 37t-44.5 12q-34 0 -54.5 -25t-20.5 -67h-33q0 56 29.5 91t78.5 35q33 0 57.5 -14z" />
    <glyph glyph-name="notequal" unicode="&#x2260;" horiz-adv-x="566" 
d="M267 265h224v-34h-248l-98 -141h-39l98 141h-129v34h153l71 103h-224v34h248l98 141h40l-98 -141h128v-34h-152z" />
    <glyph glyph-name="lessequal" unicode="&#x2264;" horiz-adv-x="566" 
d="M110 318v-2l381 -168v-38l-416 184v46l416 184v-38zM491 0h-416v34h416v-34z" />
    <glyph glyph-name="greaterequal" unicode="&#x2265;" horiz-adv-x="566" 
d="M491 294l-416 -184v38l381 168v2l-381 168v38l416 -184v-46zM75 0v34h416v-34h-416z" />
    <glyph glyph-name="lozenge" unicode="&#x25ca;" horiz-adv-x="550" 
d="M297 0h-44l-213 356l213 356h44l213 -356zM275 29l197 327l-197 327l-197 -327z" />
    <glyph glyph-name="uniF8FF" unicode="&#xf8ff;" horiz-adv-x="600" 
d="M536 744q33 -33 33 -91v-594q0 -58 -33 -91t-91 -33h-295q-57 0 -90 33t-33 91v594q0 58 33 91t90 33h295q58 0 91 -33zM80 723q-26 -26 -26 -70v-594q0 -44 26 -70t70 -26h295q44 0 70 26t26 70v594q0 44 -26 70t-70 26h-295q-44 0 -70 -26zM409.5 604.5
q44.5 -39.5 44.5 -101.5q0 -43 -17 -72.5t-70 -74.5q-33 -28 -48 -48.5t-20.5 -47.5t-5.5 -76h-33v21q0 44 6.5 71.5t23.5 50t51 52.5q46 40 60 64.5t14 59.5q0 48 -33.5 77t-87.5 29q-58 0 -91.5 -31.5t-37.5 -90.5h-37q5 76 48 116.5t118 40.5q71 0 115.5 -39.5zM253 65
v68h45v-68h-45z" />
    <glyph glyph-name="ff" unicode="&#xfb00;" horiz-adv-x="501" 
d="M600 711l-8 -32q-14 4 -27 4q-40 0 -66 -24.5t-39 -77.5l-18 -73h105l-8 -32h-105l-118 -476h-36l119 476h-198l-119 -476h-36l119 476h-95l8 32h95l20 82q31 125 137 125q23 0 36 -4l-8 -32q-14 4 -27 4q-40 0 -65.5 -24.5t-38.5 -77.5l-18 -73h198l20 82
q31 125 137 125q23 0 36 -4z" />
    <glyph glyph-name="fi" unicode="&#xfb01;" horiz-adv-x="479" 
d="M366 711l-8 -32q-14 4 -27 4q-40 0 -65.5 -24.5t-38.5 -77.5l-18 -73h105l-8 -32h-105l-119 -476h-36l119 476h-95l8 32h95l20 82q31 125 137 125q23 0 36 -4zM293 0l126 508h36l-126 -508h-36zM450 631l20 81h36l-20 -81h-36z" />
    <glyph glyph-name="fl" unicode="&#xfb02;" horiz-adv-x="479" 
d="M366 711l-8 -32q-14 4 -27 4q-40 0 -65.5 -24.5t-38.5 -77.5l-18 -73h105l-8 -32h-105l-119 -476h-36l119 476h-95l8 32h95l20 82q31 125 137 125q23 0 36 -4zM293 0l177 712h36l-177 -712h-36z" />
    <glyph glyph-name="ffi" unicode="&#xfb03;" horiz-adv-x="712" 
d="M316 0h-36l119 476h-198l-119 -476h-36l119 476h-95l8 32h95l20 82q31 125 137 125q23 0 36 -4l-8 -32q-14 4 -27 4q-40 0 -65.5 -24.5t-38.5 -77.5l-18 -73h198l20 82q31 125 137 125q23 0 36 -4l-8 -32q-14 4 -27 4q-40 0 -66 -24.5t-39 -77.5l-18 -73h105l-8 -32h-105
zM719 631h-36l20 81h36zM688 508l-126 -508h-36l126 508h36z" />
    <glyph glyph-name="ffl" unicode="&#xfb04;" horiz-adv-x="712" 
d="M316 0h-36l119 476h-198l-119 -476h-36l119 476h-95l8 32h95l20 82q31 125 137 125q23 0 36 -4l-8 -32q-14 4 -27 4q-40 0 -65.5 -24.5t-38.5 -77.5l-18 -73h198l20 82q31 125 137 125q23 0 36 -4l-8 -32q-14 4 -27 4q-40 0 -66 -24.5t-39 -77.5l-18 -73h105l-8 -32h-105
zM562 0h-36l177 712h36z" />
    <glyph glyph-name="uniFEFF" unicode="&#xfeff;" horiz-adv-x="0" 
 />
    <glyph glyph-name="J.acute.loclNLD" horiz-adv-x="318" 
d="M125.5 41q-52.5 -45 -127.5 -45q-27 0 -46 7l9 34q18 -5 37 -5q63 0 105.5 37.5t60.5 113.5l132 529h38l-135 -539q-21 -87 -73.5 -132zM280 777l124 139h51l-136 -139h-39z" />
    <glyph glyph-name="Ccedilla.ss01" horiz-adv-x="672" 
d="M562.5 694.5q50.5 -28.5 76.5 -79t26 -114.5q0 -13 -2 -39h-39q2 26 2 37q0 85 -49.5 136.5t-138.5 51.5q-104 0 -180 -64.5t-115.5 -162.5t-39.5 -194q0 -111 54 -176t151 -65q91 0 163 54t104 142h40q-36 -105 -119 -168.5t-190 -63.5q-114 0 -177.5 74.5t-63.5 200.5
q0 106 44 212.5t129 176.5t202 70q72 0 122.5 -28.5zM116 -207l160 158h40l-148 -158h-52z" />
    <glyph glyph-name="Scedilla.ss01" horiz-adv-x="586" 
d="M579 552q0 -33 -8 -64h-37q8 37 8 61q0 139 -170 139q-66 0 -111 -25t-67 -63t-22 -76q0 -56 36 -86t117 -56q63 -21 100.5 -41.5t59 -54t21.5 -86.5q0 -52 -29.5 -100.5t-88 -79.5t-142.5 -31q-103 0 -156 45t-53 134q0 35 8 70h38q-9 -39 -9 -68q0 -146 174 -146
q75 0 124.5 26.5t72.5 66.5t23 81q0 42 -18.5 68.5t-51.5 43.5t-92 37q-60 21 -96.5 41.5t-56 52.5t-19.5 81q0 47 27.5 93.5t82 77t130.5 30.5q205 0 205 -171zM67 -207l160 158h40l-148 -158h-52z" />
    <glyph glyph-name="uni0162.ss01" horiz-adv-x="579" 
d="M413 677l-168 -677h-37l168 677h-263l8 35h564l-9 -35h-263zM56 -207l160 158h40l-148 -158h-52z" />
    <glyph glyph-name="i.loclTRK" horiz-adv-x="211" 
d="M25 0l126 508h36l-126 -508h-36zM182 631l20 81h36l-20 -81h-36z" />
    <glyph glyph-name="j.acute.loclNLD" horiz-adv-x="220" 
d="M1.5 -155.5q-36.5 -32.5 -90.5 -32.5q-14 0 -32 4l7 33q11 -3 23 -3q44 0 71.5 25.5t43.5 89.5l136 547h36l-139 -556q-19 -75 -55.5 -107.5zM143 573l124 139h51l-136 -139h-39z" />
    <glyph glyph-name="ccedilla.ss01" horiz-adv-x="505" 
d="M435.5 473q44.5 -46 44.5 -124q0 -12 -1 -19h-37q1 7 1 18q0 64 -35 101t-97 37q-72 0 -125 -47t-80.5 -117t-27.5 -137q0 -77 37 -120t104 -43q63 0 114 39.5t73 101.5h39q-27 -78 -88.5 -126t-139.5 -48q-84 0 -130 51t-46 143q0 76 31.5 154t93.5 130t147 52
q78 0 122.5 -46zM38 -207l160 158h40l-148 -158h-52z" />
    <glyph glyph-name="scedilla.ss01" horiz-adv-x="461" 
d="M388.5 486q41.5 -33 41.5 -94q0 -27 -6 -47h-36q6 23 6 44q0 47 -32.5 72t-95.5 25q-65 0 -103.5 -31t-38.5 -80q0 -27 12 -44t34 -27.5t65 -23.5q52 -15 82.5 -30t49 -40.5t18.5 -66.5t-22.5 -76t-67.5 -56.5t-107 -21.5q-83 0 -127.5 35t-44.5 99q0 26 7 50h36
q-6 -25 -6 -48q0 -50 34.5 -76.5t102.5 -26.5q75 0 117 33.5t42 85.5q0 30 -14 48.5t-41 31t-78 28.5q-44 13 -70.5 26t-42 36.5t-15.5 61.5t21 71.5t62 54t97 20.5q79 0 120.5 -33zM5 -207l160 158h40l-148 -158h-52z" />
    <glyph glyph-name="uni0163.ss01" horiz-adv-x="284" 
d="M105 81q0 -26 14 -38t44 -12q18 0 36 4l-9 -34q-13 -3 -33 -3q-45 0 -66.5 19t-21.5 60q0 25 8 54l87 345h-96l8 32h96l29 117h36l-29 -117h103l-8 -32h-103l-88 -351q-7 -25 -7 -44zM-69 -207l160 158h40l-148 -158h-52z" />
    <glyph glyph-name="a.sups" horiz-adv-x="369" 
d="M360 668q31 -26 31 -78q0 -20 -6 -46l-32 -130q-14 -58 -14 -84h-32q1 23 10 57h-1q-48 -64 -135 -64q-51 0 -80.5 24.5t-29.5 65.5q0 97 151 118q61 9 131 13l2 8q6 21 6 38q0 38 -23 56.5t-65 18.5q-46 0 -76 -23.5t-39 -62.5h-34q12 51 52 83t98 32q55 0 86 -26z
M226 503q-69 -10 -95 -32t-26 -55q0 -30 21.5 -47t60.5 -17q55 0 95 32.5t55 91.5l10 40q-52 -3 -121 -13z" />
    <glyph glyph-name="b.sups" horiz-adv-x="401" 
d="M189 628q23 31 55 48.5t69 17.5q59 0 91 -36t32 -101q0 -53 -22.5 -107.5t-65.5 -90.5t-101 -36q-47 0 -76 24.5t-36 67.5h-1l-21 -85h-32l125 498h32l-51 -200h2zM224 634.5q-36 -31.5 -54.5 -79t-18.5 -92.5q0 -54 24.5 -83t69.5 -29q49 0 84.5 31t54 78t18.5 93
q0 54 -24.5 83.5t-69.5 29.5q-48 0 -84 -31.5z" />
    <glyph glyph-name="c.sups" horiz-adv-x="366" 
d="M380.5 661q33.5 -33 33.5 -90q0 -8 -1 -12h-32v11q0 44 -25 69.5t-71 25.5q-50 0 -86.5 -31.5t-55 -78.5t-18.5 -93q0 -52 25.5 -81.5t71.5 -29.5q43 0 78 27t49 68h35q-19 -56 -63 -90t-101 -34q-60 0 -94.5 37t-34.5 102q0 53 22.5 107t67 90t106.5 36q60 0 93.5 -33z
" />
    <glyph glyph-name="d.sups" horiz-adv-x="401" 
d="M326 330l14 56h-1q-23 -30 -55.5 -47t-68.5 -17q-59 0 -91 36t-32 100q0 53 22 108t65 91t102 36q46 0 75.5 -25t35.5 -67h2l57 227h32l-125 -498h-32zM198.5 633.5q-35.5 -31.5 -54 -78.5t-18.5 -93q0 -53 24 -82.5t69 -29.5q49 0 85 31.5t54.5 78.5t18.5 92
q0 54 -24.5 83.5t-69.5 29.5q-49 0 -84.5 -31.5z" />
    <glyph glyph-name="e.sups" horiz-adv-x="381" 
d="M123 458q0 -53 26.5 -80t75.5 -27q44 0 79.5 23t51.5 61h33q-19 -50 -63 -81.5t-102 -31.5q-65 0 -99 36t-34 102q0 53 23.5 107.5t69 90.5t108.5 36q61 0 94 -34t33 -95q0 -29 -9 -62h-282q-5 -20 -5 -45zM193 629q-42 -36 -59 -98h251q4 16 4 35q0 48 -26 73.5
t-73 25.5q-55 0 -97 -36z" />
    <glyph glyph-name="egrave.sups" horiz-adv-x="381" 
d="M241 828h43l52 -96h-32zM123 458q0 -53 26.5 -80t75.5 -27q44 0 79.5 23t51.5 61h33q-19 -50 -63 -81.5t-102 -31.5q-65 0 -99 36t-34 102q0 53 23.5 107.5t69 90.5t108.5 36q61 0 94 -34t33 -95q0 -29 -9 -62h-282q-5 -20 -5 -45zM193 629q-42 -36 -59 -98h251
q4 16 4 35q0 48 -26 73.5t-73 25.5q-55 0 -97 -36z" />
    <glyph glyph-name="f.sups" horiz-adv-x="197" 
d="M329 828l-7 -29q-8 3 -20 3q-29 0 -46.5 -16t-26.5 -53l-12 -47h75l-7 -29h-75l-81 -327h-32l81 327h-67l7 29h67l14 56q24 89 102 89q16 0 28 -3z" />
    <glyph glyph-name="g.sups" horiz-adv-x="400" 
d="M356.5 671q28.5 -23 36.5 -66h1l20 81h32l-85 -346q-18 -71 -63 -107.5t-115 -36.5q-58 0 -91 24t-33 67q0 7 2 21h33q-2 -14 -2 -20q0 -31 24 -47.5t68 -16.5q59 0 95 31.5t53 97.5l11 46h-1q-25 -31 -58.5 -48t-71.5 -17q-57 0 -87.5 36t-30.5 101q0 51 22.5 102.5
t65.5 86t102 34.5q44 0 72.5 -23zM198 635.5q-35 -30.5 -53.5 -76t-18.5 -87.5q0 -52 23.5 -81t67.5 -29q50 0 86.5 31t55.5 76.5t19 87.5q0 52 -25.5 80.5t-71.5 28.5q-48 0 -83 -30.5z" />
    <glyph glyph-name="h.sups" horiz-adv-x="397" 
d="M188 629q23 30 56.5 47t69.5 17q50 0 77.5 -26t27.5 -76q0 -21 -8 -53l-52 -208h-32l53 209q7 35 7 51q0 37 -20.5 55.5t-57.5 18.5q-48 0 -88.5 -32.5t-54.5 -86.5l-53 -215h-32l124 498h32l-50 -199h1z" />
    <glyph glyph-name="i.sups" horiz-adv-x="155" 
d="M190 770l15 58h32l-15 -58h-32zM81 330l88 356h32l-88 -356h-32z" />
    <glyph glyph-name="j.sups" horiz-adv-x="163" 
d="M198 770l15 58h32l-15 -58h-32zM71.5 220.5q-26.5 -22.5 -66.5 -22.5q-2 0 -26 3l6 29q6 -2 19 -2q30 0 48.5 17t29.5 59l95 382h32l-97 -390q-14 -53 -40.5 -75.5z" />
    <glyph glyph-name="k.sups" horiz-adv-x="334" 
d="M357 330h-42l-154 188h-2l-46 -188h-32l124 498h32l-73 -293h1l209 151h50l-226 -164z" />
    <glyph glyph-name="l.sups" horiz-adv-x="155" 
d="M81 330l124 498h32l-124 -498h-32z" />
    <glyph glyph-name="m.sups" horiz-adv-x="598" 
d="M596 668.5q25 -24.5 25 -72.5q0 -22 -8 -56l-53 -210h-32l53 215q8 30 8 52q0 35 -17.5 51t-52.5 16q-44 0 -80 -32.5t-49 -84.5l-54 -217h-32l56 223q5 25 5 39q0 34 -18 53t-51 19q-45 0 -81 -34t-51 -91l-51 -209h-32l89 356h32l-14 -54h2q20 30 48.5 45.5t61.5 15.5
q39 0 63.5 -20t30.5 -56q23 37 56.5 56.5t72.5 19.5q48 0 73 -24.5z" />
    <glyph glyph-name="n.sups" horiz-adv-x="397" 
d="M391.5 667q27.5 -26 27.5 -76q0 -21 -8 -53l-52 -208h-32l53 209q7 35 7 51q0 37 -20.5 55.5t-57.5 18.5q-48 0 -88.5 -32.5t-54.5 -86.5l-53 -215h-32l89 356h32l-15 -57h1q23 30 56.5 47t69.5 17q50 0 77.5 -26z" />
    <glyph glyph-name="o.sups" horiz-adv-x="390" 
d="M386.5 655.5q36.5 -38.5 36.5 -107.5q0 -52 -22.5 -104.5t-66.5 -87t-104 -34.5q-66 0 -101.5 38.5t-35.5 107.5q0 52 22 104.5t65.5 87t103.5 34.5q66 0 102.5 -38.5zM197.5 633.5q-35.5 -30.5 -53.5 -76.5t-18 -90q0 -55 27 -85.5t79 -30.5q50 0 86 30.5t54 76.5t18 91
q0 55 -27 85t-80 30q-50 0 -85.5 -30.5z" />
    <glyph glyph-name="p.sups" horiz-adv-x="401" 
d="M403 658q32 -36 32 -101q0 -53 -22 -107.5t-65 -90.5t-102 -36q-46 0 -75.5 25t-36.5 67h-1l-53 -214h-32l121 485h32l-15 -58h2q23 31 55.5 48.5t68.5 17.5q59 0 91 -36zM223 634.5q-36 -31.5 -54.5 -79t-18.5 -92.5q0 -53 24.5 -82.5t69.5 -29.5q49 0 85 31t54 78
t18 93q0 54 -24 83.5t-69 29.5q-49 0 -85 -31.5z" />
    <glyph glyph-name="q.sups" horiz-adv-x="401" 
d="M356.5 668q29.5 -25 35.5 -67h2l21 85h32l-121 -485h-32l47 187h-2q-22 -31 -54.5 -48.5t-69.5 -17.5q-59 0 -91 36t-32 100q0 53 22 108t65 91t102 36q46 0 75.5 -25zM198.5 633.5q-35.5 -31.5 -54 -78.5t-18.5 -93q0 -53 24 -82.5t69 -29.5q49 0 85 31.5t54.5 79
t18.5 92.5q0 53 -24.5 82.5t-69.5 29.5q-49 0 -84.5 -31.5z" />
    <glyph glyph-name="r.sups" horiz-adv-x="242" 
d="M341 686l-8 -31q-5 1 -22 1q-55 0 -95 -34.5t-55 -98.5l-48 -193h-32l89 356h32l-16 -64h1q24 32 57.5 49t73.5 17q9 0 23 -2z" />
    <glyph glyph-name="s.sups" horiz-adv-x="335" 
d="M345.5 670.5q30.5 -23.5 30.5 -67.5q0 -16 -4 -31h-32q3 15 3 28q0 32 -22.5 48.5t-65.5 16.5q-45 0 -71.5 -20t-26.5 -52q0 -27 16.5 -38.5t61.5 -25.5q38 -11 60 -21.5t36 -29t14 -48.5q0 -44 -37.5 -76t-105.5 -32q-61 0 -94 25t-33 71q0 19 4 32h32q-4 -13 -4 -30
q0 -34 24.5 -51.5t72.5 -17.5q52 0 80.5 21.5t28.5 55.5q0 29 -20 43t-74 30q-32 9 -51 18t-31 26t-12 46q0 42 35.5 72.5t96.5 30.5q58 0 88.5 -23.5z" />
    <glyph glyph-name="t.sups" horiz-adv-x="208" 
d="M146 393q0 -19 9.5 -27.5t31.5 -8.5q8 0 26 3l-7 -29q-11 -3 -25 -3q-35 0 -51.5 15t-16.5 46q0 15 6 37l58 231h-67l7 29h67l21 82h32l-21 -82h75l-7 -29h-75l-59 -236q-4 -15 -4 -28z" />
    <glyph glyph-name="u.sups" horiz-adv-x="397" 
d="M132.5 349q-27.5 26 -27.5 76q0 21 8 53l52 208h32l-52 -209q-7 -28 -7 -51q0 -37 20 -55.5t57 -18.5q48 0 88.5 32t54.5 87l54 215h32l-89 -356h-32l14 57h-1q-23 -30 -56 -47t-70 -17q-50 0 -77.5 26z" />
    <glyph glyph-name="v.sups" horiz-adv-x="320" 
d="M157 330l-50 356h32l22 -159q10 -80 22 -164h2q39 61 65 101l41 63l100 159h38l-229 -356h-43z" />
    <glyph glyph-name="w.sups" horiz-adv-x="537" 
d="M391 330l-11 168l-10 157h-2l-89 -157l-95 -168h-47l-23 356h31l11 -160l10 -165h1l91 162l91 163h50l10 -164q4 -47 10 -161h2l92 165l89 160h36l-200 -356h-47z" />
    <glyph glyph-name="x.sups" horiz-adv-x="330" 
d="M348 330h-36l-85 162h-1l-161 -162h-44l189 187l-88 169h36l75 -148h1l145 148h43l-171 -172z" />
    <glyph glyph-name="y.sups" horiz-adv-x="323" 
d="M134.5 243.5q-24.5 -25.5 -49 -35.5t-57.5 -10q-18 0 -30 4l7 28q12 -3 25 -3q27 0 46 8.5t38.5 30t48.5 64.5l-56 356h32l49 -314h1l206 314h37l-242 -369q-31 -48 -55.5 -73.5z" />
    <glyph glyph-name="z.sups" horiz-adv-x="324" 
d="M84 361v-2h251l-7 -29h-293l8 34l318 291v2h-237l7 29h279l-9 -34z" />
    <glyph glyph-name="a.smcp" horiz-adv-x="538" 
d="M113 186l-126 -186h-44l372 548h52l101 -548h-37l-34 186h-284zM379 284l-42 232h-1l-157 -232l-43 -63h254z" />
    <glyph glyph-name="aacute.smcp" horiz-adv-x="538" 
d="M113 186l-126 -186h-44l372 548h52l101 -548h-37l-34 186h-284zM379 284l-42 232h-1l-157 -232l-43 -63h254zM299 613l124 139h51l-136 -139h-39z" />
    <glyph glyph-name="abreve.smcp" horiz-adv-x="538" 
d="M113 186l-126 -186h-44l372 548h52l101 -548h-37l-34 186h-284zM379 284l-42 232h-1l-157 -232l-43 -63h254zM465 654.5q-44 -34.5 -107 -34.5q-58 0 -88 28.5t-30 82.5q0 13 1 21h30q-1 -6 -1 -18q0 -41 22.5 -62t65.5 -21q50 0 85 25.5t52 75.5h34q-20 -63 -64 -97.5z
" />
    <glyph glyph-name="acircumflex.smcp" horiz-adv-x="538" 
d="M113 186l-126 -186h-44l372 548h52l101 -548h-37l-34 186h-284zM379 284l-42 232h-1l-157 -232l-43 -63h254zM449 613l-67 113l-122 -113h-46l151 139h40l82 -139h-38z" />
    <glyph glyph-name="adieresis.smcp" horiz-adv-x="538" 
d="M113 186l-126 -186h-44l372 548h52l101 -548h-37l-34 186h-284zM379 284l-42 232h-1l-157 -232l-43 -63h254zM256 671l20 81h36l-20 -81h-36zM439 671l20 81h36l-20 -81h-36z" />
    <glyph glyph-name="agrave.smcp" horiz-adv-x="538" 
d="M113 186l-126 -186h-44l372 548h52l101 -548h-37l-34 186h-284zM379 284l-42 232h-1l-157 -232l-43 -63h254zM402 613h-33l-73 139h45z" />
    <glyph glyph-name="amacron.smcp" horiz-adv-x="538" 
d="M113 186l-126 -186h-44l372 548h52l101 -548h-37l-34 186h-284zM379 284l-42 232h-1l-157 -232l-43 -63h254zM245 677l8 32h242l-8 -32h-242z" />
    <glyph glyph-name="aogonek.smcp" horiz-adv-x="538" 
d="M365.5 -152.5q9.5 -8.5 29.5 -8.5t37 6l-7 -30q-17 -5 -36 -5q-34 0 -51.5 15.5t-17.5 45.5q0 33 25.5 63.5t84.5 69.5l-33 182h-284l-126 -186h-44l372 548h52l101 -548q-64 -41 -88 -70.5t-24 -55.5q0 -18 9.5 -26.5zM379 284l-42 232h-1l-157 -232l-43 -63h254z" />
    <glyph glyph-name="aring.smcp" horiz-adv-x="538" 
d="M113 186l-126 -186h-44l372 548h52l101 -548h-37l-34 186h-284zM379 284l-42 232h-1l-157 -232l-43 -63h254zM428.5 775.5q26.5 -26.5 26.5 -63.5t-26.5 -63.5t-63.5 -26.5t-63.5 26.5t-26.5 63.5q0 38 26.5 64t63.5 26t63.5 -26.5zM319.5 757.5q-18.5 -18.5 -18.5 -45.5
t18.5 -45.5t45.5 -18.5t45.5 18.5t18.5 45.5t-18.5 45.5t-45.5 18.5t-45.5 -18.5z" />
    <glyph glyph-name="atilde.smcp" horiz-adv-x="538" 
d="M113 186l-126 -186h-44l372 548h52l101 -548h-37l-34 186h-284zM379 284l-42 232h-1l-157 -232l-43 -63h254zM497 674q-26 -24 -59 -24q-21 0 -37 8t-37 24q-20 15 -32 21.5t-28 6.5q-22 0 -38.5 -15.5t-25.5 -44.5h-32q13 44 39 68t59 24q21 0 37 -8t37 -24
q20 -15 32 -21.5t28 -6.5q22 0 38.5 15.5t26.5 44.5h32q-14 -44 -40 -68z" />
    <glyph glyph-name="ae.smcp" horiz-adv-x="760" 
d="M424 299h270l-9 -35h-265l-18 -229h251l-8 -35h-284l17 199h-240l-159 -199h-47l437 548h402l-9 -35h-321zM404 513h-15l-223 -279h215z" />
    <glyph glyph-name="b.smcp" horiz-adv-x="520" 
d="M447.5 515.5q36.5 -32.5 36.5 -90.5q0 -48 -36.5 -90t-103.5 -55v-2q41 -10 64 -39t23 -72q0 -39 -21.5 -77.5t-65.5 -64t-108 -25.5h-211l136 548h176q74 0 110.5 -32.5zM136 297h135q62 0 101 19t56 47t17 59q0 92 -117 92h-138zM70 34h164q54 0 89.5 19.5t52 49.5
t16.5 62q0 47 -31 72.5t-96 25.5h-137z" />
    <glyph glyph-name="c.smcp" horiz-adv-x="561" 
d="M485.5 513q48.5 -46 48.5 -122q0 -17 -3 -34h-39q2 22 2 30q0 63 -39 99.5t-110 36.5q-84 0 -144.5 -49t-91.5 -122t-31 -142q0 -88 41.5 -136.5t119.5 -48.5q75 0 133.5 39.5t83.5 105.5h40q-29 -82 -98 -131.5t-160 -49.5q-95 0 -146.5 58t-51.5 161q0 79 36 160.5
t105.5 136t164.5 54.5q91 0 139.5 -46z" />
    <glyph glyph-name="cacute.smcp" horiz-adv-x="561" 
d="M485.5 513q48.5 -46 48.5 -122q0 -17 -3 -34h-39q2 22 2 30q0 63 -39 99.5t-110 36.5q-84 0 -144.5 -49t-91.5 -122t-31 -142q0 -88 41.5 -136.5t119.5 -48.5q75 0 133.5 39.5t83.5 105.5h40q-29 -82 -98 -131.5t-160 -49.5q-95 0 -146.5 58t-51.5 161q0 79 36 160.5
t105.5 136t164.5 54.5q91 0 139.5 -46zM306 613l124 139h51l-136 -139h-39z" />
    <glyph glyph-name="ccaron.smcp" horiz-adv-x="561" 
d="M485.5 513q48.5 -46 48.5 -122q0 -17 -3 -34h-39q2 22 2 30q0 63 -39 99.5t-110 36.5q-84 0 -144.5 -49t-91.5 -122t-31 -142q0 -88 41.5 -136.5t119.5 -48.5q75 0 133.5 39.5t83.5 105.5h40q-29 -82 -98 -131.5t-160 -49.5q-95 0 -146.5 58t-51.5 161q0 79 36 160.5
t105.5 136t164.5 54.5q91 0 139.5 -46zM338 613l-82 139h38l66 -113l122 113h47l-151 -139h-40z" />
    <glyph glyph-name="ccedilla.smcp" horiz-adv-x="561" 
d="M494 387q0 63 -39 99.5t-110 36.5q-84 0 -144.5 -49t-91.5 -122t-31 -142q0 -88 41.5 -136.5t119.5 -48.5q75 0 133.5 39.5t83.5 105.5h40q-26 -74 -85 -122t-138 -57l-53 -57q8 2 17 2q30 0 47 -16.5t17 -46.5q0 -36 -30 -60t-78 -24q-51 0 -91 25l13 22q31 -20 77 -20
q35 0 56 15t21 41q0 20 -12.5 31t-36.5 11q-18 0 -33 -5l-12 13l62 67q-94 0 -145.5 58t-51.5 161q0 79 36 160.5t105.5 136t164.5 54.5q91 0 139.5 -46t48.5 -122q0 -17 -3 -34h-39q2 22 2 30z" />
    <glyph glyph-name="ccircumflex.smcp" horiz-adv-x="561" 
d="M485.5 513q48.5 -46 48.5 -122q0 -17 -3 -34h-39q2 22 2 30q0 63 -39 99.5t-110 36.5q-84 0 -144.5 -49t-91.5 -122t-31 -142q0 -88 41.5 -136.5t119.5 -48.5q75 0 133.5 39.5t83.5 105.5h40q-29 -82 -98 -131.5t-160 -49.5q-95 0 -146.5 58t-51.5 161q0 79 36 160.5
t105.5 136t164.5 54.5q91 0 139.5 -46zM456 613l-67 113l-122 -113h-46l151 139h40l82 -139h-38z" />
    <glyph glyph-name="cdotaccent.smcp" horiz-adv-x="561" 
d="M485.5 513q48.5 -46 48.5 -122q0 -17 -3 -34h-39q2 22 2 30q0 63 -39 99.5t-110 36.5q-84 0 -144.5 -49t-91.5 -122t-31 -142q0 -88 41.5 -136.5t119.5 -48.5q75 0 133.5 39.5t83.5 105.5h40q-29 -82 -98 -131.5t-160 -49.5q-95 0 -146.5 58t-51.5 161q0 79 36 160.5
t105.5 136t164.5 54.5q91 0 139.5 -46zM354 671l20 81h36l-20 -81h-36z" />
    <glyph glyph-name="d.smcp" horiz-adv-x="597" 
d="M490 487q66 -61 66 -174q0 -76 -35 -147.5t-109 -118.5t-185 -47h-202l136 548h138q125 0 191 -61zM70 35h159q97 0 162 41.5t95.5 105.5t30.5 131q0 97 -55.5 148.5t-163.5 51.5h-108z" />
    <glyph glyph-name="eth.smcp" horiz-adv-x="600" 
d="M495 487q66 -61 66 -174q0 -76 -35 -147.5t-109 -118.5t-185 -47h-202l65 261h-60l8 33h60l63 254h138q125 0 191 -61zM396 76.5q65 41.5 95.5 105.5t30.5 131q0 97 -55.5 148.5t-163.5 51.5h-108l-55 -219h185l-8 -33h-185l-57 -226h159q97 0 162 41.5z" />
    <glyph glyph-name="dcaron.smcp" horiz-adv-x="597" 
d="M490 487q66 -61 66 -174q0 -76 -35 -147.5t-109 -118.5t-185 -47h-202l136 548h138q125 0 191 -61zM70 35h159q97 0 162 41.5t95.5 105.5t30.5 131q0 97 -55.5 148.5t-163.5 51.5h-108zM329 613l-82 139h38l66 -113l122 113h47l-151 -139h-40z" />
    <glyph glyph-name="dcroat.smcp" horiz-adv-x="600" 
d="M495 487q66 -61 66 -174q0 -76 -35 -147.5t-109 -118.5t-185 -47h-202l65 261h-60l8 33h60l63 254h138q125 0 191 -61zM396 76.5q65 41.5 95.5 105.5t30.5 131q0 97 -55.5 148.5t-163.5 51.5h-108l-55 -219h185l-8 -33h-185l-57 -226h159q97 0 162 41.5z" />
    <glyph glyph-name="e.smcp" horiz-adv-x="507" 
d="M196 513l-54 -214h300l-9 -35h-299l-58 -229h325l-8 -35h-362l136 548h352l-9 -35h-314z" />
    <glyph glyph-name="eacute.smcp" horiz-adv-x="507" 
d="M196 513l-54 -214h300l-9 -35h-299l-58 -229h325l-8 -35h-362l136 548h352l-9 -35h-314zM308 613l124 139h51l-136 -139h-39z" />
    <glyph glyph-name="ebreve.smcp" horiz-adv-x="507" 
d="M196 513l-54 -214h300l-9 -35h-299l-58 -229h325l-8 -35h-362l136 548h352l-9 -35h-314zM474 654.5q-44 -34.5 -107 -34.5q-58 0 -88 28.5t-30 82.5q0 13 1 21h30q-1 -6 -1 -18q0 -41 22.5 -62t65.5 -21q50 0 85 25.5t52 75.5h34q-20 -63 -64 -97.5z" />
    <glyph glyph-name="ecaron.smcp" horiz-adv-x="507" 
d="M196 513l-54 -214h300l-9 -35h-299l-58 -229h325l-8 -35h-362l136 548h352l-9 -35h-314zM340 613l-82 139h38l66 -113l122 113h47l-151 -139h-40z" />
    <glyph glyph-name="ecircumflex.smcp" horiz-adv-x="507" 
d="M196 513l-54 -214h300l-9 -35h-299l-58 -229h325l-8 -35h-362l136 548h352l-9 -35h-314zM458 613l-67 113l-122 -113h-46l151 139h40l82 -139h-38z" />
    <glyph glyph-name="edieresis.smcp" horiz-adv-x="507" 
d="M196 513l-54 -214h300l-9 -35h-299l-58 -229h325l-8 -35h-362l136 548h352l-9 -35h-314zM265 671l20 81h36l-20 -81h-36zM448 671l20 81h36l-20 -81h-36z" />
    <glyph glyph-name="edotaccent.smcp" horiz-adv-x="507" 
d="M196 513l-54 -214h300l-9 -35h-299l-58 -229h325l-8 -35h-362l136 548h352l-9 -35h-314zM356 671l20 81h36l-20 -81h-36z" />
    <glyph glyph-name="egrave.smcp" horiz-adv-x="507" 
d="M196 513l-54 -214h300l-9 -35h-299l-58 -229h325l-8 -35h-362l136 548h352l-9 -35h-314zM411 613h-33l-73 139h45z" />
    <glyph glyph-name="emacron.smcp" horiz-adv-x="507" 
d="M196 513l-54 -214h300l-9 -35h-299l-58 -229h325l-8 -35h-362l136 548h352l-9 -35h-314zM254 677l8 32h242l-8 -32h-242z" />
    <glyph glyph-name="eogonek.smcp" horiz-adv-x="507" 
d="M142 299h300l-9 -35h-299l-58 -229h325l-8 -35q-64 -41 -88 -70.5t-24 -55.5q0 -18 9.5 -26.5t29.5 -8.5t37 6l-7 -30q-17 -5 -36 -5q-34 0 -51.5 15.5t-17.5 45.5q0 32 24 62t81 67h-319l136 548h352l-9 -35h-314z" />
    <glyph glyph-name="f.smcp" horiz-adv-x="470" 
d="M196 513l-55 -219h290l-9 -35h-290l-64 -259h-37l136 548h344l-8 -35h-307z" />
    <glyph glyph-name="fi.smcp" horiz-adv-x="694" 
d="M196 513l-55 -219h290l-9 -35h-290l-64 -259h-37l136 548h344l-8 -35h-307zM501 0l136 548h37l-136 -548h-37z" />
    <glyph glyph-name="fl.smcp" horiz-adv-x="926" 
d="M196 513l-55 -219h290l-9 -35h-290l-64 -259h-37l136 548h344l-8 -35h-307zM863 35l-8 -35h-354l136 548h37l-128 -513h317z" />
    <glyph glyph-name="g.smcp" horiz-adv-x="595" 
d="M498.5 516q49.5 -43 49.5 -117q0 -13 -2 -21h-39l1 17q0 61 -39 94.5t-112 33.5q-87 0 -150.5 -48.5t-96 -121.5t-32.5 -144q0 -87 41.5 -134.5t119.5 -47.5q82 0 146 49.5t91 158.5h-181l8 35h218l-67 -270h-36l25 101h-1q-32 -51 -87.5 -80.5t-120.5 -29.5
q-93 0 -144 57t-51 160q0 80 38 161.5t111 135.5t173 54q88 0 137.5 -43z" />
    <glyph glyph-name="gbreve.smcp" horiz-adv-x="595" 
d="M498.5 516q49.5 -43 49.5 -117q0 -13 -2 -21h-39l1 17q0 61 -39 94.5t-112 33.5q-87 0 -150.5 -48.5t-96 -121.5t-32.5 -144q0 -87 41.5 -134.5t119.5 -47.5q82 0 146 49.5t91 158.5h-181l8 35h218l-67 -270h-36l25 101h-1q-32 -51 -87.5 -80.5t-120.5 -29.5
q-93 0 -144 57t-51 160q0 80 38 161.5t111 135.5t173 54q88 0 137.5 -43zM479 654.5q-44 -34.5 -107 -34.5q-58 0 -88 28.5t-30 82.5q0 13 1 21h30q-1 -6 -1 -18q0 -41 22.5 -62t65.5 -21q50 0 85 25.5t52 75.5h34q-20 -63 -64 -97.5z" />
    <glyph glyph-name="gcircumflex.smcp" horiz-adv-x="595" 
d="M498.5 516q49.5 -43 49.5 -117q0 -13 -2 -21h-39l1 17q0 61 -39 94.5t-112 33.5q-87 0 -150.5 -48.5t-96 -121.5t-32.5 -144q0 -87 41.5 -134.5t119.5 -47.5q82 0 146 49.5t91 158.5h-181l8 35h218l-67 -270h-36l25 101h-1q-32 -51 -87.5 -80.5t-120.5 -29.5
q-93 0 -144 57t-51 160q0 80 38 161.5t111 135.5t173 54q88 0 137.5 -43zM463 613l-67 113l-122 -113h-46l151 139h40l82 -139h-38z" />
    <glyph glyph-name="gcommaaccent.smcp" horiz-adv-x="595" 
d="M498.5 516q49.5 -43 49.5 -117q0 -13 -2 -21h-39l1 17q0 61 -39 94.5t-112 33.5q-87 0 -150.5 -48.5t-96 -121.5t-32.5 -144q0 -87 41.5 -134.5t119.5 -47.5q82 0 146 49.5t91 158.5h-181l8 35h218l-67 -270h-36l25 101h-1q-32 -51 -87.5 -80.5t-120.5 -29.5
q-93 0 -144 57t-51 160q0 80 38 161.5t111 135.5t173 54q88 0 137.5 -43zM168 -244h-20l55 98h-13l18 72h41l-17 -72z" />
    <glyph glyph-name="gdotaccent.smcp" horiz-adv-x="595" 
d="M498.5 516q49.5 -43 49.5 -117q0 -13 -2 -21h-39l1 17q0 61 -39 94.5t-112 33.5q-87 0 -150.5 -48.5t-96 -121.5t-32.5 -144q0 -87 41.5 -134.5t119.5 -47.5q82 0 146 49.5t91 158.5h-181l8 35h218l-67 -270h-36l25 101h-1q-32 -51 -87.5 -80.5t-120.5 -29.5
q-93 0 -144 57t-51 160q0 80 38 161.5t111 135.5t173 54q88 0 137.5 -43zM361 671l20 81h36l-20 -81h-36z" />
    <glyph glyph-name="h.smcp" horiz-adv-x="610" 
d="M416 0l67 267h-348l-67 -267h-37l136 548h37l-61 -246h348l61 246h38l-136 -548h-38z" />
    <glyph glyph-name="hbar.smcp" horiz-adv-x="610" 
d="M565 448l-111 -448h-38l67 267h-348l-67 -267h-37l111 448h-50l8 33h50l17 67h37l-17 -67h348l17 67h38l-17 -67h49l-9 -33h-48zM179 448l-36 -146h348l36 146h-348z" />
    <glyph glyph-name="uni0125.smcp" horiz-adv-x="610" 
d="M416 0l67 267h-348l-67 -267h-37l136 548h37l-61 -246h348l61 246h38l-136 -548h-38zM494 613l-67 113l-122 -113h-46l151 139h40l82 -139h-38z" />
    <glyph glyph-name="i.smcp" horiz-adv-x="224" 
d="M31 0l136 548h37l-136 -548h-37z" />
    <glyph glyph-name="iacute.smcp" horiz-adv-x="224" 
d="M31 0l136 548h37l-136 -548h-37zM150 613l124 139h51l-136 -139h-39z" />
    <glyph glyph-name="ibreve.smcp" horiz-adv-x="224" 
d="M31 0l136 548h37l-136 -548h-37zM302 654.5q-39 -34.5 -92 -34.5q-48 0 -73 27t-25 78q0 11 2 27h29q-1 -6 -1 -23q0 -38 18 -58t52 -20q40 0 69 26t45 75h33q-18 -63 -57 -97.5z" />
    <glyph glyph-name="icircumflex.smcp" horiz-adv-x="224" 
d="M31 0l136 548h37l-136 -548h-37zM282 614l-48 112l-106 -112h-45l131 138h43l63 -138h-38z" />
    <glyph glyph-name="idieresis.smcp" horiz-adv-x="224" 
d="M31 0l136 548h37l-136 -548h-37zM128 675l19 77h36l-19 -77h-36zM271 675l19 77h36l-19 -77h-36z" />
    <glyph glyph-name="i.loclTRK.smcp" horiz-adv-x="224" 
d="M31 0l136 548h37l-136 -548h-37zM199 671l20 81h36l-20 -81h-36z" />
    <glyph glyph-name="igrave.smcp" horiz-adv-x="224" 
d="M31 0l136 548h37l-136 -548h-37zM254 613h-33l-73 139h45z" />
    <glyph glyph-name="ij.smcp" horiz-adv-x="500" 
d="M31 0l136 548h37l-136 -548h-37zM321.5 32.5q-43.5 -35.5 -108.5 -35.5q-27 0 -39 5l9 34q13 -3 30 -3q105 0 134 114l99 401h38l-102 -411q-17 -69 -60.5 -104.5z" />
    <glyph glyph-name="imacron.smcp" horiz-adv-x="224" 
d="M31 0l136 548h37l-136 -548h-37zM112 677l8 32h212l-8 -32h-212z" />
    <glyph glyph-name="iogonek.smcp" horiz-adv-x="224" 
d="M-20 -70.5q-24 -29.5 -24 -55.5q0 -18 9.5 -26.5t29.5 -8.5q21 0 37 6l-7 -30q-17 -5 -36 -5q-34 0 -51.5 15.5t-17.5 45.5q0 33 25.5 63.5t86.5 70.5l135 543h37l-136 -548q-64 -41 -88 -70.5z" />
    <glyph glyph-name="itilde.smcp" horiz-adv-x="224" 
d="M31 0l136 548h37l-136 -548h-37zM332 674q-24 -24 -54 -24q-19 0 -33 8.5t-31 24.5q-16 14 -26.5 20.5t-23.5 6.5q-18 0 -32.5 -15.5t-22.5 -44.5h-33q14 44 38 68t53 24q19 0 33 -8.5t31 -24.5q16 -14 26.5 -20.5t23.5 -6.5q39 0 57 60h31q-13 -44 -37 -68z" />
    <glyph glyph-name="j.smcp" horiz-adv-x="276" 
d="M97.5 32.5q-43.5 -35.5 -108.5 -35.5q-27 0 -39 5l9 34q13 -3 30 -3q105 0 134 114l99 401h38l-102 -411q-17 -69 -60.5 -104.5z" />
    <glyph glyph-name="jcircumflex.smcp" horiz-adv-x="276" 
d="M97.5 32.5q-43.5 -35.5 -108.5 -35.5q-27 0 -39 5l9 34q13 -3 30 -3q105 0 134 114l99 401h38l-102 -411q-17 -69 -60.5 -104.5zM337 614l-48 112l-106 -112h-45l131 138h43l63 -138h-38z" />
    <glyph glyph-name="k.smcp" horiz-adv-x="486" 
d="M413 0h-47l-232 279h-1l-70 -279h-37l136 548h37l-62 -250h1l325 250h60l-345 -264z" />
    <glyph glyph-name="kcommaaccent.smcp" horiz-adv-x="486" 
d="M413 0h-47l-232 279h-1l-70 -279h-37l136 548h37l-62 -250h1l325 250h60l-345 -264zM134 -244h-20l55 98h-13l18 72h41l-17 -72z" />
    <glyph glyph-name="l.smcp" horiz-adv-x="456" 
d="M393 35l-8 -35h-354l136 548h37l-128 -513h317z" />
    <glyph glyph-name="lacute.smcp" horiz-adv-x="456" 
d="M393 35l-8 -35h-354l136 548h37l-128 -513h317zM189 613l124 139h51l-136 -139h-39z" />
    <glyph glyph-name="lcaron.smcp" horiz-adv-x="456" 
d="M393 35l-8 -35h-354l136 548h37l-128 -513h317zM224 373l79 175h39l-91 -175h-27z" />
    <glyph glyph-name="lcommaaccent.smcp" horiz-adv-x="456" 
d="M393 35l-8 -35h-354l136 548h37l-128 -513h317zM128 -244h-20l55 98h-13l18 72h41l-17 -72z" />
    <glyph glyph-name="ldot.smcp" horiz-adv-x="515" 
d="M393 35l-8 -35h-354l136 548h37l-128 -513h317zM351 279l20 80h49l-20 -80h-49z" />
    <glyph glyph-name="j.acute.loclNLD.smcp" horiz-adv-x="276" 
d="M97.5 32.5q-43.5 -35.5 -108.5 -35.5q-27 0 -39 5l9 34q13 -3 30 -3q105 0 134 114l99 401h38l-102 -411q-17 -69 -60.5 -104.5zM205 613l124 139h51l-136 -139h-39z" />
    <glyph glyph-name="lslash.smcp" horiz-adv-x="448" 
d="M378 0h-354l61 246l-77 -38l9 38l77 38l66 264h37l-62 -247l149 73l-9 -38l-149 -73l-57 -228h317z" />
    <glyph glyph-name="m.smcp" horiz-adv-x="746" 
d="M552 0l71 286l54 219h-1l-97 -143q-36 -54 -55 -81l-191 -281h-46l-51 281q-11 65 -35 193l-6 31h-1l-55 -219l-71 -286h-37l136 548h58l53 -291l29 -159l10 -56h2l146 216l196 290h64l-136 -548h-37z" />
    <glyph glyph-name="n.smcp" horiz-adv-x="621" 
d="M406 0l-104 248q-55 130 -68 161l-43 101h-1l-42 -169l-28 -112l-57 -229h-37l136 548h53l105 -248l110 -262h2l70 281l56 229h38l-136 -548h-54z" />
    <glyph glyph-name="nacute.smcp" horiz-adv-x="621" 
d="M406 0l-104 248q-55 130 -68 161l-43 101h-1l-42 -169l-28 -112l-57 -229h-37l136 548h53l105 -248l110 -262h2l70 281l56 229h38l-136 -548h-54zM334 613l124 139h51l-136 -139h-39z" />
    <glyph glyph-name="ncaron.smcp" horiz-adv-x="621" 
d="M406 0l-104 248q-55 130 -68 161l-43 101h-1l-42 -169l-28 -112l-57 -229h-37l136 548h53l105 -248l110 -262h2l70 281l56 229h38l-136 -548h-54zM366 613l-82 139h38l66 -113l122 113h47l-151 -139h-40z" />
    <glyph glyph-name="ncommaaccent.smcp" horiz-adv-x="621" 
d="M406 0l-104 248q-55 130 -68 161l-43 101h-1l-42 -169l-28 -112l-57 -229h-37l136 548h53l105 -248l110 -262h2l70 281l56 229h38l-136 -548h-54zM173 -244h-20l55 98h-13l18 72h41l-17 -72z" />
    <glyph glyph-name="eng.smcp" horiz-adv-x="621" 
d="M449 -41q-27 -109 -124 -109q-18 0 -29 4l8 31q14 -2 22 -2q33 0 54.5 18.5t32.5 63.5l9 36l-118 260q-50 108 -112 250h-2l-68 -275l-59 -236h-37l136 548h52l108 -237l49 -109q12 -26 64 -142h2l69 275l52 213h38z" />
    <glyph glyph-name="ntilde.smcp" horiz-adv-x="621" 
d="M406 0l-104 248q-55 130 -68 161l-43 101h-1l-42 -169l-28 -112l-57 -229h-37l136 548h53l105 -248l110 -262h2l70 281l56 229h38l-136 -548h-54zM532 674q-26 -24 -59 -24q-21 0 -37 8t-37 24q-20 15 -32 21.5t-28 6.5q-22 0 -38.5 -15.5t-25.5 -44.5h-32q13 44 39 68
t59 24q21 0 37 -8t37 -24q20 -15 32 -21.5t28 -6.5q22 0 38.5 15.5t26.5 44.5h32q-14 -44 -40 -68z" />
    <glyph glyph-name="o.smcp" horiz-adv-x="594" 
d="M503 498q56 -61 56 -168q0 -78 -36.5 -157t-106 -131.5t-163.5 -52.5q-100 0 -155.5 61t-55.5 168q0 78 36.5 157t106 131.5t162.5 52.5q100 0 156 -61zM203.5 476q-60.5 -47 -92 -118t-31.5 -140q0 -90 45.5 -141.5t128.5 -51.5q82 0 142.5 47t92 118.5t31.5 140.5
q0 90 -45.5 141t-128.5 51q-82 0 -142.5 -47z" />
    <glyph glyph-name="oacute.smcp" horiz-adv-x="594" 
d="M503 498q56 -61 56 -168q0 -78 -36.5 -157t-106 -131.5t-163.5 -52.5q-100 0 -155.5 61t-55.5 168q0 78 36.5 157t106 131.5t162.5 52.5q100 0 156 -61zM203.5 476q-60.5 -47 -92 -118t-31.5 -140q0 -90 45.5 -141.5t128.5 -51.5q82 0 142.5 47t92 118.5t31.5 140.5
q0 90 -45.5 141t-128.5 51q-82 0 -142.5 -47zM314 613l124 139h51l-136 -139h-39z" />
    <glyph glyph-name="obreve.smcp" horiz-adv-x="594" 
d="M503 498q56 -61 56 -168q0 -78 -36.5 -157t-106 -131.5t-163.5 -52.5q-100 0 -155.5 61t-55.5 168q0 78 36.5 157t106 131.5t162.5 52.5q100 0 156 -61zM203.5 476q-60.5 -47 -92 -118t-31.5 -140q0 -90 45.5 -141.5t128.5 -51.5q82 0 142.5 47t92 118.5t31.5 140.5
q0 90 -45.5 141t-128.5 51q-82 0 -142.5 -47zM479 654.5q-44 -34.5 -107 -34.5q-58 0 -88 28.5t-30 82.5q0 13 1 21h30q-1 -6 -1 -18q0 -41 22.5 -62t65.5 -21q50 0 85 25.5t52 75.5h34q-20 -63 -64 -97.5z" />
    <glyph glyph-name="ocircumflex.smcp" horiz-adv-x="594" 
d="M503 498q56 -61 56 -168q0 -78 -36.5 -157t-106 -131.5t-163.5 -52.5q-100 0 -155.5 61t-55.5 168q0 78 36.5 157t106 131.5t162.5 52.5q100 0 156 -61zM203.5 476q-60.5 -47 -92 -118t-31.5 -140q0 -90 45.5 -141.5t128.5 -51.5q82 0 142.5 47t92 118.5t31.5 140.5
q0 90 -45.5 141t-128.5 51q-82 0 -142.5 -47zM464 613l-67 113l-122 -113h-46l151 139h40l82 -139h-38z" />
    <glyph glyph-name="odieresis.smcp" horiz-adv-x="594" 
d="M503 498q56 -61 56 -168q0 -78 -36.5 -157t-106 -131.5t-163.5 -52.5q-100 0 -155.5 61t-55.5 168q0 78 36.5 157t106 131.5t162.5 52.5q100 0 156 -61zM203.5 476q-60.5 -47 -92 -118t-31.5 -140q0 -90 45.5 -141.5t128.5 -51.5q82 0 142.5 47t92 118.5t31.5 140.5
q0 90 -45.5 141t-128.5 51q-82 0 -142.5 -47zM270 671l20 81h36l-20 -81h-36zM453 671l20 81h36l-20 -81h-36z" />
    <glyph glyph-name="ograve.smcp" horiz-adv-x="594" 
d="M503 498q56 -61 56 -168q0 -78 -36.5 -157t-106 -131.5t-163.5 -52.5q-100 0 -155.5 61t-55.5 168q0 78 36.5 157t106 131.5t162.5 52.5q100 0 156 -61zM203.5 476q-60.5 -47 -92 -118t-31.5 -140q0 -90 45.5 -141.5t128.5 -51.5q82 0 142.5 47t92 118.5t31.5 140.5
q0 90 -45.5 141t-128.5 51q-82 0 -142.5 -47zM417 613h-33l-73 139h45z" />
    <glyph glyph-name="ohungarumlaut.smcp" horiz-adv-x="594" 
d="M503 498q56 -61 56 -168q0 -78 -36.5 -157t-106 -131.5t-163.5 -52.5q-100 0 -155.5 61t-55.5 168q0 78 36.5 157t106 131.5t162.5 52.5q100 0 156 -61zM203.5 476q-60.5 -47 -92 -118t-31.5 -140q0 -90 45.5 -141.5t128.5 -51.5q82 0 142.5 47t92 118.5t31.5 140.5
q0 90 -45.5 141t-128.5 51q-82 0 -142.5 -47zM264 613l148 139h52l-162 -139h-38zM383 613l149 139h51l-161 -139h-39z" />
    <glyph glyph-name="omacron.smcp" horiz-adv-x="594" 
d="M503 498q56 -61 56 -168q0 -78 -36.5 -157t-106 -131.5t-163.5 -52.5q-100 0 -155.5 61t-55.5 168q0 78 36.5 157t106 131.5t162.5 52.5q100 0 156 -61zM203.5 476q-60.5 -47 -92 -118t-31.5 -140q0 -90 45.5 -141.5t128.5 -51.5q82 0 142.5 47t92 118.5t31.5 140.5
q0 90 -45.5 141t-128.5 51q-82 0 -142.5 -47zM260 677l8 32h242l-8 -32h-242z" />
    <glyph glyph-name="oslash.smcp" horiz-adv-x="595" 
d="M559 330q0 -78 -36.5 -157t-106 -131.5t-163.5 -52.5q-103 0 -160 66l-58 -55l-24 26l62 58q-31 56 -31 134t36.5 157t106 131.5t162.5 52.5q103 0 160 -65l58 55l24 -26l-62 -58q32 -55 32 -135zM203.5 476q-60.5 -47 -92 -118t-31.5 -140q0 -63 22 -106l376 356
q-46 55 -132 55q-82 0 -142.5 -47zM396.5 72q60.5 47 92 118.5t31.5 140.5q0 60 -22 106l-377 -355q46 -57 133 -57q82 0 142.5 47z" />
    <glyph glyph-name="otilde.smcp" horiz-adv-x="594" 
d="M503 498q56 -61 56 -168q0 -78 -36.5 -157t-106 -131.5t-163.5 -52.5q-100 0 -155.5 61t-55.5 168q0 78 36.5 157t106 131.5t162.5 52.5q100 0 156 -61zM203.5 476q-60.5 -47 -92 -118t-31.5 -140q0 -90 45.5 -141.5t128.5 -51.5q82 0 142.5 47t92 118.5t31.5 140.5
q0 90 -45.5 141t-128.5 51q-82 0 -142.5 -47zM511 674q-26 -24 -59 -24q-21 0 -37 8t-37 24q-20 15 -32 21.5t-28 6.5q-22 0 -38.5 -15.5t-25.5 -44.5h-32q13 44 39 68t59 24q21 0 37 -8t37 -24q20 -15 32 -21.5t28 -6.5q22 0 38.5 15.5t26.5 44.5h32q-14 -44 -40 -68z" />
    <glyph glyph-name="oe.smcp" horiz-adv-x="810" 
d="M498 513l-54 -214h300l-9 -35h-299l-58 -229h325l-8 -35h-401q-122 0 -185.5 61t-63.5 174q0 76 34 147.5t106.5 118.5t180.5 47h455l-9 -35h-314zM206.5 471.5q-63.5 -41.5 -93 -105.5t-29.5 -131q0 -97 53.5 -148.5t157.5 -51.5h46l120 478h-96q-95 0 -158.5 -41.5z
" />
    <glyph glyph-name="p.smcp" horiz-adv-x="501" 
d="M458 510.5q42 -37.5 42 -103.5q0 -41 -20.5 -79.5t-63.5 -64t-106 -25.5h-187l-60 -238h-37l136 548h173q81 0 123 -37.5zM131 273h179q52 0 86.5 20t50 51t15.5 63q0 50 -32.5 78t-96.5 28h-142z" />
    <glyph glyph-name="thorn.smcp" horiz-adv-x="501" 
d="M307 436q81 0 123 -37.5t42 -102.5q0 -41 -20.5 -79.5t-63.5 -64t-106 -25.5h-187l-32 -127h-37l136 548h37l-28 -112h136zM103 162h179q52 0 86.5 20t50 50.5t15.5 62.5q0 51 -32 78.5t-97 27.5h-142z" />
    <glyph glyph-name="q.smcp" horiz-adv-x="594" 
d="M525.5 179q-33.5 -76 -94.5 -126l52 -72l-30 -22l-52 72q-68 -42 -148 -42q-100 0 -155.5 61t-55.5 168q0 78 36.5 157t106 131.5t162.5 52.5q100 0 156 -61t56 -168q0 -75 -33.5 -151zM125.5 76.5q45.5 -51.5 128.5 -51.5q69 0 125 35l-60 84l30 22l60 -84
q53 45 82 113.5t29 135.5q0 90 -45.5 141t-128.5 51q-82 0 -142.5 -47t-92 -118t-31.5 -140q0 -90 45.5 -141.5z" />
    <glyph glyph-name="r.smcp" horiz-adv-x="515" 
d="M447 515.5q43 -32.5 43 -95.5q0 -34 -17.5 -67.5t-52.5 -58t-83 -31.5v-2q28 -8 41 -29t21 -70l25 -162h-38l-22 156q-7 53 -28.5 73t-72.5 20h-133l-62 -249h-37l136 548h151q86 0 129 -32.5zM138 284h139q61 0 100.5 20.5t56.5 51t17 60.5q0 97 -134 97h-121z" />
    <glyph glyph-name="racute.smcp" horiz-adv-x="515" 
d="M447 515.5q43 -32.5 43 -95.5q0 -34 -17.5 -67.5t-52.5 -58t-83 -31.5v-2q28 -8 41 -29t21 -70l25 -162h-38l-22 156q-7 53 -28.5 73t-72.5 20h-133l-62 -249h-37l136 548h151q86 0 129 -32.5zM138 284h139q61 0 100.5 20.5t56.5 51t17 60.5q0 97 -134 97h-121zM297 613
l124 139h51l-136 -139h-39z" />
    <glyph glyph-name="rcaron.smcp" horiz-adv-x="515" 
d="M447 515.5q43 -32.5 43 -95.5q0 -34 -17.5 -67.5t-52.5 -58t-83 -31.5v-2q28 -8 41 -29t21 -70l25 -162h-38l-22 156q-7 53 -28.5 73t-72.5 20h-133l-62 -249h-37l136 548h151q86 0 129 -32.5zM138 284h139q61 0 100.5 20.5t56.5 51t17 60.5q0 97 -134 97h-121zM329 613
l-82 139h38l66 -113l122 113h47l-151 -139h-40z" />
    <glyph glyph-name="rcommaaccent.smcp" horiz-adv-x="515" 
d="M447 515.5q43 -32.5 43 -95.5q0 -34 -17.5 -67.5t-52.5 -58t-83 -31.5v-2q28 -8 41 -29t21 -70l25 -162h-38l-22 156q-7 53 -28.5 73t-72.5 20h-133l-62 -249h-37l136 548h151q86 0 129 -32.5zM138 284h139q61 0 100.5 20.5t56.5 51t17 60.5q0 97 -134 97h-121zM138 -244
h-20l55 98h-13l18 72h41l-17 -72z" />
    <glyph glyph-name="s.smcp" horiz-adv-x="499" 
d="M460 423q0 -19 -5 -46h-37q5 27 5 42q0 105 -138 105q-51 0 -86 -18t-52 -45.5t-17 -54.5q0 -43 28.5 -65t95.5 -44q51 -17 82.5 -33t50 -43.5t18.5 -70.5q0 -39 -24 -76t-72 -61t-117 -24q-86 0 -130.5 36t-44.5 107q0 28 6 51h37q-7 -27 -7 -51q0 -108 141 -108
q59 0 98 19t57.5 48t18.5 58q0 32 -15 52.5t-42 34t-75 28.5q-74 24 -109 53.5t-35 86.5q0 37 22.5 73t66.5 59t106 23q173 0 173 -136z" />
    <glyph glyph-name="sacute.smcp" horiz-adv-x="499" 
d="M460 423q0 -19 -5 -46h-37q5 27 5 42q0 105 -138 105q-51 0 -86 -18t-52 -45.5t-17 -54.5q0 -43 28.5 -65t95.5 -44q51 -17 82.5 -33t50 -43.5t18.5 -70.5q0 -39 -24 -76t-72 -61t-117 -24q-86 0 -130.5 36t-44.5 107q0 28 6 51h37q-7 -27 -7 -51q0 -108 141 -108
q59 0 98 19t57.5 48t18.5 58q0 32 -15 52.5t-42 34t-75 28.5q-74 24 -109 53.5t-35 86.5q0 37 22.5 73t66.5 59t106 23q173 0 173 -136zM253 613l124 139h51l-136 -139h-39z" />
    <glyph glyph-name="scaron.smcp" horiz-adv-x="499" 
d="M460 423q0 -19 -5 -46h-37q5 27 5 42q0 105 -138 105q-51 0 -86 -18t-52 -45.5t-17 -54.5q0 -43 28.5 -65t95.5 -44q51 -17 82.5 -33t50 -43.5t18.5 -70.5q0 -39 -24 -76t-72 -61t-117 -24q-86 0 -130.5 36t-44.5 107q0 28 6 51h37q-7 -27 -7 -51q0 -108 141 -108
q59 0 98 19t57.5 48t18.5 58q0 32 -15 52.5t-42 34t-75 28.5q-74 24 -109 53.5t-35 86.5q0 37 22.5 73t66.5 59t106 23q173 0 173 -136zM285 613l-82 139h38l66 -113l122 113h47l-151 -139h-40z" />
    <glyph glyph-name="scedilla.smcp" horiz-adv-x="499" 
d="M460 423q0 -19 -5 -46h-37q5 27 5 42q0 105 -138 105q-51 0 -86 -18t-52 -45.5t-17 -54.5q0 -43 28.5 -65t95.5 -44q51 -17 82.5 -33t50 -43.5t18.5 -70.5q0 -36 -20.5 -70.5t-62 -59t-100.5 -30.5l-52 -56q8 2 17 2q30 0 47 -16.5t17 -46.5q0 -36 -30 -60t-78 -24
q-51 0 -91 25l13 22q31 -20 77 -20q35 0 56 15t21 41q0 20 -12.5 31t-36.5 11q-18 0 -33 -5l-12 13l62 67q-170 2 -170 143q0 28 6 51h37q-7 -27 -7 -51q0 -108 141 -108q59 0 98 19t57.5 48t18.5 58q0 32 -15 52.5t-42 34t-75 28.5q-74 24 -109 53.5t-35 86.5q0 37 22.5 73
t66.5 59t106 23q173 0 173 -136z" />
    <glyph glyph-name="scircumflex.smcp" horiz-adv-x="499" 
d="M460 423q0 -19 -5 -46h-37q5 27 5 42q0 105 -138 105q-51 0 -86 -18t-52 -45.5t-17 -54.5q0 -43 28.5 -65t95.5 -44q51 -17 82.5 -33t50 -43.5t18.5 -70.5q0 -39 -24 -76t-72 -61t-117 -24q-86 0 -130.5 36t-44.5 107q0 28 6 51h37q-7 -27 -7 -51q0 -108 141 -108
q59 0 98 19t57.5 48t18.5 58q0 32 -15 52.5t-42 34t-75 28.5q-74 24 -109 53.5t-35 86.5q0 37 22.5 73t66.5 59t106 23q173 0 173 -136zM403 613l-67 113l-122 -113h-46l151 139h40l82 -139h-38z" />
    <glyph glyph-name="scommaaccent.smcp" horiz-adv-x="499" 
d="M460 423q0 -19 -5 -46h-37q5 27 5 42q0 105 -138 105q-51 0 -86 -18t-52 -45.5t-17 -54.5q0 -43 28.5 -65t95.5 -44q51 -17 82.5 -33t50 -43.5t18.5 -70.5q0 -39 -24 -76t-72 -61t-117 -24q-86 0 -130.5 36t-44.5 107q0 28 6 51h37q-7 -27 -7 -51q0 -108 141 -108
q59 0 98 19t57.5 48t18.5 58q0 32 -15 52.5t-42 34t-75 28.5q-74 24 -109 53.5t-35 86.5q0 37 22.5 73t66.5 59t106 23q173 0 173 -136zM112 -244h-20l55 98h-13l18 72h41l-17 -72z" />
    <glyph glyph-name="germandbls.smcp" horiz-adv-x="634" 
d="M543 161q0 -42 -23.5 -82t-69.5 -65t-110 -25q-74 0 -112.5 29.5t-38.5 84.5q0 13 3 28h38q-2 -8 -2 -23q0 -84 115 -84q52 0 89 20t55 51.5t18 63.5q0 60 -42 92t-126 41l8 32l180 143q-23 27 -60.5 42t-87.5 15q-93 0 -153 -47.5t-83 -141.5l-83 -335h-37l85 343
q26 104 96.5 160t176.5 56q68 0 118.5 -25.5t77.5 -68.5l-183 -146q151 -31 151 -158z" />
    <glyph glyph-name="t.smcp" horiz-adv-x="479" 
d="M323 513l-128 -513h-37l127 513h-213l8 35h464l-8 -35h-213z" />
    <glyph glyph-name="tbar.smcp" horiz-adv-x="479" 
d="M274 317h122l-8 -33h-122l-71 -284h-37l70 284h-121l7 33h122l49 196h-213l8 35h464l-8 -35h-213z" />
    <glyph glyph-name="tcaron.smcp" horiz-adv-x="479" 
d="M323 513l-128 -513h-37l127 513h-213l8 35h464l-8 -35h-213zM309 613l-82 139h38l66 -113l122 113h47l-151 -139h-40z" />
    <glyph glyph-name="uni0163.smcp" horiz-adv-x="479" 
d="M323 513l-128 -513h-37l127 513h-213l8 35h464l-8 -35h-213zM97 -244h-20l55 98h-13l18 72h41l-17 -72z" />
    <glyph glyph-name="uni021B.smcp" horiz-adv-x="479" 
d="M323 513l-128 -513h-37l127 513h-213l8 35h464l-8 -35h-213zM97 -244h-20l55 98h-13l18 72h41l-17 -72z" />
    <glyph glyph-name="u.smcp" horiz-adv-x="582" 
d="M391.5 38q-60.5 -49 -152.5 -49q-83 0 -127 40t-44 117q0 31 11 75l82 327h37l-84 -335q-9 -34 -9 -63q0 -125 137 -125q75 0 126.5 42t72.5 124l89 357h37l-91 -367q-24 -94 -84.5 -143z" />
    <glyph glyph-name="uacute.smcp" horiz-adv-x="582" 
d="M391.5 38q-60.5 -49 -152.5 -49q-83 0 -127 40t-44 117q0 31 11 75l82 327h37l-84 -335q-9 -34 -9 -63q0 -125 137 -125q75 0 126.5 42t72.5 124l89 357h37l-91 -367q-24 -94 -84.5 -143zM319 613l124 139h51l-136 -139h-39z" />
    <glyph glyph-name="ubreve.smcp" horiz-adv-x="582" 
d="M391.5 38q-60.5 -49 -152.5 -49q-83 0 -127 40t-44 117q0 31 11 75l82 327h37l-84 -335q-9 -34 -9 -63q0 -125 137 -125q75 0 126.5 42t72.5 124l89 357h37l-91 -367q-24 -94 -84.5 -143zM485 654.5q-44 -34.5 -107 -34.5q-58 0 -88 28.5t-30 82.5q0 13 1 21h30
q-1 -6 -1 -18q0 -41 22.5 -62t65.5 -21q50 0 85 25.5t52 75.5h34q-20 -63 -64 -97.5z" />
    <glyph glyph-name="ucircumflex.smcp" horiz-adv-x="582" 
d="M391.5 38q-60.5 -49 -152.5 -49q-83 0 -127 40t-44 117q0 31 11 75l82 327h37l-84 -335q-9 -34 -9 -63q0 -125 137 -125q75 0 126.5 42t72.5 124l89 357h37l-91 -367q-24 -94 -84.5 -143zM469 613l-67 113l-122 -113h-46l151 139h40l82 -139h-38z" />
    <glyph glyph-name="udieresis.smcp" horiz-adv-x="582" 
d="M391.5 38q-60.5 -49 -152.5 -49q-83 0 -127 40t-44 117q0 31 11 75l82 327h37l-84 -335q-9 -34 -9 -63q0 -125 137 -125q75 0 126.5 42t72.5 124l89 357h37l-91 -367q-24 -94 -84.5 -143zM276 671l20 81h36l-20 -81h-36zM459 671l20 81h36l-20 -81h-36z" />
    <glyph glyph-name="ugrave.smcp" horiz-adv-x="582" 
d="M391.5 38q-60.5 -49 -152.5 -49q-83 0 -127 40t-44 117q0 31 11 75l82 327h37l-84 -335q-9 -34 -9 -63q0 -125 137 -125q75 0 126.5 42t72.5 124l89 357h37l-91 -367q-24 -94 -84.5 -143zM422 613h-33l-73 139h45z" />
    <glyph glyph-name="uhungarumlaut.smcp" horiz-adv-x="582" 
d="M391.5 38q-60.5 -49 -152.5 -49q-83 0 -127 40t-44 117q0 31 11 75l82 327h37l-84 -335q-9 -34 -9 -63q0 -125 137 -125q75 0 126.5 42t72.5 124l89 357h37l-91 -367q-24 -94 -84.5 -143zM270 613l148 139h52l-162 -139h-38zM389 613l149 139h51l-161 -139h-39z" />
    <glyph glyph-name="umacron.smcp" horiz-adv-x="582" 
d="M391.5 38q-60.5 -49 -152.5 -49q-83 0 -127 40t-44 117q0 31 11 75l82 327h37l-84 -335q-9 -34 -9 -63q0 -125 137 -125q75 0 126.5 42t72.5 124l89 357h37l-91 -367q-24 -94 -84.5 -143zM265 677l8 32h242l-8 -32h-242z" />
    <glyph glyph-name="uogonek.smcp" horiz-adv-x="582" 
d="M428 76.5q-32 -41.5 -82 -73.5q-68 -42 -93.5 -72.5t-25.5 -56.5q0 -18 9.5 -26.5t29.5 -8.5q21 0 37 6l-7 -30q-17 -5 -36 -5q-34 0 -51.5 15.5t-17.5 45.5t22.5 59.5t74.5 62.5v1q-19 -5 -49 -5q-83 0 -127 40t-44 117q0 31 11 75l82 327h37l-84 -335q-9 -34 -9 -63
q0 -125 137 -125q75 0 126.5 42t72.5 124l89 357h37l-91 -367q-16 -63 -48 -104.5z" />
    <glyph glyph-name="uring.smcp" horiz-adv-x="582" 
d="M391.5 38q-60.5 -49 -152.5 -49q-83 0 -127 40t-44 117q0 31 11 75l82 327h37l-84 -335q-9 -34 -9 -63q0 -125 137 -125q75 0 126.5 42t72.5 124l89 357h37l-91 -367q-24 -94 -84.5 -143zM448.5 775.5q26.5 -26.5 26.5 -63.5t-26.5 -63.5t-63.5 -26.5t-63.5 26.5
t-26.5 63.5q0 38 26.5 64t63.5 26t63.5 -26.5zM339.5 757.5q-18.5 -18.5 -18.5 -45.5t18.5 -45.5t45.5 -18.5t45.5 18.5t18.5 45.5t-18.5 45.5t-45.5 18.5t-45.5 -18.5z" />
    <glyph glyph-name="utilde.smcp" horiz-adv-x="582" 
d="M391.5 38q-60.5 -49 -152.5 -49q-83 0 -127 40t-44 117q0 31 11 75l82 327h37l-84 -335q-9 -34 -9 -63q0 -125 137 -125q75 0 126.5 42t72.5 124l89 357h37l-91 -367q-24 -94 -84.5 -143zM517 674q-26 -24 -59 -24q-21 0 -37 8t-37 24q-20 15 -32 21.5t-28 6.5
q-22 0 -38.5 -15.5t-25.5 -44.5h-32q13 44 39 68t59 24q21 0 37 -8t37 -24q20 -15 32 -21.5t28 -6.5q22 0 38.5 15.5t26.5 44.5h32q-14 -44 -40 -68z" />
    <glyph glyph-name="v.smcp" horiz-adv-x="503" 
d="M163 0l-83 548h37l40 -263l37 -248h2q3 5 112 174q17 24 49 74l170 263h43l-355 -548h-52z" />
    <glyph glyph-name="w.smcp" horiz-adv-x="727" 
d="M443 0l-7 255l-8 257h-1l-135 -257l-134 -255h-59l-15 548h36l8 -244l7 -268h2q48 93 141 270l127 242h59l7 -242q3 -87 7 -270h2l140 268l129 244h41l-288 -548h-59z" />
    <glyph glyph-name="wacute.smcp" horiz-adv-x="727" 
d="M443 0l-7 255l-8 257h-1l-135 -257l-134 -255h-59l-15 548h36l8 -244l7 -268h2q48 93 141 270l127 242h59l7 -242q3 -87 7 -270h2l140 268l129 244h41l-288 -548h-59zM394 613l124 139h51l-136 -139h-39z" />
    <glyph glyph-name="wcircumflex.smcp" horiz-adv-x="727" 
d="M443 0l-7 255l-8 257h-1l-135 -257l-134 -255h-59l-15 548h36l8 -244l7 -268h2q48 93 141 270l127 242h59l7 -242q3 -87 7 -270h2l140 268l129 244h41l-288 -548h-59zM545 613l-67 113l-122 -113h-46l151 139h40l82 -139h-38z" />
    <glyph glyph-name="wdieresis.smcp" horiz-adv-x="727" 
d="M443 0l-7 255l-8 257h-1l-135 -257l-134 -255h-59l-15 548h36l8 -244l7 -268h2q48 93 141 270l127 242h59l7 -242q3 -87 7 -270h2l140 268l129 244h41l-288 -548h-59zM351 671l20 81h36l-20 -81h-36zM534 671l20 81h36l-20 -81h-36z" />
    <glyph glyph-name="wgrave.smcp" horiz-adv-x="727" 
d="M443 0l-7 255l-8 257h-1l-135 -257l-134 -255h-59l-15 548h36l8 -244l7 -268h2q48 93 141 270l127 242h59l7 -242q3 -87 7 -270h2l140 268l129 244h41l-288 -548h-59zM498 613h-33l-73 139h45z" />
    <glyph glyph-name="x.smcp" horiz-adv-x="502" 
d="M429 0h-42l-132 255h-2l-254 -255h-52l286 286l-138 262h40l126 -237h1l239 237h52l-270 -268z" />
    <glyph glyph-name="y.smcp" horiz-adv-x="486" 
d="M194 0h-38l60 238l-143 310h40l56 -122l68 -150h2l143 150l116 122h50l-295 -310z" />
    <glyph glyph-name="yacute.smcp" horiz-adv-x="486" 
d="M194 0h-38l60 238l-143 310h40l56 -122l68 -150h2l143 150l116 122h50l-295 -310zM256 613l124 139h51l-136 -139h-39z" />
    <glyph glyph-name="ycircumflex.smcp" horiz-adv-x="486" 
d="M194 0h-38l60 238l-143 310h40l56 -122l68 -150h2l143 150l116 122h50l-295 -310zM406 613l-67 113l-122 -113h-46l151 139h40l82 -139h-38z" />
    <glyph glyph-name="ydieresis.smcp" horiz-adv-x="486" 
d="M194 0h-38l60 238l-143 310h40l56 -122l68 -150h2l143 150l116 122h50l-295 -310zM213 671l20 81h36l-20 -81h-36zM396 671l20 81h36l-20 -81h-36z" />
    <glyph glyph-name="ygrave.smcp" horiz-adv-x="486" 
d="M194 0h-38l60 238l-143 310h40l56 -122l68 -150h2l143 150l116 122h50l-295 -310zM359 613h-33l-73 139h45z" />
    <glyph glyph-name="z.smcp" horiz-adv-x="456" 
d="M9 37v-2h377l-8 -35h-426l10 41l479 470v2h-355l8 35h403l-10 -41z" />
    <glyph glyph-name="zacute.smcp" horiz-adv-x="456" 
d="M9 37v-2h377l-8 -35h-426l10 41l479 470v2h-355l8 35h403l-10 -41zM241 613l124 139h51l-136 -139h-39z" />
    <glyph glyph-name="zcaron.smcp" horiz-adv-x="456" 
d="M9 37v-2h377l-8 -35h-426l10 41l479 470v2h-355l8 35h403l-10 -41zM273 613l-82 139h38l66 -113l122 113h47l-151 -139h-40z" />
    <glyph glyph-name="zdotaccent.smcp" horiz-adv-x="456" 
d="M9 37v-2h377l-8 -35h-426l10 41l479 470v2h-355l8 35h403l-10 -41zM289 671l20 81h36l-20 -81h-36z" />
    <glyph glyph-name="ccedilla.smcp.ss01" horiz-adv-x="561" 
d="M485.5 513q48.5 -46 48.5 -122q0 -17 -3 -34h-39q2 22 2 30q0 63 -39 99.5t-110 36.5q-84 0 -144.5 -49t-91.5 -122t-31 -142q0 -88 41.5 -136.5t119.5 -48.5q75 0 133.5 39.5t83.5 105.5h40q-29 -82 -98 -131.5t-160 -49.5q-95 0 -146.5 58t-51.5 161q0 79 36 160.5
t105.5 136t164.5 54.5q91 0 139.5 -46zM66 -207l160 158h40l-148 -158h-52z" />
    <glyph glyph-name="scedilla.smcp.ss01" horiz-adv-x="499" 
d="M460 423q0 -19 -5 -46h-37q5 27 5 42q0 105 -138 105q-51 0 -86 -18t-52 -45.5t-17 -54.5q0 -43 28.5 -65t95.5 -44q51 -17 82.5 -33t50 -43.5t18.5 -70.5q0 -39 -24 -76t-72 -61t-117 -24q-86 0 -130.5 36t-44.5 107q0 28 6 51h37q-7 -27 -7 -51q0 -108 141 -108
q59 0 98 19t57.5 48t18.5 58q0 32 -15 52.5t-42 34t-75 28.5q-74 24 -109 53.5t-35 86.5q0 37 22.5 73t66.5 59t106 23q173 0 173 -136zM16 -207l160 158h40l-148 -158h-52z" />
    <glyph glyph-name="uni0163.smcp.ss01" horiz-adv-x="479" 
d="M323 513l-128 -513h-37l127 513h-213l8 35h464l-8 -35h-213zM1 -207l160 158h40l-148 -158h-52z" />
    <glyph glyph-name="zero.lf" horiz-adv-x="557" 
d="M534 461q0 -95 -34.5 -205.5t-103.5 -188.5t-166 -78q-166 0 -166 224q0 95 34.5 206t103 188.5t164.5 77.5q168 0 168 -224zM221.5 576q-59.5 -73 -89.5 -175.5t-30 -185.5q0 -191 130 -191q84 0 143.5 73t89.5 175.5t30 185.5q0 96 -32.5 143.5t-98.5 47.5
q-83 0 -142.5 -73z" />
    <glyph glyph-name="one.lf" horiz-adv-x="313" 
d="M97 0l143 576h-1q-48 -47 -155 -47l8 33q73 0 113.5 25.5t65.5 86.5h32l-168 -674h-38z" />
    <glyph glyph-name="two.lf" horiz-adv-x="537" 
d="M483.5 641.5q45.5 -43.5 45.5 -114.5q0 -55 -23.5 -96.5t-76.5 -79.5t-146 -82q-85 -39 -133.5 -75.5t-72 -73t-36.5 -85.5h387l-8 -35h-426q14 73 44 124.5t85 93t146 84.5q86 40 133.5 73t67.5 67.5t20 80.5q0 59 -34.5 92.5t-97.5 33.5q-70 0 -119.5 -42.5
t-73.5 -117.5h-41q27 92 89 144t147 52q78 0 123.5 -43.5z" />
    <glyph glyph-name="three.lf" horiz-adv-x="533" 
d="M474.5 642.5q49.5 -42.5 49.5 -115.5q0 -62 -43 -114t-126 -72v-1q100 -37 100 -143q0 -48 -29 -96.5t-84.5 -80t-130.5 -31.5q-90 0 -137.5 40t-47.5 111q0 27 6 46h38q-5 -19 -5 -43q0 -57 37 -88t109 -31q64 0 110.5 26t71 66t24.5 81q0 63 -39.5 96t-112.5 33h-38
l9 35h36q71 0 119.5 25t71.5 63t23 77q0 57 -39.5 90.5t-109.5 33.5t-120 -41.5t-69 -118.5h-38q21 92 82.5 143.5t145.5 51.5q87 0 136.5 -42.5z" />
    <glyph glyph-name="four.lf" horiz-adv-x="513" 
d="M354 197l-49 -197h-37l49 197h-316l10 42l408 435h54l-110 -442h129l-9 -35h-129zM326 232l26 106l72 290h-1l-247 -263l-125 -133h275z" />
    <glyph glyph-name="five.lf" horiz-adv-x="530" 
d="M229 639l-94 -272h2q27 32 67 50t86 18q83 0 128 -48.5t45 -135.5q0 -59 -30.5 -120t-89 -101.5t-138.5 -40.5t-125 37.5t-45 104.5q0 19 6 43h38q-5 -17 -5 -39q0 -53 35.5 -81.5t97.5 -28.5q68 0 117.5 35t74.5 87t25 102q0 72 -36 111.5t-103 39.5q-57 0 -103 -30.5
t-77 -90.5l-36 2l136 393h341l-9 -35h-308z" />
    <glyph glyph-name="six.lf" horiz-adv-x="537" 
d="M498 645.5q42 -39.5 42 -109.5q0 -13 -1 -22h-39q1 7 1 15q0 120 -125 120q-84 0 -156 -83t-111 -243h2q31 51 83 82.5t112 31.5q80 0 125.5 -52.5t45.5 -142.5q0 -55 -29.5 -114t-85 -99t-128.5 -40q-88 0 -132.5 50t-44.5 149t38.5 216t111 199t169.5 82
q80 0 122 -39.5zM189.5 367.5q-47.5 -33.5 -72.5 -84.5t-25 -101q0 -77 36 -117t106 -40q63 0 109.5 34.5t70.5 84.5t24 96q0 75 -36 118t-101 43q-64 0 -111.5 -33.5z" />
    <glyph glyph-name="seven.lf" horiz-adv-x="457" 
d="M306 351q-107 -155 -198 -351h-42q99 206 205 359t224 280h-384l8 35h426l-9 -36q-123 -132 -230 -287z" />
    <glyph glyph-name="eight.lf" horiz-adv-x="540" 
d="M486.5 642q48.5 -43 48.5 -115q0 -65 -44 -115.5t-123 -69.5v-1q46 -18 72.5 -56t26.5 -91q0 -48 -28.5 -95.5t-83 -78.5t-128.5 -31q-88 0 -139.5 46.5t-51.5 125.5q0 67 48 121.5t135 71.5v1q-41 18 -64.5 53t-23.5 83q0 45 27.5 90t79 74.5t119.5 29.5q81 0 129.5 -43
zM255.5 624.5q-42.5 -24.5 -64.5 -62t-22 -74.5q0 -56 37 -89.5t104 -33.5q61 0 103 24t62.5 61t20.5 75q0 57 -38 90.5t-102 33.5q-58 0 -100.5 -24.5zM167.5 305.5q-45.5 -25.5 -69.5 -64.5t-24 -80q0 -63 41.5 -99.5t112.5 -36.5q64 0 109.5 26t68.5 66t23 79
q0 61 -41.5 98t-112.5 37q-62 0 -107.5 -25.5z" />
    <glyph glyph-name="nine.lf" horiz-adv-x="537" 
d="M81 28.5q-42 39.5 -42 109.5q0 13 1 22h38q-1 -7 -1 -15q0 -58 31.5 -89t94.5 -31q84 0 156 83t110 243h-2q-30 -51 -82 -82.5t-113 -31.5q-80 0 -125 52.5t-45 142.5q0 55 29.5 114t85 99t128.5 40q87 0 132 -50t45 -149t-38.5 -216t-111 -199t-169.5 -82
q-80 0 -122 39.5zM388.5 306.5q47.5 33.5 72.5 84.5t25 101q0 77 -36 117t-106 40q-63 0 -109.5 -34.5t-70.5 -84.5t-24 -96q0 -75 36.5 -118t100.5 -43t111.5 33.5z" />
    <glyph glyph-name="zero.denominator" horiz-adv-x="347" 
d="M281 377q27 -35 27 -103q0 -57 -21.5 -123t-64 -112t-102.5 -46q-107 0 -107 138q0 57 21.5 123t64 112t102.5 46q53 0 80 -35zM116.5 337q-34.5 -42 -52 -100t-17.5 -105q0 -108 75 -108q48 0 82 42t51 100t17 106q0 107 -73 107q-48 0 -82.5 -42z" />
    <glyph glyph-name="one.denominator" horiz-adv-x="202" 
d="M36 0l83 332h-2q-30 -24 -94 -24l7 29q46 0 71.5 15t40.5 52h28l-100 -404h-34z" />
    <glyph glyph-name="two.denominator" horiz-adv-x="336" 
d="M275.5 385q29.5 -27 29.5 -71q0 -49 -34 -83.5t-117 -74.5q-72 -34 -101 -61t-39 -63h234l-8 -32h-268q11 67 47.5 106.5t122.5 80.5q73 34 100 60t27 63q0 33 -19 51t-56 18q-39 0 -68 -24t-40 -64h-37q16 58 54.5 89.5t92.5 31.5q50 0 79.5 -27z" />
    <glyph glyph-name="three.denominator" horiz-adv-x="333" 
d="M272 386q31 -26 31 -71q0 -37 -24.5 -66.5t-74.5 -43.5v-2q27 -11 42 -32.5t15 -52.5q0 -29 -17.5 -58t-51.5 -48t-81 -19q-58 0 -89 25t-31 69q0 15 4 28h35q-3 -12 -3 -25q0 -65 84 -65q54 0 85 28.5t31 64.5q0 35 -23.5 53t-66.5 18h-21l8 32h20q61 0 93 28.5t32 64.5
q0 30 -22.5 48t-62.5 18q-42 0 -70 -22.5t-38 -66.5h-35q13 58 51.5 89.5t92.5 31.5q56 0 87 -26z" />
    <glyph glyph-name="four.denominator" horiz-adv-x="322" 
d="M201 113l-28 -113h-33l28 113h-194l9 37l243 254h48l-65 -260h76l-8 -31h-76zM176 144l14 59l40 159h-2q-33 -35 -102 -107l-35 -37l-72 -74h157z" />
    <glyph glyph-name="five.denominator" horiz-adv-x="333" 
d="M121 372l-50 -143h1q15 17 37 26t47 9q52 0 81.5 -30.5t29.5 -83.5q0 -36 -18.5 -72.5t-55 -60.5t-86.5 -24q-52 0 -81.5 23.5t-29.5 64.5q0 11 3 24h35q-2 -14 -2 -19q0 -29 20.5 -45t56.5 -16q39 0 67 19.5t42.5 48t14.5 55.5q0 39 -21.5 61.5t-60.5 22.5
q-32 0 -58 -17.5t-43 -49.5l-34 2l83 237h217l-8 -32h-187z" />
    <glyph glyph-name="six.denominator" horiz-adv-x="336" 
d="M284.5 387q27.5 -25 27.5 -68q0 -9 -1 -14h-34v7q0 33 -18 50t-51 17q-51 0 -91 -43.5t-63 -129.5h1q45 57 112 57q50 0 79 -32t29 -86q0 -34 -18.5 -69.5t-52.5 -59t-80 -23.5q-114 0 -114 126q0 59 23 128t68 117t107 48q49 0 76.5 -25zM98.5 213.5
q-26.5 -17.5 -40.5 -45t-14 -55.5q0 -42 21 -65t59 -23q36 0 62.5 19t39.5 46.5t13 52.5q0 40 -20 64t-58 24q-36 0 -62.5 -17.5z" />
    <glyph glyph-name="seven.denominator" horiz-adv-x="292" 
d="M62 0h-41q106 219 248 372h-231l8 32h273l-8 -32q-151 -160 -249 -372z" />
    <glyph glyph-name="eight.denominator" horiz-adv-x="338" 
d="M278 385q32 -27 32 -71q0 -39 -27 -69t-75 -41v-1q60 -20 60 -88q0 -29 -17.5 -57.5t-51 -46.5t-78.5 -18q-58 0 -91 28.5t-33 78.5q0 40 30 72t81 41v1q-25 10 -40 31.5t-15 50.5q0 27 17 54t49 44.5t75 17.5q52 0 84 -27zM115.5 352q-27.5 -27 -27.5 -60
q0 -31 21.5 -49.5t60.5 -18.5q51 0 77.5 26.5t26.5 59.5q0 31 -21.5 50t-60.5 19q-49 0 -76.5 -27zM62 164q-30 -28 -30 -64q0 -35 24 -55t66 -20q36 0 61.5 14.5t38 36t12.5 42.5q0 35 -23.5 54.5t-65.5 19.5q-53 0 -83 -28z" />
    <glyph glyph-name="nine.denominator" horiz-adv-x="336" 
d="M25.5 17q-27.5 25 -27.5 68q0 9 1 14h35v-7q0 -33 17.5 -50t51.5 -17q50 0 90.5 44t62.5 129h-1q-45 -57 -112 -57q-50 0 -78.5 32t-28.5 86q0 34 18 69.5t52 59t80 23.5q114 0 114 -126q0 -59 -23 -128t-68 -117t-106 -48q-50 0 -77.5 25zM211.5 190.5q26.5 17.5 41 45
t14.5 55.5q0 42 -21 65t-60 23q-36 0 -62 -19t-39.5 -46.5t-13.5 -52.5q0 -40 20.5 -64t57.5 -24q36 0 62.5 17.5z" />
    <glyph glyph-name="zero.numerator" horiz-adv-x="347" 
d="M349 647q27 -35 27 -103q0 -57 -21.5 -123t-64 -112t-102.5 -46q-107 0 -107 138q0 57 21.5 123t64 112t102.5 46q53 0 80 -35zM184.5 607q-34.5 -42 -52 -100t-17.5 -105q0 -108 75 -108q48 0 82 42t51 100t17 106q0 107 -73 107q-48 0 -82.5 -42z" />
    <glyph glyph-name="one.numerator" horiz-adv-x="202" 
d="M103 270l83 332h-2q-30 -24 -94 -24l7 29q46 0 71.5 15t40.5 52h28l-100 -404h-34z" />
    <glyph glyph-name="two.numerator" horiz-adv-x="336" 
d="M342.5 655q29.5 -27 29.5 -71q0 -49 -34 -83.5t-117 -74.5q-72 -34 -101 -61t-39 -63h234l-8 -32h-268q11 67 47.5 106.5t122.5 80.5q73 34 100 60t27 63q0 33 -19 51t-56 18q-39 0 -68 -24t-40 -64h-37q16 58 54.5 89.5t92.5 31.5q50 0 79.5 -27z" />
    <glyph glyph-name="three.numerator" horiz-adv-x="333" 
d="M339 656q31 -26 31 -71q0 -37 -24.5 -66.5t-74.5 -43.5v-2q27 -11 42 -32.5t15 -52.5q0 -29 -17.5 -58t-51.5 -48t-81 -19q-58 0 -89 25t-31 69q0 15 4 28h35q-3 -12 -3 -25q0 -65 84 -65q54 0 85 28.5t31 64.5q0 35 -23.5 53t-66.5 18h-21l8 32h20q61 0 93 28.5t32 64.5
q0 30 -22.5 48t-62.5 18q-42 0 -70 -22.5t-38 -66.5h-35q13 58 51.5 89.5t92.5 31.5q56 0 87 -26z" />
    <glyph glyph-name="four.numerator" horiz-adv-x="322" 
d="M269 383l-28 -113h-33l28 113h-194l9 37l243 254h48l-65 -260h76l-8 -31h-76zM244 414l14 59l40 159h-2q-33 -35 -102 -107l-35 -37l-72 -74h157z" />
    <glyph glyph-name="five.numerator" horiz-adv-x="333" 
d="M189 642l-50 -143h1q15 17 36.5 26t46.5 9q53 0 82.5 -30.5t29.5 -83.5q0 -36 -19 -72.5t-55 -60.5t-86 -24q-52 0 -81.5 23.5t-29.5 64.5q0 11 3 24h35q-2 -7 -2 -19q0 -29 20.5 -45t56.5 -16q39 0 67 19.5t42 48t14 55.5q0 39 -21.5 61.5t-60.5 22.5q-32 0 -57.5 -17.5
t-42.5 -49.5l-34 2l82 237h218l-8 -32h-187z" />
    <glyph glyph-name="six.numerator" horiz-adv-x="336" 
d="M351.5 657q27.5 -25 27.5 -68q0 -9 -1 -14h-34v7q0 33 -18 50t-51 17q-51 0 -91 -43.5t-63 -129.5h1q45 57 112 57q50 0 79 -32t29 -86q0 -34 -18.5 -69.5t-52.5 -59t-80 -23.5q-114 0 -114 126q0 59 23 128t68 117t107 48q49 0 76.5 -25zM165.5 483.5
q-26.5 -17.5 -40.5 -45t-14 -55.5q0 -42 21 -65t59 -23q36 0 62.5 19t39.5 46.5t13 52.5q0 40 -20 64t-58 24q-36 0 -62.5 -17.5z" />
    <glyph glyph-name="seven.numerator" horiz-adv-x="292" 
d="M130 270h-41q106 219 248 372h-231l7 32h274l-8 -32q-149 -156 -249 -372z" />
    <glyph glyph-name="eight.numerator" horiz-adv-x="338" 
d="M345 655q32 -27 32 -71q0 -39 -27 -69t-75 -41v-1q60 -20 60 -88q0 -29 -17.5 -57.5t-51 -46.5t-78.5 -18q-58 0 -91 28.5t-33 78.5q0 40 30 72t81 41v1q-25 10 -40 31.5t-15 50.5q0 27 17 54t49 44.5t75 17.5q52 0 84 -27zM182.5 622q-27.5 -27 -27.5 -60
q0 -31 21.5 -49.5t60.5 -18.5q51 0 77.5 26.5t26.5 59.5q0 31 -21.5 50t-60.5 19q-49 0 -76.5 -27zM129 434q-30 -28 -30 -64q0 -35 24 -55t66 -20q36 0 61.5 14.5t38 36t12.5 42.5q0 35 -23.5 54.5t-65.5 19.5q-53 0 -83 -28z" />
    <glyph glyph-name="nine.numerator" horiz-adv-x="336" 
d="M92.5 287q-27.5 25 -27.5 68q0 9 1 14h35v-7q0 -33 17.5 -50t51.5 -17q50 0 90.5 44t62.5 129h-1q-45 -57 -112 -57q-50 0 -78.5 32t-28.5 86q0 34 18 69.5t52 59t80 23.5q114 0 114 -126q0 -59 -23 -128t-68 -117t-106 -48q-50 0 -77.5 25zM278.5 460.5q26.5 17.5 41 45
t14.5 55.5q0 42 -21 65t-60 23q-36 0 -62 -19t-39.5 -46.5t-13.5 -52.5q0 -40 20.5 -64t57.5 -24q36 0 62.5 17.5z" />
    <glyph glyph-name="zero.smcp" horiz-adv-x="448" 
d="M427 372q0 -78 -29 -167t-86.5 -151.5t-138.5 -62.5q-142 0 -142 185q0 78 28.5 167t85.5 151.5t137 62.5q145 0 145 -185zM165 463q-48 -58 -72 -138.5t-24 -146.5q0 -152 106 -152q68 0 116.5 57.5t72.5 138.5t24 147q0 152 -108 152q-67 0 -115 -58z" />
    <glyph glyph-name="one.smcp" horiz-adv-x="448" 
d="M154 0l116 464h-2q-38 -40 -130 -40l8 33q62 -1 96.5 20t53.5 71h32l-136 -548h-38z" />
    <glyph glyph-name="two.smcp" horiz-adv-x="448" 
d="M389 521q39 -36 39 -95q0 -44 -20 -78t-64 -65t-121 -67q-69 -32 -109 -60t-59 -56.5t-29 -64.5h322l-8 -35h-361q11 60 36 102.5t71 76.5t123 70q70 32 108.5 58t55 52.5t16.5 62.5q0 47 -28 73t-80 26q-57 0 -97 -33t-58 -92h-42q22 76 75 118.5t124 42.5q67 0 106 -36
z" />
    <glyph glyph-name="three.smcp" horiz-adv-x="448" 
d="M387.5 522q41.5 -35 41.5 -95q0 -50 -35 -91.5t-103 -59.5v-1q82 -29 83 -115q0 -39 -24 -78.5t-70 -65t-109 -25.5q-78 0 -119.5 33t-41.5 92q0 21 4 37h38q-4 -15 -4 -33q0 -46 31 -70t92 -24q52 0 89 20t56.5 51t19.5 63q0 49 -33 75t-94 26h-30l9 35h28q58 0 98 19.5
t59 49.5t19 61q0 44 -32 70t-88 26q-59 0 -99.5 -32.5t-56.5 -93.5h-38q17 76 70 118.5t126 42.5q72 0 113.5 -35z" />
    <glyph glyph-name="four.smcp" horiz-adv-x="448" 
d="M296 157l-39 -157h-37l39 157h-265l10 41l336 350h54l-89 -356h105l-8 -35h-106zM268 192l21 85q32 131 56 225h-1l-199 -206l-101 -104h224z" />
    <glyph glyph-name="five.smcp" horiz-adv-x="448" 
d="M181 513l-74 -211h2q22 25 54.5 39t68.5 14q70 0 109 -40t39 -112q0 -48 -25.5 -97.5t-75 -82t-117.5 -32.5t-106.5 31t-38.5 86q0 14 5 34h38q-4 -13 -4 -29q0 -41 29 -63.5t79 -22.5q56 0 96 27t60.5 67.5t20.5 79.5q0 57 -30 88t-85 31q-46 0 -83 -24t-61 -71l-37 2
l111 321h291l-9 -35h-257z" />
    <glyph glyph-name="six.smcp" horiz-adv-x="448" 
d="M403.5 524q35.5 -33 35.5 -91q0 -11 -1 -17h-38v10q0 95 -102 95q-69 0 -127 -63.5t-89 -187.5h2q25 39 66.5 62.5t89.5 23.5q69 0 108.5 -43t39.5 -117q0 -45 -24.5 -93t-71 -80t-108.5 -32q-151 0 -151 167q0 80 32 174t92.5 159.5t142.5 65.5q68 0 103.5 -33zM147 295
q-38 -25 -57.5 -64.5t-19.5 -80.5q0 -59 29.5 -91t85.5 -32q51 0 88.5 26.5t56.5 66t19 74.5q0 58 -29.5 92t-82.5 34q-52 0 -90 -25z" />
    <glyph glyph-name="seven.smcp" horiz-adv-x="448" 
d="M122 0h-46q80 165 166.5 289t179.5 224h-322l8 35h368l-9 -36q-210 -222 -345 -512z" />
    <glyph glyph-name="eight.smcp" horiz-adv-x="448" 
d="M393.5 521.5q41.5 -35.5 41.5 -94.5q0 -51 -37 -93.5t-99 -56.5v-1q37 -12 58.5 -43.5t21.5 -75.5q0 -40 -23.5 -78.5t-69 -63t-107.5 -24.5q-76 0 -120.5 38t-44.5 103q0 35 18 68t52 56.5t80 31.5v1q-34 16 -53 44.5t-19 66.5q0 37 23 73.5t66 60t101 23.5
q70 0 111.5 -35.5zM199 503q-34 -18 -51.5 -46t-17.5 -58q0 -46 30.5 -72.5t85.5 -26.5q49 0 83 18.5t50 47.5t16 59q0 44 -30.5 70t-84.5 26q-47 0 -81 -18zM128 246q-37 -20 -56 -50.5t-19 -62.5q0 -49 34 -77.5t93 -28.5q52 0 88.5 20t54.5 50.5t18 61.5q0 49 -33.5 78
t-92.5 29q-50 0 -87 -20z" />
    <glyph glyph-name="nine.smcp" horiz-adv-x="448" 
d="M54.5 24q-35.5 33 -35.5 91q0 11 1 17h38q-1 -4 -1 -10q0 -95 103 -95q69 0 127 63.5t88 187.5h-1q-25 -39 -67 -62.5t-90 -23.5q-69 0 -108 43t-39 117q0 45 24.5 93t71 80t107.5 32q75 0 113.5 -42t38.5 -125q0 -80 -32 -174t-92.5 -159.5t-142.5 -65.5
q-68 0 -103.5 33zM310.5 253q37.5 25 57 64.5t19.5 80.5q0 60 -29 91.5t-85 31.5q-51 0 -88.5 -26.5t-56.5 -66t-19 -74.5q0 -58 29.5 -92t81.5 -34q53 0 90.5 25z" />
    <glyph glyph-name="zero.lf.smcp" horiz-adv-x="477" 
d="M441 372q0 -78 -29 -167t-86.5 -151.5t-138.5 -62.5q-142 0 -142 185q0 78 28.5 167t85.5 151.5t137 62.5q145 0 145 -185zM179 463q-48 -58 -72 -138.5t-24 -146.5q0 -152 106 -152q68 0 116.5 57.5t72.5 138.5t24 147q0 152 -108 152q-67 0 -115 -58z" />
    <glyph glyph-name="one.lf.smcp" horiz-adv-x="276" 
d="M72 0l116 464h-2q-38 -40 -130 -40l8 33q62 -1 96.5 20t53.5 71h32l-136 -548h-38z" />
    <glyph glyph-name="two.lf.smcp" horiz-adv-x="461" 
d="M398 521q39 -36 39 -95q0 -44 -20 -78t-64 -65t-121 -67q-69 -32 -109 -60t-59 -56.5t-29 -64.5h322l-8 -35h-361q11 60 36 102.5t71 76.5t123 70q70 32 108.5 58t55 52.5t16.5 62.5q0 47 -28 73t-80 26q-57 0 -97 -33t-58 -92h-42q22 76 75 118.5t124 42.5q67 0 106 -36
z" />
    <glyph glyph-name="three.lf.smcp" horiz-adv-x="459" 
d="M391.5 522q41.5 -35 41.5 -95q0 -50 -35 -91.5t-103 -59.5v-1q82 -29 83 -115q0 -39 -24 -78.5t-70 -65t-109 -25.5q-78 0 -119.5 33t-41.5 92q0 21 4 37h38q-4 -15 -4 -33q0 -46 31 -70t92 -24q52 0 89 20t56.5 51t19.5 63q0 49 -33 75t-94 26h-30l9 35h28q58 0 98 19.5
t59 49.5t19 61q0 44 -32 70t-88 26q-59 0 -99.5 -32.5t-56.5 -93.5h-38q17 76 70 118.5t126 42.5q72 0 113.5 -35z" />
    <glyph glyph-name="four.lf.smcp" horiz-adv-x="436" 
d="M292 157l-39 -157h-37l39 157h-265l10 41l336 350h54l-89 -356h105l-8 -35h-106zM264 192l21 85q32 131 56 225h-1l-199 -206l-101 -104h224z" />
    <glyph glyph-name="five.lf.smcp" horiz-adv-x="456" 
d="M186 513l-74 -211h2q22 25 54.5 39t68.5 14q70 0 109 -40t39 -112q0 -48 -25.5 -97.5t-75 -82t-117.5 -32.5t-106.5 31t-38.5 86q0 14 5 34h38q-4 -13 -4 -29q0 -41 29 -63.5t79 -22.5q56 0 96 27t60.5 67.5t20.5 79.5q0 57 -30 88t-85 31q-46 0 -83 -24t-61 -71l-37 2
l111 321h291l-9 -35h-257z" />
    <glyph glyph-name="six.lf.smcp" horiz-adv-x="459" 
d="M410.5 524q35.5 -33 35.5 -91q0 -11 -1 -17h-38v10q0 95 -102 95q-69 0 -127 -63.5t-89 -187.5h2q25 39 66.5 62.5t89.5 23.5q69 0 108.5 -43t39.5 -117q0 -45 -24.5 -93t-71 -80t-108.5 -32q-151 0 -151 167q0 80 32 174t92.5 159.5t142.5 65.5q68 0 103.5 -33zM154 295
q-38 -25 -57.5 -64.5t-19.5 -80.5q0 -59 29.5 -91t85.5 -32q51 0 88.5 26.5t56.5 66t19 74.5q0 58 -29.5 92t-82.5 34q-52 0 -90 -25z" />
    <glyph glyph-name="seven.lf.smcp" horiz-adv-x="396" 
d="M101 0h-46q80 165 166.5 289t179.5 224h-322l8 35h368l-9 -36q-210 -222 -345 -512z" />
    <glyph glyph-name="eight.lf.smcp" horiz-adv-x="463" 
d="M401.5 521.5q41.5 -35.5 41.5 -94.5q0 -51 -37 -93.5t-99 -56.5v-1q37 -12 58.5 -43.5t21.5 -75.5q0 -40 -23.5 -78.5t-69 -63t-107.5 -24.5q-76 0 -120.5 38t-44.5 103q0 35 18 68t52 56.5t80 31.5v1q-34 16 -53 44.5t-19 66.5q0 37 23 73.5t66 60t101 23.5
q70 0 111.5 -35.5zM207 503q-34 -18 -51.5 -46t-17.5 -58q0 -46 30.5 -72.5t85.5 -26.5q49 0 83 18.5t50 47.5t16 59q0 44 -30.5 70t-84.5 26q-47 0 -81 -18zM136 246q-37 -20 -56 -50.5t-19 -62.5q0 -49 34 -77.5t93 -28.5q52 0 88.5 20t54.5 50.5t18 61.5q0 49 -33.5 78
t-92.5 29q-50 0 -87 -20z" />
    <glyph glyph-name="nine.lf.smcp" horiz-adv-x="459" 
d="M58.5 24q-35.5 33 -35.5 91q0 11 1 17h38q-1 -4 -1 -10q0 -95 103 -95q69 0 127 63.5t88 187.5h-1q-25 -39 -67 -62.5t-90 -23.5q-69 0 -108 43t-39 117q0 45 24.5 93t71 80t107.5 32q75 0 113.5 -42t38.5 -125q0 -80 -32 -174t-92.5 -159.5t-142.5 -65.5
q-68 0 -103.5 33zM314.5 253q37.5 25 57 64.5t19.5 80.5q0 60 -29 91.5t-85 31.5q-51 0 -88.5 -26.5t-56.5 -66t-19 -74.5q0 -58 29.5 -92t81.5 -34q53 0 90.5 25z" />
    <glyph glyph-name="periodcentered.case" horiz-adv-x="171" 
d="M77 316l19 79h49l-19 -79h-49z" />
    <glyph glyph-name="exclamdown.case" horiz-adv-x="223" 
d="M248 712l-20 -80h-45l20 80h45zM203 563l-131 -563h-47l149 563h29z" />
    <glyph glyph-name="periodcentered.loclCAT.case" horiz-adv-x="80" 
d="M-106 356l19 79h49l-19 -79h-49z" />
    <glyph glyph-name="questiondown.case" horiz-adv-x="483" 
d="M401 712l-19 -80h-46l20 80h45zM67 32q-48 43 -48 114q0 57 33.5 105t125.5 109q50 34 75.5 59t41.5 57.5t31 90.5h33q-16 -66 -32 -102.5t-43.5 -63.5t-83.5 -66q-59 -40 -89.5 -71t-41.5 -57.5t-11 -58.5q0 -56 38 -90t102 -34q70 0 121 41t73 118h38q-27 -94 -88 -144
t-146 -50q-81 0 -129 43z" />
    <glyph glyph-name="slash.case" horiz-adv-x="418" 
d="M-1 0l428 712h42l-428 -712h-42z" />
    <glyph glyph-name="periodcentered.loclCAT" horiz-adv-x="124" 
d="M52 315l19 79h49l-19 -79h-49z" />
    <glyph glyph-name="braceleft.case" horiz-adv-x="279" 
d="M286.5 717q-33.5 -26 -48.5 -86l-40 -162q-11 -46 -34.5 -71t-68.5 -38l-1 -2q27 -13 39 -32t12 -49q0 -23 -7 -50l-33 -131q-7 -27 -7 -51q0 -40 21 -58t67 -19l-6 -29h-7q-56 0 -83.5 25t-27.5 78q0 24 10 62l32 128q6 26 6 45q0 27 -11 42t-36 26l8 33q41 12 61.5 33
t31.5 64l40 160q18 71 58.5 104t106.5 33h18l-7 -29q-60 0 -93.5 -26z" />
    <glyph glyph-name="braceright.case" horiz-adv-x="279" 
d="M43.5 -5q33.5 26 48.5 86l40 162q11 46 34.5 71t68.5 38l1 2q-27 13 -39 32t-12 49q0 23 7 50l33 131q7 27 7 51q0 40 -21 58t-67 19l6 29h7q56 0 83.5 -25t27.5 -78q0 -24 -10 -62l-32 -128q-6 -25 -6 -45q0 -27 11 -42t36 -26l-8 -33q-41 -12 -61.5 -33t-31.5 -64
l-40 -160q-18 -71 -58.5 -104t-106.5 -33h-18l7 29q60 0 93.5 26z" />
    <glyph glyph-name="bracketleft.case" horiz-adv-x="258" 
d="M237 741l-192 -770h122l-7 -31h-158l207 831h158l-8 -30h-122z" />
    <glyph glyph-name="bracketright.case" horiz-adv-x="258" 
d="M71 -29l193 770h-122l7 30h158l-207 -831h-158l7 31h122z" />
    <glyph glyph-name="parenleft.case" horiz-adv-x="251" 
d="M164.5 489q-61.5 -150 -61.5 -291q0 -119 38 -258h-33q-43 139 -43 267q0 141 62.5 290.5t182.5 274.5h38q-122 -133 -183.5 -283z" />
    <glyph glyph-name="parenright.case" horiz-adv-x="251" 
d="M137 223.5q62 150.5 62 290.5q0 113 -38 258h32q44 -137 44 -267q0 -141 -62.5 -290.5t-182.5 -274.5h-39q122 133 184 283.5z" />
    </font>
</defs>
</svg>
