<?xml version="1.0" standalone="no"?>
<!DOCTYPE svg PUBLIC "-//W3C//DTD SVG 1.1//EN" "http://www.w3.org/Graphics/SVG/1.1/DTD/svg11.dtd" >
<svg xmlns="http://www.w3.org/2000/svg" xmlns:xlink="http://www.w3.org/1999/xlink" version="1.1">
<metadata>
Created by FontForge 20170731 at Thu Feb  5 13:05:20 2015
 By Aleksey,,,
Copyright (c) 2015 Monotype Imaging Inc.  All rights reserved.
</metadata>
<defs>
<font id="NeueHaasUnicaPro-BoldItalic" horiz-adv-x="600" >
  <font-face 
    font-family="Neue Haas Unica Pro"
    font-weight="700"
    font-style="italic"
    font-variant="small-caps"
    font-stretch="normal"
    units-per-em="1000"
    panose-1="2 11 8 4 3 2 6 9 2 3"
    ascent="764"
    descent="-236"
    x-height="508"
    cap-height="712"
    bbox="-219 -275 1075 966"
    underline-thickness="50"
    underline-position="-175"
    slope="-14"
    unicode-range="U+0020-FEFF"
  />
<missing-glyph horiz-adv-x="642" 
d="M589.5 740.5q36.5 -36.5 36.5 -98.5v-572q0 -62 -36.5 -98.5t-98.5 -36.5h-340q-62 0 -98.5 36.5t-36.5 98.5v572q0 62 36.5 98.5t98.5 36.5h340q62 0 98.5 -36.5zM99 694q-19 -19 -19 -52v-572q0 -33 19 -52t52 -19h340q33 0 52 19t19 52v572q0 33 -19 52t-52 19h-340
q-33 0 -52 -19zM455 606.5q48 -40.5 48 -110.5q0 -41 -15 -69.5t-57 -67.5q-40 -37 -52.5 -64t-12.5 -76h-102q-1 11 -1 31q0 55 13 85t54 72q30 30 38.5 46.5t8.5 40.5t-14 38t-40 14q-32 0 -47.5 -19t-16.5 -61h-125q1 88 50.5 134.5t138.5 46.5q84 0 132 -40.5zM251 65
v112h128v-112h-128z" />
    <glyph glyph-name="f_f" unicode="ff" horiz-adv-x="652" 
d="M756 710l-24 -97q-9 3 -23 3q-39 0 -62 -20t-35 -67l-5 -21h95l-26 -104h-95l-101 -404h-138l101 404h-173l-101 -404h-138l101 404h-85l26 104h85l14 58q19 77 70 115.5t130 38.5q39 0 73 -10l-24 -97q-9 3 -23 3q-39 0 -62 -20t-35 -67l-5 -21h173l14 58
q19 77 70 115.5t130 38.5q39 0 73 -10z" />
    <glyph glyph-name="f_f_i" unicode="ffi" horiz-adv-x="928" 
d="M756 710l-24 -97q-9 3 -23 3q-39 0 -62 -20t-35 -67l-5 -21h95l-26 -104h-95l-101 -404h-138l101 404h-173l-101 -404h-138l101 404h-85l26 104h85l14 58q19 77 70 115.5t130 38.5q39 0 73 -10l-24 -97q-9 3 -23 3q-39 0 -62 -20t-35 -67l-5 -21h173l14 58
q19 77 70 115.5t130 38.5q39 0 73 -10zM657 0l126 508h140l-126 -508h-140zM804 592l30 120h140l-30 -120h-140z" />
    <glyph glyph-name="f_f_l" unicode="ffl" horiz-adv-x="928" 
d="M756 710l-24 -97q-9 3 -23 3q-39 0 -62 -20t-35 -67l-5 -21h95l-26 -104h-95l-101 -404h-138l101 404h-173l-101 -404h-138l101 404h-85l26 104h85l14 58q19 77 70 115.5t130 38.5q39 0 73 -10l-24 -97q-9 3 -23 3q-39 0 -62 -20t-35 -67l-5 -21h173l14 58
q19 77 70 115.5t130 38.5q39 0 73 -10zM657 0l177 712h140l-177 -712h-140z" />
    <glyph glyph-name="f_i" unicode="fi" horiz-adv-x="617" 
d="M445 710l-24 -97q-9 3 -23 3q-39 0 -62 -20t-35 -67l-5 -21h95l-26 -104h-95l-101 -404h-138l101 404h-85l26 104h85l14 58q19 77 70 115.5t130 38.5q39 0 73 -10zM346 0l126 508h140l-126 -508h-140zM493 592l30 120h140l-30 -120h-140z" />
    <glyph glyph-name="f_l" unicode="fl" horiz-adv-x="617" 
d="M445 710l-24 -97q-9 3 -23 3q-39 0 -62 -20t-35 -67l-5 -21h95l-26 -104h-95l-101 -404h-138l101 404h-85l26 104h85l14 58q19 77 70 115.5t130 38.5q39 0 73 -10zM346 0l177 712h140l-177 -712h-140z" />
    <glyph glyph-name=".notdef" horiz-adv-x="642" 
d="M589.5 740.5q36.5 -36.5 36.5 -98.5v-572q0 -62 -36.5 -98.5t-98.5 -36.5h-340q-62 0 -98.5 36.5t-36.5 98.5v572q0 62 36.5 98.5t98.5 36.5h340q62 0 98.5 -36.5zM99 694q-19 -19 -19 -52v-572q0 -33 19 -52t52 -19h340q33 0 52 19t19 52v572q0 33 -19 52t-52 19h-340
q-33 0 -52 -19zM455 606.5q48 -40.5 48 -110.5q0 -41 -15 -69.5t-57 -67.5q-40 -37 -52.5 -64t-12.5 -76h-102q-1 11 -1 31q0 55 13 85t54 72q30 30 38.5 46.5t8.5 40.5t-14 38t-40 14q-32 0 -47.5 -19t-16.5 -61h-125q1 88 50.5 134.5t138.5 46.5q84 0 132 -40.5zM251 65
v112h128v-112h-128z" />
    <glyph glyph-name=".null" horiz-adv-x="0" 
 />
    <glyph glyph-name="nonmarkingreturn" horiz-adv-x="333" 
 />
    <glyph glyph-name="NULL" 
 />
    <glyph glyph-name="NULL" 
 />
    <glyph glyph-name="space" unicode=" " horiz-adv-x="230" 
 />
    <glyph glyph-name="exclam" unicode="!" horiz-adv-x="324" 
d="M94 198l97 514h170l-159 -514h-108zM22 0l33 132h154l-33 -132h-154z" />
    <glyph glyph-name="quotedbl" unicode="&#x22;" horiz-adv-x="436" 
d="M121 439l53 273h132l-83 -273h-102zM305 439l53 273h132l-83 -273h-102z" />
    <glyph glyph-name="numbersign" unicode="#" horiz-adv-x="672" 
d="M506 273h100l-41 -100h-99l-71 -173h-120l71 173h-111l-71 -173h-120l71 173h-100l41 100h99l53 129h-100l41 100h100l70 172h120l-70 -172h111l70 172h120l-70 -172h99l-41 -100h-99zM328 402l-53 -129h111l53 129h-111z" />
    <glyph glyph-name="dollar" unicode="$" 
d="M473 500q0 58 -52 78l-46 -185q56 -19 92 -39.5t58 -56t22 -90.5q0 -52 -31.5 -102.5t-93.5 -83.5t-149 -35l-21 -85h-81l22 90q-82 13 -126.5 57.5t-44.5 117.5q0 28 6 56h132q-5 -23 -5 -40q0 -66 65 -86l50 202q-79 28 -120.5 66t-41.5 111q0 49 30 97.5t89 81
t140 34.5l19 76h81l-20 -81q79 -12 118.5 -53.5t39.5 -110.5q0 -28 -7 -53h-129q4 15 4 34zM253.5 453q14.5 -17 46.5 -32l42 165q-46 -6 -74.5 -31.5t-28.5 -59.5q0 -25 14.5 -42zM396.5 238q-16.5 18 -52.5 33l-45 -182q56 5 85 34.5t29 65.5q0 31 -16.5 49z" />
    <glyph glyph-name="percent" unicode="%" horiz-adv-x="909" 
d="M154 -30l560 734h82l-560 -734h-82zM403.5 653.5q35.5 -36.5 35.5 -105.5q0 -59 -23 -118t-68 -97.5t-108 -38.5q-69 0 -105 36.5t-36 106.5q0 59 23 117.5t68 97t109 38.5q69 0 104.5 -36.5zM246 580.5q-20 -29.5 -30 -70t-10 -72.5q0 -64 38 -64q29 0 49 30t30 70.5
t10 72.5q0 63 -38 63q-29 0 -49 -29.5zM815.5 343.5q35.5 -36.5 35.5 -105.5q0 -59 -23 -118t-68 -97.5t-108 -38.5q-69 0 -105 36.5t-36 106.5q0 59 23 117.5t68 97t109 38.5q69 0 104.5 -36.5zM658 270.5q-20 -29.5 -30 -70t-10 -72.5q0 -64 38 -64q29 0 49 30t30 70.5
t10 72.5q0 63 -38 63q-29 0 -49 -29.5z" />
    <glyph glyph-name="ampersand" unicode="&#x26;" horiz-adv-x="753" 
d="M587 143l107 -143h-170l-45 60q-42 -36 -102.5 -56t-121.5 -20q-111 0 -169 48.5t-58 135.5q0 73 50.5 137t156.5 100q-23 36 -33 66t-10 64q0 47 26 91.5t77.5 73t123.5 28.5q83 0 129.5 -41.5t46.5 -113.5q0 -122 -174 -208l92 -123q47 54 75 160h139
q-42 -158 -140 -259zM348 590.5q-20 -23.5 -20 -53.5q0 -20 7.5 -40t25.5 -53q53 30 76.5 61t23.5 56t-15.5 39t-42.5 14q-35 0 -55 -23.5zM414 146l-126 167q-61 -28 -85.5 -59.5t-24.5 -66.5q0 -37 29 -60t83 -23q62 0 124 42z" />
    <glyph glyph-name="quotesingle" unicode="'" horiz-adv-x="252" 
d="M121 439l53 273h132l-83 -273h-102z" />
    <glyph glyph-name="parenleft" unicode="(" horiz-adv-x="328" 
d="M239 418q-59 -163 -59 -315q0 -120 18 -250h-111q-49 147 -49 301q0 147 65 299t197 288h119q-121 -160 -180 -323z" />
    <glyph glyph-name="parenright" unicode=")" horiz-adv-x="328" 
d="M110 176q59 163 59 315q0 120 -18 250h111q49 -147 49 -301q0 -147 -65 -299t-197 -288h-119q121 160 180 323z" />
    <glyph glyph-name="asterisk" unicode="*" horiz-adv-x="426" 
d="M460 596l6 -100l-135 6l65 -118l-92 -37l-36 130l-92 -98l-64 76l113 74l-122 57l52 86l106 -85l17 134l97 -24l-48 -127z" />
    <glyph glyph-name="plus" unicode="+" horiz-adv-x="566" 
d="M502 371v-109h-165v-165h-108v165h-165v109h165v165h108v-165h165z" />
    <glyph glyph-name="comma" unicode="," horiz-adv-x="258" 
d="M26 -172h-84l98 172h-51l41 167h154l-41 -167z" />
    <glyph glyph-name="hyphen" unicode="-" horiz-adv-x="320" 
d="M26 237l27 110h260l-27 -110h-260z" />
    <glyph glyph-name="period" unicode="." horiz-adv-x="258" 
d="M-11 0l41 167h154l-41 -167h-154z" />
    <glyph glyph-name="slash" unicode="/" horiz-adv-x="494" 
d="M-56 -89l503 834h118l-503 -834h-118z" />
    <glyph glyph-name="zero" unicode="0" 
d="M543.5 625.5q54.5 -64.5 54.5 -186.5q0 -100 -38.5 -206t-115 -177.5t-184.5 -71.5q-107 0 -161.5 64t-54.5 186q0 100 38.5 206.5t115 178t184.5 71.5q107 0 161.5 -64.5zM275 510q-41 -59 -62.5 -139t-21.5 -138q0 -130 78 -130q57 0 98 59t62.5 139t21.5 138
q0 63 -20 96.5t-59 33.5q-56 0 -97 -59z" />
    <glyph glyph-name="one" unicode="1" 
d="M196 0l114 457h-163l25 102q85 0 133.5 27t71.5 88h131l-168 -674h-144z" />
    <glyph glyph-name="two" unicode="2" 
d="M538 643q56 -47 56 -128q0 -78 -54 -140t-171 -121q-67 -34 -103 -56.5t-52 -40t-23 -39.5h325l-28 -118h-505q15 83 47.5 141t88.5 103t148 91q67 34 105 60t54.5 51.5t16.5 56.5q0 32 -18.5 50t-53.5 18q-91 0 -119 -108h-145q27 110 99.5 168.5t177.5 58.5
q98 0 154 -47z" />
    <glyph glyph-name="three" unicode="3" 
d="M542.5 644.5q56.5 -45.5 56.5 -126.5q0 -60 -37.5 -107t-120.5 -73v-2q90 -37 90 -134q0 -53 -30.5 -103t-91 -82.5t-146.5 -32.5q-113 0 -172.5 47.5t-59.5 137.5q0 21 5 51h144q-5 -25 -5 -40q0 -77 94 -77q36 0 63 15t41.5 38t14.5 45q0 78 -112 78h-20l28 116h19
q51 0 85 16t50 40.5t16 49.5q0 33 -22 51.5t-61 18.5q-95 0 -123 -111h-145q26 109 99.5 169.5t181.5 60.5q102 0 158.5 -45.5z" />
    <glyph glyph-name="four" unicode="4" 
d="M581 264l-28 -113h-94l-38 -151h-144l38 151h-327l33 131l367 392h201l-102 -410h94zM346 264l20 82q37 139 62 215h-2q-101 -118 -182 -203l-91 -94h193z" />
    <glyph glyph-name="five" unicode="5" 
d="M284 557l-52 -145h2q51 37 120 37q89 0 140 -52t51 -141q0 -62 -35.5 -125.5t-104 -105t-161.5 -41.5q-101 0 -158.5 42.5t-57.5 118.5q0 21 4 40h145q-2 -7 -2 -19q0 -31 24 -47.5t63 -16.5q45 0 74.5 22.5t43.5 55.5t14 66q0 43 -23 65.5t-65 22.5q-35 0 -63 -19
t-43 -51l-140 9l138 401h424l-29 -117h-309z" />
    <glyph glyph-name="six" unicode="6" 
d="M552.5 643.5q54.5 -46.5 54.5 -130.5q0 -15 -1 -23h-145l1 12q0 70 -73 70q-52 0 -97.5 -44t-73.5 -135h2q64 47 143 47q86 0 136 -53.5t50 -144.5q0 -58 -33.5 -118t-97.5 -100t-149 -40q-104 0 -158.5 60t-54.5 178q0 100 40 209.5t117.5 184t184.5 74.5
q100 0 154.5 -46.5zM252 310q-28 -21 -42.5 -53t-14.5 -63q0 -43 20.5 -67.5t59.5 -24.5q38 0 66 20.5t42.5 51t14.5 60.5q0 46 -20 71.5t-59 25.5t-67 -21z" />
    <glyph glyph-name="seven" unicode="7" 
d="M429 299.5q-90 -143.5 -154 -299.5h-167q76 173 173.5 319t186.5 233h-352l30 122h501l-29 -124q-99 -107 -189 -250.5z" />
    <glyph glyph-name="eight" unicode="8" 
d="M543.5 643q59.5 -47 59.5 -127q0 -60 -42.5 -110.5t-118.5 -66.5v-2q44 -19 69 -57t25 -89q0 -50 -31.5 -97.5t-94 -78.5t-150.5 -31q-108 0 -169 51t-61 141q0 40 20 78t60 67t97 40v2q-40 19 -62 53.5t-22 79.5t31 90t90 74.5t139 29.5q101 0 160.5 -47zM308 559
q-26 -14 -39 -35.5t-13 -43.5q0 -37 23.5 -56.5t67.5 -19.5q37 0 63 15t38.5 36.5t12.5 41.5q0 36 -23.5 56t-66.5 20q-37 0 -63 -14zM231 272.5q-28 -16.5 -42 -41.5t-14 -49q0 -37 25.5 -58t71.5 -21q40 0 69 16t43 40.5t14 48.5q0 38 -26 59.5t-73 21.5q-40 0 -68 -16.5z
" />
    <glyph glyph-name="nine" unicode="9" 
d="M68.5 30.5q-54.5 46.5 -54.5 130.5q0 15 1 23h145l-1 -12q0 -70 73 -70q52 0 97.5 44t73.5 135h-2q-64 -47 -143 -47q-86 0 -136 53.5t-50 144.5q0 58 33.5 118t97.5 100t149 40q104 0 158.5 -60t54.5 -178q0 -100 -40 -209.5t-117.5 -184t-184.5 -74.5
q-100 0 -154.5 46.5zM369 364q28 21 42.5 53t14.5 63q0 43 -20.5 67.5t-59.5 24.5q-38 0 -66 -20.5t-42.5 -51t-14.5 -60.5q0 -46 20 -71.5t59 -25.5t67 21z" />
    <glyph glyph-name="colon" unicode=":" horiz-adv-x="258" 
d="M-11 0l41 167h154l-41 -167h-154zM74 341l41 167h154l-41 -167h-154z" />
    <glyph glyph-name="semicolon" unicode=";" horiz-adv-x="258" 
d="M26 -172h-84l98 172h-51l41 167h154l-41 -167zM74 341l41 167h154l-41 -167h-154z" />
    <glyph glyph-name="less" unicode="&#x3c;" horiz-adv-x="566" 
d="M193 318v-2l309 -123v-118l-438 181v122l438 181v-118z" />
    <glyph glyph-name="equal" unicode="=" horiz-adv-x="566" 
d="M64 357v109h438v-109h-438zM64 167v109h438v-109h-438z" />
    <glyph glyph-name="greater" unicode="&#x3e;" horiz-adv-x="566" 
d="M502 256l-438 -181v118l309 123v2l-309 123v118l438 -181v-122z" />
    <glyph glyph-name="question" unicode="?" horiz-adv-x="547" 
d="M520.5 680q57.5 -47 57.5 -132q0 -53 -30 -97t-112 -99q-44 -30 -67.5 -51.5t-37.5 -47t-25 -67.5h-119q13 63 28.5 99t41.5 64t77 65q62 45 81 72.5t19 56.5q0 30 -20 46.5t-59 16.5q-45 0 -74 -24.5t-42 -76.5h-146q26 109 94.5 165.5t170.5 56.5q105 0 162.5 -47z
M122 0l33 132h154l-33 -132h-154z" />
    <glyph glyph-name="at" unicode="@" horiz-adv-x="872" 
d="M693.5 666q79.5 -38 121.5 -108.5t42 -167.5q0 -80 -32.5 -154t-92 -120.5t-137.5 -46.5q-50 0 -76.5 21t-26.5 62h-2q-59 -83 -142 -83q-60 0 -92 40t-32 116q0 60 31 129t86 116.5t124 47.5q86 0 101 -80h2q16 40 31 70h111q-48 -106 -82 -196.5t-34 -118.5
q0 -17 8 -24.5t25 -7.5q45 0 78 35t50 88t17 103q0 108 -72.5 170t-200.5 62q-119 0 -203.5 -62t-126.5 -154t-42 -178q0 -122 64.5 -189.5t180.5 -67.5q130 0 231 53l30 -76q-114 -62 -253 -62q-160 0 -249 88.5t-89 248.5q0 108 55 220.5t160 188t246 75.5
q111 0 190.5 -38zM406 385.5q-29 -29.5 -45.5 -71.5t-16.5 -75q0 -32 13 -49t38 -17q34 0 63 31t45.5 73.5t16.5 73.5t-12.5 47.5t-37.5 16.5q-35 0 -64 -29.5z" />
    <glyph glyph-name="A" unicode="A" horiz-adv-x="698" 
d="M203 174l-99 -174h-164l424 712h198l70 -712h-144l-12 174h-273zM464 347q-10 160 -13 278h-2q-70 -140 -148 -278l-27 -47h193z" />
    <glyph glyph-name="B" unicode="B" horiz-adv-x="650" 
d="M608.5 670q58.5 -42 58.5 -116q0 -64 -39 -117t-129 -78v-2q54 -13 77.5 -46.5t23.5 -87.5q0 -55 -31 -106.5t-95 -84t-157 -32.5h-298l177 712h236q118 0 176.5 -42zM270 419h114q74 0 104.5 28t30.5 72q0 38 -25.5 55.5t-79.5 17.5h-101zM196 121h119q77 0 108 29
t31 77q0 41 -25.5 58.5t-82.5 17.5h-105z" />
    <glyph glyph-name="C" unicode="C" horiz-adv-x="702" 
d="M589 699q58 -29 89 -81.5t31 -122.5q0 -24 -4 -44h-148q2 18 2 28q0 56 -31.5 87.5t-87.5 31.5q-72 0 -124.5 -49t-79 -122.5t-26.5 -144.5q0 -77 33 -122.5t97 -45.5q55 0 101 32.5t68 89.5h151q-37 -119 -125.5 -185.5t-207.5 -66.5q-128 0 -198.5 77.5t-70.5 210.5
q0 107 45 212.5t134.5 174.5t215.5 69q78 0 136 -29z" />
    <glyph glyph-name="D" unicode="D" horiz-adv-x="734" 
d="M637 633.5q86 -78.5 86 -227.5q0 -99 -47.5 -192.5t-146.5 -153.5t-243 -60h-267l177 712h187q168 0 254 -78.5zM196 126h99q96 0 158 41t90 102.5t28 127.5q0 95 -48 142t-147 47h-65z" />
    <glyph glyph-name="E" unicode="E" horiz-adv-x="633" 
d="M312 586l-40 -161h322l-32 -125h-322l-43 -174h354l-31 -126h-501l177 712h492l-31 -126h-345z" />
    <glyph glyph-name="F" unicode="F" horiz-adv-x="584" 
d="M312 586l-49 -194h303l-31 -126h-303l-66 -266h-147l177 712h475l-31 -126h-328z" />
    <glyph glyph-name="G" unicode="G" horiz-adv-x="744" 
d="M663 669.5q67 -58.5 67 -161.5q0 -16 -3 -34h-158q1 5 1 14q0 53 -30.5 81.5t-86.5 28.5q-77 0 -132.5 -49t-84 -124.5t-28.5 -151.5q0 -80 34 -125.5t102 -45.5q66 0 117.5 41t70.5 112h-169l30 120h306l-93 -375h-124l15 61h-2q-36 -35 -86.5 -55t-108.5 -20
q-114 0 -178 76t-64 205q0 111 48 217.5t142 175t226 68.5q122 0 189 -58.5z" />
    <glyph glyph-name="H" unicode="H" horiz-adv-x="750" 
d="M458 0l76 307h-292l-76 -307h-147l177 712h147l-69 -279h292l69 279h147l-177 -712h-147z" />
    <glyph glyph-name="I" unicode="I" horiz-adv-x="311" 
d="M19 0l177 712h147l-177 -712h-147z" />
    <glyph glyph-name="J" unicode="J" horiz-adv-x="392" 
d="M209 46q-67 -53 -184 -53q-41 0 -73 10l31 123q22 -5 40 -5q40 0 67 12t47 43.5t34 89.5l111 446h147l-125 -501q-28 -112 -95 -165z" />
    <glyph glyph-name="K" unicode="K" horiz-adv-x="663" 
d="M596 0h-171l-171 348h-2l-86 -348h-147l177 712h147l-75 -301h2l292 301h188l-357 -345z" />
    <glyph glyph-name="L" unicode="L" horiz-adv-x="575" 
d="M533 126l-31 -126h-483l177 712h147l-146 -586h336z" />
    <glyph glyph-name="M" unicode="M" horiz-adv-x="984" 
d="M698 0l88 354q35 142 73 267h-2q-72 -139 -142 -262l-202 -359h-168l-24 359q-9 150 -10 262h-2q-32 -148 -61 -267l-88 -354h-141l177 712h227l22 -327q9 -158 8 -262h2q64 142 132 262l184 327h245l-177 -712h-141z" />
    <glyph glyph-name="N" unicode="N" horiz-adv-x="776" 
d="M434 0l-72 289q-38 155 -66 294h-2q-33 -177 -66 -309l-68 -274h-141l177 712h197l72 -289q27 -112 66 -294h2q27 154 66 309l68 274h141l-177 -712h-197z" />
    <glyph glyph-name="O" unicode="O" horiz-adv-x="748" 
d="M604.5 691q65.5 -37 99.5 -105.5t34 -161.5q0 -105 -45 -206.5t-132.5 -167.5t-210.5 -66q-137 0 -213 81.5t-76 222.5q0 105 44.5 207t132 167.5t210.5 65.5q91 0 156.5 -37zM316 550.5q-53 -47.5 -80 -119.5t-27 -142q0 -82 38.5 -128.5t108.5 -46.5q73 0 126 48
t80.5 120t27.5 142q0 81 -38.5 127.5t-109.5 46.5q-73 0 -126 -47.5z" />
    <glyph glyph-name="P" unicode="P" horiz-adv-x="636" 
d="M604 657.5q63 -54.5 63 -153.5q0 -60 -30.5 -118t-95 -96t-160.5 -38h-152l-63 -252h-147l177 712h219q126 0 189 -54.5zM259 374h122q70 0 103 35t33 82q0 99 -112 99h-92z" />
    <glyph glyph-name="Q" unicode="Q" horiz-adv-x="748" 
d="M700.5 235.5q-39.5 -97.5 -113.5 -162.5l56 -88l-91 -58l-56 88q-70 -31 -152 -31q-135 0 -210 79.5t-75 216.5q0 107 45.5 210.5t135 170.5t214.5 67q90 0 154.5 -36.5t98 -103t33.5 -156.5q0 -99 -39.5 -196.5zM429 119l-77 121l91 58l72 -113q39 46 60 110.5t21 125.5
q0 83 -39.5 130t-110.5 47q-74 0 -128 -48.5t-81.5 -121.5t-27.5 -144q0 -83 39 -130.5t110 -47.5q35 0 71 13z" />
    <glyph glyph-name="R" unicode="R" horiz-adv-x="666" 
d="M615 668.5q55 -43.5 55 -126.5q0 -46 -20 -89.5t-60 -76.5t-98 -47v-2q31 -13 46.5 -42.5t24.5 -94.5l26 -190h-152l-19 169q-7 58 -29.5 80.5t-74.5 22.5h-81l-67 -272h-147l177 712h252q112 0 167 -43.5zM263 389h114q71 0 104.5 36t33.5 81q0 87 -95 87h-106z" />
    <glyph glyph-name="S" unicode="S" horiz-adv-x="630" 
d="M639 547q0 -23 -8 -53h-149q3 15 3 29q0 43 -27.5 65.5t-80.5 22.5q-50 0 -84 -24.5t-34 -61.5q0 -34 29 -54.5t100 -43.5q63 -21 102.5 -43t64.5 -61.5t25 -103.5q0 -56 -35 -110.5t-103.5 -89.5t-162.5 -35q-125 0 -194 50t-69 144q0 28 7 56h152q-4 -17 -4 -36
q0 -95 125 -95q42 0 71 14.5t43 36t14 43.5q0 28 -13 45t-36.5 28.5t-70.5 28.5q-67 23 -106.5 44t-66 59.5t-26.5 101.5q0 53 34 105t100 85.5t156 33.5q244 0 244 -181z" />
    <glyph glyph-name="T" unicode="T" horiz-adv-x="615" 
d="M464 586l-146 -586h-147l146 586h-224l31 126h595l-31 -126h-224z" />
    <glyph glyph-name="U" unicode="U" horiz-adv-x="718" 
d="M524.5 47.5q-81.5 -63.5 -202.5 -63.5q-118 0 -181.5 60t-63.5 172q0 45 13 97l100 399h147l-105 -423q-9 -36 -9 -64q0 -55 28 -83t83 -28q62 0 104 39t60 112l111 447h147l-120 -482q-30 -119 -111.5 -182.5z" />
    <glyph glyph-name="V" unicode="V" horiz-adv-x="638" 
d="M164 0l-44 712h140l16 -277q8 -122 8 -230l-1 -61h2q70 153 147 291l154 277h160l-398 -712h-184z" />
    <glyph glyph-name="W" unicode="W" horiz-adv-x="956" 
d="M544 0l4 282q1 145 14 305h-2q-56 -136 -138 -305l-136 -282h-191l28 712h137l-13 -259q-7 -143 -25 -308h2q54 126 142 308l126 259h186l-2 -259q-2 -157 -12 -308h2q48 125 129 308l115 259h151l-326 -712h-191z" />
    <glyph glyph-name="X" unicode="X" horiz-adv-x="630" 
d="M564 0h-156l-83 245h-2l-197 -245h-186l319 369l-131 343h153l77 -239h2l187 239h183l-305 -357z" />
    <glyph glyph-name="Y" unicode="Y" horiz-adv-x="638" 
d="M329 0h-147l69 277l-135 435h149l35 -134q22 -86 39 -181h2q57 90 127 181l101 134h180l-351 -435z" />
    <glyph glyph-name="Z" unicode="Z" horiz-adv-x="582" 
d="M169 126v-2h361l-31 -124h-542l34 137l456 449v2h-328l31 124h509l-34 -137z" />
    <glyph glyph-name="bracketleft" unicode="[" horiz-adv-x="329" 
d="M303 660l-181 -728h112l-20 -81h-244l221 890h244l-20 -81h-112z" />
    <glyph glyph-name="backslash" unicode="\" horiz-adv-x="488" 
d="M351 -89h-104l-95 834h104z" />
    <glyph glyph-name="bracketright" unicode="]" horiz-adv-x="329" 
d="M47 -68l181 728h-112l20 81h244l-221 -890h-244l20 81h112z" />
    <glyph glyph-name="asciicircum" unicode="^" horiz-adv-x="496" 
d="M359 371l-110 231h-2l-110 -231h-129l166 341h148l166 -341h-129z" />
    <glyph glyph-name="underscore" unicode="_" horiz-adv-x="500" 
d="M-95 -126l19 76h500l-19 -76h-500z" />
    <glyph glyph-name="grave" unicode="`" horiz-adv-x="351" 
d="M379 566h-104l-110 146h167z" />
    <glyph glyph-name="a" unicode="a" horiz-adv-x="547" 
d="M506 366q0 -31 -9 -67l-40 -160q-22 -90 -21 -139h-122q0 31 8 59h-2q-72 -71 -171 -71q-73 0 -112.5 36.5t-39.5 98.5q0 65 52.5 113.5t178.5 67.5q71 10 138 14l3 12q5 20 5 33q0 32 -19 47.5t-53 15.5q-37 0 -62 -20.5t-33 -56.5h-136q17 76 80 125.5t160 49.5
q195 0 195 -158zM240 222q-98 -16 -98 -80q0 -25 16.5 -39.5t47.5 -14.5q51 0 84 29t47 84l8 32q-59 -4 -105 -11z" />
    <glyph glyph-name="b" unicode="b" horiz-adv-x="598" 
d="M263 466q28 27 62 41t68 14q84 0 130 -52.5t46 -145.5q0 -75 -33 -153.5t-95.5 -130.5t-146.5 -52q-47 0 -83 22.5t-50 63.5h-2l-18 -73h-136l178 712h140l-62 -246h2zM263 381.5q-32 -32.5 -49 -80.5t-17 -95q0 -53 21.5 -82.5t60.5 -29.5q44 0 76 32.5t49 80.5t17 95
q0 53 -21.5 82.5t-60.5 29.5q-44 0 -76 -32.5z" />
    <glyph glyph-name="c" unicode="c" horiz-adv-x="562" 
d="M487 472.5q57 -51.5 57 -136.5q0 -18 -2 -27h-146q2 10 2 19q0 41 -20 64.5t-56 23.5q-45 0 -78 -34.5t-50.5 -83.5t-17.5 -90q0 -55 21.5 -85.5t62.5 -30.5q37 0 67.5 26t43.5 71h147q-29 -93 -101.5 -149t-164.5 -56q-103 0 -161 59t-58 164q0 72 34 145.5t101.5 122.5
t161.5 49q100 0 157 -51.5z" />
    <glyph glyph-name="d" unicode="d" horiz-adv-x="596" 
d="M329 0l12 46h-2q-29 -28 -64.5 -43.5t-70.5 -15.5q-84 0 -130 52.5t-46 145.5q0 75 33 153.5t95.5 130.5t146.5 52q46 0 80.5 -20.5t50.5 -57.5h2l66 269h140l-177 -712h-136zM242 381.5q-32 -32.5 -49 -80.5t-17 -95q0 -53 21.5 -82.5t60.5 -29.5q44 0 76 32.5t49 80.5
t17 95q0 53 -21.5 82.5t-60.5 29.5q-44 0 -76 -32.5z" />
    <glyph glyph-name="e" unicode="e" horiz-adv-x="573" 
d="M163 182q0 -51 25.5 -75t66.5 -24q38 0 67.5 20t40.5 51h143q-31 -73 -101 -121.5t-158 -48.5q-106 0 -161 57t-55 158q0 74 34.5 149.5t102 125.5t160.5 50q105 0 160 -55.5t55 -151.5q0 -40 -12 -92h-364q-4 -21 -4 -43zM243.5 397q-34.5 -28 -54.5 -84h222q2 16 2 22
q0 45 -25.5 67.5t-67.5 22.5t-76.5 -28z" />
    <glyph glyph-name="f" unicode="f" horiz-adv-x="341" 
d="M445 710l-24 -97q-9 3 -23 3q-39 0 -62 -20t-35 -67l-5 -21h95l-26 -104h-95l-101 -404h-138l101 404h-85l26 104h85l14 58q19 77 70 115.5t130 38.5q39 0 73 -10z" />
    <glyph glyph-name="g" unicode="g" horiz-adv-x="591" 
d="M381.5 497.5q35.5 -24.5 51.5 -65.5h2l19 76h132l-126 -508q-24 -96 -95.5 -145t-174.5 -49t-155 35t-52 100q0 12 3 27h136q-1 -4 -1 -12q0 -24 20 -37t57 -13q49 0 82 26t49 89l9 37h-2q-31 -27 -64 -39.5t-71 -12.5q-80 0 -124 53.5t-44 148.5q0 70 31 143t90 122
t138 49q54 0 89.5 -24.5zM241 378q-29 -29 -44.5 -70.5t-15.5 -78.5q0 -50 21.5 -79t59.5 -29q41 0 71.5 28t46 69t15.5 80q0 51 -23 80t-63 29q-39 0 -68 -29z" />
    <glyph glyph-name="h" unicode="h" 
d="M261 461q64 59 142 59q73 0 114 -38.5t41 -111.5q0 -34 -10 -73l-74 -297h-140l73 294q7 28 7 52q0 64 -67 64q-45 0 -81 -35.5t-53 -102.5l-68 -272h-140l177 712h140l-63 -251h2z" />
    <glyph glyph-name="i" unicode="i" horiz-adv-x="276" 
d="M5 0l126 508h140l-126 -508h-140zM152 592l30 120h140l-30 -120h-140z" />
    <glyph glyph-name="j" unicode="j" horiz-adv-x="278" 
d="M64.5 -150.5q-54.5 -39.5 -130.5 -39.5q-43 0 -75 9l25 100q11 -3 23 -3q41 0 65.5 22.5t38.5 79.5l122 490h140l-133 -535q-21 -84 -75.5 -123.5zM154 592l30 120h140l-30 -120h-140z" />
    <glyph glyph-name="k" unicode="k" horiz-adv-x="543" 
d="M490 0h-153l-129 244h-2l-61 -244h-140l177 712h140l-100 -403h2l193 199h178l-253 -245z" />
    <glyph glyph-name="l" unicode="l" horiz-adv-x="276" 
d="M5 0l177 712h140l-177 -712h-140z" />
    <glyph glyph-name="m" unicode="m" horiz-adv-x="897" 
d="M817.5 483q38.5 -37 38.5 -109q0 -31 -11 -77l-74 -297h-140l74 298q7 27 7 49q0 63 -59 63q-45 0 -78.5 -38.5t-51.5 -110.5l-65 -261h-140l76 307q6 22 6 41q0 62 -60 62q-46 0 -79.5 -38.5t-50.5 -110.5l-65 -261h-140l126 508h132l-12 -51h2q33 32 67.5 47.5
t75.5 15.5q55 0 89 -23t45 -67q40 45 82.5 67.5t96.5 22.5q70 0 108.5 -37z" />
    <glyph glyph-name="n" unicode="n" 
d="M517.5 481.5q40.5 -38.5 40.5 -111.5q0 -34 -10 -73l-74 -297h-140l73 294q7 28 7 52q0 64 -67 64q-45 0 -81 -35.5t-53 -102.5l-68 -272h-140l127 508h131l-14 -56h2q32 32 71 50t81 18q74 0 114.5 -38.5z" />
    <glyph glyph-name="o" unicode="o" horiz-adv-x="590" 
d="M499 465q58 -59 58 -165q0 -73 -35 -146t-103.5 -121.5t-162.5 -48.5q-108 0 -165.5 59t-57.5 165q0 72 35 145.5t103 122t161 48.5q109 0 167 -59zM241.5 382.5q-32.5 -33.5 -48.5 -81.5t-16 -92q0 -56 23 -86.5t68 -30.5q47 0 79.5 33.5t48.5 81.5t16 92q0 56 -23 86.5
t-68 30.5q-47 0 -79.5 -33.5z" />
    <glyph glyph-name="p" unicode="p" horiz-adv-x="598" 
d="M523 468.5q46 -52.5 46 -145.5q0 -75 -33 -153.5t-95.5 -130.5t-146.5 -52q-46 0 -80.5 20.5t-50.5 57.5h-2l-62 -250h-140l173 693h136l-12 -46h2q29 28 64.5 43.5t70.5 15.5q84 0 130 -52.5zM263 381.5q-32 -32.5 -49 -80.5t-17 -95q0 -53 21.5 -82.5t60.5 -29.5
q44 0 76 32.5t49 80.5t17 95q0 53 -21.5 82.5t-60.5 29.5q-44 0 -76 -32.5z" />
    <glyph glyph-name="q" unicode="q" horiz-adv-x="597" 
d="M386 498.5q36 -22.5 50 -63.5h2l18 73h136l-172 -693h-140l56 227h-2q-28 -27 -62 -41t-68 -14q-84 0 -130 52.5t-46 145.5q0 75 33 153.5t95.5 130.5t146.5 52q47 0 83 -22.5zM242 381.5q-32 -32.5 -49 -80.5t-17 -95q0 -53 21.5 -82.5t60.5 -29.5q44 0 76 32.5t49 80.5
t17 95q0 53 -21.5 82.5t-60.5 29.5q-44 0 -76 -32.5z" />
    <glyph glyph-name="r" unicode="r" horiz-adv-x="392" 
d="M448 510l-30 -121q-27 5 -43 5q-65 0 -108.5 -39.5t-61.5 -114.5l-60 -240h-140l126 508h129l-16 -65h2q36 37 74.5 55t82.5 18q25 0 45 -6z" />
    <glyph glyph-name="s" unicode="s" horiz-adv-x="524" 
d="M447.5 488.5q49.5 -35.5 49.5 -104.5q0 -15 -3 -32h-133q2 14 2 21q0 53 -70 53q-38 0 -56 -15t-18 -35q0 -21 19 -34t73 -32q48 -16 77.5 -31t50 -44.5t20.5 -77.5q0 -44 -27 -84t-81.5 -64.5t-132.5 -24.5q-100 0 -154.5 36.5t-54.5 108.5q0 20 5 36h141q-3 -12 -3 -22
q0 -28 19.5 -43t58.5 -15q38 0 59 15t21 40q0 26 -21.5 40t-76.5 33q-46 16 -72 29.5t-44.5 41t-18.5 74.5q0 42 26 80t77.5 62t124.5 24q93 0 142.5 -35.5z" />
    <glyph glyph-name="t" unicode="t" horiz-adv-x="357" 
d="M209 155q0 -27 12.5 -38.5t41.5 -11.5q15 0 33 4l-28 -109q-25 -7 -55 -7q-77 0 -113 30t-36 97q0 30 11 74l52 210h-82l26 104h82l33 132h140l-33 -132h97l-26 -104h-97l-53 -213q-5 -23 -5 -36z" />
    <glyph glyph-name="u" unicode="u" 
d="M82.5 26.5q-40.5 38.5 -40.5 111.5q0 34 10 73l74 297h140l-73 -294q-7 -28 -7 -52q0 -64 67 -64q45 0 81 35.5t53 102.5l68 272h140l-127 -508h-131l14 56h-2q-32 -32 -71 -50t-81 -18q-74 0 -114.5 38.5z" />
    <glyph glyph-name="v" unicode="v" horiz-adv-x="510" 
d="M100 0l-44 508h137l9 -200q4 -118 4 -181v-39h2q52 117 108 220l109 200h155l-298 -508h-182z" />
    <glyph glyph-name="w" unicode="w" horiz-adv-x="810" 
d="M430 0l5 200q3 109 9 217h-2q-44 -115 -93 -217l-95 -200h-200l14 508h133l-11 -196q-8 -151 -15 -221h2q45 113 95 219l94 198h192l-4 -198q-1 -109 -9 -219h2q41 114 89 221l87 196h145l-238 -508h-200z" />
    <glyph glyph-name="x" unicode="x" horiz-adv-x="508" 
d="M451 0h-148l-60 166h-2l-132 -166h-178l244 267l-107 241h146l57 -143h2l117 143h176l-229 -253z" />
    <glyph glyph-name="y" unicode="y" horiz-adv-x="504" 
d="M179 -115.5q-42 -40.5 -90 -58t-113 -17.5q-39 0 -71 8l28 112q21 -8 52 -8q53 0 85 31.5t32 78.5q0 17 -5 64l-41 413h138l12 -170q8 -117 7 -213h2q57 122 108 213l95 170h156l-309 -511q-44 -72 -86 -112.5z" />
    <glyph glyph-name="z" unicode="z" horiz-adv-x="484" 
d="M169 112v-2h251l-27 -110h-428l30 120l311 276v2h-232l28 110h408l-30 -120z" />
    <glyph glyph-name="braceleft" unicode="{" horiz-adv-x="338" 
d="M348 641q-23 -18 -34 -62l-40 -160q-13 -52 -42.5 -80t-81.5 -40l-1 -3q34 -12 50 -34.5t16 -58.5q0 -22 -7 -49l-32 -128q-6 -24 -6 -40q0 -30 14.5 -43t47.5 -14l-20 -81h-14q-82 0 -118.5 29.5t-36.5 93.5q0 29 11 75l29 117q6 24 6 40q0 24 -11 38.5t-36 21.5l22 87
q39 10 58 28t29 56l37 150q21 85 68.5 121t143.5 36h34l-20 -80q-43 -2 -66 -20z" />
    <glyph glyph-name="bar" unicode="|" horiz-adv-x="294" 
d="M84 -205v937h126v-937h-126z" />
    <glyph glyph-name="braceright" unicode="}" horiz-adv-x="338" 
d="M10 -52q23 18 34 62l40 160q13 52 42.5 80t81.5 40l1 3q-34 12 -50 34.5t-16 58.5q0 22 7 49l32 128q6 24 6 40q0 30 -14.5 43t-47.5 14l20 81h14q82 0 118.5 -29.5t36.5 -93.5q0 -29 -11 -75l-29 -117q-6 -24 -6 -40q0 -24 11 -38.5t36 -21.5l-22 -87q-39 -10 -58 -28
t-29 -56l-37 -150q-21 -85 -68.5 -121t-143.5 -36h-34l20 80q43 2 66 20z" />
    <glyph glyph-name="asciitilde" unicode="~" horiz-adv-x="594" 
d="M284 404.5q28 -14.5 60 -41.5q26 -21 42.5 -30.5t37.5 -9.5q32 0 58 24t36 63h90q-22 -92 -76 -143.5t-123 -51.5q-40 0 -66.5 14t-61.5 41q-26 21 -43 30.5t-38 9.5q-32 0 -57.5 -23.5t-35.5 -63.5h-90q22 92 76.5 144t122.5 52q40 0 68 -14.5z" />
    <glyph glyph-name="uni00A0" unicode="&#xa0;" horiz-adv-x="230" 
 />
    <glyph glyph-name="exclamdown" unicode="&#xa1;" horiz-adv-x="324" 
d="M302 508l-33 -132h-154l33 132h154zM230 310l-97 -514h-170l159 514h108z" />
    <glyph glyph-name="cent" unicode="&#xa2;" 
d="M434 406q0 53 -32 76l-77 -308q28 9 50 33.5t32 59.5h147q-28 -90 -98 -146t-159 -59l-22 -88h-81l24 96q-72 19 -110.5 74.5t-38.5 140.5q0 70 32.5 142t96.5 121.5t153 53.5l22 88h81l-24 -94q71 -16 110.5 -64t39.5 -118q0 -18 -2 -27h-146q2 10 2 19zM247 186l75 302
q-34 -13 -59 -48t-38 -77t-13 -77q0 -71 35 -100z" />
    <glyph glyph-name="sterling" unicode="&#xa3;" 
d="M489 501q0 34 -17.5 51.5t-50.5 17.5q-81 0 -108 -107l-17 -69h122l-29 -117h-122l-7 -26q-13 -54 -34.5 -84t-60.5 -49v-2h366l-29 -116h-541l29 118q46 0 76 30t47 101l7 28h-90l29 117h90l24 95q25 101 91.5 151t170.5 50q94 0 145.5 -44t51.5 -123q0 -23 -6 -50h-140
q3 15 3 28z" />
    <glyph glyph-name="currency" unicode="&#xa4;" 
d="M491 175l72 -76l-87 -81l-71 77q-49 -22 -105 -22t-105 22l-71 -77l-87 81l72 76q-30 51 -30 116t30 116l-72 76l87 81l71 -77q49 22 105 22t105 -22l71 77l87 -81l-72 -76q30 -51 30 -116t-30 -116zM378.5 210q29.5 31 29.5 81t-29.5 81t-78.5 31t-78.5 -31t-29.5 -81
t29.5 -81t78.5 -31t78.5 31z" />
    <glyph glyph-name="yen" unicode="&#xa5;" 
d="M557 347l-17 -70h-160l-10 -40h160l-18 -70h-159l-42 -167h-148l42 167h-161l18 70h160l10 40h-160l17 70h123l-94 327h149l22 -96q25 -112 36 -181h2q59 100 118 181l70 96h177l-257 -327h122z" />
    <glyph glyph-name="brokenbar" unicode="&#xa6;" horiz-adv-x="294" 
d="M84 382v350h126v-350h-126zM84 -205v350h126v-350h-126z" />
    <glyph glyph-name="section" unicode="&#xa7;" horiz-adv-x="646" 
d="M618 574q0 -20 -2 -32h-140q1 5 1 14q0 28 -18.5 43.5t-53.5 15.5q-31 0 -51.5 -17t-20.5 -44q0 -22 18.5 -36.5t78.5 -43.5q54 -27 86 -47.5t51.5 -51.5t19.5 -76q0 -122 -132 -191v-2q26 -28 26 -74q0 -44 -27.5 -87.5t-82 -72t-132.5 -28.5q-99 0 -153.5 36t-54.5 109
q0 20 4 39h141q-1 -5 -1 -15q0 -56 71 -56q38 0 63.5 17t25.5 46q0 17 -10.5 30.5t-34 28t-74.5 41.5q-46 24 -74.5 45t-46 50.5t-17.5 70.5q0 54 32.5 104t99.5 84v2q-23 27 -23 67q0 43 27.5 86t81 71t127.5 28q195 0 195 -154zM235.5 371q-16.5 -23 -16.5 -51t19 -49.5
t66 -48.5l80 -46q29 12 45.5 37.5t16.5 49.5q0 27 -17.5 50t-58.5 45l-90 49q-28 -13 -44.5 -36z" />
    <glyph glyph-name="dieresis" unicode="&#xa8;" horiz-adv-x="441" 
d="M135 592l30 120h123l-30 -120h-123zM352 592l30 120h123l-30 -120h-123z" />
    <glyph glyph-name="copyright" unicode="&#xa9;" horiz-adv-x="802" 
d="M589.5 680q81.5 -46 126.5 -130t45 -194t-45 -194t-126.5 -130t-188.5 -46t-188.5 46t-126.5 130t-45 194t45 194t126.5 130t188.5 46t188.5 -46zM240.5 631.5q-69.5 -39.5 -107.5 -110.5t-38 -165t38 -165t107.5 -110.5t160.5 -39.5t160.5 39.5t108 110.5t38.5 165
t-38.5 165t-108 110.5t-160.5 39.5t-160.5 -39.5zM539 541q51 -46 55 -123h-97q-3 41 -27.5 65.5t-66.5 24.5q-50 0 -78.5 -41t-28.5 -112q0 -70 28.5 -110.5t76.5 -40.5q41 0 67 25t31 68h98q-7 -81 -59.5 -126.5t-136.5 -45.5q-94 0 -148 61.5t-54 168.5q0 108 54.5 170
t149.5 62q85 0 136 -46z" />
    <glyph glyph-name="ordfeminine" unicode="&#xaa;" horiz-adv-x="412" 
d="M444 583q0 -21 -6 -47l-26 -105q-17 -67 -14 -101h-107q0 23 5 40h-2q-52 -49 -122 -49q-53 0 -81.5 26t-28.5 71q0 46 39 81t132 47q53 7 94 9l2 7q3 11 3 21q0 39 -45 39q-23 0 -38 -12.5t-20 -36.5h-116q12 53 59.5 88.5t121.5 35.5q150 0 150 -114zM244 483
q-60 -10 -60 -50q0 -16 10.5 -25t30.5 -9q31 0 51.5 19t29.5 52l5 21q-37 -2 -67 -8z" />
    <glyph glyph-name="guillemotleft" unicode="&#xab;" horiz-adv-x="532" 
d="M438 54h-116l-69 204l157 196h128l-159 -204zM230 54h-116l-69 204l157 196h128l-159 -204z" />
    <glyph glyph-name="logicalnot" unicode="&#xac;" horiz-adv-x="566" 
d="M394 132v221h-330v109h438v-330h-108z" />
    <glyph glyph-name="uni00AD" unicode="&#xad;" horiz-adv-x="320" 
d="M26 237l27 110h260l-27 -110h-260z" />
    <glyph glyph-name="registered" unicode="&#xae;" horiz-adv-x="592" 
d="M481 696q57 -32 88 -90.5t31 -135.5t-31 -135.5t-88 -90.5t-132 -32t-132 32t-88 90.5t-31 135.5t31 135.5t88 90.5t132 32t132 -32zM236.5 664.5q-48.5 -27.5 -75.5 -78t-27 -116.5t27 -116.5t75.5 -78t112.5 -27.5t112.5 27.5t75.5 78t27 116.5t-27 116.5t-75.5 78
t-112.5 27.5t-112.5 -27.5zM439 608q28 -24 28 -66q0 -28 -15.5 -49t-42.5 -28v-2q16 -5 26 -17t20 -39l33 -91h-72l-27 77q-7 24 -20 33.5t-36 9.5h-36v-120h-68v316h128q54 0 82 -24zM297 490h43q60 0 60 46q0 19 -14.5 30t-42.5 11h-46v-87z" />
    <glyph glyph-name="macron" unicode="&#xaf;" horiz-adv-x="427" 
d="M137 598l22 91h326l-22 -91h-326z" />
    <glyph glyph-name="degree" unicode="&#xb0;" horiz-adv-x="339" 
d="M319 704q31 -18 49.5 -49t18.5 -68t-18.5 -68t-49.5 -49t-67 -18q-37 0 -68 18t-49.5 49t-18.5 68t18.5 68t49.5 49t68 18q36 0 67 -18zM206 633q-19 -19 -19 -46t19 -46t46 -19t46 19t19 46t-19 46t-46 19t-46 -19z" />
    <glyph glyph-name="plusminus" unicode="&#xb1;" horiz-adv-x="566" 
d="M502 411v-109h-165v-155h-108v155h-165v109h165v155h108v-155h165zM64 0v109h438v-109h-438z" />
    <glyph glyph-name="twosuperior" unicode="&#xb2;" horiz-adv-x="457" 
d="M471 778.5q43 -34.5 43 -92.5q0 -54 -39 -97t-122 -79q-67 -29 -91.5 -45.5t-31.5 -35.5h235l-23 -99h-386q15 92 61 144.5t141 95.5q71 32 100 55t29 52q0 20 -12 30.5t-34 10.5q-57 0 -74 -69h-126q19 79 73.5 121.5t135.5 42.5q78 0 121 -34.5z" />
    <glyph glyph-name="threesuperior" unicode="&#xb3;" horiz-adv-x="452" 
d="M471 780q44 -33 44 -90q0 -41 -26.5 -73t-84.5 -50v-1q64 -27 64 -93q0 -37 -23 -72.5t-69 -58.5t-110 -23q-88 0 -134.5 33.5t-46.5 98.5q0 20 4 36h124q-3 -12 -3 -24q0 -49 61 -49q34 0 54.5 18.5t20.5 40.5q0 48 -73 48h-13l22 92h15q45 0 69.5 18.5t24.5 43.5
q0 21 -13.5 32t-40.5 11q-62 0 -79 -70h-123q18 78 74 121.5t138 43.5q80 0 124 -33z" />
    <glyph glyph-name="acute" unicode="&#xb4;" horiz-adv-x="350" 
d="M128 566l107 146h179l-170 -146h-116z" />
    <glyph glyph-name="mu" unicode="&#xb5;" horiz-adv-x="613" 
d="M508 132q0 -17 8.5 -24t24.5 -7q12 0 25 3l-26 -105q-25 -7 -61 -7q-46 0 -69.5 20.5t-26.5 60.5h-2q-21 -36 -61 -57.5t-85 -21.5q-58 0 -84 34l-53 -213h-140l173 693h140l-73 -292q-6 -27 -6 -46q0 -72 72 -72q43 0 76.5 35.5t50.5 102.5l67 272h140l-84 -340
q-6 -22 -6 -36z" />
    <glyph glyph-name="paragraph" unicode="&#xb6;" horiz-adv-x="656" 
d="M642 616l-183 -736h-103l183 736h-82l-183 -736h-103l102 410q-168 25 -168 196q0 53 26 105.5t76 86.5t118 34h421l-24 -96h-80z" />
    <glyph glyph-name="periodcentered" unicode="&#xb7;" horiz-adv-x="258" 
d="M44 222l41 167h154l-41 -167h-154z" />
    <glyph glyph-name="cedilla" unicode="&#xb8;" horiz-adv-x="332" 
d="M114 -57q31 0 51 -19t20 -51q0 -42 -41 -70.5t-100 -28.5q-60 0 -106 30l25 45q39 -22 79 -22q26 0 41.5 11t15.5 29q0 16 -10 24.5t-28 8.5t-34 -6l-20 18l78 88h59l-53 -60q9 3 23 3z" />
    <glyph glyph-name="onesuperior" unicode="&#xb9;" horiz-adv-x="317" 
d="M149 330l75 301h-119l22 89q63 0 99 19.5t54 62.5h111l-118 -472h-124z" />
    <glyph glyph-name="ordmasculine" unicode="&#xba;" horiz-adv-x="442" 
d="M435 653.5q46 -43.5 46 -120.5q0 -50 -25.5 -99.5t-75 -82t-117.5 -32.5q-83 0 -129 43.5t-46 120.5q0 50 25 99.5t74.5 82t117.5 32.5q84 0 130 -43.5zM251 585.5q-20 -20.5 -29.5 -49.5t-9.5 -56q0 -71 56 -71q29 0 49 20.5t29.5 49.5t9.5 56q0 71 -56 71
q-29 0 -49 -20.5z" />
    <glyph glyph-name="guillemotright" unicode="&#xbb;" horiz-adv-x="532" 
d="M94 454h116l69 -204l-157 -196h-128l159 204zM302 454h116l69 -204l-157 -196h-128l159 204z" />
    <glyph glyph-name="onequarter" unicode="&#xbc;" horiz-adv-x="806" 
d="M116 270l64 252h-103l19 81q55 0 86.5 16.5t46.5 54.5h102l-101 -404h-114zM61 0l537 674h91l-537 -674h-91zM686 80l-20 -80h-111l20 80h-201l23 95l218 229h152l-60 -240h66l-20 -84h-67zM600 164l10 42q14 61 34 114h-2q-40 -45 -93 -100l-55 -56h106z" />
    <glyph glyph-name="onehalf" unicode="&#xbd;" horiz-adv-x="834" 
d="M116 270l64 252h-103l19 81q55 0 86.5 16.5t46.5 54.5h102l-101 -404h-114zM61 0l537 674h91l-537 -674h-91zM763 384q39 -30 39 -80q0 -46 -34.5 -83t-106.5 -66q-59 -23 -79 -36t-26 -29h206l-21 -90h-344q13 81 53 127t122 81q63 28 88.5 46t25.5 42q0 15 -10 24
t-28 9q-49 0 -63 -58h-116q16 69 65 106t121 37q69 0 108 -30z" />
    <glyph glyph-name="threequarters" unicode="&#xbe;" horiz-adv-x="926" 
d="M404 656q39 -28 39 -78q0 -75 -96 -105v-2q56 -21 56 -78q0 -32 -20.5 -62.5t-61 -50.5t-97.5 -20q-79 0 -120.5 29.5t-41.5 85.5q0 15 3 31h114q-2 -14 -2 -20q0 -40 52 -40q29 0 46 15t17 32q0 39 -62 39h-12l20 82h14q37 0 57.5 15t20.5 35q0 17 -12 26t-34 9
q-53 0 -67 -57h-112q15 67 64.5 104.5t123.5 37.5q72 0 111 -28zM181 0l537 674h91l-537 -674h-91zM806 80l-20 -80h-111l20 80h-201l23 95l218 229h152l-60 -240h66l-20 -84h-67zM720 164l10 42q14 61 34 114h-2q-40 -45 -93 -100l-55 -56h106z" />
    <glyph glyph-name="questiondown" unicode="&#xbf;" horiz-adv-x="517" 
d="M425 508l-33 -132h-154l33 132h154zM26.5 -172q-57.5 47 -57.5 132q0 53 30 97t112 99q44 30 67.5 51.5t37.5 47t25 67.5h119q-13 -63 -28.5 -99t-41.5 -64t-77 -65q-62 -45 -81 -72.5t-19 -56.5q0 -30 20 -46.5t59 -16.5q45 0 74 24.5t42 76.5h146
q-26 -109 -94.5 -165.5t-170.5 -56.5q-105 0 -162.5 47z" />
    <glyph glyph-name="Agrave" unicode="&#xc0;" horiz-adv-x="698" 
d="M203 174l-99 -174h-164l424 712h198l70 -712h-144l-12 174h-273zM464 347q-10 160 -13 278h-2q-70 -140 -148 -278l-27 -47h193zM456 760l-109 146h167l46 -146h-104z" />
    <glyph glyph-name="Aacute" unicode="&#xc1;" horiz-adv-x="698" 
d="M203 174l-99 -174h-164l424 712h198l70 -712h-144l-12 174h-273zM464 347q-10 160 -13 278h-2q-70 -140 -148 -278l-27 -47h193zM390 760l108 146h179l-171 -146h-116z" />
    <glyph glyph-name="Acircumflex" unicode="&#xc2;" horiz-adv-x="698" 
d="M203 174l-99 -174h-164l424 712h198l70 -712h-144l-12 174h-273zM464 347q-10 160 -13 278h-2q-70 -140 -148 -278l-27 -47h193zM586 906l77 -146h-114l-42 76l-79 -76h-142l151 146h149z" />
    <glyph glyph-name="Atilde" unicode="&#xc3;" horiz-adv-x="698" 
d="M203 174l-99 -174h-164l424 712h198l70 -712h-144l-12 174h-273zM464 347q-10 160 -13 278h-2q-70 -140 -148 -278l-27 -47h193zM644.5 807q-37.5 -36 -87.5 -36q-25 0 -42.5 7t-37.5 20q-16 10 -26.5 14.5t-23.5 4.5q-21 0 -35 -11t-22 -35h-80q17 63 55 99t88 36
q25 0 43 -7t38 -20q16 -10 26 -14.5t23 -4.5q22 0 36 11t23 35h78q-18 -63 -55.5 -99z" />
    <glyph glyph-name="Adieresis" unicode="&#xc4;" horiz-adv-x="698" 
d="M203 174l-99 -174h-164l424 712h198l70 -712h-144l-12 174h-273zM464 347q-10 160 -13 278h-2q-70 -140 -148 -278l-27 -47h193zM307 769l30 120h123l-30 -120h-123zM524 769l30 120h123l-30 -120h-123z" />
    <glyph glyph-name="Aring" unicode="&#xc5;" horiz-adv-x="698" 
d="M203 174l-99 -174h-164l424 712h198l70 -712h-144l-12 174h-273zM464 347q-10 160 -13 278h-2q-70 -140 -148 -278l-27 -47h193zM565.5 934.5q31.5 -31.5 31.5 -76.5t-31.5 -76.5t-76.5 -31.5t-76.5 31.5t-31.5 76.5t31.5 76.5t76.5 31.5t76.5 -31.5zM451 896.5
q-16 -15.5 -16 -38.5q0 -22 16 -38t38 -16q23 0 38.5 16t15.5 38q0 23 -15.5 38.5t-38.5 15.5q-22 0 -38 -15.5z" />
    <glyph glyph-name="AE" unicode="&#xc6;" horiz-adv-x="965" 
d="M640 425h286l-32 -125h-268l-18 -174h275l-31 -126h-393l19 179h-254l-122 -179h-171l509 712h580l-31 -126h-332zM507 595l-199 -292h182l31 292h-14z" />
    <glyph glyph-name="Ccedilla" unicode="&#xc7;" horiz-adv-x="702" 
d="M559 479q0 56 -31.5 87.5t-87.5 31.5q-72 0 -124.5 -49t-79 -122.5t-26.5 -144.5q0 -77 33 -122.5t97 -45.5q55 0 101 32.5t68 89.5h151q-35 -113 -117 -179t-193 -72l-39 -45q9 3 23 3q31 0 51 -19t20 -51q0 -42 -41 -70.5t-100 -28.5q-60 0 -106 30l25 45
q38 -22 79 -22q26 0 41.5 11t15.5 29q0 16 -10 24.5t-28 8.5t-34 -6l-20 18l65 74q-112 10 -173 86t-61 200q0 107 45 212.5t134.5 174.5t215.5 69q78 0 136 -29t89 -81.5t31 -122.5q0 -24 -4 -44h-148q2 18 2 28z" />
    <glyph glyph-name="Egrave" unicode="&#xc8;" horiz-adv-x="633" 
d="M312 586l-40 -161h322l-32 -125h-322l-43 -174h354l-31 -126h-501l177 712h492l-31 -126h-345zM425 760l-109 146h167l46 -146h-104z" />
    <glyph glyph-name="Eacute" unicode="&#xc9;" horiz-adv-x="633" 
d="M312 586l-40 -161h322l-32 -125h-322l-43 -174h354l-31 -126h-501l177 712h492l-31 -126h-345zM359 760l108 146h179l-171 -146h-116z" />
    <glyph glyph-name="Ecircumflex" unicode="&#xca;" horiz-adv-x="633" 
d="M312 586l-40 -161h322l-32 -125h-322l-43 -174h354l-31 -126h-501l177 712h492l-31 -126h-345zM555 906l77 -146h-114l-42 76l-79 -76h-142l151 146h149z" />
    <glyph glyph-name="Edieresis" unicode="&#xcb;" horiz-adv-x="633" 
d="M312 586l-40 -161h322l-32 -125h-322l-43 -174h354l-31 -126h-501l177 712h492l-31 -126h-345zM276 769l30 120h123l-30 -120h-123zM493 769l30 120h123l-30 -120h-123z" />
    <glyph glyph-name="Igrave" unicode="&#xcc;" horiz-adv-x="311" 
d="M19 0l177 712h147l-177 -712h-147zM263 760l-109 146h167l46 -146h-104z" />
    <glyph glyph-name="Iacute" unicode="&#xcd;" horiz-adv-x="311" 
d="M19 0l177 712h147l-177 -712h-147zM197 760l108 146h179l-171 -146h-116z" />
    <glyph glyph-name="Icircumflex" unicode="&#xce;" horiz-adv-x="311" 
d="M19 0l177 712h147l-177 -712h-147zM393 906l77 -146h-114l-42 76l-79 -76h-142l151 146h149z" />
    <glyph glyph-name="Idieresis" unicode="&#xcf;" horiz-adv-x="311" 
d="M19 0l177 712h147l-177 -712h-147zM114 769l30 120h123l-30 -120h-123zM331 769l30 120h123l-30 -120h-123z" />
    <glyph glyph-name="Eth" unicode="&#xd0;" horiz-adv-x="735" 
d="M637 633.5q86 -78.5 86 -227.5q0 -99 -47.5 -192.5t-146.5 -153.5t-243 -60h-267l76 307h-64l27 106h64l74 299h187q168 0 254 -78.5zM453 167q62 41 90 102.5t28 127.5q0 95 -48 142t-147 47h-65l-43 -173h166l-27 -106h-166l-45 -181h99q96 0 158 41z" />
    <glyph glyph-name="Ntilde" unicode="&#xd1;" horiz-adv-x="776" 
d="M434 0l-72 289q-38 155 -66 294h-2q-33 -177 -66 -309l-68 -274h-141l177 712h197l72 -289q27 -112 66 -294h2q27 154 66 309l68 274h141l-177 -712h-197zM683.5 807q-37.5 -36 -87.5 -36q-25 0 -42.5 7t-37.5 20q-16 10 -26.5 14.5t-23.5 4.5q-21 0 -35 -11t-22 -35h-80
q17 63 55 99t88 36q25 0 43 -7t38 -20q16 -10 26 -14.5t23 -4.5q22 0 36 11t23 35h78q-18 -63 -55.5 -99z" />
    <glyph glyph-name="Ograve" unicode="&#xd2;" horiz-adv-x="748" 
d="M604.5 691q65.5 -37 99.5 -105.5t34 -161.5q0 -105 -45 -206.5t-132.5 -167.5t-210.5 -66q-137 0 -213 81.5t-76 222.5q0 105 44.5 207t132 167.5t210.5 65.5q91 0 156.5 -37zM316 550.5q-53 -47.5 -80 -119.5t-27 -142q0 -82 38.5 -128.5t108.5 -46.5q73 0 126 48
t80.5 120t27.5 142q0 81 -38.5 127.5t-109.5 46.5q-73 0 -126 -47.5zM457 760l-109 146h167l46 -146h-104z" />
    <glyph glyph-name="Oacute" unicode="&#xd3;" horiz-adv-x="748" 
d="M604.5 691q65.5 -37 99.5 -105.5t34 -161.5q0 -105 -45 -206.5t-132.5 -167.5t-210.5 -66q-137 0 -213 81.5t-76 222.5q0 105 44.5 207t132 167.5t210.5 65.5q91 0 156.5 -37zM316 550.5q-53 -47.5 -80 -119.5t-27 -142q0 -82 38.5 -128.5t108.5 -46.5q73 0 126 48
t80.5 120t27.5 142q0 81 -38.5 127.5t-109.5 46.5q-73 0 -126 -47.5zM391 760l108 146h179l-171 -146h-116z" />
    <glyph glyph-name="Ocircumflex" unicode="&#xd4;" horiz-adv-x="748" 
d="M604.5 691q65.5 -37 99.5 -105.5t34 -161.5q0 -105 -45 -206.5t-132.5 -167.5t-210.5 -66q-137 0 -213 81.5t-76 222.5q0 105 44.5 207t132 167.5t210.5 65.5q91 0 156.5 -37zM316 550.5q-53 -47.5 -80 -119.5t-27 -142q0 -82 38.5 -128.5t108.5 -46.5q73 0 126 48
t80.5 120t27.5 142q0 81 -38.5 127.5t-109.5 46.5q-73 0 -126 -47.5zM587 906l77 -146h-114l-42 76l-79 -76h-142l151 146h149z" />
    <glyph glyph-name="Otilde" unicode="&#xd5;" horiz-adv-x="748" 
d="M604.5 691q65.5 -37 99.5 -105.5t34 -161.5q0 -105 -45 -206.5t-132.5 -167.5t-210.5 -66q-137 0 -213 81.5t-76 222.5q0 105 44.5 207t132 167.5t210.5 65.5q91 0 156.5 -37zM316 550.5q-53 -47.5 -80 -119.5t-27 -142q0 -82 38.5 -128.5t108.5 -46.5q73 0 126 48
t80.5 120t27.5 142q0 81 -38.5 127.5t-109.5 46.5q-73 0 -126 -47.5zM645.5 807q-37.5 -36 -87.5 -36q-25 0 -42.5 7t-37.5 20q-16 10 -26.5 14.5t-23.5 4.5q-21 0 -35 -11t-22 -35h-80q17 63 55 99t88 36q25 0 43 -7t38 -20q16 -10 26 -14.5t23 -4.5q22 0 36 11t23 35h78
q-18 -63 -55.5 -99z" />
    <glyph glyph-name="Odieresis" unicode="&#xd6;" horiz-adv-x="748" 
d="M604.5 691q65.5 -37 99.5 -105.5t34 -161.5q0 -105 -45 -206.5t-132.5 -167.5t-210.5 -66q-137 0 -213 81.5t-76 222.5q0 105 44.5 207t132 167.5t210.5 65.5q91 0 156.5 -37zM316 550.5q-53 -47.5 -80 -119.5t-27 -142q0 -82 38.5 -128.5t108.5 -46.5q73 0 126 48
t80.5 120t27.5 142q0 81 -38.5 127.5t-109.5 46.5q-73 0 -126 -47.5zM308 769l30 120h123l-30 -120h-123zM525 769l30 120h123l-30 -120h-123z" />
    <glyph glyph-name="multiply" unicode="&#xd7;" horiz-adv-x="566" 
d="M360 307l185 -185l-77 -77l-185 185l-184 -185l-78 77l185 185l-185 185l78 76l184 -184l185 184l77 -76z" />
    <glyph glyph-name="Oslash" unicode="&#xd8;" horiz-adv-x="748" 
d="M738 424q0 -105 -45 -206.5t-132.5 -167.5t-210.5 -66q-125 0 -200 69l-67 -68l-53 53l73 73q-42 72 -42 177t44.5 207t132 167.5t210.5 65.5q124 0 201 -69l68 68l53 -53l-74 -74q42 -72 42 -176zM211 220l340 341q-40 45 -109 45q-74 0 -128.5 -49t-82.5 -123t-28 -145
q0 -35 8 -69zM588 491l-340 -341q41 -44 108 -44q74 0 128.5 49.5t83 123.5t28.5 145q0 35 -8 67z" />
    <glyph glyph-name="Ugrave" unicode="&#xd9;" horiz-adv-x="718" 
d="M524.5 47.5q-81.5 -63.5 -202.5 -63.5q-118 0 -181.5 60t-63.5 172q0 45 13 97l100 399h147l-105 -423q-9 -36 -9 -64q0 -55 28 -83t83 -28q62 0 104 39t60 112l111 447h147l-120 -482q-30 -119 -111.5 -182.5zM456 760l-109 146h167l46 -146h-104z" />
    <glyph glyph-name="Uacute" unicode="&#xda;" horiz-adv-x="718" 
d="M524.5 47.5q-81.5 -63.5 -202.5 -63.5q-118 0 -181.5 60t-63.5 172q0 45 13 97l100 399h147l-105 -423q-9 -36 -9 -64q0 -55 28 -83t83 -28q62 0 104 39t60 112l111 447h147l-120 -482q-30 -119 -111.5 -182.5zM390 760l108 146h179l-171 -146h-116z" />
    <glyph glyph-name="Ucircumflex" unicode="&#xdb;" horiz-adv-x="718" 
d="M524.5 47.5q-81.5 -63.5 -202.5 -63.5q-118 0 -181.5 60t-63.5 172q0 45 13 97l100 399h147l-105 -423q-9 -36 -9 -64q0 -55 28 -83t83 -28q62 0 104 39t60 112l111 447h147l-120 -482q-30 -119 -111.5 -182.5zM586 906l77 -146h-114l-42 76l-79 -76h-142l151 146h149z
" />
    <glyph glyph-name="Udieresis" unicode="&#xdc;" horiz-adv-x="718" 
d="M524.5 47.5q-81.5 -63.5 -202.5 -63.5q-118 0 -181.5 60t-63.5 172q0 45 13 97l100 399h147l-105 -423q-9 -36 -9 -64q0 -55 28 -83t83 -28q62 0 104 39t60 112l111 447h147l-120 -482q-30 -119 -111.5 -182.5zM307 769l30 120h123l-30 -120h-123zM524 769l30 120h123
l-30 -120h-123z" />
    <glyph glyph-name="Yacute" unicode="&#xdd;" horiz-adv-x="638" 
d="M329 0h-147l69 277l-135 435h149l35 -134q22 -86 39 -181h2q57 90 127 181l101 134h180l-351 -435zM334 760l108 146h179l-171 -146h-116z" />
    <glyph glyph-name="Thorn" unicode="&#xde;" horiz-adv-x="635" 
d="M395 595q122 0 183 -52.5t61 -147.5q0 -62 -31 -121.5t-96 -99t-161 -39.5h-152l-33 -135h-147l177 712h147l-30 -117h82zM229 257h122q70 0 103 35t33 82q0 99 -112 99h-92z" />
    <glyph glyph-name="germandbls" unicode="&#xdf;" horiz-adv-x="575" 
d="M533 687.5q51 -40.5 51 -110.5q0 -61 -40.5 -112.5t-122.5 -71.5v-2q111 -34 111 -152q0 -59 -32 -115.5t-93.5 -92.5t-145.5 -36q-31 0 -57 8l27 110q8 -2 21 -2q48 0 79 20.5t45 51t14 62.5q0 43 -25 65.5t-75 22.5h-4l28 115q72 0 102 31.5t30 71.5q0 66 -67 66
q-42 0 -68.5 -28t-41.5 -89l-124 -500h-140l129 518q25 100 92.5 155t165.5 55q90 0 141 -40.5z" />
    <glyph glyph-name="agrave" unicode="&#xe0;" horiz-adv-x="547" 
d="M506 366q0 -31 -9 -67l-40 -160q-22 -90 -21 -139h-122q0 31 8 59h-2q-72 -71 -171 -71q-73 0 -112.5 36.5t-39.5 98.5q0 65 52.5 113.5t178.5 67.5q71 10 138 14l3 12q5 20 5 33q0 32 -19 47.5t-53 15.5q-37 0 -62 -20.5t-33 -56.5h-136q17 76 80 125.5t160 49.5
q195 0 195 -158zM240 222q-98 -16 -98 -80q0 -25 16.5 -39.5t47.5 -14.5q51 0 84 29t47 84l8 32q-59 -4 -105 -11zM414 566h-104l-110 146h167z" />
    <glyph glyph-name="aacute" unicode="&#xe1;" horiz-adv-x="547" 
d="M506 366q0 -31 -9 -67l-40 -160q-22 -90 -21 -139h-122q0 31 8 59h-2q-72 -71 -171 -71q-73 0 -112.5 36.5t-39.5 98.5q0 65 52.5 113.5t178.5 67.5q71 10 138 14l3 12q5 20 5 33q0 32 -19 47.5t-53 15.5q-37 0 -62 -20.5t-33 -56.5h-136q17 76 80 125.5t160 49.5
q195 0 195 -158zM240 222q-98 -16 -98 -80q0 -25 16.5 -39.5t47.5 -14.5q51 0 84 29t47 84l8 32q-59 -4 -105 -11zM244 566l107 146h179l-170 -146h-116z" />
    <glyph glyph-name="acircumflex" unicode="&#xe2;" horiz-adv-x="547" 
d="M506 366q0 -31 -9 -67l-40 -160q-22 -90 -21 -139h-122q0 31 8 59h-2q-72 -71 -171 -71q-73 0 -112.5 36.5t-39.5 98.5q0 65 52.5 113.5t178.5 67.5q71 10 138 14l3 12q5 20 5 33q0 32 -19 47.5t-53 15.5q-37 0 -62 -20.5t-33 -56.5h-136q17 76 80 125.5t160 49.5
q195 0 195 -158zM240 222q-98 -16 -98 -80q0 -25 16.5 -39.5t47.5 -14.5q51 0 84 29t47 84l8 32q-59 -4 -105 -11zM399 566l-42 76l-79 -76h-138l150 146h149l78 -146h-118z" />
    <glyph glyph-name="atilde" unicode="&#xe3;" horiz-adv-x="547" 
d="M506 366q0 -31 -9 -67l-40 -160q-22 -90 -21 -139h-122q0 31 8 59h-2q-72 -71 -171 -71q-73 0 -112.5 36.5t-39.5 98.5q0 65 52.5 113.5t178.5 67.5q71 10 138 14l3 12q5 20 5 33q0 32 -19 47.5t-53 15.5q-37 0 -62 -20.5t-33 -56.5h-136q17 76 80 125.5t160 49.5
q195 0 195 -158zM240 222q-98 -16 -98 -80q0 -25 16.5 -39.5t47.5 -14.5q51 0 84 29t47 84l8 32q-59 -4 -105 -11zM497.5 613q-37.5 -36 -87.5 -36q-25 0 -42.5 7t-36.5 20q-16 10 -26.5 14.5t-23.5 4.5q-21 0 -35 -11t-22 -35h-80q17 63 55 99t88 36q25 0 42.5 -7t37.5 -20
q16 -10 26 -14.5t23 -4.5q22 0 36 11t23 35h78q-18 -63 -55.5 -99z" />
    <glyph glyph-name="adieresis" unicode="&#xe4;" horiz-adv-x="547" 
d="M506 366q0 -31 -9 -67l-40 -160q-22 -90 -21 -139h-122q0 31 8 59h-2q-72 -71 -171 -71q-73 0 -112.5 36.5t-39.5 98.5q0 65 52.5 113.5t178.5 67.5q71 10 138 14l3 12q5 20 5 33q0 32 -19 47.5t-53 15.5q-37 0 -62 -20.5t-33 -56.5h-136q17 76 80 125.5t160 49.5
q195 0 195 -158zM240 222q-98 -16 -98 -80q0 -25 16.5 -39.5t47.5 -14.5q51 0 84 29t47 84l8 32q-59 -4 -105 -11zM165 592l30 120h123l-30 -120h-123zM382 592l30 120h123l-30 -120h-123z" />
    <glyph glyph-name="aring" unicode="&#xe5;" horiz-adv-x="547" 
d="M506 366q0 -31 -9 -67l-40 -160q-22 -90 -21 -139h-122q0 31 8 59h-2q-72 -71 -171 -71q-73 0 -112.5 36.5t-39.5 98.5q0 65 52.5 113.5t178.5 67.5q71 10 138 14l3 12q5 20 5 33q0 32 -19 47.5t-53 15.5q-37 0 -62 -20.5t-33 -56.5h-136q17 76 80 125.5t160 49.5
q195 0 195 -158zM240 222q-98 -16 -98 -80q0 -25 16.5 -39.5t47.5 -14.5q51 0 84 29t47 84l8 32q-59 -4 -105 -11zM419.5 740.5q31.5 -31.5 31.5 -76.5t-31.5 -76.5t-76.5 -31.5t-76.5 31.5t-31.5 76.5t31.5 76.5t76.5 31.5t76.5 -31.5zM305 702.5q-16 -15.5 -16 -38.5
q0 -22 16 -38t38 -16q23 0 38.5 16t15.5 38q0 23 -15.5 38.5t-38.5 15.5q-22 0 -38 -15.5z" />
    <glyph glyph-name="ae" unicode="&#xe6;" horiz-adv-x="879" 
d="M479 182q0 -51 24 -75t63 -24q36 0 64 20t39 51h143q-30 -73 -98.5 -121.5t-155.5 -48.5q-63 0 -106.5 24t-67.5 68q-38 -46 -89.5 -69t-109.5 -23q-90 0 -138.5 39t-48.5 104q0 46 27 87t90.5 67.5t168.5 26.5h88l4 16q5 22 5 34q0 36 -19.5 52t-57.5 16
q-39 0 -64.5 -20.5t-33.5 -56.5h-136q16 76 79.5 125.5t158.5 49.5q119 0 164 -62q72 62 167 62q102 0 156 -55.5t54 -151.5q0 -40 -12 -92h-354q-4 -21 -4 -43zM557 397q-33 -28 -52 -84h212q2 16 2 22q0 45 -24 67.5t-64 22.5q-41 0 -74 -28zM279 225q-139 0 -139 -83
q0 -27 18 -42.5t54 -15.5q54 0 87 31t49 94l4 16h-73z" />
    <glyph glyph-name="ccedilla" unicode="&#xe7;" horiz-adv-x="562" 
d="M398 328q0 41 -20 64.5t-56 23.5q-45 0 -78 -34.5t-50.5 -83.5t-17.5 -90q0 -55 21.5 -85.5t62.5 -30.5q37 0 67.5 26t43.5 71h147q-26 -85 -91 -140.5t-149 -63.5l-40 -45q9 3 23 3q31 0 51 -19t20 -51q0 -42 -41 -70.5t-100 -28.5q-60 0 -106 30l25 45q39 -22 79 -22
q26 0 41.5 11t15.5 29q0 16 -10 24.5t-28 8.5q-17 0 -34 -6l-20 18l65 74q-88 9 -137 67t-49 154q0 72 34 145.5t101.5 122.5t161.5 49q100 0 157 -51.5t57 -136.5q0 -18 -2 -27h-146q2 10 2 19z" />
    <glyph glyph-name="egrave" unicode="&#xe8;" horiz-adv-x="573" 
d="M163 182q0 -51 25.5 -75t66.5 -24q38 0 67.5 20t40.5 51h143q-31 -73 -101 -121.5t-158 -48.5q-106 0 -161 57t-55 158q0 74 34.5 149.5t102 125.5t160.5 50q105 0 160 -55.5t55 -151.5q0 -40 -12 -92h-364q-4 -21 -4 -43zM243.5 397q-34.5 -28 -54.5 -84h222q2 16 2 22
q0 45 -25.5 67.5t-67.5 22.5t-76.5 -28zM429 566h-104l-110 146h167z" />
    <glyph glyph-name="eacute" unicode="&#xe9;" horiz-adv-x="573" 
d="M163 182q0 -51 25.5 -75t66.5 -24q38 0 67.5 20t40.5 51h143q-31 -73 -101 -121.5t-158 -48.5q-106 0 -161 57t-55 158q0 74 34.5 149.5t102 125.5t160.5 50q105 0 160 -55.5t55 -151.5q0 -40 -12 -92h-364q-4 -21 -4 -43zM243.5 397q-34.5 -28 -54.5 -84h222q2 16 2 22
q0 45 -25.5 67.5t-67.5 22.5t-76.5 -28zM259 566l107 146h179l-170 -146h-116z" />
    <glyph glyph-name="ecircumflex" unicode="&#xea;" horiz-adv-x="573" 
d="M163 182q0 -51 25.5 -75t66.5 -24q38 0 67.5 20t40.5 51h143q-31 -73 -101 -121.5t-158 -48.5q-106 0 -161 57t-55 158q0 74 34.5 149.5t102 125.5t160.5 50q105 0 160 -55.5t55 -151.5q0 -40 -12 -92h-364q-4 -21 -4 -43zM243.5 397q-34.5 -28 -54.5 -84h222q2 16 2 22
q0 45 -25.5 67.5t-67.5 22.5t-76.5 -28zM414 566l-42 76l-79 -76h-138l150 146h149l78 -146h-118z" />
    <glyph glyph-name="edieresis" unicode="&#xeb;" horiz-adv-x="573" 
d="M163 182q0 -51 25.5 -75t66.5 -24q38 0 67.5 20t40.5 51h143q-31 -73 -101 -121.5t-158 -48.5q-106 0 -161 57t-55 158q0 74 34.5 149.5t102 125.5t160.5 50q105 0 160 -55.5t55 -151.5q0 -40 -12 -92h-364q-4 -21 -4 -43zM243.5 397q-34.5 -28 -54.5 -84h222q2 16 2 22
q0 45 -25.5 67.5t-67.5 22.5t-76.5 -28zM180 592l30 120h123l-30 -120h-123zM397 592l30 120h123l-30 -120h-123z" />
    <glyph glyph-name="igrave" unicode="&#xec;" horiz-adv-x="276" 
d="M5 0l126 508h140l-126 -508h-140zM301 566h-104l-110 146h167z" />
    <glyph glyph-name="iacute" unicode="&#xed;" horiz-adv-x="276" 
d="M5 0l126 508h140l-126 -508h-140zM131 566l107 146h179l-170 -146h-116z" />
    <glyph glyph-name="icircumflex" unicode="&#xee;" horiz-adv-x="276" 
d="M5 0l126 508h140l-126 -508h-140zM279 567l-34 77l-72 -77h-131l139 145h141l67 -145h-110z" />
    <glyph glyph-name="idieresis" unicode="&#xef;" horiz-adv-x="276" 
d="M5 0l126 508h140l-126 -508h-140zM74 592l30 120h123l-30 -120h-123zM247 592l30 120h123l-30 -120h-123z" />
    <glyph glyph-name="eth" unicode="&#xf0;" horiz-adv-x="590" 
d="M533.5 480.5q28.5 -75.5 28.5 -154.5q0 -81 -36 -160t-106.5 -130.5t-168.5 -51.5q-103 0 -161 59t-59 163q1 67 35 137.5t98 117.5t150 47q39 0 70 -12l1 2q-25 42 -57 80l-144 -52l-22 60l120 44q-43 40 -44 41l114 57q30 -25 56 -53l133 49l22 -60l-111 -40
q53 -68 81.5 -143.5zM343 126.5q35 34.5 53.5 83.5t18.5 92q0 54 -23 84t-65 30q-46 0 -80 -35.5t-52 -86.5t-19 -96q1 -51 22.5 -78.5t61.5 -27.5q48 0 83 34.5z" />
    <glyph glyph-name="ntilde" unicode="&#xf1;" 
d="M517.5 481.5q40.5 -38.5 40.5 -111.5q0 -34 -10 -73l-74 -297h-140l73 294q7 28 7 52q0 64 -67 64q-45 0 -81 -35.5t-53 -102.5l-68 -272h-140l127 508h131l-14 -56h2q32 32 71 50t81 18q74 0 114.5 -38.5zM549.5 613q-37.5 -36 -87.5 -36q-25 0 -42.5 7t-36.5 20
q-16 10 -26.5 14.5t-23.5 4.5q-21 0 -35 -11t-22 -35h-80q17 63 55 99t88 36q25 0 42.5 -7t37.5 -20q16 -10 26 -14.5t23 -4.5q22 0 36 11t23 35h78q-18 -63 -55.5 -99z" />
    <glyph glyph-name="ograve" unicode="&#xf2;" horiz-adv-x="590" 
d="M499 465q58 -59 58 -165q0 -73 -35 -146t-103.5 -121.5t-162.5 -48.5q-108 0 -165.5 59t-57.5 165q0 72 35 145.5t103 122t161 48.5q109 0 167 -59zM241.5 382.5q-32.5 -33.5 -48.5 -81.5t-16 -92q0 -56 23 -86.5t68 -30.5q47 0 79.5 33.5t48.5 81.5t16 92q0 56 -23 86.5
t-68 30.5q-47 0 -79.5 -33.5zM438 566h-104l-110 146h167z" />
    <glyph glyph-name="oacute" unicode="&#xf3;" horiz-adv-x="590" 
d="M499 465q58 -59 58 -165q0 -73 -35 -146t-103.5 -121.5t-162.5 -48.5q-108 0 -165.5 59t-57.5 165q0 72 35 145.5t103 122t161 48.5q109 0 167 -59zM241.5 382.5q-32.5 -33.5 -48.5 -81.5t-16 -92q0 -56 23 -86.5t68 -30.5q47 0 79.5 33.5t48.5 81.5t16 92q0 56 -23 86.5
t-68 30.5q-47 0 -79.5 -33.5zM268 566l107 146h179l-170 -146h-116z" />
    <glyph glyph-name="ocircumflex" unicode="&#xf4;" horiz-adv-x="590" 
d="M499 465q58 -59 58 -165q0 -73 -35 -146t-103.5 -121.5t-162.5 -48.5q-108 0 -165.5 59t-57.5 165q0 72 35 145.5t103 122t161 48.5q109 0 167 -59zM241.5 382.5q-32.5 -33.5 -48.5 -81.5t-16 -92q0 -56 23 -86.5t68 -30.5q47 0 79.5 33.5t48.5 81.5t16 92q0 56 -23 86.5
t-68 30.5q-47 0 -79.5 -33.5zM423 566l-42 76l-79 -76h-138l150 146h149l78 -146h-118z" />
    <glyph glyph-name="otilde" unicode="&#xf5;" horiz-adv-x="590" 
d="M499 465q58 -59 58 -165q0 -73 -35 -146t-103.5 -121.5t-162.5 -48.5q-108 0 -165.5 59t-57.5 165q0 72 35 145.5t103 122t161 48.5q109 0 167 -59zM241.5 382.5q-32.5 -33.5 -48.5 -81.5t-16 -92q0 -56 23 -86.5t68 -30.5q47 0 79.5 33.5t48.5 81.5t16 92q0 56 -23 86.5
t-68 30.5q-47 0 -79.5 -33.5zM521.5 613q-37.5 -36 -87.5 -36q-25 0 -42.5 7t-36.5 20q-16 10 -26.5 14.5t-23.5 4.5q-21 0 -35 -11t-22 -35h-80q17 63 55 99t88 36q25 0 42.5 -7t37.5 -20q16 -10 26 -14.5t23 -4.5q22 0 36 11t23 35h78q-18 -63 -55.5 -99z" />
    <glyph glyph-name="odieresis" unicode="&#xf6;" horiz-adv-x="590" 
d="M499 465q58 -59 58 -165q0 -73 -35 -146t-103.5 -121.5t-162.5 -48.5q-108 0 -165.5 59t-57.5 165q0 72 35 145.5t103 122t161 48.5q109 0 167 -59zM241.5 382.5q-32.5 -33.5 -48.5 -81.5t-16 -92q0 -56 23 -86.5t68 -30.5q47 0 79.5 33.5t48.5 81.5t16 92q0 56 -23 86.5
t-68 30.5q-47 0 -79.5 -33.5zM189 592l30 120h123l-30 -120h-123zM406 592l30 120h123l-30 -120h-123z" />
    <glyph glyph-name="divide" unicode="&#xf7;" horiz-adv-x="566" 
d="M224 441v110h118v-110h-118zM64 262v109h438v-109h-438zM224 82v110h118v-110h-118z" />
    <glyph glyph-name="oslash" unicode="&#xf8;" horiz-adv-x="590" 
d="M557 300q0 -73 -35 -146t-103.5 -121.5t-162.5 -48.5q-89 0 -145 42l-61 -61l-46 46l63 63q-34 52 -34 134q0 72 35 145.5t103 122t161 48.5q88 0 145 -40l60 60l46 -46l-61 -61q35 -55 35 -137zM237 386.5q-34 -34.5 -51 -84t-17 -93.5q0 -11 2 -31l217 217
q-24 26 -67 26q-50 0 -84 -34.5zM352 121.5q34 34.5 51 84t17 93.5q0 18 -3 33l-218 -218q25 -27 69 -27q50 0 84 34.5z" />
    <glyph glyph-name="ugrave" unicode="&#xf9;" 
d="M82.5 26.5q-40.5 38.5 -40.5 111.5q0 34 10 73l74 297h140l-73 -294q-7 -28 -7 -52q0 -64 67 -64q45 0 81 35.5t53 102.5l68 272h140l-127 -508h-131l14 56h-2q-32 -32 -71 -50t-81 -18q-74 0 -114.5 38.5zM453 566h-104l-110 146h167z" />
    <glyph glyph-name="uacute" unicode="&#xfa;" 
d="M82.5 26.5q-40.5 38.5 -40.5 111.5q0 34 10 73l74 297h140l-73 -294q-7 -28 -7 -52q0 -64 67 -64q45 0 81 35.5t53 102.5l68 272h140l-127 -508h-131l14 56h-2q-32 -32 -71 -50t-81 -18q-74 0 -114.5 38.5zM283 566l107 146h179l-170 -146h-116z" />
    <glyph glyph-name="ucircumflex" unicode="&#xfb;" 
d="M82.5 26.5q-40.5 38.5 -40.5 111.5q0 34 10 73l74 297h140l-73 -294q-7 -28 -7 -52q0 -64 67 -64q45 0 81 35.5t53 102.5l68 272h140l-127 -508h-131l14 56h-2q-32 -32 -71 -50t-81 -18q-74 0 -114.5 38.5zM438 566l-42 76l-79 -76h-138l150 146h149l78 -146h-118z" />
    <glyph glyph-name="udieresis" unicode="&#xfc;" 
d="M82.5 26.5q-40.5 38.5 -40.5 111.5q0 34 10 73l74 297h140l-73 -294q-7 -28 -7 -52q0 -64 67 -64q45 0 81 35.5t53 102.5l68 272h140l-127 -508h-131l14 56h-2q-32 -32 -71 -50t-81 -18q-74 0 -114.5 38.5zM204 592l30 120h123l-30 -120h-123zM421 592l30 120h123
l-30 -120h-123z" />
    <glyph glyph-name="yacute" unicode="&#xfd;" horiz-adv-x="504" 
d="M179 -115.5q-42 -40.5 -90 -58t-113 -17.5q-39 0 -71 8l28 112q21 -8 52 -8q53 0 85 31.5t32 78.5q0 17 -5 64l-41 413h138l12 -170q8 -117 7 -213h2q57 122 108 213l95 170h156l-309 -511q-44 -72 -86 -112.5zM225 566l107 146h179l-170 -146h-116z" />
    <glyph glyph-name="thorn" unicode="&#xfe;" horiz-adv-x="598" 
d="M263 467q28 26 62.5 40t67.5 14q84 0 130 -52.5t46 -145.5q0 -75 -33 -153.5t-95.5 -130.5t-146.5 -52q-46 0 -80.5 20.5t-50.5 57.5h-2l-62 -250h-140l223 897h140l-61 -245h2zM263 381.5q-32 -32.5 -49 -80.5t-17 -95q0 -53 21.5 -82.5t60.5 -29.5q44 0 76 32.5
t49 80.5t17 95q0 53 -21.5 82.5t-60.5 29.5q-44 0 -76 -32.5z" />
    <glyph glyph-name="ydieresis" unicode="&#xff;" horiz-adv-x="504" 
d="M179 -115.5q-42 -40.5 -90 -58t-113 -17.5q-39 0 -71 8l28 112q21 -8 52 -8q53 0 85 31.5t32 78.5q0 17 -5 64l-41 413h138l12 -170q8 -117 7 -213h2q57 122 108 213l95 170h156l-309 -511q-44 -72 -86 -112.5zM146 592l30 120h123l-30 -120h-123zM363 592l30 120h123
l-30 -120h-123z" />
    <glyph glyph-name="Amacron" unicode="&#x100;" horiz-adv-x="698" 
d="M203 174l-99 -174h-164l424 712h198l70 -712h-144l-12 174h-273zM464 347q-10 160 -13 278h-2q-70 -140 -148 -278l-27 -47h193zM317 778l22 91h326l-22 -91h-326z" />
    <glyph glyph-name="amacron" unicode="&#x101;" horiz-adv-x="547" 
d="M506 366q0 -31 -9 -67l-40 -160q-22 -90 -21 -139h-122q0 31 8 59h-2q-72 -71 -171 -71q-73 0 -112.5 36.5t-39.5 98.5q0 65 52.5 113.5t178.5 67.5q71 10 138 14l3 12q5 20 5 33q0 32 -19 47.5t-53 15.5q-37 0 -62 -20.5t-33 -56.5h-136q17 76 80 125.5t160 49.5
q195 0 195 -158zM240 222q-98 -16 -98 -80q0 -25 16.5 -39.5t47.5 -14.5q51 0 84 29t47 84l8 32q-59 -4 -105 -11zM174 598l22 91h326l-22 -91h-326z" />
    <glyph glyph-name="Abreve" unicode="&#x102;" horiz-adv-x="698" 
d="M203 174l-99 -174h-164l424 712h198l70 -712h-144l-12 174h-273zM464 347q-10 160 -13 278h-2q-70 -140 -148 -278l-27 -47h193zM612 794.5q-55 -39.5 -133 -39.5q-68 0 -106 32.5t-38 90.5q0 8 2 28h83q-1 -5 -1 -13q0 -24 17.5 -37.5t49.5 -13.5q36 0 61 17t33 47h107
q-20 -72 -75 -111.5z" />
    <glyph glyph-name="abreve" unicode="&#x103;" horiz-adv-x="547" 
d="M506 366q0 -31 -9 -67l-40 -160q-22 -90 -21 -139h-122q0 31 8 59h-2q-72 -71 -171 -71q-73 0 -112.5 36.5t-39.5 98.5q0 65 52.5 113.5t178.5 67.5q71 10 138 14l3 12q5 20 5 33q0 32 -19 47.5t-53 15.5q-37 0 -62 -20.5t-33 -56.5h-136q17 76 80 125.5t160 49.5
q195 0 195 -158zM240 222q-98 -16 -98 -80q0 -25 16.5 -39.5t47.5 -14.5q51 0 84 29t47 84l8 32q-59 -4 -105 -11zM465 600.5q-55 -39.5 -133 -39.5q-68 0 -106 32.5t-38 90.5q0 8 2 28h83q-1 -5 -1 -13q0 -24 17.5 -37.5t49.5 -13.5q36 0 61 17t33 47h107
q-20 -72 -75 -111.5z" />
    <glyph glyph-name="Aogonek" unicode="&#x104;" horiz-adv-x="698" 
d="M203 174l-99 -174h-164l424 712h198l70 -712h-144l-12 174h-273zM464 347q-10 160 -13 278h-2q-70 -140 -148 -278l-27 -47h193zM560.5 -53.5q-19.5 -22.5 -19.5 -44.5q0 -21 28 -21q21 0 37 6l-19 -75q-32 -9 -69 -9q-51 0 -77 19.5t-26 55.5q0 33 26 63t81 59h110
q-52 -31 -71.5 -53.5z" />
    <glyph glyph-name="aogonek" unicode="&#x105;" horiz-adv-x="547" 
d="M506 366q0 -31 -9 -67l-40 -160q-22 -90 -21 -139q-52 -31 -71.5 -53.5t-19.5 -44.5q0 -21 28 -21q21 0 37 6l-19 -75q-32 -9 -69 -9q-51 0 -77 19.5t-26 55.5q0 33 26 63t81 59h-12q0 31 8 59h-2q-72 -71 -171 -71q-73 0 -112.5 36.5t-39.5 98.5q0 65 52.5 113.5
t178.5 67.5q71 10 138 14l3 12q5 20 5 33q0 32 -19 47.5t-53 15.5q-37 0 -62 -20.5t-33 -56.5h-136q17 76 80 125.5t160 49.5q195 0 195 -158zM290 117q33 29 47 84l8 32q-59 -4 -105 -11q-98 -16 -98 -80q0 -25 16.5 -39.5t47.5 -14.5q51 0 84 29z" />
    <glyph glyph-name="Cacute" unicode="&#x106;" horiz-adv-x="702" 
d="M589 699q58 -29 89 -81.5t31 -122.5q0 -24 -4 -44h-148q2 18 2 28q0 56 -31.5 87.5t-87.5 31.5q-72 0 -124.5 -49t-79 -122.5t-26.5 -144.5q0 -77 33 -122.5t97 -45.5q55 0 101 32.5t68 89.5h151q-37 -119 -125.5 -185.5t-207.5 -66.5q-128 0 -198.5 77.5t-70.5 210.5
q0 107 45 212.5t134.5 174.5t215.5 69q78 0 136 -29zM385 760l108 146h179l-171 -146h-116z" />
    <glyph glyph-name="cacute" unicode="&#x107;" horiz-adv-x="562" 
d="M487 472.5q57 -51.5 57 -136.5q0 -18 -2 -27h-146q2 10 2 19q0 41 -20 64.5t-56 23.5q-45 0 -78 -34.5t-50.5 -83.5t-17.5 -90q0 -55 21.5 -85.5t62.5 -30.5q37 0 67.5 26t43.5 71h147q-29 -93 -101.5 -149t-164.5 -56q-103 0 -161 59t-58 164q0 72 34 145.5t101.5 122.5
t161.5 49q100 0 157 -51.5zM264 566l107 146h179l-170 -146h-116z" />
    <glyph glyph-name="Ccircumflex" unicode="&#x108;" horiz-adv-x="702" 
d="M589 699q58 -29 89 -81.5t31 -122.5q0 -24 -4 -44h-148q2 18 2 28q0 56 -31.5 87.5t-87.5 31.5q-72 0 -124.5 -49t-79 -122.5t-26.5 -144.5q0 -77 33 -122.5t97 -45.5q55 0 101 32.5t68 89.5h151q-37 -119 -125.5 -185.5t-207.5 -66.5q-128 0 -198.5 77.5t-70.5 210.5
q0 107 45 212.5t134.5 174.5t215.5 69q78 0 136 -29zM581 906l77 -146h-114l-42 76l-79 -76h-142l151 146h149z" />
    <glyph glyph-name="ccircumflex" unicode="&#x109;" horiz-adv-x="562" 
d="M487 472.5q57 -51.5 57 -136.5q0 -18 -2 -27h-146q2 10 2 19q0 41 -20 64.5t-56 23.5q-45 0 -78 -34.5t-50.5 -83.5t-17.5 -90q0 -55 21.5 -85.5t62.5 -30.5q37 0 67.5 26t43.5 71h147q-29 -93 -101.5 -149t-164.5 -56q-103 0 -161 59t-58 164q0 72 34 145.5t101.5 122.5
t161.5 49q100 0 157 -51.5zM419 566l-42 76l-79 -76h-138l150 146h149l78 -146h-118z" />
    <glyph glyph-name="Cdotaccent" unicode="&#x10a;" horiz-adv-x="702" 
d="M589 699q58 -29 89 -81.5t31 -122.5q0 -24 -4 -44h-148q2 18 2 28q0 56 -31.5 87.5t-87.5 31.5q-72 0 -124.5 -49t-79 -122.5t-26.5 -144.5q0 -77 33 -122.5t97 -45.5q55 0 101 32.5t68 89.5h151q-37 -119 -125.5 -185.5t-207.5 -66.5q-128 0 -198.5 77.5t-70.5 210.5
q0 107 45 212.5t134.5 174.5t215.5 69q78 0 136 -29zM402 769l30 120h140l-30 -120h-140z" />
    <glyph glyph-name="cdotaccent" unicode="&#x10b;" horiz-adv-x="562" 
d="M487 472.5q57 -51.5 57 -136.5q0 -18 -2 -27h-146q2 10 2 19q0 41 -20 64.5t-56 23.5q-45 0 -78 -34.5t-50.5 -83.5t-17.5 -90q0 -55 21.5 -85.5t62.5 -30.5q37 0 67.5 26t43.5 71h147q-29 -93 -101.5 -149t-164.5 -56q-103 0 -161 59t-58 164q0 72 34 145.5t101.5 122.5
t161.5 49q100 0 157 -51.5zM285 592l30 120h140l-30 -120h-140z" />
    <glyph glyph-name="Ccaron" unicode="&#x10c;" horiz-adv-x="702" 
d="M589 699q58 -29 89 -81.5t31 -122.5q0 -24 -4 -44h-148q2 18 2 28q0 56 -31.5 87.5t-87.5 31.5q-72 0 -124.5 -49t-79 -122.5t-26.5 -144.5q0 -77 33 -122.5t97 -45.5q55 0 101 32.5t68 89.5h151q-37 -119 -125.5 -185.5t-207.5 -66.5q-128 0 -198.5 77.5t-70.5 210.5
q0 107 45 212.5t134.5 174.5t215.5 69q78 0 136 -29zM395 760l-77 146h114l42 -76l79 76h142l-151 -146h-149z" />
    <glyph glyph-name="ccaron" unicode="&#x10d;" horiz-adv-x="562" 
d="M487 472.5q57 -51.5 57 -136.5q0 -18 -2 -27h-146q2 10 2 19q0 41 -20 64.5t-56 23.5q-45 0 -78 -34.5t-50.5 -83.5t-17.5 -90q0 -55 21.5 -85.5t62.5 -30.5q37 0 67.5 26t43.5 71h147q-29 -93 -101.5 -149t-164.5 -56q-103 0 -161 59t-58 164q0 72 34 145.5t101.5 122.5
t161.5 49q100 0 157 -51.5zM274 566l-78 146h118l42 -76l79 76h138l-150 -146h-149z" />
    <glyph glyph-name="Dcaron" unicode="&#x10e;" horiz-adv-x="734" 
d="M637 633.5q86 -78.5 86 -227.5q0 -99 -47.5 -192.5t-146.5 -153.5t-243 -60h-267l177 712h187q168 0 254 -78.5zM196 126h99q96 0 158 41t90 102.5t28 127.5q0 95 -48 142t-147 47h-65zM385 760l-77 146h114l42 -76l79 76h142l-151 -146h-149z" />
    <glyph glyph-name="dcaron" unicode="&#x10f;" horiz-adv-x="596" 
d="M329 0l12 46h-2q-29 -28 -64.5 -43.5t-70.5 -15.5q-84 0 -130 52.5t-46 145.5q0 75 33 153.5t95.5 130.5t146.5 52q46 0 80.5 -20.5t50.5 -57.5h2l66 269h140l-177 -712h-136zM242 381.5q-32 -32.5 -49 -80.5t-17 -95q0 -53 21.5 -82.5t60.5 -29.5q44 0 76 32.5t49 80.5
t17 95q0 53 -21.5 82.5t-60.5 29.5q-44 0 -76 -32.5zM627 535l70 177h111l-102 -177h-79z" />
    <glyph glyph-name="Dcroat" unicode="&#x110;" horiz-adv-x="735" 
d="M637 633.5q86 -78.5 86 -227.5q0 -99 -47.5 -192.5t-146.5 -153.5t-243 -60h-267l76 307h-64l27 106h64l74 299h187q168 0 254 -78.5zM453 167q62 41 90 102.5t28 127.5q0 95 -48 142t-147 47h-65l-43 -173h166l-27 -106h-166l-45 -181h99q96 0 158 41z" />
    <glyph glyph-name="dcroat" unicode="&#x111;" horiz-adv-x="590" 
d="M608 576l-143 -576h-136l12 46h-2q-29 -28 -64.5 -43.5t-70.5 -15.5q-84 0 -130 52.5t-46 145.5q0 75 33 153.5t95.5 130.5t146.5 52q46 0 80.5 -20.5t50.5 -57.5h2l33 133h-119l18 72h118l16 64h140l-16 -64h68l-18 -72h-68zM334 126.5q32 32.5 49 80.5t17 95
q0 53 -21.5 82.5t-60.5 29.5q-44 0 -76 -32.5t-49 -80.5t-17 -95q0 -53 21.5 -82.5t60.5 -29.5q44 0 76 32.5z" />
    <glyph glyph-name="Emacron" unicode="&#x112;" horiz-adv-x="633" 
d="M312 586l-40 -161h322l-32 -125h-322l-43 -174h354l-31 -126h-501l177 712h492l-31 -126h-345zM286 778l22 91h326l-22 -91h-326z" />
    <glyph glyph-name="emacron" unicode="&#x113;" horiz-adv-x="573" 
d="M163 182q0 -51 25.5 -75t66.5 -24q38 0 67.5 20t40.5 51h143q-31 -73 -101 -121.5t-158 -48.5q-106 0 -161 57t-55 158q0 74 34.5 149.5t102 125.5t160.5 50q105 0 160 -55.5t55 -151.5q0 -40 -12 -92h-364q-4 -21 -4 -43zM243.5 397q-34.5 -28 -54.5 -84h222q2 16 2 22
q0 45 -25.5 67.5t-67.5 22.5t-76.5 -28zM189 598l22 91h326l-22 -91h-326z" />
    <glyph glyph-name="Ebreve" unicode="&#x114;" horiz-adv-x="633" 
d="M312 586l-40 -161h322l-32 -125h-322l-43 -174h354l-31 -126h-501l177 712h492l-31 -126h-345zM581 794.5q-55 -39.5 -133 -39.5q-68 0 -106 32.5t-38 90.5q0 8 2 28h83q-1 -5 -1 -13q0 -24 17.5 -37.5t49.5 -13.5q36 0 61 17t33 47h107q-20 -72 -75 -111.5z" />
    <glyph glyph-name="ebreve" unicode="&#x115;" horiz-adv-x="573" 
d="M163 182q0 -51 25.5 -75t66.5 -24q38 0 67.5 20t40.5 51h143q-31 -73 -101 -121.5t-158 -48.5q-106 0 -161 57t-55 158q0 74 34.5 149.5t102 125.5t160.5 50q105 0 160 -55.5t55 -151.5q0 -40 -12 -92h-364q-4 -21 -4 -43zM243.5 397q-34.5 -28 -54.5 -84h222q2 16 2 22
q0 45 -25.5 67.5t-67.5 22.5t-76.5 -28zM480 600.5q-55 -39.5 -133 -39.5q-68 0 -106 32.5t-38 90.5q0 8 2 28h83q-1 -5 -1 -13q0 -24 17.5 -37.5t49.5 -13.5q36 0 61 17t33 47h107q-20 -72 -75 -111.5z" />
    <glyph glyph-name="Edotaccent" unicode="&#x116;" horiz-adv-x="633" 
d="M312 586l-40 -161h322l-32 -125h-322l-43 -174h354l-31 -126h-501l177 712h492l-31 -126h-345zM376 769l30 120h140l-30 -120h-140z" />
    <glyph glyph-name="edotaccent" unicode="&#x117;" horiz-adv-x="573" 
d="M163 182q0 -51 25.5 -75t66.5 -24q38 0 67.5 20t40.5 51h143q-31 -73 -101 -121.5t-158 -48.5q-106 0 -161 57t-55 158q0 74 34.5 149.5t102 125.5t160.5 50q105 0 160 -55.5t55 -151.5q0 -40 -12 -92h-364q-4 -21 -4 -43zM243.5 397q-34.5 -28 -54.5 -84h222q2 16 2 22
q0 45 -25.5 67.5t-67.5 22.5t-76.5 -28zM280 592l30 120h140l-30 -120h-140z" />
    <glyph glyph-name="Eogonek" unicode="&#x118;" horiz-adv-x="633" 
d="M312 586l-40 -161h322l-32 -125h-322l-43 -174h354l-31 -126h-501l177 712h492l-31 -126h-345zM448.5 -53.5q-19.5 -22.5 -19.5 -44.5q0 -21 28 -21q21 0 37 6l-19 -75q-32 -9 -69 -9q-51 0 -77 19.5t-26 55.5q0 33 26 63t81 59h110q-52 -31 -71.5 -53.5z" />
    <glyph glyph-name="eogonek" unicode="&#x119;" horiz-adv-x="573" 
d="M163 182q0 -51 25.5 -75t66.5 -24q38 0 67.5 20t40.5 51h143q-16 -38 -45 -70.5t-70 -64.5q-53 -40 -72 -66t-19 -51q0 -21 28 -21q20 0 37 6l-19 -75q-32 -9 -69 -9q-51 0 -77 19.5t-26 55.5q0 29 18.5 54t57.5 50v2h-3q-106 0 -161 57t-55 158q0 74 34.5 149.5
t102 125.5t160.5 50q105 0 160 -55.5t55 -151.5q0 -40 -12 -92h-364q-4 -21 -4 -43zM243.5 397q-34.5 -28 -54.5 -84h222q2 16 2 22q0 45 -25.5 67.5t-67.5 22.5t-76.5 -28z" />
    <glyph glyph-name="Ecaron" unicode="&#x11a;" horiz-adv-x="633" 
d="M312 586l-40 -161h322l-32 -125h-322l-43 -174h354l-31 -126h-501l177 712h492l-31 -126h-345zM369 760l-77 146h114l42 -76l79 76h142l-151 -146h-149z" />
    <glyph glyph-name="ecaron" unicode="&#x11b;" horiz-adv-x="573" 
d="M163 182q0 -51 25.5 -75t66.5 -24q38 0 67.5 20t40.5 51h143q-31 -73 -101 -121.5t-158 -48.5q-106 0 -161 57t-55 158q0 74 34.5 149.5t102 125.5t160.5 50q105 0 160 -55.5t55 -151.5q0 -40 -12 -92h-364q-4 -21 -4 -43zM243.5 397q-34.5 -28 -54.5 -84h222q2 16 2 22
q0 45 -25.5 67.5t-67.5 22.5t-76.5 -28zM269 566l-78 146h118l42 -76l79 76h138l-150 -146h-149z" />
    <glyph glyph-name="Gcircumflex" unicode="&#x11c;" horiz-adv-x="744" 
d="M663 669.5q67 -58.5 67 -161.5q0 -16 -3 -34h-158q1 5 1 14q0 53 -30.5 81.5t-86.5 28.5q-77 0 -132.5 -49t-84 -124.5t-28.5 -151.5q0 -80 34 -125.5t102 -45.5q66 0 117.5 41t70.5 112h-169l30 120h306l-93 -375h-124l15 61h-2q-36 -35 -86.5 -55t-108.5 -20
q-114 0 -178 76t-64 205q0 111 48 217.5t142 175t226 68.5q122 0 189 -58.5zM584 906l77 -146h-114l-42 76l-79 -76h-142l151 146h149z" />
    <glyph glyph-name="gcircumflex" unicode="&#x11d;" horiz-adv-x="591" 
d="M381.5 497.5q35.5 -24.5 51.5 -65.5h2l19 76h132l-126 -508q-24 -96 -95.5 -145t-174.5 -49t-155 35t-52 100q0 12 3 27h136q-1 -4 -1 -12q0 -24 20 -37t57 -13q49 0 82 26t49 89l9 37h-2q-31 -27 -64 -39.5t-71 -12.5q-80 0 -124 53.5t-44 148.5q0 70 31 143t90 122
t138 49q54 0 89.5 -24.5zM241 378q-29 -29 -44.5 -70.5t-15.5 -78.5q0 -50 21.5 -79t59.5 -29q41 0 71.5 28t46 69t15.5 80q0 51 -23 80t-63 29q-39 0 -68 -29zM425 566l-42 76l-79 -76h-138l150 146h149l78 -146h-118z" />
    <glyph glyph-name="Gbreve" unicode="&#x11e;" horiz-adv-x="744" 
d="M663 669.5q67 -58.5 67 -161.5q0 -16 -3 -34h-158q1 5 1 14q0 53 -30.5 81.5t-86.5 28.5q-77 0 -132.5 -49t-84 -124.5t-28.5 -151.5q0 -80 34 -125.5t102 -45.5q66 0 117.5 41t70.5 112h-169l30 120h306l-93 -375h-124l15 61h-2q-36 -35 -86.5 -55t-108.5 -20
q-114 0 -178 76t-64 205q0 111 48 217.5t142 175t226 68.5q122 0 189 -58.5zM610 794.5q-55 -39.5 -133 -39.5q-68 0 -106 32.5t-38 90.5q0 8 2 28h83q-1 -5 -1 -13q0 -24 17.5 -37.5t49.5 -13.5q36 0 61 17t33 47h107q-20 -72 -75 -111.5z" />
    <glyph glyph-name="gbreve" unicode="&#x11f;" horiz-adv-x="591" 
d="M381.5 497.5q35.5 -24.5 51.5 -65.5h2l19 76h132l-126 -508q-24 -96 -95.5 -145t-174.5 -49t-155 35t-52 100q0 12 3 27h136q-1 -4 -1 -12q0 -24 20 -37t57 -13q49 0 82 26t49 89l9 37h-2q-31 -27 -64 -39.5t-71 -12.5q-80 0 -124 53.5t-44 148.5q0 70 31 143t90 122
t138 49q54 0 89.5 -24.5zM241 378q-29 -29 -44.5 -70.5t-15.5 -78.5q0 -50 21.5 -79t59.5 -29q41 0 71.5 28t46 69t15.5 80q0 51 -23 80t-63 29q-39 0 -68 -29zM491 600.5q-55 -39.5 -133 -39.5q-68 0 -106 32.5t-38 90.5q0 8 2 28h83q-1 -5 -1 -13q0 -24 17.5 -37.5
t49.5 -13.5q36 0 61 17t33 47h107q-20 -72 -75 -111.5z" />
    <glyph glyph-name="Gdotaccent" unicode="&#x120;" horiz-adv-x="744" 
d="M663 669.5q67 -58.5 67 -161.5q0 -16 -3 -34h-158q1 5 1 14q0 53 -30.5 81.5t-86.5 28.5q-77 0 -132.5 -49t-84 -124.5t-28.5 -151.5q0 -80 34 -125.5t102 -45.5q66 0 117.5 41t70.5 112h-169l30 120h306l-93 -375h-124l15 61h-2q-36 -35 -86.5 -55t-108.5 -20
q-114 0 -178 76t-64 205q0 111 48 217.5t142 175t226 68.5q122 0 189 -58.5zM405 769l30 120h140l-30 -120h-140z" />
    <glyph glyph-name="gdotaccent" unicode="&#x121;" horiz-adv-x="591" 
d="M381.5 497.5q35.5 -24.5 51.5 -65.5h2l19 76h132l-126 -508q-24 -96 -95.5 -145t-174.5 -49t-155 35t-52 100q0 12 3 27h136q-1 -4 -1 -12q0 -24 20 -37t57 -13q49 0 82 26t49 89l9 37h-2q-31 -27 -64 -39.5t-71 -12.5q-80 0 -124 53.5t-44 148.5q0 70 31 143t90 122
t138 49q54 0 89.5 -24.5zM241 378q-29 -29 -44.5 -70.5t-15.5 -78.5q0 -50 21.5 -79t59.5 -29q41 0 71.5 28t46 69t15.5 80q0 51 -23 80t-63 29q-39 0 -68 -29zM291 592l30 120h140l-30 -120h-140z" />
    <glyph glyph-name="Gcommaaccent" unicode="&#x122;" horiz-adv-x="744" 
d="M663 669.5q67 -58.5 67 -161.5q0 -16 -3 -34h-158q1 5 1 14q0 53 -30.5 81.5t-86.5 28.5q-77 0 -132.5 -49t-84 -124.5t-28.5 -151.5q0 -80 34 -125.5t102 -45.5q66 0 117.5 41t70.5 112h-169l30 120h306l-93 -375h-124l15 61h-2q-36 -35 -86.5 -55t-108.5 -20
q-114 0 -178 76t-64 205q0 111 48 217.5t142 175t226 68.5q122 0 189 -58.5zM229 -270h-56l72 107h-45l26 104h124l-26 -104z" />
    <glyph glyph-name="gcommaaccent" unicode="&#x123;" horiz-adv-x="591" 
d="M381.5 497.5q35.5 -24.5 51.5 -65.5h2l19 76h132l-126 -508q-24 -96 -95.5 -145t-174.5 -49t-155 35t-52 100q0 12 3 27h136q-1 -4 -1 -12q0 -24 20 -37t57 -13q49 0 82 26t49 89l9 37h-2q-31 -27 -64 -39.5t-71 -12.5q-80 0 -124 53.5t-44 148.5q0 70 31 143t90 122
t138 49q54 0 89.5 -24.5zM241 378q-29 -29 -44.5 -70.5t-15.5 -78.5q0 -50 21.5 -79t59.5 -29q41 0 71.5 28t46 69t15.5 80q0 51 -23 80t-63 29q-39 0 -68 -29zM445 681l-25 -104h-124l25 104l95 107h56l-72 -107h45z" />
    <glyph glyph-name="Hcircumflex" unicode="&#x124;" horiz-adv-x="750" 
d="M458 0l76 307h-292l-76 -307h-147l177 712h147l-69 -279h292l69 279h147l-177 -712h-147zM612 906l77 -146h-114l-42 76l-79 -76h-142l151 146h149z" />
    <glyph glyph-name="hcircumflex" unicode="&#x125;" 
d="M261 461q64 59 142 59q73 0 114 -38.5t41 -111.5q0 -34 -10 -73l-74 -297h-140l73 294q7 28 7 52q0 64 -67 64q-45 0 -81 -35.5t-53 -102.5l-68 -272h-140l177 712h140l-63 -251h2zM536 906l77 -146h-114l-42 76l-79 -76h-142l151 146h149z" />
    <glyph glyph-name="Hbar" unicode="&#x126;" horiz-adv-x="750" 
d="M746 568l-141 -568h-147l76 307h-292l-76 -307h-147l141 568h-55l18 72h55l18 72h147l-18 -72h292l18 72h147l-18 -72h55l-18 -72h-55zM307 568l-33 -135h292l33 135h-292z" />
    <glyph glyph-name="hbar" unicode="&#x127;" 
d="M517 481.5q41 -38.5 41 -111.5q0 -34 -10 -73l-74 -297h-140l73 294q7 28 7 52q0 64 -67 64q-45 0 -81 -35.5t-53 -102.5l-68 -272h-140l143 576h-74l16 64h74l18 72h140l-18 -72h112l-16 -64h-112l-29 -115h2q64 59 142 59q73 0 114 -38.5z" />
    <glyph glyph-name="Itilde" unicode="&#x128;" horiz-adv-x="311" 
d="M19 0l177 712h147l-177 -712h-147zM451.5 807q-37.5 -36 -87.5 -36q-25 0 -42.5 7t-37.5 20q-16 10 -26.5 14.5t-23.5 4.5q-21 0 -35 -11t-22 -35h-80q17 63 55 99t88 36q25 0 43 -7t38 -20q16 -10 26 -14.5t23 -4.5q22 0 36 11t23 35h78q-18 -63 -55.5 -99z" />
    <glyph glyph-name="itilde" unicode="&#x129;" horiz-adv-x="276" 
d="M5 0l126 508h140l-126 -508h-140zM368 612.5q-35 -35.5 -81 -35.5q-22 0 -36.5 7t-33.5 20q-14 10 -23 14.5t-20 4.5q-18 0 -29.5 -11t-19.5 -35h-77q18 63 53 99t82 36q22 0 37.5 -7t32.5 -20q13 -10 22.5 -14.5t20.5 -4.5q18 0 30 11t20 35h76q-19 -64 -54 -99.5z" />
    <glyph glyph-name="Imacron" unicode="&#x12a;" horiz-adv-x="311" 
d="M19 0l177 712h147l-177 -712h-147zM124 778l22 91h326l-22 -91h-326z" />
    <glyph glyph-name="imacron" unicode="&#x12b;" horiz-adv-x="276" 
d="M5 0l126 508h140l-126 -508h-140zM80 598l23 91h286l-23 -91h-286z" />
    <glyph glyph-name="Ibreve" unicode="&#x12c;" horiz-adv-x="311" 
d="M19 0l177 712h147l-177 -712h-147zM419 794.5q-55 -39.5 -133 -39.5q-68 0 -106 32.5t-38 90.5q0 8 2 28h83q-1 -5 -1 -13q0 -24 17.5 -37.5t49.5 -13.5q36 0 61 17t33 47h107q-20 -72 -75 -111.5z" />
    <glyph glyph-name="ibreve" unicode="&#x12d;" horiz-adv-x="276" 
d="M5 0l126 508h140l-126 -508h-140zM341 600.5q-51 -39.5 -122 -39.5q-61 0 -95 31.5t-34 87.5q0 17 3 32h81q-1 -5 -1 -15q0 -23 14 -36t41 -13q31 0 52.5 17t29.5 47h101q-19 -72 -70 -111.5z" />
    <glyph glyph-name="Iogonek" unicode="&#x12e;" horiz-adv-x="311" 
d="M19 0l177 712h147l-177 -712h-147zM94.5 -53.5q-19.5 -22.5 -19.5 -44.5q0 -21 28 -21q21 0 37 6l-19 -75q-32 -9 -69 -9q-51 0 -77 19.5t-26 55.5q0 33 26 63t81 59h110q-52 -31 -71.5 -53.5z" />
    <glyph glyph-name="iogonek" unicode="&#x12f;" horiz-adv-x="276" 
d="M292 592h-140l30 120h140zM271 508l-126 -508q-52 -31 -71.5 -53.5t-19.5 -44.5q0 -21 28 -21q21 0 37 6l-19 -75q-32 -9 -69 -9q-51 0 -77 19.5t-26 55.5q0 33 26 63t81 59h-30l126 508h140z" />
    <glyph glyph-name="Idotaccent" unicode="&#x130;" horiz-adv-x="311" 
d="M19 0l177 712h147l-177 -712h-147zM214 769l30 120h140l-30 -120h-140z" />
    <glyph glyph-name="dotlessi" unicode="&#x131;" horiz-adv-x="276" 
d="M5 0l126 508h140l-126 -508h-140z" />
    <glyph glyph-name="IJ" unicode="&#x132;" horiz-adv-x="703" 
d="M19 0l177 712h147l-177 -712h-147zM520 46q-67 -53 -184 -53q-41 0 -73 10l31 123q22 -5 40 -5q40 0 67 12t47 43.5t34 89.5l111 446h147l-125 -501q-28 -112 -95 -165z" />
    <glyph glyph-name="ij" unicode="&#x133;" horiz-adv-x="554" 
d="M152 592l30 120h140l-30 -120h-140zM430 592l30 120h140l-30 -120h-140zM5 0l126 508h140l-126 -508h-140zM340.5 -150.5q-54.5 -39.5 -130.5 -39.5q-44 0 -75 9l25 100q11 -3 23 -3q41 0 65.5 22.5t38.5 79.5l122 490h140l-133 -535q-21 -84 -75.5 -123.5z" />
    <glyph glyph-name="Jcircumflex" unicode="&#x134;" horiz-adv-x="392" 
d="M209 46q-67 -53 -184 -53q-41 0 -73 10l31 123q22 -5 40 -5q40 0 67 12t47 43.5t34 89.5l111 446h147l-125 -501q-28 -112 -95 -165zM479 906l77 -146h-114l-42 76l-79 -76h-142l151 146h149z" />
    <glyph glyph-name="jcircumflex" unicode="&#x135;" horiz-adv-x="278" 
d="M64.5 -150.5q-54.5 -39.5 -130.5 -39.5q-43 0 -75 9l25 100q11 -3 23 -3q41 0 65.5 22.5t38.5 79.5l122 490h140l-133 -535q-21 -84 -75.5 -123.5zM281 567l-34 77l-72 -77h-131l139 145h141l67 -145h-110z" />
    <glyph glyph-name="Kcommaaccent" unicode="&#x136;" horiz-adv-x="663" 
d="M596 0h-171l-171 348h-2l-86 -348h-147l177 712h147l-75 -301h2l292 301h188l-357 -345zM195 -270h-56l72 107h-45l26 104h124l-26 -104z" />
    <glyph glyph-name="kcommaaccent" unicode="&#x137;" horiz-adv-x="543" 
d="M490 0h-153l-129 244h-2l-61 -244h-140l177 712h140l-100 -403h2l193 199h178l-253 -245zM164 -270h-56l72 107h-45l26 104h124l-26 -104z" />
    <glyph glyph-name="kgreenlandic" unicode="&#x138;" horiz-adv-x="560" 
d="M490 0h-153l-129 244h-2l-61 -244h-140l126 508h140l-49 -199h2l193 199h178l-253 -245z" />
    <glyph glyph-name="Lacute" unicode="&#x139;" horiz-adv-x="575" 
d="M533 126l-31 -126h-483l177 712h147l-146 -586h336zM226 760l108 146h179l-171 -146h-116z" />
    <glyph glyph-name="lacute" unicode="&#x13a;" horiz-adv-x="276" 
d="M5 0l177 712h140l-177 -712h-140zM197 770l107 146h179l-170 -146h-116z" />
    <glyph glyph-name="Lcommaaccent" unicode="&#x13b;" horiz-adv-x="575" 
d="M533 126l-31 -126h-483l177 712h147l-146 -586h336zM187 -270h-56l72 107h-45l26 104h124l-26 -104z" />
    <glyph glyph-name="lcommaaccent" unicode="&#x13c;" horiz-adv-x="276" 
d="M5 0l177 712h140l-177 -712h-140zM6 -270h-56l72 107h-45l26 104h124l-26 -104z" />
    <glyph glyph-name="Lcaron" unicode="&#x13d;" horiz-adv-x="575" 
d="M533 126l-31 -126h-483l177 712h147l-146 -586h336zM327 488l82 224h111l-114 -224h-79z" />
    <glyph glyph-name="lcaron" unicode="&#x13e;" horiz-adv-x="276" 
d="M5 0l177 712h140l-177 -712h-140zM306 535l70 177h111l-102 -177h-79z" />
    <glyph glyph-name="Ldot" unicode="&#x13f;" horiz-adv-x="655" 
d="M533 126l-31 -126h-483l177 712h147l-146 -586h336zM422 348l41 167h154l-41 -167h-154z" />
    <glyph glyph-name="ldot" unicode="&#x140;" horiz-adv-x="504" 
d="M5 0l177 712h140l-177 -712h-140zM317 272l41 167h154l-41 -167h-154z" />
    <glyph glyph-name="Lslash" unicode="&#x141;" horiz-adv-x="575" 
d="M502 0h-483l68 273l-80 -41l34 135l80 41l75 304h147l-56 -226l159 83l-33 -135l-160 -83l-56 -225h336z" />
    <glyph glyph-name="lslash" unicode="&#x142;" horiz-adv-x="332" 
d="M257 339l-84 -339h-140l68 273l-99 -51l32 128l99 51l77 311h140l-61 -246l99 52l-32 -128z" />
    <glyph glyph-name="Nacute" unicode="&#x143;" horiz-adv-x="776" 
d="M434 0l-72 289q-38 155 -66 294h-2q-33 -177 -66 -309l-68 -274h-141l177 712h197l72 -289q27 -112 66 -294h2q27 154 66 309l68 274h141l-177 -712h-197zM429 760l108 146h179l-171 -146h-116z" />
    <glyph glyph-name="nacute" unicode="&#x144;" 
d="M517.5 481.5q40.5 -38.5 40.5 -111.5q0 -34 -10 -73l-74 -297h-140l73 294q7 28 7 52q0 64 -67 64q-45 0 -81 -35.5t-53 -102.5l-68 -272h-140l127 508h131l-14 -56h2q32 32 71 50t81 18q74 0 114.5 -38.5zM296 566l107 146h179l-170 -146h-116z" />
    <glyph glyph-name="Ncommaaccent" unicode="&#x145;" horiz-adv-x="776" 
d="M434 0l-72 289q-38 155 -66 294h-2q-33 -177 -66 -309l-68 -274h-141l177 712h197l72 -289q27 -112 66 -294h2q27 154 66 309l68 274h141l-177 -712h-197zM251 -270h-56l72 107h-45l26 104h124l-26 -104z" />
    <glyph glyph-name="ncommaaccent" unicode="&#x146;" 
d="M517.5 481.5q40.5 -38.5 40.5 -111.5q0 -34 -10 -73l-74 -297h-140l73 294q7 28 7 52q0 64 -67 64q-45 0 -81 -35.5t-53 -102.5l-68 -272h-140l127 508h131l-14 -56h2q32 32 71 50t81 18q74 0 114.5 -38.5zM166 -270h-56l72 107h-45l26 104h124l-26 -104z" />
    <glyph glyph-name="Ncaron" unicode="&#x147;" horiz-adv-x="776" 
d="M434 0l-72 289q-38 155 -66 294h-2q-33 -177 -66 -309l-68 -274h-141l177 712h197l72 -289q27 -112 66 -294h2q27 154 66 309l68 274h141l-177 -712h-197zM439 760l-77 146h114l42 -76l79 76h142l-151 -146h-149z" />
    <glyph glyph-name="ncaron" unicode="&#x148;" 
d="M517.5 481.5q40.5 -38.5 40.5 -111.5q0 -34 -10 -73l-74 -297h-140l73 294q7 28 7 52q0 64 -67 64q-45 0 -81 -35.5t-53 -102.5l-68 -272h-140l127 508h131l-14 -56h2q32 32 71 50t81 18q74 0 114.5 -38.5zM306 566l-78 146h118l42 -76l79 76h138l-150 -146h-149z" />
    <glyph glyph-name="napostrophe" unicode="&#x149;" horiz-adv-x="750" 
d="M172 424h-71l84 146h-44l35 142h131l-35 -142zM667.5 481.5q40.5 -38.5 40.5 -111.5q0 -34 -10 -73l-74 -297h-140l73 294q7 28 7 52q0 64 -67 64q-45 0 -81 -35.5t-53 -102.5l-68 -272h-140l127 508h131l-14 -56h2q32 32 71 50t81 18q74 0 114.5 -38.5z" />
    <glyph glyph-name="Eng" unicode="&#x14a;" horiz-adv-x="745" 
d="M517 -149.5q-57 -43.5 -137 -43.5q-38 0 -67 8l25 101q12 -3 29 -3q40 0 63 22.5t23 66.5q0 16 -4.5 32t-21.5 69l-71 216q-38 111 -66 236h-2q-20 -118 -53 -254l-75 -301h-141l177 712h171l87 -266q40 -124 66 -237h2q20 118 53 254l62 249h141l-181 -726
q-23 -92 -80 -135.5z" />
    <glyph glyph-name="eng" unicode="&#x14b;" 
d="M517 481.5q41 -38.5 41 -111.5q0 -34 -10 -73l-81 -324q-21 -84 -75.5 -123.5t-130.5 -39.5q-43 0 -75 9l25 100q11 -3 23 -3q41 0 65.5 22.5t38.5 79.5l69 276q7 28 7 52q0 64 -67 64q-45 0 -81 -35.5t-53 -102.5l-68 -272h-140l127 508h131l-14 -56h2q32 32 71 50
t81 18q73 0 114 -38.5z" />
    <glyph glyph-name="Omacron" unicode="&#x14c;" horiz-adv-x="748" 
d="M604.5 691q65.5 -37 99.5 -105.5t34 -161.5q0 -105 -45 -206.5t-132.5 -167.5t-210.5 -66q-137 0 -213 81.5t-76 222.5q0 105 44.5 207t132 167.5t210.5 65.5q91 0 156.5 -37zM316 550.5q-53 -47.5 -80 -119.5t-27 -142q0 -82 38.5 -128.5t108.5 -46.5q73 0 126 48
t80.5 120t27.5 142q0 81 -38.5 127.5t-109.5 46.5q-73 0 -126 -47.5zM318 778l22 91h326l-22 -91h-326z" />
    <glyph glyph-name="omacron" unicode="&#x14d;" horiz-adv-x="590" 
d="M499 465q58 -59 58 -165q0 -73 -35 -146t-103.5 -121.5t-162.5 -48.5q-108 0 -165.5 59t-57.5 165q0 72 35 145.5t103 122t161 48.5q109 0 167 -59zM241.5 382.5q-32.5 -33.5 -48.5 -81.5t-16 -92q0 -56 23 -86.5t68 -30.5q47 0 79.5 33.5t48.5 81.5t16 92q0 56 -23 86.5
t-68 30.5q-47 0 -79.5 -33.5zM198 598l22 91h326l-22 -91h-326z" />
    <glyph glyph-name="Obreve" unicode="&#x14e;" horiz-adv-x="748" 
d="M604.5 691q65.5 -37 99.5 -105.5t34 -161.5q0 -105 -45 -206.5t-132.5 -167.5t-210.5 -66q-137 0 -213 81.5t-76 222.5q0 105 44.5 207t132 167.5t210.5 65.5q91 0 156.5 -37zM316 550.5q-53 -47.5 -80 -119.5t-27 -142q0 -82 38.5 -128.5t108.5 -46.5q73 0 126 48
t80.5 120t27.5 142q0 81 -38.5 127.5t-109.5 46.5q-73 0 -126 -47.5zM613 794.5q-55 -39.5 -133 -39.5q-68 0 -106 32.5t-38 90.5q0 8 2 28h83q-1 -5 -1 -13q0 -24 17.5 -37.5t49.5 -13.5q36 0 61 17t33 47h107q-20 -72 -75 -111.5z" />
    <glyph glyph-name="obreve" unicode="&#x14f;" horiz-adv-x="590" 
d="M499 465q58 -59 58 -165q0 -73 -35 -146t-103.5 -121.5t-162.5 -48.5q-108 0 -165.5 59t-57.5 165q0 72 35 145.5t103 122t161 48.5q109 0 167 -59zM241.5 382.5q-32.5 -33.5 -48.5 -81.5t-16 -92q0 -56 23 -86.5t68 -30.5q47 0 79.5 33.5t48.5 81.5t16 92q0 56 -23 86.5
t-68 30.5q-47 0 -79.5 -33.5zM489 600.5q-55 -39.5 -133 -39.5q-68 0 -106 32.5t-38 90.5q0 8 2 28h83q-1 -5 -1 -13q0 -24 17.5 -37.5t49.5 -13.5q36 0 61 17t33 47h107q-20 -72 -75 -111.5z" />
    <glyph glyph-name="Ohungarumlaut" unicode="&#x150;" horiz-adv-x="748" 
d="M604.5 691q65.5 -37 99.5 -105.5t34 -161.5q0 -105 -45 -206.5t-132.5 -167.5t-210.5 -66q-137 0 -213 81.5t-76 222.5q0 105 44.5 207t132 167.5t210.5 65.5q91 0 156.5 -37zM316 550.5q-53 -47.5 -80 -119.5t-27 -142q0 -82 38.5 -128.5t108.5 -46.5q73 0 126 48
t80.5 120t27.5 142q0 81 -38.5 127.5t-109.5 46.5q-73 0 -126 -47.5zM283 760l128 146h159l-171 -146h-116zM473 760l128 146h159l-171 -146h-116z" />
    <glyph glyph-name="ohungarumlaut" unicode="&#x151;" horiz-adv-x="590" 
d="M499 465q58 -59 58 -165q0 -73 -35 -146t-103.5 -121.5t-162.5 -48.5q-108 0 -165.5 59t-57.5 165q0 72 35 145.5t103 122t161 48.5q109 0 167 -59zM241.5 382.5q-32.5 -33.5 -48.5 -81.5t-16 -92q0 -56 23 -86.5t68 -30.5q47 0 79.5 33.5t48.5 81.5t16 92q0 56 -23 86.5
t-68 30.5q-47 0 -79.5 -33.5zM180 566l127 146h159l-170 -146h-116zM370 566l127 146h159l-170 -146h-116z" />
    <glyph glyph-name="OE" unicode="&#x152;" horiz-adv-x="1020" 
d="M699 586l-40 -161h322l-32 -125h-322l-43 -174h354l-31 -126h-527q-157 0 -237.5 78.5t-80.5 227.5q0 99 47.5 192.5t145.5 153.5t242 60h578l-31 -126h-345zM330.5 545q-61.5 -41 -89 -102.5t-27.5 -127.5q0 -95 44.5 -142t134.5 -47h44l115 460h-64q-96 0 -157.5 -41z
" />
    <glyph glyph-name="oe" unicode="&#x153;" horiz-adv-x="928" 
d="M528 182q0 -51 22.5 -75t59.5 -24q38 0 67.5 20t40.5 51h143q-31 -73 -101 -121.5t-158 -48.5q-56 0 -97 20.5t-65 58.5q-81 -79 -194 -79q-103 0 -158 59t-55 165q0 72 34 145.5t99.5 122t155.5 48.5q123 0 179 -84q79 84 192 84q100 0 152.5 -56t52.5 -151
q0 -40 -12 -92h-354q-4 -21 -4 -43zM604 397q-32 -28 -50 -84h213q1 8 1 22q0 45 -25.5 67.5t-67.5 22.5q-39 0 -71 -28zM347.5 125.5q32.5 33.5 48.5 81.5t16 92q0 56 -23 86.5t-68 30.5q-47 0 -79.5 -33.5t-48.5 -81.5t-16 -92q0 -56 23 -86.5t68 -30.5q47 0 79.5 33.5z
" />
    <glyph glyph-name="Racute" unicode="&#x154;" horiz-adv-x="666" 
d="M615 668.5q55 -43.5 55 -126.5q0 -46 -20 -89.5t-60 -76.5t-98 -47v-2q31 -13 46.5 -42.5t24.5 -94.5l26 -190h-152l-19 169q-7 58 -29.5 80.5t-74.5 22.5h-81l-67 -272h-147l177 712h252q112 0 167 -43.5zM263 389h114q71 0 104.5 36t33.5 81q0 87 -95 87h-106zM346 760
l108 146h179l-171 -146h-116z" />
    <glyph glyph-name="racute" unicode="&#x155;" horiz-adv-x="392" 
d="M448 510l-30 -121q-27 5 -43 5q-65 0 -108.5 -39.5t-61.5 -114.5l-60 -240h-140l126 508h129l-16 -65h2q36 37 74.5 55t82.5 18q25 0 45 -6zM202 566l107 146h179l-170 -146h-116z" />
    <glyph glyph-name="Rcommaaccent" unicode="&#x156;" horiz-adv-x="666" 
d="M615 668.5q55 -43.5 55 -126.5q0 -46 -20 -89.5t-60 -76.5t-98 -47v-2q31 -13 46.5 -42.5t24.5 -94.5l26 -190h-152l-19 169q-7 58 -29.5 80.5t-74.5 22.5h-81l-67 -272h-147l177 712h252q112 0 167 -43.5zM263 389h114q71 0 104.5 36t33.5 81q0 87 -95 87h-106z
M225 -270h-56l72 107h-45l26 104h124l-26 -104z" />
    <glyph glyph-name="rcommaaccent" unicode="&#x157;" horiz-adv-x="392" 
d="M448 510l-30 -121q-27 5 -43 5q-65 0 -108.5 -39.5t-61.5 -114.5l-60 -240h-140l126 508h129l-16 -65h2q36 37 74.5 55t82.5 18q25 0 45 -6zM6 -270h-56l72 107h-45l26 104h124l-26 -104z" />
    <glyph glyph-name="Rcaron" unicode="&#x158;" horiz-adv-x="666" 
d="M615 668.5q55 -43.5 55 -126.5q0 -46 -20 -89.5t-60 -76.5t-98 -47v-2q31 -13 46.5 -42.5t24.5 -94.5l26 -190h-152l-19 169q-7 58 -29.5 80.5t-74.5 22.5h-81l-67 -272h-147l177 712h252q112 0 167 -43.5zM263 389h114q71 0 104.5 36t33.5 81q0 87 -95 87h-106zM356 760
l-77 146h114l42 -76l79 76h142l-151 -146h-149z" />
    <glyph glyph-name="rcaron" unicode="&#x159;" horiz-adv-x="392" 
d="M448 510l-30 -121q-27 5 -43 5q-65 0 -108.5 -39.5t-61.5 -114.5l-60 -240h-140l126 508h129l-16 -65h2q36 37 74.5 55t82.5 18q25 0 45 -6zM212 566l-78 146h118l42 -76l79 76h138l-150 -146h-149z" />
    <glyph glyph-name="Sacute" unicode="&#x15a;" horiz-adv-x="630" 
d="M639 547q0 -23 -8 -53h-149q3 15 3 29q0 43 -27.5 65.5t-80.5 22.5q-50 0 -84 -24.5t-34 -61.5q0 -34 29 -54.5t100 -43.5q63 -21 102.5 -43t64.5 -61.5t25 -103.5q0 -56 -35 -110.5t-103.5 -89.5t-162.5 -35q-125 0 -194 50t-69 144q0 28 7 56h152q-4 -17 -4 -36
q0 -95 125 -95q42 0 71 14.5t43 36t14 43.5q0 28 -13 45t-36.5 28.5t-70.5 28.5q-67 23 -106.5 44t-66 59.5t-26.5 101.5q0 53 34 105t100 85.5t156 33.5q244 0 244 -181zM322 760l108 146h179l-171 -146h-116z" />
    <glyph glyph-name="sacute" unicode="&#x15b;" horiz-adv-x="524" 
d="M447.5 488.5q49.5 -35.5 49.5 -104.5q0 -15 -3 -32h-133q2 14 2 21q0 53 -70 53q-38 0 -56 -15t-18 -35q0 -21 19 -34t73 -32q48 -16 77.5 -31t50 -44.5t20.5 -77.5q0 -44 -27 -84t-81.5 -64.5t-132.5 -24.5q-100 0 -154.5 36.5t-54.5 108.5q0 20 5 36h141q-3 -12 -3 -22
q0 -28 19.5 -43t58.5 -15q38 0 59 15t21 40q0 26 -21.5 40t-76.5 33q-46 16 -72 29.5t-44.5 41t-18.5 74.5q0 42 26 80t77.5 62t124.5 24q93 0 142.5 -35.5zM240 566l107 146h179l-170 -146h-116z" />
    <glyph glyph-name="Scircumflex" unicode="&#x15c;" horiz-adv-x="630" 
d="M639 547q0 -23 -8 -53h-149q3 15 3 29q0 43 -27.5 65.5t-80.5 22.5q-50 0 -84 -24.5t-34 -61.5q0 -34 29 -54.5t100 -43.5q63 -21 102.5 -43t64.5 -61.5t25 -103.5q0 -56 -35 -110.5t-103.5 -89.5t-162.5 -35q-125 0 -194 50t-69 144q0 28 7 56h152q-4 -17 -4 -36
q0 -95 125 -95q42 0 71 14.5t43 36t14 43.5q0 28 -13 45t-36.5 28.5t-70.5 28.5q-67 23 -106.5 44t-66 59.5t-26.5 101.5q0 53 34 105t100 85.5t156 33.5q244 0 244 -181zM518 906l77 -146h-114l-42 76l-79 -76h-142l151 146h149z" />
    <glyph glyph-name="scircumflex" unicode="&#x15d;" horiz-adv-x="524" 
d="M447.5 488.5q49.5 -35.5 49.5 -104.5q0 -15 -3 -32h-133q2 14 2 21q0 53 -70 53q-38 0 -56 -15t-18 -35q0 -21 19 -34t73 -32q48 -16 77.5 -31t50 -44.5t20.5 -77.5q0 -44 -27 -84t-81.5 -64.5t-132.5 -24.5q-100 0 -154.5 36.5t-54.5 108.5q0 20 5 36h141q-3 -12 -3 -22
q0 -28 19.5 -43t58.5 -15q38 0 59 15t21 40q0 26 -21.5 40t-76.5 33q-46 16 -72 29.5t-44.5 41t-18.5 74.5q0 42 26 80t77.5 62t124.5 24q93 0 142.5 -35.5zM395 566l-42 76l-79 -76h-138l150 146h149l78 -146h-118z" />
    <glyph glyph-name="Scedilla" unicode="&#x15e;" horiz-adv-x="630" 
d="M485 523q0 43 -27.5 65.5t-80.5 22.5q-50 0 -84 -24.5t-34 -61.5q0 -34 29 -54.5t100 -43.5q63 -21 102.5 -43t64.5 -61.5t25 -103.5q0 -54 -33.5 -107t-98 -89t-154.5 -39l-39 -44q9 3 23 3q31 0 51 -19t20 -51q0 -42 -41 -70.5t-100 -28.5q-60 0 -106 30l25 45
q39 -22 79 -22q26 0 41.5 11t15.5 29q0 16 -10 24.5t-28 8.5q-17 0 -34 -6l-20 18l65 74q-106 8 -163 57t-57 135q0 28 7 56h152q-4 -17 -4 -36q0 -95 125 -95q42 0 71 14.5t43 36t14 43.5q0 28 -13 45t-36.5 28.5t-70.5 28.5q-67 23 -106.5 44t-66 59.5t-26.5 101.5
q0 53 34 105t100 85.5t156 33.5q244 0 244 -181q0 -23 -8 -53h-149q3 15 3 29z" />
    <glyph glyph-name="scedilla" unicode="&#x15f;" horiz-adv-x="524" 
d="M363 373q0 53 -70 53q-38 0 -56 -15t-18 -35q0 -21 19 -34t73 -32q48 -16 77.5 -31t50 -44.5t20.5 -77.5q0 -43 -25 -81t-75 -63.5t-122 -28.5l-39 -44q9 3 23 3q31 0 51 -19t20 -51q0 -42 -41 -70.5t-100 -28.5q-60 0 -106 30l25 45q38 -22 79 -22q26 0 41.5 11t15.5 29
q0 16 -10 24.5t-28 8.5t-34 -6l-20 18l65 74q-81 6 -125.5 42.5t-44.5 100.5q0 20 5 36h141q-3 -12 -3 -22q0 -28 19.5 -43t58.5 -15q38 0 59 15t21 40q0 26 -21.5 40t-76.5 33q-46 16 -72 29.5t-44.5 41t-18.5 74.5q0 42 26 80t77.5 62t124.5 24q93 0 142.5 -35.5
t49.5 -104.5q0 -15 -3 -32h-133q2 14 2 21z" />
    <glyph glyph-name="Scaron" unicode="&#x160;" horiz-adv-x="630" 
d="M639 547q0 -23 -8 -53h-149q3 15 3 29q0 43 -27.5 65.5t-80.5 22.5q-50 0 -84 -24.5t-34 -61.5q0 -34 29 -54.5t100 -43.5q63 -21 102.5 -43t64.5 -61.5t25 -103.5q0 -56 -35 -110.5t-103.5 -89.5t-162.5 -35q-125 0 -194 50t-69 144q0 28 7 56h152q-4 -17 -4 -36
q0 -95 125 -95q42 0 71 14.5t43 36t14 43.5q0 28 -13 45t-36.5 28.5t-70.5 28.5q-67 23 -106.5 44t-66 59.5t-26.5 101.5q0 53 34 105t100 85.5t156 33.5q244 0 244 -181zM332 760l-77 146h114l42 -76l79 76h142l-151 -146h-149z" />
    <glyph glyph-name="scaron" unicode="&#x161;" horiz-adv-x="524" 
d="M447.5 488.5q49.5 -35.5 49.5 -104.5q0 -15 -3 -32h-133q2 14 2 21q0 53 -70 53q-38 0 -56 -15t-18 -35q0 -21 19 -34t73 -32q48 -16 77.5 -31t50 -44.5t20.5 -77.5q0 -44 -27 -84t-81.5 -64.5t-132.5 -24.5q-100 0 -154.5 36.5t-54.5 108.5q0 20 5 36h141q-3 -12 -3 -22
q0 -28 19.5 -43t58.5 -15q38 0 59 15t21 40q0 26 -21.5 40t-76.5 33q-46 16 -72 29.5t-44.5 41t-18.5 74.5q0 42 26 80t77.5 62t124.5 24q93 0 142.5 -35.5zM250 566l-78 146h118l42 -76l79 76h138l-150 -146h-149z" />
    <glyph glyph-name="uni0162" unicode="&#x162;" horiz-adv-x="615" 
d="M464 586l-146 -586h-147l146 586h-224l31 126h595l-31 -126h-224zM176 -270h-56l72 107h-45l26 104h124l-26 -104z" />
    <glyph glyph-name="uni0163" unicode="&#x163;" horiz-adv-x="357" 
d="M209 155q0 -27 12.5 -38.5t41.5 -11.5q15 0 33 4l-28 -109q-25 -7 -55 -7q-77 0 -113 30t-36 97q0 30 11 74l52 210h-82l26 104h82l33 132h140l-33 -132h97l-26 -104h-97l-53 -213q-5 -23 -5 -36zM193 -59l-26 -104l-95 -107h-56l72 107h-45l26 104h124z" />
    <glyph glyph-name="Tcaron" unicode="&#x164;" horiz-adv-x="615" 
d="M464 586l-146 -586h-147l146 586h-224l31 126h595l-31 -126h-224zM345 760l-77 146h114l42 -76l79 76h142l-151 -146h-149z" />
    <glyph glyph-name="tcaron" unicode="&#x165;" horiz-adv-x="357" 
d="M209 155q0 -27 12.5 -38.5t41.5 -11.5q15 0 33 4l-28 -109q-25 -7 -55 -7q-77 0 -113 30t-36 97q0 30 11 74l52 210h-82l26 104h82l33 132h140l-33 -132h97l-26 -104h-97l-53 -213q-5 -23 -5 -36zM328 535l70 177h111l-102 -177h-79z" />
    <glyph glyph-name="Tbar" unicode="&#x166;" horiz-adv-x="615" 
d="M418 400h134l-26 -106h-135l-73 -294h-147l73 294h-135l26 106h136l46 186h-224l31 126h595l-31 -126h-224z" />
    <glyph glyph-name="tbar" unicode="&#x167;" horiz-adv-x="357" 
d="M243 308h94l-20 -83h-95l-8 -34q-5 -23 -5 -36q0 -27 12.5 -38.5t41.5 -11.5q15 0 33 4l-28 -109q-25 -7 -55 -7q-77 0 -112.5 30t-35.5 97q0 30 11 74l8 31h-80l20 83h80l24 96h-83l26 104h83l33 132h139l-33 -132h97l-26 -104h-97z" />
    <glyph glyph-name="Utilde" unicode="&#x168;" horiz-adv-x="718" 
d="M524.5 47.5q-81.5 -63.5 -202.5 -63.5q-118 0 -181.5 60t-63.5 172q0 45 13 97l100 399h147l-105 -423q-9 -36 -9 -64q0 -55 28 -83t83 -28q62 0 104 39t60 112l111 447h147l-120 -482q-30 -119 -111.5 -182.5zM644.5 807q-37.5 -36 -87.5 -36q-25 0 -42.5 7t-37.5 20
q-16 10 -26.5 14.5t-23.5 4.5q-21 0 -35 -11t-22 -35h-80q17 63 55 99t88 36q25 0 43 -7t38 -20q16 -10 26 -14.5t23 -4.5q22 0 36 11t23 35h78q-18 -63 -55.5 -99z" />
    <glyph glyph-name="utilde" unicode="&#x169;" 
d="M82.5 26.5q-40.5 38.5 -40.5 111.5q0 34 10 73l74 297h140l-73 -294q-7 -28 -7 -52q0 -64 67 -64q45 0 81 35.5t53 102.5l68 272h140l-127 -508h-131l14 56h-2q-32 -32 -71 -50t-81 -18q-74 0 -114.5 38.5zM536.5 613q-37.5 -36 -87.5 -36q-25 0 -42.5 7t-36.5 20
q-16 10 -26.5 14.5t-23.5 4.5q-21 0 -35 -11t-22 -35h-80q17 63 55 99t88 36q25 0 42.5 -7t37.5 -20q16 -10 26 -14.5t23 -4.5q22 0 36 11t23 35h78q-18 -63 -55.5 -99z" />
    <glyph glyph-name="Umacron" unicode="&#x16a;" horiz-adv-x="718" 
d="M524.5 47.5q-81.5 -63.5 -202.5 -63.5q-118 0 -181.5 60t-63.5 172q0 45 13 97l100 399h147l-105 -423q-9 -36 -9 -64q0 -55 28 -83t83 -28q62 0 104 39t60 112l111 447h147l-120 -482q-30 -119 -111.5 -182.5zM317 778l22 91h326l-22 -91h-326z" />
    <glyph glyph-name="umacron" unicode="&#x16b;" 
d="M82.5 26.5q-40.5 38.5 -40.5 111.5q0 34 10 73l74 297h140l-73 -294q-7 -28 -7 -52q0 -64 67 -64q45 0 81 35.5t53 102.5l68 272h140l-127 -508h-131l14 56h-2q-32 -32 -71 -50t-81 -18q-74 0 -114.5 38.5zM213 598l22 91h326l-22 -91h-326z" />
    <glyph glyph-name="Ubreve" unicode="&#x16c;" horiz-adv-x="718" 
d="M524.5 47.5q-81.5 -63.5 -202.5 -63.5q-118 0 -181.5 60t-63.5 172q0 45 13 97l100 399h147l-105 -423q-9 -36 -9 -64q0 -55 28 -83t83 -28q62 0 104 39t60 112l111 447h147l-120 -482q-30 -119 -111.5 -182.5zM612 794.5q-55 -39.5 -133 -39.5q-68 0 -106 32.5t-38 90.5
q0 8 2 28h83q-1 -5 -1 -13q0 -24 17.5 -37.5t49.5 -13.5q36 0 61 17t33 47h107q-20 -72 -75 -111.5z" />
    <glyph glyph-name="ubreve" unicode="&#x16d;" 
d="M82.5 26.5q-40.5 38.5 -40.5 111.5q0 34 10 73l74 297h140l-73 -294q-7 -28 -7 -52q0 -64 67 -64q45 0 81 35.5t53 102.5l68 272h140l-127 -508h-131l14 56h-2q-32 -32 -71 -50t-81 -18q-74 0 -114.5 38.5zM504 600.5q-55 -39.5 -133 -39.5q-68 0 -106 32.5t-38 90.5
q0 8 2 28h83q-1 -5 -1 -13q0 -24 17.5 -37.5t49.5 -13.5q36 0 61 17t33 47h107q-20 -72 -75 -111.5z" />
    <glyph glyph-name="Uring" unicode="&#x16e;" horiz-adv-x="718" 
d="M524.5 47.5q-81.5 -63.5 -202.5 -63.5q-118 0 -181.5 60t-63.5 172q0 45 13 97l100 399h147l-105 -423q-9 -36 -9 -64q0 -55 28 -83t83 -28q62 0 104 39t60 112l111 447h147l-120 -482q-30 -119 -111.5 -182.5zM565.5 934.5q31.5 -31.5 31.5 -76.5t-31.5 -76.5
t-76.5 -31.5t-76.5 31.5t-31.5 76.5t31.5 76.5t76.5 31.5t76.5 -31.5zM451 896.5q-16 -15.5 -16 -38.5q0 -22 16 -38t38 -16q23 0 38.5 16t15.5 38q0 23 -15.5 38.5t-38.5 15.5q-22 0 -38 -15.5z" />
    <glyph glyph-name="uring" unicode="&#x16f;" 
d="M82.5 26.5q-40.5 38.5 -40.5 111.5q0 34 10 73l74 297h140l-73 -294q-7 -28 -7 -52q0 -64 67 -64q45 0 81 35.5t53 102.5l68 272h140l-127 -508h-131l14 56h-2q-32 -32 -71 -50t-81 -18q-74 0 -114.5 38.5zM458.5 740.5q31.5 -31.5 31.5 -76.5t-31.5 -76.5t-76.5 -31.5
t-76.5 31.5t-31.5 76.5t31.5 76.5t76.5 31.5t76.5 -31.5zM344 702.5q-16 -15.5 -16 -38.5q0 -22 16 -38t38 -16q23 0 38.5 16t15.5 38q0 23 -15.5 38.5t-38.5 15.5q-22 0 -38 -15.5z" />
    <glyph glyph-name="Uhungarumlaut" unicode="&#x170;" horiz-adv-x="718" 
d="M524.5 47.5q-81.5 -63.5 -202.5 -63.5q-118 0 -181.5 60t-63.5 172q0 45 13 97l100 399h147l-105 -423q-9 -36 -9 -64q0 -55 28 -83t83 -28q62 0 104 39t60 112l111 447h147l-120 -482q-30 -119 -111.5 -182.5zM282 760l128 146h159l-171 -146h-116zM472 760l128 146h159
l-171 -146h-116z" />
    <glyph glyph-name="uhungarumlaut" unicode="&#x171;" 
d="M82.5 26.5q-40.5 38.5 -40.5 111.5q0 34 10 73l74 297h140l-73 -294q-7 -28 -7 -52q0 -64 67 -64q45 0 81 35.5t53 102.5l68 272h140l-127 -508h-131l14 56h-2q-32 -32 -71 -50t-81 -18q-74 0 -114.5 38.5zM195 566l127 146h159l-170 -146h-116zM385 566l127 146h159
l-170 -146h-116z" />
    <glyph glyph-name="Uogonek" unicode="&#x172;" horiz-adv-x="718" 
d="M507 33q-76 -52 -101.5 -79t-25.5 -52q0 -21 28 -21q21 0 37 6l-19 -75q-32 -9 -69 -9q-51 0 -77 19.5t-26 55.5q0 56 76 104v2h-8q-121 0 -183 59t-62 173q0 45 13 97l100 399h147l-105 -423q-9 -36 -9 -64q0 -55 28 -83t83 -28q62 0 104 39t60 112l111 447h147
l-120 -482q-32 -130 -129 -197z" />
    <glyph glyph-name="uogonek" unicode="&#x173;" 
d="M396.5 -53.5q-19.5 -22.5 -19.5 -44.5q0 -21 28 -21q21 0 37 6l-19 -75q-32 -9 -69 -9q-51 0 -77 19.5t-26 55.5q0 33 26 63t81 59h-21l14 56h-2q-32 -32 -71 -50t-81 -18q-74 0 -114.5 38.5t-40.5 111.5q0 34 10 73l74 297h140l-73 -294q-7 -28 -7 -52q0 -64 67 -64
q45 0 81 35.5t53 102.5l68 272h140l-127 -508q-52 -31 -71.5 -53.5z" />
    <glyph glyph-name="Wcircumflex" unicode="&#x174;" horiz-adv-x="956" 
d="M544 0l4 282q1 145 14 305h-2q-56 -136 -138 -305l-136 -282h-191l28 712h137l-13 -259q-7 -143 -25 -308h2q54 126 142 308l126 259h186l-2 -259q-2 -157 -12 -308h2q48 125 129 308l115 259h151l-326 -712h-191zM708 906l77 -146h-114l-42 76l-79 -76h-142l151 146h149
z" />
    <glyph glyph-name="wcircumflex" unicode="&#x175;" horiz-adv-x="810" 
d="M430 0l5 200q3 109 9 217h-2q-44 -115 -93 -217l-95 -200h-200l14 508h133l-11 -196q-8 -151 -15 -221h2q45 113 95 219l94 198h192l-4 -198q-1 -109 -9 -219h2q41 114 89 221l87 196h145l-238 -508h-200zM547 566l-42 76l-79 -76h-138l150 146h149l78 -146h-118z" />
    <glyph glyph-name="Ycircumflex" unicode="&#x176;" horiz-adv-x="638" 
d="M329 0h-147l69 277l-135 435h149l35 -134q22 -86 39 -181h2q57 90 127 181l101 134h180l-351 -435zM530 906l77 -146h-114l-42 76l-79 -76h-142l151 146h149z" />
    <glyph glyph-name="ycircumflex" unicode="&#x177;" horiz-adv-x="504" 
d="M179 -115.5q-42 -40.5 -90 -58t-113 -17.5q-39 0 -71 8l28 112q21 -8 52 -8q53 0 85 31.5t32 78.5q0 17 -5 64l-41 413h138l12 -170q8 -117 7 -213h2q57 122 108 213l95 170h156l-309 -511q-44 -72 -86 -112.5zM380 566l-42 76l-79 -76h-138l150 146h149l78 -146h-118z
" />
    <glyph glyph-name="Ydieresis" unicode="&#x178;" horiz-adv-x="638" 
d="M329 0h-147l69 277l-135 435h149l35 -134q22 -86 39 -181h2q57 90 127 181l101 134h180l-351 -435zM251 769l30 120h123l-30 -120h-123zM468 769l30 120h123l-30 -120h-123z" />
    <glyph glyph-name="Zacute" unicode="&#x179;" horiz-adv-x="582" 
d="M169 126v-2h361l-31 -124h-542l34 137l456 449v2h-328l31 124h509l-34 -137zM322 760l108 146h179l-171 -146h-116z" />
    <glyph glyph-name="zacute" unicode="&#x17a;" horiz-adv-x="484" 
d="M169 112v-2h251l-27 -110h-428l30 120l311 276v2h-232l28 110h408l-30 -120zM218 566l107 146h179l-170 -146h-116z" />
    <glyph glyph-name="Zdotaccent" unicode="&#x17b;" horiz-adv-x="582" 
d="M169 126v-2h361l-31 -124h-542l34 137l456 449v2h-328l31 124h509l-34 -137zM339 769l30 120h140l-30 -120h-140z" />
    <glyph glyph-name="zdotaccent" unicode="&#x17c;" horiz-adv-x="484" 
d="M169 112v-2h251l-27 -110h-428l30 120l311 276v2h-232l28 110h408l-30 -120zM239 592l30 120h140l-30 -120h-140z" />
    <glyph glyph-name="Zcaron" unicode="&#x17d;" horiz-adv-x="582" 
d="M169 126v-2h361l-31 -124h-542l34 137l456 449v2h-328l31 124h509l-34 -137zM332 760l-77 146h114l42 -76l79 76h142l-151 -146h-149z" />
    <glyph glyph-name="zcaron" unicode="&#x17e;" horiz-adv-x="484" 
d="M169 112v-2h251l-27 -110h-428l30 120l311 276v2h-232l28 110h408l-30 -120zM228 566l-78 146h118l42 -76l79 76h138l-150 -146h-149z" />
    <glyph glyph-name="longs" unicode="&#x17f;" horiz-adv-x="341" 
d="M445 710l-24 -97q-9 3 -23 3q-39 0 -62 -20t-35 -67l-132 -529h-138l101 404h-85l26 104h85l14 58q19 77 70 115.5t130 38.5q39 0 73 -10z" />
    <glyph glyph-name="florin" unicode="&#x192;" 
d="M693 712l-26 -105q-20 5 -45 5q-41 0 -69 -20.5t-54 -71.5l-26 -52h106l-26 -104h-131l-180 -358q-53 -107 -112.5 -152t-148.5 -45q-43 0 -69 9l27 106q20 -5 43 -5q39 0 64.5 20t54.5 78l174 347h-97l26 104h122l32 63q50 101 110.5 146.5t143.5 45.5q48 0 81 -11z" />
    <glyph glyph-name="Scommaaccent" unicode="&#x218;" horiz-adv-x="630" 
d="M639 547q0 -23 -8 -53h-149q3 15 3 29q0 43 -27.5 65.5t-80.5 22.5q-50 0 -84 -24.5t-34 -61.5q0 -34 29 -54.5t100 -43.5q63 -21 102.5 -43t64.5 -61.5t25 -103.5q0 -56 -35 -110.5t-103.5 -89.5t-162.5 -35q-125 0 -194 50t-69 144q0 28 7 56h152q-4 -17 -4 -36
q0 -95 125 -95q42 0 71 14.5t43 36t14 43.5q0 28 -13 45t-36.5 28.5t-70.5 28.5q-67 23 -106.5 44t-66 59.5t-26.5 101.5q0 53 34 105t100 85.5t156 33.5q244 0 244 -181zM191 -270h-56l72 107h-45l26 104h124l-26 -104z" />
    <glyph glyph-name="scommaaccent" unicode="&#x219;" horiz-adv-x="524" 
d="M447.5 488.5q49.5 -35.5 49.5 -104.5q0 -15 -3 -32h-133q2 14 2 21q0 53 -70 53q-38 0 -56 -15t-18 -35q0 -21 19 -34t73 -32q48 -16 77.5 -31t50 -44.5t20.5 -77.5q0 -44 -27 -84t-81.5 -64.5t-132.5 -24.5q-100 0 -154.5 36.5t-54.5 108.5q0 20 5 36h141q-3 -12 -3 -22
q0 -28 19.5 -43t58.5 -15q38 0 59 15t21 40q0 26 -21.5 40t-76.5 33q-46 16 -72 29.5t-44.5 41t-18.5 74.5q0 42 26 80t77.5 62t124.5 24q93 0 142.5 -35.5zM134 -270h-56l72 107h-45l26 104h124l-26 -104z" />
    <glyph glyph-name="uni021A" unicode="&#x21a;" horiz-adv-x="615" 
d="M464 586l-146 -586h-147l146 586h-224l31 126h595l-31 -126h-224zM176 -270h-56l72 107h-45l26 104h124l-26 -104z" />
    <glyph glyph-name="uni021B" unicode="&#x21b;" horiz-adv-x="357" 
d="M209 155q0 -27 12.5 -38.5t41.5 -11.5q15 0 33 4l-28 -109q-25 -7 -55 -7q-77 0 -113 30t-36 97q0 30 11 74l52 210h-82l26 104h82l33 132h140l-33 -132h97l-26 -104h-97l-53 -213q-5 -23 -5 -36zM72 -270h-56l72 107h-45l26 104h124l-26 -104z" />
    <glyph glyph-name="dotlessj" unicode="&#x237;" horiz-adv-x="278" 
d="M64.5 -150.5q-54.5 -39.5 -130.5 -39.5q-43 0 -75 9l25 100q11 -3 23 -3q41 0 65.5 22.5t38.5 79.5l122 490h140l-133 -535q-21 -84 -75.5 -123.5z" />
    <glyph glyph-name="uni02BC" unicode="&#x2bc;" horiz-adv-x="255" 
d="M173 424h-71l84 146h-44l35 142h131l-35 -142z" />
    <glyph glyph-name="circumflex" unicode="&#x2c6;" horiz-adv-x="477" 
d="M387 566l-42 76l-79 -76h-138l150 146h149l78 -146h-118z" />
    <glyph glyph-name="caron" unicode="&#x2c7;" horiz-adv-x="478" 
d="M243 566l-78 146h118l42 -76l79 76h138l-150 -146h-149z" />
    <glyph glyph-name="uni02C9" unicode="&#x2c9;" horiz-adv-x="427" 
d="M137 598l22 91h326l-22 -91h-326z" />
    <glyph glyph-name="breve" unicode="&#x2d8;" horiz-adv-x="450" 
d="M439 600.5q-55 -39.5 -133 -39.5q-68 0 -106 32.5t-38 90.5q0 8 2 28h83q-1 -5 -1 -13q0 -24 17.5 -37.5t49.5 -13.5q36 0 61 17t33 47h107q-20 -72 -75 -111.5z" />
    <glyph glyph-name="dotaccent" unicode="&#x2d9;" horiz-adv-x="241" 
d="M135 592l30 120h140l-30 -120h-140z" />
    <glyph glyph-name="ring" unicode="&#x2da;" horiz-adv-x="323" 
d="M340.5 740.5q31.5 -31.5 31.5 -76.5t-31.5 -76.5t-76.5 -31.5t-76.5 31.5t-31.5 76.5t31.5 76.5t76.5 31.5t76.5 -31.5zM226 702.5q-16 -15.5 -16 -38.5q0 -22 16 -38t38 -16q23 0 38.5 16t15.5 38q0 23 -15.5 38.5t-38.5 15.5q-22 0 -38 -15.5z" />
    <glyph glyph-name="ogonek" unicode="&#x2db;" horiz-adv-x="292" 
d="M104.5 -53.5q-19.5 -22.5 -19.5 -44.5q0 -21 28 -21q21 0 37 6l-19 -75q-32 -9 -69 -9q-51 0 -77 19.5t-26 55.5q0 33 26 63t81 59h110q-52 -31 -71.5 -53.5z" />
    <glyph glyph-name="tilde" unicode="&#x2dc;" horiz-adv-x="476" 
d="M484.5 613q-37.5 -36 -87.5 -36q-25 0 -42.5 7t-36.5 20q-16 10 -26.5 14.5t-23.5 4.5q-21 0 -35 -11t-22 -35h-80q17 63 55 99t88 36q25 0 42.5 -7t37.5 -20q16 -10 26 -14.5t23 -4.5q22 0 36 11t23 35h78q-18 -63 -55.5 -99z" />
    <glyph glyph-name="hungarumlaut" unicode="&#x2dd;" horiz-adv-x="540" 
d="M128 566l127 146h159l-170 -146h-116zM318 566l127 146h159l-170 -146h-116z" />
    <glyph glyph-name="uni0312" unicode="&#x312;" horiz-adv-x="0" 
d="M281 681l-25 -104h-124l25 104l95 107h56l-72 -107h45z" />
    <glyph glyph-name="commaaccent" unicode="&#x326;" horiz-adv-x="0" 
d="M-25 -270h-56l72 107h-45l26 104h124l-26 -104z" />
    <glyph glyph-name="uni0394" unicode="&#x394;" horiz-adv-x="698" 
d="M-60 0l426 712h198l68 -712h-692zM465 347q-10 151 -14 278h-2q-65 -133 -147 -278l-125 -221h304z" />
    <glyph glyph-name="uni03A9" unicode="&#x3a9;" horiz-adv-x="734" 
d="M657.5 666.5q73.5 -61.5 73.5 -180.5q0 -104 -52 -190.5t-156 -169.5v-2h148l-31 -124h-294l32 130q95 74 144 154t49 164q0 73 -36.5 111.5t-99.5 38.5q-69 0 -119 -40.5t-76 -102.5t-26 -125q0 -57 16.5 -104.5t47.5 -95.5l-32 -130h-278l31 124h152v2q-38 55 -59 111
t-21 121q0 89 44 174t131 140.5t209 55.5q129 0 202.5 -61.5z" />
    <glyph glyph-name="uni03BC" unicode="&#x3bc;" horiz-adv-x="613" 
d="M508 132q0 -17 8.5 -24t24.5 -7q12 0 25 3l-26 -105q-25 -7 -61 -7q-46 0 -69.5 20.5t-26.5 60.5h-2q-21 -36 -61 -57.5t-85 -21.5q-58 0 -84 34l-53 -213h-140l173 693h140l-73 -292q-6 -27 -6 -46q0 -72 72 -72q43 0 76.5 35.5t50.5 102.5l67 272h140l-84 -340
q-6 -22 -6 -36z" />
    <glyph glyph-name="pi" unicode="&#x3c0;" horiz-adv-x="672" 
d="M591 404l-53 -215q-8 -29 -8 -45q0 -26 12 -36.5t38 -10.5q9 0 21 2l-26 -100q-24 -7 -55 -7q-69 0 -102 27t-33 90q0 32 12 77l54 218h-172l-100 -404h-140l100 404h-93l26 104h645l-26 -104h-100z" />
    <glyph glyph-name="Wgrave" unicode="&#x1e80;" horiz-adv-x="956" 
d="M544 0l4 282q1 145 14 305h-2q-56 -136 -138 -305l-136 -282h-191l28 712h137l-13 -259q-7 -143 -25 -308h2q54 126 142 308l126 259h186l-2 -259q-2 -157 -12 -308h2q48 125 129 308l115 259h151l-326 -712h-191zM578 760l-109 146h167l46 -146h-104z" />
    <glyph glyph-name="wgrave" unicode="&#x1e81;" horiz-adv-x="810" 
d="M430 0l5 200q3 109 9 217h-2q-44 -115 -93 -217l-95 -200h-200l14 508h133l-11 -196q-8 -151 -15 -221h2q45 113 95 219l94 198h192l-4 -198q-1 -109 -9 -219h2q41 114 89 221l87 196h145l-238 -508h-200zM562 566h-104l-110 146h167z" />
    <glyph glyph-name="Wacute" unicode="&#x1e82;" horiz-adv-x="956" 
d="M544 0l4 282q1 145 14 305h-2q-56 -136 -138 -305l-136 -282h-191l28 712h137l-13 -259q-7 -143 -25 -308h2q54 126 142 308l126 259h186l-2 -259q-2 -157 -12 -308h2q48 125 129 308l115 259h151l-326 -712h-191zM512 760l108 146h179l-171 -146h-116z" />
    <glyph glyph-name="wacute" unicode="&#x1e83;" horiz-adv-x="810" 
d="M430 0l5 200q3 109 9 217h-2q-44 -115 -93 -217l-95 -200h-200l14 508h133l-11 -196q-8 -151 -15 -221h2q45 113 95 219l94 198h192l-4 -198q-1 -109 -9 -219h2q41 114 89 221l87 196h145l-238 -508h-200zM392 566l107 146h179l-170 -146h-116z" />
    <glyph glyph-name="Wdieresis" unicode="&#x1e84;" horiz-adv-x="956" 
d="M544 0l4 282q1 145 14 305h-2q-56 -136 -138 -305l-136 -282h-191l28 712h137l-13 -259q-7 -143 -25 -308h2q54 126 142 308l126 259h186l-2 -259q-2 -157 -12 -308h2q48 125 129 308l115 259h151l-326 -712h-191zM429 769l30 120h123l-30 -120h-123zM646 769l30 120h123
l-30 -120h-123z" />
    <glyph glyph-name="wdieresis" unicode="&#x1e85;" horiz-adv-x="810" 
d="M430 0l5 200q3 109 9 217h-2q-44 -115 -93 -217l-95 -200h-200l14 508h133l-11 -196q-8 -151 -15 -221h2q45 113 95 219l94 198h192l-4 -198q-1 -109 -9 -219h2q41 114 89 221l87 196h145l-238 -508h-200zM313 592l30 120h123l-30 -120h-123zM530 592l30 120h123
l-30 -120h-123z" />
    <glyph glyph-name="Germandbls" unicode="&#x1e9e;" horiz-adv-x="801" 
d="M748 221q0 -58 -31.5 -112t-94 -88.5t-152.5 -34.5q-104 0 -157 38.5t-53 114.5q0 24 6 53h141q-3 -15 -3 -25q0 -61 79 -61q56 0 84 32t28 72q0 55 -43.5 84.5t-128.5 36.5l25 100l153 135q-18 19 -47 29.5t-65 10.5q-90 0 -148 -49t-83 -145l-102 -412h-147l105 421
q37 150 138 227.5t257 77.5q97 0 168.5 -38.5t107.5 -105.5l-185 -163q148 -53 148 -198z" />
    <glyph glyph-name="Ygrave" unicode="&#x1ef2;" horiz-adv-x="638" 
d="M329 0h-147l69 277l-135 435h149l35 -134q22 -86 39 -181h2q57 90 127 181l101 134h180l-351 -435zM400 760l-109 146h167l46 -146h-104z" />
    <glyph glyph-name="ygrave" unicode="&#x1ef3;" horiz-adv-x="504" 
d="M179 -115.5q-42 -40.5 -90 -58t-113 -17.5q-39 0 -71 8l28 112q21 -8 52 -8q53 0 85 31.5t32 78.5q0 17 -5 64l-41 413h138l12 -170q8 -117 7 -213h2q57 122 108 213l95 170h156l-309 -511q-44 -72 -86 -112.5zM395 566h-104l-110 146h167z" />
    <glyph glyph-name="uni2010" unicode="&#x2010;" horiz-adv-x="320" 
d="M26 237l27 110h260l-27 -110h-260z" />
    <glyph glyph-name="endash" unicode="&#x2013;" horiz-adv-x="500" 
d="M16 237l27 110h460l-27 -110h-460z" />
    <glyph glyph-name="emdash" unicode="&#x2014;" horiz-adv-x="1000" 
d="M16 237l27 110h960l-27 -110h-960z" />
    <glyph glyph-name="uni2015" unicode="&#x2015;" horiz-adv-x="1000" 
d="M-47 237l27 110h960l-27 -110h-960z" />
    <glyph glyph-name="underscoredbl" unicode="&#x2017;" horiz-adv-x="500" 
d="M-94 -121l18 71h500l-18 -71h-500zM-130 -266l18 71h500l-18 -71h-500z" />
    <glyph glyph-name="quoteleft" unicode="&#x2018;" horiz-adv-x="254" 
d="M239 712h71l-84 -146h44l-35 -142h-131l35 142z" />
    <glyph glyph-name="quoteright" unicode="&#x2019;" horiz-adv-x="255" 
d="M172 424h-71l84 146h-44l35 142h131l-35 -142z" />
    <glyph glyph-name="quotesinglbase" unicode="&#x201a;" horiz-adv-x="254" 
d="M30 -146h-71l84 146h-44l35 142h131l-35 -142z" />
    <glyph glyph-name="quotedblleft" unicode="&#x201c;" horiz-adv-x="436" 
d="M239 712h71l-84 -146h44l-35 -142h-131l35 142zM421 712h71l-84 -146h44l-35 -142h-131l35 142z" />
    <glyph glyph-name="quotedblright" unicode="&#x201d;" horiz-adv-x="436" 
d="M172 424h-71l84 146h-44l35 142h131l-35 -142zM354 424h-71l84 146h-44l35 142h131l-35 -142z" />
    <glyph glyph-name="quotedblbase" unicode="&#x201e;" horiz-adv-x="436" 
d="M30 -146h-71l84 146h-44l35 142h131l-35 -142zM212 -146h-71l84 146h-44l35 142h131l-35 -142z" />
    <glyph glyph-name="dagger" unicode="&#x2020;" horiz-adv-x="564" 
d="M580 536l-27 -111h-158l-136 -545h-140l136 545h-158l27 111h158l44 176h140l-44 -176h158z" />
    <glyph glyph-name="daggerdbl" unicode="&#x2021;" horiz-adv-x="564" 
d="M580 536l-27 -111h-158l-65 -258h158l-27 -111h-158l-44 -176h-140l44 176h-158l27 111h158l65 258h-158l27 111h158l44 176h140l-44 -176h158z" />
    <glyph glyph-name="bullet" unicode="&#x2022;" horiz-adv-x="360" 
d="M110 235q-32 19 -51 51t-19 70t19 70.5t51 51t70 18.5t70.5 -18.5t51 -51t18.5 -70.5t-18.5 -70t-51 -51t-70.5 -19t-70 19z" />
    <glyph glyph-name="ellipsis" unicode="&#x2026;" horiz-adv-x="898" 
d="M-11 0l41 167h154l-41 -167h-154zM309 0l41 167h154l-41 -167h-154zM629 0l41 167h154l-41 -167h-154z" />
    <glyph glyph-name="perthousand" unicode="&#x2030;" horiz-adv-x="1091" 
d="M48 -30l603 734h84l-603 -734h-84zM360.5 658.5q31.5 -31.5 31.5 -91.5q0 -52 -20 -102.5t-59 -83.5t-94 -33q-62 0 -94 31.5t-32 92.5q0 51 20 101.5t60 83.5t95 33q61 0 92.5 -31.5zM221.5 590q-17.5 -25 -26.5 -59t-9 -59q0 -49 34 -49q25 0 42.5 25t26 59t8.5 59
q0 49 -34 49q-24 0 -41.5 -25zM659.5 294.5q31.5 -31.5 31.5 -91.5q0 -52 -20 -102.5t-59 -83.5t-94 -33q-62 0 -94 31.5t-32 92.5q0 51 20 101.5t60 83.5t95 33q61 0 92.5 -31.5zM1007.5 294.5q31.5 -31.5 31.5 -91.5q0 -52 -20 -102.5t-59 -83.5t-94 -33q-62 0 -94 31.5
t-32 92.5q0 51 20 101.5t60 83.5t95 33q61 0 92.5 -31.5zM520.5 226q-17.5 -25 -26.5 -59t-9 -59q0 -49 34 -49q25 0 42.5 25t26 59t8.5 59q0 49 -34 49q-24 0 -41.5 -25zM868.5 226q-17.5 -25 -26.5 -59t-9 -59q0 -49 34 -49q25 0 42.5 25t26 59t8.5 59q0 49 -34 49
q-24 0 -41.5 -25z" />
    <glyph glyph-name="guilsinglleft" unicode="&#x2039;" horiz-adv-x="324" 
d="M230 54h-116l-69 204l157 196h128l-159 -204z" />
    <glyph glyph-name="guilsinglright" unicode="&#x203a;" horiz-adv-x="324" 
d="M94 454h116l69 -204l-157 -196h-128l159 204z" />
    <glyph glyph-name="interrobang" unicode="&#x203d;" horiz-adv-x="547" 
d="M531.5 586q29.5 -40 29.5 -98q0 -61 -33 -110.5t-117 -94.5q-56 -30 -76.5 -48t-28.5 -49h-119q9 48 21 74t38 48.5t81 55.5q53 32 70.5 55t17.5 53t-19.5 47.5t-57.5 17.5q-45 0 -73 -22t-41 -70h-146q23 91 78 143.5t138 65.5l11 58h162l-21 -68q56 -18 85.5 -58z
M309 132l-33 -132h-154l33 132h154z" />
    <glyph glyph-name="overline" unicode="&#x203e;" horiz-adv-x="500" 
d="M131 778l22 91h500l-22 -91h-500z" />
    <glyph glyph-name="fraction" unicode="&#x2044;" horiz-adv-x="148" 
d="M-219 0l537 674h91l-537 -674h-91z" />
    <glyph glyph-name="zero.superior" unicode="&#x2070;" horiz-adv-x="469" 
d="M477.5 766q42.5 -47 42.5 -135q0 -71 -28.5 -143t-85 -120.5t-136.5 -48.5q-82 0 -124.5 46.5t-42.5 134.5q0 71 28.5 143.5t85 121t136.5 48.5q82 0 124.5 -47zM282 679q-27 -39 -41 -92t-14 -91q0 -40 13 -61.5t38 -21.5q37 0 63.5 39t40.5 92t14 91q0 40 -13 61.5
t-38 21.5q-36 0 -63 -39z" />
    <glyph glyph-name="four.superior" unicode="&#x2074;" horiz-adv-x="450" 
d="M407 427l-24 -97h-121l24 97h-232l26 105l254 270h167l-71 -283h74l-22 -92h-75zM313 519l13 52q22 86 40 139h-2q-36 -40 -114 -125l-62 -66h125z" />
    <glyph glyph-name="five.superior" unicode="&#x2075;" horiz-adv-x="451" 
d="M279 703l-31 -83h2q39 26 87 26q65 0 102 -37t37 -99q0 -43 -26.5 -87.5t-77.5 -74t-121 -29.5q-79 0 -123 31t-44 88q0 17 3 27h124q-1 -5 -1 -12q0 -19 15 -30t41 -11q41 0 62 27.5t21 61.5q0 27 -14.5 41t-40.5 14q-23 0 -41.5 -12.5t-27.5 -32.5l-119 7l98 284h322
l-24 -99h-223z" />
    <glyph glyph-name="six.superior" unicode="&#x2076;" horiz-adv-x="448" 
d="M473.5 780q42.5 -33 42.5 -92q0 -13 -1 -20h-123v8q0 22 -12 33.5t-34 11.5q-33 0 -61.5 -28t-46.5 -85h2q44 30 100 30q63 0 99.5 -37.5t36.5 -100.5q0 -41 -24.5 -83.5t-71.5 -70t-110 -27.5q-81 0 -124.5 44.5t-43.5 131.5q0 69 29.5 143.5t87 124.5t135.5 50
q77 0 119.5 -33zM243.5 525.5q-21.5 -26.5 -21.5 -55.5q0 -26 13.5 -41.5t38.5 -15.5q34 0 55.5 25t21.5 54q0 28 -13.5 44t-37.5 16q-35 0 -56.5 -26.5z" />
    <glyph glyph-name="seven.superior" unicode="&#x2077;" horiz-adv-x="400" 
d="M367.5 531.5q-62.5 -97.5 -105.5 -201.5h-142q49 110 117 208t132 161h-249l26 103h377l-23 -99q-70 -74 -132.5 -171.5z" />
    <glyph glyph-name="eight.superior" unicode="&#x2078;" horiz-adv-x="450" 
d="M468 779q45 -34 45 -92q0 -42 -30 -76.5t-85 -44.5v-2q32 -11 51 -38.5t19 -63.5q0 -35 -23 -68t-69.5 -54t-113.5 -21q-83 0 -130 36t-47 100q0 44 34 81t94 47v2q-29 12 -45 36.5t-16 56.5t23 63t66.5 51.5t103.5 20.5q78 0 123 -34zM282.5 703q-19.5 -18 -19.5 -40
t15 -34.5t43 -12.5q34 0 53.5 18t19.5 40t-15 34.5t-42 12.5q-35 0 -54.5 -18zM229.5 506q-20.5 -20 -20.5 -43t16.5 -37t45.5 -14q36 0 57.5 18.5t21.5 44.5q0 24 -16.5 37.5t-46.5 13.5q-37 0 -57.5 -20z" />
    <glyph glyph-name="nine.superior" unicode="&#x2079;" horiz-adv-x="448" 
d="M129.5 352q-42.5 33 -42.5 92q0 13 1 20h123v-8q0 -22 12 -33.5t34 -11.5q33 0 61.5 28t46.5 85h-2q-43 -30 -100 -30q-63 0 -99.5 37.5t-36.5 100.5q0 41 24.5 83.5t71.5 70t110 27.5q81 0 124.5 -44.5t43.5 -131.5q0 -69 -29.5 -143.5t-87 -124.5t-135.5 -50
q-77 0 -119.5 33zM359.5 606.5q21.5 26.5 21.5 55.5q0 26 -13.5 41.5t-38.5 15.5q-34 0 -55.5 -25t-21.5 -54q0 -28 13.5 -44t37.5 -16q35 0 56.5 26.5z" />
    <glyph glyph-name="plussuperior" unicode="&#x207a;" horiz-adv-x="413" 
d="M368 598v-93h-114v-111h-95v111h-114v93h114v111h95v-111h114z" />
    <glyph glyph-name="uni207B" unicode="&#x207b;" horiz-adv-x="413" 
d="M45 505v93h323v-93h-323z" />
    <glyph glyph-name="equalsuperior" unicode="&#x207c;" horiz-adv-x="413" 
d="M45 579v89h323v-89h-323zM45 435v89h323v-89h-323z" />
    <glyph glyph-name="parenleftsuperior" unicode="&#x207d;" horiz-adv-x="251" 
d="M209 397q0 -77 14 -170h-93q-40 107 -40 215q0 100 46.5 205.5t140.5 201.5h101q-169 -228 -169 -452z" />
    <glyph glyph-name="parenrightsuperior" unicode="&#x207e;" horiz-adv-x="251" 
d="M184 679q0 77 -14 170h93q40 -107 40 -215q0 -100 -46.5 -205.5t-140.5 -201.5h-101q169 228 169 452z" />
    <glyph glyph-name="zero.inferior" unicode="&#x2080;" horiz-adv-x="469" 
d="M352.5 264q42.5 -47 42.5 -135q0 -71 -28.5 -143t-85 -120.5t-136.5 -48.5q-82 0 -124.5 46.5t-42.5 134.5q0 71 28.5 143.5t85 121t136.5 48.5q82 0 124.5 -47zM157 177q-27 -39 -41 -92t-14 -91q0 -40 13 -61.5t38 -21.5q37 0 63.5 39t40.5 92t14 91q0 40 -13 61.5
t-38 21.5q-36 0 -63 -39z" />
    <glyph glyph-name="one.inferior" unicode="&#x2081;" horiz-adv-x="316" 
d="M23 -172l75 301h-119l22 89q63 0 99 19.5t54 62.5h111l-118 -472h-124z" />
    <glyph glyph-name="two.inferior" unicode="&#x2082;" horiz-adv-x="457" 
d="M346 276.5q43 -34.5 43 -92.5q0 -54 -39 -97t-122 -79q-67 -29 -91.5 -45.5t-31.5 -35.5h235l-23 -99h-386q15 92 61 144.5t141 95.5q71 32 100 55t29 52q0 20 -12 30.5t-34 10.5q-57 0 -74 -69h-126q19 79 73.5 121.5t135.5 42.5q78 0 121 -34.5z" />
    <glyph glyph-name="three.inferior" unicode="&#x2083;" horiz-adv-x="452" 
d="M346 278q44 -33 44 -90q0 -41 -26.5 -73t-84.5 -50v-1q64 -27 64 -93q0 -37 -23 -72.5t-69 -58.5t-110 -23q-88 0 -134.5 33.5t-46.5 98.5q0 20 4 36h124q-3 -12 -3 -24q0 -49 61 -49q34 0 54.5 18.5t20.5 40.5q0 48 -73 48h-13l22 92h15q45 0 69.5 18.5t24.5 43.5
q0 21 -13.5 32t-40.5 11q-62 0 -79 -70h-123q18 78 74 121.5t138 43.5q80 0 124 -33z" />
    <glyph glyph-name="four.inferior" unicode="&#x2084;" horiz-adv-x="449" 
d="M281 -75l-24 -97h-121l24 97h-232l26 105l254 270h167l-71 -283h74l-22 -92h-75zM187 17l13 52q22 86 40 139h-2q-36 -40 -114 -125l-62 -66h125z" />
    <glyph glyph-name="five.inferior" unicode="&#x2085;" horiz-adv-x="451" 
d="M154 201l-31 -83h2q39 26 87 26q65 0 102 -37t37 -99q0 -43 -26.5 -87.5t-77.5 -74t-121 -29.5q-79 0 -123 31t-44 88q0 17 3 27h124q-1 -5 -1 -12q0 -19 15 -30t41 -11q41 0 62 27.5t21 61.5q0 27 -14.5 41t-40.5 14q-23 0 -41.5 -12.5t-27.5 -32.5l-119 7l98 284h322
l-24 -99h-223z" />
    <glyph glyph-name="six.inferior" unicode="&#x2086;" horiz-adv-x="447" 
d="M347.5 278q42.5 -33 42.5 -92q0 -13 -1 -20h-123v8q0 22 -12 33.5t-34 11.5q-33 0 -61.5 -28t-46.5 -85h2q44 30 100 30q63 0 99.5 -37.5t36.5 -100.5q0 -41 -24.5 -83.5t-71.5 -70t-110 -27.5q-81 0 -124.5 44.5t-43.5 131.5q0 69 29.5 143.5t87 124.5t135.5 50
q77 0 119.5 -33zM117.5 23.5q-21.5 -26.5 -21.5 -55.5q0 -26 13.5 -41.5t38.5 -15.5q34 0 55.5 25t21.5 54q0 28 -13.5 44t-37.5 16q-35 0 -56.5 -26.5z" />
    <glyph glyph-name="seven.inferior" unicode="&#x2087;" horiz-adv-x="400" 
d="M242.5 29.5q-62.5 -97.5 -105.5 -201.5h-142q49 110 117 208t132 161h-249l26 103h377l-23 -99q-70 -74 -132.5 -171.5z" />
    <glyph glyph-name="eight.inferior" unicode="&#x2088;" horiz-adv-x="450" 
d="M342 277q45 -34 45 -92q0 -42 -30 -76.5t-85 -44.5v-2q32 -11 51 -38.5t19 -63.5q0 -35 -23 -68t-69.5 -54t-113.5 -21q-83 0 -130 36t-47 100q0 44 34 81t94 47v2q-29 12 -45 36.5t-16 56.5t23 63t66.5 51.5t103.5 20.5q78 0 123 -34zM156.5 201q-19.5 -18 -19.5 -40
t15 -34.5t43 -12.5q34 0 53.5 18t19.5 40t-15 34.5t-42 12.5q-35 0 -54.5 -18zM103.5 4q-20.5 -20 -20.5 -43t16.5 -37t45.5 -14q36 0 57.5 18.5t21.5 44.5q0 24 -16.5 37.5t-46.5 13.5q-37 0 -57.5 -20z" />
    <glyph glyph-name="nine.inferior" unicode="&#x2089;" horiz-adv-x="448" 
d="M4.5 -150q-42.5 33 -42.5 92q0 13 1 20h123v-8q0 -22 12 -33.5t34 -11.5q33 0 61.5 28t46.5 85h-2q-43 -30 -100 -30q-63 0 -99.5 37.5t-36.5 100.5q0 41 24.5 83.5t71.5 70t110 27.5q81 0 124.5 -44.5t43.5 -131.5q0 -69 -29.5 -143.5t-87 -124.5t-135.5 -50
q-77 0 -119.5 33zM234.5 104.5q21.5 26.5 21.5 55.5q0 26 -13.5 41.5t-38.5 15.5q-34 0 -55.5 -25t-21.5 -54q0 -28 13.5 -44t37.5 -16q35 0 56.5 26.5z" />
    <glyph glyph-name="uni208A" unicode="&#x208a;" horiz-adv-x="413" 
d="M368 96v-93h-114v-111h-95v111h-114v93h114v111h95v-111h114z" />
    <glyph glyph-name="uni208B" unicode="&#x208b;" horiz-adv-x="413" 
d="M45 3v93h323v-93h-323z" />
    <glyph glyph-name="uni208C" unicode="&#x208c;" horiz-adv-x="413" 
d="M45 77v89h323v-89h-323zM45 -67v89h323v-89h-323z" />
    <glyph glyph-name="uni208D" unicode="&#x208d;" horiz-adv-x="251" 
d="M84 -105q0 -77 14 -170h-93q-40 107 -40 215q0 100 46.5 205.5t140.5 201.5h101q-169 -228 -169 -452z" />
    <glyph glyph-name="uni208E" unicode="&#x208e;" horiz-adv-x="251" 
d="M58 177q0 77 -14 170h93q40 -107 40 -215q0 -100 -46.5 -205.5t-140.5 -201.5h-101q169 228 169 452z" />
    <glyph glyph-name="franc" unicode="&#x20a3;" 
d="M291 422h299l-31 -126h-299l-23 -92h164l-27 -107h-164l-24 -97h-147l24 97h-78l27 107h78l117 470h471l-31 -126h-324z" />
    <glyph glyph-name="lira" unicode="&#x20a4;" 
d="M489 501q0 34 -17.5 51.5t-50.5 17.5q-81 0 -108 -107l-12 -48h122l-17 -70h-122l-10 -40h122l-17 -70h-123q-13 -46 -34 -73t-57 -44v-2h366l-29 -116h-541l29 118q43 0 72.5 27t46.5 90h-89l17 70h90l10 40h-90l17 70h91l18 74q25 101 91.5 151t170.5 50
q94 0 145.5 -44t51.5 -123q0 -23 -6 -50h-140q3 15 3 28z" />
    <glyph glyph-name="peseta" unicode="&#x20a7;" horiz-adv-x="895" 
d="M747 155q0 -27 12.5 -38.5t41.5 -11.5q15 0 33 4l-28 -109q-25 -7 -55 -7q-77 0 -113 30t-36 97q0 30 11 74l52 210h-46q-22 -80 -92 -135t-186 -55h-122l-53 -214h-147l167 674h189q111 0 173.5 -43.5t75.5 -122.5h67l33 132h140l-33 -132h97l-26 -104h-97l-53 -213
q-5 -23 -5 -36zM444 371q33 35 33 82q0 99 -112 99h-62l-54 -216h92q70 0 103 35z" />
    <glyph glyph-name="Euro" unicode="&#x20ac;" 
d="M498 479q0 44 -23 68t-67 24q-55 0 -97 -41.5t-69 -106.5h221l-30 -70h-212q-4 -14 -8 -40h202l-31 -70h-175q3 -69 28 -104.5t71 -35.5q42 0 75.5 28.5t50.5 78.5h141q-31 -105 -106.5 -165.5t-173.5 -60.5q-109 0 -166 66t-60 193h-71l31 70h44q2 21 6 40h-53l30 70h42
q39 116 122 191.5t204 75.5q103 0 159 -49.5t56 -137.5q0 -16 -3 -36h-138v12z" />
    <glyph glyph-name="uni20B9" unicode="&#x20b9;" 
d="M517 520h122l-45 -86h-86q-19 -49 -71 -85.5t-136 -49.5v-2q35 -12 56.5 -39.5t35.5 -78.5l48 -179h-158l-40 170q-13 55 -41 79t-76 24h-16l23 93h57q58 0 96.5 19t57.5 49h-271l45 86h236q-19 68 -120 68h-123l46 86h521l-46 -86h-167v-2q43 -20 52 -66z" />
    <glyph glyph-name="uni20BA" unicode="&#x20ba;" 
d="M465 76q-104 -84 -270 -84q-75 0 -157 12l60 242l-99 -48l22 90l100 48l16 67l-99 -48l22 90l100 48l45 181h147l-28 -113l188 90l-22 -90l-189 -90l-16 -67l188 90l-22 -90l-189 -90l-48 -193q95 0 154.5 51t78.5 150h152q-30 -162 -134 -246z" />
    <glyph glyph-name="uni20BC" unicode="&#x20bc;" horiz-adv-x="716" 
d="M652 545.5q45 -55.5 45 -156.5q0 -52 -16 -115l-68 -274h-132l69 278q13 51 13 92q0 53 -19.5 82.5t-60.5 37.5l-122 -490h-132l122 493q-69 -5 -105 -46t-59 -133l-78 -314h-132l84 338q36 143 111.5 210.5t210.5 71.5l23 92h132l-24 -97q93 -14 138 -69.5z" />
    <glyph glyph-name="uni20BD" unicode="&#x20bd;" 
d="M573 624q57 -50 57 -140q0 -54 -27.5 -107t-86 -87.5t-144.5 -34.5h-137l-13 -54h181l-27 -106h-181l-23 -95h-147l23 95h-79l27 106h79l13 54h-79l28 112h79l77 307h209q114 0 171 -50zM263 367h96q63 0 91.5 31t28.5 74q0 90 -99 90h-68z" />
    <glyph glyph-name="uni2113" unicode="&#x2113;" horiz-adv-x="450" 
d="M200 145q0 -56 55 -56q23 0 44 6l-25 -99q-30 -6 -65 -6q-77 0 -114 32t-37 99q0 30 10 66q-32 4 -48 7l19 75q20 -4 47 -6l58 232q28 109 71.5 152t116.5 43q58 0 92 -37.5t34 -117.5q0 -66 -27.5 -133.5t-83.5 -121.5t-136 -78l-5 -18q-6 -21 -6 -39zM313.5 582
q-13.5 -19 -25.5 -69l-54 -217q69 38 106 106.5t37 134.5q0 64 -31 64q-19 0 -32.5 -19z" />
    <glyph glyph-name="uni2117" unicode="&#x2117;" horiz-adv-x="802" 
d="M589.5 680q81.5 -46 126.5 -130t45 -194t-45 -194t-126.5 -130t-188.5 -46t-188.5 46t-126.5 130t-45 194t45 194t126.5 130t188.5 46t188.5 -46zM240.5 631.5q-69.5 -39.5 -107.5 -110.5t-38 -165t38 -165t107.5 -110.5t160.5 -39.5t160.5 39.5t108 110.5t38.5 165
t-38.5 165t-108 110.5t-160.5 39.5t-160.5 -39.5zM563 537.5q43 -39.5 43 -108.5t-43 -108.5t-127 -39.5h-84v-155h-94v451h178q84 0 127 -39.5zM352 360h71q86 0 86 69q0 33 -21 51.5t-65 18.5h-71v-139z" />
    <glyph glyph-name="trademark" unicode="&#x2122;" horiz-adv-x="829" 
d="M303 629l-68 -273h-99l68 273h-106l21 83h311l-21 -83h-106zM723 356l41 163q11 43 35 129h-2l-17 -36q-28 -61 -44 -91l-83 -165h-114l1 165l1 127h-2q-11 -57 -29 -129l-41 -163h-90l89 356h148l1 -141q0 -77 -5 -131h2q27 65 61 131l71 141h156l-89 -356h-90z" />
    <glyph glyph-name="Omega" unicode="&#x2126;" horiz-adv-x="734" 
d="M657.5 666.5q73.5 -61.5 73.5 -180.5q0 -104 -52 -190.5t-156 -169.5v-2h148l-31 -124h-294l32 130q95 74 144 154t49 164q0 73 -36.5 111.5t-99.5 38.5q-69 0 -119 -40.5t-76 -102.5t-26 -125q0 -57 16.5 -104.5t47.5 -95.5l-32 -130h-278l31 124h152v2q-38 55 -59 111
t-21 121q0 89 44 174t131 140.5t209 55.5q129 0 202.5 -61.5z" />
    <glyph glyph-name="estimated" unicode="&#x212e;" horiz-adv-x="863" 
d="M636.5 641q86.5 -49 132.5 -132t46 -181h-612q-6 0 -10 -4t-4 -9v-167q0 -16 3.5 -25.5t12.5 -18.5q93 -91 227 -91q72 0 135.5 30.5t103.5 79.5h69q-40 -56 -118 -95.5t-190 -39.5q-114 0 -201.5 45t-135.5 124t-48 180q0 100 46.5 180.5t134 126.5t204.5 46
q118 0 204.5 -49zM205 570q-9 -8 -12.5 -17t-3.5 -24v-167q0 -5 4 -8.5t10 -3.5h456q6 0 9.5 3.5t3.5 8.5v167q0 15 -3 24t-12 17q-95 94 -225 94q-133 0 -227 -94z" />
    <glyph glyph-name="oneeighth" unicode="&#x215b;" horiz-adv-x="826" 
d="M116 270l64 252h-103l19 81q55 0 86.5 16.5t46.5 54.5h102l-101 -404h-114zM61 0l537 674h91l-537 -674h-91zM758.5 384q40.5 -30 40.5 -80q0 -36 -26 -65t-74 -37v-2q29 -10 45.5 -33.5t16.5 -54.5q0 -30 -20 -58t-61 -46t-101 -18q-75 0 -116.5 31t-41.5 86
q0 39 29.5 70.5t82.5 38.5v2q-26 10 -40.5 31.5t-14.5 48.5q0 28 20 54.5t58.5 44t92.5 17.5q69 0 109.5 -30zM596.5 317.5q-16.5 -14.5 -16.5 -32.5t12.5 -28.5t36.5 -10.5q28 0 45 14.5t17 33.5q0 18 -13 28t-36 10q-29 0 -45.5 -14.5zM551 149.5q-17 -16.5 -17 -35.5
t13.5 -29.5t38.5 -10.5q31 0 48.5 15.5t17.5 36.5q0 19 -13.5 29.5t-38.5 10.5q-32 0 -49 -16.5z" />
    <glyph glyph-name="threeeighths" unicode="&#x215c;" horiz-adv-x="946" 
d="M404 656q39 -28 39 -78q0 -75 -96 -105v-2q56 -21 56 -78q0 -32 -20.5 -62.5t-61 -50.5t-97.5 -20q-79 0 -120.5 29.5t-41.5 85.5q0 15 3 31h114q-2 -14 -2 -20q0 -40 52 -40q29 0 46 15t17 32q0 39 -62 39h-12l20 82h14q37 0 57.5 15t20.5 35q0 17 -12 26t-34 9
q-53 0 -67 -57h-112q15 67 64.5 104.5t123.5 37.5q72 0 111 -28zM181 0l537 674h91l-537 -674h-91zM878.5 384q40.5 -30 40.5 -80q0 -36 -26 -65t-74 -37v-2q29 -10 45.5 -33.5t16.5 -54.5q0 -30 -20 -58t-61 -46t-101 -18q-75 0 -116.5 31t-41.5 86q0 39 29.5 70.5
t82.5 38.5v2q-26 10 -40.5 31.5t-14.5 48.5q0 28 20 54.5t58.5 44t92.5 17.5q69 0 109.5 -30zM716.5 317.5q-16.5 -14.5 -16.5 -32.5t12.5 -28.5t36.5 -10.5q28 0 45 14.5t17 33.5q0 18 -13 28t-36 10q-29 0 -45.5 -14.5zM671 149.5q-17 -16.5 -17 -35.5t13.5 -29.5
t38.5 -10.5q31 0 48.5 15.5t17.5 36.5q0 19 -13.5 29.5t-38.5 10.5q-32 0 -49 -16.5z" />
    <glyph glyph-name="fiveeighths" unicode="&#x215d;" horiz-adv-x="945" 
d="M234 584l-26 -65h2q35 22 77 22q57 0 89.5 -31.5t32.5 -85.5q0 -37 -23 -75t-68 -63.5t-108 -25.5q-70 0 -110 27.5t-40 76.5q0 11 3 23h114q-2 -6 -2 -9q0 -16 13 -25t35 -9q34 0 52 22t18 50q0 22 -12.5 33.5t-34.5 11.5q-20 0 -35 -10.5t-23 -27.5l-109 7l85 244h286
l-21 -90h-195zM180 0l537 674h91l-537 -674h-91zM877.5 384q40.5 -30 40.5 -80q0 -36 -26 -65t-74 -37v-2q29 -10 45.5 -33.5t16.5 -54.5q0 -30 -20 -58t-61 -46t-101 -18q-75 0 -116.5 31t-41.5 86q0 39 29.5 70.5t82.5 38.5v2q-26 10 -40.5 31.5t-14.5 48.5q0 28 20 54.5
t58.5 44t92.5 17.5q69 0 109.5 -30zM715.5 317.5q-16.5 -14.5 -16.5 -32.5t12.5 -28.5t36.5 -10.5q28 0 45 14.5t17 33.5q0 18 -13 28t-36 10q-29 0 -45.5 -14.5zM670 149.5q-17 -16.5 -17 -35.5t13.5 -29.5t38.5 -10.5q31 0 48.5 15.5t17.5 36.5q0 19 -13.5 29.5
t-38.5 10.5q-32 0 -49 -16.5z" />
    <glyph glyph-name="seveneighths" unicode="&#x215e;" horiz-adv-x="851" 
d="M313.5 441.5q-53.5 -82.5 -91.5 -171.5h-131q44 93 102 175.5t114 135.5h-216l22 93h335l-21 -89q-60 -61 -113.5 -143.5zM86 0l537 674h91l-537 -674h-91zM783.5 384q40.5 -30 40.5 -80q0 -36 -26 -65t-74 -37v-2q29 -10 45.5 -33.5t16.5 -54.5q0 -30 -20 -58t-61 -46
t-101 -18q-75 0 -116.5 31t-41.5 86q0 39 29.5 70.5t82.5 38.5v2q-26 10 -40.5 31.5t-14.5 48.5q0 28 20 54.5t58.5 44t92.5 17.5q69 0 109.5 -30zM621.5 317.5q-16.5 -14.5 -16.5 -32.5t12.5 -28.5t36.5 -10.5q28 0 45 14.5t17 33.5q0 18 -13 28t-36 10q-29 0 -45.5 -14.5z
M576 149.5q-17 -16.5 -17 -35.5t13.5 -29.5t38.5 -10.5q31 0 48.5 15.5t17.5 36.5q0 19 -13.5 29.5t-38.5 10.5q-32 0 -49 -16.5z" />
    <glyph glyph-name="partialdiff" unicode="&#x2202;" horiz-adv-x="625" 
d="M538.5 662.5q58.5 -65.5 58.5 -185.5q0 -103 -40 -218.5t-120.5 -195t-194.5 -79.5q-105 0 -158.5 55.5t-53.5 153.5q0 58 30.5 125t93.5 114t156 47q54 0 91 -17.5t56 -46.5h2q5 15 8.5 37.5t3.5 39.5q0 57 -26 88t-76 31q-71 0 -93 -75h-145q21 88 82 140t153 52
q114 0 172.5 -65.5zM243.5 344q-34.5 -30 -53 -73.5t-18.5 -81.5q0 -43 20.5 -65.5t61.5 -22.5q51 0 86 30t52 73t17 79q0 43 -22 67t-63 24q-46 0 -80.5 -30z" />
    <glyph glyph-name="Delta" unicode="&#x2206;" horiz-adv-x="698" 
d="M-60 0l426 712h198l68 -712h-692zM465 347q-10 151 -14 278h-2q-65 -133 -147 -278l-125 -221h304z" />
    <glyph glyph-name="product" unicode="&#x220f;" horiz-adv-x="679" 
d="M451 -120v706h-222v-706h-147v832h515v-832h-146z" />
    <glyph glyph-name="summation" unicode="&#x2211;" horiz-adv-x="515" 
d="M197 584l173 -289l-173 -286h283v-129h-445v129l176 286l-176 289v128h445v-128h-283z" />
    <glyph glyph-name="minus" unicode="&#x2212;" horiz-adv-x="566" 
d="M64 262v109h438v-109h-438z" />
    <glyph glyph-name="uni2215" unicode="&#x2215;" horiz-adv-x="488" 
d="M-119 -89l503 834h118l-503 -834h-118z" />
    <glyph glyph-name="uni2219" unicode="&#x2219;" horiz-adv-x="362" 
d="M104 222v167h154v-167h-154z" />
    <glyph glyph-name="radical" unicode="&#x221a;" horiz-adv-x="641" 
d="M198 -120l-90 385h-83v112h177l91 -380h2l204 715h122l-238 -832h-185z" />
    <glyph glyph-name="infinity" unicode="&#x221e;" horiz-adv-x="674" 
d="M616 431.5q43 -46.5 43 -123.5t-43 -123.5t-114 -46.5q-54 0 -93 24.5t-72 66.5q-34 -43 -72.5 -67t-92.5 -24q-71 0 -114 46.5t-43 123.5t43 123.5t114 46.5q54 0 92.5 -24t72.5 -67q33 42 72 66.5t93 24.5q71 0 114 -46.5zM234 257.5q22 17.5 46 50.5q-24 33 -46 50.5
t-50 17.5q-30 0 -47 -18.5t-17 -49.5t17 -49.5t47 -18.5q28 0 50 17.5zM537 258.5q17 18.5 17 49.5t-17 49.5t-47 18.5q-28 0 -50.5 -17.5t-46.5 -50.5q24 -33 46.5 -50.5t50.5 -17.5q30 0 47 18.5z" />
    <glyph glyph-name="integral" unicode="&#x222b;" horiz-adv-x="352" 
d="M344 712v-99q-9 3 -25 3q-38 0 -56 -18.5t-18 -60.5v-564q0 -83 -43 -124.5t-125 -41.5q-35 0 -69 8v99q9 -3 25 -3q38 0 56 18.5t18 60.5v564q0 83 43 124.5t125 41.5q35 0 69 -8z" />
    <glyph glyph-name="approxequal" unicode="&#x2248;" horiz-adv-x="566" 
d="M246 499.5q23 -11.5 53 -32.5q22 -16 37.5 -24.5t31.5 -8.5q24 0 38 17.5t14 46.5h86q0 -75 -36.5 -120.5t-97.5 -45.5q-29 0 -52.5 11.5t-52.5 32.5q-24 17 -39 25t-30 8q-25 0 -38.5 -17t-13.5 -47h-86q0 75 36.5 120.5t97.5 45.5q29 0 52 -11.5zM246 290.5
q23 -11.5 53 -32.5q22 -16 37.5 -24.5t31.5 -8.5q25 0 38.5 17t13.5 47h86q0 -75 -36.5 -120.5t-97.5 -45.5q-29 0 -52.5 11.5t-52.5 32.5q-24 17 -39 25t-30 8q-24 0 -38 -17.5t-14 -46.5h-86q0 75 36.5 120.5t97.5 45.5q29 0 52 -11.5z" />
    <glyph glyph-name="notequal" unicode="&#x2260;" horiz-adv-x="566" 
d="M309 276h193v-109h-255l-67 -117h-98l67 117h-85v109h146l47 81h-193v109h254l67 117h99l-67 -117h85v-109h-147z" />
    <glyph glyph-name="lessequal" unicode="&#x2264;" horiz-adv-x="566" 
d="M193 345v-2l309 -104v-110l-438 148v134l438 148v-110zM502 0h-438v105h438v-105z" />
    <glyph glyph-name="greaterequal" unicode="&#x2265;" horiz-adv-x="566" 
d="M502 277l-438 -148v110l309 104v2l-309 104v110l438 -148v-134zM64 0v105h438v-105h-438z" />
    <glyph glyph-name="lozenge" unicode="&#x25ca;" horiz-adv-x="644" 
d="M415 0h-186l-189 356l189 356h186l189 -356zM322 100l138 256l-138 256l-138 -256z" />
    <glyph glyph-name="uniF8FF" unicode="&#xf8ff;" 
d="M589.5 740.5q36.5 -36.5 36.5 -98.5v-572q0 -62 -36.5 -98.5t-98.5 -36.5h-340q-62 0 -98.5 36.5t-36.5 98.5v572q0 62 36.5 98.5t98.5 36.5h340q62 0 98.5 -36.5zM99 694q-19 -19 -19 -52v-572q0 -33 19 -52t52 -19h340q33 0 52 19t19 52v572q0 33 -19 52t-52 19h-340
q-33 0 -52 -19zM455 606.5q48 -40.5 48 -110.5q0 -41 -15 -69.5t-57 -67.5q-40 -37 -52.5 -64t-12.5 -76h-102q-1 11 -1 31q0 55 13 85t54 72q30 30 38.5 46.5t8.5 40.5t-14 38t-40 14q-32 0 -47.5 -19t-16.5 -61h-125q1 88 50.5 134.5t138.5 46.5q84 0 132 -40.5zM251 65
v112h128v-112h-128z" />
    <glyph glyph-name="ff" unicode="&#xfb00;" horiz-adv-x="652" 
d="M756 710l-24 -97q-9 3 -23 3q-39 0 -62 -20t-35 -67l-5 -21h95l-26 -104h-95l-101 -404h-138l101 404h-173l-101 -404h-138l101 404h-85l26 104h85l14 58q19 77 70 115.5t130 38.5q39 0 73 -10l-24 -97q-9 3 -23 3q-39 0 -62 -20t-35 -67l-5 -21h173l14 58
q19 77 70 115.5t130 38.5q39 0 73 -10z" />
    <glyph glyph-name="fi" unicode="&#xfb01;" horiz-adv-x="617" 
d="M445 710l-24 -97q-9 3 -23 3q-39 0 -62 -20t-35 -67l-5 -21h95l-26 -104h-95l-101 -404h-138l101 404h-85l26 104h85l14 58q19 77 70 115.5t130 38.5q39 0 73 -10zM346 0l126 508h140l-126 -508h-140zM493 592l30 120h140l-30 -120h-140z" />
    <glyph glyph-name="fl" unicode="&#xfb02;" horiz-adv-x="617" 
d="M445 710l-24 -97q-9 3 -23 3q-39 0 -62 -20t-35 -67l-5 -21h95l-26 -104h-95l-101 -404h-138l101 404h-85l26 104h85l14 58q19 77 70 115.5t130 38.5q39 0 73 -10zM346 0l177 712h140l-177 -712h-140z" />
    <glyph glyph-name="ffi" unicode="&#xfb03;" horiz-adv-x="928" 
d="M480 0h-138l101 404h-173l-101 -404h-138l101 404h-85l26 104h85l14 58q19 77 70 115.5t130 38.5q39 0 73 -10l-24 -97q-9 3 -23 3q-39 0 -62 -20t-35 -67l-5 -21h173l14 58q19 77 70 115.5t130 38.5q39 0 73 -10l-24 -97q-9 3 -23 3q-39 0 -62 -20t-35 -67l-5 -21h95
l-26 -104h-95zM944 592h-140l30 120h140zM923 508l-126 -508h-140l126 508h140z" />
    <glyph glyph-name="ffl" unicode="&#xfb04;" horiz-adv-x="928" 
d="M480 0h-138l101 404h-173l-101 -404h-138l101 404h-85l26 104h85l14 58q19 77 70 115.5t130 38.5q39 0 73 -10l-24 -97q-9 3 -23 3q-39 0 -62 -20t-35 -67l-5 -21h173l14 58q19 77 70 115.5t130 38.5q39 0 73 -10l-24 -97q-9 3 -23 3q-39 0 -62 -20t-35 -67l-5 -21h95
l-26 -104h-95zM797 0h-140l177 712h140z" />
    <glyph glyph-name="uniFEFF" unicode="&#xfeff;" horiz-adv-x="0" 
 />
    <glyph glyph-name="J.acute.loclNLD" horiz-adv-x="392" 
d="M209 46q-67 -53 -184 -53q-41 0 -73 10l31 123q22 -5 40 -5q40 0 67 12t47 43.5t34 89.5l111 446h147l-125 -501q-28 -112 -95 -165zM286 770l107 146h179l-170 -146h-116z" />
    <glyph glyph-name="Ccedilla.ss01" horiz-adv-x="702" 
d="M589 699q58 -29 89 -81.5t31 -122.5q0 -24 -4 -44h-148q2 18 2 28q0 56 -31.5 87.5t-87.5 31.5q-72 0 -124.5 -49t-79 -122.5t-26.5 -144.5q0 -77 33 -122.5t97 -45.5q55 0 101 32.5t68 89.5h151q-37 -119 -125.5 -185.5t-207.5 -66.5q-128 0 -198.5 77.5t-70.5 210.5
q0 107 45 212.5t134.5 174.5t215.5 69q78 0 136 -29zM80 -217l175 168h126l-132 -168h-169z" />
    <glyph glyph-name="Scedilla.ss01" horiz-adv-x="630" 
d="M639 547q0 -23 -8 -53h-149q3 15 3 29q0 43 -27.5 65.5t-80.5 22.5q-50 0 -84 -24.5t-34 -61.5q0 -34 29 -54.5t100 -43.5q63 -21 102.5 -43t64.5 -61.5t25 -103.5q0 -56 -35 -110.5t-103.5 -89.5t-162.5 -35q-125 0 -194 50t-69 144q0 28 7 56h152q-4 -17 -4 -36
q0 -95 125 -95q42 0 71 14.5t43 36t14 43.5q0 28 -13 45t-36.5 28.5t-70.5 28.5q-67 23 -106.5 44t-66 59.5t-26.5 101.5q0 53 34 105t100 85.5t156 33.5q244 0 244 -181zM24 -217l175 168h126l-132 -168h-169z" />
    <glyph glyph-name="uni0162.ss01" horiz-adv-x="615" 
d="M464 586l-146 -586h-147l146 586h-224l31 126h595l-31 -126h-224zM9 -217l175 168h126l-132 -168h-169z" />
    <glyph glyph-name="i.loclTRK" horiz-adv-x="276" 
d="M5 0l126 508h140l-126 -508h-140zM152 592l30 120h140l-30 -120h-140z" />
    <glyph glyph-name="j.acute.loclNLD" horiz-adv-x="278" 
d="M64.5 -150.5q-54.5 -39.5 -130.5 -39.5q-43 0 -75 9l25 100q11 -3 23 -3q41 0 65.5 22.5t38.5 79.5l122 490h140l-133 -535q-21 -84 -75.5 -123.5zM133 566l107 146h179l-170 -146h-116z" />
    <glyph glyph-name="ccedilla.ss01" horiz-adv-x="562" 
d="M487 472.5q57 -51.5 57 -136.5q0 -18 -2 -27h-146q2 10 2 19q0 41 -20 64.5t-56 23.5q-45 0 -78 -34.5t-50.5 -83.5t-17.5 -90q0 -55 21.5 -85.5t62.5 -30.5q37 0 67.5 26t43.5 71h147q-29 -93 -101.5 -149t-164.5 -56q-103 0 -161 59t-58 164q0 72 34 145.5t101.5 122.5
t161.5 49q100 0 157 -51.5zM7 -217l175 168h126l-132 -168h-169z" />
    <glyph glyph-name="scedilla.ss01" horiz-adv-x="524" 
d="M447.5 488.5q49.5 -35.5 49.5 -104.5q0 -15 -3 -32h-133q2 14 2 21q0 53 -70 53q-38 0 -56 -15t-18 -35q0 -21 19 -34t73 -32q48 -16 77.5 -31t50 -44.5t20.5 -77.5q0 -44 -27 -84t-81.5 -64.5t-132.5 -24.5q-100 0 -154.5 36.5t-54.5 108.5q0 20 5 36h141q-3 -12 -3 -22
q0 -28 19.5 -43t58.5 -15q38 0 59 15t21 40q0 26 -21.5 40t-76.5 33q-46 16 -72 29.5t-44.5 41t-18.5 74.5q0 42 26 80t77.5 62t124.5 24q93 0 142.5 -35.5zM-33 -217l175 168h126l-132 -168h-169z" />
    <glyph glyph-name="uni0163.ss01" horiz-adv-x="357" 
d="M209 155q0 -27 12.5 -38.5t41.5 -11.5q15 0 33 4l-28 -109q-25 -7 -55 -7q-77 0 -113 30t-36 97q0 30 11 74l52 210h-82l26 104h82l33 132h140l-33 -132h97l-26 -104h-97l-53 -213q-5 -23 -5 -36zM-95 -217l175 168h126l-132 -168h-169z" />
    <glyph glyph-name="a.sups" horiz-adv-x="412" 
d="M444 583q0 -21 -6 -47l-26 -105q-17 -67 -14 -101h-107q0 23 5 40h-2q-52 -49 -122 -49q-53 0 -81.5 26t-28.5 71q0 46 39 81t132 47q53 7 94 9l2 7q3 11 3 21q0 39 -45 39q-23 0 -38 -12.5t-20 -36.5h-116q12 53 59.5 88.5t121.5 35.5q150 0 150 -114zM244 483
q-60 -10 -60 -50q0 -16 10.5 -25t30.5 -9q31 0 51.5 19t29.5 52l5 21q-37 -2 -67 -8z" />
    <glyph glyph-name="b.sups" horiz-adv-x="446" 
d="M270 660q20 17 44.5 26.5t48.5 9.5q60 0 93 -37.5t33 -104.5q0 -53 -23.5 -107.5t-69 -90.5t-106.5 -36q-33 0 -58.5 15t-35.5 42h-1l-12 -47h-116l124 498h120l-42 -168h1zM264 585q-20 -20 -31 -49.5t-11 -56.5q0 -32 13.5 -50t37.5 -18q27 0 47.5 20t31 49t10.5 57
q0 32 -13.5 50t-37.5 18q-27 0 -47 -20z" />
    <glyph glyph-name="c.sups" horiz-adv-x="420" 
d="M428 660q44 -37 44 -100q0 -6 -2 -18h-125q2 6 2 13q0 25 -12.5 38t-35.5 13q-28 0 -48 -21.5t-30.5 -52t-10.5 -55.5q0 -33 13 -50.5t37 -17.5q22 0 40 15.5t26 42.5h125q-21 -68 -74.5 -108t-124.5 -40q-78 0 -122 43t-44 118q0 50 25.5 100.5t75.5 83.5t120 33
q77 0 121 -37z" />
    <glyph glyph-name="d.sups" horiz-adv-x="446" 
d="M302 330l8 30h-2q-21 -19 -47 -29.5t-51 -10.5q-60 0 -93 37.5t-33 104.5q0 53 24 107.5t69.5 90.5t106.5 36q31 0 55 -13.5t36 -37.5h1l45 183h121l-124 -498h-116zM252.5 585q-20.5 -20 -31 -49.5t-10.5 -57.5q0 -32 13 -49.5t38 -17.5q27 0 47 19.5t31 49t11 57.5
q0 32 -13.5 50t-37.5 18q-27 0 -47.5 -20z" />
    <glyph glyph-name="e.sups" horiz-adv-x="427" 
d="M199 457q0 -58 57 -58q23 0 40.5 11t24.5 29h122q-22 -52 -73.5 -86t-115.5 -34q-82 0 -124.5 43t-42.5 117q0 50 25 100.5t73.5 84t116.5 33.5q80 0 123 -41.5t43 -112.5q0 -25 -8 -60h-258q-3 -15 -3 -26zM218 550h137q1 5 1 15q0 27 -15.5 40.5t-41.5 13.5
q-56 0 -81 -69z" />
    <glyph glyph-name="egrave.sups" horiz-adv-x="427" 
d="M182 828h145l52 -104h-100zM199 457q0 -58 57 -58q23 0 40.5 11t24.5 29h122q-22 -52 -73.5 -86t-115.5 -34q-82 0 -124.5 43t-42.5 117q0 50 25 100.5t73.5 84t116.5 33.5q80 0 123 -41.5t43 -112.5q0 -25 -8 -60h-258q-3 -15 -3 -26zM218 550h137q1 5 1 15
q0 27 -15.5 40.5t-41.5 13.5q-56 0 -81 -69z" />
    <glyph glyph-name="f.sups" horiz-adv-x="262" 
d="M398 827l-20 -81q-8 2 -17 2q-28 0 -44 -13t-23 -42l-2 -7h67l-21 -87h-68l-67 -269h-119l67 269h-58l21 87h58l9 35q15 57 55 85.5t102 28.5q30 0 60 -8z" />
    <glyph glyph-name="g.sups" horiz-adv-x="441" 
d="M337 678.5q26 -17.5 37 -46.5h1l14 54h112l-89 -357q-17 -68 -70 -102t-134 -34q-76 0 -115.5 25.5t-39.5 71.5q0 11 2 18h113q-1 -3 -1 -7q0 -15 12.5 -23t35.5 -8q31 0 52 16.5t32 55.5l6 26h-1q-43 -34 -93 -34q-59 0 -91 39t-32 108q0 48 22 98t64 83.5t99 33.5
q38 0 64 -17.5zM250.5 584.5q-18.5 -17.5 -28 -43t-9.5 -47.5q0 -31 13.5 -48.5t37.5 -17.5q26 0 44.5 17t28.5 42.5t10 48.5q0 31 -14 48.5t-39 17.5t-43.5 -17.5z" />
    <glyph glyph-name="h.sups" horiz-adv-x="446" 
d="M269 657q45 38 98 38t83 -27.5t30 -78.5q0 -24 -7 -51l-52 -208h-120l51 204q4 16 4 31q0 37 -40 37q-28 0 -50 -22.5t-33 -66.5l-46 -183h-120l124 498h120l-43 -171h1z" />
    <glyph glyph-name="i.sups" horiz-adv-x="215" 
d="M168 735l23 93h120l-23 -93h-120zM67 330l88 356h120l-88 -356h-120z" />
    <glyph glyph-name="j.sups" horiz-adv-x="218" 
d="M170 735l23 93h120l-22 -93h-121zM129.5 227q-41.5 -30 -99.5 -30q-42 0 -65 8l20 82q8 -2 15 -2q30 0 48 16t28 57l82 328h120l-92 -367q-15 -62 -56.5 -92z" />
    <glyph glyph-name="k.sups" horiz-adv-x="411" 
d="M437 330h-132l-74 167h-2l-42 -167h-120l124 498h120l-69 -275h2l118 133h152l-174 -175z" />
    <glyph glyph-name="l.sups" horiz-adv-x="215" 
d="M67 330l124 498h120l-124 -498h-120z" />
    <glyph glyph-name="m.sups" horiz-adv-x="662" 
d="M668 668q28 -27 28 -78q0 -20 -7 -53l-52 -207h-120l51 206q5 20 5 30q0 36 -36 36q-56 0 -80 -92l-45 -180h-120l52 210q4 13 4 26q0 36 -36 36q-28 0 -48.5 -23.5t-31.5 -68.5l-45 -180h-120l88 356h112l-8 -36h1q47 45 104 45q80 0 96 -64q28 31 59 47.5t70 16.5
q51 0 79 -27z" />
    <glyph glyph-name="n.sups" horiz-adv-x="445" 
d="M449.5 667.5q29.5 -27.5 29.5 -78.5q0 -24 -7 -51l-52 -208h-120l51 204q4 16 4 31q0 37 -40 37q-28 0 -50 -22.5t-33 -66.5l-46 -183h-120l89 356h112l-10 -37h2q48 46 107 46q54 0 83.5 -27.5z" />
    <glyph glyph-name="o.sups" horiz-adv-x="442" 
d="M435 653.5q46 -43.5 46 -120.5q0 -50 -25.5 -99.5t-75 -82t-117.5 -32.5q-83 0 -129 43.5t-46 120.5q0 50 25 99.5t74.5 82t117.5 32.5q84 0 130 -43.5zM251 585.5q-20 -20.5 -29.5 -49.5t-9.5 -56q0 -71 56 -71q29 0 49 20.5t29.5 49.5t9.5 56q0 71 -56 71
q-29 0 -49 -20.5z" />
    <glyph glyph-name="p.sups" horiz-adv-x="445" 
d="M455 658.5q33 -37.5 33 -104.5q0 -53 -23.5 -107.5t-69 -90.5t-106.5 -36q-31 0 -55 13t-36 37h-2l-42 -169h-120l121 485h116l-8 -31h1q21 20 47 30.5t51 10.5q60 0 93 -37.5zM263 585q-20 -20 -30.5 -49t-10.5 -57q0 -32 13.5 -50t37.5 -18q27 0 47 20t31 49.5t11 56.5
q0 32 -13.5 50t-38.5 18q-27 0 -47 -20z" />
    <glyph glyph-name="q.sups" horiz-adv-x="447" 
d="M341.5 681q25.5 -15 35.5 -43h2l12 48h115l-120 -485h-120l38 155h-1q-20 -18 -44 -27t-49 -9q-60 0 -93 37.5t-33 104.5q0 53 24 107.5t69.5 90.5t106.5 36q32 0 57.5 -15zM252.5 585q-20.5 -20 -31 -49.5t-10.5 -57.5q0 -32 13 -49.5t38 -17.5q27 0 47 19.5t31 49
t11 57.5q0 32 -13.5 50t-37.5 18q-27 0 -47.5 -20z" />
    <glyph glyph-name="r.sups" horiz-adv-x="305" 
d="M406 687l-24 -103q-16 4 -37 4q-45 0 -76 -27t-43 -78l-39 -153h-120l88 356h111l-10 -44h1q50 49 116 49q21 0 33 -4z" />
    <glyph glyph-name="s.sups" horiz-adv-x="397" 
d="M403 673q38 -24 38 -71q0 -16 -3 -24h-114q2 8 2 13q0 31 -43 31q-23 0 -34 -8.5t-11 -19.5q0 -13 13 -21.5t50 -20.5q54 -18 84 -40.5t30 -69.5q0 -32 -20.5 -60t-61.5 -45.5t-101 -17.5q-79 0 -121 25t-42 75q0 14 4 27h121q-2 -6 -2 -15q0 -34 49 -34q24 0 36.5 8.5
t12.5 22.5q0 16 -15 24.5t-56 22.5q-33 10 -53.5 20.5t-34 30t-13.5 52.5q0 30 19.5 57.5t59 44.5t96.5 17q72 0 110 -24z" />
    <glyph glyph-name="t.sups" horiz-adv-x="273" 
d="M235 453q0 -18 9 -26t29 -8q13 0 24 3l-23 -92q-26 -6 -47 -6q-60 0 -88.5 23.5t-28.5 74.5q0 21 8 53l31 124h-57l21 87h58l24 96h119l-24 -96h69l-21 -87h-70l-30 -121q-3 -15 -3 -25z" />
    <glyph glyph-name="u.sups" horiz-adv-x="446" 
d="M122.5 348.5q-29.5 27.5 -29.5 78.5q0 24 7 51l52 208h120l-51 -204q-4 -16 -4 -31q0 -37 40 -37q28 0 50 22.5t33 66.5l46 183h120l-89 -356h-112l10 37h-2q-48 -46 -107 -46q-54 0 -83.5 27.5z" />
    <glyph glyph-name="v.sups" horiz-adv-x="387" 
d="M132 330l-29 356h120l3 -128l1 -62q0 -29 -2 -89h2q30 74 69 151l68 128h135l-207 -356h-160z" />
    <glyph glyph-name="w.sups" horiz-adv-x="612" 
d="M382 330l4 132q4 101 7 149h-2q-23 -69 -61 -149l-62 -132h-164l7 356h112l-10 -130q-5 -83 -13 -150h2q32 81 66 151l62 129h156l-2 -129q0 -76 -6 -151h2q21 67 58 150l56 130h122l-170 -356h-164z" />
    <glyph glyph-name="x.sups" horiz-adv-x="386" 
d="M409 330h-126l-36 108h-2l-82 -108h-148l171 187l-75 169h126l32 -97h2l71 97h147l-160 -178z" />
    <glyph glyph-name="y.sups" horiz-adv-x="387" 
d="M224.5 252q-29.5 -30 -64 -43t-82.5 -13q-33 0 -57 6l22 90q15 -5 32 -5q33 0 52 16.5t19 42.5q0 13 -6 54l-37 286h120l7 -119l1 -35q2 -46 2 -70q0 -29 -1 -43h1q33 76 70 148l62 119h134l-211 -349q-34 -55 -63.5 -85z" />
    <glyph glyph-name="z.sups" horiz-adv-x="359" 
d="M213 424v-2h168l-22 -92h-320l24 97l205 165v2h-157l23 92h308l-24 -97z" />
    <glyph glyph-name="a.smcp" horiz-adv-x="586" 
d="M163 107l-60 -107h-163l330 548h192l58 -548h-143l-6 107h-208zM362 260q-8 103 -11 194h-2q-42 -90 -100 -194l-19 -34h134z" />
    <glyph glyph-name="aacute.smcp" horiz-adv-x="586" 
d="M163 107l-60 -107h-163l330 548h192l58 -548h-143l-6 107h-208zM362 260q-8 103 -11 194h-2q-42 -90 -100 -194l-19 -34h134zM286 606l107 146h179l-170 -146h-116z" />
    <glyph glyph-name="abreve.smcp" horiz-adv-x="586" 
d="M163 107l-60 -107h-163l330 548h192l58 -548h-143l-6 107h-208zM362 260q-8 103 -11 194h-2q-42 -90 -100 -194l-19 -34h134zM507 640.5q-55 -39.5 -133 -39.5q-68 0 -106 32.5t-38 90.5q0 8 2 28h83q-1 -5 -1 -13q0 -24 17.5 -37.5t49.5 -13.5q36 0 61 17t33 47h107
q-20 -72 -75 -111.5z" />
    <glyph glyph-name="acircumflex.smcp" horiz-adv-x="586" 
d="M163 107l-60 -107h-163l330 548h192l58 -548h-143l-6 107h-208zM362 260q-8 103 -11 194h-2q-42 -90 -100 -194l-19 -34h134zM441 606l-42 76l-79 -76h-138l150 146h149l78 -146h-118z" />
    <glyph glyph-name="adieresis.smcp" horiz-adv-x="586" 
d="M163 107l-60 -107h-163l330 548h192l58 -548h-143l-6 107h-208zM362 260q-8 103 -11 194h-2q-42 -90 -100 -194l-19 -34h134zM207 632l30 120h123l-30 -120h-123zM424 632l30 120h123l-30 -120h-123z" />
    <glyph glyph-name="agrave.smcp" horiz-adv-x="586" 
d="M163 107l-60 -107h-163l330 548h192l58 -548h-143l-6 107h-208zM362 260q-8 103 -11 194h-2q-42 -90 -100 -194l-19 -34h134zM456 606h-104l-110 146h167z" />
    <glyph glyph-name="amacron.smcp" horiz-adv-x="586" 
d="M163 107l-60 -107h-163l330 548h192l58 -548h-143l-6 107h-208zM362 260q-8 103 -11 194h-2q-42 -90 -100 -194l-19 -34h134zM216 638l22 91h326l-22 -91h-326z" />
    <glyph glyph-name="aogonek.smcp" horiz-adv-x="586" 
d="M163 107l-60 -107h-163l330 548h192l58 -548h-143l-6 107h-208zM362 260q-8 103 -11 194h-2q-42 -90 -100 -194l-19 -34h134zM448.5 -53.5q-19.5 -22.5 -19.5 -44.5q0 -21 28 -21q21 0 37 6l-19 -75q-32 -9 -69 -9q-51 0 -77 19.5t-26 55.5q0 33 26 63t81 59h110
q-52 -31 -71.5 -53.5z" />
    <glyph glyph-name="aring.smcp" horiz-adv-x="586" 
d="M163 107l-60 -107h-163l330 548h192l58 -548h-143l-6 107h-208zM362 260q-8 103 -11 194h-2q-42 -90 -100 -194l-19 -34h134zM461.5 780.5q31.5 -31.5 31.5 -76.5t-31.5 -76.5t-76.5 -31.5t-76.5 31.5t-31.5 76.5t31.5 76.5t76.5 31.5t76.5 -31.5zM347 742.5
q-16 -15.5 -16 -38.5q0 -22 16 -38t38 -16q23 0 38.5 16t15.5 38q0 23 -15.5 38.5t-38.5 15.5q-22 0 -38 -15.5z" />
    <glyph glyph-name="atilde.smcp" horiz-adv-x="586" 
d="M163 107l-60 -107h-163l330 548h192l58 -548h-143l-6 107h-208zM362 260q-8 103 -11 194h-2q-42 -90 -100 -194l-19 -34h134zM539.5 653q-37.5 -36 -87.5 -36q-25 0 -42.5 7t-36.5 20q-16 10 -26.5 14.5t-23.5 4.5q-21 0 -35 -11t-22 -35h-80q17 63 55 99t88 36
q25 0 42.5 -7t37.5 -20q16 -10 26 -14.5t23 -4.5q22 0 36 11t23 35h78q-18 -63 -55.5 -99z" />
    <glyph glyph-name="ae.smcp" horiz-adv-x="815" 
d="M541 336h224l-29 -118h-205l-9 -98h215l-30 -120h-335l11 115h-199l-79 -115h-173l394 548h512l-30 -120h-258zM412 432h-11l-136 -199h129z" />
    <glyph glyph-name="b.smcp" horiz-adv-x="566" 
d="M495.5 514q46.5 -34 46.5 -94q0 -49 -33.5 -88t-100.5 -54v-2q87 -19 87 -101q0 -43 -26 -83.5t-78 -66t-126 -25.5h-259l136 548h214q93 0 139.5 -34zM231 330h71q54 0 74 16t20 45q0 23 -18 34.5t-56 11.5h-64zM177 112h74q57 0 77 17t20 47q0 26 -19.5 37t-64.5 11
h-59z" />
    <glyph glyph-name="c.smcp" horiz-adv-x="589" 
d="M514 514.5q57 -49.5 57 -137.5q0 -18 -3 -38h-149q1 6 1 19q0 39 -21.5 60t-60.5 21q-50 0 -86 -35t-54.5 -86t-19.5 -98q1 -54 25 -82.5t70 -28.5q40 0 69.5 20.5t44.5 57.5h152q-31 -97 -107 -150t-180 -53q-107 0 -165 59t-58 167q0 82 38 164t112 136t176 54
t159 -49.5z" />
    <glyph glyph-name="cacute.smcp" horiz-adv-x="589" 
d="M514 514.5q57 -49.5 57 -137.5q0 -18 -3 -38h-149q1 6 1 19q0 39 -21.5 60t-60.5 21q-50 0 -86 -35t-54.5 -86t-19.5 -98q1 -54 25 -82.5t70 -28.5q40 0 69.5 20.5t44.5 57.5h152q-31 -97 -107 -150t-180 -53q-107 0 -165 59t-58 167q0 82 38 164t112 136t176 54
t159 -49.5zM281 606l107 146h179l-170 -146h-116z" />
    <glyph glyph-name="ccaron.smcp" horiz-adv-x="589" 
d="M514 514.5q57 -49.5 57 -137.5q0 -18 -3 -38h-149q1 6 1 19q0 39 -21.5 60t-60.5 21q-50 0 -86 -35t-54.5 -86t-19.5 -98q1 -54 25 -82.5t70 -28.5q40 0 69.5 20.5t44.5 57.5h152q-31 -97 -107 -150t-180 -53q-107 0 -165 59t-58 167q0 82 38 164t112 136t176 54
t159 -49.5zM291 606l-78 146h118l42 -76l79 76h138l-150 -146h-149z" />
    <glyph glyph-name="ccedilla.smcp" horiz-adv-x="589" 
d="M420 358q0 39 -21.5 60t-60.5 21q-50 0 -86 -35t-54.5 -86t-19.5 -98q1 -54 25 -82.5t70 -28.5q40 0 69.5 20.5t44.5 57.5h152q-28 -89 -94.5 -141t-158.5 -60l-40 -46q9 3 23 3q31 0 51 -19t20 -51q0 -42 -41 -70.5t-100 -28.5q-60 0 -106 30l25 45q38 -22 79 -22
q26 0 41.5 11t15.5 29q0 16 -10 24.5t-28 8.5t-34 -6l-20 18l65 73q-96 7 -147 65.5t-51 159.5q0 82 38 164t112 136t176 54t159 -49.5t57 -137.5q0 -18 -3 -38h-149q1 6 1 19z" />
    <glyph glyph-name="ccircumflex.smcp" horiz-adv-x="589" 
d="M514 514.5q57 -49.5 57 -137.5q0 -18 -3 -38h-149q1 6 1 19q0 39 -21.5 60t-60.5 21q-50 0 -86 -35t-54.5 -86t-19.5 -98q1 -54 25 -82.5t70 -28.5q40 0 69.5 20.5t44.5 57.5h152q-31 -97 -107 -150t-180 -53q-107 0 -165 59t-58 167q0 82 38 164t112 136t176 54
t159 -49.5zM436 606l-42 76l-79 -76h-138l150 146h149l78 -146h-118z" />
    <glyph glyph-name="cdotaccent.smcp" horiz-adv-x="589" 
d="M514 514.5q57 -49.5 57 -137.5q0 -18 -3 -38h-149q1 6 1 19q0 39 -21.5 60t-60.5 21q-50 0 -86 -35t-54.5 -86t-19.5 -98q1 -54 25 -82.5t70 -28.5q40 0 69.5 20.5t44.5 57.5h152q-31 -97 -107 -150t-180 -53q-107 0 -165 59t-58 167q0 82 38 164t112 136t176 54
t159 -49.5zM302 632l30 120h140l-30 -120h-140z" />
    <glyph glyph-name="d.smcp" horiz-adv-x="621" 
d="M517 486q70 -62 70 -179q0 -75 -34.5 -145.5t-108 -116t-183.5 -45.5h-255l136 548h169q136 0 206 -62zM180 123h89q58 0 96.5 26.5t56 68t17.5 86.5q0 121 -134 121h-49z" />
    <glyph glyph-name="eth.smcp" horiz-adv-x="631" 
d="M526 486q70 -62 70 -179q0 -75 -34.5 -145.5t-108 -116t-183.5 -45.5h-255l57 231h-62l23 92h62l56 225h169q136 0 206 -62zM374.5 149.5q38.5 26.5 56 68t17.5 86.5q0 121 -134 121h-49l-26 -102h109l-23 -92h-109l-27 -108h89q58 0 96.5 26.5z" />
    <glyph glyph-name="dcaron.smcp" horiz-adv-x="621" 
d="M517 486q70 -62 70 -179q0 -75 -34.5 -145.5t-108 -116t-183.5 -45.5h-255l136 548h169q136 0 206 -62zM180 123h89q58 0 96.5 26.5t56 68t17.5 86.5q0 121 -134 121h-49zM284 606l-78 146h118l42 -76l79 76h138l-150 -146h-149z" />
    <glyph glyph-name="dcroat.smcp" horiz-adv-x="631" 
d="M526 486q70 -62 70 -179q0 -75 -34.5 -145.5t-108 -116t-183.5 -45.5h-255l57 231h-62l23 92h62l56 225h169q136 0 206 -62zM374.5 149.5q38.5 26.5 56 68t17.5 86.5q0 121 -134 121h-49l-26 -102h109l-23 -92h-109l-27 -108h89q58 0 96.5 26.5z" />
    <glyph glyph-name="e.smcp" horiz-adv-x="536" 
d="M261 428l-23 -92h248l-29 -118h-248l-24 -98h273l-30 -120h-417l136 548h412l-30 -120h-268z" />
    <glyph glyph-name="eacute.smcp" horiz-adv-x="536" 
d="M261 428l-23 -92h248l-29 -118h-248l-24 -98h273l-30 -120h-417l136 548h412l-30 -120h-268zM283 606l107 146h179l-170 -146h-116z" />
    <glyph glyph-name="ebreve.smcp" horiz-adv-x="536" 
d="M261 428l-23 -92h248l-29 -118h-248l-24 -98h273l-30 -120h-417l136 548h412l-30 -120h-268zM504 640.5q-55 -39.5 -133 -39.5q-68 0 -106 32.5t-38 90.5q0 8 2 28h83q-1 -5 -1 -13q0 -24 17.5 -37.5t49.5 -13.5q36 0 61 17t33 47h107q-20 -72 -75 -111.5z" />
    <glyph glyph-name="ecaron.smcp" horiz-adv-x="536" 
d="M261 428l-23 -92h248l-29 -118h-248l-24 -98h273l-30 -120h-417l136 548h412l-30 -120h-268zM293 606l-78 146h118l42 -76l79 76h138l-150 -146h-149z" />
    <glyph glyph-name="ecircumflex.smcp" horiz-adv-x="536" 
d="M261 428l-23 -92h248l-29 -118h-248l-24 -98h273l-30 -120h-417l136 548h412l-30 -120h-268zM438 606l-42 76l-79 -76h-138l150 146h149l78 -146h-118z" />
    <glyph glyph-name="edieresis.smcp" horiz-adv-x="536" 
d="M261 428l-23 -92h248l-29 -118h-248l-24 -98h273l-30 -120h-417l136 548h412l-30 -120h-268zM204 632l30 120h123l-30 -120h-123zM421 632l30 120h123l-30 -120h-123z" />
    <glyph glyph-name="edotaccent.smcp" horiz-adv-x="536" 
d="M261 428l-23 -92h248l-29 -118h-248l-24 -98h273l-30 -120h-417l136 548h412l-30 -120h-268zM304 632l30 120h140l-30 -120h-140z" />
    <glyph glyph-name="egrave.smcp" horiz-adv-x="536" 
d="M261 428l-23 -92h248l-29 -118h-248l-24 -98h273l-30 -120h-417l136 548h412l-30 -120h-268zM453 606h-104l-110 146h167z" />
    <glyph glyph-name="emacron.smcp" horiz-adv-x="536" 
d="M261 428l-23 -92h248l-29 -118h-248l-24 -98h273l-30 -120h-417l136 548h412l-30 -120h-268zM213 638l22 91h326l-22 -91h-326z" />
    <glyph glyph-name="eogonek.smcp" horiz-adv-x="536" 
d="M261 428l-23 -92h248l-29 -118h-248l-24 -98h273l-30 -120h-417l136 548h412l-30 -120h-268zM356.5 -53.5q-19.5 -22.5 -19.5 -44.5q0 -21 28 -21q21 0 37 6l-19 -75q-32 -9 -69 -9q-51 0 -77 19.5t-26 55.5q0 33 26 63t81 59h110q-52 -31 -71.5 -53.5z" />
    <glyph glyph-name="f.smcp" horiz-adv-x="496" 
d="M261 426l-29 -116h235l-30 -122h-235l-47 -188h-144l136 548h398l-30 -122h-254z" />
    <glyph glyph-name="fi.smcp" horiz-adv-x="788" 
d="M261 426l-29 -116h235l-30 -122h-235l-47 -188h-144l136 548h398l-30 -122h-254zM507 0l136 548h144l-136 -548h-144z" />
    <glyph glyph-name="fl.smcp" horiz-adv-x="983" 
d="M261 426l-29 -116h235l-30 -122h-235l-47 -188h-144l136 548h398l-30 -122h-254zM940 122l-30 -122h-403l136 548h144l-106 -426h259z" />
    <glyph glyph-name="g.smcp" horiz-adv-x="622" 
d="M529.5 515.5q56.5 -48.5 56.5 -134.5q0 -12 -1 -18h-153v4q0 76 -85 76q-52 0 -90.5 -36t-58.5 -89.5t-20 -103.5q0 -56 26 -86.5t75 -30.5q48 0 80.5 24.5t44.5 67.5h-122l27 110h258l-74 -299h-123l10 41h-2q-28 -26 -67.5 -40t-85.5 -14q-94 0 -146 57t-52 160
q0 85 39.5 168t117.5 137.5t187 54.5q102 0 158.5 -48.5z" />
    <glyph glyph-name="gbreve.smcp" horiz-adv-x="622" 
d="M529.5 515.5q56.5 -48.5 56.5 -134.5q0 -12 -1 -18h-153v4q0 76 -85 76q-52 0 -90.5 -36t-58.5 -89.5t-20 -103.5q0 -56 26 -86.5t75 -30.5q48 0 80.5 24.5t44.5 67.5h-122l27 110h258l-74 -299h-123l10 41h-2q-28 -26 -67.5 -40t-85.5 -14q-94 0 -146 57t-52 160
q0 85 39.5 168t117.5 137.5t187 54.5q102 0 158.5 -48.5zM512 640.5q-55 -39.5 -133 -39.5q-68 0 -106 32.5t-38 90.5q0 8 2 28h83q-1 -5 -1 -13q0 -24 17.5 -37.5t49.5 -13.5q36 0 61 17t33 47h107q-20 -72 -75 -111.5z" />
    <glyph glyph-name="gcircumflex.smcp" horiz-adv-x="622" 
d="M529.5 515.5q56.5 -48.5 56.5 -134.5q0 -12 -1 -18h-153v4q0 76 -85 76q-52 0 -90.5 -36t-58.5 -89.5t-20 -103.5q0 -56 26 -86.5t75 -30.5q48 0 80.5 24.5t44.5 67.5h-122l27 110h258l-74 -299h-123l10 41h-2q-28 -26 -67.5 -40t-85.5 -14q-94 0 -146 57t-52 160
q0 85 39.5 168t117.5 137.5t187 54.5q102 0 158.5 -48.5zM446 606l-42 76l-79 -76h-138l150 146h149l78 -146h-118z" />
    <glyph glyph-name="gcommaaccent.smcp" horiz-adv-x="622" 
d="M529.5 515.5q56.5 -48.5 56.5 -134.5q0 -12 -1 -18h-153v4q0 76 -85 76q-52 0 -90.5 -36t-58.5 -89.5t-20 -103.5q0 -56 26 -86.5t75 -30.5q48 0 80.5 24.5t44.5 67.5h-122l27 110h258l-74 -299h-123l10 41h-2q-28 -26 -67.5 -40t-85.5 -14q-94 0 -146 57t-52 160
q0 85 39.5 168t117.5 137.5t187 54.5q102 0 158.5 -48.5zM187 -270h-56l72 107h-45l26 104h124l-26 -104z" />
    <glyph glyph-name="gdotaccent.smcp" horiz-adv-x="622" 
d="M529.5 515.5q56.5 -48.5 56.5 -134.5q0 -12 -1 -18h-153v4q0 76 -85 76q-52 0 -90.5 -36t-58.5 -89.5t-20 -103.5q0 -56 26 -86.5t75 -30.5q48 0 80.5 24.5t44.5 67.5h-122l27 110h258l-74 -299h-123l10 41h-2q-28 -26 -67.5 -40t-85.5 -14q-94 0 -146 57t-52 160
q0 85 39.5 168t117.5 137.5t187 54.5q102 0 158.5 -48.5zM312 632l30 120h140l-30 -120h-140z" />
    <glyph glyph-name="h.smcp" horiz-adv-x="642" 
d="M361 0l55 222h-206l-55 -222h-144l136 548h144l-51 -204h206l51 204h144l-136 -548h-144z" />
    <glyph glyph-name="hbar.smcp" horiz-adv-x="642" 
d="M613 434l-108 -434h-144l55 222h-206l-55 -222h-144l108 434h-40l15 62h40l13 52h144l-13 -52h206l13 52h144l-13 -52h40l-15 -62h-40zM263 434l-23 -90h206l23 90h-206z" />
    <glyph glyph-name="uni0125.smcp" horiz-adv-x="642" 
d="M361 0l55 222h-206l-55 -222h-144l136 548h144l-51 -204h206l51 204h144l-136 -548h-144zM479 606l-42 76l-79 -76h-138l150 146h149l78 -146h-118z" />
    <glyph glyph-name="i.smcp" horiz-adv-x="292" 
d="M11 0l136 548h144l-136 -548h-144z" />
    <glyph glyph-name="iacute.smcp" horiz-adv-x="292" 
d="M11 0l136 548h144l-136 -548h-144zM149 606l107 146h179l-170 -146h-116z" />
    <glyph glyph-name="ibreve.smcp" horiz-adv-x="292" 
d="M11 0l136 548h144l-136 -548h-144zM359 640.5q-51 -39.5 -122 -39.5q-61 0 -95 31.5t-34 87.5q0 17 3 32h81q-1 -5 -1 -15q0 -23 14 -36t41 -13q31 0 52.5 17t29.5 47h101q-19 -72 -70 -111.5z" />
    <glyph glyph-name="icircumflex.smcp" horiz-adv-x="292" 
d="M11 0l136 548h144l-136 -548h-144zM297 607l-34 77l-72 -77h-131l139 145h141l67 -145h-110z" />
    <glyph glyph-name="idieresis.smcp" horiz-adv-x="292" 
d="M11 0l136 548h144l-136 -548h-144zM92 632l30 120h123l-30 -120h-123zM265 632l30 120h123l-30 -120h-123z" />
    <glyph glyph-name="i.loclTRK.smcp" horiz-adv-x="292" 
d="M11 0l136 548h144l-136 -548h-144zM170 632l30 120h140l-30 -120h-140z" />
    <glyph glyph-name="igrave.smcp" horiz-adv-x="292" 
d="M11 0l136 548h144l-136 -548h-144zM319 606h-104l-110 146h167z" />
    <glyph glyph-name="ij.smcp" horiz-adv-x="635" 
d="M11 0l136 548h144l-136 -548h-144zM466 39q-57 -45 -156 -45q-37 0 -68 9l29 116q17 -3 33 -3q46 0 70.5 23.5t41.5 90.5l79 318h143l-91 -367q-24 -97 -81 -142z" />
    <glyph glyph-name="imacron.smcp" horiz-adv-x="292" 
d="M11 0l136 548h144l-136 -548h-144zM98 638l23 91h286l-23 -91h-286z" />
    <glyph glyph-name="iogonek.smcp" horiz-adv-x="292" 
d="M11 0l136 548h144l-136 -548h-144zM83.5 -53.5q-19.5 -22.5 -19.5 -44.5q0 -21 28 -21q21 0 37 6l-19 -75q-32 -9 -69 -9q-51 0 -77 19.5t-26 55.5q0 33 26 63t81 59h110q-52 -31 -71.5 -53.5z" />
    <glyph glyph-name="itilde.smcp" horiz-adv-x="292" 
d="M11 0l136 548h144l-136 -548h-144zM386 652.5q-35 -35.5 -81 -35.5q-22 0 -36.5 7t-33.5 20q-14 10 -23 14.5t-20 4.5q-18 0 -29.5 -11t-19.5 -35h-77q18 63 53 99t82 36q22 0 37.5 -7t32.5 -20q13 -10 22.5 -14.5t20.5 -4.5q18 0 30 11t20 35h76q-19 -64 -54 -99.5z" />
    <glyph glyph-name="j.smcp" horiz-adv-x="343" 
d="M174 39q-57 -45 -156 -45q-37 0 -68 9l29 116q17 -3 33 -3q46 0 70.5 23.5t41.5 90.5l79 318h143l-91 -367q-24 -97 -81 -142z" />
    <glyph glyph-name="jcircumflex.smcp" horiz-adv-x="343" 
d="M174 39q-57 -45 -156 -45q-37 0 -68 9l29 116q17 -3 33 -3q46 0 70.5 23.5t41.5 90.5l79 318h143l-91 -367q-24 -97 -81 -142zM354 607l-34 77l-72 -77h-131l139 145h141l67 -145h-110z" />
    <glyph glyph-name="k.smcp" horiz-adv-x="571" 
d="M499 0h-166l-116 258h-3l-64 -258h-144l136 548h144l-56 -226h3l200 226h186l-267 -271z" />
    <glyph glyph-name="kcommaaccent.smcp" horiz-adv-x="571" 
d="M499 0h-166l-116 258h-3l-64 -258h-144l136 548h144l-56 -226h3l200 226h186l-267 -271zM157 -270h-56l72 107h-45l26 104h124l-26 -104z" />
    <glyph glyph-name="l.smcp" horiz-adv-x="487" 
d="M444 122l-30 -122h-403l136 548h144l-106 -426h259z" />
    <glyph glyph-name="lacute.smcp" horiz-adv-x="487" 
d="M444 122l-30 -122h-403l136 548h144l-106 -426h259zM176 606l107 146h179l-170 -146h-116z" />
    <glyph glyph-name="lcaron.smcp" horiz-adv-x="487" 
d="M444 122l-30 -122h-403l136 548h144l-106 -426h259zM288 371l70 177h111l-102 -177h-79z" />
    <glyph glyph-name="lcommaaccent.smcp" horiz-adv-x="487" 
d="M444 122l-30 -122h-403l136 548h144l-106 -426h259zM130 -270h-56l72 107h-45l26 104h124l-26 -104z" />
    <glyph glyph-name="ldot.smcp" horiz-adv-x="547" 
d="M444 122l-30 -122h-403l136 548h144l-106 -426h259zM347 272l42 167h154l-42 -167h-154z" />
    <glyph glyph-name="j.acute.loclNLD.smcp" horiz-adv-x="343" 
d="M174 39q-57 -45 -156 -45q-37 0 -68 9l29 116q17 -3 33 -3q46 0 70.5 23.5t41.5 90.5l79 318h143l-91 -367q-24 -97 -81 -142zM206 606l107 146h179l-170 -146h-116z" />
    <glyph glyph-name="lslash.smcp" horiz-adv-x="488" 
d="M415 0h-403l54 217l-73 -36l26 104l73 36l56 227h144l-38 -153l117 58l-26 -104l-117 -58l-42 -169h259z" />
    <glyph glyph-name="m.smcp" horiz-adv-x="850" 
d="M575 0l66 265q30 118 56 200h-2q-54 -110 -101 -197l-146 -268h-172l-12 268q-3 74 -3 148v49h-2q-23 -119 -44 -200l-66 -265h-138l136 548h226l10 -238q3 -57 3 -115q0 -28 -2 -84h2q36 90 95 199l128 238h240l-136 -548h-138z" />
    <glyph glyph-name="n.smcp" horiz-adv-x="672" 
d="M332 0l-47 213q-24 112 -40 213h-2q-23 -119 -49 -225l-50 -201h-138l136 548h198l48 -213q25 -113 39 -213h2q23 119 49 225l50 201h138l-136 -548h-198z" />
    <glyph glyph-name="nacute.smcp" horiz-adv-x="672" 
d="M332 0l-47 213q-24 112 -40 213h-2q-23 -119 -49 -225l-50 -201h-138l136 548h198l48 -213q25 -113 39 -213h2q23 119 49 225l50 201h138l-136 -548h-198zM324 606l107 146h179l-170 -146h-116z" />
    <glyph glyph-name="ncaron.smcp" horiz-adv-x="672" 
d="M332 0l-47 213q-24 112 -40 213h-2q-23 -119 -49 -225l-50 -201h-138l136 548h198l48 -213q25 -113 39 -213h2q23 119 49 225l50 201h138l-136 -548h-198zM334 606l-78 146h118l42 -76l79 76h138l-150 -146h-149z" />
    <glyph glyph-name="ncommaaccent.smcp" horiz-adv-x="672" 
d="M332 0l-47 213q-24 112 -40 213h-2q-23 -119 -49 -225l-50 -201h-138l136 548h198l48 -213q25 -113 39 -213h2q23 119 49 225l50 201h138l-136 -548h-198zM204 -270h-56l72 107h-45l26 104h124l-26 -104z" />
    <glyph glyph-name="eng.smcp" horiz-adv-x="649" 
d="M437 -131.5q-46 -33.5 -110 -33.5q-48 0 -80 9l23 92q12 -2 23 -2q33 0 50.5 16.5t17.5 45.5q0 13 -5.5 31t-15.5 47l-55 157q-27 74 -48 168h-2q-14 -90 -38 -187l-53 -212h-138l136 548h168l66 -184q34 -101 48 -168h2q10 68 38 187l41 165h138l-143 -576
q-17 -70 -63 -103.5z" />
    <glyph glyph-name="ntilde.smcp" horiz-adv-x="672" 
d="M332 0l-47 213q-24 112 -40 213h-2q-23 -119 -49 -225l-50 -201h-138l136 548h198l48 -213q25 -113 39 -213h2q23 119 49 225l50 201h138l-136 -548h-198zM577.5 653q-37.5 -36 -87.5 -36q-25 0 -42.5 7t-36.5 20q-16 10 -26.5 14.5t-23.5 4.5q-21 0 -35 -11t-22 -35h-80
q17 63 55 99t88 36q25 0 42.5 -7t37.5 -20q16 -10 26 -14.5t23 -4.5q22 0 36 11t23 35h78q-18 -63 -55.5 -99z" />
    <glyph glyph-name="o.smcp" horiz-adv-x="628" 
d="M530.5 497.5q63.5 -66.5 63.5 -185.5q0 -76 -36.5 -152t-108.5 -126t-173 -50q-116 0 -179 66.5t-63 185.5q0 76 36 152t108 126t174 50q115 0 178.5 -66.5zM253.5 407q-36.5 -34 -55 -83t-18.5 -95q0 -58 27.5 -90t78.5 -32q52 0 89 34t55.5 83t18.5 95q0 58 -27.5 90
t-79.5 32t-88.5 -34z" />
    <glyph glyph-name="oacute.smcp" horiz-adv-x="628" 
d="M530.5 497.5q63.5 -66.5 63.5 -185.5q0 -76 -36.5 -152t-108.5 -126t-173 -50q-116 0 -179 66.5t-63 185.5q0 76 36 152t108 126t174 50q115 0 178.5 -66.5zM253.5 407q-36.5 -34 -55 -83t-18.5 -95q0 -58 27.5 -90t78.5 -32q52 0 89 34t55.5 83t18.5 95q0 58 -27.5 90
t-79.5 32t-88.5 -34zM292 606l107 146h179l-170 -146h-116z" />
    <glyph glyph-name="obreve.smcp" horiz-adv-x="628" 
d="M530.5 497.5q63.5 -66.5 63.5 -185.5q0 -76 -36.5 -152t-108.5 -126t-173 -50q-116 0 -179 66.5t-63 185.5q0 76 36 152t108 126t174 50q115 0 178.5 -66.5zM253.5 407q-36.5 -34 -55 -83t-18.5 -95q0 -58 27.5 -90t78.5 -32q52 0 89 34t55.5 83t18.5 95q0 58 -27.5 90
t-79.5 32t-88.5 -34zM513 640.5q-55 -39.5 -133 -39.5q-68 0 -106 32.5t-38 90.5q0 8 2 28h83q-1 -5 -1 -13q0 -24 17.5 -37.5t49.5 -13.5q36 0 61 17t33 47h107q-20 -72 -75 -111.5z" />
    <glyph glyph-name="ocircumflex.smcp" horiz-adv-x="628" 
d="M530.5 497.5q63.5 -66.5 63.5 -185.5q0 -76 -36.5 -152t-108.5 -126t-173 -50q-116 0 -179 66.5t-63 185.5q0 76 36 152t108 126t174 50q115 0 178.5 -66.5zM253.5 407q-36.5 -34 -55 -83t-18.5 -95q0 -58 27.5 -90t78.5 -32q52 0 89 34t55.5 83t18.5 95q0 58 -27.5 90
t-79.5 32t-88.5 -34zM447 606l-42 76l-79 -76h-138l150 146h149l78 -146h-118z" />
    <glyph glyph-name="odieresis.smcp" horiz-adv-x="628" 
d="M530.5 497.5q63.5 -66.5 63.5 -185.5q0 -76 -36.5 -152t-108.5 -126t-173 -50q-116 0 -179 66.5t-63 185.5q0 76 36 152t108 126t174 50q115 0 178.5 -66.5zM253.5 407q-36.5 -34 -55 -83t-18.5 -95q0 -58 27.5 -90t78.5 -32q52 0 89 34t55.5 83t18.5 95q0 58 -27.5 90
t-79.5 32t-88.5 -34zM213 632l30 120h123l-30 -120h-123zM430 632l30 120h123l-30 -120h-123z" />
    <glyph glyph-name="ograve.smcp" horiz-adv-x="628" 
d="M530.5 497.5q63.5 -66.5 63.5 -185.5q0 -76 -36.5 -152t-108.5 -126t-173 -50q-116 0 -179 66.5t-63 185.5q0 76 36 152t108 126t174 50q115 0 178.5 -66.5zM253.5 407q-36.5 -34 -55 -83t-18.5 -95q0 -58 27.5 -90t78.5 -32q52 0 89 34t55.5 83t18.5 95q0 58 -27.5 90
t-79.5 32t-88.5 -34zM462 606h-104l-110 146h167z" />
    <glyph glyph-name="ohungarumlaut.smcp" horiz-adv-x="628" 
d="M530.5 497.5q63.5 -66.5 63.5 -185.5q0 -76 -36.5 -152t-108.5 -126t-173 -50q-116 0 -179 66.5t-63 185.5q0 76 36 152t108 126t174 50q115 0 178.5 -66.5zM253.5 407q-36.5 -34 -55 -83t-18.5 -95q0 -58 27.5 -90t78.5 -32q52 0 89 34t55.5 83t18.5 95q0 58 -27.5 90
t-79.5 32t-88.5 -34zM204 606l127 146h159l-170 -146h-116zM394 606l127 146h159l-170 -146h-116z" />
    <glyph glyph-name="omacron.smcp" horiz-adv-x="628" 
d="M530.5 497.5q63.5 -66.5 63.5 -185.5q0 -76 -36.5 -152t-108.5 -126t-173 -50q-116 0 -179 66.5t-63 185.5q0 76 36 152t108 126t174 50q115 0 178.5 -66.5zM253.5 407q-36.5 -34 -55 -83t-18.5 -95q0 -58 27.5 -90t78.5 -32q52 0 89 34t55.5 83t18.5 95q0 58 -27.5 90
t-79.5 32t-88.5 -34zM222 638l22 91h326l-22 -91h-326z" />
    <glyph glyph-name="oslash.smcp" horiz-adv-x="628" 
d="M594 312q0 -76 -36.5 -152t-108.5 -126t-173 -50q-97 0 -159 48l-55 -53l-51 53l58 56q-35 61 -35 148q0 76 36 152t108 126t174 50q96 0 158 -48l55 55l51 -53l-58 -57q36 -58 36 -149zM248.5 412q-38.5 -35 -57.5 -86t-19 -97q0 -20 3 -37l240 233q-30 22 -73 22
q-55 0 -93.5 -35zM380 136q39 35 58 86t19 97q0 16 -4 40l-241 -234q28 -24 74 -24q55 0 94 35z" />
    <glyph glyph-name="otilde.smcp" horiz-adv-x="628" 
d="M530.5 497.5q63.5 -66.5 63.5 -185.5q0 -76 -36.5 -152t-108.5 -126t-173 -50q-116 0 -179 66.5t-63 185.5q0 76 36 152t108 126t174 50q115 0 178.5 -66.5zM253.5 407q-36.5 -34 -55 -83t-18.5 -95q0 -58 27.5 -90t78.5 -32q52 0 89 34t55.5 83t18.5 95q0 58 -27.5 90
t-79.5 32t-88.5 -34zM545.5 653q-37.5 -36 -87.5 -36q-25 0 -42.5 7t-36.5 20q-16 10 -26.5 14.5t-23.5 4.5q-21 0 -35 -11t-22 -35h-80q17 63 55 99t88 36q25 0 42.5 -7t37.5 -20q16 -10 26 -14.5t23 -4.5q22 0 36 11t23 35h78q-18 -63 -55.5 -99z" />
    <glyph glyph-name="oe.smcp" horiz-adv-x="841" 
d="M566 428l-23 -92h248l-29 -118h-248l-24 -98h273l-30 -120h-419q-138 0 -208.5 62t-70.5 179q0 75 35 145.5t109 116t185 45.5h500l-30 -120h-268zM258 401q-39 -27 -57 -69t-18 -88q0 -124 136 -124h27l77 308h-66q-60 0 -99 -27z" />
    <glyph glyph-name="p.smcp" horiz-adv-x="547" 
d="M487 501.5q55 -46.5 55 -130.5q0 -50 -25 -96t-77.5 -75.5t-131.5 -29.5h-116l-42 -170h-144l136 548h180q110 0 165 -46.5zM221 286h87q47 0 68.5 24t21.5 57q0 64 -85 64h-56z" />
    <glyph glyph-name="thorn.smcp" horiz-adv-x="547" 
d="M302 468q110 0 165 -46.5t55 -130.5q0 -50 -25 -96t-77.5 -75.5t-131.5 -29.5h-116l-22 -90h-144l136 548h144l-20 -80h36zM201 206h87q47 0 68.5 24t21.5 57q0 64 -85 64h-56z" />
    <glyph glyph-name="q.smcp" horiz-adv-x="628" 
d="M564 173.5q-30 -69.5 -86 -117.5l47 -67l-84 -58l-51 73q-51 -20 -114 -20q-116 0 -179 66.5t-63 185.5q0 76 36 152t108 126t174 50q115 0 178.5 -66.5t63.5 -185.5q0 -69 -30 -138.5zM208 133.5q28 -32.5 80 -32.5q18 0 33 4l-58 83l84 58l57 -83q24 32 37 74t13 80
q0 59 -28 91.5t-81 32.5t-90.5 -34.5t-56 -84.5t-18.5 -97q0 -59 28 -91.5z" />
    <glyph glyph-name="r.smcp" horiz-adv-x="569" 
d="M554 412q0 -55 -36.5 -100.5t-103.5 -62.5v-2q24 -10 35 -31t19 -71l25 -145h-144l-19 120q-7 42 -24 58.5t-56 16.5h-47l-48 -195h-144l136 548h213q194 0 194 -136zM230 303h82q49 0 70.5 23.5t21.5 53.5q0 58 -79 58h-61z" />
    <glyph glyph-name="racute.smcp" horiz-adv-x="569" 
d="M554 412q0 -55 -36.5 -100.5t-103.5 -62.5v-2q24 -10 35 -31t19 -71l25 -145h-144l-19 120q-7 42 -24 58.5t-56 16.5h-47l-48 -195h-144l136 548h213q194 0 194 -136zM230 303h82q49 0 70.5 23.5t21.5 53.5q0 58 -79 58h-61zM285 606l107 146h179l-170 -146h-116z" />
    <glyph glyph-name="rcaron.smcp" horiz-adv-x="569" 
d="M554 412q0 -55 -36.5 -100.5t-103.5 -62.5v-2q24 -10 35 -31t19 -71l25 -145h-144l-19 120q-7 42 -24 58.5t-56 16.5h-47l-48 -195h-144l136 548h213q194 0 194 -136zM230 303h82q49 0 70.5 23.5t21.5 53.5q0 58 -79 58h-61zM295 606l-78 146h118l42 -76l79 76h138
l-150 -146h-149z" />
    <glyph glyph-name="rcommaaccent.smcp" horiz-adv-x="569" 
d="M554 412q0 -55 -36.5 -100.5t-103.5 -62.5v-2q24 -10 35 -31t19 -71l25 -145h-144l-19 120q-7 42 -24 58.5t-56 16.5h-47l-48 -195h-144l136 548h213q194 0 194 -136zM230 303h82q49 0 70.5 23.5t21.5 53.5q0 58 -79 58h-61zM161 -270h-56l72 107h-45l26 104h124
l-26 -104z" />
    <glyph glyph-name="s.smcp" horiz-adv-x="534" 
d="M465 527.5q52 -36.5 52 -109.5q0 -20 -4 -37h-143q2 10 2 16q0 29 -18.5 44.5t-53.5 15.5q-39 0 -64.5 -15.5t-25.5 -41.5q0 -22 21 -34t79 -31q55 -18 88 -34.5t54 -47t21 -79.5q0 -44 -29 -88t-87 -73t-142 -29q-105 0 -162 40t-57 115q0 21 5 40h146q-2 -12 -2 -19
q0 -67 90 -67q39 0 65 17.5t26 44.5q0 25 -20 38t-73 30q-57 19 -90 35t-55.5 45.5t-22.5 76.5q0 44 28.5 86.5t84.5 70t133 27.5q102 0 154 -36.5z" />
    <glyph glyph-name="sacute.smcp" horiz-adv-x="534" 
d="M465 527.5q52 -36.5 52 -109.5q0 -20 -4 -37h-143q2 10 2 16q0 29 -18.5 44.5t-53.5 15.5q-39 0 -64.5 -15.5t-25.5 -41.5q0 -22 21 -34t79 -31q55 -18 88 -34.5t54 -47t21 -79.5q0 -44 -29 -88t-87 -73t-142 -29q-105 0 -162 40t-57 115q0 21 5 40h146q-2 -12 -2 -19
q0 -67 90 -67q39 0 65 17.5t26 44.5q0 25 -20 38t-73 30q-57 19 -90 35t-55.5 45.5t-22.5 76.5q0 44 28.5 86.5t84.5 70t133 27.5q102 0 154 -36.5zM237 606l107 146h179l-170 -146h-116z" />
    <glyph glyph-name="scaron.smcp" horiz-adv-x="534" 
d="M465 527.5q52 -36.5 52 -109.5q0 -20 -4 -37h-143q2 10 2 16q0 29 -18.5 44.5t-53.5 15.5q-39 0 -64.5 -15.5t-25.5 -41.5q0 -22 21 -34t79 -31q55 -18 88 -34.5t54 -47t21 -79.5q0 -44 -29 -88t-87 -73t-142 -29q-105 0 -162 40t-57 115q0 21 5 40h146q-2 -12 -2 -19
q0 -67 90 -67q39 0 65 17.5t26 44.5q0 25 -20 38t-73 30q-57 19 -90 35t-55.5 45.5t-22.5 76.5q0 44 28.5 86.5t84.5 70t133 27.5q102 0 154 -36.5zM247 606l-78 146h118l42 -76l79 76h138l-150 -146h-149z" />
    <glyph glyph-name="scedilla.smcp" horiz-adv-x="534" 
d="M372 397q0 29 -18.5 44.5t-53.5 15.5q-39 0 -64.5 -15.5t-25.5 -41.5q0 -22 21 -34t79 -31q55 -18 88 -34.5t54 -47t21 -79.5q0 -41 -25 -82.5t-75.5 -71t-123.5 -35.5l-40 -45q9 3 23 3q31 0 51 -19t20 -51q0 -42 -41 -70.5t-100 -28.5q-60 0 -106 30l25 45
q38 -22 79 -22q26 0 41.5 11t15.5 29q0 16 -10 24.5t-28 8.5t-34 -6l-20 18l64 73q-93 5 -143 44.5t-50 109.5q0 21 5 40h146q-2 -12 -2 -19q0 -67 90 -67q39 0 65 17.5t26 44.5q0 25 -20 38t-73 30q-57 19 -90 35t-55.5 45.5t-22.5 76.5q0 44 28.5 86.5t84.5 70t133 27.5
q102 0 154 -36.5t52 -109.5q0 -20 -4 -37h-143q2 10 2 16z" />
    <glyph glyph-name="scircumflex.smcp" horiz-adv-x="534" 
d="M465 527.5q52 -36.5 52 -109.5q0 -20 -4 -37h-143q2 10 2 16q0 29 -18.5 44.5t-53.5 15.5q-39 0 -64.5 -15.5t-25.5 -41.5q0 -22 21 -34t79 -31q55 -18 88 -34.5t54 -47t21 -79.5q0 -44 -29 -88t-87 -73t-142 -29q-105 0 -162 40t-57 115q0 21 5 40h146q-2 -12 -2 -19
q0 -67 90 -67q39 0 65 17.5t26 44.5q0 25 -20 38t-73 30q-57 19 -90 35t-55.5 45.5t-22.5 76.5q0 44 28.5 86.5t84.5 70t133 27.5q102 0 154 -36.5zM392 606l-42 76l-79 -76h-138l150 146h149l78 -146h-118z" />
    <glyph glyph-name="scommaaccent.smcp" horiz-adv-x="534" 
d="M465 527.5q52 -36.5 52 -109.5q0 -20 -4 -37h-143q2 10 2 16q0 29 -18.5 44.5t-53.5 15.5q-39 0 -64.5 -15.5t-25.5 -41.5q0 -22 21 -34t79 -31q55 -18 88 -34.5t54 -47t21 -79.5q0 -44 -29 -88t-87 -73t-142 -29q-105 0 -162 40t-57 115q0 21 5 40h146q-2 -12 -2 -19
q0 -67 90 -67q39 0 65 17.5t26 44.5q0 25 -20 38t-73 30q-57 19 -90 35t-55.5 45.5t-22.5 76.5q0 44 28.5 86.5t84.5 70t133 27.5q102 0 154 -36.5zM145 -270h-56l72 107h-45l26 104h124l-26 -104z" />
    <glyph glyph-name="germandbls.smcp" horiz-adv-x="692" 
d="M619 170q0 -47 -25.5 -89.5t-76.5 -69.5t-124 -27q-86 0 -131.5 32.5t-45.5 96.5q0 22 5 42h131q-2 -10 -2 -16q0 -43 58 -43q31 0 46.5 19.5t15.5 44.5q0 37 -33 57t-98 25l24 95l103 89q-30 24 -84 24q-126 0 -162 -146l-75 -304h-144l78 315q31 123 113.5 186
t211.5 63q85 0 148 -32.5t94 -88.5l-138 -120q111 -45 111 -153z" />
    <glyph glyph-name="t.smcp" horiz-adv-x="516" 
d="M373 427l-106 -427h-144l106 427h-176l30 121h496l-30 -121h-176z" />
    <glyph glyph-name="tbar.smcp" horiz-adv-x="516" 
d="M342 304h100l-22 -92h-100l-53 -212h-144l53 212h-100l22 92h100l31 123h-176l30 121h496l-30 -121h-176z" />
    <glyph glyph-name="tcaron.smcp" horiz-adv-x="516" 
d="M373 427l-106 -427h-144l106 427h-176l30 121h496l-30 -121h-176zM271 606l-78 146h118l42 -76l79 76h138l-150 -146h-149z" />
    <glyph glyph-name="uni0163.smcp" horiz-adv-x="516" 
d="M373 427l-106 -427h-144l106 427h-176l30 121h496l-30 -121h-176zM121 -270h-56l72 107h-45l26 104h124l-26 -104z" />
    <glyph glyph-name="uni021B.smcp" horiz-adv-x="516" 
d="M373 427l-106 -427h-144l106 427h-176l30 121h496l-30 -121h-176zM121 -270h-56l72 107h-45l26 104h124l-26 -104z" />
    <glyph glyph-name="u.smcp" horiz-adv-x="612" 
d="M436 36q-66 -52 -167 -52q-105 0 -158.5 49.5t-53.5 144.5q0 29 10 72l74 298h144l-80 -323q-5 -19 -5 -38q0 -78 80 -78q41 0 69 24.5t39 71.5l85 343h144l-90 -362q-25 -98 -91 -150z" />
    <glyph glyph-name="uacute.smcp" horiz-adv-x="612" 
d="M436 36q-66 -52 -167 -52q-105 0 -158.5 49.5t-53.5 144.5q0 29 10 72l74 298h144l-80 -323q-5 -19 -5 -38q0 -78 80 -78q41 0 69 24.5t39 71.5l85 343h144l-90 -362q-25 -98 -91 -150zM299 606l107 146h179l-170 -146h-116z" />
    <glyph glyph-name="ubreve.smcp" horiz-adv-x="612" 
d="M436 36q-66 -52 -167 -52q-105 0 -158.5 49.5t-53.5 144.5q0 29 10 72l74 298h144l-80 -323q-5 -19 -5 -38q0 -78 80 -78q41 0 69 24.5t39 71.5l85 343h144l-90 -362q-25 -98 -91 -150zM520 640.5q-55 -39.5 -133 -39.5q-68 0 -106 32.5t-38 90.5q0 8 2 28h83
q-1 -5 -1 -13q0 -24 17.5 -37.5t49.5 -13.5q36 0 61 17t33 47h107q-20 -72 -75 -111.5z" />
    <glyph glyph-name="ucircumflex.smcp" horiz-adv-x="612" 
d="M436 36q-66 -52 -167 -52q-105 0 -158.5 49.5t-53.5 144.5q0 29 10 72l74 298h144l-80 -323q-5 -19 -5 -38q0 -78 80 -78q41 0 69 24.5t39 71.5l85 343h144l-90 -362q-25 -98 -91 -150zM454 606l-42 76l-79 -76h-138l150 146h149l78 -146h-118z" />
    <glyph glyph-name="udieresis.smcp" horiz-adv-x="612" 
d="M436 36q-66 -52 -167 -52q-105 0 -158.5 49.5t-53.5 144.5q0 29 10 72l74 298h144l-80 -323q-5 -19 -5 -38q0 -78 80 -78q41 0 69 24.5t39 71.5l85 343h144l-90 -362q-25 -98 -91 -150zM220 632l30 120h123l-30 -120h-123zM437 632l30 120h123l-30 -120h-123z" />
    <glyph glyph-name="ugrave.smcp" horiz-adv-x="612" 
d="M436 36q-66 -52 -167 -52q-105 0 -158.5 49.5t-53.5 144.5q0 29 10 72l74 298h144l-80 -323q-5 -19 -5 -38q0 -78 80 -78q41 0 69 24.5t39 71.5l85 343h144l-90 -362q-25 -98 -91 -150zM469 606h-104l-110 146h167z" />
    <glyph glyph-name="uhungarumlaut.smcp" horiz-adv-x="612" 
d="M436 36q-66 -52 -167 -52q-105 0 -158.5 49.5t-53.5 144.5q0 29 10 72l74 298h144l-80 -323q-5 -19 -5 -38q0 -78 80 -78q41 0 69 24.5t39 71.5l85 343h144l-90 -362q-25 -98 -91 -150zM211 606l127 146h159l-170 -146h-116zM401 606l127 146h159l-170 -146h-116z" />
    <glyph glyph-name="umacron.smcp" horiz-adv-x="612" 
d="M436 36q-66 -52 -167 -52q-105 0 -158.5 49.5t-53.5 144.5q0 29 10 72l74 298h144l-80 -323q-5 -19 -5 -38q0 -78 80 -78q41 0 69 24.5t39 71.5l85 343h144l-90 -362q-25 -98 -91 -150zM229 638l22 91h326l-22 -91h-326z" />
    <glyph glyph-name="uogonek.smcp" horiz-adv-x="612" 
d="M403 3q-47 -34 -65 -56.5t-18 -44.5q0 -21 28 -21q21 0 37 6l-19 -75q-32 -9 -69 -9q-51 0 -77 19.5t-26 55.5q0 56 83 104v2h-8q-105 0 -158.5 49.5t-53.5 144.5q0 29 10 72l74 298h144l-80 -323q-5 -19 -5 -38q0 -78 80 -78q41 0 69 24.5t39 71.5l85 343h144l-90 -362
q-30 -116 -124 -183z" />
    <glyph glyph-name="uring.smcp" horiz-adv-x="612" 
d="M436 36q-66 -52 -167 -52q-105 0 -158.5 49.5t-53.5 144.5q0 29 10 72l74 298h144l-80 -323q-5 -19 -5 -38q0 -78 80 -78q41 0 69 24.5t39 71.5l85 343h144l-90 -362q-25 -98 -91 -150zM474.5 780.5q31.5 -31.5 31.5 -76.5t-31.5 -76.5t-76.5 -31.5t-76.5 31.5
t-31.5 76.5t31.5 76.5t76.5 31.5t76.5 -31.5zM360 742.5q-16 -15.5 -16 -38.5q0 -22 16 -38t38 -16q23 0 38.5 16t15.5 38q0 23 -15.5 38.5t-38.5 15.5q-22 0 -38 -15.5z" />
    <glyph glyph-name="utilde.smcp" horiz-adv-x="612" 
d="M436 36q-66 -52 -167 -52q-105 0 -158.5 49.5t-53.5 144.5q0 29 10 72l74 298h144l-80 -323q-5 -19 -5 -38q0 -78 80 -78q41 0 69 24.5t39 71.5l85 343h144l-90 -362q-25 -98 -91 -150zM552.5 653q-37.5 -36 -87.5 -36q-25 0 -42.5 7t-36.5 20q-16 10 -26.5 14.5
t-23.5 4.5q-21 0 -35 -11t-22 -35h-80q17 63 55 99t88 36q25 0 42.5 -7t37.5 -20q16 -10 26 -14.5t23 -4.5q22 0 36 11t23 35h78q-18 -63 -55.5 -99z" />
    <glyph glyph-name="v.smcp" horiz-adv-x="538" 
d="M113 0l-34 548h141l9 -207q3 -67 3 -136q0 -50 -1 -75h2q41 95 102 211l110 207h161l-305 -548h-188z" />
    <glyph glyph-name="w.smcp" horiz-adv-x="811" 
d="M433 0l6 216q3 121 10 216h-2q-45 -116 -93 -216l-102 -216h-193l22 548h135l-12 -192q-5 -97 -19 -226h2q56 136 100 226l93 192h185l-3 -192q-2 -114 -9 -226h2q38 107 90 226l84 192h147l-250 -548h-193z" />
    <glyph glyph-name="wacute.smcp" horiz-adv-x="811" 
d="M433 0l6 216q3 121 10 216h-2q-45 -116 -93 -216l-102 -216h-193l22 548h135l-12 -192q-5 -97 -19 -226h2q56 136 100 226l93 192h185l-3 -192q-2 -114 -9 -226h2q38 107 90 226l84 192h147l-250 -548h-193zM394 606l107 146h179l-170 -146h-116z" />
    <glyph glyph-name="wcircumflex.smcp" horiz-adv-x="811" 
d="M433 0l6 216q3 121 10 216h-2q-45 -116 -93 -216l-102 -216h-193l22 548h135l-12 -192q-5 -97 -19 -226h2q56 136 100 226l93 192h185l-3 -192q-2 -114 -9 -226h2q38 107 90 226l84 192h147l-250 -548h-193zM549 606l-42 76l-79 -76h-138l150 146h149l78 -146h-118z" />
    <glyph glyph-name="wdieresis.smcp" horiz-adv-x="811" 
d="M433 0l6 216q3 121 10 216h-2q-45 -116 -93 -216l-102 -216h-193l22 548h135l-12 -192q-5 -97 -19 -226h2q56 136 100 226l93 192h185l-3 -192q-2 -114 -9 -226h2q38 107 90 226l84 192h147l-250 -548h-193zM315 632l30 120h123l-30 -120h-123zM532 632l30 120h123
l-30 -120h-123z" />
    <glyph glyph-name="wgrave.smcp" horiz-adv-x="811" 
d="M433 0l6 216q3 121 10 216h-2q-45 -116 -93 -216l-102 -216h-193l22 548h135l-12 -192q-5 -97 -19 -226h2q56 136 100 226l93 192h185l-3 -192q-2 -114 -9 -226h2q38 107 90 226l84 192h147l-250 -548h-193zM564 606h-104l-110 146h167z" />
    <glyph glyph-name="x.smcp" horiz-adv-x="542" 
d="M476 0h-152l-57 177h-2l-137 -177h-188l251 288l-105 260h150l52 -170h2l130 170h183l-238 -272z" />
    <glyph glyph-name="y.smcp" horiz-adv-x="541" 
d="M274 0h-144l51 204l-111 344h143l25 -97q19 -73 29 -136h2q41 72 89 136l73 97h175l-281 -344z" />
    <glyph glyph-name="yacute.smcp" horiz-adv-x="541" 
d="M274 0h-144l51 204l-111 344h143l25 -97q19 -73 29 -136h2q41 72 89 136l73 97h175l-281 -344zM248 606l107 146h179l-170 -146h-116z" />
    <glyph glyph-name="ycircumflex.smcp" horiz-adv-x="541" 
d="M274 0h-144l51 204l-111 344h143l25 -97q19 -73 29 -136h2q41 72 89 136l73 97h175l-281 -344zM403 606l-42 76l-79 -76h-138l150 146h149l78 -146h-118z" />
    <glyph glyph-name="ydieresis.smcp" horiz-adv-x="541" 
d="M274 0h-144l51 204l-111 344h143l25 -97q19 -73 29 -136h2q41 72 89 136l73 97h175l-281 -344zM169 632l30 120h123l-30 -120h-123zM386 632l30 120h123l-30 -120h-123z" />
    <glyph glyph-name="ygrave.smcp" horiz-adv-x="541" 
d="M274 0h-144l51 204l-111 344h143l25 -97q19 -73 29 -136h2q41 72 89 136l73 97h175l-281 -344zM418 606h-104l-110 146h167z" />
    <glyph glyph-name="z.smcp" horiz-adv-x="486" 
d="M170 122v-2h265l-30 -120h-450l31 125l327 301v2h-238l30 120h423l-31 -125z" />
    <glyph glyph-name="zacute.smcp" horiz-adv-x="486" 
d="M170 122v-2h265l-30 -120h-450l31 125l327 301v2h-238l30 120h423l-31 -125zM227 606l107 146h179l-170 -146h-116z" />
    <glyph glyph-name="zcaron.smcp" horiz-adv-x="486" 
d="M170 122v-2h265l-30 -120h-450l31 125l327 301v2h-238l30 120h423l-31 -125zM237 606l-78 146h118l42 -76l79 76h138l-150 -146h-149z" />
    <glyph glyph-name="zdotaccent.smcp" horiz-adv-x="486" 
d="M170 122v-2h265l-30 -120h-450l31 125l327 301v2h-238l30 120h423l-31 -125zM248 632l30 120h140l-30 -120h-140z" />
    <glyph glyph-name="ccedilla.smcp.ss01" horiz-adv-x="589" 
d="M514 514.5q57 -49.5 57 -137.5q0 -18 -3 -38h-149q1 6 1 19q0 39 -21.5 60t-60.5 21q-50 0 -86 -35t-54.5 -86t-19.5 -98q1 -54 25 -82.5t70 -28.5q40 0 69.5 20.5t44.5 57.5h152q-31 -97 -107 -150t-180 -53q-107 0 -165 59t-58 167q0 82 38 164t112 136t176 54
t159 -49.5zM15 -217l175 168h126l-132 -168h-169z" />
    <glyph glyph-name="scedilla.smcp.ss01" horiz-adv-x="534" 
d="M465 527.5q52 -36.5 52 -109.5q0 -20 -4 -37h-143q2 10 2 16q0 29 -18.5 44.5t-53.5 15.5q-39 0 -64.5 -15.5t-25.5 -41.5q0 -22 21 -34t79 -31q55 -18 88 -34.5t54 -47t21 -79.5q0 -44 -29 -88t-87 -73t-142 -29q-105 0 -162 40t-57 115q0 21 5 40h146q-2 -12 -2 -19
q0 -67 90 -67q39 0 65 17.5t26 44.5q0 25 -20 38t-73 30q-57 19 -90 35t-55.5 45.5t-22.5 76.5q0 44 28.5 86.5t84.5 70t133 27.5q102 0 154 -36.5zM-22 -217l175 168h126l-132 -168h-169z" />
    <glyph glyph-name="uni0163.smcp.ss01" horiz-adv-x="516" 
d="M373 427l-106 -427h-144l106 427h-176l30 121h496l-30 -121h-176zM-46 -217l175 168h126l-132 -168h-169z" />
    <glyph glyph-name="zero.lf" horiz-adv-x="626" 
d="M555.5 625.5q54.5 -64.5 54.5 -186.5q0 -100 -38.5 -206t-115 -177.5t-184.5 -71.5q-107 0 -161.5 64t-54.5 186q0 100 38.5 206.5t115 178t184.5 71.5q107 0 161.5 -64.5zM287 510q-41 -59 -62.5 -139t-21.5 -138q0 -130 78 -130q57 0 98 59t62.5 139t21.5 138
q0 63 -20 96.5t-59 33.5q-56 0 -97 -59z" />
    <glyph glyph-name="one.lf" horiz-adv-x="412" 
d="M115 0l114 457h-163l25 102q85 0 133.5 27t71.5 88h131l-168 -674h-144z" />
    <glyph glyph-name="two.lf" horiz-adv-x="606" 
d="M544 643q56 -47 56 -128q0 -78 -54 -140t-171 -121q-67 -34 -103 -56.5t-52 -40t-23 -39.5h325l-28 -118h-505q15 83 47.5 141t88.5 103t148 91q67 34 105 60t54.5 51.5t16.5 56.5q0 32 -18.5 50t-53.5 18q-91 0 -119 -108h-145q27 110 99.5 168.5t177.5 58.5
q98 0 154 -47z" />
    <glyph glyph-name="three.lf" horiz-adv-x="599" 
d="M542.5 644.5q56.5 -45.5 56.5 -126.5q0 -60 -37.5 -107t-120.5 -73v-2q90 -37 90 -134q0 -53 -30.5 -103t-91 -82.5t-146.5 -32.5q-113 0 -172.5 47.5t-59.5 137.5q0 21 5 51h144q-5 -25 -5 -40q0 -77 94 -77q36 0 63 15t41.5 38t14.5 45q0 78 -112 78h-20l28 116h19
q51 0 85 16t50 40.5t16 49.5q0 33 -22 51.5t-61 18.5q-95 0 -123 -111h-145q26 109 99.5 169.5t181.5 60.5q102 0 158.5 -45.5z" />
    <glyph glyph-name="four.lf" horiz-adv-x="596" 
d="M582 264l-28 -113h-94l-38 -151h-144l38 151h-327l33 131l367 392h201l-102 -410h94zM347 264l20 82q37 139 62 215h-2q-101 -118 -182 -203l-91 -94h193z" />
    <glyph glyph-name="five.lf" 
d="M284 557l-52 -145h2q51 37 120 37q89 0 140 -52t51 -141q0 -62 -35.5 -125.5t-104 -105t-161.5 -41.5q-101 0 -158.5 42.5t-57.5 118.5q0 21 4 40h145q-2 -7 -2 -19q0 -31 24 -47.5t63 -16.5q45 0 74.5 22.5t43.5 55.5t14 66q0 43 -23 65.5t-65 22.5q-35 0 -63 -19
t-43 -51l-140 9l138 401h424l-29 -117h-309z" />
    <glyph glyph-name="six.lf" horiz-adv-x="596" 
d="M549.5 643.5q54.5 -46.5 54.5 -130.5q0 -15 -1 -23h-145l1 12q0 70 -73 70q-52 0 -97.5 -44t-73.5 -135h2q64 47 143 47q86 0 136 -53.5t50 -144.5q0 -58 -33.5 -118t-97.5 -100t-149 -40q-104 0 -158.5 60t-54.5 178q0 100 40 209.5t117.5 184t184.5 74.5
q100 0 154.5 -46.5zM249 310q-28 -21 -42.5 -53t-14.5 -63q0 -43 20.5 -67.5t59.5 -24.5q38 0 66 20.5t42.5 51t14.5 60.5q0 46 -20 71.5t-59 25.5t-67 -21z" />
    <glyph glyph-name="seven.lf" horiz-adv-x="494" 
d="M364 299q-89 -144 -152 -299h-157q75 172 172 318t185 234h-324l31 122h463l-31 -124q-98 -107 -187 -251z" />
    <glyph glyph-name="eight.lf" horiz-adv-x="601" 
d="M543.5 643q59.5 -47 59.5 -127q0 -60 -42.5 -110.5t-118.5 -66.5v-2q44 -19 69 -57t25 -89q0 -50 -31.5 -97.5t-94 -78.5t-150.5 -31q-108 0 -169 51t-61 141q0 40 20 78t60 67t97 40v2q-40 19 -62 53.5t-22 79.5t31 90t90 74.5t139 29.5q101 0 160.5 -47zM308 559
q-26 -14 -39 -35.5t-13 -43.5q0 -37 23.5 -56.5t67.5 -19.5q37 0 63 15t38.5 36.5t12.5 41.5q0 36 -23.5 56t-66.5 20q-37 0 -63 -14zM231 272.5q-28 -16.5 -42 -41.5t-14 -49q0 -37 25.5 -58t71.5 -21q40 0 69 16t43 40.5t14 48.5q0 38 -26 59.5t-73 21.5q-40 0 -68 -16.5z
" />
    <glyph glyph-name="nine.lf" horiz-adv-x="596" 
d="M87.5 30.5q-54.5 46.5 -54.5 130.5q0 15 1 23h145l-1 -12q0 -70 73 -70q52 0 97.5 44t73.5 135h-2q-64 -47 -143 -47q-86 0 -136 53.5t-50 144.5q0 58 33.5 118t97.5 100t149 40q104 0 158.5 -60t54.5 -178q0 -100 -40 -209.5t-117.5 -184t-184.5 -74.5
q-100 0 -154.5 46.5zM388 364q28 21 42.5 53t14.5 63q0 43 -20.5 67.5t-59.5 24.5q-38 0 -66 -20.5t-42.5 -51t-14.5 -60.5q0 -46 20 -71.5t59 -25.5t67 21z" />
    <glyph glyph-name="zero.denominator" horiz-adv-x="414" 
d="M340 373.5q38 -40.5 38 -117.5q0 -61 -25 -122.5t-74.5 -102.5t-120.5 -41q-74 0 -111.5 41t-37.5 117q0 61 25 122.5t74.5 102.5t119.5 41q74 0 112 -40.5zM167.5 296q-22.5 -33 -34 -77t-11.5 -76q0 -33 11 -50.5t33 -17.5q31 0 53.5 32.5t34 76.5t11.5 76q0 69 -44 69
q-31 0 -53.5 -33z" />
    <glyph glyph-name="one.denominator" horiz-adv-x="280" 
d="M49 0l64 252h-103l19 81q55 0 86.5 16.5t46.5 54.5h102l-101 -404h-114z" />
    <glyph glyph-name="two.denominator" horiz-adv-x="406" 
d="M335 384q39 -30 39 -80q0 -46 -34.5 -83t-106.5 -66q-59 -23 -79 -36t-26 -29h206l-21 -90h-344q13 81 53 127t122 81q63 28 88.5 46t25.5 42q0 15 -10 24t-28 9q-49 0 -63 -58h-116q16 69 65 106t121 37q69 0 108 -30z" />
    <glyph glyph-name="three.denominator" horiz-adv-x="400" 
d="M336 386q39 -28 39 -78q0 -75 -96 -105v-2q56 -21 56 -78q0 -32 -20.5 -62.5t-61 -50.5t-97.5 -20q-79 0 -120.5 29.5t-41.5 85.5q0 15 3 31h114q-2 -14 -2 -20q0 -40 52 -40q29 0 46 15t17 32q0 39 -62 39h-12l20 82h14q37 0 57.5 15t20.5 35q0 17 -12 26t-34 9
q-53 0 -67 -57h-112q15 67 64.5 104.5t123.5 37.5q72 0 111 -28z" />
    <glyph glyph-name="four.denominator" horiz-adv-x="398" 
d="M278 80l-20 -80h-111l20 80h-201l23 95l218 229h152l-60 -240h66l-20 -84h-67zM192 164l10 42q14 61 34 114h-2q-40 -45 -93 -100l-55 -56h106z" />
    <glyph glyph-name="five.denominator" horiz-adv-x="399" 
d="M166 314l-26 -65h2q35 22 77 22q57 0 89.5 -31.5t32.5 -85.5q0 -37 -23 -75t-68 -63.5t-108 -25.5q-70 0 -110 27.5t-40 76.5q0 11 3 23h114q-2 -6 -2 -9q0 -16 13 -25t35 -9q34 0 52 22t18 50q0 22 -12.5 33.5t-34.5 11.5q-20 0 -35 -10.5t-23 -27.5l-109 7l85 244h286
l-21 -90h-195z" />
    <glyph glyph-name="six.denominator" horiz-adv-x="396" 
d="M336.5 385.5q38.5 -28.5 38.5 -79.5q0 -11 -1 -17h-113v6q0 37 -40 37q-27 0 -50.5 -23t-38.5 -70h2q37 25 87 25q55 0 87.5 -32t32.5 -86q0 -36 -21.5 -72t-62.5 -60t-97 -24q-73 0 -112.5 39t-39.5 115q0 59 26 122t76 105.5t119 42.5t107.5 -28.5zM136.5 166
q-17.5 -21 -17.5 -47q0 -20 11.5 -32t32.5 -12q28 0 46 20t18 46q0 21 -12 33.5t-33 12.5q-28 0 -45.5 -21z" />
    <glyph glyph-name="seven.denominator" horiz-adv-x="355" 
d="M246.5 171.5q-53.5 -82.5 -91.5 -171.5h-131q44 93 102 175.5t114 135.5h-216l22 93h335l-21 -89q-60 -61 -113.5 -143.5z" />
    <glyph glyph-name="eight.denominator" horiz-adv-x="398" 
d="M330.5 384q40.5 -30 40.5 -80q0 -36 -26 -65t-74 -37v-2q29 -10 45.5 -33.5t16.5 -54.5q0 -30 -20 -58t-61 -46t-101 -18q-75 0 -116.5 31t-41.5 86q0 39 29.5 70.5t82.5 38.5v2q-26 10 -40.5 31.5t-14.5 48.5q0 28 20 54.5t58.5 44t92.5 17.5q69 0 109.5 -30z
M168.5 317.5q-16.5 -14.5 -16.5 -32.5t12.5 -28.5t36.5 -10.5q28 0 45 14.5t17 33.5q0 18 -13 28t-36 10q-29 0 -45.5 -14.5zM123 149.5q-17 -16.5 -17 -35.5t13.5 -29.5t38.5 -10.5q31 0 48.5 15.5t17.5 36.5q0 19 -13.5 29.5t-38.5 10.5q-32 0 -49 -16.5z" />
    <glyph glyph-name="nine.denominator" horiz-adv-x="396" 
d="M33.5 18.5q-38.5 28.5 -38.5 79.5q0 11 1 17h113v-6q0 -37 40 -37q27 0 50.5 23t38.5 70h-2q-37 -25 -87 -25q-55 0 -87.5 32t-32.5 86q0 36 21.5 72t62.5 60t97 24q73 0 112.5 -39t39.5 -115q0 -59 -26 -122t-76 -105.5t-119 -42.5t-107.5 28.5zM233.5 238
q17.5 21 17.5 47q0 20 -11.5 32t-32.5 12q-28 0 -46 -20t-18 -46q0 -21 12 -33.5t33 -12.5q28 0 45.5 21z" />
    <glyph glyph-name="zero.numerator" horiz-adv-x="414" 
d="M408 643.5q38 -40.5 38 -117.5q0 -61 -25 -122.5t-74.5 -102.5t-120.5 -41q-74 0 -111.5 41t-37.5 117q0 61 25 122.5t74.5 102.5t119.5 41q74 0 112 -40.5zM235.5 566q-22.5 -33 -34 -77t-11.5 -76q0 -33 11 -50.5t33 -17.5q31 0 53.5 32.5t34 76.5t11.5 76q0 69 -44 69
q-31 0 -53.5 -33z" />
    <glyph glyph-name="one.numerator" horiz-adv-x="280" 
d="M116 270l64 252h-103l19 81q55 0 86.5 16.5t46.5 54.5h102l-101 -404h-114z" />
    <glyph glyph-name="two.numerator" horiz-adv-x="406" 
d="M402 654q39 -30 39 -80q0 -46 -34.5 -83t-106.5 -66q-59 -23 -79 -36t-26 -29h206l-21 -90h-344q13 81 53 127t122 81q63 28 88.5 46t25.5 42q0 15 -10 24t-28 9q-49 0 -63 -58h-116q16 69 65 106t121 37q69 0 108 -30z" />
    <glyph glyph-name="three.numerator" horiz-adv-x="400" 
d="M404 656q39 -28 39 -78q0 -75 -96 -105v-2q56 -21 56 -78q0 -32 -20.5 -62.5t-61 -50.5t-97.5 -20q-79 0 -120.5 29.5t-41.5 85.5q0 15 3 31h114q-2 -14 -2 -20q0 -40 52 -40q29 0 46 15t17 32q0 39 -62 39h-12l20 82h14q37 0 57.5 15t20.5 35q0 17 -12 26t-34 9
q-53 0 -67 -57h-112q15 67 64.5 104.5t123.5 37.5q72 0 111 -28z" />
    <glyph glyph-name="four.numerator" horiz-adv-x="398" 
d="M345 350l-20 -80h-111l20 80h-201l23 95l218 229h152l-60 -240h66l-20 -84h-67zM259 434l10 42q14 61 34 114h-2q-40 -45 -93 -100l-55 -56h106z" />
    <glyph glyph-name="five.numerator" horiz-adv-x="399" 
d="M234 584l-26 -65h2q35 22 77 22q57 0 89.5 -31.5t32.5 -85.5q0 -37 -23 -75t-68 -63.5t-108 -25.5q-70 0 -110 27.5t-40 76.5q0 11 3 23h114q-2 -6 -2 -9q0 -16 13 -25t35 -9q34 0 52 22t18 50q0 22 -12.5 33.5t-34.5 11.5q-20 0 -35 -10.5t-23 -27.5l-109 7l85 244h286
l-21 -90h-195z" />
    <glyph glyph-name="six.numerator" horiz-adv-x="396" 
d="M403.5 655.5q38.5 -28.5 38.5 -79.5q0 -11 -1 -17h-113v6q0 37 -40 37q-27 0 -50.5 -23t-38.5 -70h2q37 25 87 25q55 0 87.5 -32t32.5 -86q0 -36 -21.5 -72t-62.5 -60t-97 -24q-73 0 -112.5 39t-39.5 115q0 59 26 122t76 105.5t119 42.5t107.5 -28.5zM203.5 436
q-17.5 -21 -17.5 -47q0 -20 11.5 -32t32.5 -12q28 0 46 20t18 46q0 21 -12 33.5t-33 12.5q-28 0 -45.5 -21z" />
    <glyph glyph-name="seven.numerator" horiz-adv-x="355" 
d="M313.5 441.5q-53.5 -82.5 -91.5 -171.5h-131q44 93 102 175.5t114 135.5h-216l22 93h335l-21 -89q-60 -61 -113.5 -143.5z" />
    <glyph glyph-name="eight.numerator" horiz-adv-x="398" 
d="M397.5 654q40.5 -30 40.5 -80q0 -36 -26 -65t-74 -37v-2q29 -10 45.5 -33.5t16.5 -54.5q0 -30 -20 -58t-61 -46t-101 -18q-75 0 -116.5 31t-41.5 86q0 39 29.5 70.5t82.5 38.5v2q-26 10 -40.5 31.5t-14.5 48.5q0 28 20 54.5t58.5 44t92.5 17.5q69 0 109.5 -30z
M235.5 587.5q-16.5 -14.5 -16.5 -32.5t12.5 -28.5t36.5 -10.5q28 0 45 14.5t17 33.5q0 18 -13 28t-36 10q-29 0 -45.5 -14.5zM190 419.5q-17 -16.5 -17 -35.5t13.5 -29.5t38.5 -10.5q31 0 48.5 15.5t17.5 36.5q0 19 -13.5 29.5t-38.5 10.5q-32 0 -49 -16.5z" />
    <glyph glyph-name="nine.numerator" horiz-adv-x="396" 
d="M100.5 288.5q-38.5 28.5 -38.5 79.5q0 11 1 17h113v-6q0 -37 40 -37q27 0 50.5 23t38.5 70h-2q-37 -25 -87 -25q-55 0 -87.5 32t-32.5 86q0 36 21.5 72t62.5 60t97 24q73 0 112.5 -39t39.5 -115q0 -59 -26 -122t-76 -105.5t-119 -42.5t-107.5 28.5zM300.5 508
q17.5 21 17.5 47q0 20 -11.5 32t-32.5 12q-28 0 -46 -20t-18 -46q0 -21 12 -33.5t33 -12.5q28 0 45.5 21z" />
    <glyph glyph-name="zero.smcp" horiz-adv-x="512" 
d="M450.5 507.5q47.5 -53.5 47.5 -154.5q0 -83 -32.5 -168t-97 -141.5t-155.5 -56.5q-94 0 -142 53t-48 154q0 83 33 168t98 142t156 57q93 0 140.5 -53.5zM228.5 404.5q-29.5 -45.5 -45.5 -107.5t-16 -106q0 -94 55 -94q41 0 71 45.5t46 107.5t16 106q0 94 -56 94
q-41 0 -70.5 -45.5z" />
    <glyph glyph-name="one.smcp" horiz-adv-x="512" 
d="M149 0l87 350h-139l25 102q73 0 115 23t63 73h130l-137 -548h-144z" />
    <glyph glyph-name="two.smcp" horiz-adv-x="512" 
d="M446.5 521q49.5 -40 49.5 -107q0 -63 -44.5 -113t-138.5 -92q-76 -34 -103 -53t-35 -41h265l-28 -115h-440q12 72 39 122t72.5 86.5t118.5 70.5q81 38 113.5 64t32.5 60q0 23 -13 35.5t-37 12.5q-62 0 -82 -81h-146q22 92 85 141.5t155 49.5q87 0 136.5 -40z" />
    <glyph glyph-name="three.smcp" horiz-adv-x="512" 
d="M449 523q50 -38 50 -104q0 -48 -30 -85.5t-96 -58.5v-1q72 -31 72 -107q0 -44 -27 -85.5t-79.5 -68t-126.5 -26.5q-100 0 -152.5 39t-52.5 114q0 13 4 43h145q-4 -13 -4 -30q0 -56 67 -56q38 0 61 22t23 47q0 56 -80 56h-16l26 106h17q50 0 77.5 22t27.5 51
q0 23 -15.5 36.5t-43.5 13.5q-70 0 -88 -81h-143q21 90 85 140.5t158 50.5q91 0 141 -38z" />
    <glyph glyph-name="four.smcp" horiz-adv-x="512" 
d="M377 112l-28 -112h-141l28 112h-261l30 123l287 313h194l-82 -328h84l-27 -108h-84zM267 220l15 60q20 83 46 160h-1q-50 -60 -127 -144l-70 -76h137z" />
    <glyph glyph-name="five.smcp" horiz-adv-x="512" 
d="M237 433l-34 -96h2q47 30 98 30q72 0 113.5 -42.5t41.5 -114.5q0 -51 -29.5 -102.5t-87.5 -86t-139 -34.5q-89 0 -140 36t-51 101q0 18 4 33h144q-1 -5 -1 -14q0 -23 16.5 -35.5t44.5 -12.5q46 0 69 32.5t23 72.5q0 30 -15.5 46t-44.5 16q-26 0 -46 -14.5t-30 -37.5
l-138 9l113 329h365l-28 -115h-250z" />
    <glyph glyph-name="six.smcp" horiz-adv-x="512" 
d="M456.5 522q48.5 -39 48.5 -109q0 -14 -1 -20h-143v9q0 25 -13 38.5t-38 13.5q-36 0 -67 -32t-51 -99h2q50 35 111 35q71 0 112.5 -43t41.5 -116q0 -48 -28 -97.5t-82 -82t-126 -32.5q-92 0 -141 51t-49 150q0 81 34 168t99 146t155 59q87 0 135.5 -39zM196 226.5
q-23 -30.5 -23 -65.5q0 -30 14.5 -47.5t40.5 -17.5q38 0 61.5 29t23.5 65q0 31 -14.5 49t-41.5 18q-38 0 -61 -30.5z" />
    <glyph glyph-name="seven.smcp" horiz-adv-x="512" 
d="M362 235q-70 -113 -120 -235h-165q57 127 133.5 241.5t148.5 187.5h-279l30 119h429l-28 -115q-79 -85 -149 -198z" />
    <glyph glyph-name="eight.smcp" horiz-adv-x="512" 
d="M449.5 521.5q51.5 -39.5 51.5 -106.5q0 -49 -35 -89t-97 -52v-2q37 -13 58 -45t21 -73q0 -40 -26.5 -78.5t-79.5 -63.5t-130 -25q-95 0 -147.5 41.5t-52.5 115.5q0 52 38.5 95.5t106.5 54.5v2q-33 14 -50.5 42.5t-17.5 64.5q0 38 25.5 74.5t75.5 60t119 23.5
q89 0 140.5 -39.5zM238.5 433q-21.5 -21 -21.5 -46q0 -26 17 -40.5t48 -14.5q37 0 58.5 21t21.5 47t-16.5 40t-46.5 14q-39 0 -60.5 -21zM177.5 204q-22.5 -24 -22.5 -52q0 -26 18 -41.5t50 -15.5q39 0 63 23t24 52q0 27 -17.5 42.5t-50.5 15.5q-42 0 -64.5 -24z" />
    <glyph glyph-name="nine.smcp" horiz-adv-x="512" 
d="M65.5 26q-48.5 39 -48.5 109q0 14 1 20h143v-9q0 -25 13 -38.5t38 -13.5q36 0 67 32t51 99h-2q-50 -35 -111 -35q-71 0 -112.5 43t-41.5 116q0 48 28 97.5t82 82t126 32.5q92 0 141 -51t49 -150q0 -81 -34 -168t-99 -146t-155 -59q-87 0 -135.5 39zM326 321.5
q23 30.5 23 65.5q0 30 -14.5 47.5t-40.5 17.5q-38 0 -61.5 -29t-23.5 -65q0 -31 14.5 -49t41.5 -18q38 0 61 30.5z" />
    <glyph glyph-name="zero.lf.smcp" horiz-adv-x="542" 
d="M465.5 507.5q47.5 -53.5 47.5 -154.5q0 -83 -32.5 -168t-97 -141.5t-155.5 -56.5q-94 0 -142 53t-48 154q0 83 33 168t98 142t156 57q93 0 140.5 -53.5zM243.5 404.5q-29.5 -45.5 -45.5 -107.5t-16 -106q0 -94 55 -94q41 0 71 45.5t46 107.5t16 106q0 94 -56 94
q-41 0 -70.5 -45.5z" />
    <glyph glyph-name="one.lf.smcp" horiz-adv-x="378" 
d="M90 0l87 350h-139l25 102q73 0 115 23t63 73h130l-137 -548h-144z" />
    <glyph glyph-name="two.lf.smcp" horiz-adv-x="531" 
d="M458.5 521q49.5 -40 49.5 -107q0 -63 -44.5 -113t-138.5 -92q-76 -34 -103 -53t-35 -41h265l-28 -115h-440q12 72 39 122t72.5 86.5t118.5 70.5q81 38 113.5 64t32.5 60q0 23 -13 35.5t-37 12.5q-62 0 -82 -81h-146q22 92 85 141.5t155 49.5q87 0 136.5 -40z" />
    <glyph glyph-name="three.lf.smcp" horiz-adv-x="527" 
d="M460 523q50 -38 50 -104q0 -48 -30 -85.5t-96 -58.5v-1q72 -31 72 -107q0 -44 -27 -85.5t-79.5 -68t-126.5 -26.5q-100 0 -152.5 39t-52.5 114q0 13 4 43h145q-4 -13 -4 -30q0 -56 67 -56q38 0 61 22t23 47q0 56 -80 56h-16l26 106h17q50 0 77.5 22t27.5 51
q0 23 -15.5 36.5t-43.5 13.5q-70 0 -88 -81h-143q21 90 85 140.5t158 50.5q91 0 141 -38z" />
    <glyph glyph-name="four.lf.smcp" horiz-adv-x="514" 
d="M380 112l-28 -112h-141l28 112h-261l30 123l287 313h194l-82 -328h84l-27 -108h-84zM270 220l15 60q20 83 46 160h-1q-50 -60 -127 -144l-70 -76h137z" />
    <glyph glyph-name="five.lf.smcp" horiz-adv-x="523" 
d="M242 433l-34 -96h2q47 30 98 30q72 0 113.5 -42.5t41.5 -114.5q0 -51 -29.5 -102.5t-87.5 -86t-139 -34.5q-89 0 -140 36t-51 101q0 18 4 33h144q-1 -5 -1 -14q0 -23 16.5 -35.5t44.5 -12.5q46 0 69 32.5t23 72.5q0 30 -15.5 46t-44.5 16q-26 0 -46 -14.5t-30 -37.5
l-138 9l113 329h365l-28 -115h-250z" />
    <glyph glyph-name="six.lf.smcp" horiz-adv-x="518" 
d="M459.5 522q48.5 -39 48.5 -109q0 -14 -1 -20h-143v9q0 25 -13 38.5t-38 13.5q-36 0 -67 -32t-51 -99h2q50 35 111 35q71 0 112.5 -43t41.5 -116q0 -48 -28 -97.5t-82 -82t-126 -32.5q-92 0 -141 51t-49 150q0 81 34 168t99 146t155 59q87 0 135.5 -39zM199 226.5
q-23 -30.5 -23 -65.5q0 -30 14.5 -47.5t40.5 -17.5q38 0 61.5 29t23.5 65q0 31 -14.5 49t-41.5 18q-38 0 -61 -30.5z" />
    <glyph glyph-name="seven.lf.smcp" horiz-adv-x="456" 
d="M337 235q-70 -113 -120 -235h-165q57 127 133.5 241.5t148.5 187.5h-279l30 119h429l-28 -115q-79 -85 -149 -198z" />
    <glyph glyph-name="eight.lf.smcp" horiz-adv-x="522" 
d="M454.5 521.5q51.5 -39.5 51.5 -106.5q0 -49 -35 -89t-97 -52v-2q37 -13 58 -45t21 -73q0 -40 -26.5 -78.5t-79.5 -63.5t-130 -25q-95 0 -147.5 41.5t-52.5 115.5q0 52 38.5 95.5t106.5 54.5v2q-33 14 -50.5 42.5t-17.5 64.5q0 38 25.5 74.5t75.5 60t119 23.5
q89 0 140.5 -39.5zM243.5 433q-21.5 -21 -21.5 -46q0 -26 17 -40.5t48 -14.5q37 0 58.5 21t21.5 47t-16.5 40t-46.5 14q-39 0 -60.5 -21zM182.5 204q-22.5 -24 -22.5 -52q0 -26 18 -41.5t50 -15.5q39 0 63 23t24 52q0 27 -17.5 42.5t-50.5 15.5q-42 0 -64.5 -24z" />
    <glyph glyph-name="nine.lf.smcp" horiz-adv-x="518" 
d="M68.5 26q-48.5 39 -48.5 109q0 14 1 20h143v-9q0 -25 13 -38.5t38 -13.5q36 0 67 32t51 99h-2q-50 -35 -111 -35q-71 0 -112.5 43t-41.5 116q0 48 28 97.5t82 82t126 32.5q92 0 141 -51t49 -150q0 -81 -34 -168t-99 -146t-155 -59q-87 0 -135.5 39zM329 321.5
q23 30.5 23 65.5q0 30 -14.5 47.5t-40.5 17.5q-38 0 -61.5 -29t-23.5 -65q0 -31 14.5 -49t41.5 -18q38 0 61 30.5z" />
    <glyph glyph-name="periodcentered.case" horiz-adv-x="258" 
d="M57 272l41 167h154l-41 -167h-154z" />
    <glyph glyph-name="exclamdown.case" horiz-adv-x="324" 
d="M352 712l-33 -132h-154l33 132h154zM280 514l-97 -514h-170l159 514h108z" />
    <glyph glyph-name="periodcentered.loclCAT.case" horiz-adv-x="80" 
d="M-153 348l41 167h154l-41 -167h-154z" />
    <glyph glyph-name="questiondown.case" horiz-adv-x="547" 
d="M476 712l-33 -132h-154l33 132h154zM77.5 32q-57.5 47 -57.5 132q0 53 30 97t112 99q44 30 67.5 51.5t37.5 47t25 67.5h119q-13 -63 -28.5 -99t-41.5 -64t-77 -65q-62 -45 -81 -72.5t-19 -56.5q0 -30 20 -46.5t59 -16.5q45 0 74 24.5t42 76.5h146q-26 -109 -94.5 -165.5
t-170.5 -56.5q-105 0 -162.5 47z" />
    <glyph glyph-name="slash.case" horiz-adv-x="494" 
d="M-1 0l428 712h118l-428 -712h-118z" />
    <glyph glyph-name="periodcentered.loclCAT" horiz-adv-x="208" 
d="M31 272l41 167h154l-41 -167h-154z" />
    <glyph glyph-name="braceleft.case" horiz-adv-x="338" 
d="M356 672q-23 -18 -34 -62l-32 -128q-13 -52 -42.5 -80t-81.5 -40l-1 -3q34 -12 50 -34.5t16 -58.5q0 -22 -7 -49l-25 -99q-6 -24 -6 -40q0 -30 14.5 -43t47.5 -14l-20 -81h-14q-82 0 -118.5 29.5t-36.5 93.5q0 29 11 75l22 88q6 24 6 40q0 24 -11 38.5t-36 21.5l22 87
q39 10 58 28t29 56l29 118q21 85 68.5 121t143.5 36h34l-20 -80q-43 -2 -66 -20z" />
    <glyph glyph-name="braceright.case" horiz-adv-x="338" 
d="M33 40q23 18 34 62l32 128q13 52 42.5 80t81.5 40l1 3q-34 12 -50 34.5t-16 58.5q0 22 7 49l25 99q6 24 6 40q0 30 -14.5 43t-47.5 14l20 81h14q82 0 118.5 -29.5t36.5 -93.5q0 -29 -11 -75l-22 -88q-6 -24 -6 -40q0 -24 11 -38.5t36 -21.5l-22 -87q-39 -10 -58 -28
t-29 -56l-29 -118q-21 -85 -68.5 -121t-143.5 -36h-34l20 80q43 2 66 20z" />
    <glyph glyph-name="bracketleft.case" horiz-adv-x="329" 
d="M311 691l-167 -670h112l-20 -81h-244l207 832h244l-20 -81h-112z" />
    <glyph glyph-name="bracketright.case" horiz-adv-x="329" 
d="M69 21l167 670h-112l20 81h244l-207 -832h-244l20 81h112z" />
    <glyph glyph-name="parenleft.case" horiz-adv-x="328" 
d="M254.5 473.5q-56.5 -150.5 -56.5 -291.5q0 -110 22 -242h-111q-54 144 -54 292q0 134 63 274.5t190 265.5h119q-116 -148 -172.5 -298.5z" />
    <glyph glyph-name="parenright.case" horiz-adv-x="328" 
d="M124.5 238.5q56.5 150.5 56.5 291.5q0 110 -22 242h111q54 -144 54 -292q0 -134 -63 -274.5t-190 -265.5h-119q116 148 172.5 298.5z" />
    <glyph glyph-name="bracketleft.sups" horiz-adv-x="255" 
d="M291 772l-117 -469h82l-19 -76h-195l155 622h196l-19 -77h-83z" />
    <glyph glyph-name="bracketright.sups" horiz-adv-x="255" 
d="M5 227l19 77h83l117 469h-82l19 76h195l-155 -622h-196z" />
    <glyph glyph-name="emdash.case" horiz-adv-x="1000" 
d="M32 301l27 110h960l-27 -110h-960z" />
    <glyph glyph-name="endash.case" horiz-adv-x="500" 
d="M32 301l27 110h460l-27 -110h-460z" />
    <glyph glyph-name="hyphen.case" horiz-adv-x="320" 
d="M42 301l27 110h260l-27 -110h-260z" />
    <glyph glyph-name="guillemotleft.case" horiz-adv-x="532" 
d="M255 156h-116l-69 204l157 196h128l-159 -204zM463 156h-116l-69 204l157 196h128l-159 -204z" />
    <glyph glyph-name="guillemotright.case" horiz-adv-x="531" 
d="M119 556h116l69 -204l-157 -196h-128l159 204zM327 556h116l69 -204l-157 -196h-128l159 204z" />
    <glyph glyph-name="guilsinglleft.case" horiz-adv-x="324" 
d="M255 156h-116l-69 204l157 196h128l-159 -204z" />
    <glyph glyph-name="guilsinglright.case" horiz-adv-x="323" 
d="M119 556h116l69 -204l-157 -196h-128l159 204z" />
    </font>
</defs>
</svg>
