<?xml version="1.0" standalone="no"?>
<!DOCTYPE svg PUBLIC "-//W3C//DTD SVG 1.1//EN" "http://www.w3.org/Graphics/SVG/1.1/DTD/svg11.dtd" >
<svg xmlns="http://www.w3.org/2000/svg" xmlns:xlink="http://www.w3.org/1999/xlink" version="1.1">
<metadata>
Created by FontForge 20170731 at Thu Feb  5 13:05:20 2015
 By Aleksey,,,
Copyright (c) 2015 Monotype Imaging Inc.  All rights reserved.
</metadata>
<defs>
<font id="NeueHaasUnicaPro-UltLightIt" horiz-adv-x="500" >
  <font-face 
    font-family="Neue Haas Unica Pro UltraLight"
    font-weight="250"
    font-style="italic"
    font-variant="small-caps"
    font-stretch="normal"
    units-per-em="1000"
    panose-1="2 11 2 4 3 2 6 9 2 3"
    ascent="764"
    descent="-236"
    x-height="508"
    cap-height="712"
    bbox="-218 -275 1007 935"
    underline-thickness="50"
    underline-position="-175"
    slope="-14"
    unicode-range="U+0020-FEFF"
  />
<missing-glyph horiz-adv-x="580" 
d="M518 745q32 -32 32 -88v-602q0 -56 -32 -88t-88 -32h-280q-55 0 -87.5 32t-32.5 88v602q0 56 32.5 88t87.5 32h280q56 0 88 -32zM74 733q-28 -28 -28 -76v-602q0 -48 28 -76t76 -28h280q48 0 76 28t28 76v602q0 48 -28 76t-76 28h-280q-48 0 -76 -28zM399 604.5
q44 -38.5 44 -99.5q0 -42 -18 -72t-72 -76q-35 -30 -51 -51.5t-22 -50t-6 -79.5h-13v17q0 45 6.5 73t23.5 50.5t51 51.5q51 44 68 71.5t17 65.5q0 54 -39.5 88t-100.5 34q-64 0 -102 -35.5t-42 -100.5h-16q5 73 47.5 112.5t112.5 39.5q68 0 112 -38.5zM258 65v57h18v-57h-18
z" />
    <glyph glyph-name="f_f" unicode="ff" horiz-adv-x="470" 
d="M568 711l-4 -15q-11 3 -24 3q-83 0 -111 -109l-20 -82h107l-4 -16h-107l-123 -492h-16l123 492h-202l-123 -492h-16l123 492h-97l4 16h97l21 86q15 60 47 90.5t79 30.5q16 0 28 -4l-4 -15q-10 3 -24 3q-83 0 -111 -109l-20 -82h202l21 86q15 60 47 90.5t79 30.5
q16 0 28 -4z" />
    <glyph glyph-name="f_f_i" unicode="ffi" horiz-adv-x="668" 
d="M568 711l-4 -15q-11 3 -24 3q-83 0 -111 -109l-20 -82h107l-4 -16h-107l-123 -492h-16l123 492h-202l-123 -492h-16l123 492h-97l4 16h97l21 86q15 60 47 90.5t79 30.5q16 0 28 -4l-4 -15q-10 3 -24 3q-83 0 -111 -109l-20 -82h202l21 86q15 60 47 90.5t79 30.5
q16 0 28 -4zM498 0l126 508h16l-126 -508h-16zM656 635l19 77h16l-19 -77h-16z" />
    <glyph glyph-name="f_f_l" unicode="ffl" horiz-adv-x="668" 
d="M568 711l-4 -15q-11 3 -24 3q-83 0 -111 -109l-20 -82h107l-4 -16h-107l-123 -492h-16l123 492h-202l-123 -492h-16l123 492h-97l4 16h97l21 86q15 60 47 90.5t79 30.5q16 0 28 -4l-4 -15q-10 3 -24 3q-83 0 -111 -109l-20 -82h202l21 86q15 60 47 90.5t79 30.5
q16 0 28 -4zM498 0l177 712h16l-177 -712h-16z" />
    <glyph glyph-name="f_i" unicode="fi" horiz-adv-x="450" 
d="M350 711l-4 -15q-10 3 -24 3q-83 0 -111 -109l-20 -82h107l-4 -16h-107l-123 -492h-16l123 492h-97l4 16h97l21 86q15 60 47 90.5t79 30.5q16 0 28 -4zM280 0l126 508h16l-126 -508h-16zM438 635l19 77h16l-19 -77h-16z" />
    <glyph glyph-name="f_l" unicode="fl" horiz-adv-x="450" 
d="M350 711l-4 -15q-10 3 -24 3q-83 0 -111 -109l-20 -82h107l-4 -16h-107l-123 -492h-16l123 492h-97l4 16h97l21 86q15 60 47 90.5t79 30.5q16 0 28 -4zM280 0l177 712h16l-177 -712h-16z" />
    <glyph glyph-name=".notdef" horiz-adv-x="580" 
d="M518 745q32 -32 32 -88v-602q0 -56 -32 -88t-88 -32h-280q-55 0 -87.5 32t-32.5 88v602q0 56 32.5 88t87.5 32h280q56 0 88 -32zM74 733q-28 -28 -28 -76v-602q0 -48 28 -76t76 -28h280q48 0 76 28t28 76v602q0 48 -28 76t-76 28h-280q-48 0 -76 -28zM399 604.5
q44 -38.5 44 -99.5q0 -42 -18 -72t-72 -76q-35 -30 -51 -51.5t-22 -50t-6 -79.5h-13v17q0 45 6.5 73t23.5 50.5t51 51.5q51 44 68 71.5t17 65.5q0 54 -39.5 88t-100.5 34q-64 0 -102 -35.5t-42 -100.5h-16q5 73 47.5 112.5t112.5 39.5q68 0 112 -38.5zM258 65v57h18v-57h-18
z" />
    <glyph glyph-name=".null" horiz-adv-x="0" 
 />
    <glyph glyph-name="nonmarkingreturn" horiz-adv-x="333" 
 />
    <glyph glyph-name="NULL" horiz-adv-x="0" 
 />
    <glyph glyph-name="NULL" horiz-adv-x="0" 
 />
    <glyph glyph-name="space" unicode=" " horiz-adv-x="230" 
 />
    <glyph glyph-name="exclam" unicode="!" horiz-adv-x="202" 
d="M67 136l139 576h18l-147 -576h-10zM29 0l17 69h18l-17 -69h-18z" />
    <glyph glyph-name="quotedbl" unicode="&#x22;" horiz-adv-x="278" 
d="M136 468l58 244h18l-64 -244h-12zM236 468l58 244h18l-64 -244h-12z" />
    <glyph glyph-name="numbersign" unicode="#" horiz-adv-x="619" 
d="M400 232h143l-7 -16h-143l-88 -216h-17l88 216h-190l-88 -216h-17l88 216h-143l7 16h143l87 213h-144l7 16h143l87 213h17l-87 -213h190l87 213h17l-87 -213h143l-7 -16h-142zM280 445l-87 -213h190l87 213h-190z" />
    <glyph glyph-name="dollar" unicode="$" 
d="M503 530q0 -31 -9 -70h-16q9 39 9 70q0 64 -31 97.5t-96 39.5l-79 -317q53 -18 84.5 -37t48.5 -48t17 -74q0 -50 -25.5 -96t-76.5 -75.5t-123 -29.5h-15l-22 -89h-16l23 90q-146 14 -146 161q0 33 10 74h16q-10 -41 -10 -74q0 -134 133 -145l83 333q-73 26 -106.5 59.5
t-33.5 92.5q0 46 24.5 90t72.5 73t113 29h16l20 80h16l-20 -81q139 -13 139 -153zM332 668q-61 0 -105 -26.5t-66.5 -67.5t-22.5 -82q0 -52 30.5 -82t97.5 -54l78 312h-12zM399 258q-16 26 -44 42t-78 34l-82 -328h11q68 0 115 27t70.5 70t23.5 88q0 41 -16 67z" />
    <glyph glyph-name="percent" unicode="%" horiz-adv-x="749" 
d="M106 -30l558 734h20l-558 -734h-20zM364 558q0 -49 -19 -103.5t-56.5 -92t-89.5 -37.5q-97 0 -97 126q0 49 19 103.5t56.5 92t89.5 37.5q97 0 97 -126zM185.5 632.5q-33.5 -35.5 -50.5 -86t-17 -95.5q0 -55 19.5 -82.5t61.5 -27.5q48 0 81.5 35.5t50.5 86t17 95.5
q0 55 -19.5 82.5t-61.5 27.5q-48 0 -81.5 -35.5zM688 223q0 -49 -19 -103.5t-56.5 -92t-89.5 -37.5q-97 0 -97 126q0 49 19 103.5t56.5 92t89.5 37.5q97 0 97 -126zM509.5 297.5q-33.5 -35.5 -50.5 -86t-17 -95.5q0 -55 19.5 -82.5t61.5 -27.5q48 0 81.5 35.5t50.5 86
t17 95.5q0 55 -19.5 82.5t-61.5 27.5q-48 0 -81.5 -35.5z" />
    <glyph glyph-name="ampersand" unicode="&#x26;" horiz-adv-x="703" 
d="M520 135l106 -135h-20l-97 124q-132 -134 -283 -134q-85 0 -131 39.5t-46 106.5q0 56 23 99.5t75.5 83.5t144.5 81q-34 47 -48 81t-14 74q0 39 19.5 77.5t55.5 64t83 25.5q54 0 85.5 -33.5t31.5 -86.5q0 -59 -42 -111t-146 -98l193 -245q86 94 125 247h17
q-40 -159 -132 -260zM313.5 683q-32.5 -23 -50 -58.5t-17.5 -69.5q0 -37 14 -70.5t47 -77.5q102 44 142 92t40 103q0 47 -27 75.5t-74 28.5q-42 0 -74.5 -23zM499 136l-197 251q-94 -42 -145 -80.5t-71.5 -78.5t-20.5 -92q0 -60 41.5 -95t119.5 -35q146 0 273 130z" />
    <glyph glyph-name="quotesingle" unicode="'" horiz-adv-x="178" 
d="M136 468l58 244h18l-64 -244h-12z" />
    <glyph glyph-name="parenleft" unicode="(" horiz-adv-x="230" 
d="M129 439.5q-65 -163.5 -65 -315.5q0 -133 36 -271h-16q-36 136 -36 271q0 155 64 317.5t189 299.5h20q-127 -138 -192 -301.5z" />
    <glyph glyph-name="parenright" unicode=")" horiz-adv-x="230" 
d="M122 154.5q65 163.5 65 315.5q0 133 -36 271h16q36 -136 36 -271q0 -155 -64 -317.5t-189 -299.5h-20q127 138 192 301.5z" />
    <glyph glyph-name="asterisk" unicode="*" horiz-adv-x="370" 
d="M412 592l2 -19l-141 -6l55 -130l-16 -7l-50 133l-107 -93l-11 13l110 89l-122 71l11 16l117 -77l32 137l17 -4l-37 -136z" />
    <glyph glyph-name="plus" unicode="+" horiz-adv-x="566" 
d="M491 325v-16h-200v-200h-16v200h-200v16h200v200h16v-200h200z" />
    <glyph glyph-name="comma" unicode="," horiz-adv-x="136" 
d="M-44 -127h-14l65 127l18 72h16l-18 -72z" />
    <glyph glyph-name="hyphen" unicode="-" horiz-adv-x="274" 
d="M37 284l4 16h214l-4 -16h-214z" />
    <glyph glyph-name="period" unicode="." horiz-adv-x="136" 
d="M-4 0l18 72h18l-18 -72h-18z" />
    <glyph glyph-name="slash" unicode="/" horiz-adv-x="395" 
d="M-56 -89l503 834h19l-503 -834h-19z" />
    <glyph glyph-name="zero" unicode="0" horiz-adv-x="520" 
d="M510 463q0 -95 -34 -206t-101.5 -189t-162.5 -78q-160 0 -160 221q0 95 34 206t101 189t162 78q161 0 161 -221zM195.5 591.5q-63.5 -76.5 -95.5 -184t-32 -196.5q0 -104 35.5 -154.5t108.5 -50.5q90 0 154 76.5t96 184t32 196.5q0 104 -35.5 154.5t-109.5 50.5
q-90 0 -153.5 -76.5z" />
    <glyph glyph-name="one" unicode="1" horiz-adv-x="520" 
d="M201 0l154 618h-1q-21 -37 -61 -54.5t-102 -17.5l4 16q71 0 110.5 25.5t63.5 86.5h16l-168 -674h-16z" />
    <glyph glyph-name="two" unicode="2" horiz-adv-x="520" 
d="M468.5 641.5q43.5 -42.5 43.5 -112.5q0 -54 -22 -94t-75 -77.5t-149 -79.5q-90 -40 -142 -80t-77.5 -82.5t-39.5 -99.5h399l-4 -16h-414q13 70 43.5 120.5t85 91.5t142.5 80q93 41 144 76t72 72.5t21 88.5q0 64 -38.5 101.5t-107.5 37.5q-77 0 -132.5 -46t-80.5 -128h-17
q26 88 86.5 139t143.5 51q75 0 118.5 -42.5z" />
    <glyph glyph-name="three" unicode="3" horiz-adv-x="520" 
d="M464 641.5q49 -42.5 49 -112.5q0 -41 -20.5 -79.5t-61 -66.5t-97.5 -39v-1q111 -33 111 -147q0 -48 -29 -96t-84 -79t-129 -31q-86 0 -131.5 39t-45.5 108q0 24 5 43h16q-5 -19 -5 -43q0 -61 41 -96t120 -35q69 0 120.5 29t78.5 73t27 88q0 67 -42 103.5t-118 36.5h-46
l4 16h42q76 0 127.5 27.5t76 68t24.5 81.5q0 64 -44 101.5t-121 37.5q-75 0 -129.5 -45t-74.5 -127h-16q22 88 81 138t139 50q83 0 132 -42.5z" />
    <glyph glyph-name="four" unicode="4" horiz-adv-x="520" 
d="M343 207l-52 -207h-16l52 207h-318l5 20l420 447h25l-112 -451h139l-4 -16h-139zM330 223l28 112l80 319h-1l-269 -286l-136 -145h298z" />
    <glyph glyph-name="five" unicode="5" horiz-adv-x="520" 
d="M216 658l-111 -318h1q31 43 76.5 67t101.5 24q80 0 123 -47.5t43 -132.5q0 -59 -30 -120t-88 -101t-137 -40q-75 0 -116.5 36t-41.5 102q0 24 5 44h16q-5 -20 -5 -44q0 -59 37 -90.5t105 -31.5q74 0 128.5 38t82.5 95t28 112q0 78 -38.5 121t-111.5 43q-62 0 -113 -33
t-86 -99l-15 1l136 390h328l-4 -16h-314z" />
    <glyph glyph-name="six" unicode="6" horiz-adv-x="520" 
d="M486 645.5q39 -38.5 39 -108.5q0 -9 -1 -17h-16q1 8 1 17q0 63 -34.5 97t-104.5 34q-60 0 -117 -42t-103 -127t-74 -210h2q26 62 85.5 104t130.5 42q78 0 122.5 -52t44.5 -142q0 -54 -29 -113t-84 -98.5t-127 -39.5q-84 0 -127 47.5t-43 141.5q0 99 39 218.5t111.5 203
t168.5 83.5q77 0 116 -38.5zM173.5 383q-51.5 -36 -79 -92t-27.5 -112q0 -173 154 -173q68 0 119 37.5t78 92.5t27 105q0 83 -39.5 130.5t-111.5 47.5q-69 0 -120.5 -36z" />
    <glyph glyph-name="seven" unicode="7" horiz-adv-x="520" 
d="M328.5 361q-108.5 -154 -205.5 -361h-18q100 211 207 364.5t236 293.5h-406l4 16h427l-4 -16q-132 -143 -240.5 -297z" />
    <glyph glyph-name="eight" unicode="8" horiz-adv-x="520" 
d="M472.5 642q45.5 -42 45.5 -113q0 -42 -21 -81t-61.5 -66.5t-94.5 -36.5v-1q49 -16 79.5 -55t30.5 -95q0 -47 -28 -94.5t-82 -78.5t-128 -31q-83 0 -132.5 45t-49.5 121q0 43 23.5 85.5t68.5 72.5t104 38v1q-44 13 -71 49.5t-27 87.5q0 44 27 89.5t77.5 75t117.5 29.5
q76 0 121.5 -42zM241.5 640.5q-46.5 -27.5 -71.5 -69t-25 -81.5q0 -61 40 -97.5t112 -36.5q66 0 112.5 26.5t69.5 66t23 80.5q0 64 -40.5 101.5t-110.5 37.5q-63 0 -109.5 -27.5zM151.5 313q-50.5 -28 -77.5 -70.5t-27 -86.5q0 -69 45 -109.5t121 -40.5q69 0 119.5 29
t76.5 72.5t26 86.5q0 65 -45.5 106t-120.5 41q-67 0 -117.5 -28z" />
    <glyph glyph-name="nine" unicode="9" horiz-adv-x="520" 
d="M76 28.5q-39 38.5 -39 108.5q0 9 1 17h16q-1 -8 -1 -17q0 -63 34.5 -97t104.5 -34q60 0 117 42t103 127t74 210h-2q-26 -62 -85.5 -104t-130.5 -42q-78 0 -122.5 52t-44.5 142q0 54 29 113t84 98.5t127 39.5q84 0 127 -47.5t43 -141.5q0 -99 -39 -218.5t-111.5 -203
t-168.5 -83.5q-77 0 -116 38.5zM388.5 291q51.5 36 79 92t27.5 112q0 173 -154 173q-68 0 -119 -37.5t-78 -92.5t-27 -105q0 -83 39.5 -130.5t111.5 -47.5q69 0 120.5 36z" />
    <glyph glyph-name="colon" unicode=":" horiz-adv-x="137" 
d="M-3 0l18 72h18l-18 -72h-18zM105 436l18 72h18l-18 -72h-18z" />
    <glyph glyph-name="semicolon" unicode=";" horiz-adv-x="137" 
d="M-44 -127h-14l65 127l18 72h16l-18 -72zM115 436l18 72h18l-18 -72h-18z" />
    <glyph glyph-name="less" unicode="&#x3c;" horiz-adv-x="566" 
d="M91 318v-2l400 -183v-18l-416 191v22l416 191v-18z" />
    <glyph glyph-name="equal" unicode="=" horiz-adv-x="566" 
d="M75 371v16h416v-16h-416zM75 246v16h416v-16h-416z" />
    <glyph glyph-name="greater" unicode="&#x3e;" horiz-adv-x="566" 
d="M491 306l-416 -191v18l400 183v2l-400 183v18l416 -191v-22z" />
    <glyph glyph-name="question" unicode="?" horiz-adv-x="468" 
d="M454.5 680q45.5 -42 45.5 -111q0 -39 -13.5 -71t-48 -66.5t-98.5 -78.5q-51 -35 -77.5 -60.5t-43.5 -60.5t-32 -95h-13q16 66 31.5 101t43 62t83.5 66q61 42 94 75t45.5 62.5t12.5 65.5q0 62 -41 99.5t-111 37.5q-74 0 -129 -45t-80 -128h-17q27 91 86.5 140t139.5 49
q77 0 122.5 -42zM137 0l17 69h18l-17 -69h-18z" />
    <glyph glyph-name="at" unicode="@" horiz-adv-x="837" 
d="M714 595q78 -77 78 -211q0 -70 -25.5 -139.5t-73 -114.5t-110.5 -45q-77 0 -77 70q0 21 8 50h-1q-34 -60 -76 -90t-87 -30q-112 0 -112 133q0 60 30 131t83 120t119 49q53 0 80 -31.5t27 -82.5q0 -9 -2 -25h1q23 58 55 129h16q-125 -278 -125 -351q0 -29 15 -42.5
t46 -13.5q59 0 103 43t67 108.5t23 131.5q0 127 -73.5 199.5t-205.5 72.5q-127 0 -221 -70t-143 -173t-49 -199q0 -135 72 -209t205 -74q127 0 232 62l7 -14q-110 -64 -239 -64q-140 0 -216.5 78.5t-76.5 220.5q0 100 51 207t148.5 179t229.5 72q139 0 217 -77zM358.5 455
q-49.5 -47 -77 -114t-27.5 -123q0 -59 23.5 -88t72.5 -29q60 0 108.5 52t76 124t27.5 126q0 47 -24 73t-68 26q-62 0 -111.5 -47z" />
    <glyph glyph-name="A" unicode="A" horiz-adv-x="634" 
d="M140 266l-178 -266h-19l476 712h22l123 -712h-16l-46 266h-362zM482 380q-36 214 -54 316h-1l-211 -316l-66 -98h349z" />
    <glyph glyph-name="B" unicode="B" horiz-adv-x="588" 
d="M541 672.5q46 -39.5 46 -110.5q0 -42 -22 -84.5t-66 -73t-105 -39.5v-1q56 -11 89 -50t33 -103q0 -50 -27.5 -98.5t-82.5 -80.5t-132 -32h-232l177 712h183q93 0 139 -39.5zM151 373h178q83 0 137.5 29.5t79.5 73.5t25 86q0 64 -41.5 99t-127.5 35h-171zM62 16h212
q73 0 124 29.5t76.5 75t25.5 90.5q0 67 -42 106.5t-129 39.5h-182z" />
    <glyph glyph-name="C" unicode="C" horiz-adv-x="661" 
d="M598.5 660q55.5 -62 55.5 -159q0 -12 -2 -36h-16q2 24 2 36q0 91 -51 148t-148 57q-110 0 -191.5 -68t-124 -171t-42.5 -206q0 -117 57.5 -186t161.5 -69q99 0 176 59t109 152h17q-34 -102 -115.5 -164.5t-186.5 -62.5q-111 0 -173 73.5t-62 198.5q0 107 44.5 213.5
t129.5 176.5t199 70q105 0 160.5 -62z" />
    <glyph glyph-name="D" unicode="D" horiz-adv-x="708" 
d="M606.5 634q80.5 -78 80.5 -224q0 -99 -46 -193t-141.5 -155.5t-237.5 -61.5h-220l177 712h152q155 0 235.5 -78zM62 16h200q137 0 229.5 59.5t136 150t43.5 184.5q0 140 -76 213t-224 73h-140z" />
    <glyph glyph-name="E" unicode="E" horiz-adv-x="586" 
d="M231 696l-80 -322h374l-4 -16h-374l-85 -342h405l-4 -16h-421l177 712h407l-4 -16h-391z" />
    <glyph glyph-name="F" unicode="F" horiz-adv-x="538" 
d="M231 696l-79 -317h363l-4 -16h-363l-90 -363h-16l177 712h398l-4 -16h-382z" />
    <glyph glyph-name="G" unicode="G" horiz-adv-x="698" 
d="M613.5 668q56.5 -54 56.5 -146q0 -11 -2 -31h-16q2 18 2 31q0 85 -52 134.5t-151 49.5q-116 0 -200 -66.5t-127 -169t-43 -206.5q0 -118 57 -188t160 -70q101 0 187.5 74t127.5 242h-237l4 16h253l-84 -338h-16l24 96q16 66 29 105h-1q-39 -99 -114.5 -155t-172.5 -56
q-110 0 -171.5 74.5t-61.5 199.5q0 109 45 215t133 174.5t208 68.5q106 0 162.5 -54z" />
    <glyph glyph-name="H" unicode="H" horiz-adv-x="705" 
d="M521 0l90 362h-463l-90 -362h-16l177 712h16l-83 -334h463l83 334h16l-177 -712h-16z" />
    <glyph glyph-name="I" unicode="I" horiz-adv-x="226" 
d="M42 0l177 712h16l-177 -712h-16z" />
    <glyph glyph-name="J" unicode="J" horiz-adv-x="303" 
d="M111.5 39.5q-48.5 -43.5 -117.5 -43.5q-22 0 -42 6l4 15q18 -5 38 -5q64 0 108.5 40.5t63.5 118.5l135 541h16l-136 -545q-21 -84 -69.5 -127.5z" />
    <glyph glyph-name="K" unicode="K" horiz-adv-x="532" 
d="M465 0h-20l-295 368h-1l-91 -368h-16l177 712h16l-83 -332h1l431 332h26l-442 -340z" />
    <glyph glyph-name="L" unicode="L" horiz-adv-x="525" 
d="M461 16l-4 -16h-415l177 712h16l-173 -696h399z" />
    <glyph glyph-name="M" unicode="M" horiz-adv-x="849" 
d="M665 0l96 388l13 52q26 102 64 256h-1l-211 -317l-253 -379h-22l-65 379l-54 317h-1q-38 -154 -64 -256l-13 -52l-96 -388h-16l177 712h26l70 -410l49 -286h1l191 286l273 410h29l-177 -712h-16z" />
    <glyph glyph-name="N" unicode="N" horiz-adv-x="718" 
d="M526 0l-140 333l-154 364h-1l-96 -386l-77 -311h-16l177 712h24l140 -333q26 -60 38 -91q48 -110 115 -273h1l49 193l48 193l77 311h16l-177 -712h-24z" />
    <glyph glyph-name="O" unicode="O" horiz-adv-x="702" 
d="M569.5 686.5q57.5 -35.5 87 -99.5t29.5 -148q0 -104 -43.5 -208t-127 -172.5t-195.5 -68.5q-79 0 -136.5 35.5t-87 99.5t-29.5 148q0 104 43.5 208t127 172.5t195.5 68.5q79 0 136.5 -35.5zM245.5 640q-79.5 -66 -121 -167t-41.5 -200q0 -121 62.5 -194t174.5 -73
q108 0 187.5 66t121 167t41.5 200q0 121 -62.5 194t-174.5 73q-108 0 -187.5 -66z" />
    <glyph glyph-name="P" unicode="P" horiz-adv-x="575" 
d="M564 667q47 -45 47 -124q0 -49 -26 -96.5t-79 -79t-130 -31.5h-235l-83 -336h-16l177 712h203q95 0 142 -45zM145 352h231q72 0 121.5 29.5t73.5 73.5t24 88q0 72 -42.5 112.5t-130.5 40.5h-191z" />
    <glyph glyph-name="Q" unicode="Q" horiz-adv-x="702" 
d="M641 227q-45 -106 -126 -169l63 -97l-13 -9l-62 96q-82 -58 -183 -58q-79 0 -136.5 35.5t-87 99.5t-29.5 148q0 104 43.5 208t127 172.5t195.5 68.5q79 0 136.5 -35.5t87 -99.5t29.5 -148q0 -106 -45 -212zM494 62l-74 114l13 9l74 -114q77 62 120 164.5t43 203.5
q0 121 -62.5 194t-174.5 73q-108 0 -187.5 -66t-121 -167t-41.5 -200q0 -121 62.5 -194t174.5 -73q97 0 174 56z" />
    <glyph glyph-name="R" unicode="R" horiz-adv-x="591" 
d="M542.5 670.5q47.5 -41.5 47.5 -114.5q0 -46 -23.5 -90.5t-68.5 -76t-108 -40.5v-1q36 -12 54 -40t26 -93l26 -215h-16l-25 210q-6 51 -18 78.5t-37.5 40.5t-71.5 13h-185l-85 -342h-16l177 712h181q95 0 142.5 -41.5zM147 358h181q83 0 138.5 31t81.5 76.5t26 90.5
q0 67 -43 103.5t-131 36.5h-169z" />
    <glyph glyph-name="S" unicode="S" horiz-adv-x="576" 
d="M566 555q0 -31 -9 -70h-16q9 39 9 70q0 77 -44.5 114t-135.5 37q-71 0 -120 -28t-73.5 -71t-24.5 -85q0 -59 37.5 -91t122.5 -60q64 -21 101.5 -41t57.5 -51t20 -81q0 -52 -28 -100t-84.5 -78t-137.5 -30q-203 0 -203 174q0 34 10 74h16q-10 -40 -10 -74q0 -80 46.5 -119
t140.5 -39q78 0 131 29t78 73t25 90q0 47 -19.5 75.5t-54.5 46t-98 37.5q-88 29 -127.5 65t-39.5 100q0 48 27.5 94t80.5 76t126 30q196 0 196 -167z" />
    <glyph glyph-name="T" unicode="T" horiz-adv-x="568" 
d="M402 696l-173 -696h-16l173 696h-271l4 16h558l-4 -16h-271z" />
    <glyph glyph-name="U" unicode="U" horiz-adv-x="670" 
d="M463 52q-72 -62 -180 -62q-192 0 -192 191q0 45 15 103l107 428h16l-108 -432q-14 -58 -14 -99q0 -88 43.5 -131.5t132.5 -43.5q102 0 170.5 58.5t97.5 175.5l118 472h16l-119 -476q-31 -122 -103 -184z" />
    <glyph glyph-name="V" unicode="V" horiz-adv-x="605" 
d="M228 0l-106 712h16l51 -341l53 -354h1l229 354l220 341h19l-460 -712h-23z" />
    <glyph glyph-name="W" unicode="W" horiz-adv-x="861" 
d="M561 0l-10 339q-4 119 -10 357h-1l-187 -357l-177 -339h-25l-25 712h16l12 -346l12 -349h1l183 351l180 344h27l9 -344l10 -351h1l185 349l183 346h18l-377 -712h-25z" />
    <glyph glyph-name="X" unicode="X" horiz-adv-x="593" 
d="M518 0h-18l-176 353h-1l-351 -353h-23l365 366l-173 346h18l166 -333h1l332 333h22l-345 -346z" />
    <glyph glyph-name="Y" unicode="Y" horiz-adv-x="570" 
d="M230 0h-16l79 318l-172 394h17l75 -171l90 -206h1l197 211l155 166h21l-368 -394z" />
    <glyph glyph-name="Z" unicode="Z" horiz-adv-x="547" 
d="M-24 17v-1h495l-4 -16h-513l6 24l640 671v1h-468l4 16h486l-6 -24z" />
    <glyph glyph-name="bracketleft" unicode="[" horiz-adv-x="238" 
d="M213 725l-213 -857h122l-4 -16h-138l221 889h138l-4 -16h-122z" />
    <glyph glyph-name="backslash" unicode="\" horiz-adv-x="395" 
d="M258 -89h-16l-90 834h16z" />
    <glyph glyph-name="bracketright" unicode="]" horiz-adv-x="238" 
d="M46 -132l213 857h-122l4 16h138l-221 -889h-138l4 16h122z" />
    <glyph glyph-name="asciicircum" unicode="^" horiz-adv-x="384" 
d="M351 371l-158 325h-2l-158 -325h-18l166 341h22l166 -341h-18z" />
    <glyph glyph-name="underscore" unicode="_" 
d="M-80 -66l4 16h500l-4 -16h-500z" />
    <glyph glyph-name="grave" unicode="`" horiz-adv-x="216" 
d="M246 574h-15l-66 138h19z" />
    <glyph glyph-name="a" unicode="a" horiz-adv-x="494" 
d="M395 481.5q40 -36.5 40 -107.5q0 -26 -10 -66l-50 -199q-7 -27 -12 -58.5t-6 -50.5h-16q2 33 23 118h-1q-32 -61 -84.5 -94.5t-123.5 -33.5q-67 0 -105.5 34t-38.5 92q0 59 45 102.5t150 58.5q76 11 201 23l3 12q9 36 9 62q0 65 -35.5 96.5t-98.5 31.5q-71 0 -118 -40.5
t-62 -106.5h-17q17 74 69.5 118.5t127.5 44.5q70 0 110 -36.5zM207 261q-180 -27 -180 -145q0 -52 34 -81t94 -29q86 0 145.5 53t83.5 149l19 76q-111 -9 -196 -23z" />
    <glyph glyph-name="b" unicode="b" horiz-adv-x="545" 
d="M133 367h1q35 73 89 112t118 39q78 0 120.5 -50.5t42.5 -140.5q0 -76 -30.5 -154.5t-88.5 -130.5t-138 -52q-81 0 -122.5 53.5t-36.5 139.5h-1q-8 -42 -29 -126l-14 -57h-16l178 712h16l-54 -216q-24 -94 -35 -129zM211.5 450.5q-54.5 -51.5 -83 -126.5t-28.5 -143
q0 -84 38 -129.5t109 -45.5q75 0 130 50t83 124.5t28 146.5q0 83 -38 129t-109 46q-75 0 -129.5 -51.5z" />
    <glyph glyph-name="c" unicode="c" horiz-adv-x="493" 
d="M424.5 473q42.5 -45 42.5 -122q0 -9 -1 -15h-16q1 6 1 15q0 70 -38 110.5t-105 40.5q-78 0 -135 -50.5t-86.5 -125.5t-29.5 -147q0 -83 39.5 -128t115.5 -45q68 0 122.5 41t77.5 110h17q-25 -76 -84 -121.5t-133 -45.5q-83 0 -127 49.5t-44 139.5q0 76 31.5 155
t92.5 131.5t143 52.5q74 0 116.5 -45z" />
    <glyph glyph-name="d" unicode="d" horiz-adv-x="543" 
d="M321 29q-54 -39 -118 -39q-78 0 -120.5 50.5t-42.5 140.5q0 76 30.5 154.5t88.5 130.5t138 52q81 0 122.5 -53.5t36.5 -139.5h1q8 42 29 126l65 261h16l-178 -712h-16l3 12q21 84 35 129h-1q-35 -73 -89 -112zM167 452q-55 -50 -83 -124.5t-28 -146.5q0 -83 38 -129
t109 -46q75 0 129.5 51.5t83 126.5t28.5 143q0 84 -38 129.5t-109 45.5q-75 0 -130 -50z" />
    <glyph glyph-name="e" unicode="e" horiz-adv-x="515" 
d="M56 178q0 -82 39.5 -127t113.5 -45q70 0 126.5 39t81.5 104h17q-27 -73 -88.5 -116t-136.5 -43q-81 0 -125 49.5t-44 138.5q0 77 32.5 156t94.5 131.5t146 52.5q78 0 123 -47t45 -132q0 -37 -13 -80h-403q-9 -43 -9 -81zM161.5 439.5q-65.5 -62.5 -92.5 -164.5h386
q10 30 10 64q0 78 -40.5 120.5t-111.5 42.5q-86 0 -151.5 -62.5z" />
    <glyph glyph-name="f" unicode="f" horiz-adv-x="252" 
d="M350 711l-4 -15q-10 3 -24 3q-83 0 -111 -109l-20 -82h107l-4 -16h-107l-123 -492h-16l123 492h-97l4 16h97l21 86q15 60 47 90.5t79 30.5q16 0 28 -4z" />
    <glyph glyph-name="g" unicode="g" horiz-adv-x="545" 
d="M420.5 470q40.5 -48 38.5 -138h1q11 56 34 148l7 28h16l-120 -481q-54 -216 -240 -216q-76 0 -120 33.5t-44 93.5q0 15 3 30h16q-3 -17 -3 -30q0 -53 39 -82t109 -29q174 0 225 204q22 88 35 129h-1q-33 -73 -88 -113.5t-122 -40.5q-79 0 -120.5 50t-41.5 142
q0 72 30.5 146.5t90 124t141.5 49.5q74 0 114.5 -48zM173 454.5q-56 -47.5 -84.5 -118.5t-28.5 -138q0 -85 37 -130.5t109 -45.5q75 0 130 50.5t83 123t28 135.5q0 81 -36.5 126t-104.5 45q-77 0 -133 -47.5z" />
    <glyph glyph-name="h" unicode="h" horiz-adv-x="538" 
d="M440 482q37 -36 37 -104q0 -34 -12 -81l-74 -297h-16l75 301q11 46 11 77q0 61 -32.5 92.5t-92.5 31.5q-47 0 -91 -23.5t-76.5 -65.5t-45.5 -95l-79 -318h-16l177 712h16l-50 -204q-19 -76 -33 -119h1q34 62 87 95.5t111 33.5q66 0 103 -36z" />
    <glyph glyph-name="i" unicode="i" horiz-adv-x="198" 
d="M28 0l126 508h16l-126 -508h-16zM186 635l19 77h16l-19 -77h-16z" />
    <glyph glyph-name="j" unicode="j" horiz-adv-x="209" 
d="M-11 -155.5q-35 -31.5 -87 -31.5q-12 0 -20 3l4 15q6 -2 16 -2q47 0 77.5 28t48.5 99l137 552h16l-138 -556q-19 -76 -54 -107.5zM197 635l19 77h16l-19 -77h-16z" />
    <glyph glyph-name="k" unicode="k" horiz-adv-x="439" 
d="M380 0h-21l-247 271h-1l-67 -271h-16l177 712h16l-107 -430h1l334 226h28l-346 -234z" />
    <glyph glyph-name="l" unicode="l" horiz-adv-x="198" 
d="M28 0l177 712h16l-177 -712h-16z" />
    <glyph glyph-name="m" unicode="m" horiz-adv-x="810" 
d="M718.5 485.5q32.5 -32.5 32.5 -96.5q0 -38 -12 -84l-76 -305h-16l77 309q11 47 11 80q0 113 -109 113q-65 0 -118.5 -48t-72.5 -125l-82 -329h-16l82 330q8 34 8 61q0 53 -28 82t-81 29q-66 0 -121 -52t-77 -141l-77 -309h-16l127 508h16q-16 -62 -32 -117h1
q29 59 75.5 93t103.5 34q58 0 90.5 -33.5t32.5 -93.5l-1 -11q28 65 77 101.5t109 36.5t92.5 -32.5z" />
    <glyph glyph-name="n" unicode="n" horiz-adv-x="537" 
d="M439 482q37 -36 37 -104q0 -34 -12 -81l-74 -297h-16l75 301q11 46 11 77q0 61 -32.5 92.5t-92.5 31.5q-47 0 -91 -23.5t-76.5 -65.5t-45.5 -95l-79 -318h-16l127 508h16q-19 -76 -33 -119h1q34 62 87 95.5t111 33.5q66 0 103 -36z" />
    <glyph glyph-name="o" unicode="o" horiz-adv-x="528" 
d="M436.5 464.5q47.5 -53.5 47.5 -148.5q0 -74 -30.5 -150t-90 -126t-140.5 -50q-87 0 -134 53t-47 148q0 75 30.5 150.5t90 126t140.5 50.5q86 0 133.5 -53.5zM170.5 454q-55.5 -48 -84 -120.5t-28.5 -142.5q0 -88 42.5 -136.5t122.5 -48.5q77 0 132.5 48t84 120t28.5 142
q0 88 -42.5 137t-122.5 49q-77 0 -132.5 -48z" />
    <glyph glyph-name="p" unicode="p" horiz-adv-x="545" 
d="M223 479q54 39 118 39q78 0 120.5 -50.5t42.5 -140.5q0 -76 -30.5 -154.5t-88.5 -130.5t-138 -52q-81 0 -122.5 53.5t-36.5 139.5h-1q-8 -42 -29 -126l-60 -242h-16l173 693h16l-3 -12q-21 -84 -35 -129h1q35 73 89 112zM377 56q55 50 83 124.5t28 146.5q0 83 -38 129
t-109 46q-75 0 -129.5 -51.5t-83 -126.5t-28.5 -143q0 -84 38 -129.5t109 -45.5q75 0 130 50z" />
    <glyph glyph-name="q" unicode="q" horiz-adv-x="543" 
d="M321 29q-54 -39 -118 -39q-78 0 -120.5 50.5t-42.5 140.5q0 76 30.5 154.5t88.5 130.5t138 52q81 0 122.5 -53.5t36.5 -139.5h1q8 42 29 126l14 57h16l-173 -693h-16l49 197q21 84 35 129h-1q-35 -73 -89 -112zM167 452q-55 -50 -83 -124.5t-28 -146.5q0 -83 38 -129
t109 -46q75 0 129.5 51.5t83 126.5t28.5 143q0 84 -38 129.5t-109 45.5q-75 0 -130 -50z" />
    <glyph glyph-name="r" unicode="r" horiz-adv-x="319" 
d="M368 508l-4 -16q-14 2 -27 2q-77 0 -136 -51t-84 -150l-73 -293h-16l127 508h16q-21 -84 -37 -132h1q71 134 206 134q13 0 27 -2z" />
    <glyph glyph-name="s" unicode="s" horiz-adv-x="447" 
d="M375.5 485q40.5 -33 40.5 -91q0 -25 -7 -50h-16q7 25 7 50q0 52 -35.5 80t-103.5 28q-49 0 -84 -18t-53.5 -47t-18.5 -63q0 -42 26.5 -63t89.5 -40q80 -23 114 -50.5t34 -79.5q0 -41 -22 -75.5t-65 -55t-101 -20.5q-80 0 -122 34t-42 97q0 26 7 53h16q-7 -27 -7 -53
q0 -56 37 -85.5t111 -29.5q54 0 93 18.5t59 49.5t20 67q0 46 -31 69.5t-108 46.5q-65 19 -95 44t-30 73q0 38 20.5 71t59.5 53t92 20q74 0 114.5 -33z" />
    <glyph glyph-name="t" unicode="t" horiz-adv-x="270" 
d="M85 65q0 -27 14 -39t44 -12q18 0 36 4l-4 -17q-12 -3 -32 -3q-74 0 -74 67q0 22 8 53l94 374h-98l4 16h98l29 117h16l-29 -117h105l-4 -16h-105l-95 -378q-7 -28 -7 -49z" />
    <glyph glyph-name="u" unicode="u" horiz-adv-x="537" 
d="M98 26q-37 36 -37 104q0 35 12 81l74 297h16l-75 -301q-11 -46 -11 -77q0 -61 32.5 -92.5t92.5 -31.5q47 0 91 23.5t76.5 65.5t45.5 95l79 318h16l-127 -508h-16l27 107h-1q-33 -55 -84.5 -86t-107.5 -31q-66 0 -103 36z" />
    <glyph glyph-name="v" unicode="v" horiz-adv-x="431" 
d="M140 0l-75 508h16l35 -239q21 -148 38 -254h1l164 254l155 239h19l-329 -508h-24z" />
    <glyph glyph-name="w" unicode="w" horiz-adv-x="746" 
d="M477 0l-23 264l-3 31q-12 137 -17 198h-2q-23 -38 -67 -114l-68 -115l-154 -264h-26l-44 508h16l22 -247l21 -245h2l146 250l142 242h26l22 -243q14 -166 22 -249h2l143 245l144 247h18l-296 -508h-26z" />
    <glyph glyph-name="x" unicode="x" horiz-adv-x="440" 
d="M373 0h-18l-133 251h-1l-257 -251h-23l271 265l-128 243h18l122 -231h1l234 231h23l-248 -245z" />
    <glyph glyph-name="y" unicode="y" horiz-adv-x="431" 
d="M70 -120q-35 -39 -64.5 -54t-66.5 -15q-28 0 -43 7l4 16q14 -7 39 -7q32 0 59.5 13.5t60.5 51t80 108.5l-74 508h16l71 -486h1l320 486h19l-338 -514q-49 -75 -84 -114z" />
    <glyph glyph-name="z" unicode="z" horiz-adv-x="441" 
d="M-21 18v-2h383l-4 -16h-401l6 24l489 466v2h-362l4 16h381l-6 -24z" />
    <glyph glyph-name="braceleft" unicode="{" horiz-adv-x="279" 
d="M267 695.5q-39 -29.5 -55 -95.5l-47 -190q-12 -46 -34.5 -71t-65.5 -38l-1 -2q25 -13 36.5 -32t11.5 -49q0 -23 -7 -50l-40 -159q-8 -32 -8 -54q0 -45 25.5 -66t80.5 -21l-4 -16h-2q-58 0 -87 25t-29 78q0 25 9 58l40 159q6 27 6 46q0 28 -11 44.5t-36 27.5l5 22
q42 13 63 35t33 67l47 190q18 71 62 104t117 33h4l-4 -16q-70 0 -109 -29.5z" />
    <glyph glyph-name="bar" unicode="|" horiz-adv-x="236" 
d="M110 -205v937h16v-937h-16z" />
    <glyph glyph-name="braceright" unicode="}" horiz-adv-x="279" 
d="M33 -102.5q39 29.5 55 95.5l47 190q12 46 34.5 71t65.5 38l1 2q-25 13 -36.5 32t-11.5 49q0 23 7 50l40 159q8 32 8 54q0 45 -25.5 66t-80.5 21l4 16h2q58 0 87 -25t29 -78q0 -25 -9 -58l-40 -159q-6 -27 -6 -46q0 -28 11 -44.5t36 -27.5l-5 -22q-42 -13 -63 -35t-33 -67
l-47 -190q-18 -71 -62 -104t-117 -33h-4l4 16q70 0 109 29.5z" />
    <glyph glyph-name="asciitilde" unicode="~" horiz-adv-x="566" 
d="M246.5 376q26.5 -18 57.5 -53q28 -33 52.5 -50.5t62.5 -17.5q49 0 86.5 34.5t51.5 91.5h16q-16 -66 -58 -104t-96 -38q-42 0 -68.5 18t-57.5 53q-28 33 -52.5 50.5t-62.5 17.5q-49 0 -86 -34.5t-51 -91.5h-16q16 66 57 104t96 38q42 0 68.5 -18z" />
    <glyph glyph-name="uni00A0" unicode="&#xa0;" horiz-adv-x="230" 
 />
    <glyph glyph-name="exclamdown" unicode="&#xa1;" horiz-adv-x="202" 
d="M173 508l-17 -69h-18l17 69h18zM135 372l-139 -576h-18l147 576h10z" />
    <glyph glyph-name="cent" unicode="&#xa2;" 
d="M453.5 544q35.5 -44 35.5 -114q0 -9 -1 -15h-16q1 6 1 15q0 64 -32 103.5t-90 46.5l-123 -495h6q68 0 122.5 41t77.5 110h17q-25 -76 -84 -121.5t-133 -45.5h-10l-22 -87h-16l22 88q-71 8 -108 57t-37 131q0 76 31.5 155t92.5 131.5t143 52.5h9l22 87h16l-22 -88
q63 -8 98.5 -52zM330 581q-78 0 -135 -50.5t-86.5 -125.5t-29.5 -147q0 -77 33.5 -121t99.5 -51l123 495h-5z" />
    <glyph glyph-name="sterling" unicode="&#xa3;" 
d="M489.5 648.5q35.5 -35.5 35.5 -101.5q0 -28 -7 -57h-16q7 29 7 57q0 59 -31 90t-91 31q-64 0 -109 -41.5t-65 -120.5l-43 -174h135l-4 -16h-135l-40 -158q-17 -65 -46 -99.5t-64 -44.5v-1q42 3 131 3h254l-4 -16h-436l4 16q53 0 90.5 37t55.5 109l39 154h-111l4 16h111
l44 178q21 84 70.5 129t118.5 45q67 0 102.5 -35.5z" />
    <glyph glyph-name="currency" unicode="&#xa4;" 
d="M396 143l79 -83l-12 -11l-78 83q-54 -49 -135 -49t-135 49l-78 -83l-12 11l79 83q-52 57 -52 148t52 148l-79 83l12 11l78 -83q54 49 135 49t135 -49l78 83l12 -11l-79 -83q52 -57 52 -148t-52 -148zM382 151.5q50 52.5 50 139.5t-50 139.5t-132 52.5t-132 -52.5
t-50 -139.5t50 -139.5t132 -52.5t132 52.5z" />
    <glyph glyph-name="yen" unicode="&#xa5;" 
d="M470 344l-4 -16h-190l-22 -90h190l-4 -16h-190l-55 -222h-16l55 222h-190l4 16h190l22 90h-190l4 16h179l-143 330h17l54 -123l89 -206h1l196 210l112 119h21l-309 -330h179z" />
    <glyph glyph-name="brokenbar" unicode="&#xa6;" horiz-adv-x="236" 
d="M110 382v350h16v-350h-16zM110 -205v350h16v-350h-16z" />
    <glyph glyph-name="section" unicode="&#xa7;" horiz-adv-x="489" 
d="M468 602q0 -18 -4 -37h-16q4 19 4 37q0 53 -28 78.5t-87 25.5q-44 0 -76 -18.5t-48.5 -47t-16.5 -57.5q0 -27 10.5 -46.5t31.5 -38.5t69 -55q69 -53 94.5 -89t25.5 -77q0 -44 -32 -86.5t-97 -75.5v-1q18 -20 26 -42t8 -50q0 -39 -20 -76.5t-59 -62t-94 -24.5
q-136 0 -136 120q0 22 7 49h16q-7 -27 -7 -49q0 -53 29 -78.5t91 -25.5q50 0 86 22t53.5 56t17.5 69q0 32 -11.5 55t-34 43.5t-69.5 56.5q-65 50 -89 82.5t-24 75.5q0 45 31 87t95 77v1q-18 18 -26 37.5t-8 45.5q0 33 18.5 65t54 53t84.5 21q131 0 131 -120zM104 335
q0 -39 23 -69.5t84 -76.5q56 -44 77 -63q60 30 91.5 70.5t31.5 80.5q0 38 -24 71.5t-90 82.5q-47 34 -72 58q-121 -71 -121 -154z" />
    <glyph glyph-name="dieresis" unicode="&#xa8;" horiz-adv-x="301" 
d="M146 635l19 77h16l-19 -77h-16zM330 635l19 77h16l-19 -77h-16z" />
    <glyph glyph-name="copyright" unicode="&#xa9;" horiz-adv-x="822" 
d="M597 676q81 -46 125.5 -129t44.5 -191t-44.5 -191t-125.5 -129t-186 -46t-186 46t-125.5 129t-44.5 191t44.5 191t125.5 129t186 46t186 -46zM233 662.5q-77 -43.5 -119.5 -123t-42.5 -183.5t42.5 -183.5t119.5 -123t178 -43.5t178 43.5t119.5 123t42.5 183.5
t-42.5 183.5t-119.5 123t-178 43.5t-178 -43.5zM540 564q48 -48 53 -120h-16q-6 65 -49 108.5t-116 43.5q-89 0 -140.5 -65t-51.5 -177q0 -110 50.5 -174t136.5 -64q74 0 120 43t53 111h16q-8 -76 -58.5 -123t-130.5 -47q-61 0 -107 31t-71 88.5t-25 134.5q0 78 25.5 136.5
t72.5 90t110 31.5q80 0 128 -48z" />
    <glyph glyph-name="ordfeminine" unicode="&#xaa;" horiz-adv-x="358" 
d="M349.5 667q29.5 -26 29.5 -76q0 -19 -7 -46l-34 -137q-12 -52 -13 -78h-16q1 28 15 77h-1q-48 -84 -146 -84q-49 0 -77.5 24t-28.5 65q0 94 142 114q63 10 142 15l2 8q6 24 6 42q0 44 -25 65t-70 21q-50 0 -83 -27t-43 -71h-17q11 52 49.5 83t93.5 31q52 0 81.5 -26z
M215 510q-128 -19 -128 -97q0 -35 24 -54.5t67 -19.5q60 0 102.5 35.5t58.5 101.5l12 49q-59 -4 -136 -15z" />
    <glyph glyph-name="guillemotleft" unicode="&#xab;" horiz-adv-x="360" 
d="M255 54h-17l-65 200l162 200h20l-164 -203zM137 54h-17l-65 200l162 200h20l-164 -203z" />
    <glyph glyph-name="logicalnot" unicode="&#xac;" horiz-adv-x="566" 
d="M475 159v260h-400v16h416v-276h-16z" />
    <glyph glyph-name="uni00AD" unicode="&#xad;" horiz-adv-x="274" 
d="M37 284l4 16h214l-4 -16h-214z" />
    <glyph glyph-name="registered" unicode="&#xae;" horiz-adv-x="576" 
d="M469 690.5q55 -31.5 85.5 -88t30.5 -130.5t-30.5 -130.5t-85.5 -88t-127 -31.5t-127 31.5t-85.5 88t-30.5 130.5t30.5 130.5t85.5 88t127 31.5t127 -31.5zM223.5 676.5q-51.5 -29.5 -80 -82.5t-28.5 -122t28.5 -122t80 -82.5t118.5 -29.5t118.5 29.5t80 82.5t28.5 122
t-28.5 122t-80 82.5t-118.5 29.5t-118.5 -29.5zM413 612.5q26 -22.5 26 -62.5q0 -32 -18 -53t-48 -26v-1q18 -5 28.5 -17t20.5 -41l35 -97h-17l-33 92q-11 32 -25.5 44t-43.5 12h-77v-148h-16v320h90q52 0 78 -22.5zM261 479h77q42 0 63.5 20t21.5 51q0 33 -21.5 51
t-66.5 18h-74v-140z" />
    <glyph glyph-name="macron" unicode="&#xaf;" horiz-adv-x="327" 
d="M149 648l4 16h226l-4 -16h-226z" />
    <glyph glyph-name="degree" unicode="&#xb0;" horiz-adv-x="290" 
d="M306.5 692.5q29.5 -29.5 29.5 -70.5t-29.5 -70.5t-70.5 -29.5t-70.5 29.5t-29.5 70.5t29.5 70.5t70.5 29.5t70.5 -29.5zM177 681.5q-25 -24.5 -25 -59.5q0 -34 25 -59t59 -25q35 0 59.5 25t24.5 59q0 35 -24.5 59.5t-59.5 24.5q-34 0 -59 -24.5z" />
    <glyph glyph-name="plusminus" unicode="&#xb1;" horiz-adv-x="566" 
d="M491 315v-16h-200v-200h-16v200h-200v16h200v200h16v-200h200zM75 0v16h416v-16h-416z" />
    <glyph glyph-name="twosuperior" unicode="&#xb2;" horiz-adv-x="380" 
d="M406 778.5q32 -30.5 32 -80.5q0 -37 -16.5 -65.5t-54.5 -54.5t-105 -56q-64 -28 -100.5 -55t-54.5 -55t-28 -66h286l-4 -16h-301q14 74 57 120t139 87q65 28 100 52t50 49.5t15 58.5q0 45 -27 70.5t-75 25.5q-55 0 -93.5 -31.5t-56.5 -86.5h-17q18 63 62 98.5t105 35.5
q55 0 87 -30.5z" />
    <glyph glyph-name="threesuperior" unicode="&#xb3;" horiz-adv-x="378" 
d="M397 779q35 -30 35 -80q0 -44 -32 -80.5t-93 -48.5v-1q78 -23 78 -102q0 -34 -20.5 -67t-60.5 -55t-93 -22q-63 0 -96.5 28t-33.5 77q0 15 4 30h16q-3 -15 -3 -29q0 -43 29 -66.5t84 -23.5q49 0 84.5 19.5t54 49t18.5 59.5q0 46 -29.5 71t-84.5 25h-31l4 16h29
q54 0 90 18.5t53 46t17 55.5q0 43 -31 68.5t-85 25.5q-52 0 -90.5 -30.5t-52.5 -86.5h-16q15 62 58 97.5t101 35.5q62 0 97 -30z" />
    <glyph glyph-name="acute" unicode="&#xb4;" horiz-adv-x="215" 
d="M130 574l126 138h23l-130 -138h-19z" />
    <glyph glyph-name="mu" unicode="&#xb5;" horiz-adv-x="547" 
d="M405 48q0 -19 8.5 -27t27.5 -8q13 0 25 4l-4 -17q-10 -3 -21 -3q-52 0 -52 51q0 24 15 71h-1q-28 -59 -80.5 -94t-111.5 -35q-67 0 -102.5 33.5t-36.5 101.5h-1q-13 -66 -28 -125l-46 -185h-16l173 693h16l-75 -301q-11 -46 -11 -77q0 -61 33 -92.5t94 -31.5
q44 0 87 22.5t75.5 65.5t46.5 100l78 314h16l-99 -399q-10 -39 -10 -61z" />
    <glyph glyph-name="paragraph" unicode="&#xb6;" horiz-adv-x="495" 
d="M505 696l-203 -816h-16l203 816h-93l-203 -816h-16l112 452q-87 4 -133 48.5t-46 128.5q0 47 22.5 94.5t66.5 78t105 30.5h285l-4 -16h-80z" />
    <glyph glyph-name="periodcentered" unicode="&#xb7;" horiz-adv-x="136" 
d="M63 270l18 72h18l-18 -72h-18z" />
    <glyph glyph-name="cedilla" unicode="&#xb8;" horiz-adv-x="274" 
d="M59 -66q33 0 50.5 -16t17.5 -45q0 -34 -27 -56t-70 -22q-49 0 -88 23l8 14q33 -21 80 -21q36 0 58.5 17t22.5 45q0 22 -13 34t-39 12q-17 0 -34 -5l-10 11l70 75h22l-64 -68q8 2 16 2z" />
    <glyph glyph-name="onesuperior" unicode="&#xb9;" horiz-adv-x="216" 
d="M135 330l106 424h-1q-32 -46 -116 -46l4 15q51 0 80 18t46 61h15l-118 -472h-16z" />
    <glyph glyph-name="ordmasculine" unicode="&#xba;" horiz-adv-x="381" 
d="M378.5 655q34.5 -38 34.5 -106q0 -52 -22 -104.5t-64.5 -87t-100.5 -34.5q-64 0 -98.5 37.5t-34.5 105.5q0 52 22 104.5t64.5 87.5t100.5 35q64 0 98.5 -38zM187 644.5q-39 -32.5 -58.5 -81.5t-19.5 -97q0 -61 30 -94t87 -33q54 0 93 32.5t58.5 81.5t19.5 96
q0 61 -30 94.5t-87 33.5q-54 0 -93 -32.5z" />
    <glyph glyph-name="guillemotright" unicode="&#xbb;" horiz-adv-x="360" 
d="M105 454h17l65 -200l-162 -200h-20l164 203zM223 454h17l65 -200l-162 -200h-20l164 203z" />
    <glyph glyph-name="onequarter" unicode="&#xbc;" horiz-adv-x="584" 
d="M104 270l89 357h-1q-30 -36 -99 -36l4 16q44 0 68.5 15t39.5 52h16l-101 -404h-16zM-30 0l562 674h18l-562 -674h-18zM457 121l-30 -121h-16l30 121h-195l4 19l254 264h24l-67 -267h84l-4 -16h-84zM445 137l16 65l46 182h-1l-157 -164l-81 -83h177z" />
    <glyph glyph-name="onehalf" unicode="&#xbd;" horiz-adv-x="618" 
d="M104 270l89 357h-1q-30 -36 -99 -36l4 16q44 0 68.5 15t39.5 52h16l-101 -404h-16zM-30 0l562 674h18l-562 -674h-18zM559 384.5q28 -26.5 28 -69.5q0 -47 -33 -81t-118 -71q-79 -35 -111 -67.5t-43 -79.5h244l-4 -16h-260q11 64 48 103t120 75q81 36 111 65.5t30 71.5
q0 37 -23.5 58.5t-64.5 21.5q-45 0 -79.5 -27.5t-45.5 -72.5h-17q15 54 52.5 85t89.5 31q48 0 76 -26.5z" />
    <glyph glyph-name="threequarters" unicode="&#xbe;" horiz-adv-x="723" 
d="M330.5 655q30.5 -26 30.5 -69q0 -37 -27.5 -68.5t-79.5 -42.5v-1q66 -20 66 -87q0 -30 -17.5 -58.5t-51.5 -46.5t-80 -18q-55 0 -84 24.5t-29 67.5q0 12 3 24h16q-3 -12 -3 -24q0 -36 25 -56t72 -20q42 0 72 16t45.5 40.5t15.5 50.5q0 39 -25.5 60t-72.5 21h-26l4 16h24
q46 0 76.5 15.5t45.5 39t15 47.5q0 36 -26 57.5t-72 21.5t-79 -26t-43 -73h-16q12 56 49 85.5t89 29.5q53 0 83.5 -26zM109 0l562 674h18l-562 -674h-18zM596 121l-30 -121h-16l30 121h-195l4 19l254 264h24l-67 -267h84l-4 -16h-84zM584 137l16 65l46 182h-1l-157 -164
l-81 -83h177z" />
    <glyph glyph-name="questiondown" unicode="&#xbf;" horiz-adv-x="432" 
d="M331 508l-17 -69h-18l17 69h18zM13.5 -172q-45.5 42 -45.5 111q0 39 13.5 71t48 66.5t98.5 78.5q51 35 77.5 60.5t43.5 60.5t32 95h13q-16 -66 -31.5 -101t-43 -62t-83.5 -66q-61 -42 -94 -75t-45.5 -62.5t-12.5 -65.5q0 -62 41 -99.5t111 -37.5q74 0 129 45t80 128h17
q-27 -91 -86.5 -140t-139.5 -49q-77 0 -122.5 42z" />
    <glyph glyph-name="Agrave" unicode="&#xc0;" horiz-adv-x="634" 
d="M140 266l-178 -266h-19l476 712h22l123 -712h-16l-46 266h-362zM482 380q-36 214 -54 316h-1l-211 -316l-66 -98h349zM482 760l-80 126h20l77 -126h-17z" />
    <glyph glyph-name="Aacute" unicode="&#xc1;" horiz-adv-x="634" 
d="M140 266l-178 -266h-19l476 712h22l123 -712h-16l-46 266h-362zM482 380q-36 214 -54 316h-1l-211 -316l-66 -98h349zM387 760l137 126h24l-140 -126h-21z" />
    <glyph glyph-name="Acircumflex" unicode="&#xc2;" horiz-adv-x="634" 
d="M140 266l-178 -266h-19l476 712h22l123 -712h-16l-46 266h-362zM482 380q-36 214 -54 316h-1l-211 -316l-66 -98h349zM483 886l88 -126h-19l-78 111l-134 -111h-25l152 126h16z" />
    <glyph glyph-name="Atilde" unicode="&#xc3;" horiz-adv-x="634" 
d="M140 266l-178 -266h-19l476 712h22l123 -712h-16l-46 266h-362zM482 380q-36 214 -54 316h-1l-211 -316l-66 -98h349zM581 816q-23 -21 -52 -21q-21 0 -36.5 8.5t-34.5 25.5q-19 16 -32 23.5t-31 7.5q-23 0 -41.5 -16.5t-28.5 -48.5h-17q13 39 36 60t52 21
q21 0 36.5 -8.5t34.5 -25.5q19 -16 32 -23.5t31 -7.5q23 0 41.5 16.5t28.5 48.5h17q-13 -39 -36 -60z" />
    <glyph glyph-name="Adieresis" unicode="&#xc4;" horiz-adv-x="634" 
d="M140 266l-178 -266h-19l476 712h22l123 -712h-16l-46 266h-362zM482 380q-36 214 -54 316h-1l-211 -316l-66 -98h349zM348 779l20 77h16l-20 -77h-16zM532 779l20 77h16l-20 -77h-16z" />
    <glyph glyph-name="Aring" unicode="&#xc5;" horiz-adv-x="634" 
d="M140 266l-178 -266h-19l476 712h22l123 -712h-16l-46 266h-362zM482 380q-36 214 -54 316h-1l-211 -316l-66 -98h349zM515.5 910.5q24.5 -24.5 24.5 -59.5t-24.5 -59.5t-59.5 -24.5t-59.5 24.5t-24.5 59.5t25 59.5t59 24.5q35 0 59.5 -24.5zM408 899.5
q-20 -19.5 -20 -48.5q0 -28 20 -48t48 -20q29 0 48.5 20t19.5 48q0 29 -19.5 48.5t-48.5 19.5q-28 0 -48 -19.5z" />
    <glyph glyph-name="AE" unicode="&#xc6;" horiz-adv-x="905" 
d="M504 374h340l-4 -16h-338l-30 -342h314l-4 -16h-328l26 285h-305l-224 -285h-20l560 712h454l-4 -16h-408zM498 696l-310 -395h294l35 395h-19z" />
    <glyph glyph-name="Ccedilla" unicode="&#xc7;" horiz-adv-x="661" 
d="M598.5 660q55.5 -62 55.5 -159q0 -12 -2 -36h-16q2 24 2 36q0 91 -51 148t-148 57q-110 0 -191.5 -68t-124 -171t-42.5 -206q0 -117 57.5 -186t161.5 -69q99 0 176 59t109 152h17q-34 -98 -112 -160.5t-178 -66.5l-55 -58q8 2 16 2q33 0 50.5 -16t17.5 -45q0 -34 -27 -56
t-70 -22q-49 0 -88 23l8 14q33 -21 80 -21q36 0 58.5 17t22.5 45q0 22 -13 34t-39 12q-17 0 -34 -5l-10 11l61 65q-107 4 -166 77t-59 195q0 107 44.5 213.5t129.5 176.5t199 70q105 0 160.5 -62z" />
    <glyph glyph-name="Egrave" unicode="&#xc8;" horiz-adv-x="586" 
d="M231 696l-80 -322h374l-4 -16h-374l-85 -342h405l-4 -16h-421l177 712h407l-4 -16h-391zM464 760l-80 126h20l77 -126h-17z" />
    <glyph glyph-name="Eacute" unicode="&#xc9;" horiz-adv-x="586" 
d="M231 696l-80 -322h374l-4 -16h-374l-85 -342h405l-4 -16h-421l177 712h407l-4 -16h-391zM369 760l137 126h24l-140 -126h-21z" />
    <glyph glyph-name="Ecircumflex" unicode="&#xca;" horiz-adv-x="586" 
d="M231 696l-80 -322h374l-4 -16h-374l-85 -342h405l-4 -16h-421l177 712h407l-4 -16h-391zM465 886l88 -126h-19l-78 111l-134 -111h-25l152 126h16z" />
    <glyph glyph-name="Edieresis" unicode="&#xcb;" horiz-adv-x="586" 
d="M231 696l-80 -322h374l-4 -16h-374l-85 -342h405l-4 -16h-421l177 712h407l-4 -16h-391zM330 779l20 77h16l-20 -77h-16zM514 779l20 77h16l-20 -77h-16z" />
    <glyph glyph-name="Igrave" unicode="&#xcc;" horiz-adv-x="226" 
d="M42 0l177 712h16l-177 -712h-16zM278 760l-80 126h20l77 -126h-17z" />
    <glyph glyph-name="Iacute" unicode="&#xcd;" horiz-adv-x="226" 
d="M42 0l177 712h16l-177 -712h-16zM183 760l137 126h24l-140 -126h-21z" />
    <glyph glyph-name="Icircumflex" unicode="&#xce;" horiz-adv-x="226" 
d="M42 0l177 712h16l-177 -712h-16zM279 886l88 -126h-19l-78 111l-134 -111h-25l152 126h16z" />
    <glyph glyph-name="Idieresis" unicode="&#xcf;" horiz-adv-x="226" 
d="M42 0l177 712h16l-177 -712h-16zM144 779l20 77h16l-20 -77h-16zM328 779l20 77h16l-20 -77h-16z" />
    <glyph glyph-name="Eth" unicode="&#xd0;" horiz-adv-x="708" 
d="M606.5 634q80.5 -78 80.5 -224q0 -99 -46 -193t-141.5 -155.5t-237.5 -61.5h-220l88 352h-61l4 16h60l86 344h152q155 0 235.5 -78zM491.5 75.5q92.5 59.5 136 150t43.5 184.5q0 140 -76 213t-224 73h-140l-82 -328h256l-4 -16h-255l-84 -336h200q137 0 229.5 59.5z" />
    <glyph glyph-name="Ntilde" unicode="&#xd1;" horiz-adv-x="718" 
d="M526 0l-140 333l-154 364h-1l-96 -386l-77 -311h-16l177 712h24l140 -333q26 -60 38 -91q48 -110 115 -273h1l49 193l48 193l77 311h16l-177 -712h-24zM623 816q-23 -21 -52 -21q-21 0 -36.5 8.5t-34.5 25.5q-19 16 -32 23.5t-31 7.5q-23 0 -41.5 -16.5t-28.5 -48.5h-17
q13 39 36 60t52 21q21 0 36.5 -8.5t34.5 -25.5q19 -16 32 -23.5t31 -7.5q23 0 41.5 16.5t28.5 48.5h17q-13 -39 -36 -60z" />
    <glyph glyph-name="Ograve" unicode="&#xd2;" horiz-adv-x="702" 
d="M569.5 686.5q57.5 -35.5 87 -99.5t29.5 -148q0 -104 -43.5 -208t-127 -172.5t-195.5 -68.5q-79 0 -136.5 35.5t-87 99.5t-29.5 148q0 104 43.5 208t127 172.5t195.5 68.5q79 0 136.5 -35.5zM245.5 640q-79.5 -66 -121 -167t-41.5 -200q0 -121 62.5 -194t174.5 -73
q108 0 187.5 66t121 167t41.5 200q0 121 -62.5 194t-174.5 73q-108 0 -187.5 -66zM492 760l-80 126h20l77 -126h-17z" />
    <glyph glyph-name="Oacute" unicode="&#xd3;" horiz-adv-x="702" 
d="M569.5 686.5q57.5 -35.5 87 -99.5t29.5 -148q0 -104 -43.5 -208t-127 -172.5t-195.5 -68.5q-79 0 -136.5 35.5t-87 99.5t-29.5 148q0 104 43.5 208t127 172.5t195.5 68.5q79 0 136.5 -35.5zM245.5 640q-79.5 -66 -121 -167t-41.5 -200q0 -121 62.5 -194t174.5 -73
q108 0 187.5 66t121 167t41.5 200q0 121 -62.5 194t-174.5 73q-108 0 -187.5 -66zM397 760l137 126h24l-140 -126h-21z" />
    <glyph glyph-name="Ocircumflex" unicode="&#xd4;" horiz-adv-x="702" 
d="M569.5 686.5q57.5 -35.5 87 -99.5t29.5 -148q0 -104 -43.5 -208t-127 -172.5t-195.5 -68.5q-79 0 -136.5 35.5t-87 99.5t-29.5 148q0 104 43.5 208t127 172.5t195.5 68.5q79 0 136.5 -35.5zM245.5 640q-79.5 -66 -121 -167t-41.5 -200q0 -121 62.5 -194t174.5 -73
q108 0 187.5 66t121 167t41.5 200q0 121 -62.5 194t-174.5 73q-108 0 -187.5 -66zM493 886l88 -126h-19l-78 111l-134 -111h-25l152 126h16z" />
    <glyph glyph-name="Otilde" unicode="&#xd5;" horiz-adv-x="702" 
d="M569.5 686.5q57.5 -35.5 87 -99.5t29.5 -148q0 -104 -43.5 -208t-127 -172.5t-195.5 -68.5q-79 0 -136.5 35.5t-87 99.5t-29.5 148q0 104 43.5 208t127 172.5t195.5 68.5q79 0 136.5 -35.5zM245.5 640q-79.5 -66 -121 -167t-41.5 -200q0 -121 62.5 -194t174.5 -73
q108 0 187.5 66t121 167t41.5 200q0 121 -62.5 194t-174.5 73q-108 0 -187.5 -66zM591 816q-23 -21 -52 -21q-21 0 -36.5 8.5t-34.5 25.5q-19 16 -32 23.5t-31 7.5q-23 0 -41.5 -16.5t-28.5 -48.5h-17q13 39 36 60t52 21q21 0 36.5 -8.5t34.5 -25.5q19 -16 32 -23.5t31 -7.5
q23 0 41.5 16.5t28.5 48.5h17q-13 -39 -36 -60z" />
    <glyph glyph-name="Odieresis" unicode="&#xd6;" horiz-adv-x="702" 
d="M569.5 686.5q57.5 -35.5 87 -99.5t29.5 -148q0 -104 -43.5 -208t-127 -172.5t-195.5 -68.5q-79 0 -136.5 35.5t-87 99.5t-29.5 148q0 104 43.5 208t127 172.5t195.5 68.5q79 0 136.5 -35.5zM245.5 640q-79.5 -66 -121 -167t-41.5 -200q0 -121 62.5 -194t174.5 -73
q108 0 187.5 66t121 167t41.5 200q0 121 -62.5 194t-174.5 73q-108 0 -187.5 -66zM358 779l20 77h16l-20 -77h-16zM542 779l20 77h16l-20 -77h-16z" />
    <glyph glyph-name="multiply" unicode="&#xd7;" horiz-adv-x="566" 
d="M294 306l210 -210l-11 -11l-210 210l-209 -209l-11 11l209 209l-209 209l11 11l209 -209l210 210l11 -11z" />
    <glyph glyph-name="Oslash" unicode="&#xd8;" horiz-adv-x="702" 
d="M686 439q0 -104 -43.5 -208t-127 -172.5t-195.5 -68.5q-67 0 -118.5 26t-84.5 73l-71 -70l-11 11l74 73q-42 69 -42 170q0 104 43.5 208t127 172.5t195.5 68.5q67 0 118.5 -26t84.5 -73l71 70l11 -11l-74 -73q42 -69 42 -170zM120 114l504 497q-30 46 -78.5 70.5
t-112.5 24.5q-108 0 -187.5 -66t-121 -167t-41.5 -200q0 -93 37 -159zM633 598l-504 -497q31 -46 79 -70.5t112 -24.5q108 0 187.5 66t121 167t41.5 200q0 95 -37 159z" />
    <glyph glyph-name="Ugrave" unicode="&#xd9;" horiz-adv-x="670" 
d="M463 52q-72 -62 -180 -62q-192 0 -192 191q0 45 15 103l107 428h16l-108 -432q-14 -58 -14 -99q0 -88 43.5 -131.5t132.5 -43.5q102 0 170.5 58.5t97.5 175.5l118 472h16l-119 -476q-31 -122 -103 -184zM490 760l-80 126h20l77 -126h-17z" />
    <glyph glyph-name="Uacute" unicode="&#xda;" horiz-adv-x="670" 
d="M463 52q-72 -62 -180 -62q-192 0 -192 191q0 45 15 103l107 428h16l-108 -432q-14 -58 -14 -99q0 -88 43.5 -131.5t132.5 -43.5q102 0 170.5 58.5t97.5 175.5l118 472h16l-119 -476q-31 -122 -103 -184zM395 760l137 126h24l-140 -126h-21z" />
    <glyph glyph-name="Ucircumflex" unicode="&#xdb;" horiz-adv-x="670" 
d="M463 52q-72 -62 -180 -62q-192 0 -192 191q0 45 15 103l107 428h16l-108 -432q-14 -58 -14 -99q0 -88 43.5 -131.5t132.5 -43.5q102 0 170.5 58.5t97.5 175.5l118 472h16l-119 -476q-31 -122 -103 -184zM491 886l88 -126h-19l-78 111l-134 -111h-25l152 126h16z" />
    <glyph glyph-name="Udieresis" unicode="&#xdc;" horiz-adv-x="670" 
d="M463 52q-72 -62 -180 -62q-192 0 -192 191q0 45 15 103l107 428h16l-108 -432q-14 -58 -14 -99q0 -88 43.5 -131.5t132.5 -43.5q102 0 170.5 58.5t97.5 175.5l118 472h16l-119 -476q-31 -122 -103 -184zM356 779l20 77h16l-20 -77h-16zM540 779l20 77h16l-20 -77h-16z
" />
    <glyph glyph-name="Yacute" unicode="&#xdd;" horiz-adv-x="570" 
d="M230 0h-16l79 318l-172 394h17l75 -171l90 -206h1l197 211l155 166h21l-368 -394zM345 760l137 126h24l-140 -126h-21z" />
    <glyph glyph-name="Thorn" unicode="&#xde;" horiz-adv-x="576" 
d="M384 557q95 0 142 -45t47 -124q0 -49 -26 -96.5t-79 -79t-130 -31.5h-235l-45 -181h-16l177 712h16l-38 -155h187zM107 197h231q72 0 121.5 29.5t73.5 73.5t24 88q0 72 -42.5 112.5t-130.5 40.5h-191z" />
    <glyph glyph-name="germandbls" unicode="&#xdf;" horiz-adv-x="529" 
d="M485.5 685.5q39.5 -36.5 39.5 -98.5q0 -67 -43 -118.5t-126 -64.5v-1q53 -13 84.5 -54t31.5 -111q0 -60 -30.5 -116t-91.5 -92t-150 -36q-38 0 -70 9l4 16q30 -9 66 -9q84 0 142 33.5t86 86t28 108.5q0 75 -41.5 116.5t-114.5 41.5h-6l4 16q73 0 120.5 26.5t69 66.5
t21.5 82q0 55 -35 87t-100 32q-76 0 -128.5 -51.5t-75.5 -146.5l-126 -508h-16l127 512q25 101 81.5 155.5t137.5 54.5q72 0 111.5 -36.5z" />
    <glyph glyph-name="agrave" unicode="&#xe0;" horiz-adv-x="494" 
d="M395 481.5q40 -36.5 40 -107.5q0 -26 -10 -66l-50 -199q-7 -27 -12 -58.5t-6 -50.5h-16q2 33 23 118h-1q-32 -61 -84.5 -94.5t-123.5 -33.5q-67 0 -105.5 34t-38.5 92q0 59 45 102.5t150 58.5q76 11 201 23l3 12q9 36 9 62q0 65 -35.5 96.5t-98.5 31.5q-71 0 -118 -40.5
t-62 -106.5h-17q17 74 69.5 118.5t127.5 44.5q70 0 110 -36.5zM207 261q-180 -27 -180 -145q0 -52 34 -81t94 -29q86 0 145.5 53t83.5 149l19 76q-111 -9 -196 -23zM355 574h-15l-66 138h19z" />
    <glyph glyph-name="aacute" unicode="&#xe1;" horiz-adv-x="494" 
d="M395 481.5q40 -36.5 40 -107.5q0 -26 -10 -66l-50 -199q-7 -27 -12 -58.5t-6 -50.5h-16q2 33 23 118h-1q-32 -61 -84.5 -94.5t-123.5 -33.5q-67 0 -105.5 34t-38.5 92q0 59 45 102.5t150 58.5q76 11 201 23l3 12q9 36 9 62q0 65 -35.5 96.5t-98.5 31.5q-71 0 -118 -40.5
t-62 -106.5h-17q17 74 69.5 118.5t127.5 44.5q70 0 110 -36.5zM207 261q-180 -27 -180 -145q0 -52 34 -81t94 -29q86 0 145.5 53t83.5 149l19 76q-111 -9 -196 -23zM258 574l126 138h23l-130 -138h-19z" />
    <glyph glyph-name="acircumflex" unicode="&#xe2;" horiz-adv-x="494" 
d="M395 481.5q40 -36.5 40 -107.5q0 -26 -10 -66l-50 -199q-7 -27 -12 -58.5t-6 -50.5h-16q2 33 23 118h-1q-32 -61 -84.5 -94.5t-123.5 -33.5q-67 0 -105.5 34t-38.5 92q0 59 45 102.5t150 58.5q76 11 201 23l3 12q9 36 9 62q0 65 -35.5 96.5t-98.5 31.5q-71 0 -118 -40.5
t-62 -106.5h-17q17 74 69.5 118.5t127.5 44.5q70 0 110 -36.5zM207 261q-180 -27 -180 -145q0 -52 34 -81t94 -29q86 0 145.5 53t83.5 149l19 76q-111 -9 -196 -23zM414 574l-75 123l-136 -123h-24l153 138h16l85 -138h-19z" />
    <glyph glyph-name="atilde" unicode="&#xe3;" horiz-adv-x="494" 
d="M395 481.5q40 -36.5 40 -107.5q0 -26 -10 -66l-50 -199q-7 -27 -12 -58.5t-6 -50.5h-16q2 33 23 118h-1q-32 -61 -84.5 -94.5t-123.5 -33.5q-67 0 -105.5 34t-38.5 92q0 59 45 102.5t150 58.5q76 11 201 23l3 12q9 36 9 62q0 65 -35.5 96.5t-98.5 31.5q-71 0 -118 -40.5
t-62 -106.5h-17q17 74 69.5 118.5t127.5 44.5q70 0 110 -36.5zM207 261q-180 -27 -180 -145q0 -52 34 -81t94 -29q86 0 145.5 53t83.5 149l19 76q-111 -9 -196 -23zM446 642q-23 -21 -52 -21q-21 0 -36.5 8.5t-34.5 25.5q-18 16 -31 23.5t-31 7.5q-23 0 -41.5 -16.5
t-28.5 -48.5h-17q13 39 36 60t52 21q21 0 36.5 -8.5t34.5 -25.5q18 -16 31 -23.5t31 -7.5q23 0 41.5 16.5t28.5 48.5h17q-13 -39 -36 -60z" />
    <glyph glyph-name="adieresis" unicode="&#xe4;" horiz-adv-x="494" 
d="M395 481.5q40 -36.5 40 -107.5q0 -26 -10 -66l-50 -199q-7 -27 -12 -58.5t-6 -50.5h-16q2 33 23 118h-1q-32 -61 -84.5 -94.5t-123.5 -33.5q-67 0 -105.5 34t-38.5 92q0 59 45 102.5t150 58.5q76 11 201 23l3 12q9 36 9 62q0 65 -35.5 96.5t-98.5 31.5q-71 0 -118 -40.5
t-62 -106.5h-17q17 74 69.5 118.5t127.5 44.5q70 0 110 -36.5zM207 261q-180 -27 -180 -145q0 -52 34 -81t94 -29q86 0 145.5 53t83.5 149l19 76q-111 -9 -196 -23zM221 635l19 77h16l-19 -77h-16zM405 635l19 77h16l-19 -77h-16z" />
    <glyph glyph-name="aring" unicode="&#xe5;" horiz-adv-x="494" 
d="M395 481.5q40 -36.5 40 -107.5q0 -26 -10 -66l-50 -199q-7 -27 -12 -58.5t-6 -50.5h-16q2 33 23 118h-1q-32 -61 -84.5 -94.5t-123.5 -33.5q-67 0 -105.5 34t-38.5 92q0 59 45 102.5t150 58.5q76 11 201 23l3 12q9 36 9 62q0 65 -35.5 96.5t-98.5 31.5q-71 0 -118 -40.5
t-62 -106.5h-17q17 74 69.5 118.5t127.5 44.5q70 0 110 -36.5zM207 261q-180 -27 -180 -145q0 -52 34 -81t94 -29q86 0 145.5 53t83.5 149l19 76q-111 -9 -196 -23zM380.5 736.5q24.5 -24.5 24.5 -59.5t-24.5 -59.5t-59.5 -24.5t-59.5 24.5t-24.5 59.5t25 59.5t59 24.5
q35 0 59.5 -24.5zM273 725.5q-20 -19.5 -20 -48.5q0 -28 20 -48t48 -20q29 0 48.5 20t19.5 48q0 29 -19.5 48.5t-48.5 19.5q-28 0 -48 -19.5z" />
    <glyph glyph-name="ae" unicode="&#xe6;" horiz-adv-x="815" 
d="M395 178q0 -81 35 -126.5t99 -45.5t115 39t73 104h17q-24 -73 -80 -116t-125 -43q-71 0 -109 48.5t-39 136.5h-1q-16 -57 -50 -99t-78.5 -64t-90.5 -22q-70 0 -110 33.5t-40 93.5q0 66 54 112t174 46h153l10 40q8 32 8 54q0 68 -33 100.5t-92 32.5q-71 0 -118 -40.5
t-62 -106.5h-17q17 74 69.5 118.5t127.5 44.5q66 0 102.5 -36.5t36.5 -112.5v-3h1q34 69 87 110.5t121 41.5t108 -47t40 -132q0 -37 -13 -80h-364q-9 -43 -9 -81zM493.5 439.5q-60.5 -62.5 -85.5 -164.5h347q10 30 10 64q0 78 -35 120.5t-97 42.5q-79 0 -139.5 -62.5z
M299 62q57 56 79 157l10 40h-149q-114 0 -163 -41.5t-49 -100.5q0 -53 35.5 -82t98.5 -29q81 0 138 56z" />
    <glyph glyph-name="ccedilla" unicode="&#xe7;" horiz-adv-x="493" 
d="M424.5 473q42.5 -45 42.5 -122q0 -9 -1 -15h-16q1 6 1 15q0 70 -38 110.5t-105 40.5q-78 0 -135 -50.5t-86.5 -125.5t-29.5 -147q0 -83 39.5 -128t115.5 -45q68 0 122.5 41t77.5 110h17q-23 -70 -76.5 -115t-121.5 -51l-55 -59q8 2 16 2q33 0 50.5 -16t17.5 -45
q0 -34 -27 -56t-70 -22q-49 0 -88 23l8 14q33 -21 80 -21q36 0 58.5 17t22.5 45q0 22 -13 34t-39 12q-17 0 -34 -5l-10 11l61 65q-82 1 -125 50.5t-43 138.5q0 76 31.5 155t92.5 131.5t143 52.5q74 0 116.5 -45z" />
    <glyph glyph-name="egrave" unicode="&#xe8;" horiz-adv-x="515" 
d="M56 178q0 -82 39.5 -127t113.5 -45q70 0 126.5 39t81.5 104h17q-27 -73 -88.5 -116t-136.5 -43q-81 0 -125 49.5t-44 138.5q0 77 32.5 156t94.5 131.5t146 52.5q78 0 123 -47t45 -132q0 -37 -13 -80h-403q-9 -43 -9 -81zM161.5 439.5q-65.5 -62.5 -92.5 -164.5h386
q10 30 10 64q0 78 -40.5 120.5t-111.5 42.5q-86 0 -151.5 -62.5zM366 574h-15l-66 138h19z" />
    <glyph glyph-name="eacute" unicode="&#xe9;" horiz-adv-x="515" 
d="M56 178q0 -82 39.5 -127t113.5 -45q70 0 126.5 39t81.5 104h17q-27 -73 -88.5 -116t-136.5 -43q-81 0 -125 49.5t-44 138.5q0 77 32.5 156t94.5 131.5t146 52.5q78 0 123 -47t45 -132q0 -37 -13 -80h-403q-9 -43 -9 -81zM161.5 439.5q-65.5 -62.5 -92.5 -164.5h386
q10 30 10 64q0 78 -40.5 120.5t-111.5 42.5q-86 0 -151.5 -62.5zM269 574l126 138h23l-130 -138h-19z" />
    <glyph glyph-name="ecircumflex" unicode="&#xea;" horiz-adv-x="515" 
d="M56 178q0 -82 39.5 -127t113.5 -45q70 0 126.5 39t81.5 104h17q-27 -73 -88.5 -116t-136.5 -43q-81 0 -125 49.5t-44 138.5q0 77 32.5 156t94.5 131.5t146 52.5q78 0 123 -47t45 -132q0 -37 -13 -80h-403q-9 -43 -9 -81zM161.5 439.5q-65.5 -62.5 -92.5 -164.5h386
q10 30 10 64q0 78 -40.5 120.5t-111.5 42.5q-86 0 -151.5 -62.5zM425 574l-75 123l-136 -123h-24l153 138h16l85 -138h-19z" />
    <glyph glyph-name="edieresis" unicode="&#xeb;" horiz-adv-x="515" 
d="M56 178q0 -82 39.5 -127t113.5 -45q70 0 126.5 39t81.5 104h17q-27 -73 -88.5 -116t-136.5 -43q-81 0 -125 49.5t-44 138.5q0 77 32.5 156t94.5 131.5t146 52.5q78 0 123 -47t45 -132q0 -37 -13 -80h-403q-9 -43 -9 -81zM161.5 439.5q-65.5 -62.5 -92.5 -164.5h386
q10 30 10 64q0 78 -40.5 120.5t-111.5 42.5q-86 0 -151.5 -62.5zM232 635l19 77h16l-19 -77h-16zM416 635l19 77h16l-19 -77h-16z" />
    <glyph glyph-name="igrave" unicode="&#xec;" horiz-adv-x="198" 
d="M28 0l126 508h16l-126 -508h-16zM228 574h-15l-66 138h19z" />
    <glyph glyph-name="iacute" unicode="&#xed;" horiz-adv-x="198" 
d="M28 0l126 508h16l-126 -508h-16zM131 574l126 138h23l-130 -138h-19z" />
    <glyph glyph-name="icircumflex" unicode="&#xee;" horiz-adv-x="198" 
d="M28 0l126 508h16l-126 -508h-16zM266 575l-55 121l-116 -121h-22l131 137h17l63 -137h-18z" />
    <glyph glyph-name="idieresis" unicode="&#xef;" horiz-adv-x="198" 
d="M28 0l126 508h16l-126 -508h-16zM116 643l17 69h16l-17 -69h-16zM260 643l17 69h16l-17 -69h-16z" />
    <glyph glyph-name="eth" unicode="&#xf0;" horiz-adv-x="528" 
d="M484 318q0 -76 -30.5 -152t-90 -126t-142.5 -50q-85 0 -131.5 52t-46.5 147q0 74 31 150.5t90.5 127.5t140.5 51q52 0 89.5 -20.5t57.5 -58.5l1 1q-33 102 -108 194l-139 -66l-7 14l136 64q-24 27 -62 64l11 12q34 -33 66 -69l139 66l7 -14l-136 -64q124 -154 124 -323z
M356 54q56 48 84 120.5t28 143.5q0 88 -42 136t-121 48q-76 0 -132 -48.5t-85 -121.5t-29 -143q0 -88 42 -135.5t120 -47.5q79 0 135 48z" />
    <glyph glyph-name="ntilde" unicode="&#xf1;" horiz-adv-x="537" 
d="M439 482q37 -36 37 -104q0 -34 -12 -81l-74 -297h-16l75 301q11 46 11 77q0 61 -32.5 92.5t-92.5 31.5q-47 0 -91 -23.5t-76.5 -65.5t-45.5 -95l-79 -318h-16l127 508h16q-19 -76 -33 -119h1q34 62 87 95.5t111 33.5q66 0 103 -36zM488 642q-23 -21 -52 -21
q-21 0 -36.5 8.5t-34.5 25.5q-18 16 -31 23.5t-31 7.5q-23 0 -41.5 -16.5t-28.5 -48.5h-17q13 39 36 60t52 21q21 0 36.5 -8.5t34.5 -25.5q18 -16 31 -23.5t31 -7.5q23 0 41.5 16.5t28.5 48.5h17q-13 -39 -36 -60z" />
    <glyph glyph-name="ograve" unicode="&#xf2;" horiz-adv-x="528" 
d="M436.5 464.5q47.5 -53.5 47.5 -148.5q0 -74 -30.5 -150t-90 -126t-140.5 -50q-87 0 -134 53t-47 148q0 75 30.5 150.5t90 126t140.5 50.5q86 0 133.5 -53.5zM170.5 454q-55.5 -48 -84 -120.5t-28.5 -142.5q0 -88 42.5 -136.5t122.5 -48.5q77 0 132.5 48t84 120t28.5 142
q0 88 -42.5 137t-122.5 49q-77 0 -132.5 -48zM373 574h-15l-66 138h19z" />
    <glyph glyph-name="oacute" unicode="&#xf3;" horiz-adv-x="528" 
d="M436.5 464.5q47.5 -53.5 47.5 -148.5q0 -74 -30.5 -150t-90 -126t-140.5 -50q-87 0 -134 53t-47 148q0 75 30.5 150.5t90 126t140.5 50.5q86 0 133.5 -53.5zM170.5 454q-55.5 -48 -84 -120.5t-28.5 -142.5q0 -88 42.5 -136.5t122.5 -48.5q77 0 132.5 48t84 120t28.5 142
q0 88 -42.5 137t-122.5 49q-77 0 -132.5 -48zM276 574l126 138h23l-130 -138h-19z" />
    <glyph glyph-name="ocircumflex" unicode="&#xf4;" horiz-adv-x="528" 
d="M436.5 464.5q47.5 -53.5 47.5 -148.5q0 -74 -30.5 -150t-90 -126t-140.5 -50q-87 0 -134 53t-47 148q0 75 30.5 150.5t90 126t140.5 50.5q86 0 133.5 -53.5zM170.5 454q-55.5 -48 -84 -120.5t-28.5 -142.5q0 -88 42.5 -136.5t122.5 -48.5q77 0 132.5 48t84 120t28.5 142
q0 88 -42.5 137t-122.5 49q-77 0 -132.5 -48zM432 574l-75 123l-136 -123h-24l153 138h16l85 -138h-19z" />
    <glyph glyph-name="otilde" unicode="&#xf5;" horiz-adv-x="528" 
d="M436.5 464.5q47.5 -53.5 47.5 -148.5q0 -74 -30.5 -150t-90 -126t-140.5 -50q-87 0 -134 53t-47 148q0 75 30.5 150.5t90 126t140.5 50.5q86 0 133.5 -53.5zM170.5 454q-55.5 -48 -84 -120.5t-28.5 -142.5q0 -88 42.5 -136.5t122.5 -48.5q77 0 132.5 48t84 120t28.5 142
q0 88 -42.5 137t-122.5 49q-77 0 -132.5 -48zM464 642q-23 -21 -52 -21q-21 0 -36.5 8.5t-34.5 25.5q-18 16 -31 23.5t-31 7.5q-23 0 -41.5 -16.5t-28.5 -48.5h-17q13 39 36 60t52 21q21 0 36.5 -8.5t34.5 -25.5q18 -16 31 -23.5t31 -7.5q23 0 41.5 16.5t28.5 48.5h17
q-13 -39 -36 -60z" />
    <glyph glyph-name="odieresis" unicode="&#xf6;" horiz-adv-x="528" 
d="M436.5 464.5q47.5 -53.5 47.5 -148.5q0 -74 -30.5 -150t-90 -126t-140.5 -50q-87 0 -134 53t-47 148q0 75 30.5 150.5t90 126t140.5 50.5q86 0 133.5 -53.5zM170.5 454q-55.5 -48 -84 -120.5t-28.5 -142.5q0 -88 42.5 -136.5t122.5 -48.5q77 0 132.5 48t84 120t28.5 142
q0 88 -42.5 137t-122.5 49q-77 0 -132.5 -48zM239 635l19 77h16l-19 -77h-16zM423 635l19 77h16l-19 -77h-16z" />
    <glyph glyph-name="divide" unicode="&#xf7;" horiz-adv-x="566" 
d="M275 435v60h16v-60h-16zM75 309v16h416v-16h-416zM275 139v60h16v-60h-16z" />
    <glyph glyph-name="oslash" unicode="&#xf8;" horiz-adv-x="528" 
d="M484 316q0 -74 -31.5 -150t-92 -126t-143.5 -50q-46 0 -81.5 17t-57.5 49l-62 -61l-11 11l64 63q-27 48 -27 122q0 75 31.5 150.5t92 126t143.5 50.5q96 0 143 -71l62 61l11 -11l-65 -64q24 -48 24 -117zM173 454q-57 -48 -86 -120.5t-29 -142.5q0 -66 23 -110l359 354
q-20 33 -53 50t-78 17q-79 0 -136 -48zM353 54q57 48 86 120t29 142q0 62 -21 105l-358 -354q42 -61 128 -61q79 0 136 48z" />
    <glyph glyph-name="ugrave" unicode="&#xf9;" horiz-adv-x="537" 
d="M98 26q-37 36 -37 104q0 35 12 81l74 297h16l-75 -301q-11 -46 -11 -77q0 -61 32.5 -92.5t92.5 -31.5q47 0 91 23.5t76.5 65.5t45.5 95l79 318h16l-127 -508h-16l27 107h-1q-33 -55 -84.5 -86t-107.5 -31q-66 0 -103 36zM388 574h-15l-66 138h19z" />
    <glyph glyph-name="uacute" unicode="&#xfa;" horiz-adv-x="537" 
d="M98 26q-37 36 -37 104q0 35 12 81l74 297h16l-75 -301q-11 -46 -11 -77q0 -61 32.5 -92.5t92.5 -31.5q47 0 91 23.5t76.5 65.5t45.5 95l79 318h16l-127 -508h-16l27 107h-1q-33 -55 -84.5 -86t-107.5 -31q-66 0 -103 36zM291 574l126 138h23l-130 -138h-19z" />
    <glyph glyph-name="ucircumflex" unicode="&#xfb;" horiz-adv-x="537" 
d="M98 26q-37 36 -37 104q0 35 12 81l74 297h16l-75 -301q-11 -46 -11 -77q0 -61 32.5 -92.5t92.5 -31.5q47 0 91 23.5t76.5 65.5t45.5 95l79 318h16l-127 -508h-16l27 107h-1q-33 -55 -84.5 -86t-107.5 -31q-66 0 -103 36zM447 574l-75 123l-136 -123h-24l153 138h16
l85 -138h-19z" />
    <glyph glyph-name="udieresis" unicode="&#xfc;" horiz-adv-x="537" 
d="M98 26q-37 36 -37 104q0 35 12 81l74 297h16l-75 -301q-11 -46 -11 -77q0 -61 32.5 -92.5t92.5 -31.5q47 0 91 23.5t76.5 65.5t45.5 95l79 318h16l-127 -508h-16l27 107h-1q-33 -55 -84.5 -86t-107.5 -31q-66 0 -103 36zM254 635l19 77h16l-19 -77h-16zM438 635l19 77h16
l-19 -77h-16z" />
    <glyph glyph-name="yacute" unicode="&#xfd;" horiz-adv-x="431" 
d="M70 -120q-35 -39 -64.5 -54t-66.5 -15q-28 0 -43 7l4 16q14 -7 39 -7q32 0 59.5 13.5t60.5 51t80 108.5l-74 508h16l71 -486h1l320 486h19l-338 -514q-49 -75 -84 -114zM228 574l126 138h23l-130 -138h-19z" />
    <glyph glyph-name="thorn" unicode="&#xfe;" horiz-adv-x="545" 
d="M222 479q54 39 118 39q78 0 120.5 -50.5t42.5 -140.5q0 -76 -30.5 -154.5t-88.5 -130.5t-138 -52q-81 0 -122.5 53.5t-36.5 139.5h-1q-8 -42 -29 -126l-60 -242h-16l224 897h16l-54 -216q-21 -84 -35 -129h1q35 73 89 112zM376 56q55 50 83 124.5t28 146.5q0 83 -38 129
t-109 46q-75 0 -129.5 -51.5t-83 -126.5t-28.5 -143q0 -84 38 -129.5t109 -45.5q75 0 130 50z" />
    <glyph glyph-name="ydieresis" unicode="&#xff;" horiz-adv-x="431" 
d="M70 -120q-35 -39 -64.5 -54t-66.5 -15q-28 0 -43 7l4 16q14 -7 39 -7q32 0 59.5 13.5t60.5 51t80 108.5l-74 508h16l71 -486h1l320 486h19l-338 -514q-49 -75 -84 -114zM191 635l19 77h16l-19 -77h-16zM375 635l19 77h16l-19 -77h-16z" />
    <glyph glyph-name="Amacron" unicode="&#x100;" horiz-adv-x="634" 
d="M140 266l-178 -266h-19l476 712h22l123 -712h-16l-46 266h-362zM482 380q-36 214 -54 316h-1l-211 -316l-66 -98h349zM340 802l4 16h226l-4 -16h-226z" />
    <glyph glyph-name="amacron" unicode="&#x101;" horiz-adv-x="494" 
d="M395 481.5q40 -36.5 40 -107.5q0 -26 -10 -66l-50 -199q-7 -27 -12 -58.5t-6 -50.5h-16q2 33 23 118h-1q-32 -61 -84.5 -94.5t-123.5 -33.5q-67 0 -105.5 34t-38.5 92q0 59 45 102.5t150 58.5q76 11 201 23l3 12q9 36 9 62q0 65 -35.5 96.5t-98.5 31.5q-71 0 -118 -40.5
t-62 -106.5h-17q17 74 69.5 118.5t127.5 44.5q70 0 110 -36.5zM207 261q-180 -27 -180 -145q0 -52 34 -81t94 -29q86 0 145.5 53t83.5 149l19 76q-111 -9 -196 -23zM211 648l4 16h226l-4 -16h-226z" />
    <glyph glyph-name="Abreve" unicode="&#x102;" horiz-adv-x="634" 
d="M140 266l-178 -266h-19l476 712h22l123 -712h-16l-46 266h-362zM482 380q-36 214 -54 316h-1l-211 -316l-66 -98h349zM555 792q-44 -33 -107 -33q-58 0 -88 28t-30 80q0 12 1 19h16q-1 -7 -1 -19q0 -92 102 -92q57 0 95.5 28.5t58.5 82.5h17q-20 -61 -64 -94z" />
    <glyph glyph-name="abreve" unicode="&#x103;" horiz-adv-x="494" 
d="M395 481.5q40 -36.5 40 -107.5q0 -26 -10 -66l-50 -199q-7 -27 -12 -58.5t-6 -50.5h-16q2 33 23 118h-1q-32 -61 -84.5 -94.5t-123.5 -33.5q-67 0 -105.5 34t-38.5 92q0 59 45 102.5t150 58.5q76 11 201 23l3 12q9 36 9 62q0 65 -35.5 96.5t-98.5 31.5q-71 0 -118 -40.5
t-62 -106.5h-17q17 74 69.5 118.5t127.5 44.5q70 0 110 -36.5zM207 261q-180 -27 -180 -145q0 -52 34 -81t94 -29q86 0 145.5 53t83.5 149l19 76q-111 -9 -196 -23zM420 618q-44 -33 -107 -33q-58 0 -88 28t-30 80q0 12 1 19h16q-1 -7 -1 -19q0 -92 102 -92q57 0 95.5 28.5
t58.5 82.5h17q-20 -61 -64 -94z" />
    <glyph glyph-name="Aogonek" unicode="&#x104;" horiz-adv-x="634" 
d="M459 -163.5q10 -9.5 33 -9.5q18 0 33 5l-4 -17q-16 -4 -29 -4q-59 0 -59 55q0 33 25.5 65.5t88.5 74.5l-45 260h-362l-178 -266h-19l476 712h22l123 -712q-66 -44 -90.5 -75t-24.5 -59q0 -20 10 -29.5zM482 380q-36 214 -54 316h-1l-211 -316l-66 -98h349z" />
    <glyph glyph-name="aogonek" unicode="&#x105;" horiz-adv-x="494" 
d="M395 481.5q40 -36.5 40 -107.5q0 -26 -10 -66l-50 -199q-7 -28 -12 -59t-6 -50q-66 -44 -90.5 -75t-24.5 -59q0 -20 10 -29.5t33 -9.5q18 0 33 5l-4 -17q-16 -4 -29 -4q-59 0 -59 55q0 34 26 66t90 75q4 36 22 111h-1q-32 -61 -84.5 -94.5t-123.5 -33.5q-67 0 -105.5 34
t-38.5 92q0 59 45 102.5t150 58.5q76 11 201 23l3 12q9 36 9 62q0 65 -35.5 96.5t-98.5 31.5q-71 0 -118 -40.5t-62 -106.5h-17q17 74 69.5 118.5t127.5 44.5q70 0 110 -36.5zM207 261q-180 -27 -180 -145q0 -52 34 -81t94 -29q86 0 145.5 53t83.5 149l19 76
q-111 -9 -196 -23z" />
    <glyph glyph-name="Cacute" unicode="&#x106;" horiz-adv-x="661" 
d="M598.5 660q55.5 -62 55.5 -159q0 -12 -2 -36h-16q2 24 2 36q0 91 -51 148t-148 57q-110 0 -191.5 -68t-124 -171t-42.5 -206q0 -117 57.5 -186t161.5 -69q99 0 176 59t109 152h17q-34 -102 -115.5 -164.5t-186.5 -62.5q-111 0 -173 73.5t-62 198.5q0 107 44.5 213.5
t129.5 176.5t199 70q105 0 160.5 -62zM405 760l137 126h24l-140 -126h-21z" />
    <glyph glyph-name="cacute" unicode="&#x107;" horiz-adv-x="493" 
d="M424.5 473q42.5 -45 42.5 -122q0 -9 -1 -15h-16q1 6 1 15q0 70 -38 110.5t-105 40.5q-78 0 -135 -50.5t-86.5 -125.5t-29.5 -147q0 -83 39.5 -128t115.5 -45q68 0 122.5 41t77.5 110h17q-25 -76 -84 -121.5t-133 -45.5q-83 0 -127 49.5t-44 139.5q0 76 31.5 155
t92.5 131.5t143 52.5q74 0 116.5 -45zM272 574l126 138h23l-130 -138h-19z" />
    <glyph glyph-name="Ccircumflex" unicode="&#x108;" horiz-adv-x="661" 
d="M598.5 660q55.5 -62 55.5 -159q0 -12 -2 -36h-16q2 24 2 36q0 91 -51 148t-148 57q-110 0 -191.5 -68t-124 -171t-42.5 -206q0 -117 57.5 -186t161.5 -69q99 0 176 59t109 152h17q-34 -102 -115.5 -164.5t-186.5 -62.5q-111 0 -173 73.5t-62 198.5q0 107 44.5 213.5
t129.5 176.5t199 70q105 0 160.5 -62zM501 886l88 -126h-19l-78 111l-134 -111h-25l152 126h16z" />
    <glyph glyph-name="ccircumflex" unicode="&#x109;" horiz-adv-x="493" 
d="M424.5 473q42.5 -45 42.5 -122q0 -9 -1 -15h-16q1 6 1 15q0 70 -38 110.5t-105 40.5q-78 0 -135 -50.5t-86.5 -125.5t-29.5 -147q0 -83 39.5 -128t115.5 -45q68 0 122.5 41t77.5 110h17q-25 -76 -84 -121.5t-133 -45.5q-83 0 -127 49.5t-44 139.5q0 76 31.5 155
t92.5 131.5t143 52.5q74 0 116.5 -45zM428 574l-75 123l-136 -123h-24l153 138h16l85 -138h-19z" />
    <glyph glyph-name="Cdotaccent" unicode="&#x10a;" horiz-adv-x="661" 
d="M598.5 660q55.5 -62 55.5 -159q0 -12 -2 -36h-16q2 24 2 36q0 91 -51 148t-148 57q-110 0 -191.5 -68t-124 -171t-42.5 -206q0 -117 57.5 -186t161.5 -69q99 0 176 59t109 152h17q-34 -102 -115.5 -164.5t-186.5 -62.5q-111 0 -173 73.5t-62 198.5q0 107 44.5 213.5
t129.5 176.5t199 70q105 0 160.5 -62zM458 779l20 77h16l-20 -77h-16z" />
    <glyph glyph-name="cdotaccent" unicode="&#x10b;" horiz-adv-x="493" 
d="M424.5 473q42.5 -45 42.5 -122q0 -9 -1 -15h-16q1 6 1 15q0 70 -38 110.5t-105 40.5q-78 0 -135 -50.5t-86.5 -125.5t-29.5 -147q0 -83 39.5 -128t115.5 -45q68 0 122.5 41t77.5 110h17q-25 -76 -84 -121.5t-133 -45.5q-83 0 -127 49.5t-44 139.5q0 76 31.5 155
t92.5 131.5t143 52.5q74 0 116.5 -45zM327 635l19 77h16l-19 -77h-16z" />
    <glyph glyph-name="Ccaron" unicode="&#x10c;" horiz-adv-x="661" 
d="M598.5 660q55.5 -62 55.5 -159q0 -12 -2 -36h-16q2 24 2 36q0 91 -51 148t-148 57q-110 0 -191.5 -68t-124 -171t-42.5 -206q0 -117 57.5 -186t161.5 -69q99 0 176 59t109 152h17q-34 -102 -115.5 -164.5t-186.5 -62.5q-111 0 -173 73.5t-62 198.5q0 107 44.5 213.5
t129.5 176.5t199 70q105 0 160.5 -62zM453 760l-88 126h19l78 -111l134 111h25l-152 -126h-16z" />
    <glyph glyph-name="ccaron" unicode="&#x10d;" horiz-adv-x="493" 
d="M424.5 473q42.5 -45 42.5 -122q0 -9 -1 -15h-16q1 6 1 15q0 70 -38 110.5t-105 40.5q-78 0 -135 -50.5t-86.5 -125.5t-29.5 -147q0 -83 39.5 -128t115.5 -45q68 0 122.5 41t77.5 110h17q-25 -76 -84 -121.5t-133 -45.5q-83 0 -127 49.5t-44 139.5q0 76 31.5 155
t92.5 131.5t143 52.5q74 0 116.5 -45zM312 574l-85 138h19l75 -123l136 123h24l-153 -138h-16z" />
    <glyph glyph-name="Dcaron" unicode="&#x10e;" horiz-adv-x="708" 
d="M606.5 634q80.5 -78 80.5 -224q0 -99 -46 -193t-141.5 -155.5t-237.5 -61.5h-220l177 712h152q155 0 235.5 -78zM62 16h200q137 0 229.5 59.5t136 150t43.5 184.5q0 140 -76 213t-224 73h-140zM438 760l-88 126h19l78 -111l134 111h25l-152 -126h-16z" />
    <glyph glyph-name="dcaron" unicode="&#x10f;" horiz-adv-x="543" 
d="M321 29q-54 -39 -118 -39q-78 0 -120.5 50.5t-42.5 140.5q0 76 30.5 154.5t88.5 130.5t138 52q81 0 122.5 -53.5t36.5 -139.5h1q8 42 29 126l65 261h16l-178 -712h-16l3 12q21 84 35 129h-1q-35 -73 -89 -112zM167 452q-55 -50 -83 -124.5t-28 -146.5q0 -83 38 -129
t109 -46q75 0 129.5 51.5t83 126.5t28.5 143q0 84 -38 129.5t-109 45.5q-75 0 -130 -50zM583 538l83 174h18l-86 -174h-15z" />
    <glyph glyph-name="Dcroat" unicode="&#x110;" horiz-adv-x="708" 
d="M606.5 634q80.5 -78 80.5 -224q0 -99 -46 -193t-141.5 -155.5t-237.5 -61.5h-220l88 352h-61l4 16h60l86 344h152q155 0 235.5 -78zM491.5 75.5q92.5 59.5 136 150t43.5 184.5q0 140 -76 213t-224 73h-140l-82 -328h256l-4 -16h-255l-84 -336h200q137 0 229.5 59.5z" />
    <glyph glyph-name="dcroat" unicode="&#x111;" horiz-adv-x="544" 
d="M538 596l-149 -596h-16l3 12q21 84 35 129h-1q-35 -73 -89 -112t-118 -39q-78 0 -120.5 50.5t-42.5 140.5q0 76 30.5 154.5t88.5 130.5t138 52q81 0 122.5 -53.5t36.5 -139.5h1q8 42 29 126l36 145h-154l4 16h154l25 100h16l-25 -100h56l-4 -16h-56zM332.5 57.5
q54.5 51.5 83 126.5t28.5 143q0 84 -38 129.5t-109 45.5q-75 0 -130 -50t-83 -124.5t-28 -146.5q0 -83 38 -129t109 -46q75 0 129.5 51.5z" />
    <glyph glyph-name="Emacron" unicode="&#x112;" horiz-adv-x="586" 
d="M231 696l-80 -322h374l-4 -16h-374l-85 -342h405l-4 -16h-421l177 712h407l-4 -16h-391zM322 802l4 16h226l-4 -16h-226z" />
    <glyph glyph-name="emacron" unicode="&#x113;" horiz-adv-x="515" 
d="M56 178q0 -82 39.5 -127t113.5 -45q70 0 126.5 39t81.5 104h17q-27 -73 -88.5 -116t-136.5 -43q-81 0 -125 49.5t-44 138.5q0 77 32.5 156t94.5 131.5t146 52.5q78 0 123 -47t45 -132q0 -37 -13 -80h-403q-9 -43 -9 -81zM161.5 439.5q-65.5 -62.5 -92.5 -164.5h386
q10 30 10 64q0 78 -40.5 120.5t-111.5 42.5q-86 0 -151.5 -62.5zM222 648l4 16h226l-4 -16h-226z" />
    <glyph glyph-name="Ebreve" unicode="&#x114;" horiz-adv-x="586" 
d="M231 696l-80 -322h374l-4 -16h-374l-85 -342h405l-4 -16h-421l177 712h407l-4 -16h-391zM537 792q-44 -33 -107 -33q-58 0 -88 28t-30 80q0 12 1 19h16q-1 -7 -1 -19q0 -92 102 -92q57 0 95.5 28.5t58.5 82.5h17q-20 -61 -64 -94z" />
    <glyph glyph-name="ebreve" unicode="&#x115;" horiz-adv-x="515" 
d="M56 178q0 -82 39.5 -127t113.5 -45q70 0 126.5 39t81.5 104h17q-27 -73 -88.5 -116t-136.5 -43q-81 0 -125 49.5t-44 138.5q0 77 32.5 156t94.5 131.5t146 52.5q78 0 123 -47t45 -132q0 -37 -13 -80h-403q-9 -43 -9 -81zM161.5 439.5q-65.5 -62.5 -92.5 -164.5h386
q10 30 10 64q0 78 -40.5 120.5t-111.5 42.5q-86 0 -151.5 -62.5zM431 618q-44 -33 -107 -33q-58 0 -88 28t-30 80q0 12 1 19h16q-1 -7 -1 -19q0 -92 102 -92q57 0 95.5 28.5t58.5 82.5h17q-20 -61 -64 -94z" />
    <glyph glyph-name="Edotaccent" unicode="&#x116;" horiz-adv-x="586" 
d="M231 696l-80 -322h374l-4 -16h-374l-85 -342h405l-4 -16h-421l177 712h407l-4 -16h-391zM422 779l20 77h16l-20 -77h-16z" />
    <glyph glyph-name="edotaccent" unicode="&#x117;" horiz-adv-x="515" 
d="M56 178q0 -82 39.5 -127t113.5 -45q70 0 126.5 39t81.5 104h17q-27 -73 -88.5 -116t-136.5 -43q-81 0 -125 49.5t-44 138.5q0 77 32.5 156t94.5 131.5t146 52.5q78 0 123 -47t45 -132q0 -37 -13 -80h-403q-9 -43 -9 -81zM161.5 439.5q-65.5 -62.5 -92.5 -164.5h386
q10 30 10 64q0 78 -40.5 120.5t-111.5 42.5q-86 0 -151.5 -62.5zM324 635l19 77h16l-19 -77h-16z" />
    <glyph glyph-name="Eogonek" unicode="&#x118;" horiz-adv-x="586" 
d="M151 374h374l-4 -16h-374l-85 -342h405l-4 -16q-66 -44 -90.5 -75t-24.5 -59q0 -20 10 -29.5t33 -9.5q18 0 33 5l-4 -17q-16 -4 -29 -4q-59 0 -59 55q0 32 23.5 63t81.5 71h-395l177 712h407l-4 -16h-391z" />
    <glyph glyph-name="eogonek" unicode="&#x119;" horiz-adv-x="514" 
d="M55 178q0 -82 39.5 -127t113.5 -45q70 0 126.5 39t81.5 104h17q-15 -42 -44.5 -75.5t-79.5 -67.5q-67 -45 -92.5 -79t-25.5 -61q0 -20 10 -29.5t33 -9.5q18 0 33 5l-4 -17q-16 -4 -29 -4q-59 0 -59 55q0 32 24.5 63.5t84.5 74.5v1q-36 -15 -76 -15q-81 0 -125 49.5
t-44 138.5q0 77 32.5 156t94.5 131.5t146 52.5q78 0 123 -47t45 -132q0 -37 -13 -80h-403q-9 -43 -9 -81zM160.5 439.5q-65.5 -62.5 -92.5 -164.5h386q10 30 10 64q0 78 -40.5 120.5t-111.5 42.5q-86 0 -151.5 -62.5z" />
    <glyph glyph-name="Ecaron" unicode="&#x11a;" horiz-adv-x="586" 
d="M231 696l-80 -322h374l-4 -16h-374l-85 -342h405l-4 -16h-421l177 712h407l-4 -16h-391zM417 760l-88 126h19l78 -111l134 111h25l-152 -126h-16z" />
    <glyph glyph-name="ecaron" unicode="&#x11b;" horiz-adv-x="515" 
d="M56 178q0 -82 39.5 -127t113.5 -45q70 0 126.5 39t81.5 104h17q-27 -73 -88.5 -116t-136.5 -43q-81 0 -125 49.5t-44 138.5q0 77 32.5 156t94.5 131.5t146 52.5q78 0 123 -47t45 -132q0 -37 -13 -80h-403q-9 -43 -9 -81zM161.5 439.5q-65.5 -62.5 -92.5 -164.5h386
q10 30 10 64q0 78 -40.5 120.5t-111.5 42.5q-86 0 -151.5 -62.5zM309 574l-85 138h19l75 -123l136 123h24l-153 -138h-16z" />
    <glyph glyph-name="Gcircumflex" unicode="&#x11c;" horiz-adv-x="698" 
d="M613.5 668q56.5 -54 56.5 -146q0 -11 -2 -31h-16q2 18 2 31q0 85 -52 134.5t-151 49.5q-116 0 -200 -66.5t-127 -169t-43 -206.5q0 -118 57 -188t160 -70q101 0 187.5 74t127.5 242h-237l4 16h253l-84 -338h-16l24 96q16 66 29 105h-1q-39 -99 -114.5 -155t-172.5 -56
q-110 0 -171.5 74.5t-61.5 199.5q0 109 45 215t133 174.5t208 68.5q106 0 162.5 -54zM499 886l88 -126h-19l-78 111l-134 -111h-25l152 126h16z" />
    <glyph glyph-name="gcircumflex" unicode="&#x11d;" horiz-adv-x="545" 
d="M420.5 470q40.5 -48 38.5 -138h1q11 56 34 148l7 28h16l-120 -481q-54 -216 -240 -216q-76 0 -120 33.5t-44 93.5q0 15 3 30h16q-3 -17 -3 -30q0 -53 39 -82t109 -29q174 0 225 204q22 88 35 129h-1q-33 -73 -88 -113.5t-122 -40.5q-79 0 -120.5 50t-41.5 142
q0 72 30.5 146.5t90 124t141.5 49.5q74 0 114.5 -48zM173 454.5q-56 -47.5 -84.5 -118.5t-28.5 -138q0 -85 37 -130.5t109 -45.5q75 0 130 50.5t83 123t28 135.5q0 81 -36.5 126t-104.5 45q-77 0 -133 -47.5zM449 574l-75 123l-136 -123h-24l153 138h16l85 -138h-19z" />
    <glyph glyph-name="Gbreve" unicode="&#x11e;" horiz-adv-x="698" 
d="M613.5 668q56.5 -54 56.5 -146q0 -11 -2 -31h-16q2 18 2 31q0 85 -52 134.5t-151 49.5q-116 0 -200 -66.5t-127 -169t-43 -206.5q0 -118 57 -188t160 -70q101 0 187.5 74t127.5 242h-237l4 16h253l-84 -338h-16l24 96q16 66 29 105h-1q-39 -99 -114.5 -155t-172.5 -56
q-110 0 -171.5 74.5t-61.5 199.5q0 109 45 215t133 174.5t208 68.5q106 0 162.5 -54zM571 792q-44 -33 -107 -33q-58 0 -88 28t-30 80q0 12 1 19h16q-1 -7 -1 -19q0 -92 102 -92q57 0 95.5 28.5t58.5 82.5h17q-20 -61 -64 -94z" />
    <glyph glyph-name="gbreve" unicode="&#x11f;" horiz-adv-x="545" 
d="M420.5 470q40.5 -48 38.5 -138h1q11 56 34 148l7 28h16l-120 -481q-54 -216 -240 -216q-76 0 -120 33.5t-44 93.5q0 15 3 30h16q-3 -17 -3 -30q0 -53 39 -82t109 -29q174 0 225 204q22 88 35 129h-1q-33 -73 -88 -113.5t-122 -40.5q-79 0 -120.5 50t-41.5 142
q0 72 30.5 146.5t90 124t141.5 49.5q74 0 114.5 -48zM173 454.5q-56 -47.5 -84.5 -118.5t-28.5 -138q0 -85 37 -130.5t109 -45.5q75 0 130 50.5t83 123t28 135.5q0 81 -36.5 126t-104.5 45q-77 0 -133 -47.5zM455 618q-44 -33 -107 -33q-58 0 -88 28t-30 80q0 12 1 19h16
q-1 -7 -1 -19q0 -92 102 -92q57 0 95.5 28.5t58.5 82.5h17q-20 -61 -64 -94z" />
    <glyph glyph-name="Gdotaccent" unicode="&#x120;" horiz-adv-x="698" 
d="M613.5 668q56.5 -54 56.5 -146q0 -11 -2 -31h-16q2 18 2 31q0 85 -52 134.5t-151 49.5q-116 0 -200 -66.5t-127 -169t-43 -206.5q0 -118 57 -188t160 -70q101 0 187.5 74t127.5 242h-237l4 16h253l-84 -338h-16l24 96q16 66 29 105h-1q-39 -99 -114.5 -155t-172.5 -56
q-110 0 -171.5 74.5t-61.5 199.5q0 109 45 215t133 174.5t208 68.5q106 0 162.5 -54zM456 779l20 77h16l-20 -77h-16z" />
    <glyph glyph-name="gdotaccent" unicode="&#x121;" horiz-adv-x="545" 
d="M420.5 470q40.5 -48 38.5 -138h1q11 56 34 148l7 28h16l-120 -481q-54 -216 -240 -216q-76 0 -120 33.5t-44 93.5q0 15 3 30h16q-3 -17 -3 -30q0 -53 39 -82t109 -29q174 0 225 204q22 88 35 129h-1q-33 -73 -88 -113.5t-122 -40.5q-79 0 -120.5 50t-41.5 142
q0 72 30.5 146.5t90 124t141.5 49.5q74 0 114.5 -48zM173 454.5q-56 -47.5 -84.5 -118.5t-28.5 -138q0 -85 37 -130.5t109 -45.5q75 0 130 50.5t83 123t28 135.5q0 81 -36.5 126t-104.5 45q-77 0 -133 -47.5zM348 635l19 77h16l-19 -77h-16z" />
    <glyph glyph-name="Gcommaaccent" unicode="&#x122;" horiz-adv-x="698" 
d="M613.5 668q56.5 -54 56.5 -146q0 -11 -2 -31h-16q2 18 2 31q0 85 -52 134.5t-151 49.5q-116 0 -200 -66.5t-127 -169t-43 -206.5q0 -118 57 -188t160 -70q101 0 187.5 74t127.5 242h-237l4 16h253l-84 -338h-16l24 96q16 66 29 105h-1q-39 -99 -114.5 -155t-172.5 -56
q-110 0 -171.5 74.5t-61.5 199.5q0 109 45 215t133 174.5t208 68.5q106 0 162.5 -54zM218 -239h-14l52 94l16 66h16l-16 -66z" />
    <glyph glyph-name="gcommaaccent" unicode="&#x123;" horiz-adv-x="545" 
d="M420.5 470q40.5 -48 38.5 -138h1q11 56 34 148l7 28h16l-120 -481q-54 -216 -240 -216q-76 0 -120 33.5t-44 93.5q0 15 3 30h16q-3 -17 -3 -30q0 -53 39 -82t109 -29q174 0 225 204q22 88 35 129h-1q-33 -73 -88 -113.5t-122 -40.5q-79 0 -120.5 50t-41.5 142
q0 72 30.5 146.5t90 124t141.5 49.5q74 0 114.5 -48zM173 454.5q-56 -47.5 -84.5 -118.5t-28.5 -138q0 -85 37 -130.5t109 -45.5q75 0 130 50.5t83 123t28 135.5q0 81 -36.5 126t-104.5 45q-77 0 -133 -47.5zM338 587h-16l16 66l53 94h15l-52 -94z" />
    <glyph glyph-name="Hcircumflex" unicode="&#x124;" horiz-adv-x="705" 
d="M521 0l90 362h-463l-90 -362h-16l177 712h16l-83 -334h463l83 334h16l-177 -712h-16zM519 886l88 -126h-19l-78 111l-134 -111h-25l152 126h16z" />
    <glyph glyph-name="hcircumflex" unicode="&#x125;" horiz-adv-x="538" 
d="M440 482q37 -36 37 -104q0 -34 -12 -81l-74 -297h-16l75 301q11 46 11 77q0 61 -32.5 92.5t-92.5 31.5q-47 0 -91 -23.5t-76.5 -65.5t-45.5 -95l-79 -318h-16l177 712h16l-50 -204q-19 -76 -33 -119h1q34 62 87 95.5t111 33.5q66 0 103 -36zM435 886l88 -126h-19l-78 111
l-134 -111h-25l152 126h16z" />
    <glyph glyph-name="Hbar" unicode="&#x126;" horiz-adv-x="705" 
d="M685 596l-148 -596h-16l90 362h-463l-90 -362h-16l148 596h-60l4 16h60l25 100h16l-25 -100h463l25 100h16l-25 -100h60l-4 -16h-60zM206 596l-54 -218h463l54 218h-463z" />
    <glyph glyph-name="hbar" unicode="&#x127;" horiz-adv-x="538" 
d="M440 482q37 -36 37 -104q0 -34 -12 -81l-74 -297h-16l75 301q11 46 11 77q0 61 -32.5 92.5t-92.5 31.5q-47 0 -91 -23.5t-76.5 -65.5t-45.5 -95l-79 -318h-16l148 596h-56l4 16h56l25 100h16l-25 -100h154l-4 -16h-153l-22 -88q-19 -76 -33 -119h1q34 62 87 95.5
t111 33.5q66 0 103 -36z" />
    <glyph glyph-name="Itilde" unicode="&#x128;" horiz-adv-x="226" 
d="M42 0l177 712h16l-177 -712h-16zM377 816q-23 -21 -52 -21q-21 0 -36.5 8.5t-34.5 25.5q-19 16 -32 23.5t-31 7.5q-23 0 -41.5 -16.5t-28.5 -48.5h-17q13 39 36 60t52 21q21 0 36.5 -8.5t34.5 -25.5q19 -16 32 -23.5t31 -7.5q23 0 41.5 16.5t28.5 48.5h17
q-13 -39 -36 -60z" />
    <glyph glyph-name="itilde" unicode="&#x129;" horiz-adv-x="198" 
d="M28 0l126 508h16l-126 -508h-16zM303 642q-21 -21 -46 -21q-19 0 -32 8.5t-29 25.5q-15 16 -26 23.5t-26 7.5q-40 0 -60 -65h-18q13 39 34 60t46 21q18 0 31 -8.5t29 -25.5q15 -16 26 -23.5t26 -7.5q41 0 61 65h17q-12 -39 -33 -60z" />
    <glyph glyph-name="Imacron" unicode="&#x12a;" horiz-adv-x="226" 
d="M42 0l177 712h16l-177 -712h-16zM136 802l4 16h226l-4 -16h-226z" />
    <glyph glyph-name="imacron" unicode="&#x12b;" horiz-adv-x="198" 
d="M28 0l126 508h16l-126 -508h-16zM104 648l4 16h186l-4 -16h-186z" />
    <glyph glyph-name="Ibreve" unicode="&#x12c;" horiz-adv-x="226" 
d="M42 0l177 712h16l-177 -712h-16zM351 792q-44 -33 -107 -33q-58 0 -88 28t-30 80q0 12 1 19h16q-1 -7 -1 -19q0 -92 102 -92q57 0 95.5 28.5t58.5 82.5h17q-20 -61 -64 -94z" />
    <glyph glyph-name="ibreve" unicode="&#x12d;" horiz-adv-x="198" 
d="M28 0l126 508h16l-126 -508h-16zM275 618q-37 -33 -89 -33q-45 0 -69 26.5t-24 74.5q0 12 2 26h15q-2 -14 -2 -26q0 -42 19.5 -63.5t58.5 -21.5q46 0 78.5 28.5t50.5 82.5h16q-19 -61 -56 -94z" />
    <glyph glyph-name="Iogonek" unicode="&#x12e;" horiz-adv-x="226" 
d="M-32.5 -75q-24.5 -31 -24.5 -59q0 -20 10 -29.5t33 -9.5q18 0 33 5l-4 -17q-16 -4 -29 -4q-59 0 -59 55q0 34 26 66.5t91 75.5l175 704h16l-177 -712q-66 -44 -90.5 -75z" />
    <glyph glyph-name="iogonek" unicode="&#x12f;" horiz-adv-x="198" 
d="M202 635h-16l19 77h16zM170 508l-126 -508q-66 -44 -90.5 -75t-24.5 -59q0 -20 10 -29.5t33 -9.5q18 0 33 5l-4 -17q-16 -4 -29 -4q-59 0 -59 55q0 34 26 66.5t91 75.5l124 500h16z" />
    <glyph glyph-name="Idotaccent" unicode="&#x130;" horiz-adv-x="226" 
d="M42 0l177 712h16l-177 -712h-16zM236 779l20 77h16l-20 -77h-16z" />
    <glyph glyph-name="dotlessi" unicode="&#x131;" horiz-adv-x="198" 
d="M28 0l126 508h16l-126 -508h-16z" />
    <glyph glyph-name="IJ" unicode="&#x132;" horiz-adv-x="529" 
d="M42 0l177 712h16l-177 -712h-16zM337.5 39.5q-48.5 -43.5 -117.5 -43.5q-22 0 -42 6l4 15q18 -5 38 -5q64 0 108.5 40.5t63.5 118.5l135 541h16l-136 -545q-21 -84 -69.5 -127.5z" />
    <glyph glyph-name="ij" unicode="&#x133;" horiz-adv-x="407" 
d="M186 635l19 77h16l-19 -77h-16zM395 635l19 77h16l-19 -77h-16zM28 0l126 508h16l-126 -508h-16zM187 -155.5q-35 -31.5 -87 -31.5q-12 0 -20 3l4 15q6 -2 16 -2q47 0 77.5 28t48.5 99l137 552h16l-138 -556q-19 -76 -54 -107.5z" />
    <glyph glyph-name="Jcircumflex" unicode="&#x134;" horiz-adv-x="303" 
d="M111.5 39.5q-48.5 -43.5 -117.5 -43.5q-22 0 -42 6l4 15q18 -5 38 -5q64 0 108.5 40.5t63.5 118.5l135 541h16l-136 -545q-21 -84 -69.5 -127.5zM361 886l88 -126h-19l-78 111l-134 -111h-25l152 126h16z" />
    <glyph glyph-name="jcircumflex" unicode="&#x135;" horiz-adv-x="209" 
d="M-11 -155.5q-35 -31.5 -87 -31.5q-12 0 -20 3l4 15q6 -2 16 -2q47 0 77.5 28t48.5 99l137 552h16l-138 -556q-19 -76 -54 -107.5zM277 575l-55 121l-116 -121h-22l131 137h17l63 -137h-18z" />
    <glyph glyph-name="Kcommaaccent" unicode="&#x136;" horiz-adv-x="532" 
d="M465 0h-20l-295 368h-1l-91 -368h-16l177 712h16l-83 -332h1l431 332h26l-442 -340zM163 -239h-14l52 94l16 66h16l-16 -66z" />
    <glyph glyph-name="kcommaaccent" unicode="&#x137;" horiz-adv-x="439" 
d="M380 0h-21l-247 271h-1l-67 -271h-16l177 712h16l-107 -430h1l334 226h28l-346 -234zM113 -239h-14l52 94l16 66h16l-16 -66z" />
    <glyph glyph-name="kgreenlandic" unicode="&#x138;" horiz-adv-x="453" 
d="M380 0h-21l-247 271h-1l-67 -271h-16l126 508h16l-56 -226h1l334 226h28l-346 -234z" />
    <glyph glyph-name="Lacute" unicode="&#x139;" horiz-adv-x="525" 
d="M461 16l-4 -16h-415l177 712h16l-173 -696h399zM223 760l137 126h24l-140 -126h-21z" />
    <glyph glyph-name="lacute" unicode="&#x13a;" horiz-adv-x="198" 
d="M28 0l177 712h16l-177 -712h-16zM220 778l126 138h23l-130 -138h-19z" />
    <glyph glyph-name="Lcommaaccent" unicode="&#x13b;" horiz-adv-x="525" 
d="M461 16l-4 -16h-415l177 712h16l-173 -696h399zM168 -239h-14l52 94l16 66h16l-16 -66z" />
    <glyph glyph-name="lcommaaccent" unicode="&#x13c;" horiz-adv-x="198" 
d="M28 0l177 712h16l-177 -712h-16zM-41 -239h-14l52 94l16 66h16l-16 -66z" />
    <glyph glyph-name="Lcaron" unicode="&#x13d;" horiz-adv-x="525" 
d="M461 16l-4 -16h-415l177 712h16l-173 -696h399zM262 498l94 214h17l-97 -214h-14z" />
    <glyph glyph-name="lcaron" unicode="&#x13e;" horiz-adv-x="198" 
d="M28 0l177 712h16l-177 -712h-16zM238 538l83 174h18l-86 -174h-15z" />
    <glyph glyph-name="Ldot" unicode="&#x13f;" horiz-adv-x="605" 
d="M461 16l-4 -16h-415l177 712h16l-173 -696h399zM432 355l18 72h18l-18 -72h-18z" />
    <glyph glyph-name="ldot" unicode="&#x140;" horiz-adv-x="304" 
d="M28 0l177 712h16l-177 -712h-16zM258 318l18 72h18l-18 -72h-18z" />
    <glyph glyph-name="Lslash" unicode="&#x141;" horiz-adv-x="525" 
d="M457 0h-415l79 317l-92 -48l5 20l92 48l93 375h16l-91 -366l189 98l-4 -20l-190 -99l-77 -309h399z" />
    <glyph glyph-name="lslash" unicode="&#x142;" horiz-adv-x="236" 
d="M164 404l-101 -404h-16l98 396l-115 -60l5 20l115 60l74 296h16l-72 -288l115 60l-5 -20z" />
    <glyph glyph-name="Nacute" unicode="&#x143;" horiz-adv-x="718" 
d="M526 0l-140 333l-154 364h-1l-96 -386l-77 -311h-16l177 712h24l140 -333q26 -60 38 -91q48 -110 115 -273h1l49 193l48 193l77 311h16l-177 -712h-24zM429 760l137 126h24l-140 -126h-21z" />
    <glyph glyph-name="nacute" unicode="&#x144;" horiz-adv-x="537" 
d="M439 482q37 -36 37 -104q0 -34 -12 -81l-74 -297h-16l75 301q11 46 11 77q0 61 -32.5 92.5t-92.5 31.5q-47 0 -91 -23.5t-76.5 -65.5t-45.5 -95l-79 -318h-16l127 508h16q-19 -76 -33 -119h1q34 62 87 95.5t111 33.5q66 0 103 -36zM300 574l126 138h23l-130 -138h-19z
" />
    <glyph glyph-name="Ncommaaccent" unicode="&#x145;" horiz-adv-x="718" 
d="M526 0l-140 333l-154 364h-1l-96 -386l-77 -311h-16l177 712h24l140 -333q26 -60 38 -91q48 -110 115 -273h1l49 193l48 193l77 311h16l-177 -712h-24zM214 -239h-14l52 94l16 66h16l-16 -66z" />
    <glyph glyph-name="ncommaaccent" unicode="&#x146;" horiz-adv-x="537" 
d="M439 482q37 -36 37 -104q0 -34 -12 -81l-74 -297h-16l75 301q11 46 11 77q0 61 -32.5 92.5t-92.5 31.5q-47 0 -91 -23.5t-76.5 -65.5t-45.5 -95l-79 -318h-16l127 508h16q-19 -76 -33 -119h1q34 62 87 95.5t111 33.5q66 0 103 -36zM123 -239h-14l52 94l16 66h16l-16 -66z
" />
    <glyph glyph-name="Ncaron" unicode="&#x147;" horiz-adv-x="718" 
d="M526 0l-140 333l-154 364h-1l-96 -386l-77 -311h-16l177 712h24l140 -333q26 -60 38 -91q48 -110 115 -273h1l49 193l48 193l77 311h16l-177 -712h-24zM477 760l-88 126h19l78 -111l134 111h25l-152 -126h-16z" />
    <glyph glyph-name="ncaron" unicode="&#x148;" horiz-adv-x="537" 
d="M439 482q37 -36 37 -104q0 -34 -12 -81l-74 -297h-16l75 301q11 46 11 77q0 61 -32.5 92.5t-92.5 31.5q-47 0 -91 -23.5t-76.5 -65.5t-45.5 -95l-79 -318h-16l127 508h16q-19 -76 -33 -119h1q34 62 87 95.5t111 33.5q66 0 103 -36zM340 574l-85 138h19l75 -123l136 123
h24l-153 -138h-16z" />
    <glyph glyph-name="napostrophe" unicode="&#x149;" horiz-adv-x="577" 
d="M126 514h-14l64 127l18 71h16l-18 -71zM479 482q37 -36 37 -104q0 -34 -12 -81l-74 -297h-16l75 301q11 46 11 77q0 61 -32.5 92.5t-92.5 31.5q-47 0 -91 -23.5t-76.5 -65.5t-45.5 -95l-79 -318h-16l127 508h16q-19 -76 -33 -119h1q34 62 87 95.5t111 33.5q66 0 103 -36z
" />
    <glyph glyph-name="Eng" unicode="&#x14a;" horiz-adv-x="718" 
d="M538 -48q-19 -76 -53.5 -107.5t-86.5 -31.5q-12 0 -21 3l4 15q8 -2 17 -2q47 0 77 28.5t48 100.5l10 41l-153 356l-147 342h-1l-92 -368l-82 -329h-16l177 712h25l146 -340l149 -345h1l93 372l78 313h16z" />
    <glyph glyph-name="eng" unicode="&#x14b;" horiz-adv-x="537" 
d="M439 482q37 -36 37 -104q0 -36 -12 -81l-87 -349q-19 -74 -53 -104.5t-86 -30.5q-13 0 -21 3l4 15q6 -2 17 -2q47 0 77 27t47 96l87 349q11 46 11 77q0 61 -32.5 92.5t-92.5 31.5q-47 0 -91 -23.5t-76.5 -65.5t-45.5 -95l-79 -318h-16l127 508h16q-19 -76 -33 -119h1
q34 62 87 95.5t111 33.5q66 0 103 -36z" />
    <glyph glyph-name="Omacron" unicode="&#x14c;" horiz-adv-x="702" 
d="M569.5 686.5q57.5 -35.5 87 -99.5t29.5 -148q0 -104 -43.5 -208t-127 -172.5t-195.5 -68.5q-79 0 -136.5 35.5t-87 99.5t-29.5 148q0 104 43.5 208t127 172.5t195.5 68.5q79 0 136.5 -35.5zM245.5 640q-79.5 -66 -121 -167t-41.5 -200q0 -121 62.5 -194t174.5 -73
q108 0 187.5 66t121 167t41.5 200q0 121 -62.5 194t-174.5 73q-108 0 -187.5 -66zM350 802l4 16h226l-4 -16h-226z" />
    <glyph glyph-name="omacron" unicode="&#x14d;" horiz-adv-x="528" 
d="M436.5 464.5q47.5 -53.5 47.5 -148.5q0 -74 -30.5 -150t-90 -126t-140.5 -50q-87 0 -134 53t-47 148q0 75 30.5 150.5t90 126t140.5 50.5q86 0 133.5 -53.5zM170.5 454q-55.5 -48 -84 -120.5t-28.5 -142.5q0 -88 42.5 -136.5t122.5 -48.5q77 0 132.5 48t84 120t28.5 142
q0 88 -42.5 137t-122.5 49q-77 0 -132.5 -48zM229 648l4 16h226l-4 -16h-226z" />
    <glyph glyph-name="Obreve" unicode="&#x14e;" horiz-adv-x="702" 
d="M569.5 686.5q57.5 -35.5 87 -99.5t29.5 -148q0 -104 -43.5 -208t-127 -172.5t-195.5 -68.5q-79 0 -136.5 35.5t-87 99.5t-29.5 148q0 104 43.5 208t127 172.5t195.5 68.5q79 0 136.5 -35.5zM245.5 640q-79.5 -66 -121 -167t-41.5 -200q0 -121 62.5 -194t174.5 -73
q108 0 187.5 66t121 167t41.5 200q0 121 -62.5 194t-174.5 73q-108 0 -187.5 -66zM565 792q-44 -33 -107 -33q-58 0 -88 28t-30 80q0 12 1 19h16q-1 -7 -1 -19q0 -92 102 -92q57 0 95.5 28.5t58.5 82.5h17q-20 -61 -64 -94z" />
    <glyph glyph-name="obreve" unicode="&#x14f;" horiz-adv-x="528" 
d="M436.5 464.5q47.5 -53.5 47.5 -148.5q0 -74 -30.5 -150t-90 -126t-140.5 -50q-87 0 -134 53t-47 148q0 75 30.5 150.5t90 126t140.5 50.5q86 0 133.5 -53.5zM170.5 454q-55.5 -48 -84 -120.5t-28.5 -142.5q0 -88 42.5 -136.5t122.5 -48.5q77 0 132.5 48t84 120t28.5 142
q0 88 -42.5 137t-122.5 49q-77 0 -132.5 -48zM438 618q-44 -33 -107 -33q-58 0 -88 28t-30 80q0 12 1 19h16q-1 -7 -1 -19q0 -92 102 -92q57 0 95.5 28.5t58.5 82.5h17q-20 -61 -64 -94z" />
    <glyph glyph-name="Ohungarumlaut" unicode="&#x150;" horiz-adv-x="702" 
d="M569.5 686.5q57.5 -35.5 87 -99.5t29.5 -148q0 -104 -43.5 -208t-127 -172.5t-195.5 -68.5q-79 0 -136.5 35.5t-87 99.5t-29.5 148q0 104 43.5 208t127 172.5t195.5 68.5q79 0 136.5 -35.5zM245.5 640q-79.5 -66 -121 -167t-41.5 -200q0 -121 62.5 -194t174.5 -73
q108 0 187.5 66t121 167t41.5 200q0 121 -62.5 194t-174.5 73q-108 0 -187.5 -66zM368 760l152 126h26l-157 -126h-21zM467 760l152 126h26l-157 -126h-21z" />
    <glyph glyph-name="ohungarumlaut" unicode="&#x151;" horiz-adv-x="528" 
d="M436.5 464.5q47.5 -53.5 47.5 -148.5q0 -74 -30.5 -150t-90 -126t-140.5 -50q-87 0 -134 53t-47 148q0 75 30.5 150.5t90 126t140.5 50.5q86 0 133.5 -53.5zM170.5 454q-55.5 -48 -84 -120.5t-28.5 -142.5q0 -88 42.5 -136.5t122.5 -48.5q77 0 132.5 48t84 120t28.5 142
q0 88 -42.5 137t-122.5 49q-77 0 -132.5 -48zM239 574l154 138h26l-159 -138h-21zM338 574l154 138h26l-159 -138h-21z" />
    <glyph glyph-name="OE" unicode="&#x152;" horiz-adv-x="963" 
d="M608 696l-80 -322h374l-4 -16h-374l-85 -342h405l-4 -16h-487q-137 0 -209 78t-72 224q0 98 44 192.5t136.5 156t229.5 61.5h521l-4 -16h-391zM261 636.5q-89 -59.5 -131 -150t-42 -184.5q0 -139 67 -212.5t198 -73.5h70l169 680h-110q-132 0 -221 -59.5z" />
    <glyph glyph-name="oe" unicode="&#x153;" horiz-adv-x="853" 
d="M431 171q0 -79 34.5 -122t99.5 -43q63 0 115 39t76 104h17q-26 -73 -82 -116t-126 -43q-71 0 -110 46t-41 130q-32 -78 -88 -127t-130 -49t-114.5 51t-40.5 142q0 76 29.5 154t86.5 129.5t134 51.5q72 0 112.5 -49t42.5 -137h1q33 81 90.5 133.5t133.5 52.5
q69 0 109 -45.5t40 -127.5q0 -36 -14 -86h-365q-10 -53 -10 -88zM321 55.5q53 49.5 81 123.5t28 144q0 85 -36 132t-103 47q-72 0 -125.5 -49.5t-81 -123.5t-27.5 -145q0 -85 35.5 -131.5t103.5 -46.5q72 0 125 49.5zM532.5 439.5q-60.5 -62.5 -87.5 -164.5h348q11 32 11 70
q0 76 -35.5 116.5t-97.5 40.5q-78 0 -138.5 -62.5z" />
    <glyph glyph-name="Racute" unicode="&#x154;" horiz-adv-x="591" 
d="M542.5 670.5q47.5 -41.5 47.5 -114.5q0 -46 -23.5 -90.5t-68.5 -76t-108 -40.5v-1q36 -12 54 -40t26 -93l26 -215h-16l-25 210q-6 51 -18 78.5t-37.5 40.5t-71.5 13h-185l-85 -342h-16l177 712h181q95 0 142.5 -41.5zM147 358h181q83 0 138.5 31t81.5 76.5t26 90.5
q0 67 -43 103.5t-131 36.5h-169zM342 760l137 126h24l-140 -126h-21z" />
    <glyph glyph-name="racute" unicode="&#x155;" horiz-adv-x="319" 
d="M368 508l-4 -16q-14 2 -27 2q-77 0 -136 -51t-84 -150l-73 -293h-16l127 508h16q-21 -84 -37 -132h1q71 134 206 134q13 0 27 -2zM223 574l126 138h23l-130 -138h-19z" />
    <glyph glyph-name="Rcommaaccent" unicode="&#x156;" horiz-adv-x="591" 
d="M542.5 670.5q47.5 -41.5 47.5 -114.5q0 -46 -23.5 -90.5t-68.5 -76t-108 -40.5v-1q36 -12 54 -40t26 -93l26 -215h-16l-25 210q-6 51 -18 78.5t-37.5 40.5t-71.5 13h-185l-85 -342h-16l177 712h181q95 0 142.5 -41.5zM147 358h181q83 0 138.5 31t81.5 76.5t26 90.5
q0 67 -43 103.5t-131 36.5h-169zM187 -239h-14l52 94l16 66h16l-16 -66z" />
    <glyph glyph-name="rcommaaccent" unicode="&#x157;" horiz-adv-x="319" 
d="M368 508l-4 -16q-14 2 -27 2q-77 0 -136 -51t-84 -150l-73 -293h-16l127 508h16q-21 -84 -37 -132h1q71 134 206 134q13 0 27 -2zM-46 -239h-14l52 94l16 66h16l-16 -66z" />
    <glyph glyph-name="Rcaron" unicode="&#x158;" horiz-adv-x="591" 
d="M542.5 670.5q47.5 -41.5 47.5 -114.5q0 -46 -23.5 -90.5t-68.5 -76t-108 -40.5v-1q36 -12 54 -40t26 -93l26 -215h-16l-25 210q-6 51 -18 78.5t-37.5 40.5t-71.5 13h-185l-85 -342h-16l177 712h181q95 0 142.5 -41.5zM147 358h181q83 0 138.5 31t81.5 76.5t26 90.5
q0 67 -43 103.5t-131 36.5h-169zM390 760l-88 126h19l78 -111l134 111h25l-152 -126h-16z" />
    <glyph glyph-name="rcaron" unicode="&#x159;" horiz-adv-x="319" 
d="M368 508l-4 -16q-14 2 -27 2q-77 0 -136 -51t-84 -150l-73 -293h-16l127 508h16q-21 -84 -37 -132h1q71 134 206 134q13 0 27 -2zM263 574l-85 138h19l75 -123l136 123h24l-153 -138h-16z" />
    <glyph glyph-name="Sacute" unicode="&#x15a;" horiz-adv-x="576" 
d="M566 555q0 -31 -9 -70h-16q9 39 9 70q0 77 -44.5 114t-135.5 37q-71 0 -120 -28t-73.5 -71t-24.5 -85q0 -59 37.5 -91t122.5 -60q64 -21 101.5 -41t57.5 -51t20 -81q0 -52 -28 -100t-84.5 -78t-137.5 -30q-203 0 -203 174q0 34 10 74h16q-10 -40 -10 -74q0 -80 46.5 -119
t140.5 -39q78 0 131 29t78 73t25 90q0 47 -19.5 75.5t-54.5 46t-98 37.5q-88 29 -127.5 65t-39.5 100q0 48 27.5 94t80.5 76t126 30q196 0 196 -167zM326 760l137 126h24l-140 -126h-21z" />
    <glyph glyph-name="sacute" unicode="&#x15b;" horiz-adv-x="447" 
d="M375.5 485q40.5 -33 40.5 -91q0 -25 -7 -50h-16q7 25 7 50q0 52 -35.5 80t-103.5 28q-49 0 -84 -18t-53.5 -47t-18.5 -63q0 -42 26.5 -63t89.5 -40q80 -23 114 -50.5t34 -79.5q0 -41 -22 -75.5t-65 -55t-101 -20.5q-80 0 -122 34t-42 97q0 26 7 53h16q-7 -27 -7 -53
q0 -56 37 -85.5t111 -29.5q54 0 93 18.5t59 49.5t20 67q0 46 -31 69.5t-108 46.5q-65 19 -95 44t-30 73q0 38 20.5 71t59.5 53t92 20q74 0 114.5 -33zM237 574l126 138h23l-130 -138h-19z" />
    <glyph glyph-name="Scircumflex" unicode="&#x15c;" horiz-adv-x="576" 
d="M566 555q0 -31 -9 -70h-16q9 39 9 70q0 77 -44.5 114t-135.5 37q-71 0 -120 -28t-73.5 -71t-24.5 -85q0 -59 37.5 -91t122.5 -60q64 -21 101.5 -41t57.5 -51t20 -81q0 -52 -28 -100t-84.5 -78t-137.5 -30q-203 0 -203 174q0 34 10 74h16q-10 -40 -10 -74q0 -80 46.5 -119
t140.5 -39q78 0 131 29t78 73t25 90q0 47 -19.5 75.5t-54.5 46t-98 37.5q-88 29 -127.5 65t-39.5 100q0 48 27.5 94t80.5 76t126 30q196 0 196 -167zM422 886l88 -126h-19l-78 111l-134 -111h-25l152 126h16z" />
    <glyph glyph-name="scircumflex" unicode="&#x15d;" horiz-adv-x="447" 
d="M375.5 485q40.5 -33 40.5 -91q0 -25 -7 -50h-16q7 25 7 50q0 52 -35.5 80t-103.5 28q-49 0 -84 -18t-53.5 -47t-18.5 -63q0 -42 26.5 -63t89.5 -40q80 -23 114 -50.5t34 -79.5q0 -41 -22 -75.5t-65 -55t-101 -20.5q-80 0 -122 34t-42 97q0 26 7 53h16q-7 -27 -7 -53
q0 -56 37 -85.5t111 -29.5q54 0 93 18.5t59 49.5t20 67q0 46 -31 69.5t-108 46.5q-65 19 -95 44t-30 73q0 38 20.5 71t59.5 53t92 20q74 0 114.5 -33zM393 574l-75 123l-136 -123h-24l153 138h16l85 -138h-19z" />
    <glyph glyph-name="Scedilla" unicode="&#x15e;" horiz-adv-x="576" 
d="M566 555q0 -31 -9 -70h-16q9 39 9 70q0 77 -44.5 114t-135.5 37q-71 0 -120 -28t-73.5 -71t-24.5 -85q0 -59 37.5 -91t122.5 -60q64 -21 101.5 -41t57.5 -51t20 -81t-26 -96t-78.5 -77t-127.5 -35l-55 -58q8 2 16 2q33 0 50.5 -16t17.5 -45q0 -34 -27 -56t-70 -22
q-49 0 -88 23l8 14q33 -21 80 -21q36 0 58.5 17t22.5 45q0 22 -13 34t-39 12q-17 0 -34 -5l-10 11l61 65q-199 2 -199 174q0 34 10 74h16q-10 -40 -10 -74q0 -80 46.5 -119t140.5 -39q78 0 131 29t78 73t25 90q0 47 -19.5 75.5t-54.5 46t-98 37.5q-88 29 -127.5 65
t-39.5 100q0 48 27.5 94t80.5 76t126 30q196 0 196 -167z" />
    <glyph glyph-name="scedilla" unicode="&#x15f;" horiz-adv-x="447" 
d="M375.5 485q40.5 -33 40.5 -91q0 -25 -7 -50h-16q7 25 7 50q0 52 -35.5 80t-103.5 28q-49 0 -84 -18t-53.5 -47t-18.5 -63q0 -42 26.5 -63t89.5 -40q80 -23 114 -50.5t34 -79.5q0 -39 -20.5 -72.5t-60 -55t-94.5 -23.5l-55 -58q8 2 16 2q33 0 50.5 -16t17.5 -45
q0 -34 -27 -56t-70 -22q-49 0 -88 23l8 14q33 -21 80 -21q36 0 58.5 17t22.5 45q0 22 -13 34t-39 12q-17 0 -34 -5l-10 11l61 65q-76 2 -115.5 36t-39.5 95q0 26 7 53h16q-7 -27 -7 -53q0 -56 37 -85.5t111 -29.5q54 0 93 18.5t59 49.5t20 67q0 46 -31 69.5t-108 46.5
q-65 19 -95 44t-30 73q0 38 20.5 71t59.5 53t92 20q74 0 114.5 -33z" />
    <glyph glyph-name="Scaron" unicode="&#x160;" horiz-adv-x="576" 
d="M566 555q0 -31 -9 -70h-16q9 39 9 70q0 77 -44.5 114t-135.5 37q-71 0 -120 -28t-73.5 -71t-24.5 -85q0 -59 37.5 -91t122.5 -60q64 -21 101.5 -41t57.5 -51t20 -81q0 -52 -28 -100t-84.5 -78t-137.5 -30q-203 0 -203 174q0 34 10 74h16q-10 -40 -10 -74q0 -80 46.5 -119
t140.5 -39q78 0 131 29t78 73t25 90q0 47 -19.5 75.5t-54.5 46t-98 37.5q-88 29 -127.5 65t-39.5 100q0 48 27.5 94t80.5 76t126 30q196 0 196 -167zM374 760l-88 126h19l78 -111l134 111h25l-152 -126h-16z" />
    <glyph glyph-name="scaron" unicode="&#x161;" horiz-adv-x="447" 
d="M375.5 485q40.5 -33 40.5 -91q0 -25 -7 -50h-16q7 25 7 50q0 52 -35.5 80t-103.5 28q-49 0 -84 -18t-53.5 -47t-18.5 -63q0 -42 26.5 -63t89.5 -40q80 -23 114 -50.5t34 -79.5q0 -41 -22 -75.5t-65 -55t-101 -20.5q-80 0 -122 34t-42 97q0 26 7 53h16q-7 -27 -7 -53
q0 -56 37 -85.5t111 -29.5q54 0 93 18.5t59 49.5t20 67q0 46 -31 69.5t-108 46.5q-65 19 -95 44t-30 73q0 38 20.5 71t59.5 53t92 20q74 0 114.5 -33zM277 574l-85 138h19l75 -123l136 123h24l-153 -138h-16z" />
    <glyph glyph-name="uni0162" unicode="&#x162;" horiz-adv-x="568" 
d="M402 696l-173 -696h-16l173 696h-271l4 16h558l-4 -16h-271zM144 -239h-14l52 94l16 66h16l-16 -66z" />
    <glyph glyph-name="uni0163" unicode="&#x163;" horiz-adv-x="270" 
d="M85 65q0 -27 14 -39t44 -12q18 0 36 4l-4 -17q-12 -3 -32 -3q-74 0 -74 67q0 22 8 53l94 374h-98l4 16h98l29 117h16l-29 -117h105l-4 -16h-105l-95 -378q-7 -28 -7 -49zM88 -79l-16 -66l-54 -94h-14l52 94l16 66h16z" />
    <glyph glyph-name="Tcaron" unicode="&#x164;" horiz-adv-x="568" 
d="M402 696l-173 -696h-16l173 696h-271l4 16h558l-4 -16h-271zM392 760l-88 126h19l78 -111l134 111h25l-152 -126h-16z" />
    <glyph glyph-name="tcaron" unicode="&#x165;" horiz-adv-x="270" 
d="M85 65q0 -27 14 -39t44 -12q18 0 36 4l-4 -17q-12 -3 -32 -3q-74 0 -74 67q0 22 8 53l94 374h-98l4 16h98l29 117h16l-29 -117h105l-4 -16h-105l-95 -378q-7 -28 -7 -49zM258 538l83 174h18l-86 -174h-15z" />
    <glyph glyph-name="Tbar" unicode="&#x166;" horiz-adv-x="568" 
d="M333 418h158l-4 -16h-158l-100 -402h-16l100 402h-158l4 16h158l69 278h-271l4 16h558l-4 -16h-271z" />
    <glyph glyph-name="tbar" unicode="&#x167;" horiz-adv-x="270" 
d="M136 288h103l-4 -16h-103l-40 -158q-7 -28 -7 -49q0 -27 14 -39t44 -12q18 0 36 4l-4 -17q-12 -3 -32 -3q-74 0 -74 67q0 22 8 53l39 154h-96l4 16h96l51 204h-98l4 16h98l29 117h16l-29 -117h105l-4 -16h-105z" />
    <glyph glyph-name="Utilde" unicode="&#x168;" horiz-adv-x="670" 
d="M463 52q-72 -62 -180 -62q-192 0 -192 191q0 45 15 103l107 428h16l-108 -432q-14 -58 -14 -99q0 -88 43.5 -131.5t132.5 -43.5q102 0 170.5 58.5t97.5 175.5l118 472h16l-119 -476q-31 -122 -103 -184zM589 816q-23 -21 -52 -21q-21 0 -36.5 8.5t-34.5 25.5
q-19 16 -32 23.5t-31 7.5q-23 0 -41.5 -16.5t-28.5 -48.5h-17q13 39 36 60t52 21q21 0 36.5 -8.5t34.5 -25.5q19 -16 32 -23.5t31 -7.5q23 0 41.5 16.5t28.5 48.5h17q-13 -39 -36 -60z" />
    <glyph glyph-name="utilde" unicode="&#x169;" horiz-adv-x="537" 
d="M98 26q-37 36 -37 104q0 35 12 81l74 297h16l-75 -301q-11 -46 -11 -77q0 -61 32.5 -92.5t92.5 -31.5q47 0 91 23.5t76.5 65.5t45.5 95l79 318h16l-127 -508h-16l27 107h-1q-33 -55 -84.5 -86t-107.5 -31q-66 0 -103 36zM479 642q-23 -21 -52 -21q-21 0 -36.5 8.5
t-34.5 25.5q-18 16 -31 23.5t-31 7.5q-23 0 -41.5 -16.5t-28.5 -48.5h-17q13 39 36 60t52 21q21 0 36.5 -8.5t34.5 -25.5q18 -16 31 -23.5t31 -7.5q23 0 41.5 16.5t28.5 48.5h17q-13 -39 -36 -60z" />
    <glyph glyph-name="Umacron" unicode="&#x16a;" horiz-adv-x="670" 
d="M463 52q-72 -62 -180 -62q-192 0 -192 191q0 45 15 103l107 428h16l-108 -432q-14 -58 -14 -99q0 -88 43.5 -131.5t132.5 -43.5q102 0 170.5 58.5t97.5 175.5l118 472h16l-119 -476q-31 -122 -103 -184zM348 802l4 16h226l-4 -16h-226z" />
    <glyph glyph-name="umacron" unicode="&#x16b;" horiz-adv-x="537" 
d="M98 26q-37 36 -37 104q0 35 12 81l74 297h16l-75 -301q-11 -46 -11 -77q0 -61 32.5 -92.5t92.5 -31.5q47 0 91 23.5t76.5 65.5t45.5 95l79 318h16l-127 -508h-16l27 107h-1q-33 -55 -84.5 -86t-107.5 -31q-66 0 -103 36zM244 648l4 16h226l-4 -16h-226z" />
    <glyph glyph-name="Ubreve" unicode="&#x16c;" horiz-adv-x="670" 
d="M463 52q-72 -62 -180 -62q-192 0 -192 191q0 45 15 103l107 428h16l-108 -432q-14 -58 -14 -99q0 -88 43.5 -131.5t132.5 -43.5q102 0 170.5 58.5t97.5 175.5l118 472h16l-119 -476q-31 -122 -103 -184zM563 792q-44 -33 -107 -33q-58 0 -88 28t-30 80q0 12 1 19h16
q-1 -7 -1 -19q0 -92 102 -92q57 0 95.5 28.5t58.5 82.5h17q-20 -61 -64 -94z" />
    <glyph glyph-name="ubreve" unicode="&#x16d;" horiz-adv-x="537" 
d="M98 26q-37 36 -37 104q0 35 12 81l74 297h16l-75 -301q-11 -46 -11 -77q0 -61 32.5 -92.5t92.5 -31.5q47 0 91 23.5t76.5 65.5t45.5 95l79 318h16l-127 -508h-16l27 107h-1q-33 -55 -84.5 -86t-107.5 -31q-66 0 -103 36zM453 618q-44 -33 -107 -33q-58 0 -88 28t-30 80
q0 12 1 19h16q-1 -7 -1 -19q0 -92 102 -92q57 0 95.5 28.5t58.5 82.5h17q-20 -61 -64 -94z" />
    <glyph glyph-name="Uring" unicode="&#x16e;" horiz-adv-x="670" 
d="M463 52q-72 -62 -180 -62q-192 0 -192 191q0 45 15 103l107 428h16l-108 -432q-14 -58 -14 -99q0 -88 43.5 -131.5t132.5 -43.5q102 0 170.5 58.5t97.5 175.5l118 472h16l-119 -476q-31 -122 -103 -184zM523.5 910.5q24.5 -24.5 24.5 -59.5t-24.5 -59.5t-59.5 -24.5
t-59.5 24.5t-24.5 59.5t25 59.5t59 24.5q35 0 59.5 -24.5zM416 899.5q-20 -19.5 -20 -48.5q0 -28 20 -48t48 -20q29 0 48.5 20t19.5 48q0 29 -19.5 48.5t-48.5 19.5q-28 0 -48 -19.5z" />
    <glyph glyph-name="uring" unicode="&#x16f;" horiz-adv-x="537" 
d="M98 26q-37 36 -37 104q0 35 12 81l74 297h16l-75 -301q-11 -46 -11 -77q0 -61 32.5 -92.5t92.5 -31.5q47 0 91 23.5t76.5 65.5t45.5 95l79 318h16l-127 -508h-16l27 107h-1q-33 -55 -84.5 -86t-107.5 -31q-66 0 -103 36zM413.5 736.5q24.5 -24.5 24.5 -59.5t-24.5 -59.5
t-59.5 -24.5t-59.5 24.5t-24.5 59.5t25 59.5t59 24.5q35 0 59.5 -24.5zM306 725.5q-20 -19.5 -20 -48.5q0 -28 20 -48t48 -20q29 0 48.5 20t19.5 48q0 29 -19.5 48.5t-48.5 19.5q-28 0 -48 -19.5z" />
    <glyph glyph-name="Uhungarumlaut" unicode="&#x170;" horiz-adv-x="670" 
d="M463 52q-72 -62 -180 -62q-192 0 -192 191q0 45 15 103l107 428h16l-108 -432q-14 -58 -14 -99q0 -88 43.5 -131.5t132.5 -43.5q102 0 170.5 58.5t97.5 175.5l118 472h16l-119 -476q-31 -122 -103 -184zM366 760l152 126h26l-157 -126h-21zM465 760l152 126h26l-157 -126
h-21z" />
    <glyph glyph-name="uhungarumlaut" unicode="&#x171;" horiz-adv-x="537" 
d="M98 26q-37 36 -37 104q0 35 12 81l74 297h16l-75 -301q-11 -46 -11 -77q0 -61 32.5 -92.5t92.5 -31.5q47 0 91 23.5t76.5 65.5t45.5 95l79 318h16l-127 -508h-16l27 107h-1q-33 -55 -84.5 -86t-107.5 -31q-66 0 -103 36zM254 574l154 138h26l-159 -138h-21zM353 574
l154 138h26l-159 -138h-21z" />
    <glyph glyph-name="Uogonek" unicode="&#x172;" horiz-adv-x="670" 
d="M434 31q-64 -43 -97.5 -72t-46 -50t-12.5 -43q0 -20 10 -29.5t33 -9.5q18 0 33 5l-4 -17q-16 -4 -29 -4q-59 0 -59 55q0 32 23.5 63t81.5 71v1q-41 -11 -84 -11q-194 0 -194 183q0 45 15 103l109 436h16l-110 -440q-14 -58 -14 -99q0 -84 44 -125.5t134 -41.5
q103 0 171 60.5t99 181.5l116 464h16l-117 -468q-37 -149 -134 -213z" />
    <glyph glyph-name="uogonek" unicode="&#x173;" horiz-adv-x="537" 
d="M292.5 -75q-24.5 -31 -24.5 -59q0 -20 10 -29.5t33 -9.5q18 0 33 5l-4 -17q-16 -4 -29 -4q-59 0 -59 55q0 34 26 66.5t91 75.5l25 99h-1q-33 -55 -84.5 -86t-107.5 -31q-66 0 -103 36t-37 104q0 35 12 81l74 297h16l-75 -301q-11 -46 -11 -77q0 -61 32.5 -92.5
t92.5 -31.5q47 0 91 23.5t76.5 65.5t45.5 95l79 318h16l-127 -508q-66 -44 -90.5 -75z" />
    <glyph glyph-name="Wcircumflex" unicode="&#x174;" horiz-adv-x="861" 
d="M561 0l-10 339q-4 119 -10 357h-1l-187 -357l-177 -339h-25l-25 712h16l12 -346l12 -349h1l183 351l180 344h27l9 -344l10 -351h1l185 349l183 346h18l-377 -712h-25zM596 886l88 -126h-19l-78 111l-134 -111h-25l152 126h16z" />
    <glyph glyph-name="wcircumflex" unicode="&#x175;" horiz-adv-x="746" 
d="M477 0l-23 264l-3 31q-12 137 -17 198h-2q-23 -38 -67 -114l-68 -115l-154 -264h-26l-44 508h16l22 -247l21 -245h2l146 250l142 242h26l22 -243q14 -166 22 -249h2l143 245l144 247h18l-296 -508h-26zM560 574l-75 123l-136 -123h-24l153 138h16l85 -138h-19z" />
    <glyph glyph-name="Ycircumflex" unicode="&#x176;" horiz-adv-x="570" 
d="M230 0h-16l79 318l-172 394h17l75 -171l90 -206h1l197 211l155 166h21l-368 -394zM441 886l88 -126h-19l-78 111l-134 -111h-25l152 126h16z" />
    <glyph glyph-name="ycircumflex" unicode="&#x177;" horiz-adv-x="431" 
d="M70 -120q-35 -39 -64.5 -54t-66.5 -15q-28 0 -43 7l4 16q14 -7 39 -7q32 0 59.5 13.5t60.5 51t80 108.5l-74 508h16l71 -486h1l320 486h19l-338 -514q-49 -75 -84 -114zM384 574l-75 123l-136 -123h-24l153 138h16l85 -138h-19z" />
    <glyph glyph-name="Ydieresis" unicode="&#x178;" horiz-adv-x="570" 
d="M230 0h-16l79 318l-172 394h17l75 -171l90 -206h1l197 211l155 166h21l-368 -394zM306 779l20 77h16l-20 -77h-16zM490 779l20 77h16l-20 -77h-16z" />
    <glyph glyph-name="Zacute" unicode="&#x179;" horiz-adv-x="547" 
d="M-24 17v-1h495l-4 -16h-513l6 24l640 671v1h-468l4 16h486l-6 -24zM325 760l137 126h24l-140 -126h-21z" />
    <glyph glyph-name="zacute" unicode="&#x17a;" horiz-adv-x="441" 
d="M-21 18v-2h383l-4 -16h-401l6 24l489 466v2h-362l4 16h381l-6 -24zM243 574l126 138h23l-130 -138h-19z" />
    <glyph glyph-name="Zdotaccent" unicode="&#x17b;" horiz-adv-x="547" 
d="M-24 17v-1h495l-4 -16h-513l6 24l640 671v1h-468l4 16h486l-6 -24zM378 779l20 77h16l-20 -77h-16z" />
    <glyph glyph-name="zdotaccent" unicode="&#x17c;" horiz-adv-x="441" 
d="M-21 18v-2h383l-4 -16h-401l6 24l489 466v2h-362l4 16h381l-6 -24zM298 635l19 77h16l-19 -77h-16z" />
    <glyph glyph-name="Zcaron" unicode="&#x17d;" horiz-adv-x="547" 
d="M-24 17v-1h495l-4 -16h-513l6 24l640 671v1h-468l4 16h486l-6 -24zM373 760l-88 126h19l78 -111l134 111h25l-152 -126h-16z" />
    <glyph glyph-name="zcaron" unicode="&#x17e;" horiz-adv-x="441" 
d="M-21 18v-2h383l-4 -16h-401l6 24l489 466v2h-362l4 16h381l-6 -24zM283 574l-85 138h19l75 -123l136 123h24l-153 -138h-16z" />
    <glyph glyph-name="longs" unicode="&#x17f;" horiz-adv-x="252" 
d="M350 711l-4 -15q-10 3 -24 3q-83 0 -111 -109l-147 -590h-16l123 492h-97l4 16h97l21 86q15 60 47 90.5t79 30.5q16 0 28 -4z" />
    <glyph glyph-name="florin" unicode="&#x192;" 
d="M587 710l-4 -16q-9 3 -21 3q-33 0 -56 -12t-43.5 -39.5t-46.5 -78.5l-51 -99h99l-4 -16h-103l-240 -478q-46 -91 -85 -125.5t-91 -34.5q-13 0 -23 2l4 16q8 -2 19 -2q31 0 56 13t50.5 46t55.5 93l236 470h-100l4 16h104l53 103q41 80 75.5 111t86.5 31q14 0 25 -3z" />
    <glyph glyph-name="Scommaaccent" unicode="&#x218;" horiz-adv-x="576" 
d="M566 555q0 -31 -9 -70h-16q9 39 9 70q0 77 -44.5 114t-135.5 37q-71 0 -120 -28t-73.5 -71t-24.5 -85q0 -59 37.5 -91t122.5 -60q64 -21 101.5 -41t57.5 -51t20 -81q0 -52 -28 -100t-84.5 -78t-137.5 -30q-203 0 -203 174q0 34 10 74h16q-10 -40 -10 -74q0 -80 46.5 -119
t140.5 -39q78 0 131 29t78 73t25 90q0 47 -19.5 75.5t-54.5 46t-98 37.5q-88 29 -127.5 65t-39.5 100q0 48 27.5 94t80.5 76t126 30q196 0 196 -167zM153 -239h-14l52 94l16 66h16l-16 -66z" />
    <glyph glyph-name="scommaaccent" unicode="&#x219;" horiz-adv-x="447" 
d="M375.5 485q40.5 -33 40.5 -91q0 -25 -7 -50h-16q7 25 7 50q0 52 -35.5 80t-103.5 28q-49 0 -84 -18t-53.5 -47t-18.5 -63q0 -42 26.5 -63t89.5 -40q80 -23 114 -50.5t34 -79.5q0 -41 -22 -75.5t-65 -55t-101 -20.5q-80 0 -122 34t-42 97q0 26 7 53h16q-7 -27 -7 -53
q0 -56 37 -85.5t111 -29.5q54 0 93 18.5t59 49.5t20 67q0 46 -31 69.5t-108 46.5q-65 19 -95 44t-30 73q0 38 20.5 71t59.5 53t92 20q74 0 114.5 -33zM88 -239h-14l52 94l16 66h16l-16 -66z" />
    <glyph glyph-name="uni021A" unicode="&#x21a;" horiz-adv-x="568" 
d="M402 696l-173 -696h-16l173 696h-271l4 16h558l-4 -16h-271zM144 -239h-14l52 94l16 66h16l-16 -66z" />
    <glyph glyph-name="uni021B" unicode="&#x21b;" horiz-adv-x="270" 
d="M85 65q0 -27 14 -39t44 -12q18 0 36 4l-4 -17q-12 -3 -32 -3q-74 0 -74 67q0 22 8 53l94 374h-98l4 16h98l29 117h16l-29 -117h105l-4 -16h-105l-95 -378q-7 -28 -7 -49zM18 -239h-14l52 94l16 66h16l-16 -66z" />
    <glyph glyph-name="dotlessj" unicode="&#x237;" horiz-adv-x="209" 
d="M-11 -155.5q-35 -31.5 -87 -31.5q-12 0 -20 3l4 15q6 -2 16 -2q47 0 77.5 28t48.5 99l137 552h16l-138 -556q-19 -76 -54 -107.5z" />
    <glyph glyph-name="uni02BC" unicode="&#x2bc;" horiz-adv-x="155" 
d="M126 514h-14l64 127l18 71h16l-18 -71z" />
    <glyph glyph-name="circumflex" unicode="&#x2c6;" horiz-adv-x="354" 
d="M365 574l-75 123l-136 -123h-24l153 138h16l85 -138h-19z" />
    <glyph glyph-name="caron" unicode="&#x2c7;" horiz-adv-x="355" 
d="M250 574l-85 138h19l75 -123l136 123h24l-153 -138h-16z" />
    <glyph glyph-name="uni02C9" unicode="&#x2c9;" horiz-adv-x="327" 
d="M149 648l4 16h226l-4 -16h-226z" />
    <glyph glyph-name="breve" unicode="&#x2d8;" horiz-adv-x="388" 
d="M388 618q-44 -33 -107 -33q-58 0 -88 28t-30 80q0 12 1 19h16q-1 -7 -1 -19q0 -92 102 -92q57 0 95.5 28.5t58.5 82.5h17q-20 -61 -64 -94z" />
    <glyph glyph-name="dotaccent" unicode="&#x2d9;" horiz-adv-x="117" 
d="M146 635l19 77h16l-19 -77h-16z" />
    <glyph glyph-name="ring" unicode="&#x2da;" horiz-adv-x="273" 
d="M301.5 736.5q24.5 -24.5 24.5 -59.5t-24.5 -59.5t-59.5 -24.5t-59.5 24.5t-24.5 59.5t25 59.5t59 24.5q35 0 59.5 -24.5zM194 725.5q-20 -19.5 -20 -48.5q0 -28 20 -48t48 -20q29 0 48.5 20t19.5 48q0 29 -19.5 48.5t-48.5 19.5q-28 0 -48 -19.5z" />
    <glyph glyph-name="ogonek" unicode="&#x2db;" horiz-adv-x="204" 
d="M-2.5 -75q-24.5 -31 -24.5 -59q0 -20 10 -29.5t33 -9.5q18 0 33 5l-4 -17q-16 -4 -29 -4q-59 0 -59 55q0 34 26 66.5t91 75.5l14 -8q-66 -44 -90.5 -75z" />
    <glyph glyph-name="tilde" unicode="&#x2dc;" horiz-adv-x="388" 
d="M414 642q-23 -21 -52 -21q-21 0 -36.5 8.5t-34.5 25.5q-18 16 -31 23.5t-31 7.5q-23 0 -41.5 -16.5t-28.5 -48.5h-17q13 39 36 60t52 21q21 0 36.5 -8.5t34.5 -25.5q18 -16 31 -23.5t31 -7.5q23 0 41.5 16.5t28.5 48.5h17q-13 -39 -36 -60z" />
    <glyph glyph-name="hungarumlaut" unicode="&#x2dd;" horiz-adv-x="345" 
d="M130 574l154 138h26l-159 -138h-21zM229 574l154 138h26l-159 -138h-21z" />
    <glyph glyph-name="uni0312" unicode="&#x312;" horiz-adv-x="0" 
d="M149 587h-16l16 66l53 94h15l-52 -94z" />
    <glyph glyph-name="commaaccent" unicode="&#x326;" horiz-adv-x="0" 
d="M-58 -239h-14l52 94l16 66h16l-16 -66z" />
    <glyph glyph-name="uni0394" unicode="&#x394;" horiz-adv-x="633" 
d="M-57 0l477 712h22l122 -712h-621zM483 380q-36 214 -54 316h-1l-212 -316l-244 -364h573z" />
    <glyph glyph-name="uni03A9" unicode="&#x3a9;" horiz-adv-x="714" 
d="M631 662.5q67 -59.5 67 -175.5q0 -125 -74 -238t-222 -232v-1h206l-4 -16h-230l4 16q155 125 229.5 236.5t74.5 234.5q0 109 -62.5 164t-173.5 55q-109 0 -187 -56t-117.5 -143.5t-39.5 -180.5q0 -82 28 -155.5t80 -154.5l-4 -16h-222l4 16h204v1q-51 79 -78.5 152.5
t-27.5 156.5q0 97 41.5 188.5t123.5 149.5t195 58q118 0 185 -59.5z" />
    <glyph glyph-name="uni03BC" unicode="&#x3bc;" horiz-adv-x="547" 
d="M405 48q0 -19 8.5 -27t27.5 -8q13 0 25 4l-4 -17q-10 -3 -21 -3q-52 0 -52 51q0 24 15 71h-1q-28 -59 -80.5 -94t-111.5 -35q-67 0 -102.5 33.5t-36.5 101.5h-1q-13 -66 -28 -125l-46 -185h-16l173 693h16l-75 -301q-11 -46 -11 -77q0 -61 33 -92.5t94 -31.5
q44 0 87 22.5t75.5 65.5t46.5 100l78 314h16l-99 -399q-10 -39 -10 -61z" />
    <glyph glyph-name="pi" unicode="&#x3c0;" horiz-adv-x="625" 
d="M524 492l-88 -355q-8 -31 -8 -56q0 -38 16.5 -53t50.5 -15q16 0 27 4l-4 -17q-10 -3 -23 -3q-40 0 -61.5 19.5t-21.5 64.5q0 24 9 60l87 351h-300l-122 -492h-16l122 492h-118l4 16h590l-4 -16h-140z" />
    <glyph glyph-name="Wgrave" unicode="&#x1e80;" horiz-adv-x="861" 
d="M561 0l-10 339q-4 119 -10 357h-1l-187 -357l-177 -339h-25l-25 712h16l12 -346l12 -349h1l183 351l180 344h27l9 -344l10 -351h1l185 349l183 346h18l-377 -712h-25zM595 760l-80 126h20l77 -126h-17z" />
    <glyph glyph-name="wgrave" unicode="&#x1e81;" horiz-adv-x="746" 
d="M477 0l-23 264l-3 31q-12 137 -17 198h-2q-23 -38 -67 -114l-68 -115l-154 -264h-26l-44 508h16l22 -247l21 -245h2l146 250l142 242h26l22 -243q14 -166 22 -249h2l143 245l144 247h18l-296 -508h-26zM501 574h-15l-66 138h19z" />
    <glyph glyph-name="Wacute" unicode="&#x1e82;" horiz-adv-x="861" 
d="M561 0l-10 339q-4 119 -10 357h-1l-187 -357l-177 -339h-25l-25 712h16l12 -346l12 -349h1l183 351l180 344h27l9 -344l10 -351h1l185 349l183 346h18l-377 -712h-25zM500 760l137 126h24l-140 -126h-21z" />
    <glyph glyph-name="wacute" unicode="&#x1e83;" horiz-adv-x="746" 
d="M477 0l-23 264l-3 31q-12 137 -17 198h-2q-23 -38 -67 -114l-68 -115l-154 -264h-26l-44 508h16l22 -247l21 -245h2l146 250l142 242h26l22 -243q14 -166 22 -249h2l143 245l144 247h18l-296 -508h-26zM404 574l126 138h23l-130 -138h-19z" />
    <glyph glyph-name="Wdieresis" unicode="&#x1e84;" horiz-adv-x="861" 
d="M561 0l-10 339q-4 119 -10 357h-1l-187 -357l-177 -339h-25l-25 712h16l12 -346l12 -349h1l183 351l180 344h27l9 -344l10 -351h1l185 349l183 346h18l-377 -712h-25zM461 779l20 77h16l-20 -77h-16zM645 779l20 77h16l-20 -77h-16z" />
    <glyph glyph-name="wdieresis" unicode="&#x1e85;" horiz-adv-x="746" 
d="M477 0l-23 264l-3 31q-12 137 -17 198h-2q-23 -38 -67 -114l-68 -115l-154 -264h-26l-44 508h16l22 -247l21 -245h2l146 250l142 242h26l22 -243q14 -166 22 -249h2l143 245l144 247h18l-296 -508h-26zM367 635l19 77h16l-19 -77h-16zM551 635l19 77h16l-19 -77h-16z" />
    <glyph glyph-name="Germandbls" unicode="&#x1e9e;" horiz-adv-x="717" 
d="M595 346q52 -48 52 -135q0 -54 -28.5 -105t-85.5 -83.5t-136 -32.5q-85 0 -129.5 34t-44.5 98q0 19 4 36h16q-4 -17 -4 -36q0 -57 40 -86.5t119 -29.5q77 0 129.5 30.5t78 78t25.5 96.5q0 85 -52.5 129t-160.5 56l4 16l254 207q-29 41 -80.5 64t-119.5 23
q-125 0 -205 -66.5t-113 -197.5l-110 -442h-16l111 446q34 136 118.5 206t214.5 70q77 0 134.5 -28.5t86.5 -77.5l-254 -207q100 -15 152 -63z" />
    <glyph glyph-name="Ygrave" unicode="&#x1ef2;" horiz-adv-x="570" 
d="M230 0h-16l79 318l-172 394h17l75 -171l90 -206h1l197 211l155 166h21l-368 -394zM440 760l-80 126h20l77 -126h-17z" />
    <glyph glyph-name="ygrave" unicode="&#x1ef3;" horiz-adv-x="431" 
d="M70 -120q-35 -39 -64.5 -54t-66.5 -15q-28 0 -43 7l4 16q14 -7 39 -7q32 0 59.5 13.5t60.5 51t80 108.5l-74 508h16l71 -486h1l320 486h19l-338 -514q-49 -75 -84 -114zM325 574h-15l-66 138h19z" />
    <glyph glyph-name="uni2010" unicode="&#x2010;" horiz-adv-x="274" 
d="M37 284l4 16h214l-4 -16h-214z" />
    <glyph glyph-name="endash" unicode="&#x2013;" 
d="M27 284l4 16h460l-4 -16h-460z" />
    <glyph glyph-name="emdash" unicode="&#x2014;" horiz-adv-x="1000" 
d="M27 284l4 16h960l-4 -16h-960z" />
    <glyph glyph-name="uni2015" unicode="&#x2015;" horiz-adv-x="1000" 
d="M-36 284l4 16h960l-4 -16h-960z" />
    <glyph glyph-name="underscoredbl" unicode="&#x2017;" 
d="M-80 -66l4 16h500l-4 -16h-500zM-110 -186l4 16h500l-4 -16h-500z" />
    <glyph glyph-name="quoteleft" unicode="&#x2018;" horiz-adv-x="156" 
d="M209 712h14l-64 -127l-18 -71h-16l18 71z" />
    <glyph glyph-name="quoteright" unicode="&#x2019;" horiz-adv-x="156" 
d="M126 514h-14l64 127l18 71h16l-18 -71z" />
    <glyph glyph-name="quotesinglbase" unicode="&#x201a;" horiz-adv-x="156" 
d="M-38 -144h-14l64 127l18 71h16l-18 -71z" />
    <glyph glyph-name="quotedblleft" unicode="&#x201c;" horiz-adv-x="258" 
d="M209 712h14l-64 -127l-18 -71h-16l18 71zM311 712h14l-64 -127l-18 -71h-16l18 71z" />
    <glyph glyph-name="quotedblright" unicode="&#x201d;" horiz-adv-x="258" 
d="M126 514h-14l64 127l18 71h16l-18 -71zM228 514h-14l64 127l18 71h16l-18 -71z" />
    <glyph glyph-name="quotedblbase" unicode="&#x201e;" horiz-adv-x="258" 
d="M-38 -144h-14l64 127l18 71h16l-18 -71zM64 -144h-14l64 127l18 71h16l-18 -71z" />
    <glyph glyph-name="dagger" unicode="&#x2020;" 
d="M507 497l-4 -16h-188l-150 -601h-16l150 601h-188l4 16h188l53 215h16l-53 -215h188z" />
    <glyph glyph-name="daggerdbl" unicode="&#x2021;" 
d="M507 497l-4 -16h-188l-72 -286h188l-4 -16h-188l-74 -299h-16l74 299h-188l4 16h188l72 286h-188l4 16h188l53 215h16l-53 -215h188z" />
    <glyph glyph-name="bullet" unicode="&#x2022;" horiz-adv-x="300" 
d="M86.5 292.5q-26.5 26.5 -26.5 63.5t26.5 63.5t63.5 26.5t63.5 -26.5t26.5 -63.5t-26 -63.5t-64 -26.5q-37 0 -63.5 26.5z" />
    <glyph glyph-name="ellipsis" unicode="&#x2026;" horiz-adv-x="476" 
d="M-4 0l18 72h18l-18 -72h-18zM166 0l18 72h18l-18 -72h-18zM336 0l18 72h18l-18 -72h-18z" />
    <glyph glyph-name="perthousand" unicode="&#x2030;" horiz-adv-x="844" 
d="M-12 -30l604 734h21l-604 -734h-21zM302.5 658q21.5 -28 21.5 -82q0 -44 -16.5 -92t-49.5 -81t-79 -33q-42 0 -63.5 28t-21.5 82q0 43 16.5 91.5t49.5 81.5t79 33q42 0 63.5 -28zM168.5 639q-29.5 -31 -44 -75t-14.5 -84q0 -95 70 -95q41 0 70 31t43.5 75.5t14.5 84.5
q0 94 -69 94q-41 0 -70.5 -31zM486.5 278q21.5 -28 21.5 -82q0 -44 -16.5 -92t-49.5 -81t-79 -33q-42 0 -63.5 28t-21.5 82q0 43 16.5 91.5t49.5 81.5t79 33q42 0 63.5 -28zM770.5 278q21.5 -28 21.5 -82q0 -44 -16.5 -92t-49.5 -81t-79 -33q-42 0 -63.5 28t-21.5 82
q0 43 16.5 91.5t49.5 81.5t79 33q42 0 63.5 -28zM352.5 259q-29.5 -31 -44 -75t-14.5 -84q0 -95 70 -95q41 0 70 31t43.5 75.5t14.5 84.5q0 94 -69 94q-41 0 -70.5 -31zM636.5 259q-29.5 -31 -44 -75t-14.5 -84q0 -95 70 -95q41 0 70 31t43.5 75.5t14.5 84.5q0 94 -69 94
q-41 0 -70.5 -31z" />
    <glyph glyph-name="guilsinglleft" unicode="&#x2039;" horiz-adv-x="242" 
d="M137 54h-17l-65 200l162 200h20l-164 -203z" />
    <glyph glyph-name="guilsinglright" unicode="&#x203a;" horiz-adv-x="242" 
d="M105 454h17l65 -200l-162 -200h-20l164 203z" />
    <glyph glyph-name="interrobang" unicode="&#x203d;" horiz-adv-x="468" 
d="M440.5 584q39.5 -40 39.5 -101q0 -51 -32 -95t-115 -97q-44 -28 -65 -45.5t-33.5 -41.5t-23.5 -67h-13l116 479h-3q-76 0 -131 -42t-78 -121h-16q26 89 84.5 134t140.5 45h7l19 80h18l-21 -81q67 -7 106.5 -47zM434.5 396.5q29.5 41.5 29.5 86.5q0 55 -36 91t-98 41
l-99 -391h1q11 20 31 37t63 44q79 50 108.5 91.5zM200 69l-17 -69h-18l17 69h18z" />
    <glyph glyph-name="overline" unicode="&#x203e;" 
d="M137 802l4 16h500l-4 -16h-500z" />
    <glyph glyph-name="fraction" unicode="&#x2044;" horiz-adv-x="102" 
d="M-218 0l562 674h18l-562 -674h-18z" />
    <glyph glyph-name="zero.superior" unicode="&#x2070;" horiz-adv-x="392" 
d="M439 652q0 -67 -24 -144t-72.5 -131t-116.5 -54q-58 0 -88 40t-30 117q0 67 24 144t72.5 131t116.5 54q118 0 118 -157zM213 741q-44 -52 -66 -126t-22 -135q0 -142 101 -142q63 0 107.5 52.5t67 126t22.5 135.5q0 71 -25 106t-78 35q-63 0 -107 -52z" />
    <glyph glyph-name="four.superior" unicode="&#x2074;" horiz-adv-x="365" 
d="M311 472l-36 -142h-16l36 142h-230l5 20l298 310h25l-78 -314h97l-4 -16h-97zM299 488l19 77l54 217h-1l-188 -195l-95 -99h211z" />
    <glyph glyph-name="five.superior" unicode="&#x2075;" horiz-adv-x="376" 
d="M220 786l-74 -211h1q21 27 52 42.5t69 15.5q57 0 89.5 -34t32.5 -94q0 -42 -21.5 -84t-63 -70t-97.5 -28q-55 0 -86.5 26t-31.5 73q0 16 4 29h16q-4 -13 -4 -29q0 -40 26.5 -61.5t75.5 -21.5q52 0 89.5 26t57 64.5t19.5 75.5q0 53 -27.5 82.5t-78.5 29.5
q-44 0 -79.5 -22.5t-60.5 -67.5l-15 1l96 274h240l-4 -16h-225z" />
    <glyph glyph-name="six.superior" unicode="&#x2076;" horiz-adv-x="380" 
d="M416 781.5q29 -27.5 29 -77.5v-12h-17v11q0 90 -97 90q-65 0 -120.5 -64.5t-83.5 -188.5h1q20 41 61 68t89 27q58 0 90.5 -36.5t32.5 -100.5q0 -38 -21 -79t-60 -68.5t-92 -27.5q-62 0 -93.5 34.5t-31.5 102.5q0 69 27.5 151.5t79 140t120.5 57.5q57 0 86 -27.5z
M193 594.5q-36 -24.5 -55 -62t-19 -75.5q0 -118 109 -118q48 0 83.5 25t54 62.5t18.5 71.5q0 56 -28 88.5t-79 32.5q-48 0 -84 -24.5z" />
    <glyph glyph-name="seven.superior" unicode="&#x2077;" horiz-adv-x="332" 
d="M284 581q-77 -108 -146 -251h-18q72 147 148 255t164 201h-289l4 16h310l-4 -16q-92 -97 -169 -205z" />
    <glyph glyph-name="eight.superior" unicode="&#x2078;" horiz-adv-x="382" 
d="M406 779q34 -30 34 -80q0 -45 -33.5 -81.5t-91.5 -46.5v-1q36 -12 57 -39.5t21 -65.5q0 -33 -20 -66t-59 -54.5t-91 -21.5q-62 0 -98 32t-36 86q0 48 36.5 87.5t100.5 48.5v1q-32 10 -51 35.5t-19 60.5q0 31 19.5 62.5t56 52t85.5 20.5q55 0 89 -30zM240 774.5
q-33 -18.5 -50 -46.5t-17 -55q0 -42 28.5 -67t80.5 -25q46 0 78 18t48 45t16 55q0 43 -29 68.5t-78 25.5q-44 0 -77 -18.5zM177.5 547.5q-35.5 -18.5 -54 -47.5t-18.5 -59q0 -47 31.5 -74.5t86.5 -27.5q48 0 83 19.5t53 49t18 58.5q0 44 -32 72t-85 28q-47 0 -82.5 -18.5z
" />
    <glyph glyph-name="nine.superior" unicode="&#x2079;" horiz-adv-x="380" 
d="M120 350.5q-29 27.5 -29 77.5v12h17v-11q0 -90 97 -90q65 0 120.5 64.5t83.5 188.5h-1q-20 -41 -61 -68t-89 -27q-58 0 -90.5 36.5t-32.5 100.5q0 38 21 79t60 68.5t92 27.5q62 0 93.5 -34.5t31.5 -102.5q0 -69 -27.5 -151.5t-79 -140t-120.5 -57.5q-57 0 -86 27.5z
M343 537.5q36 24.5 55 62t19 75.5q0 118 -109 118q-48 0 -83.5 -25t-54 -62.5t-18.5 -71.5q0 -56 28 -88.5t79 -32.5q48 0 84 24.5z" />
    <glyph glyph-name="plussuperior" unicode="&#x207a;" horiz-adv-x="406" 
d="M353 560v-16h-142v-138h-16v138h-142v16h142v138h16v-138h142z" />
    <glyph glyph-name="uni207B" unicode="&#x207b;" horiz-adv-x="406" 
d="M53 544v16h300v-16h-300z" />
    <glyph glyph-name="equalsuperior" unicode="&#x207c;" horiz-adv-x="405" 
d="M53 589v16h300v-16h-300zM53 499v16h300v-16h-300z" />
    <glyph glyph-name="parenleftsuperior" unicode="&#x207d;" horiz-adv-x="168" 
d="M158.5 636.5q-46.5 -114.5 -46.5 -220.5q0 -93 28 -189h-15q-29 92 -29 189q0 108 45.5 222.5t134.5 210.5h19q-90 -98 -136.5 -212.5z" />
    <glyph glyph-name="parenrightsuperior" unicode="&#x207e;" horiz-adv-x="168" 
d="M151.5 439.5q46.5 114.5 46.5 220.5q0 93 -28 189h15q29 -92 29 -189q0 -108 -45.5 -222.5t-134.5 -210.5h-19q90 98 136.5 212.5z" />
    <glyph glyph-name="zero.inferior" unicode="&#x2080;" horiz-adv-x="392" 
d="M314 150q0 -67 -24 -144t-72.5 -131t-116.5 -54q-58 0 -88 40t-30 117q0 67 24 144t72.5 131t116.5 54q118 0 118 -157zM88 239q-44 -52 -66 -126t-22 -135q0 -142 101 -142q63 0 107.5 52.5t67 126t22.5 135.5q0 71 -25 106t-78 35q-63 0 -107 -52z" />
    <glyph glyph-name="one.inferior" unicode="&#x2081;" horiz-adv-x="216" 
d="M10 -172l106 424h-1q-32 -46 -116 -46l4 15q51 0 80 18t46 61h15l-118 -472h-16z" />
    <glyph glyph-name="two.inferior" unicode="&#x2082;" horiz-adv-x="380" 
d="M281 276.5q32 -30.5 32 -80.5q0 -37 -16.5 -65.5t-54.5 -54.5t-105 -56q-64 -28 -100.5 -55t-54.5 -55t-28 -66h286l-4 -16h-301q14 74 57 120t139 87q65 28 100 52t50 49.5t15 58.5q0 45 -27 70.5t-75 25.5q-55 0 -93.5 -31.5t-56.5 -86.5h-17q18 63 62 98.5t105 35.5
q55 0 87 -30.5z" />
    <glyph glyph-name="three.inferior" unicode="&#x2083;" horiz-adv-x="379" 
d="M272 277q35 -30 35 -80q0 -44 -32 -80.5t-93 -48.5v-1q78 -23 78 -102q0 -34 -20.5 -67t-60.5 -55t-93 -22q-63 0 -96.5 28t-33.5 77q0 15 4 30h16q-3 -15 -3 -29q0 -43 29 -66.5t84 -23.5q49 0 84.5 19.5t54 49t18.5 59.5q0 46 -29.5 71t-84.5 25h-31l4 16h29
q54 0 90 18.5t53 46t17 55.5q0 43 -31 68.5t-85 25.5q-52 0 -90.5 -30.5t-52.5 -86.5h-16q15 62 58 97.5t101 35.5q62 0 97 -30z" />
    <glyph glyph-name="four.inferior" unicode="&#x2084;" horiz-adv-x="364" 
d="M185 -30l-36 -142h-16l36 142h-230l5 20l298 310h25l-78 -314h97l-4 -16h-97zM173 -14l19 77l54 217h-1l-188 -195l-95 -99h211z" />
    <glyph glyph-name="five.inferior" unicode="&#x2085;" horiz-adv-x="375" 
d="M94 284l-74 -211h1q21 27 52 42.5t69 15.5q57 0 89.5 -34t32.5 -94q0 -42 -21.5 -84t-63 -70t-97.5 -28q-55 0 -86.5 26t-31.5 73q0 16 4 29h16q-4 -13 -4 -29q0 -40 26.5 -61.5t75.5 -21.5q52 0 89.5 26t57 64.5t19.5 75.5q0 53 -27.5 82.5t-78.5 29.5
q-44 0 -79.5 -22.5t-60.5 -67.5l-15 1l96 274h240l-4 -16h-225z" />
    <glyph glyph-name="six.inferior" unicode="&#x2086;" horiz-adv-x="379" 
d="M290 279.5q29 -27.5 29 -77.5v-12h-17v11q0 90 -97 90q-65 0 -120.5 -64.5t-83.5 -188.5h1q20 41 61 68t89 27q58 0 90.5 -36.5t32.5 -100.5q0 -38 -21 -79t-60 -68.5t-92 -27.5q-62 0 -93.5 34.5t-31.5 102.5q0 69 27.5 151.5t79 140t120.5 57.5q57 0 86 -27.5zM67 92.5
q-36 -24.5 -55 -62t-19 -75.5q0 -118 109 -118q48 0 83.5 25t54 62.5t18.5 71.5q0 56 -28 88.5t-79 32.5q-48 0 -84 -24.5z" />
    <glyph glyph-name="seven.inferior" unicode="&#x2087;" horiz-adv-x="331" 
d="M158 79q-77 -108 -146 -251h-18q72 147 148 255t164 201h-289l4 16h310l-4 -16q-92 -97 -169 -205z" />
    <glyph glyph-name="eight.inferior" unicode="&#x2088;" horiz-adv-x="383" 
d="M281 277q34 -30 34 -80q0 -45 -33.5 -81.5t-91.5 -46.5v-1q36 -12 57 -39.5t21 -65.5q0 -33 -20 -66t-59 -54.5t-91 -21.5q-62 0 -98 32t-36 86q0 48 36.5 87.5t100.5 48.5v1q-32 10 -51 35.5t-19 60.5q0 31 19.5 62.5t56 52t85.5 20.5q55 0 89 -30zM115 272.5
q-33 -18.5 -50 -46.5t-17 -55q0 -42 28.5 -67t80.5 -25q46 0 78 18t48 45t16 55q0 43 -29 68.5t-78 25.5q-44 0 -77 -18.5zM52.5 45.5q-35.5 -18.5 -54 -47.5t-18.5 -59q0 -47 31.5 -74.5t86.5 -27.5q48 0 83 19.5t53 49t18 58.5q0 44 -32 72t-85 28q-47 0 -82.5 -18.5z" />
    <glyph glyph-name="nine.inferior" unicode="&#x2089;" horiz-adv-x="380" 
d="M-5 -151.5q-29 27.5 -29 77.5v12h17v-11q0 -90 97 -90q65 0 120.5 64.5t83.5 188.5h-1q-20 -41 -61 -68t-89 -27q-58 0 -90.5 36.5t-32.5 100.5q0 38 21 79t60 68.5t92 27.5q62 0 93.5 -34.5t31.5 -102.5q0 -69 -27.5 -151.5t-79 -140t-120.5 -57.5q-57 0 -86 27.5z
M218 35.5q36 24.5 55 62t19 75.5q0 118 -109 118q-48 0 -83.5 -25t-54 -62.5t-18.5 -71.5q0 -56 28 -88.5t79 -32.5q48 0 84 24.5z" />
    <glyph glyph-name="uni208A" unicode="&#x208a;" horiz-adv-x="406" 
d="M353 58v-16h-142v-138h-16v138h-142v16h142v138h16v-138h142z" />
    <glyph glyph-name="uni208B" unicode="&#x208b;" horiz-adv-x="406" 
d="M53 42v16h300v-16h-300z" />
    <glyph glyph-name="uni208C" unicode="&#x208c;" horiz-adv-x="406" 
d="M53 87v16h300v-16h-300zM53 -3v16h300v-16h-300z" />
    <glyph glyph-name="uni208D" unicode="&#x208d;" horiz-adv-x="168" 
d="M33.5 134.5q-46.5 -114.5 -46.5 -220.5q0 -93 28 -189h-15q-29 92 -29 189q0 108 45.5 222.5t134.5 210.5h19q-90 -98 -136.5 -212.5z" />
    <glyph glyph-name="uni208E" unicode="&#x208e;" horiz-adv-x="168" 
d="M25.5 -62.5q46.5 114.5 46.5 220.5q0 93 -28 189h15q29 -92 29 -189q0 -108 -45.5 -222.5t-134.5 -210.5h-19q90 98 136.5 212.5z" />
    <glyph glyph-name="franc" unicode="&#x20a3;" 
d="M153 380h325l-4 -16h-325l-46 -185h183l-4 -16h-183l-41 -163h-16l41 163h-74l4 16h74l123 495h360l-4 -16h-344z" />
    <glyph glyph-name="lira" unicode="&#x20a4;" 
d="M489.5 648.5q35.5 -35.5 35.5 -101.5q0 -28 -7 -57h-16q7 29 7 57q0 59 -31 90t-91 31q-64 0 -109 -41.5t-65 -120.5l-43 -174h135l-4 -16h-135l-40 -158q-17 -65 -46 -99.5t-64 -44.5v-1q42 3 131 3h254l-4 -16h-436l4 16q53 0 90.5 37t55.5 109l39 154h-111l4 16h111
l44 178q21 84 70.5 129t118.5 45q67 0 102.5 -35.5z" />
    <glyph glyph-name="peseta" unicode="&#x20a7;" horiz-adv-x="745" 
d="M560 65q0 -27 14 -39t44 -12q18 0 36 4l-4 -17q-12 -3 -32 -3q-74 0 -74 67q0 22 8 53l94 374h-93q-4 -48 -31 -92.5t-79 -73t-125 -28.5h-187l-73 -298h-16l167 674h155q94 0 141 -44.5t48 -121.5h97l29 117h16l-29 -117h105l-4 -16h-105l-95 -378q-7 -28 -7 -49z
M439.5 343.5q49.5 29.5 73.5 73.5t24 88q0 72 -42.5 112.5t-130.5 40.5h-143l-86 -344h183q72 0 121.5 29.5z" />
    <glyph glyph-name="Euro" unicode="&#x20ac;" 
d="M493 640.5q41 -43.5 41 -128.5q0 -13 -2 -37h-16q2 24 2 37q0 156 -147 156q-103 0 -172 -80t-102 -198h285l-7 -16h-282q-9 -35 -16 -80h264l-7 -16h-259q-3 -31 -3 -59q0 -108 38.5 -160.5t117.5 -52.5q153 0 221 179h16q-36 -97 -96 -146t-141 -49q-172 0 -172 229
q0 28 3 59h-52l7 16h47q7 45 16 80h-46l7 16h43q35 125 108 209.5t182 84.5q81 0 122 -43.5z" />
    <glyph glyph-name="uni20B9" unicode="&#x20b9;" 
d="M321 661v-1q48 -12 74 -42t30 -74h120l-10 -16h-109v-2q0 -44 -27 -85.5t-81.5 -70t-133.5 -33.5v-1q40 -14 62.5 -46t37.5 -92l49 -198h-16l-47 190q-19 75 -51 108.5t-87 33.5h-24l4 16h30q90 0 150.5 27t89 68t28.5 83v2h-315l10 16h304q-12 114 -170 114h-111l10 16
h440l-10 -16h-116q-90 0 -131 3z" />
    <glyph glyph-name="uni20BA" unicode="&#x20ba;" 
d="M346.5 77q-103.5 -79 -266.5 -79h-20l86 343l-113 -54l5 20l113 54l27 110l-113 -54l5 20l113 54l46 183h16l-44 -176l193 92l-5 -20l-193 -92l-28 -110l193 92l-5 -20l-193 -92l-83 -334q156 0 256.5 75t127.5 219h16q-30 -152 -133.5 -231z" />
    <glyph glyph-name="uni20BC" unicode="&#x20bc;" horiz-adv-x="580" 
d="M509.5 530q42.5 -44 42.5 -139q0 -50 -21 -136l-64 -255h-16l65 259q20 80 20 132q0 89 -38.5 128.5t-122.5 44.5l-140 -564h-16l140 565h-11h-1q-78 -1 -127.5 -25t-82.5 -80t-58 -157l-76 -303h-16l77 307q26 105 61 163.5t87.5 84t134.5 26.5h1h15l33 131h16l-33 -132
q88 -6 130.5 -50z" />
    <glyph glyph-name="uni20BD" unicode="&#x20bd;" 
d="M485.5 631.5q44.5 -42.5 44.5 -116.5q0 -47 -24.5 -92.5t-75 -75.5t-123.5 -30h-181l-28 -111h214l-4 -16h-214l-47 -190h-16l47 190h-83l4 16h83l28 111h-83l4 16h83l85 341h152q90 0 134.5 -42.5zM130 333h177q69 0 115.5 28t69 70t22.5 84q0 67 -40 105t-123 38h-140z
" />
    <glyph glyph-name="uni2113" unicode="&#x2113;" horiz-adv-x="433" 
d="M111 76q0 -37 16.5 -52.5t53.5 -15.5q22 0 45 7l-4 -18q-20 -5 -41 -5q-43 0 -64.5 20.5t-21.5 63.5q0 20 9 56l18 74l-15 -1q-26 0 -48 5l4 16q22 -5 44 -5q13 0 19 1l75 299q23 92 49 127.5t66 35.5q34 0 54 -28t20 -87q0 -73 -30 -153t-87.5 -139t-133.5 -70l-20 -79
q-8 -36 -8 -52zM266.5 293.5q52.5 56.5 80 132t27.5 143.5q0 52 -15.5 75.5t-42.5 23.5q-34 0 -56.5 -32.5t-43.5 -118.5l-73 -293q71 13 123.5 69.5z" />
    <glyph glyph-name="uni2117" unicode="&#x2117;" horiz-adv-x="822" 
d="M597 676q81 -46 125.5 -129t44.5 -191t-44.5 -191t-125.5 -129t-186 -46t-186 46t-125.5 129t-44.5 191t44.5 191t125.5 129t186 46t186 -46zM233 662.5q-77 -43.5 -119.5 -123t-42.5 -183.5t42.5 -183.5t119.5 -123t178 -43.5t178 43.5t119.5 123t42.5 183.5
t-42.5 183.5t-119.5 123t-178 43.5t-178 -43.5zM561 561q40 -37 40 -97t-40 -97t-116 -37h-148v-230h-16v498h164q76 0 116 -37zM297 346h148q69 0 104.5 32.5t35.5 85.5t-35.5 85.5t-104.5 32.5h-148v-236z" />
    <glyph glyph-name="trademark" unicode="&#x2122;" horiz-adv-x="725" 
d="M263 696l-85 -340h-16l85 340h-132l4 16h280l-4 -16h-132zM681 356l48 190l36 147h-1l-99 -151l-123 -186h-21l-29 186q-15 94 -25 151h-1l-36 -147l-48 -190h-16l89 356h25l31 -196q10 -68 23 -142h1l93 142l129 196h29l-89 -356h-16z" />
    <glyph glyph-name="Omega" unicode="&#x2126;" horiz-adv-x="714" 
d="M631 662.5q67 -59.5 67 -175.5q0 -125 -74 -238t-222 -232v-1h206l-4 -16h-230l4 16q155 125 229.5 236.5t74.5 234.5q0 109 -62.5 164t-173.5 55q-109 0 -187 -56t-117.5 -143.5t-39.5 -180.5q0 -82 28 -155.5t80 -154.5l-4 -16h-222l4 16h204v1q-51 79 -78.5 152.5
t-27.5 156.5q0 97 41.5 188.5t123.5 149.5t195 58q118 0 185 -59.5z" />
    <glyph glyph-name="estimated" unicode="&#x212e;" horiz-adv-x="856" 
d="M631 635.5q86 -48.5 131.5 -130.5t45.5 -180h-607q-6 0 -9.5 -3.5t-3.5 -8.5v-166q0 -16 3 -25.5t12 -17.5q93 -91 225 -91q72 0 134.5 29.5t103.5 79.5h68q-40 -55 -117.5 -94.5t-188.5 -39.5q-113 0 -199.5 44.5t-134 123t-47.5 178.5q0 99 46.5 178.5t132.5 125.5
t202 46q117 0 203 -48.5zM203 565q-9 -8 -12 -17t-3 -23v-166q0 -12 13 -12h452q13 0 13 12v166q0 15 -3 23.5t-12 16.5q-94 93 -223 93q-132 0 -225 -93z" />
    <glyph glyph-name="oneeighth" unicode="&#x215b;" horiz-adv-x="621" 
d="M104 270l89 357h-1q-30 -36 -99 -36l4 16q44 0 68.5 15t39.5 52h16l-101 -404h-16zM-30 0l562 674h18l-562 -674h-18zM561 385q29 -26 29 -69q0 -39 -28 -70t-77 -40v-1q30 -10 47.5 -33t17.5 -57q0 -28 -17 -56t-50.5 -46.5t-78.5 -18.5q-53 0 -85 28t-32 74
q0 40 31.5 73.5t85.5 42.5v1q-27 9 -43 30.5t-16 51.5q0 27 16.5 54t48 44.5t73.5 17.5q49 0 78 -26zM418.5 379.5q-27.5 -15.5 -42 -39t-14.5 -46.5q0 -35 24 -56t67 -21q39 0 66.5 15t41 37.5t13.5 45.5q0 37 -24.5 58.5t-66.5 21.5q-37 0 -64.5 -15.5zM364.5 185.5
q-29.5 -15.5 -45.5 -40t-16 -49.5q0 -40 27 -63t74 -23q41 0 70.5 16t44.5 41t15 49q0 38 -27.5 61.5t-72.5 23.5q-40 0 -69.5 -15.5z" />
    <glyph glyph-name="threeeighths" unicode="&#x215c;" horiz-adv-x="760" 
d="M330.5 655q30.5 -26 30.5 -69q0 -37 -27.5 -68.5t-79.5 -42.5v-1q66 -20 66 -87q0 -30 -17.5 -58.5t-51.5 -46.5t-80 -18q-55 0 -84 24.5t-29 67.5q0 12 3 24h16q-3 -12 -3 -24q0 -36 25 -56t72 -20q42 0 72 16t45.5 40.5t15.5 50.5q0 39 -25.5 60t-72.5 21h-26l4 16h24
q46 0 76.5 15.5t45.5 39t15 47.5q0 36 -26 57.5t-72 21.5t-79 -26t-43 -73h-16q12 56 49 85.5t89 29.5q53 0 83.5 -26zM109 0l562 674h18l-562 -674h-18zM700 385q29 -26 29 -69q0 -39 -28 -70t-77 -40v-1q30 -10 47.5 -33t17.5 -57q0 -28 -17 -56t-50.5 -46.5t-78.5 -18.5
q-53 0 -85 28t-32 74q0 40 31.5 73.5t85.5 42.5v1q-27 9 -43 30.5t-16 51.5q0 27 16.5 54t48 44.5t73.5 17.5q49 0 78 -26zM557.5 379.5q-27.5 -15.5 -42 -39t-14.5 -46.5q0 -35 24 -56t67 -21q39 0 66.5 15t41 37.5t13.5 45.5q0 37 -24.5 58.5t-66.5 21.5
q-37 0 -64.5 -15.5zM503.5 185.5q-29.5 -15.5 -45.5 -40t-16 -49.5q0 -40 27 -63t74 -23q41 0 70.5 16t44.5 41t15 49q0 38 -27.5 61.5t-72.5 23.5q-40 0 -69.5 -15.5z" />
    <glyph glyph-name="fiveeighths" unicode="&#x215d;" horiz-adv-x="757" 
d="M176 658l-61 -175h1q17 22 43.5 34.5t57.5 12.5q50 0 78.5 -29.5t28.5 -80.5q0 -36 -19 -72t-54.5 -60t-84.5 -24q-48 0 -75 23t-27 63q0 11 3 24h16q-3 -13 -3 -24q0 -34 22.5 -52t63.5 -18q44 0 76.5 21.5t49 54.5t16.5 64q0 44 -24 69t-67 25q-37 0 -67.5 -19
t-50.5 -57l-15 1l82 235h207l-4 -16h-193zM106 0l562 674h18l-562 -674h-18zM697 385q29 -26 29 -69q0 -39 -28 -70t-77 -40v-1q30 -10 47.5 -33t17.5 -57q0 -28 -17 -56t-50.5 -46.5t-78.5 -18.5q-53 0 -85 28t-32 74q0 40 31.5 73.5t85.5 42.5v1q-27 9 -43 30.5t-16 51.5
q0 27 16.5 54t48 44.5t73.5 17.5q49 0 78 -26zM554.5 379.5q-27.5 -15.5 -42 -39t-14.5 -46.5q0 -35 24 -56t67 -21q39 0 66.5 15t41 37.5t13.5 45.5q0 37 -24.5 58.5t-66.5 21.5q-37 0 -64.5 -15.5zM500.5 185.5q-29.5 -15.5 -45.5 -40t-16 -49.5q0 -40 27 -63t74 -23
q41 0 70.5 16t44.5 41t15 49q0 38 -27.5 61.5t-72.5 23.5q-40 0 -69.5 -15.5z" />
    <glyph glyph-name="seveneighths" unicode="&#x215e;" horiz-adv-x="669" 
d="M232 483q-66 -93 -124 -213h-18q61 125 125.5 217t138.5 171h-245l4 16h267l-4 -15q-78 -83 -144 -176zM18 0l562 674h18l-562 -674h-18zM609 385q29 -26 29 -69q0 -39 -28 -70t-77 -40v-1q30 -10 47.5 -33t17.5 -57q0 -28 -17 -56t-50.5 -46.5t-78.5 -18.5q-53 0 -85 28
t-32 74q0 40 31.5 73.5t85.5 42.5v1q-27 9 -43 30.5t-16 51.5q0 27 16.5 54t48 44.5t73.5 17.5q49 0 78 -26zM466.5 379.5q-27.5 -15.5 -42 -39t-14.5 -46.5q0 -35 24 -56t67 -21q39 0 66.5 15t41 37.5t13.5 45.5q0 37 -24.5 58.5t-66.5 21.5q-37 0 -64.5 -15.5z
M412.5 185.5q-29.5 -15.5 -45.5 -40t-16 -49.5q0 -40 27 -63t74 -23q41 0 70.5 16t44.5 41t15 49q0 38 -27.5 61.5t-72.5 23.5q-40 0 -69.5 -15.5z" />
    <glyph glyph-name="partialdiff" unicode="&#x2202;" horiz-adv-x="566" 
d="M476.5 660q45.5 -62 45.5 -177q0 -103 -36 -218t-107.5 -195t-171.5 -80q-81 0 -122 45t-41 127q0 63 28.5 135t86 122.5t140.5 50.5q59 0 97 -27t55 -68.5t17 -86.5q0 -32 -7 -56h1q19 59 31.5 129t12.5 122q0 108 -41 165.5t-123 57.5q-65 0 -107.5 -39t-61.5 -108h-16
q21 76 68 119.5t117 43.5q89 0 134.5 -62zM167 406q-54 -48 -80.5 -116.5t-26.5 -127.5q0 -74 36.5 -115t110.5 -41q75 0 131.5 48t86.5 113t30 113q0 79 -41.5 126.5t-113.5 47.5q-79 0 -133 -48z" />
    <glyph glyph-name="Delta" unicode="&#x2206;" horiz-adv-x="633" 
d="M-57 0l477 712h22l122 -712h-621zM483 380q-36 214 -54 316h-1l-212 -316l-244 -364h573z" />
    <glyph glyph-name="product" unicode="&#x220f;" horiz-adv-x="625" 
d="M504 -120v816h-383v-816h-16v832h415v-832h-16z" />
    <glyph glyph-name="summation" unicode="&#x2211;" horiz-adv-x="445" 
d="M53 696l240 -405l-240 -395h357v-16h-375v16l240 395l-240 405v16h375v-16h-357z" />
    <glyph glyph-name="minus" unicode="&#x2212;" horiz-adv-x="566" 
d="M75 309v16h416v-16h-416z" />
    <glyph glyph-name="uni2215" unicode="&#x2215;" horiz-adv-x="395" 
d="M-119 -89l503 834h19l-503 -834h-19z" />
    <glyph glyph-name="uni2219" unicode="&#x2219;" horiz-adv-x="254" 
d="M118 270v72h18v-72h-18z" />
    <glyph glyph-name="radical" unicode="&#x221a;" horiz-adv-x="483" 
d="M209 -120l-104 440h-80v16h92l100 -420h2l227 796h17l-238 -832h-16z" />
    <glyph glyph-name="infinity" unicode="&#x221e;" horiz-adv-x="548" 
d="M502.5 394q30.5 -33 30.5 -86t-30.5 -86t-79.5 -33t-81 27t-68 79q-36 -52 -68 -79t-81 -27t-79.5 33t-30.5 86t30.5 86t79.5 33t81 -27t68 -79q36 52 68 79t81 27t79.5 -33zM200.5 231q30.5 26 64.5 77q-34 51 -64.5 77t-75.5 26q-42 0 -68 -28.5t-26 -74.5t26 -74.5
t68 -28.5q45 0 75.5 26zM491 233.5q26 28.5 26 74.5t-26 74.5t-68 28.5q-45 0 -75.5 -26t-64.5 -77q34 -51 64.5 -77t75.5 -26q42 0 68 28.5z" />
    <glyph glyph-name="integral" unicode="&#x222b;" horiz-adv-x="264" 
d="M249 712v-16q-11 3 -26 3q-83 0 -83 -105v-661q0 -60 -25.5 -90.5t-73.5 -30.5q-14 0 -26 3v16q10 -3 26 -3q83 0 83 105v661q0 60 25.5 90.5t73.5 30.5q14 0 26 -3z" />
    <glyph glyph-name="approxequal" unicode="&#x2248;" horiz-adv-x="566" 
d="M234 447q24 -15 55 -44q29 -27 50.5 -40.5t49.5 -13.5q40 0 63 27.5t23 72.5h16q0 -52 -28 -84t-74 -32q-32 0 -55 14t-56 44q-30 28 -51 41.5t-50 13.5q-40 0 -63 -27.5t-23 -72.5h-16q0 52 28 84t74 32q33 0 57 -15zM234 286q24 -15 55 -44q29 -27 50.5 -40.5
t49.5 -13.5q40 0 63 27.5t23 72.5h16q0 -52 -28 -84t-74 -32q-32 0 -55 14t-56 44q-30 28 -51 41.5t-50 13.5q-39 0 -62.5 -27.5t-23.5 -72.5h-16q0 52 28 84t74 32q33 0 57 -15z" />
    <glyph glyph-name="notequal" unicode="&#x2260;" horiz-adv-x="566" 
d="M253 262h238v-16h-249l-108 -148h-19l107 148h-147v16h159l79 109h-238v16h250l107 148h20l-108 -148h147v-16h-158z" />
    <glyph glyph-name="lessequal" unicode="&#x2264;" horiz-adv-x="566" 
d="M91 318v-2l400 -183v-18l-416 191v22l416 191v-18zM491 0h-416v16h416v-16z" />
    <glyph glyph-name="greaterequal" unicode="&#x2265;" horiz-adv-x="566" 
d="M491 306l-416 -191v18l400 183v2l-400 183v18l416 -191v-22zM75 0v16h416v-16h-416z" />
    <glyph glyph-name="lozenge" unicode="&#x25ca;" horiz-adv-x="532" 
d="M275 0h-18l-217 356l217 356h18l217 -356zM266 15l208 341l-208 341l-208 -341z" />
    <glyph glyph-name="uniF8FF" unicode="&#xf8ff;" horiz-adv-x="600" 
d="M518 745q32 -32 32 -88v-602q0 -56 -32 -88t-88 -32h-280q-55 0 -87.5 32t-32.5 88v602q0 56 32.5 88t87.5 32h280q56 0 88 -32zM74 733q-28 -28 -28 -76v-602q0 -48 28 -76t76 -28h280q48 0 76 28t28 76v602q0 48 -28 76t-76 28h-280q-48 0 -76 -28zM399 604.5
q44 -38.5 44 -99.5q0 -42 -18 -72t-72 -76q-35 -30 -51 -51.5t-22 -50t-6 -79.5h-13v17q0 45 6.5 73t23.5 50.5t51 51.5q51 44 68 71.5t17 65.5q0 54 -39.5 88t-100.5 34q-64 0 -102 -35.5t-42 -100.5h-16q5 73 47.5 112.5t112.5 39.5q68 0 112 -38.5zM258 65v57h18v-57h-18
z" />
    <glyph glyph-name="ff" unicode="&#xfb00;" horiz-adv-x="470" 
d="M568 711l-4 -15q-11 3 -24 3q-83 0 -111 -109l-20 -82h107l-4 -16h-107l-123 -492h-16l123 492h-202l-123 -492h-16l123 492h-97l4 16h97l21 86q15 60 47 90.5t79 30.5q16 0 28 -4l-4 -15q-10 3 -24 3q-83 0 -111 -109l-20 -82h202l21 86q15 60 47 90.5t79 30.5
q16 0 28 -4z" />
    <glyph glyph-name="fi" unicode="&#xfb01;" horiz-adv-x="450" 
d="M350 711l-4 -15q-10 3 -24 3q-83 0 -111 -109l-20 -82h107l-4 -16h-107l-123 -492h-16l123 492h-97l4 16h97l21 86q15 60 47 90.5t79 30.5q16 0 28 -4zM280 0l126 508h16l-126 -508h-16zM438 635l19 77h16l-19 -77h-16z" />
    <glyph glyph-name="fl" unicode="&#xfb02;" horiz-adv-x="450" 
d="M350 711l-4 -15q-10 3 -24 3q-83 0 -111 -109l-20 -82h107l-4 -16h-107l-123 -492h-16l123 492h-97l4 16h97l21 86q15 60 47 90.5t79 30.5q16 0 28 -4zM280 0l177 712h16l-177 -712h-16z" />
    <glyph glyph-name="ffi" unicode="&#xfb03;" horiz-adv-x="668" 
d="M282 0h-16l123 492h-202l-123 -492h-16l123 492h-97l4 16h97l21 86q15 60 47 90.5t79 30.5q16 0 28 -4l-4 -15q-10 3 -24 3q-83 0 -111 -109l-20 -82h202l21 86q15 60 47 90.5t79 30.5q16 0 28 -4l-4 -15q-11 3 -24 3q-83 0 -111 -109l-20 -82h107l-4 -16h-107zM672 635
h-16l19 77h16zM640 508l-126 -508h-16l126 508h16z" />
    <glyph glyph-name="ffl" unicode="&#xfb04;" horiz-adv-x="668" 
d="M282 0h-16l123 492h-202l-123 -492h-16l123 492h-97l4 16h97l21 86q15 60 47 90.5t79 30.5q16 0 28 -4l-4 -15q-10 3 -24 3q-83 0 -111 -109l-20 -82h202l21 86q15 60 47 90.5t79 30.5q16 0 28 -4l-4 -15q-11 3 -24 3q-83 0 -111 -109l-20 -82h107l-4 -16h-107zM514 0
h-16l177 712h16z" />
    <glyph glyph-name="uniFEFF" unicode="&#xfeff;" horiz-adv-x="0" 
 />
    <glyph glyph-name="J.acute.loclNLD" horiz-adv-x="303" 
d="M111.5 39.5q-48.5 -43.5 -117.5 -43.5q-22 0 -42 6l4 15q18 -5 38 -5q64 0 108.5 40.5t63.5 118.5l135 541h16l-136 -545q-21 -84 -69.5 -127.5zM278 778l126 138h23l-130 -138h-19z" />
    <glyph glyph-name="Ccedilla.ss01" horiz-adv-x="661" 
d="M598.5 660q55.5 -62 55.5 -159q0 -12 -2 -36h-16q2 24 2 36q0 91 -51 148t-148 57q-110 0 -191.5 -68t-124 -171t-42.5 -206q0 -117 57.5 -186t161.5 -69q99 0 176 59t109 152h17q-34 -102 -115.5 -164.5t-186.5 -62.5q-111 0 -173 73.5t-62 198.5q0 107 44.5 213.5
t129.5 176.5t199 70q105 0 160.5 -62zM125 -207l163 158h20l-159 -158h-24z" />
    <glyph glyph-name="Scedilla.ss01" horiz-adv-x="576" 
d="M566 555q0 -31 -9 -70h-16q9 39 9 70q0 77 -44.5 114t-135.5 37q-71 0 -120 -28t-73.5 -71t-24.5 -85q0 -59 37.5 -91t122.5 -60q64 -21 101.5 -41t57.5 -51t20 -81q0 -52 -28 -100t-84.5 -78t-137.5 -30q-203 0 -203 174q0 34 10 74h16q-10 -40 -10 -74q0 -80 46.5 -119
t140.5 -39q78 0 131 29t78 73t25 90q0 47 -19.5 75.5t-54.5 46t-98 37.5q-88 29 -127.5 65t-39.5 100q0 48 27.5 94t80.5 76t126 30q196 0 196 -167zM72 -207l163 158h20l-159 -158h-24z" />
    <glyph glyph-name="uni0162.ss01" horiz-adv-x="568" 
d="M402 696l-173 -696h-16l173 696h-271l4 16h558l-4 -16h-271zM63 -207l163 158h20l-159 -158h-24z" />
    <glyph glyph-name="i.loclTRK" horiz-adv-x="198" 
d="M28 0l126 508h16l-126 -508h-16zM186 635l19 77h16l-19 -77h-16z" />
    <glyph glyph-name="j.acute.loclNLD" horiz-adv-x="209" 
d="M-11 -155.5q-35 -31.5 -87 -31.5q-12 0 -20 3l4 15q6 -2 16 -2q47 0 77.5 28t48.5 99l137 552h16l-138 -556q-19 -76 -54 -107.5zM142 574l126 138h23l-130 -138h-19z" />
    <glyph glyph-name="ccedilla.ss01" horiz-adv-x="493" 
d="M424.5 473q42.5 -45 42.5 -122q0 -9 -1 -15h-16q1 6 1 15q0 70 -38 110.5t-105 40.5q-78 0 -135 -50.5t-86.5 -125.5t-29.5 -147q0 -83 39.5 -128t115.5 -45q68 0 122.5 41t77.5 110h17q-25 -76 -84 -121.5t-133 -45.5q-83 0 -127 49.5t-44 139.5q0 76 31.5 155
t92.5 131.5t143 52.5q74 0 116.5 -45zM44 -207l163 158h20l-159 -158h-24z" />
    <glyph glyph-name="scedilla.ss01" horiz-adv-x="447" 
d="M375.5 485q40.5 -33 40.5 -91q0 -25 -7 -50h-16q7 25 7 50q0 52 -35.5 80t-103.5 28q-49 0 -84 -18t-53.5 -47t-18.5 -63q0 -42 26.5 -63t89.5 -40q80 -23 114 -50.5t34 -79.5q0 -41 -22 -75.5t-65 -55t-101 -20.5q-80 0 -122 34t-42 97q0 26 7 53h16q-7 -27 -7 -53
q0 -56 37 -85.5t111 -29.5q54 0 93 18.5t59 49.5t20 67q0 46 -31 69.5t-108 46.5q-65 19 -95 44t-30 73q0 38 20.5 71t59.5 53t92 20q74 0 114.5 -33zM7 -207l163 158h20l-159 -158h-24z" />
    <glyph glyph-name="uni0163.ss01" horiz-adv-x="270" 
d="M85 65q0 -27 14 -39t44 -12q18 0 36 4l-4 -17q-12 -3 -32 -3q-74 0 -74 67q0 22 8 53l94 374h-98l4 16h98l29 117h16l-29 -117h105l-4 -16h-105l-95 -378q-7 -28 -7 -49zM-63 -207l163 158h20l-159 -158h-24z" />
    <glyph glyph-name="a.sups" horiz-adv-x="358" 
d="M349.5 667q29.5 -26 29.5 -76q0 -19 -7 -46l-34 -137q-12 -52 -13 -78h-16q1 28 15 77h-1q-48 -84 -146 -84q-49 0 -77.5 24t-28.5 65q0 94 142 114q63 10 142 15l2 8q6 24 6 42q0 44 -25 65t-70 21q-50 0 -83 -27t-43 -71h-17q11 52 49.5 83t93.5 31q52 0 81.5 -26z
M215 510q-128 -19 -128 -97q0 -35 24 -54.5t67 -19.5q60 0 102.5 35.5t58.5 101.5l12 49q-59 -4 -136 -15z" />
    <glyph glyph-name="b.sups" horiz-adv-x="393" 
d="M162 595h1q26 48 63.5 73t81.5 25q57 0 88 -36t31 -100q0 -53 -21.5 -107.5t-63.5 -90.5t-99 -36q-54 0 -84.5 32t-32.5 92h-1q-6 -37 -26 -117h-16l125 498h16l-36 -142q-15 -60 -26 -91zM216.5 642.5q-38.5 -34.5 -58.5 -85.5t-20 -98q0 -58 27 -89t78 -31q53 0 91 34
t57.5 84.5t19.5 99.5q0 57 -26.5 88.5t-76.5 31.5q-53 0 -91.5 -34.5z" />
    <glyph glyph-name="c.sups" horiz-adv-x="356" 
d="M371 660.5q32 -32.5 32 -86.5v-10h-16v9q0 48 -27.5 76t-76.5 28q-55 0 -95 -34t-60.5 -85t-20.5 -100q0 -57 27.5 -88t81.5 -31q47 0 84.5 28t53.5 74h17q-17 -53 -59.5 -85.5t-95.5 -32.5q-60 0 -92.5 35.5t-32.5 99.5q0 53 22.5 107.5t66 91t103.5 36.5q56 0 88 -32.5
z" />
    <glyph glyph-name="d.sups" horiz-adv-x="392" 
d="M331 330q15 60 26 91h-1q-26 -48 -63.5 -73t-81.5 -25q-57 0 -88 36t-31 99q0 53 21.5 108t64 91t99.5 36q54 0 84 -32.5t32 -91.5h1q6 37 26 117l36 142h16l-125 -498h-16zM185.5 643q-38.5 -34 -58 -85t-19.5 -100q0 -57 26.5 -88t76.5 -31q52 0 91 34.5t59 85t20 97.5
q0 58 -26.5 89.5t-77.5 31.5q-53 0 -91.5 -34z" />
    <glyph glyph-name="e.sups" horiz-adv-x="372" 
d="M107 457q0 -57 28 -87.5t81 -30.5q49 0 88.5 26t56.5 70h17q-19 -51 -63 -81.5t-99 -30.5q-60 0 -92.5 35t-32.5 99q0 53 23 108t67.5 91.5t105.5 36.5q57 0 90 -33.5t33 -93.5q0 -29 -9 -57h-289q-5 -32 -5 -52zM180 635.5q-46 -41.5 -64 -110.5h272q6 21 6 41
q0 54 -28 82.5t-79 28.5q-61 0 -107 -41.5z" />
    <glyph glyph-name="egrave.sups" horiz-adv-x="372" 
d="M250 828h20l55 -96h-16zM107 457q0 -57 28 -87.5t81 -30.5q49 0 88.5 26t56.5 70h17q-19 -51 -63 -81.5t-99 -30.5q-60 0 -92.5 35t-32.5 99q0 53 23 108t67.5 91.5t105.5 36.5q57 0 90 -33.5t33 -93.5q0 -29 -9 -57h-289q-5 -32 -5 -52zM180 635.5q-46 -41.5 -64 -110.5
h272q6 21 6 41q0 54 -28 82.5t-79 28.5q-61 0 -107 -41.5z" />
    <glyph glyph-name="f.sups" horiz-adv-x="183" 
d="M316 828l-4 -16q-8 3 -18 3q-30 0 -49 -18t-29 -56l-14 -55h77l-4 -16h-77l-84 -340h-16l84 340h-68l4 16h68l15 59q23 86 93 86q11 0 22 -3z" />
    <glyph glyph-name="g.sups" horiz-adv-x="392" 
d="M363 661.5q30 -31.5 31 -88.5h1q9 49 25 113h16l-84 -339q-18 -73 -61.5 -111.5t-111.5 -38.5q-56 0 -88 24t-32 66q0 7 2 21h16q-2 -16 -2 -21q0 -36 27.5 -55.5t76.5 -19.5q123 0 158 140q14 54 23 81h-1q-25 -48 -63 -73.5t-84 -25.5q-57 0 -87.5 36t-30.5 100
q0 50 22 102t64.5 86.5t101.5 34.5q51 0 81 -31.5zM189 644.5q-39 -32.5 -59 -80.5t-20 -94q0 -58 26 -89t76 -31q53 0 92 34t59 83t20 93q0 56 -26 86.5t-75 30.5q-54 0 -93 -32.5z" />
    <glyph glyph-name="h.sups" horiz-adv-x="388" 
d="M171 616q24 36 60 56.5t75 20.5q48 0 75 -25.5t27 -74.5q0 -21 -8 -55l-52 -208h-16l53 210q7 35 7 53q0 42 -22.5 63t-63.5 21q-52 0 -95 -35t-57 -91l-55 -221h-16l124 498h16l-53 -212h1z" />
    <glyph glyph-name="i.sups" horiz-adv-x="144" 
d="M193 773l14 55h16l-14 -55h-16zM83 330l88 356h16l-88 -356h-16z" />
    <glyph glyph-name="j.sups" horiz-adv-x="153" 
d="M203 773l14 55h16l-14 -55h-16zM61 221q-25 -22 -63 -22q-7 0 -17 2l4 15q6 -2 13 -2q33 0 54 19t33 67l96 386h16l-97 -390q-14 -53 -39 -75z" />
    <glyph glyph-name="k.sups" horiz-adv-x="319" 
d="M341 330h-22l-172 189h-1l-47 -189h-16l124 498h16l-75 -299h1l232 157h28l-242 -164z" />
    <glyph glyph-name="l.sups" horiz-adv-x="144" 
d="M83 330l124 498h16l-124 -498h-16z" />
    <glyph glyph-name="m.sups" horiz-adv-x="586" 
d="M583 669.5q24 -23.5 24 -69.5q0 -23 -8 -57l-53 -213h-16l53 216q8 32 8 54q0 77 -76 77q-47 0 -85 -33t-51 -87l-57 -227h-16l57 229q6 30 6 41q0 36 -19.5 56.5t-56.5 20.5q-48 0 -87 -35.5t-54 -96.5l-53 -215h-16l89 356h16q-11 -45 -22 -76h1q21 38 53.5 60.5
t72.5 22.5q42 0 66 -24t24 -67q21 43 55.5 67t76.5 24q44 0 68 -23.5z" />
    <glyph glyph-name="n.sups" horiz-adv-x="388" 
d="M381 667.5q27 -25.5 27 -74.5q0 -21 -8 -55l-52 -208h-16l53 210q7 35 7 53q0 42 -22.5 63t-63.5 21q-52 0 -95 -35t-57 -91l-55 -221h-16l89 356h16q-11 -44 -22 -77h1q24 41 61 62.5t78 21.5q48 0 75 -25.5z" />
    <glyph glyph-name="o.sups" horiz-adv-x="381" 
d="M378.5 655q34.5 -38 34.5 -106q0 -52 -22 -104.5t-64.5 -87t-100.5 -34.5q-64 0 -98.5 37.5t-34.5 105.5q0 52 22 104.5t64.5 87.5t100.5 35q64 0 98.5 -38zM187 644.5q-39 -32.5 -58.5 -81.5t-19.5 -97q0 -61 30 -94t87 -33q54 0 93 32.5t58.5 81.5t19.5 96
q0 61 -30 94.5t-87 33.5q-54 0 -93 -32.5z" />
    <glyph glyph-name="p.sups" horiz-adv-x="392" 
d="M395 657q31 -36 31 -100q0 -53 -21.5 -107.5t-63.5 -90.5t-99 -36q-54 0 -84.5 32t-32.5 92h-1q-6 -37 -26 -117l-32 -129h-16l121 485h16q-15 -60 -26 -91h1q26 48 63.5 73t81.5 25q57 0 88 -36zM215.5 642.5q-38.5 -34.5 -58.5 -85.5t-20 -98q0 -58 27 -89t78 -31
q53 0 91 34t57.5 84.5t19.5 99.5q0 57 -26.5 88.5t-76.5 31.5q-53 0 -91.5 -34.5z" />
    <glyph glyph-name="q.sups" horiz-adv-x="392" 
d="M361 660.5q30 -32.5 32 -91.5h1q6 37 26 117h16l-121 -485h-16l32 129q15 60 26 91h-1q-26 -48 -63.5 -73t-81.5 -25q-57 0 -88 36t-31 99q0 53 21.5 108t64 91t99.5 36q54 0 84 -32.5zM185.5 643q-38.5 -34 -58 -85t-19.5 -100q0 -57 26.5 -88t76.5 -31q52 0 91 34.5
t59 85t20 97.5q0 58 -26.5 89.5t-77.5 31.5q-53 0 -91.5 -34z" />
    <glyph glyph-name="r.sups" horiz-adv-x="231" 
d="M329 686l-4 -16q-5 1 -20 1q-55 0 -97 -35.5t-59 -103.5l-50 -202h-16l89 356h16q-14 -56 -24 -84h1q24 41 61 63t83 22q15 0 20 -1z" />
    <glyph glyph-name="s.sups" horiz-adv-x="323" 
d="M334.5 669.5q29.5 -23.5 29.5 -65.5q0 -17 -4 -33h-16q4 16 4 33q0 35 -24.5 54t-72.5 19q-51 0 -80.5 -25t-29.5 -60q0 -29 18.5 -43t64.5 -27q57 -16 82.5 -36t25.5 -58q0 -44 -36.5 -74.5t-99.5 -30.5q-59 0 -90 24t-31 69q0 20 5 35h16q-5 -15 -5 -35
q0 -38 26.5 -57.5t78.5 -19.5q57 0 88.5 26t31.5 63q0 32 -22.5 48.5t-76.5 31.5q-48 13 -70 30.5t-22 53.5q0 41 34 71t92 30q54 0 83.5 -23.5z" />
    <glyph glyph-name="t.sups" horiz-adv-x="196" 
d="M129 380q0 -19 10 -27.5t32 -8.5q17 0 26 3l-4 -16q-9 -3 -23 -3q-57 0 -57 52q0 12 6 36l64 254h-70l4 16h70l20 82h16l-20 -82h75l-4 -16h-75l-65 -258q-5 -22 -5 -32z" />
    <glyph glyph-name="u.sups" horiz-adv-x="388" 
d="M134 348.5q-27 25.5 -27 74.5q0 21 8 55l52 208h16l-53 -210q-7 -35 -7 -53q0 -42 22.5 -63t63.5 -21q52 0 95 35t57 91l55 221h16l-89 -356h-16l18 70h-1q-24 -36 -60 -56.5t-75 -20.5q-48 0 -75 25.5z" />
    <glyph glyph-name="v.sups" horiz-adv-x="313" 
d="M164 330l-55 356h16l26 -166q14 -101 27 -174h1q74 114 114 174l108 166h19l-233 -356h-23z" />
    <glyph glyph-name="w.sups" horiz-adv-x="537" 
d="M404 330l-16 181l-15 160h-1l-95 -160l-106 -181h-25l-32 356h16l16 -170l15 -170h1l101 172l99 168h25l16 -169q10 -94 14 -147l2 -24h1l100 170l99 170h18l-208 -356h-25z" />
    <glyph glyph-name="x.sups" horiz-adv-x="321" 
d="M337 330h-18l-95 172h-1l-178 -172h-23l193 186l-92 170h18l86 -158h1l162 158h22l-176 -172z" />
    <glyph glyph-name="y.sups" horiz-adv-x="314" 
d="M120.5 245.5q-24.5 -26.5 -46.5 -37t-50 -10.5q-20 0 -31 4l4 16q12 -5 27 -5q24 0 43.5 9.5t42.5 34.5t55 73l-56 356h16l53 -334h1l223 334h18l-241 -362q-34 -52 -58.5 -78.5z" />
    <glyph glyph-name="z.sups" horiz-adv-x="317" 
d="M56 347v-1h270l-4 -16h-289l5 21l343 318v1h-256l4 16h275l-5 -21z" />
    <glyph glyph-name="a.smcp" horiz-adv-x="524" 
d="M102 202l-140 -202h-19l379 548h23l109 -548h-16l-40 202h-296zM380 291l-48 242h-1l-167 -241l-51 -74h282z" />
    <glyph glyph-name="aacute.smcp" horiz-adv-x="524" 
d="M102 202l-140 -202h-19l379 548h23l109 -548h-16l-40 202h-296zM380 291l-48 242h-1l-167 -241l-51 -74h282zM298 614l126 138h23l-130 -138h-19z" />
    <glyph glyph-name="abreve.smcp" horiz-adv-x="524" 
d="M102 202l-140 -202h-19l379 548h23l109 -548h-16l-40 202h-296zM380 291l-48 242h-1l-167 -241l-51 -74h282zM460 658q-44 -33 -107 -33q-58 0 -88 28t-30 80q0 12 1 19h16q-1 -7 -1 -19q0 -92 102 -92q57 0 95.5 28.5t58.5 82.5h17q-20 -61 -64 -94z" />
    <glyph glyph-name="acircumflex.smcp" horiz-adv-x="524" 
d="M102 202l-140 -202h-19l379 548h23l109 -548h-16l-40 202h-296zM380 291l-48 242h-1l-167 -241l-51 -74h282zM454 614l-75 123l-136 -123h-24l153 138h16l85 -138h-19z" />
    <glyph glyph-name="adieresis.smcp" horiz-adv-x="524" 
d="M102 202l-140 -202h-19l379 548h23l109 -548h-16l-40 202h-296zM380 291l-48 242h-1l-167 -241l-51 -74h282zM261 675l19 77h16l-19 -77h-16zM445 675l19 77h16l-19 -77h-16z" />
    <glyph glyph-name="agrave.smcp" horiz-adv-x="524" 
d="M102 202l-140 -202h-19l379 548h23l109 -548h-16l-40 202h-296zM380 291l-48 242h-1l-167 -241l-51 -74h282zM395 614h-15l-66 138h19z" />
    <glyph glyph-name="amacron.smcp" horiz-adv-x="524" 
d="M102 202l-140 -202h-19l379 548h23l109 -548h-16l-40 202h-296zM380 291l-48 242h-1l-167 -241l-51 -74h282zM251 688l4 16h226l-4 -16h-226z" />
    <glyph glyph-name="aogonek.smcp" horiz-adv-x="524" 
d="M349 -163.5q10 -9.5 33 -9.5q18 0 33 5l-4 -17q-16 -4 -29 -4q-59 0 -59 55q0 33 25.5 65.5t88.5 74.5l-39 196h-296l-140 -202h-19l379 548h23l109 -548q-66 -44 -90.5 -75t-24.5 -59q0 -20 10 -29.5zM380 291l-48 242h-1l-167 -241l-51 -74h282z" />
    <glyph glyph-name="aring.smcp" horiz-adv-x="524" 
d="M102 202l-140 -202h-19l379 548h23l109 -548h-16l-40 202h-296zM380 291l-48 242h-1l-167 -241l-51 -74h282zM420.5 776.5q24.5 -24.5 24.5 -59.5t-24.5 -59.5t-59.5 -24.5t-59.5 24.5t-24.5 59.5t25 59.5t59 24.5q35 0 59.5 -24.5zM313 765.5q-20 -19.5 -20 -48.5
q0 -28 20 -48t48 -20q29 0 48.5 20t19.5 48q0 29 -19.5 48.5t-48.5 19.5q-28 0 -48 -19.5z" />
    <glyph glyph-name="atilde.smcp" horiz-adv-x="524" 
d="M102 202l-140 -202h-19l379 548h23l109 -548h-16l-40 202h-296zM380 291l-48 242h-1l-167 -241l-51 -74h282zM486 682q-23 -21 -52 -21q-21 0 -36.5 8.5t-34.5 25.5q-18 16 -31 23.5t-31 7.5q-23 0 -41.5 -16.5t-28.5 -48.5h-17q13 39 36 60t52 21q21 0 36.5 -8.5
t34.5 -25.5q18 -16 31 -23.5t31 -7.5q23 0 41.5 16.5t28.5 48.5h17q-13 -39 -36 -60z" />
    <glyph glyph-name="ae.smcp" horiz-adv-x="750" 
d="M402 290h278l-4 -16h-276l-19 -258h256l-4 -16h-270l17 216h-250l-177 -216h-21l449 548h377l-4 -16h-333zM389 532l-246 -300h238l24 300h-16z" />
    <glyph glyph-name="b.smcp" horiz-adv-x="506" 
d="M434 516q34 -32 34 -89q0 -31 -17 -63t-51.5 -55t-84.5 -28v-1q46 -8 73 -38.5t27 -79.5q0 -39 -20.5 -76t-62.5 -61.5t-103 -24.5h-203l136 548h169q69 0 103 -32zM114 289h145q69 0 112 22t62 53.5t19 62.5q0 105 -121 105h-157zM46 16h183q56 0 94.5 22.5t57 56
t18.5 67.5q0 51 -34.5 81t-105.5 30h-149z" />
    <glyph glyph-name="c.smcp" horiz-adv-x="553" 
d="M479.5 512.5q46.5 -45.5 46.5 -118.5q0 -17 -3 -34h-16q3 18 3 34q0 66 -41.5 107t-122.5 41q-88 0 -153.5 -52t-100 -130t-34.5 -152q0 -95 45.5 -148.5t130.5 -53.5q82 0 145.5 44.5t89.5 115.5h17q-28 -79 -96 -127.5t-156 -48.5q-92 0 -142 58t-50 160q0 78 36.5 160
t105.5 136t162 54q87 0 133.5 -45.5z" />
    <glyph glyph-name="cacute.smcp" horiz-adv-x="553" 
d="M479.5 512.5q46.5 -45.5 46.5 -118.5q0 -17 -3 -34h-16q3 18 3 34q0 66 -41.5 107t-122.5 41q-88 0 -153.5 -52t-100 -130t-34.5 -152q0 -95 45.5 -148.5t130.5 -53.5q82 0 145.5 44.5t89.5 115.5h17q-28 -79 -96 -127.5t-156 -48.5q-92 0 -142 58t-50 160q0 78 36.5 160
t105.5 136t162 54q87 0 133.5 -45.5zM310 614l126 138h23l-130 -138h-19z" />
    <glyph glyph-name="ccaron.smcp" horiz-adv-x="553" 
d="M479.5 512.5q46.5 -45.5 46.5 -118.5q0 -17 -3 -34h-16q3 18 3 34q0 66 -41.5 107t-122.5 41q-88 0 -153.5 -52t-100 -130t-34.5 -152q0 -95 45.5 -148.5t130.5 -53.5q82 0 145.5 44.5t89.5 115.5h17q-28 -79 -96 -127.5t-156 -48.5q-92 0 -142 58t-50 160q0 78 36.5 160
t105.5 136t162 54q87 0 133.5 -45.5zM350 614l-85 138h19l75 -123l136 123h24l-153 -138h-16z" />
    <glyph glyph-name="ccedilla.smcp" horiz-adv-x="553" 
d="M479.5 512.5q46.5 -45.5 46.5 -118.5q0 -18 -3 -34h-16q3 18 3 34q0 66 -41.5 107t-122.5 41q-88 0 -153.5 -52t-100 -130t-34.5 -152q0 -95 45.5 -148.5t130.5 -53.5q82 0 145.5 44.5t89.5 115.5h17q-26 -72 -85 -119t-137 -55l-56 -60q8 2 16 2q33 0 50.5 -16t17.5 -45
q0 -34 -27 -56t-70 -22q-49 0 -88 23l8 14q33 -21 80 -21q36 0 58.5 17t22.5 45q0 22 -13 34t-39 12q-17 0 -34 -5l-10 11l61 65h-7q-92 0 -142 58t-50 160q0 78 36.5 160t105.5 136t162 54q87 0 133.5 -45.5z" />
    <glyph glyph-name="ccircumflex.smcp" horiz-adv-x="553" 
d="M479.5 512.5q46.5 -45.5 46.5 -118.5q0 -17 -3 -34h-16q3 18 3 34q0 66 -41.5 107t-122.5 41q-88 0 -153.5 -52t-100 -130t-34.5 -152q0 -95 45.5 -148.5t130.5 -53.5q82 0 145.5 44.5t89.5 115.5h17q-28 -79 -96 -127.5t-156 -48.5q-92 0 -142 58t-50 160q0 78 36.5 160
t105.5 136t162 54q87 0 133.5 -45.5zM466 614l-75 123l-136 -123h-24l153 138h16l85 -138h-19z" />
    <glyph glyph-name="cdotaccent.smcp" horiz-adv-x="553" 
d="M479.5 512.5q46.5 -45.5 46.5 -118.5q0 -17 -3 -34h-16q3 18 3 34q0 66 -41.5 107t-122.5 41q-88 0 -153.5 -52t-100 -130t-34.5 -152q0 -95 45.5 -148.5t130.5 -53.5q82 0 145.5 44.5t89.5 115.5h17q-28 -79 -96 -127.5t-156 -48.5q-92 0 -142 58t-50 160q0 78 36.5 160
t105.5 136t162 54q87 0 133.5 -45.5zM365 675l19 77h16l-19 -77h-16z" />
    <glyph glyph-name="d.smcp" horiz-adv-x="593" 
d="M487 487.5q64 -60.5 64 -173.5q0 -76 -35 -148t-109 -119t-186 -47h-195l136 548h137q124 0 188 -60.5zM46 16h175q107 0 177.5 45t103.5 113t33 140q0 106 -59.5 162t-176.5 56h-125z" />
    <glyph glyph-name="eth.smcp" horiz-adv-x="594" 
d="M492 487.5q64 -60.5 64 -173.5q0 -76 -35 -148t-109 -119t-186 -47h-195l67 269h-57l4 16h57l65 263h137q124 0 188 -60.5zM403.5 61q70.5 45 103.5 113t33 140q0 106 -59.5 162t-176.5 56h-125l-61 -247h201l-4 -16h-201l-63 -253h175q107 0 177.5 45z" />
    <glyph glyph-name="dcaron.smcp" horiz-adv-x="593" 
d="M487 487.5q64 -60.5 64 -173.5q0 -76 -35 -148t-109 -119t-186 -47h-195l136 548h137q124 0 188 -60.5zM46 16h175q107 0 177.5 45t103.5 113t33 140q0 106 -59.5 162t-176.5 56h-125zM338 614l-85 138h19l75 -123l136 123h24l-153 -138h-16z" />
    <glyph glyph-name="dcroat.smcp" horiz-adv-x="594" 
d="M492 487.5q64 -60.5 64 -173.5q0 -76 -35 -148t-109 -119t-186 -47h-195l67 269h-57l4 16h57l65 263h137q124 0 188 -60.5zM403.5 61q70.5 45 103.5 113t33 140q0 106 -59.5 162t-176.5 56h-125l-61 -247h201l-4 -16h-201l-63 -253h175q107 0 177.5 45z" />
    <glyph glyph-name="e.smcp" horiz-adv-x="496" 
d="M180 532l-60 -242h306l-4 -16h-306l-64 -258h331l-4 -16h-347l136 548h336l-4 -16h-320z" />
    <glyph glyph-name="eacute.smcp" horiz-adv-x="496" 
d="M180 532l-60 -242h306l-4 -16h-306l-64 -258h331l-4 -16h-347l136 548h336l-4 -16h-320zM305 614l126 138h23l-130 -138h-19z" />
    <glyph glyph-name="ebreve.smcp" horiz-adv-x="496" 
d="M180 532l-60 -242h306l-4 -16h-306l-64 -258h331l-4 -16h-347l136 548h336l-4 -16h-320zM467 658q-44 -33 -107 -33q-58 0 -88 28t-30 80q0 12 1 19h16q-1 -7 -1 -19q0 -92 102 -92q57 0 95.5 28.5t58.5 82.5h17q-20 -61 -64 -94z" />
    <glyph glyph-name="ecaron.smcp" horiz-adv-x="496" 
d="M180 532l-60 -242h306l-4 -16h-306l-64 -258h331l-4 -16h-347l136 548h336l-4 -16h-320zM345 614l-85 138h19l75 -123l136 123h24l-153 -138h-16z" />
    <glyph glyph-name="ecircumflex.smcp" horiz-adv-x="496" 
d="M180 532l-60 -242h306l-4 -16h-306l-64 -258h331l-4 -16h-347l136 548h336l-4 -16h-320zM461 614l-75 123l-136 -123h-24l153 138h16l85 -138h-19z" />
    <glyph glyph-name="edieresis.smcp" horiz-adv-x="496" 
d="M180 532l-60 -242h306l-4 -16h-306l-64 -258h331l-4 -16h-347l136 548h336l-4 -16h-320zM268 675l19 77h16l-19 -77h-16zM452 675l19 77h16l-19 -77h-16z" />
    <glyph glyph-name="edotaccent.smcp" horiz-adv-x="496" 
d="M180 532l-60 -242h306l-4 -16h-306l-64 -258h331l-4 -16h-347l136 548h336l-4 -16h-320zM360 675l19 77h16l-19 -77h-16z" />
    <glyph glyph-name="egrave.smcp" horiz-adv-x="496" 
d="M180 532l-60 -242h306l-4 -16h-306l-64 -258h331l-4 -16h-347l136 548h336l-4 -16h-320zM402 614h-15l-66 138h19z" />
    <glyph glyph-name="emacron.smcp" horiz-adv-x="496" 
d="M180 532l-60 -242h306l-4 -16h-306l-64 -258h331l-4 -16h-347l136 548h336l-4 -16h-320zM258 688l4 16h226l-4 -16h-226z" />
    <glyph glyph-name="eogonek.smcp" horiz-adv-x="496" 
d="M120 290h306l-4 -16h-306l-64 -258h331l-4 -16q-66 -44 -90.5 -75t-24.5 -59q0 -20 10 -29.5t33 -9.5q18 0 33 5l-4 -17q-16 -4 -29 -4q-59 0 -59 55q0 32 23.5 63t81.5 71h-321l136 548h336l-4 -16h-320z" />
    <glyph glyph-name="f.smcp" horiz-adv-x="455" 
d="M180 532l-60 -240h297l-4 -16h-297l-68 -276h-16l136 548h329l-4 -16h-313z" />
    <glyph glyph-name="fi.smcp" horiz-adv-x="661" 
d="M180 532l-60 -240h297l-4 -16h-297l-68 -276h-16l136 548h329l-4 -16h-313zM487 0l136 548h16l-136 -548h-16z" />
    <glyph glyph-name="fl.smcp" horiz-adv-x="898" 
d="M180 532l-60 -240h297l-4 -16h-297l-68 -276h-16l136 548h329l-4 -16h-313zM833 16l-4 -16h-342l136 548h16l-132 -532h326z" />
    <glyph glyph-name="g.smcp" horiz-adv-x="585" 
d="M493 516.5q46 -41.5 46 -111.5q0 -16 -2 -25h-16q2 18 2 25q0 63 -41.5 100t-120.5 37q-94 0 -162.5 -51.5t-104.5 -129t-36 -152.5q0 -97 44.5 -149t129.5 -52q87 0 157 56.5t101 181.5h-193l4 16h209l-65 -262h-16q26 105 41 153h-1q-31 -76 -94 -118.5t-143 -42.5
q-91 0 -140.5 56.5t-49.5 160.5q0 79 38 160.5t110.5 135t170.5 53.5q86 0 132 -41.5z" />
    <glyph glyph-name="gbreve.smcp" horiz-adv-x="585" 
d="M493 516.5q46 -41.5 46 -111.5q0 -16 -2 -25h-16q2 18 2 25q0 63 -41.5 100t-120.5 37q-94 0 -162.5 -51.5t-104.5 -129t-36 -152.5q0 -97 44.5 -149t129.5 -52q87 0 157 56.5t101 181.5h-193l4 16h209l-65 -262h-16q26 105 41 153h-1q-31 -76 -94 -118.5t-143 -42.5
q-91 0 -140.5 56.5t-49.5 160.5q0 79 38 160.5t110.5 135t170.5 53.5q86 0 132 -41.5zM481 658q-44 -33 -107 -33q-58 0 -88 28t-30 80q0 12 1 19h16q-1 -7 -1 -19q0 -92 102 -92q57 0 95.5 28.5t58.5 82.5h17q-20 -61 -64 -94z" />
    <glyph glyph-name="gcircumflex.smcp" horiz-adv-x="585" 
d="M493 516.5q46 -41.5 46 -111.5q0 -16 -2 -25h-16q2 18 2 25q0 63 -41.5 100t-120.5 37q-94 0 -162.5 -51.5t-104.5 -129t-36 -152.5q0 -97 44.5 -149t129.5 -52q87 0 157 56.5t101 181.5h-193l4 16h209l-65 -262h-16q26 105 41 153h-1q-31 -76 -94 -118.5t-143 -42.5
q-91 0 -140.5 56.5t-49.5 160.5q0 79 38 160.5t110.5 135t170.5 53.5q86 0 132 -41.5zM475 614l-75 123l-136 -123h-24l153 138h16l85 -138h-19z" />
    <glyph glyph-name="gcommaaccent.smcp" horiz-adv-x="585" 
d="M493 516.5q46 -41.5 46 -111.5q0 -16 -2 -25h-16q2 18 2 25q0 63 -41.5 100t-120.5 37q-94 0 -162.5 -51.5t-104.5 -129t-36 -152.5q0 -97 44.5 -149t129.5 -52q87 0 157 56.5t101 181.5h-193l4 16h209l-65 -262h-16q26 105 41 153h-1q-31 -76 -94 -118.5t-143 -42.5
q-91 0 -140.5 56.5t-49.5 160.5q0 79 38 160.5t110.5 135t170.5 53.5q86 0 132 -41.5zM162 -239h-14l52 94l16 66h16l-16 -66z" />
    <glyph glyph-name="gdotaccent.smcp" horiz-adv-x="585" 
d="M493 516.5q46 -41.5 46 -111.5q0 -16 -2 -25h-16q2 18 2 25q0 63 -41.5 100t-120.5 37q-94 0 -162.5 -51.5t-104.5 -129t-36 -152.5q0 -97 44.5 -149t129.5 -52q87 0 157 56.5t101 181.5h-193l4 16h209l-65 -262h-16q26 105 41 153h-1q-31 -76 -94 -118.5t-143 -42.5
q-91 0 -140.5 56.5t-49.5 160.5q0 79 38 160.5t110.5 135t170.5 53.5q86 0 132 -41.5zM374 675l19 77h16l-19 -77h-16z" />
    <glyph glyph-name="h.smcp" horiz-adv-x="598" 
d="M424 0l69 277h-376l-69 -277h-16l136 548h16l-63 -255h376l63 255h16l-136 -548h-16z" />
    <glyph glyph-name="hbar.smcp" horiz-adv-x="597" 
d="M553 457l-113 -457h-16l69 277h-376l-69 -277h-16l113 457h-49l4 16h49l19 75h16l-19 -75h376l19 75h16l-19 -75h49l-4 -16h-49zM162 457l-41 -164h376l41 164h-376z" />
    <glyph glyph-name="uni0125.smcp" horiz-adv-x="598" 
d="M424 0l69 277h-376l-69 -277h-16l136 548h16l-63 -255h376l63 255h16l-136 -548h-16zM497 614l-75 123l-136 -123h-24l153 138h16l85 -138h-19z" />
    <glyph glyph-name="i.smcp" horiz-adv-x="206" 
d="M32 0l136 548h16l-136 -548h-16z" />
    <glyph glyph-name="iacute.smcp" horiz-adv-x="206" 
d="M32 0l136 548h16l-136 -548h-16zM145 614l126 138h23l-130 -138h-19z" />
    <glyph glyph-name="ibreve.smcp" horiz-adv-x="206" 
d="M32 0l136 548h16l-136 -548h-16zM289 658q-37 -33 -89 -33q-45 0 -69 26.5t-24 74.5q0 12 2 26h15q-2 -14 -2 -26q0 -42 19.5 -63.5t58.5 -21.5q46 0 78.5 28.5t50.5 82.5h16q-19 -61 -56 -94z" />
    <glyph glyph-name="icircumflex.smcp" horiz-adv-x="206" 
d="M32 0l136 548h16l-136 -548h-16zM280 615l-55 121l-116 -121h-22l131 137h17l63 -137h-18z" />
    <glyph glyph-name="idieresis.smcp" horiz-adv-x="206" 
d="M32 0l136 548h16l-136 -548h-16zM130 683l17 69h16l-17 -69h-16zM274 683l17 69h16l-17 -69h-16z" />
    <glyph glyph-name="i.loclTRK.smcp" horiz-adv-x="206" 
d="M32 0l136 548h16l-136 -548h-16zM200 675l19 77h16l-19 -77h-16z" />
    <glyph glyph-name="igrave.smcp" horiz-adv-x="206" 
d="M32 0l136 548h16l-136 -548h-16zM242 614h-15l-66 138h19z" />
    <glyph glyph-name="ij.smcp" horiz-adv-x="466" 
d="M32 0l136 548h16l-136 -548h-16zM289 31q-40 -34 -98 -34q-23 0 -35 4l4 16q12 -4 31 -4q52 0 88 30.5t51 89.5l103 415h16l-104 -419q-16 -64 -56 -98z" />
    <glyph glyph-name="imacron.smcp" horiz-adv-x="206" 
d="M32 0l136 548h16l-136 -548h-16zM118 688l4 16h186l-4 -16h-186z" />
    <glyph glyph-name="iogonek.smcp" horiz-adv-x="206" 
d="M-42.5 -75q-24.5 -31 -24.5 -59q0 -20 10 -29.5t33 -9.5q18 0 33 5l-4 -17q-16 -4 -29 -4q-59 0 -59 55q0 34 26 66.5t91 75.5l134 540h16l-136 -548q-66 -44 -90.5 -75z" />
    <glyph glyph-name="itilde.smcp" horiz-adv-x="206" 
d="M32 0l136 548h16l-136 -548h-16zM317 682q-21 -21 -46 -21q-19 0 -32 8.5t-29 25.5q-15 16 -26 23.5t-26 7.5q-40 0 -60 -65h-18q13 39 34 60t46 21q18 0 31 -8.5t29 -25.5q15 -16 26 -23.5t26 -7.5q41 0 61 65h17q-12 -39 -33 -60z" />
    <glyph glyph-name="j.smcp" horiz-adv-x="260" 
d="M83 31q-40 -34 -98 -34q-23 0 -35 4l4 16q12 -4 31 -4q52 0 88 30.5t51 89.5l103 415h16l-104 -419q-16 -64 -56 -98z" />
    <glyph glyph-name="jcircumflex.smcp" horiz-adv-x="260" 
d="M83 31q-40 -34 -98 -34q-23 0 -35 4l4 16q12 -4 31 -4q52 0 88 30.5t51 89.5l103 415h16l-104 -419q-16 -64 -56 -98zM339 615l-55 121l-116 -121h-22l131 137h17l63 -137h-18z" />
    <glyph glyph-name="k.smcp" horiz-adv-x="451" 
d="M379 0h-21l-244 282h-1l-70 -282h-16l136 548h16l-63 -255h1l345 255h27l-356 -263z" />
    <glyph glyph-name="kcommaaccent.smcp" horiz-adv-x="451" 
d="M379 0h-21l-244 282h-1l-70 -282h-16l136 548h16l-63 -255h1l345 255h27l-356 -263zM123 -239h-14l52 94l16 66h16l-16 -66z" />
    <glyph glyph-name="l.smcp" horiz-adv-x="443" 
d="M378 16l-4 -16h-342l136 548h16l-132 -532h326z" />
    <glyph glyph-name="lacute.smcp" horiz-adv-x="443" 
d="M378 16l-4 -16h-342l136 548h16l-132 -532h326zM187 614l126 138h23l-130 -138h-19z" />
    <glyph glyph-name="lcaron.smcp" horiz-adv-x="443" 
d="M378 16l-4 -16h-342l136 548h16l-132 -532h326zM209 374l83 174h18l-86 -174h-15z" />
    <glyph glyph-name="lcommaaccent.smcp" horiz-adv-x="443" 
d="M378 16l-4 -16h-342l136 548h16l-132 -532h326zM121 -239h-14l52 94l16 66h16l-16 -66z" />
    <glyph glyph-name="ldot.smcp" horiz-adv-x="501" 
d="M378 16l-4 -16h-342l136 548h16l-132 -532h326zM348 270l18 72h18l-18 -72h-18z" />
    <glyph glyph-name="j.acute.loclNLD.smcp" horiz-adv-x="260" 
d="M83 31q-40 -34 -98 -34q-23 0 -35 4l4 16q12 -4 31 -4q52 0 88 30.5t51 89.5l103 415h16l-104 -419q-16 -64 -56 -98zM204 614l126 138h23l-130 -138h-19z" />
    <glyph glyph-name="lslash.smcp" horiz-adv-x="435" 
d="M367 0h-342l61 245l-74 -37l5 20l74 37l70 283h16l-68 -275l155 76l-5 -20l-155 -76l-59 -237h326z" />
    <glyph glyph-name="m.smcp" horiz-adv-x="719" 
d="M545 0l74 297l58 234h-1l-167 -241l-201 -290h-22l-57 290l-48 241h-1l-58 -234l-74 -297h-16l136 548h26l62 -312l43 -219h1l153 220l215 311h29l-136 -548h-16z" />
    <glyph glyph-name="n.smcp" horiz-adv-x="609" 
d="M423 0l-118 255l-129 277h-1q-23 -94 -40 -161l-33 -133l-59 -238h-16l136 548h23l119 -255l128 -277h1l73 294l59 238h16l-136 -548h-23z" />
    <glyph glyph-name="nacute.smcp" horiz-adv-x="609" 
d="M423 0l-118 255l-129 277h-1q-23 -94 -40 -161l-33 -133l-59 -238h-16l136 548h23l119 -255l128 -277h1l73 294l59 238h16l-136 -548h-23zM332 614l126 138h23l-130 -138h-19z" />
    <glyph glyph-name="ncaron.smcp" horiz-adv-x="609" 
d="M423 0l-118 255l-129 277h-1q-23 -94 -40 -161l-33 -133l-59 -238h-16l136 548h23l119 -255l128 -277h1l73 294l59 238h16l-136 -548h-23zM372 614l-85 138h19l75 -123l136 123h24l-153 -138h-16z" />
    <glyph glyph-name="ncommaaccent.smcp" horiz-adv-x="609" 
d="M423 0l-118 255l-129 277h-1q-23 -94 -40 -161l-33 -133l-59 -238h-16l136 548h23l119 -255l128 -277h1l73 294l59 238h16l-136 -548h-23zM165 -239h-14l52 94l16 66h16l-16 -66z" />
    <glyph glyph-name="eng.smcp" horiz-adv-x="609" 
d="M435 -41q-14 -56 -42 -80t-69 -24q-13 0 -21 3l4 15q8 -2 17 -2q36 0 59.5 20.5t36.5 71.5l10 38l-129 270l-124 262h-1l-71 -282l-62 -251h-16l136 548h24l122 -257l126 -264h1l71 284l59 237h16z" />
    <glyph glyph-name="ntilde.smcp" horiz-adv-x="609" 
d="M423 0l-118 255l-129 277h-1q-23 -94 -40 -161l-33 -133l-59 -238h-16l136 548h23l119 -255l128 -277h1l73 294l59 238h16l-136 -548h-23zM520 682q-23 -21 -52 -21q-21 0 -36.5 8.5t-34.5 25.5q-18 16 -31 23.5t-31 7.5q-23 0 -41.5 -16.5t-28.5 -48.5h-17q13 39 36 60
t52 21q21 0 36.5 -8.5t34.5 -25.5q18 -16 31 -23.5t31 -7.5q23 0 41.5 16.5t28.5 48.5h17q-13 -39 -36 -60z" />
    <glyph glyph-name="o.smcp" horiz-adv-x="584" 
d="M498 498q53 -60 53 -165q0 -78 -36.5 -158t-106 -132.5t-162.5 -52.5q-95 0 -148.5 60.5t-53.5 165.5q0 78 36.5 157.5t105.5 132t162 52.5q97 0 150 -60zM194.5 491.5q-65.5 -50.5 -100 -126t-34.5 -149.5q0 -99 48.5 -154.5t137.5 -55.5t154.5 50.5t100 126.5t34.5 150
q0 98 -48.5 153.5t-138.5 55.5q-88 0 -153.5 -50.5z" />
    <glyph glyph-name="oacute.smcp" horiz-adv-x="584" 
d="M498 498q53 -60 53 -165q0 -78 -36.5 -158t-106 -132.5t-162.5 -52.5q-95 0 -148.5 60.5t-53.5 165.5q0 78 36.5 157.5t105.5 132t162 52.5q97 0 150 -60zM194.5 491.5q-65.5 -50.5 -100 -126t-34.5 -149.5q0 -99 48.5 -154.5t137.5 -55.5t154.5 50.5t100 126.5t34.5 150
q0 98 -48.5 153.5t-138.5 55.5q-88 0 -153.5 -50.5zM315 614l126 138h23l-130 -138h-19z" />
    <glyph glyph-name="obreve.smcp" horiz-adv-x="584" 
d="M498 498q53 -60 53 -165q0 -78 -36.5 -158t-106 -132.5t-162.5 -52.5q-95 0 -148.5 60.5t-53.5 165.5q0 78 36.5 157.5t105.5 132t162 52.5q97 0 150 -60zM194.5 491.5q-65.5 -50.5 -100 -126t-34.5 -149.5q0 -99 48.5 -154.5t137.5 -55.5t154.5 50.5t100 126.5t34.5 150
q0 98 -48.5 153.5t-138.5 55.5q-88 0 -153.5 -50.5zM477 658q-44 -33 -107 -33q-58 0 -88 28t-30 80q0 12 1 19h16q-1 -7 -1 -19q0 -92 102 -92q57 0 95.5 28.5t58.5 82.5h17q-20 -61 -64 -94z" />
    <glyph glyph-name="ocircumflex.smcp" horiz-adv-x="584" 
d="M498 498q53 -60 53 -165q0 -78 -36.5 -158t-106 -132.5t-162.5 -52.5q-95 0 -148.5 60.5t-53.5 165.5q0 78 36.5 157.5t105.5 132t162 52.5q97 0 150 -60zM194.5 491.5q-65.5 -50.5 -100 -126t-34.5 -149.5q0 -99 48.5 -154.5t137.5 -55.5t154.5 50.5t100 126.5t34.5 150
q0 98 -48.5 153.5t-138.5 55.5q-88 0 -153.5 -50.5zM471 614l-75 123l-136 -123h-24l153 138h16l85 -138h-19z" />
    <glyph glyph-name="odieresis.smcp" horiz-adv-x="584" 
d="M498 498q53 -60 53 -165q0 -78 -36.5 -158t-106 -132.5t-162.5 -52.5q-95 0 -148.5 60.5t-53.5 165.5q0 78 36.5 157.5t105.5 132t162 52.5q97 0 150 -60zM194.5 491.5q-65.5 -50.5 -100 -126t-34.5 -149.5q0 -99 48.5 -154.5t137.5 -55.5t154.5 50.5t100 126.5t34.5 150
q0 98 -48.5 153.5t-138.5 55.5q-88 0 -153.5 -50.5zM278 675l19 77h16l-19 -77h-16zM462 675l19 77h16l-19 -77h-16z" />
    <glyph glyph-name="ograve.smcp" horiz-adv-x="584" 
d="M498 498q53 -60 53 -165q0 -78 -36.5 -158t-106 -132.5t-162.5 -52.5q-95 0 -148.5 60.5t-53.5 165.5q0 78 36.5 157.5t105.5 132t162 52.5q97 0 150 -60zM194.5 491.5q-65.5 -50.5 -100 -126t-34.5 -149.5q0 -99 48.5 -154.5t137.5 -55.5t154.5 50.5t100 126.5t34.5 150
q0 98 -48.5 153.5t-138.5 55.5q-88 0 -153.5 -50.5zM412 614h-15l-66 138h19z" />
    <glyph glyph-name="ohungarumlaut.smcp" horiz-adv-x="584" 
d="M498 498q53 -60 53 -165q0 -78 -36.5 -158t-106 -132.5t-162.5 -52.5q-95 0 -148.5 60.5t-53.5 165.5q0 78 36.5 157.5t105.5 132t162 52.5q97 0 150 -60zM194.5 491.5q-65.5 -50.5 -100 -126t-34.5 -149.5q0 -99 48.5 -154.5t137.5 -55.5t154.5 50.5t100 126.5t34.5 150
q0 98 -48.5 153.5t-138.5 55.5q-88 0 -153.5 -50.5zM278 614l154 138h26l-159 -138h-21zM377 614l154 138h26l-159 -138h-21z" />
    <glyph glyph-name="omacron.smcp" horiz-adv-x="584" 
d="M498 498q53 -60 53 -165q0 -78 -36.5 -158t-106 -132.5t-162.5 -52.5q-95 0 -148.5 60.5t-53.5 165.5q0 78 36.5 157.5t105.5 132t162 52.5q97 0 150 -60zM194.5 491.5q-65.5 -50.5 -100 -126t-34.5 -149.5q0 -99 48.5 -154.5t137.5 -55.5t154.5 50.5t100 126.5t34.5 150
q0 98 -48.5 153.5t-138.5 55.5q-88 0 -153.5 -50.5zM268 688l4 16h226l-4 -16h-226z" />
    <glyph glyph-name="oslash.smcp" horiz-adv-x="585" 
d="M551 333q0 -78 -36.5 -158t-106 -132.5t-162.5 -52.5q-53 0 -93.5 19.5t-66.5 55.5l-60 -55l-10 12l61 57q-33 54 -33 137q0 78 36.5 157.5t105.5 132t162 52.5q105 0 160 -72l59 55l11 -12l-61 -57q34 -57 34 -139zM194.5 491.5q-65.5 -50.5 -100 -126t-34.5 -149.5
q0 -73 28 -126l408 384q-48 68 -148 68q-88 0 -153.5 -50.5zM400.5 56.5q65.5 50.5 100 126.5t34.5 150t-30 128l-408 -385q23 -34 61 -52t88 -18q89 0 154.5 50.5z" />
    <glyph glyph-name="otilde.smcp" horiz-adv-x="584" 
d="M498 498q53 -60 53 -165q0 -78 -36.5 -158t-106 -132.5t-162.5 -52.5q-95 0 -148.5 60.5t-53.5 165.5q0 78 36.5 157.5t105.5 132t162 52.5q97 0 150 -60zM194.5 491.5q-65.5 -50.5 -100 -126t-34.5 -149.5q0 -99 48.5 -154.5t137.5 -55.5t154.5 50.5t100 126.5t34.5 150
q0 98 -48.5 153.5t-138.5 55.5q-88 0 -153.5 -50.5zM503 682q-23 -21 -52 -21q-21 0 -36.5 8.5t-34.5 25.5q-18 16 -31 23.5t-31 7.5q-23 0 -41.5 -16.5t-28.5 -48.5h-17q13 39 36 60t52 21q21 0 36.5 -8.5t34.5 -25.5q18 -16 31 -23.5t31 -7.5q23 0 41.5 16.5t28.5 48.5h17
q-13 -39 -36 -60z" />
    <glyph glyph-name="oe.smcp" horiz-adv-x="799" 
d="M483 532l-60 -242h306l-4 -16h-306l-64 -258h331l-4 -16h-394q-118 0 -179 60.5t-61 173.5q0 76 33.5 148t105 119t179.5 47h441l-4 -16h-320zM195 487q-68 -45 -99.5 -113t-31.5 -140q0 -106 56.5 -162t167.5 -56h51l128 516h-101q-103 0 -171 -45z" />
    <glyph glyph-name="p.smcp" horiz-adv-x="489" 
d="M449.5 512.5q39.5 -35.5 39.5 -95.5q0 -39 -20 -76t-61.5 -61t-102.5 -24h-198l-64 -256h-16l136 548h168q79 0 118.5 -35.5zM111 272h194q57 0 94.5 22t55.5 55.5t18 67.5q0 54 -35 84.5t-107 30.5h-156z" />
    <glyph glyph-name="thorn.smcp" horiz-adv-x="489" 
d="M301 429q79 0 118.5 -35.5t39.5 -95.5q0 -39 -20 -76t-61.5 -61t-102.5 -24h-198l-34 -137h-16l136 548h16l-30 -119h152zM81 153h194q57 0 94.5 22t55.5 55.5t18 67.5q0 54 -35 84.5t-107 30.5h-156z" />
    <glyph glyph-name="q.smcp" horiz-adv-x="584" 
d="M515.5 177q-35.5 -79 -99.5 -129l53 -75l-13 -9l-52 75q-72 -49 -158 -49q-95 0 -148.5 60.5t-53.5 165.5q0 78 36.5 157.5t105.5 132t162 52.5q97 0 150 -60t53 -165q0 -77 -35.5 -156zM108.5 61.5q48.5 -55.5 137.5 -55.5q81 0 148 46l-58 84l13 9l58 -83
q60 47 94 122.5t34 148.5q0 98 -48.5 153.5t-138.5 55.5q-88 0 -153.5 -50.5t-100 -126t-34.5 -149.5q0 -99 48.5 -154.5z" />
    <glyph glyph-name="r.smcp" horiz-adv-x="499" 
d="M436 515q40 -33 40 -93q0 -35 -18 -68t-54 -57t-88 -30v-1q29 -8 44.5 -30t22.5 -71l24 -165h-16l-23 161q-5 38 -15.5 59.5t-31.5 31t-58 9.5h-150l-65 -261h-16l136 548h149q79 0 119 -33zM117 277h150q68 0 111 23t62.5 56t19.5 66q0 53 -35.5 81.5t-107.5 28.5h-137z
" />
    <glyph glyph-name="racute.smcp" horiz-adv-x="499" 
d="M436 515q40 -33 40 -93q0 -35 -18 -68t-54 -57t-88 -30v-1q29 -8 44.5 -30t22.5 -71l24 -165h-16l-23 161q-5 38 -15.5 59.5t-31.5 31t-58 9.5h-150l-65 -261h-16l136 548h149q79 0 119 -33zM117 277h150q68 0 111 23t62.5 56t19.5 66q0 53 -35.5 81.5t-107.5 28.5h-137z
M292 614l126 138h23l-130 -138h-19z" />
    <glyph glyph-name="rcaron.smcp" horiz-adv-x="499" 
d="M436 515q40 -33 40 -93q0 -35 -18 -68t-54 -57t-88 -30v-1q29 -8 44.5 -30t22.5 -71l24 -165h-16l-23 161q-5 38 -15.5 59.5t-31.5 31t-58 9.5h-150l-65 -261h-16l136 548h149q79 0 119 -33zM117 277h150q68 0 111 23t62.5 56t19.5 66q0 53 -35.5 81.5t-107.5 28.5h-137z
M332 614l-85 138h19l75 -123l136 123h24l-153 -138h-16z" />
    <glyph glyph-name="rcommaaccent.smcp" horiz-adv-x="499" 
d="M436 515q40 -33 40 -93q0 -35 -18 -68t-54 -57t-88 -30v-1q29 -8 44.5 -30t22.5 -71l24 -165h-16l-23 161q-5 38 -15.5 59.5t-31.5 31t-58 9.5h-150l-65 -261h-16l136 548h149q79 0 119 -33zM117 277h150q68 0 111 23t62.5 56t19.5 66q0 53 -35.5 81.5t-107.5 28.5h-137z
M129 -239h-14l52 94l16 66h16l-16 -66z" />
    <glyph glyph-name="s.smcp" horiz-adv-x="483" 
d="M445 426q0 -23 -6 -52h-16q6 29 6 52q0 59 -35.5 87.5t-110.5 28.5q-55 0 -94.5 -20.5t-59 -51.5t-19.5 -62q0 -47 29.5 -72.5t98.5 -48.5q55 -18 85 -33.5t47.5 -41t17.5 -66.5q0 -37 -22.5 -73t-69 -59.5t-113.5 -23.5q-166 0 -166 138q0 27 7 55h16q-7 -28 -7 -55
q0 -63 37 -92.5t113 -29.5q63 0 105.5 21.5t63 53.5t20.5 65q0 37 -16 59t-43.5 35.5t-80.5 31.5q-73 24 -105.5 53.5t-32.5 82.5q0 36 22 70.5t64.5 57t102.5 22.5q162 0 162 -132z" />
    <glyph glyph-name="sacute.smcp" horiz-adv-x="483" 
d="M445 426q0 -23 -6 -52h-16q6 29 6 52q0 59 -35.5 87.5t-110.5 28.5q-55 0 -94.5 -20.5t-59 -51.5t-19.5 -62q0 -47 29.5 -72.5t98.5 -48.5q55 -18 85 -33.5t47.5 -41t17.5 -66.5q0 -37 -22.5 -73t-69 -59.5t-113.5 -23.5q-166 0 -166 138q0 27 7 55h16q-7 -28 -7 -55
q0 -63 37 -92.5t113 -29.5q63 0 105.5 21.5t63 53.5t20.5 65q0 37 -16 59t-43.5 35.5t-80.5 31.5q-73 24 -105.5 53.5t-32.5 82.5q0 36 22 70.5t64.5 57t102.5 22.5q162 0 162 -132zM253 614l126 138h23l-130 -138h-19z" />
    <glyph glyph-name="scaron.smcp" horiz-adv-x="483" 
d="M445 426q0 -23 -6 -52h-16q6 29 6 52q0 59 -35.5 87.5t-110.5 28.5q-55 0 -94.5 -20.5t-59 -51.5t-19.5 -62q0 -47 29.5 -72.5t98.5 -48.5q55 -18 85 -33.5t47.5 -41t17.5 -66.5q0 -37 -22.5 -73t-69 -59.5t-113.5 -23.5q-166 0 -166 138q0 27 7 55h16q-7 -28 -7 -55
q0 -63 37 -92.5t113 -29.5q63 0 105.5 21.5t63 53.5t20.5 65q0 37 -16 59t-43.5 35.5t-80.5 31.5q-73 24 -105.5 53.5t-32.5 82.5q0 36 22 70.5t64.5 57t102.5 22.5q162 0 162 -132zM293 614l-85 138h19l75 -123l136 123h24l-153 -138h-16z" />
    <glyph glyph-name="scedilla.smcp" horiz-adv-x="483" 
d="M445 426q0 -24 -6 -52h-16q6 28 6 52q0 59 -35.5 87.5t-110.5 28.5q-55 0 -94.5 -20.5t-59 -51.5t-19.5 -62q0 -47 29.5 -72.5t98.5 -48.5q55 -18 85 -33.5t47.5 -41t17.5 -66.5q0 -35 -20 -69t-61 -58t-101 -28l-55 -59q8 2 16 2q33 0 50.5 -16t17.5 -45q0 -34 -27 -56
t-70 -22q-49 0 -88 23l8 14q33 -21 80 -21q36 0 58.5 17t22.5 45q0 22 -13 34t-39 12q-17 0 -34 -5l-10 11l60 65q-166 0 -166 138q0 27 7 55h16q-7 -28 -7 -55q0 -63 37 -92.5t113 -29.5q63 0 105.5 21.5t63 53.5t20.5 65q0 37 -16 59t-43.5 35.5t-80.5 31.5
q-73 24 -105.5 53.5t-32.5 82.5q0 36 22 70.5t64.5 57t102.5 22.5q162 0 162 -132z" />
    <glyph glyph-name="scircumflex.smcp" horiz-adv-x="483" 
d="M445 426q0 -23 -6 -52h-16q6 29 6 52q0 59 -35.5 87.5t-110.5 28.5q-55 0 -94.5 -20.5t-59 -51.5t-19.5 -62q0 -47 29.5 -72.5t98.5 -48.5q55 -18 85 -33.5t47.5 -41t17.5 -66.5q0 -37 -22.5 -73t-69 -59.5t-113.5 -23.5q-166 0 -166 138q0 27 7 55h16q-7 -28 -7 -55
q0 -63 37 -92.5t113 -29.5q63 0 105.5 21.5t63 53.5t20.5 65q0 37 -16 59t-43.5 35.5t-80.5 31.5q-73 24 -105.5 53.5t-32.5 82.5q0 36 22 70.5t64.5 57t102.5 22.5q162 0 162 -132zM409 614l-75 123l-136 -123h-24l153 138h16l85 -138h-19z" />
    <glyph glyph-name="scommaaccent.smcp" horiz-adv-x="483" 
d="M445 426q0 -23 -6 -52h-16q6 29 6 52q0 59 -35.5 87.5t-110.5 28.5q-55 0 -94.5 -20.5t-59 -51.5t-19.5 -62q0 -47 29.5 -72.5t98.5 -48.5q55 -18 85 -33.5t47.5 -41t17.5 -66.5q0 -37 -22.5 -73t-69 -59.5t-113.5 -23.5q-166 0 -166 138q0 27 7 55h16q-7 -28 -7 -55
q0 -63 37 -92.5t113 -29.5q63 0 105.5 21.5t63 53.5t20.5 65q0 37 -16 59t-43.5 35.5t-80.5 31.5q-73 24 -105.5 53.5t-32.5 82.5q0 36 22 70.5t64.5 57t102.5 22.5q162 0 162 -132zM100 -239h-14l52 94l16 66h16l-16 -66z" />
    <glyph glyph-name="germandbls.smcp" horiz-adv-x="618" 
d="M483 264.5q43 -39.5 43 -106.5q0 -40 -23 -79t-68.5 -64t-108.5 -25q-72 0 -109 28.5t-37 80.5q0 15 2 24h16q-2 -9 -2 -24q0 -93 130 -93q59 0 100.5 22.5t62.5 58t21 71.5q0 66 -44.5 101t-131.5 44l4 16l203 157q-25 32 -66.5 49t-96.5 17q-102 0 -166 -50.5
t-89 -149.5l-85 -342h-16l86 346q26 104 94.5 158t175.5 54q64 0 111.5 -23t73.5 -62l-203 -157q80 -12 123 -51.5z" />
    <glyph glyph-name="t.smcp" horiz-adv-x="468" 
d="M311 532l-132 -532h-16l132 532h-221l4 16h458l-4 -16h-221z" />
    <glyph glyph-name="tbar.smcp" horiz-adv-x="468" 
d="M258 319h128l-4 -16h-128l-75 -303h-16l75 303h-128l4 16h128l53 213h-221l4 16h458l-4 -16h-221z" />
    <glyph glyph-name="tcaron.smcp" horiz-adv-x="468" 
d="M311 532l-132 -532h-16l132 532h-221l4 16h458l-4 -16h-221zM316 614l-85 138h19l75 -123l136 123h24l-153 -138h-16z" />
    <glyph glyph-name="uni0163.smcp" horiz-adv-x="468" 
d="M311 532l-132 -532h-16l132 532h-221l4 16h458l-4 -16h-221zM89 -239h-14l52 94l16 66h16l-16 -66z" />
    <glyph glyph-name="uni021B.smcp" horiz-adv-x="468" 
d="M311 532l-132 -532h-16l132 532h-221l4 16h458l-4 -16h-221zM89 -239h-14l52 94l16 66h16l-16 -66z" />
    <glyph glyph-name="u.smcp" horiz-adv-x="568" 
d="M378.5 39q-58.5 -49 -146.5 -49q-164 0 -164 150q0 31 11 75l83 333h16l-84 -337q-10 -37 -10 -71q0 -68 36.5 -101t111.5 -33q82 0 137 46t77 135l90 361h16l-91 -365q-24 -95 -82.5 -144z" />
    <glyph glyph-name="uacute.smcp" horiz-adv-x="568" 
d="M378.5 39q-58.5 -49 -146.5 -49q-164 0 -164 150q0 31 11 75l83 333h16l-84 -337q-10 -37 -10 -71q0 -68 36.5 -101t111.5 -33q82 0 137 46t77 135l90 361h16l-91 -365q-24 -95 -82.5 -144zM316 614l126 138h23l-130 -138h-19z" />
    <glyph glyph-name="ubreve.smcp" horiz-adv-x="568" 
d="M378.5 39q-58.5 -49 -146.5 -49q-164 0 -164 150q0 31 11 75l83 333h16l-84 -337q-10 -37 -10 -71q0 -68 36.5 -101t111.5 -33q82 0 137 46t77 135l90 361h16l-91 -365q-24 -95 -82.5 -144zM478 658q-44 -33 -107 -33q-58 0 -88 28t-30 80q0 12 1 19h16q-1 -7 -1 -19
q0 -92 102 -92q57 0 95.5 28.5t58.5 82.5h17q-20 -61 -64 -94z" />
    <glyph glyph-name="ucircumflex.smcp" horiz-adv-x="568" 
d="M378.5 39q-58.5 -49 -146.5 -49q-164 0 -164 150q0 31 11 75l83 333h16l-84 -337q-10 -37 -10 -71q0 -68 36.5 -101t111.5 -33q82 0 137 46t77 135l90 361h16l-91 -365q-24 -95 -82.5 -144zM472 614l-75 123l-136 -123h-24l153 138h16l85 -138h-19z" />
    <glyph glyph-name="udieresis.smcp" horiz-adv-x="568" 
d="M378.5 39q-58.5 -49 -146.5 -49q-164 0 -164 150q0 31 11 75l83 333h16l-84 -337q-10 -37 -10 -71q0 -68 36.5 -101t111.5 -33q82 0 137 46t77 135l90 361h16l-91 -365q-24 -95 -82.5 -144zM279 675l19 77h16l-19 -77h-16zM463 675l19 77h16l-19 -77h-16z" />
    <glyph glyph-name="ugrave.smcp" horiz-adv-x="568" 
d="M378.5 39q-58.5 -49 -146.5 -49q-164 0 -164 150q0 31 11 75l83 333h16l-84 -337q-10 -37 -10 -71q0 -68 36.5 -101t111.5 -33q82 0 137 46t77 135l90 361h16l-91 -365q-24 -95 -82.5 -144zM413 614h-15l-66 138h19z" />
    <glyph glyph-name="uhungarumlaut.smcp" horiz-adv-x="568" 
d="M378.5 39q-58.5 -49 -146.5 -49q-164 0 -164 150q0 31 11 75l83 333h16l-84 -337q-10 -37 -10 -71q0 -68 36.5 -101t111.5 -33q82 0 137 46t77 135l90 361h16l-91 -365q-24 -95 -82.5 -144zM279 614l154 138h26l-159 -138h-21zM378 614l154 138h26l-159 -138h-21z" />
    <glyph glyph-name="umacron.smcp" horiz-adv-x="568" 
d="M378.5 39q-58.5 -49 -146.5 -49q-164 0 -164 150q0 31 11 75l83 333h16l-84 -337q-10 -37 -10 -71q0 -68 36.5 -101t111.5 -33q82 0 137 46t77 135l90 361h16l-91 -365q-24 -95 -82.5 -144zM269 688l4 16h226l-4 -16h-226z" />
    <glyph glyph-name="uogonek.smcp" horiz-adv-x="568" 
d="M413 76q-32 -41 -83 -73q-71 -45 -97 -76.5t-26 -60.5q0 -20 10 -29.5t33 -9.5q18 0 33 5l-4 -17q-16 -4 -29 -4q-59 0 -59 55q0 33 24.5 64.5t85.5 68.5v1q-31 -10 -69 -10q-164 0 -164 150q0 31 11 75l83 333h16l-84 -337q-10 -37 -10 -71q0 -68 36.5 -101t111.5 -33
q82 0 137 46t77 135l90 361h16l-91 -365q-16 -66 -48 -107z" />
    <glyph glyph-name="uring.smcp" horiz-adv-x="568" 
d="M378.5 39q-58.5 -49 -146.5 -49q-164 0 -164 150q0 31 11 75l83 333h16l-84 -337q-10 -37 -10 -71q0 -68 36.5 -101t111.5 -33q82 0 137 46t77 135l90 361h16l-91 -365q-24 -95 -82.5 -144zM438.5 776.5q24.5 -24.5 24.5 -59.5t-24.5 -59.5t-59.5 -24.5t-59.5 24.5
t-24.5 59.5t25 59.5t59 24.5q35 0 59.5 -24.5zM331 765.5q-20 -19.5 -20 -48.5q0 -28 20 -48t48 -20q29 0 48.5 20t19.5 48q0 29 -19.5 48.5t-48.5 19.5q-28 0 -48 -19.5z" />
    <glyph glyph-name="utilde.smcp" horiz-adv-x="568" 
d="M378.5 39q-58.5 -49 -146.5 -49q-164 0 -164 150q0 31 11 75l83 333h16l-84 -337q-10 -37 -10 -71q0 -68 36.5 -101t111.5 -33q82 0 137 46t77 135l90 361h16l-91 -365q-24 -95 -82.5 -144zM504 682q-23 -21 -52 -21q-21 0 -36.5 8.5t-34.5 25.5q-18 16 -31 23.5t-31 7.5
q-23 0 -41.5 -16.5t-28.5 -48.5h-17q13 39 36 60t52 21q21 0 36.5 -8.5t34.5 -25.5q18 -16 31 -23.5t31 -7.5q23 0 41.5 16.5t28.5 48.5h17q-13 -39 -36 -60z" />
    <glyph glyph-name="v.smcp" horiz-adv-x="497" 
d="M175 0l-95 548h16l46 -264l46 -267h1q46 70 142 212l37 56l176 263h19l-367 -548h-21z" />
    <glyph glyph-name="w.smcp" horiz-adv-x="711" 
d="M449 0l-12 259l-12 273h-1q-91 -169 -148 -273l-140 -259h-23l-29 548h16l14 -263l12 -239l1 -29h1l146 270l142 261h23l12 -261l12 -270h1l147 268l144 263h18l-301 -548h-23z" />
    <glyph glyph-name="wacute.smcp" horiz-adv-x="711" 
d="M449 0l-12 259l-12 273h-1q-91 -169 -148 -273l-140 -259h-23l-29 548h16l14 -263l12 -239l1 -29h1l146 270l142 261h23l12 -261l12 -270h1l147 268l144 263h18l-301 -548h-23zM393 614l126 138h23l-130 -138h-19z" />
    <glyph glyph-name="wcircumflex.smcp" horiz-adv-x="711" 
d="M449 0l-12 259l-12 273h-1q-91 -169 -148 -273l-140 -259h-23l-29 548h16l14 -263l12 -239l1 -29h1l146 270l142 261h23l12 -261l12 -270h1l147 268l144 263h18l-301 -548h-23zM549 614l-75 123l-136 -123h-24l153 138h16l85 -138h-19z" />
    <glyph glyph-name="wdieresis.smcp" horiz-adv-x="711" 
d="M449 0l-12 259l-12 273h-1q-91 -169 -148 -273l-140 -259h-23l-29 548h16l14 -263l12 -239l1 -29h1l146 270l142 261h23l12 -261l12 -270h1l147 268l144 263h18l-301 -548h-23zM356 675l19 77h16l-19 -77h-16zM540 675l19 77h16l-19 -77h-16z" />
    <glyph glyph-name="wgrave.smcp" horiz-adv-x="711" 
d="M449 0l-12 259l-12 273h-1q-91 -169 -148 -273l-140 -259h-23l-29 548h16l14 -263l12 -239l1 -29h1l146 270l142 261h23l12 -261l12 -270h1l147 268l144 263h18l-301 -548h-23zM490 614h-15l-66 138h19z" />
    <glyph glyph-name="x.smcp" horiz-adv-x="490" 
d="M416 0h-18l-146 270h-1l-280 -270h-23l293 283l-145 265h18l139 -254h1l263 254h23l-276 -267z" />
    <glyph glyph-name="y.smcp" horiz-adv-x="471" 
d="M176 0h-16l61 244l-147 304h18l62 -130l76 -157h1l154 158l126 129h22l-296 -304z" />
    <glyph glyph-name="yacute.smcp" horiz-adv-x="471" 
d="M176 0h-16l61 244l-147 304h18l62 -130l76 -157h1l154 158l126 129h22l-296 -304zM253 614l126 138h23l-130 -138h-19z" />
    <glyph glyph-name="ycircumflex.smcp" horiz-adv-x="471" 
d="M176 0h-16l61 244l-147 304h18l62 -130l76 -157h1l154 158l126 129h22l-296 -304zM409 614l-75 123l-136 -123h-24l153 138h16l85 -138h-19z" />
    <glyph glyph-name="ydieresis.smcp" horiz-adv-x="471" 
d="M176 0h-16l61 244l-147 304h18l62 -130l76 -157h1l154 158l126 129h22l-296 -304zM216 675l19 77h16l-19 -77h-16zM400 675l19 77h16l-19 -77h-16z" />
    <glyph glyph-name="ygrave.smcp" horiz-adv-x="471" 
d="M176 0h-16l61 244l-147 304h18l62 -130l76 -157h1l154 158l126 129h22l-296 -304zM350 614h-15l-66 138h19z" />
    <glyph glyph-name="z.smcp" horiz-adv-x="451" 
d="M-23 17v-1h400l-4 -16h-421l5 20l509 511v1h-378l4 16h399l-5 -20z" />
    <glyph glyph-name="zacute.smcp" horiz-adv-x="451" 
d="M-23 17v-1h400l-4 -16h-421l5 20l509 511v1h-378l4 16h399l-5 -20zM241 614l126 138h23l-130 -138h-19z" />
    <glyph glyph-name="zcaron.smcp" horiz-adv-x="451" 
d="M-23 17v-1h400l-4 -16h-421l5 20l509 511v1h-378l4 16h399l-5 -20zM281 614l-85 138h19l75 -123l136 123h24l-153 -138h-16z" />
    <glyph glyph-name="zdotaccent.smcp" horiz-adv-x="451" 
d="M-23 17v-1h400l-4 -16h-421l5 20l509 511v1h-378l4 16h399l-5 -20zM296 675l19 77h16l-19 -77h-16z" />
    <glyph glyph-name="ccedilla.smcp.ss01" horiz-adv-x="553" 
d="M479.5 512.5q46.5 -45.5 46.5 -118.5q0 -17 -3 -34h-16q3 18 3 34q0 66 -41.5 107t-122.5 41q-88 0 -153.5 -52t-100 -130t-34.5 -152q0 -95 45.5 -148.5t130.5 -53.5q82 0 145.5 44.5t89.5 115.5h17q-28 -79 -96 -127.5t-156 -48.5q-92 0 -142 58t-50 160q0 78 36.5 160
t105.5 136t162 54q87 0 133.5 -45.5zM76 -207l163 158h20l-159 -158h-24z" />
    <glyph glyph-name="scedilla.smcp.ss01" horiz-adv-x="483" 
d="M445 426q0 -23 -6 -52h-16q6 29 6 52q0 59 -35.5 87.5t-110.5 28.5q-55 0 -94.5 -20.5t-59 -51.5t-19.5 -62q0 -47 29.5 -72.5t98.5 -48.5q55 -18 85 -33.5t47.5 -41t17.5 -66.5q0 -37 -22.5 -73t-69 -59.5t-113.5 -23.5q-166 0 -166 138q0 27 7 55h16q-7 -28 -7 -55
q0 -63 37 -92.5t113 -29.5q63 0 105.5 21.5t63 53.5t20.5 65q0 37 -16 59t-43.5 35.5t-80.5 31.5q-73 24 -105.5 53.5t-32.5 82.5q0 36 22 70.5t64.5 57t102.5 22.5q162 0 162 -132zM19 -207l163 158h20l-159 -158h-24z" />
    <glyph glyph-name="uni0163.smcp.ss01" horiz-adv-x="468" 
d="M311 532l-132 -532h-16l132 532h-221l4 16h458l-4 -16h-221zM8 -207l163 158h20l-159 -158h-24z" />
    <glyph glyph-name="zero.lf" horiz-adv-x="545" 
d="M522 463q0 -95 -34 -206t-101.5 -189t-162.5 -78q-160 0 -160 221q0 95 34 206t101 189t162 78q161 0 161 -221zM207.5 591.5q-63.5 -76.5 -95.5 -184t-32 -196.5q0 -104 35.5 -154.5t108.5 -50.5q90 0 154 76.5t96 184t32 196.5q0 104 -35.5 154.5t-109.5 50.5
q-90 0 -153.5 -76.5z" />
    <glyph glyph-name="one.lf" horiz-adv-x="297" 
d="M98 0l154 618h-1q-21 -37 -61 -54.5t-102 -17.5l4 16q71 0 110.5 25.5t63.5 86.5h16l-168 -674h-16z" />
    <glyph glyph-name="two.lf" horiz-adv-x="527" 
d="M475.5 641.5q43.5 -42.5 43.5 -112.5q0 -54 -22 -94t-75 -77.5t-149 -79.5q-90 -40 -142 -80t-77.5 -82.5t-39.5 -99.5h399l-4 -16h-414q13 70 43.5 120.5t85 91.5t142.5 80q93 41 144 76t72 72.5t21 88.5q0 64 -38.5 101.5t-107.5 37.5q-77 0 -132.5 -46t-80.5 -128h-17
q26 88 86.5 139t143.5 51q75 0 118.5 -42.5z" />
    <glyph glyph-name="three.lf" horiz-adv-x="526" 
d="M464 641.5q49 -42.5 49 -112.5q0 -41 -20.5 -79.5t-61 -66.5t-97.5 -39v-1q111 -33 111 -147q0 -48 -29 -96t-84 -79t-129 -31q-86 0 -131.5 39t-45.5 108q0 24 5 43h16q-5 -19 -5 -43q0 -61 41 -96t120 -35q69 0 120.5 29t78.5 73t27 88q0 67 -42 103.5t-118 36.5h-46
l4 16h42q76 0 127.5 27.5t76 68t24.5 81.5q0 64 -44 101.5t-121 37.5q-75 0 -129.5 -45t-74.5 -127h-16q22 88 81 138t139 50q83 0 132 -42.5z" />
    <glyph glyph-name="four.lf" horiz-adv-x="504" 
d="M337 207l-52 -207h-16l52 207h-318l5 20l420 447h25l-112 -451h139l-4 -16h-139zM324 223l28 112l80 319h-1l-269 -286l-136 -145h298z" />
    <glyph glyph-name="five.lf" horiz-adv-x="520" 
d="M216 658l-111 -318h1q31 43 76.5 67t101.5 24q80 0 123 -47.5t43 -132.5q0 -59 -30 -120t-88 -101t-137 -40q-75 0 -116.5 36t-41.5 102q0 24 5 44h16q-5 -20 -5 -44q0 -59 37 -90.5t105 -31.5q74 0 128.5 38t82.5 95t28 112q0 78 -38.5 121t-111.5 43q-62 0 -113 -33
t-86 -99l-15 1l136 390h328l-4 -16h-314z" />
    <glyph glyph-name="six.lf" horiz-adv-x="525" 
d="M490 645.5q39 -38.5 39 -108.5q0 -9 -1 -17h-16q1 8 1 17q0 63 -34.5 97t-104.5 34q-60 0 -117 -42t-103 -127t-74 -210h2q26 62 85.5 104t130.5 42q78 0 122.5 -52t44.5 -142q0 -54 -29 -113t-84 -98.5t-127 -39.5q-84 0 -127 47.5t-43 141.5q0 99 39 218.5t111.5 203
t168.5 83.5q77 0 116 -38.5zM177.5 383q-51.5 -36 -79 -92t-27.5 -112q0 -173 154 -173q68 0 119 37.5t78 92.5t27 105q0 83 -39.5 130.5t-111.5 47.5q-69 0 -120.5 -36z" />
    <glyph glyph-name="seven.lf" horiz-adv-x="458" 
d="M300.5 360q-108.5 -154 -205.5 -360h-17q101 211 208.5 364.5t237.5 293.5h-409l4 16h427l-4 -16q-133 -144 -241.5 -298z" />
    <glyph glyph-name="eight.lf" horiz-adv-x="531" 
d="M477.5 642q45.5 -42 45.5 -113q0 -42 -21 -81t-61.5 -66.5t-94.5 -36.5v-1q49 -16 79.5 -55t30.5 -95q0 -47 -28 -94.5t-82 -78.5t-128 -31q-83 0 -132.5 45t-49.5 121q0 43 23.5 85.5t68.5 72.5t104 38v1q-44 13 -71 49.5t-27 87.5q0 44 27 89.5t77.5 75t117.5 29.5
q76 0 121.5 -42zM246.5 640.5q-46.5 -27.5 -71.5 -69t-25 -81.5q0 -61 40 -97.5t112 -36.5q66 0 112.5 26.5t69.5 66t23 80.5q0 64 -40.5 101.5t-110.5 37.5q-63 0 -109.5 -27.5zM156.5 313q-50.5 -28 -77.5 -70.5t-27 -86.5q0 -69 45 -109.5t121 -40.5q69 0 119.5 29
t76.5 72.5t26 86.5q0 65 -45.5 106t-120.5 41q-67 0 -117.5 -28z" />
    <glyph glyph-name="nine.lf" horiz-adv-x="525" 
d="M77 28.5q-39 38.5 -39 108.5q0 9 1 17h16q-1 -8 -1 -17q0 -63 34.5 -97t104.5 -34q60 0 117 42t103 127t74 210h-2q-26 -62 -85.5 -104t-130.5 -42q-78 0 -122.5 52t-44.5 142q0 54 29 113t84 98.5t127 39.5q84 0 127 -47.5t43 -141.5q0 -99 -39 -218.5t-111.5 -203
t-168.5 -83.5q-77 0 -116 38.5zM389.5 291q51.5 36 79 92t27.5 112q0 173 -154 173q-68 0 -119 -37.5t-78 -92.5t-27 -105q0 -83 39.5 -130.5t111.5 -47.5q69 0 120.5 36z" />
    <glyph glyph-name="zero.denominator" horiz-adv-x="338" 
d="M273.5 376.5q25.5 -34.5 25.5 -101.5q0 -57 -21 -123t-62 -112t-100 -46q-103 0 -103 135q0 57 21 123t62.5 112.5t100.5 46.5q51 0 76.5 -34.5zM105 350.5q-38 -44.5 -57 -107t-19 -114.5q0 -60 21 -89.5t66 -29.5q53 0 91 44t57 106.5t19 114.5q0 60 -21 90t-65 30
q-54 0 -92 -44.5z" />
    <glyph glyph-name="one.denominator" horiz-adv-x="188" 
d="M37 0l89 357h-1q-30 -36 -99 -36l4 16q44 0 68.5 15t39.5 52h16l-101 -404h-16z" />
    <glyph glyph-name="two.denominator" horiz-adv-x="328" 
d="M269 384.5q28 -26.5 28 -69.5q0 -47 -33 -81t-118 -71q-79 -35 -111 -67.5t-43 -79.5h244l-4 -16h-260q11 64 48 103t120 75q81 36 111 65.5t30 71.5q0 37 -23.5 58.5t-64.5 21.5q-45 0 -79.5 -27.5t-45.5 -72.5h-17q15 54 52.5 85t89.5 31q48 0 76 -26.5z" />
    <glyph glyph-name="three.denominator" horiz-adv-x="327" 
d="M263.5 385q30.5 -26 30.5 -69q0 -37 -27.5 -68.5t-79.5 -42.5v-1q66 -20 66 -87q0 -30 -17.5 -58.5t-51.5 -46.5t-80 -18q-55 0 -84 24.5t-29 67.5q0 12 3 24h16q-3 -12 -3 -24q0 -36 25 -56t72 -20q42 0 72 16t45.5 40.5t15.5 50.5q0 39 -25.5 60t-72.5 21h-26l4 16h24
q46 0 76.5 15.5t45.5 39t15 47.5q0 36 -26 57.5t-72 21.5t-79 -26t-43 -73h-16q12 56 49 85.5t89 29.5q53 0 83.5 -26z" />
    <glyph glyph-name="four.denominator" horiz-adv-x="314" 
d="M187 121l-30 -121h-16l30 121h-195l4 19l254 264h24l-67 -267h84l-4 -16h-84zM175 137l16 65l46 182h-1l-157 -164l-81 -83h177z" />
    <glyph glyph-name="five.denominator" horiz-adv-x="324" 
d="M109 388l-61 -175h1q17 22 43.5 34.5t57.5 12.5q50 0 78.5 -29.5t28.5 -80.5q0 -36 -19 -72t-54.5 -60t-84.5 -24q-48 0 -75 23t-27 63q0 11 3 24h16q-3 -13 -3 -24q0 -34 22.5 -52t63.5 -18q44 0 76.5 21.5t49 54.5t16.5 64q0 44 -24 69t-67 25q-37 0 -67.5 -19
t-50.5 -57l-15 1l82 235h207l-4 -16h-193z" />
    <glyph glyph-name="six.denominator" horiz-adv-x="327" 
d="M278 386.5q25 -24.5 25 -66.5v-10h-16v8q0 37 -20.5 57t-58.5 20q-59 0 -105 -53.5t-71 -157.5h1q18 34 52.5 56t74.5 22q49 0 77 -32t28 -86q0 -33 -17.5 -68t-51.5 -58.5t-79 -23.5q-53 0 -80.5 30t-27.5 88q0 60 23 130.5t68.5 119.5t107.5 49q45 0 70 -24.5zM87 226
q-30 -20 -46 -51t-16 -63q0 -102 92 -102q41 0 71 21.5t45.5 52.5t15.5 60q0 47 -24 74.5t-67 27.5q-41 0 -71 -20z" />
    <glyph glyph-name="seven.denominator" horiz-adv-x="286" 
d="M165 213q-66 -93 -124 -213h-18q61 125 125.5 217t138.5 171h-245l4 16h267l-4 -15q-78 -83 -144 -176z" />
    <glyph glyph-name="eight.denominator" horiz-adv-x="331" 
d="M271 385q29 -26 29 -69q0 -39 -28 -70t-77 -40v-1q30 -10 47.5 -33t17.5 -57q0 -28 -17 -56t-50.5 -46.5t-78.5 -18.5q-53 0 -85 28t-32 74q0 40 31.5 73.5t85.5 42.5v1q-27 9 -43 30.5t-16 51.5q0 27 16.5 54t48 44.5t73.5 17.5q49 0 78 -26zM128.5 379.5
q-27.5 -15.5 -42 -39t-14.5 -46.5q0 -35 24 -56t67 -21q39 0 66.5 15t41 37.5t13.5 45.5q0 37 -24.5 58.5t-66.5 21.5q-37 0 -64.5 -15.5zM74.5 185.5q-29.5 -15.5 -45.5 -40t-16 -49.5q0 -40 27 -63t74 -23q41 0 70.5 16t44.5 41t15 49q0 38 -27.5 61.5t-72.5 23.5
q-40 0 -69.5 -15.5z" />
    <glyph glyph-name="nine.denominator" horiz-adv-x="327" 
d="M23 17.5q-25 24.5 -25 66.5v10h16v-8q0 -37 20.5 -57t58.5 -20q59 0 105 53.5t71 157.5h-1q-18 -34 -52.5 -56t-74.5 -22q-49 0 -77 32t-28 86q0 33 17.5 68t51.5 58.5t79 23.5q53 0 80.5 -30t27.5 -88q0 -60 -23 -130.5t-68.5 -119.5t-107.5 -49q-45 0 -70 24.5z
M214 178q30 20 46 51t16 63q0 102 -92 102q-41 0 -71 -21.5t-45.5 -52.5t-15.5 -60q0 -47 24 -74.5t67 -27.5q41 0 71 20z" />
    <glyph glyph-name="zero.numerator" horiz-adv-x="338" 
d="M341.5 646.5q25.5 -34.5 25.5 -101.5q0 -57 -21 -123t-62 -112t-100 -46q-103 0 -103 135q0 57 21 123t62.5 112.5t100.5 46.5q51 0 76.5 -34.5zM173 620.5q-38 -44.5 -57 -107t-19 -114.5q0 -60 21 -89.5t66 -29.5q53 0 91 44t57 106.5t19 114.5q0 60 -21 90t-65 30
q-54 0 -92 -44.5z" />
    <glyph glyph-name="one.numerator" horiz-adv-x="188" 
d="M104 270l89 357h-1q-30 -36 -99 -36l4 16q44 0 68.5 15t39.5 52h16l-101 -404h-16z" />
    <glyph glyph-name="two.numerator" horiz-adv-x="328" 
d="M336 654.5q28 -26.5 28 -69.5q0 -47 -33 -81t-118 -71q-79 -35 -111 -67.5t-43 -79.5h244l-4 -16h-260q11 64 48 103t120 75q81 36 111 65.5t30 71.5q0 37 -23.5 58.5t-64.5 21.5q-45 0 -79.5 -27.5t-45.5 -72.5h-17q15 54 52.5 85t89.5 31q48 0 76 -26.5z" />
    <glyph glyph-name="three.numerator" horiz-adv-x="327" 
d="M330.5 655q30.5 -26 30.5 -69q0 -37 -27.5 -68.5t-79.5 -42.5v-1q66 -20 66 -87q0 -30 -17.5 -58.5t-51.5 -46.5t-80 -18q-55 0 -84 24.5t-29 67.5q0 12 3 24h16q-3 -12 -3 -24q0 -36 25 -56t72 -20q42 0 72 16t45.5 40.5t15.5 50.5q0 39 -25.5 60t-72.5 21h-26l4 16h24
q46 0 76.5 15.5t45.5 39t15 47.5q0 36 -26 57.5t-72 21.5t-79 -26t-43 -73h-16q12 56 49 85.5t89 29.5q53 0 83.5 -26z" />
    <glyph glyph-name="four.numerator" horiz-adv-x="314" 
d="M255 391l-30 -121h-16l30 121h-195l4 19l254 264h24l-67 -267h84l-4 -16h-84zM243 407l16 65l46 182h-1l-157 -164l-81 -83h177z" />
    <glyph glyph-name="five.numerator" horiz-adv-x="324" 
d="M176 658l-61 -175h1q17 22 43.5 34.5t57.5 12.5q50 0 78.5 -29.5t28.5 -80.5q0 -36 -19 -72t-54.5 -60t-84.5 -24q-48 0 -75 23t-27 63q0 11 3 24h16q-3 -13 -3 -24q0 -34 22.5 -52t63.5 -18q44 0 76.5 21.5t49 54.5t16.5 64q0 44 -24 69t-67 25q-37 0 -67.5 -19
t-50.5 -57l-15 1l82 235h207l-4 -16h-193z" />
    <glyph glyph-name="six.numerator" horiz-adv-x="327" 
d="M345 656.5q25 -24.5 25 -66.5v-10h-16v8q0 37 -20.5 57t-58.5 20q-59 0 -105 -53.5t-71 -157.5h1q18 34 52.5 56t74.5 22q49 0 77 -32t28 -86q0 -33 -17.5 -68t-51.5 -58.5t-79 -23.5q-53 0 -80.5 30t-27.5 88q0 60 23 130.5t68.5 119.5t107.5 49q45 0 70 -24.5zM154 496
q-30 -20 -46 -51t-16 -63q0 -102 92 -102q41 0 71 21.5t45.5 52.5t15.5 60q0 47 -24 74.5t-67 27.5q-41 0 -71 -20z" />
    <glyph glyph-name="seven.numerator" horiz-adv-x="286" 
d="M232 483q-66 -93 -124 -213h-18q61 125 125.5 217t138.5 171h-245l4 16h267l-4 -15q-78 -83 -144 -176z" />
    <glyph glyph-name="eight.numerator" horiz-adv-x="331" 
d="M338 655q29 -26 29 -69q0 -39 -28 -70t-77 -40v-1q30 -10 47.5 -33t17.5 -57q0 -28 -17 -56t-50.5 -46.5t-78.5 -18.5q-53 0 -85 28t-32 74q0 40 31.5 73.5t85.5 42.5v1q-27 9 -43 30.5t-16 51.5q0 27 16.5 54t48 44.5t73.5 17.5q49 0 78 -26zM195.5 649.5
q-27.5 -15.5 -42 -39t-14.5 -46.5q0 -35 24 -56t67 -21q39 0 66.5 15t41 37.5t13.5 45.5q0 37 -24.5 58.5t-66.5 21.5q-37 0 -64.5 -15.5zM141.5 455.5q-29.5 -15.5 -45.5 -40t-16 -49.5q0 -40 27 -63t74 -23q41 0 70.5 16t44.5 41t15 49q0 38 -27.5 61.5t-72.5 23.5
q-40 0 -69.5 -15.5z" />
    <glyph glyph-name="nine.numerator" horiz-adv-x="327" 
d="M90 287.5q-25 24.5 -25 66.5v10h16v-8q0 -37 20.5 -57t58.5 -20q59 0 105 53.5t71 157.5h-1q-18 -34 -52.5 -56t-74.5 -22q-49 0 -77 32t-28 86q0 33 17.5 68t51.5 58.5t79 23.5q53 0 80.5 -30t27.5 -88q0 -60 -23 -130.5t-68.5 -119.5t-107.5 -49q-45 0 -70 24.5z
M281 448q30 20 46 51t16 63q0 102 -92 102q-41 0 -71 -21.5t-45.5 -52.5t-15.5 -60q0 -47 24 -74.5t67 -27.5q41 0 71 20z" />
    <glyph glyph-name="zero.smcp" horiz-adv-x="438" 
d="M416 374q0 -77 -28 -166.5t-84.5 -152.5t-135.5 -63q-136 0 -136 182q0 77 28 167t83.5 152.5t134.5 62.5q138 0 138 -182zM152 479q-52 -61 -78 -147t-26 -158q0 -83 29.5 -124.5t90.5 -41.5q75 0 127 61t78 146.5t26 157.5q0 84 -29.5 125.5t-91.5 41.5q-74 0 -126 -61
z" />
    <glyph glyph-name="one.smcp" horiz-adv-x="438" 
d="M159 0l123 494h-1q-37 -53 -135 -53l4 16q59 -1 92.5 20t52.5 71h16l-136 -548h-16z" />
    <glyph glyph-name="two.smcp" horiz-adv-x="438" 
d="M381 521q37 -35 37 -93q0 -43 -18.5 -75.5t-63 -63t-123.5 -64.5q-74 -32 -117.5 -64t-64 -66t-32.5 -79h334l-4 -16h-349q16 85 66 138.5t160 100.5q77 33 119 61t59.5 58t17.5 70q0 51 -32.5 81.5t-89.5 30.5q-64 0 -109.5 -37t-65.5 -102h-18q21 72 72 113.5t121 41.5
q64 0 101 -35z" />
    <glyph glyph-name="three.smcp" horiz-adv-x="438" 
d="M376.5 521q41.5 -35 41.5 -92q0 -51 -38.5 -93.5t-109.5 -56.5v-1q93 -27 93 -119q0 -39 -24 -78t-70 -64t-108 -25q-73 0 -112 32.5t-39 88.5q0 19 4 34h16q-4 -15 -4 -33q0 -50 34.5 -78t100.5 -28q58 0 100 23t64 58t22 70q0 54 -35.5 83t-99.5 29h-37l4 16h34
q63 0 105.5 22t63 54.5t20.5 65.5q0 51 -37 81t-101 30q-62 0 -107 -36t-61 -102h-16q17 73 66.5 113.5t117.5 40.5q71 0 112.5 -35z" />
    <glyph glyph-name="four.smcp" horiz-adv-x="438" 
d="M279 167l-42 -167h-16l42 167h-267l5 19l348 362h25l-91 -365h115l-3 -16h-116zM267 183l22 90q26 106 64 255h-1l-221 -229l-112 -116h248z" />
    <glyph glyph-name="five.smcp" horiz-adv-x="438" 
d="M169 532l-89 -252h1q25 33 62.5 52t83.5 19q68 0 104.5 -39t36.5 -109q0 -48 -25 -97t-73.5 -81.5t-114.5 -32.5q-63 0 -99 30t-36 84q0 18 4 34h16q-4 -16 -4 -34q0 -48 31 -73t88 -25q61 0 106 30.5t68 75.5t23 89q0 63 -32.5 97.5t-93.5 34.5q-52 0 -94 -26.5
t-70 -79.5l-15 1l111 318h278l-4 -16h-263z" />
    <glyph glyph-name="six.smcp" horiz-adv-x="438" 
d="M395.5 524q33.5 -32 33.5 -89q0 -8 -1 -13h-16q1 5 1 12q0 51 -29 78.5t-87 27.5q-77 0 -142.5 -76.5t-98.5 -223.5h1q22 49 71 81.5t107 32.5q66 0 103.5 -43t37.5 -116q0 -44 -24 -91.5t-69.5 -79.5t-106.5 -32q-71 0 -107.5 39.5t-36.5 117.5q0 81 32 177t92.5 163
t140.5 67q65 0 98.5 -32zM135.5 309q-42.5 -29 -65 -73t-22.5 -89q0 -139 128 -139q56 0 98 30t64 73.5t22 83.5q0 67 -33 105t-92 38q-57 0 -99.5 -29z" />
    <glyph glyph-name="seven.smcp" horiz-adv-x="438" 
d="M265.5 291.5q-89.5 -125.5 -169.5 -291.5h-19q82 170 170.5 294.5t194.5 237.5h-339l4 16h360l-4 -16q-108 -115 -197.5 -240.5z" />
    <glyph glyph-name="eight.smcp" horiz-adv-x="438" 
d="M384 521.5q39 -34.5 39 -92.5q0 -52 -39.5 -94.5t-106.5 -54.5v-1q41 -13 66 -45t25 -77q0 -40 -23 -78t-68 -62.5t-107 -24.5q-71 0 -113.5 37t-42.5 99q0 35 19.5 69t56.5 58t86 31v1q-37 12 -59.5 41.5t-22.5 70.5q0 38 22.5 74t64.5 59.5t99 23.5q65 0 104 -34.5z
M189 519q-39 -21 -59 -53.5t-20 -66.5q0 -49 33.5 -78.5t93.5 -29.5q55 0 93 21t57 52.5t19 64.5q0 51 -34 81t-92 30q-52 0 -91 -21zM116.5 253.5q-41.5 -22.5 -64 -56.5t-22.5 -69q0 -55 37.5 -87.5t102.5 -32.5q57 0 98.5 22t62.5 56.5t21 70.5q0 52 -38 85.5t-101 33.5
q-55 0 -96.5 -22.5z" />
    <glyph glyph-name="nine.smcp" horiz-adv-x="438" 
d="M52.5 24q-33.5 32 -33.5 89q0 8 1 13h16q-1 -5 -1 -12q0 -51 29 -78.5t87 -27.5q77 0 142.5 76.5t98.5 223.5h-1q-22 -49 -71 -81.5t-107 -32.5q-66 0 -103.5 43t-37.5 116q0 44 24 91.5t69.5 79.5t106.5 32q71 0 107.5 -39.5t36.5 -117.5q0 -81 -32 -177t-92.5 -163
t-140.5 -67q-65 0 -98.5 32zM312.5 239q42.5 29 65 73t22.5 89q0 139 -128 139q-56 0 -98 -30t-64 -73.5t-22 -83.5q0 -67 33 -105t92 -38q57 0 99.5 29z" />
    <glyph glyph-name="zero.lf.smcp" horiz-adv-x="465" 
d="M429 374q0 -77 -28 -166.5t-84.5 -152.5t-135.5 -63q-136 0 -136 182q0 77 28 167t83.5 152.5t134.5 62.5q138 0 138 -182zM165 479q-52 -61 -78 -147t-26 -158q0 -83 29.5 -124.5t90.5 -41.5q75 0 127 61t78 146.5t26 157.5q0 84 -29.5 125.5t-91.5 41.5q-74 0 -126 -61
z" />
    <glyph glyph-name="one.lf.smcp" horiz-adv-x="260" 
d="M73 0l123 494h-1q-37 -53 -135 -53l4 16q59 -1 92.5 20t52.5 71h16l-136 -548h-16z" />
    <glyph glyph-name="two.lf.smcp" horiz-adv-x="451" 
d="M390 521q37 -35 37 -93q0 -43 -18.5 -75.5t-63 -63t-123.5 -64.5q-74 -32 -117.5 -64t-64 -66t-32.5 -79h334l-4 -16h-349q16 85 66 138.5t160 100.5q77 33 119 61t59.5 58t17.5 70q0 51 -32.5 81.5t-89.5 30.5q-64 0 -109.5 -37t-65.5 -102h-18q21 72 72 113.5t121 41.5
q64 0 101 -35z" />
    <glyph glyph-name="three.lf.smcp" horiz-adv-x="450" 
d="M380.5 521q41.5 -35 41.5 -92q0 -51 -38.5 -93.5t-109.5 -56.5v-1q93 -27 93 -119q0 -39 -24 -78t-70 -64t-108 -25q-73 0 -112 32.5t-39 88.5q0 19 4 34h16q-4 -15 -4 -33q0 -50 34.5 -78t100.5 -28q58 0 100 23t64 58t22 70q0 54 -35.5 83t-99.5 29h-37l4 16h34
q63 0 105.5 22t63 54.5t20.5 65.5q0 51 -37 81t-101 30q-62 0 -107 -36t-61 -102h-16q17 73 66.5 113.5t117.5 40.5q71 0 112.5 -35z" />
    <glyph glyph-name="four.lf.smcp" horiz-adv-x="427" 
d="M275 167l-42 -167h-16l42 167h-267l5 19l348 362h25l-91 -365h115l-3 -16h-116zM263 183l22 90q26 106 64 255h-1l-221 -229l-112 -116h248z" />
    <glyph glyph-name="five.lf.smcp" horiz-adv-x="446" 
d="M173 532l-89 -252h1q25 33 62.5 52t83.5 19q68 0 104.5 -39t36.5 -109q0 -48 -25 -97t-73.5 -81.5t-114.5 -32.5q-63 0 -99 30t-36 84q0 18 4 34h16q-4 -16 -4 -34q0 -48 31 -73t88 -25q61 0 106 30.5t68 75.5t23 89q0 63 -32.5 97.5t-93.5 34.5q-52 0 -94 -26.5
t-70 -79.5l-15 1l111 318h278l-4 -16h-263z" />
    <glyph glyph-name="six.lf.smcp" horiz-adv-x="447" 
d="M401.5 524q33.5 -32 33.5 -89q0 -8 -1 -13h-16q1 5 1 12q0 51 -29 78.5t-87 27.5q-77 0 -142.5 -76.5t-98.5 -223.5h1q22 49 71 81.5t107 32.5q66 0 103.5 -43t37.5 -116q0 -44 -24 -91.5t-69.5 -79.5t-106.5 -32q-71 0 -107.5 39.5t-36.5 117.5q0 81 32 177t92.5 163
t140.5 67q65 0 98.5 -32zM141.5 309q-42.5 -29 -65 -73t-22.5 -89q0 -139 128 -139q56 0 98 30t64 73.5t22 83.5q0 67 -33 105t-92 38q-57 0 -99.5 -29z" />
    <glyph glyph-name="seven.lf.smcp" horiz-adv-x="388" 
d="M244.5 291.5q-89.5 -125.5 -169.5 -291.5h-19q82 170 170.5 294.5t194.5 237.5h-339l4 16h360l-4 -16q-108 -115 -197.5 -240.5z" />
    <glyph glyph-name="eight.lf.smcp" horiz-adv-x="455" 
d="M393 521.5q39 -34.5 39 -92.5q0 -52 -39.5 -94.5t-106.5 -54.5v-1q41 -13 66 -45t25 -77q0 -40 -23 -78t-68 -62.5t-107 -24.5q-71 0 -113.5 37t-42.5 99q0 35 19.5 69t56.5 58t86 31v1q-37 12 -59.5 41.5t-22.5 70.5q0 38 22.5 74t64.5 59.5t99 23.5q65 0 104 -34.5z
M198 519q-39 -21 -59 -53.5t-20 -66.5q0 -49 33.5 -78.5t93.5 -29.5q55 0 93 21t57 52.5t19 64.5q0 51 -34 81t-92 30q-52 0 -91 -21zM125.5 253.5q-41.5 -22.5 -64 -56.5t-22.5 -69q0 -55 37.5 -87.5t102.5 -32.5q57 0 98.5 22t62.5 56.5t21 70.5q0 52 -38 85.5t-101 33.5
q-55 0 -96.5 -22.5z" />
    <glyph glyph-name="nine.lf.smcp" horiz-adv-x="447" 
d="M55.5 24q-33.5 32 -33.5 89q0 8 1 13h16q-1 -5 -1 -12q0 -51 29 -78.5t87 -27.5q77 0 142.5 76.5t98.5 223.5h-1q-22 -49 -71 -81.5t-107 -32.5q-66 0 -103.5 43t-37.5 116q0 44 24 91.5t69.5 79.5t106.5 32q71 0 107.5 -39.5t36.5 -117.5q0 -81 -32 -177t-92.5 -163
t-140.5 -67q-65 0 -98.5 32zM315.5 239q42.5 29 65 73t22.5 89q0 139 -128 139q-56 0 -98 -30t-64 -73.5t-22 -83.5q0 -67 33 -105t92 -38q57 0 99.5 29z" />
    <glyph glyph-name="periodcentered.case" horiz-adv-x="136" 
d="M76 320l18 72h18l-18 -72h-18z" />
    <glyph glyph-name="exclamdown.case" horiz-adv-x="202" 
d="M224 712l-17 -69h-18l17 69h18zM186 576l-139 -576h-18l147 576h10z" />
    <glyph glyph-name="periodcentered.loclCAT.case" horiz-adv-x="80" 
d="M-93 355l18 72h18l-18 -72h-18z" />
    <glyph glyph-name="questiondown.case" horiz-adv-x="468" 
d="M382 712l-17 -69h-18l17 69h18zM64.5 32q-45.5 42 -45.5 111q0 39 13.5 71t48 66.5t98.5 78.5q51 35 77.5 60.5t43.5 60.5t32 95h13q-16 -66 -31.5 -101t-43 -62t-83.5 -66q-61 -42 -94 -75t-45.5 -62.5t-12.5 -65.5q0 -62 41 -99.5t111 -37.5q74 0 129 45t80 128h17
q-27 -91 -86.5 -140t-139.5 -49q-77 0 -122.5 42z" />
    <glyph glyph-name="slash.case" horiz-adv-x="395" 
d="M-1 0l428 712h19l-428 -712h-19z" />
    <glyph glyph-name="periodcentered.loclCAT" horiz-adv-x="124" 
d="M68 318l18 72h18l-18 -72h-18z" />
    </font>
</defs>
</svg>
