<?xml version="1.0" standalone="no"?>
<!DOCTYPE svg PUBLIC "-//W3C//DTD SVG 1.1//EN" "http://www.w3.org/Graphics/SVG/1.1/DTD/svg11.dtd" >
<svg xmlns="http://www.w3.org/2000/svg" xmlns:xlink="http://www.w3.org/1999/xlink" version="1.1">
<metadata>
Created by FontForge 20170731 at Thu Feb  5 13:05:20 2015
 By Aleksey,,,
Copyright (c) 2015 Monotype Imaging Inc.  All rights reserved.
</metadata>
<defs>
<font id="NeueHaasUnicaPro-Italic" horiz-adv-x="576" >
  <font-face 
    font-family="Neue Haas Unica Pro"
    font-weight="400"
    font-style="italic"
    font-variant="small-caps"
    font-stretch="normal"
    units-per-em="1000"
    panose-1="2 11 5 4 3 2 6 9 2 3"
    ascent="764"
    descent="-236"
    x-height="508"
    cap-height="712"
    bbox="-218 -275 1049 953"
    underline-thickness="50"
    underline-position="-175"
    slope="-14"
    unicode-range="U+0020-FEFF"
  />
<missing-glyph horiz-adv-x="623" 
d="M568 742q35 -35 35 -96v-580q0 -61 -35 -96t-96 -35h-321q-60 0 -95.5 35t-35.5 96v580q0 61 35.5 96t95.5 35h321q61 0 96 -35zM91 706q-22 -22 -22 -60v-580q0 -38 22 -60t60 -22h321q38 0 60 22t22 60v580q0 38 -22 60t-60 22h-321q-38 0 -60 -22zM433 606
q47 -40 47 -107q0 -42 -16 -71t-64 -72q-30 -26 -44 -45t-19 -43t-5 -66h-72v27q0 60 14.5 92t61.5 76q36 34 46.5 53.5t10.5 47.5q0 35 -22.5 55.5t-61.5 20.5q-89 0 -94 -98h-84q4 83 50 126.5t128 43.5q77 0 124 -40zM249 65v91h94v-91h-94z" />
    <glyph glyph-name="f_f" unicode="ff" horiz-adv-x="578" 
d="M679 711l-17 -67q-9 3 -27 3q-38 0 -62 -21.5t-36 -70.5l-12 -47h101l-18 -70h-100l-109 -438h-87l109 438h-185l-110 -438h-87l109 438h-89l17 70h90l17 70q35 139 168 139q29 0 55 -6l-16 -67q-10 3 -28 3q-38 0 -61.5 -21.5t-35.5 -70.5l-12 -47h186l17 70
q35 139 168 139q29 0 55 -6z" />
    <glyph glyph-name="f_f_i" unicode="ffi" horiz-adv-x="822" 
d="M679 711l-17 -67q-9 3 -27 3q-38 0 -62 -21.5t-36 -70.5l-12 -47h101l-18 -70h-100l-109 -438h-87l109 438h-185l-110 -438h-87l109 438h-89l17 70h90l17 70q35 139 168 139q29 0 55 -6l-16 -67q-10 3 -28 3q-38 0 -61.5 -21.5t-35.5 -70.5l-12 -47h186l17 70
q35 139 168 139q29 0 55 -6zM593 0l126 508h88l-126 -508h-88zM746 613l24 99h88l-24 -99h-88z" />
    <glyph glyph-name="f_f_l" unicode="ffl" horiz-adv-x="822" 
d="M679 711l-17 -67q-9 3 -27 3q-38 0 -62 -21.5t-36 -70.5l-12 -47h101l-18 -70h-100l-109 -438h-87l109 438h-185l-110 -438h-87l109 438h-89l17 70h90l17 70q35 139 168 139q29 0 55 -6l-16 -67q-10 3 -28 3q-38 0 -61.5 -21.5t-35.5 -70.5l-12 -47h186l17 70
q35 139 168 139q29 0 55 -6zM593 0l177 712h88l-177 -712h-88z" />
    <glyph glyph-name="f_i" unicode="fi" horiz-adv-x="549" 
d="M406 711l-16 -67q-10 3 -28 3q-38 0 -61.5 -21.5t-35.5 -70.5l-12 -47h100l-17 -70h-100l-110 -438h-87l109 438h-89l17 70h90l17 70q35 139 168 139q29 0 55 -6zM320 0l126 508h88l-126 -508h-88zM473 613l24 99h88l-24 -99h-88z" />
    <glyph glyph-name="f_l" unicode="fl" horiz-adv-x="549" 
d="M406 711l-16 -67q-10 3 -28 3q-38 0 -61.5 -21.5t-35.5 -70.5l-12 -47h100l-17 -70h-100l-110 -438h-87l109 438h-89l17 70h90l17 70q35 139 168 139q29 0 55 -6zM320 0l177 712h88l-177 -712h-88z" />
    <glyph glyph-name=".notdef" horiz-adv-x="623" 
d="M568 742q35 -35 35 -96v-580q0 -61 -35 -96t-96 -35h-321q-60 0 -95.5 35t-35.5 96v580q0 61 35.5 96t95.5 35h321q61 0 96 -35zM91 706q-22 -22 -22 -60v-580q0 -38 22 -60t60 -22h321q38 0 60 22t22 60v580q0 38 -22 60t-60 22h-321q-38 0 -60 -22zM433 606
q47 -40 47 -107q0 -42 -16 -71t-64 -72q-30 -26 -44 -45t-19 -43t-5 -66h-72v27q0 60 14.5 92t61.5 76q36 34 46.5 53.5t10.5 47.5q0 35 -22.5 55.5t-61.5 20.5q-89 0 -94 -98h-84q4 83 50 126.5t128 43.5q77 0 124 -40zM249 65v91h94v-91h-94z" />
    <glyph glyph-name=".null" horiz-adv-x="0" 
 />
    <glyph glyph-name="nonmarkingreturn" horiz-adv-x="333" 
 />
    <glyph glyph-name="NULL" horiz-adv-x="600" 
 />
    <glyph glyph-name="NULL" horiz-adv-x="600" 
 />
    <glyph glyph-name="space" unicode=" " horiz-adv-x="230" 
 />
    <glyph glyph-name="exclam" unicode="!" horiz-adv-x="275" 
d="M83 175l112 537h113l-155 -537h-70zM23 0l26 106h104l-26 -106h-104z" />
    <glyph glyph-name="quotedbl" unicode="&#x22;" horiz-adv-x="372" 
d="M127 449l55 263h86l-76 -263h-65zM277 449l55 263h86l-76 -263h-65z" />
    <glyph glyph-name="numbersign" unicode="#" horiz-adv-x="649" 
d="M460 256h118l-27 -65h-117l-78 -191h-76l78 191h-144l-78 -191h-76l78 191h-119l27 65h118l67 164h-119l27 66h119l77 188h76l-77 -188h144l77 188h76l-77 -188h117l-27 -66h-117zM307 420l-67 -164h144l67 164h-144z" />
    <glyph glyph-name="dollar" unicode="$" horiz-adv-x="562" 
d="M480 509q0 82 -79 101l-58 -231q52 -19 85.5 -39t54 -54t20.5 -87q0 -50 -29.5 -98.5t-88 -80.5t-140.5 -33l-21 -86h-62l22 90q-76 11 -116 55t-40 117q0 28 6 61h87q-6 -28 -6 -51q0 -90 88 -109l62 251q-49 19 -80 39t-49.5 52t-18.5 80q0 47 27.5 93.5t82 77.5
t131.5 31l19 76h62l-20 -80q148 -22 148 -163q0 -28 -7 -55h-85q5 25 5 43zM224 439.5q20 -22.5 62 -39.5l54 215q-62 -4 -99 -37.5t-37 -79.5q0 -36 20 -58.5zM393 252q-22 23 -71 42l-58 -234q52 3 86 23t49.5 48.5t15.5 57.5q0 40 -22 63z" />
    <glyph glyph-name="percent" unicode="%" horiz-adv-x="864" 
d="M138 -30l561 734h68l-561 -734h-68zM385 653q32 -35 32 -101q0 -55 -21.5 -111.5t-64 -94.5t-102.5 -38q-63 0 -95.5 35t-32.5 102q0 55 21.5 111.5t64.5 94t103 37.5q63 0 95 -35zM228.5 596q-24.5 -30 -36.5 -72.5t-12 -77.5q0 -76 51 -76q35 0 59.5 30.5t36.5 73
t12 77.5q0 75 -52 75q-34 0 -58.5 -30zM772.5 331q32.5 -35 32.5 -101q0 -55 -21.5 -111.5t-64 -94.5t-102.5 -38q-63 0 -96 35t-33 102q0 55 22 111.5t64.5 94t102.5 37.5q63 0 95.5 -35zM615.5 274q-24.5 -30 -36.5 -72.5t-12 -77.5q0 -76 52 -76q35 0 59.5 30.5t36.5 73
t12 77.5q0 75 -52 75q-35 0 -59.5 -30z" />
    <glyph glyph-name="ampersand" unicode="&#x26;" horiz-adv-x="734" 
d="M559 141l107 -141h-110l-63 83q-51 -46 -115 -72t-129 -26q-101 0 -156.5 46.5t-55.5 127.5q0 74 52 139t165 109q-25 40 -36 71.5t-11 64.5q0 44 23 86.5t68 69.5t107 27q72 0 113 -38t41 -102q0 -60 -41.5 -111t-140.5 -95l133 -175q66 80 94 194h89
q-37 -150 -134 -258zM319 617q-27 -33 -27 -73q0 -24 9.5 -49t34.5 -63q139 64 139 148q0 33 -20.5 51.5t-57.5 18.5q-51 0 -78 -33zM359 84q47 20 89 58l-156 206q-160 -70 -160 -179q0 -47 35 -76t97 -29q48 0 95 20z" />
    <glyph glyph-name="quotesingle" unicode="'" horiz-adv-x="222" 
d="M127 449l55 263h86l-76 -263h-65z" />
    <glyph glyph-name="parenleft" unicode="(" horiz-adv-x="292" 
d="M197.5 424.5q-61.5 -162.5 -61.5 -313.5q0 -123 26 -258h-72q-46 141 -46 287q0 150 65.5 307.5t193.5 293.5h80q-124 -154 -185.5 -316.5z" />
    <glyph glyph-name="parenright" unicode=")" horiz-adv-x="292" 
d="M116.5 169.5q61.5 162.5 61.5 313.5q0 118 -27 258h73q45 -138 45 -287q0 -150 -65 -307.5t-193 -293.5h-81q125 154 186.5 316.5z" />
    <glyph glyph-name="asterisk" unicode="*" horiz-adv-x="407" 
d="M441 597l6 -80l-135 9l65 -118l-74 -30l-36 132l-92 -100l-52 62l113 73l-124 55l43 68l107 -84l17 136l77 -19l-49 -129z" />
    <glyph glyph-name="plus" unicode="+" horiz-adv-x="566" 
d="M495 353v-73h-176v-175h-72v175h-176v73h176v176h72v-176h176z" />
    <glyph glyph-name="comma" unicode="," horiz-adv-x="226" 
d="M16 -144h-58l74 144h-36l28 117h109l-29 -117z" />
    <glyph glyph-name="hyphen" unicode="-" horiz-adv-x="300" 
d="M30 253l19 78h240l-19 -78h-240z" />
    <glyph glyph-name="period" unicode="." horiz-adv-x="226" 
d="M-4 0l28 117h109l-29 -117h-108z" />
    <glyph glyph-name="slash" unicode="/" horiz-adv-x="462" 
d="M-56 -89l503 834h86l-503 -834h-86z" />
    <glyph glyph-name="zero" unicode="0" horiz-adv-x="562" 
d="M509 627.5q48 -60.5 48 -176.5q0 -97 -36.5 -205.5t-109 -184t-174.5 -75.5q-94 0 -141.5 60.5t-47.5 176.5q0 97 36.5 205.5t108.5 184t174 75.5q94 0 142 -60.5zM242 541q-50 -66 -75.5 -156.5t-25.5 -160.5q0 -78 26 -118.5t76 -40.5q69 0 119 66t75.5 156.5
t25.5 160.5q0 78 -25.5 118.5t-76.5 40.5q-69 0 -119 -66z" />
    <glyph glyph-name="one" unicode="1" horiz-adv-x="562" 
d="M193 0l122 491h-151l17 70q80 0 124 26t69 87h78l-168 -674h-91z" />
    <glyph glyph-name="two" unicode="2" horiz-adv-x="562" 
d="M505 642.5q51 -45.5 51 -121.5q0 -80 -55.5 -140t-183.5 -123q-75 -37 -116.5 -66t-61 -54.5t-29.5 -58.5h357l-19 -79h-463q15 79 46 133.5t86 98t149 89.5q75 37 116 66t59 58t18 66q0 47 -25.5 72t-73.5 25q-57 0 -95.5 -34.5t-56.5 -97.5h-97q27 102 94.5 157
t160.5 55q88 0 139 -45.5z" />
    <glyph glyph-name="three" unicode="3" horiz-adv-x="562" 
d="M506.5 643.5q52.5 -44.5 52.5 -121.5q0 -61 -38.5 -110t-119.5 -74v-2q43 -18 66 -52.5t23 -83.5q0 -50 -29.5 -99.5t-87.5 -82t-138 -32.5q-101 0 -154 43.5t-53 123.5q0 25 6 50h92q-5 -20 -5 -42q0 -47 29.5 -71.5t87.5 -24.5q50 0 86.5 20t55.5 51.5t19 62.5
q0 51 -33.5 77t-98.5 26h-27l20 77h25q61 0 102 20.5t60.5 52t19.5 63.5q0 43 -30.5 68.5t-83.5 25.5q-59 0 -98.5 -33.5t-55.5 -100.5h-93q23 100 90.5 156.5t162.5 56.5t147.5 -44.5z" />
    <glyph glyph-name="four" unicode="4" horiz-adv-x="562" 
d="M408 174l-43 -174h-91l43 174h-318l22 89l384 411h128l-106 -424h110l-19 -76h-110zM338 250l22 93l24 92q32 122 40 151h-2q-139 -153 -207 -225l-105 -111h228z" />
    <glyph glyph-name="five" unicode="5" horiz-adv-x="562" 
d="M258 596l-67 -195h2q25 20 58 31t67 11q87 0 135.5 -51t48.5 -139q0 -61 -32.5 -123t-95 -103t-148.5 -41q-91 0 -143 40.5t-52 111.5q0 18 5 41h93q-3 -15 -3 -27q0 -41 29.5 -63.5t79.5 -22.5q56 0 95 28.5t58 70.5t19 82q0 56 -30 87t-84 31q-45 0 -81 -24.5
t-58 -70.5l-90 6l137 398h382l-20 -78h-305z" />
    <glyph glyph-name="six" unicode="6" horiz-adv-x="562" 
d="M520.5 644.5q48.5 -43.5 48.5 -118.5q0 -15 -2 -25h-93q1 5 1 12q0 95 -97 95q-66 0 -123 -59.5t-90 -177.5h2q70 68 162 68q84 0 131.5 -53t47.5 -143q0 -57 -31 -117t-90 -100t-138 -40q-96 0 -145.5 55.5t-49.5 165.5q0 99 38.5 212t113 191t176.5 78
q90 0 138.5 -43.5zM217.5 336.5q-37.5 -27.5 -57 -68t-19.5 -79.5q0 -58 29 -90.5t82 -32.5q50 0 86.5 27t55 67t18.5 77q0 59 -28 93t-78 34q-51 0 -88.5 -27.5z" />
    <glyph glyph-name="seven" unicode="7" horiz-adv-x="562" 
d="M387 326q-98 -151 -174 -326h-109q88 189 188.5 339t199.5 255h-365l20 80h466l-20 -81q-108 -116 -206 -267z" />
    <glyph glyph-name="eight" unicode="8" horiz-adv-x="562" 
d="M510.5 642.5q54.5 -45.5 54.5 -121.5q0 -62 -40.5 -111t-116.5 -71v-2q43 -20 66 -57t23 -88q0 -50 -30 -97.5t-88 -78t-137 -30.5q-99 0 -155.5 49t-56.5 135q0 65 44 116t129 72v2q-38 21 -59 55t-21 79t29 90t84 74.5t129 29.5q91 0 145.5 -45.5zM278 590
q-33 -19 -50 -47.5t-17 -58.5q0 -46 30.5 -72t84.5 -26q49 0 82 19t49 48t16 58q0 46 -31 72t-84 26q-47 0 -80 -19zM195 287.5q-36 -20.5 -54 -51.5t-18 -63q0 -50 33 -78.5t92 -28.5q51 0 87 21t54 52t18 63q0 49 -33.5 77.5t-91.5 28.5q-51 0 -87 -20.5z" />
    <glyph glyph-name="nine" unicode="9" horiz-adv-x="562" 
d="M76.5 29.5q-48.5 43.5 -48.5 118.5q0 15 1 25h93l-1 -12q0 -95 97 -95q67 0 124 59.5t89 177.5h-2q-33 -33 -74.5 -50.5t-87.5 -17.5q-83 0 -131 53t-48 143q0 57 31.5 117t90.5 100t138 40q96 0 145 -55.5t49 -165.5q0 -99 -38.5 -212t-113 -191t-175.5 -78
q-90 0 -138.5 43.5zM378.5 337.5q37.5 27.5 57 68t19.5 79.5q0 58 -28.5 90.5t-81.5 32.5q-51 0 -87.5 -27t-55 -67t-18.5 -77q0 -59 28 -93t78 -34q51 0 88.5 27.5z" />
    <glyph glyph-name="colon" unicode=":" horiz-adv-x="226" 
d="M-4 0l28 117h109l-29 -117h-108zM94 391l28 117h109l-29 -117h-108z" />
    <glyph glyph-name="semicolon" unicode=";" horiz-adv-x="226" 
d="M16 -144h-58l74 144h-36l28 117h109l-29 -117zM94 391l28 117h109l-29 -117h-108z" />
    <glyph glyph-name="less" unicode="&#x3c;" horiz-adv-x="566" 
d="M153 318v-2l342 -142v-80l-424 178v90l424 178v-80z" />
    <glyph glyph-name="equal" unicode="=" horiz-adv-x="566" 
d="M71 362v74h424v-74h-424zM71 197v74h424v-74h-424z" />
    <glyph glyph-name="greater" unicode="&#x3e;" horiz-adv-x="566" 
d="M495 272l-424 -178v80l342 142v2l-342 142v80l424 -178v-90z" />
    <glyph glyph-name="question" unicode="?" horiz-adv-x="516" 
d="M494 680.5q53 -45.5 53 -123.5q0 -56 -31.5 -102.5t-118.5 -103.5q-47 -31 -71.5 -54t-39 -52t-28.5 -80h-78q14 66 30.5 102.5t43.5 65t81 65.5q51 36 77 62.5t34 47t8 45.5q0 44 -28.5 68.5t-79.5 24.5q-58 0 -98 -32.5t-58 -96.5h-91q26 102 91 155.5t159 53.5
q92 0 145 -45.5zM126 0l26 106h104l-26 -106h-104z" />
    <glyph glyph-name="at" unicode="@" horiz-adv-x="868" 
d="M683.5 656q76.5 -37 117 -106t40.5 -163q0 -77 -30 -149t-86 -117.5t-130 -45.5q-47 0 -70 24t-19 66h-2q-63 -90 -153 -90q-58 0 -88.5 37.5t-30.5 109.5q0 61 30.5 131t85.5 117.5t124 47.5q94 0 107 -89h2l34 79h76q-49 -106 -84.5 -199.5t-35.5 -126.5q0 -41 43 -41
q50 0 86.5 39t56 96.5t19.5 109.5q0 113 -73.5 178.5t-204.5 65.5q-120 0 -206 -64.5t-130 -160t-44 -184.5q0 -126 65.5 -195t184.5 -69q127 0 231 56l22 -56q-112 -63 -249 -63q-151 0 -235.5 85t-84.5 238q0 104 53.5 215t155.5 186t240 75q106 0 182.5 -37zM392.5 411.5
q-36.5 -36.5 -57 -88t-20.5 -92.5q0 -42 17 -63.5t49 -21.5q45 0 81.5 38.5t57.5 92t21 94.5q0 37 -16.5 57t-48.5 20q-47 0 -83.5 -36.5z" />
    <glyph glyph-name="A" unicode="A" horiz-adv-x="675" 
d="M177 212l-131 -212h-104l447 712h125l94 -712h-92l-25 212h-314zM474 358q-16 134 -32 290h-2q-80 -136 -173 -290l-40 -65h255z" />
    <glyph glyph-name="B" unicode="B" horiz-adv-x="627" 
d="M583.5 671q53.5 -41 53.5 -115q0 -62 -40.5 -117t-122.5 -79v-2q47 -13 71 -49t24 -90q0 -52 -30 -102.5t-90.5 -83.5t-147.5 -33h-269l177 712h214q107 0 160.5 -41zM224 401h134q98 0 141.5 41.5t43.5 97.5q0 47 -32.5 70.5t-102.5 23.5h-126zM143 78h156
q92 0 134 42.5t42 100.5q0 51 -32.5 77t-102.5 26h-135z" />
    <glyph glyph-name="C" unicode="C" horiz-adv-x="690" 
d="M576 697.5q55 -28.5 84 -80t29 -118.5q0 -22 -3 -43h-95q2 24 2 34q0 70 -42 111t-114 41q-87 0 -150.5 -56.5t-96 -142t-32.5 -167.5q0 -95 44 -150.5t124 -55.5q72 0 131 43.5t87 116.5h96q-37 -113 -123 -178.5t-199 -65.5q-121 0 -188.5 76t-67.5 206q0 106 44.5 212
t131.5 176t209 70q74 0 129 -28.5z" />
    <glyph glyph-name="D" unicode="D" horiz-adv-x="723" 
d="M624 634q83 -78 83 -226q0 -99 -47 -192.5t-143.5 -154.5t-238.5 -61h-246l177 712h171q161 0 244 -78zM143 82h139q111 0 185 49t108.5 122.5t34.5 148.5q0 112 -59 170t-175 58h-96z" />
    <glyph glyph-name="E" unicode="E" horiz-adv-x="618" 
d="M281 630l-56 -225h346l-20 -81h-347l-60 -242h378l-20 -82h-470l177 712h459l-20 -82h-367z" />
    <glyph glyph-name="F" unicode="F" horiz-adv-x="573" 
d="M281 630l-61 -243h332l-20 -82h-332l-76 -305h-92l177 712h446l-20 -82h-354z" />
    <glyph glyph-name="G" unicode="G" horiz-adv-x="731" 
d="M642.5 669q64.5 -57 64.5 -155q0 -12 -2 -32h-98q1 6 1 17q0 68 -40.5 105.5t-113.5 37.5q-93 0 -160.5 -57t-102 -143.5t-34.5 -172.5q0 -95 43 -149t125 -54q81 0 148 54t94 163h-196l20 79h284l-90 -362h-82l20 82h-2q-36 -44 -95.5 -69.5t-124.5 -25.5q-74 0 -128 35
t-82 98t-28 147q0 110 46.5 216t137.5 174.5t216 68.5q115 0 179.5 -57z" />
    <glyph glyph-name="H" unicode="H" horiz-adv-x="737" 
d="M487 0l82 329h-363l-82 -329h-92l177 712h92l-75 -302h364l74 302h93l-177 -712h-93z" />
    <glyph glyph-name="I" unicode="I" horiz-adv-x="282" 
d="M32 0l177 712h92l-177 -712h-92z" />
    <glyph glyph-name="J" unicode="J" horiz-adv-x="356" 
d="M11 -5q-37 0 -58 9l19 79q20 -5 38 -5q61 0 98.5 33t56.5 111l123 490h92l-130 -521q-48 -196 -239 -196z" />
    <glyph glyph-name="K" unicode="K" horiz-adv-x="625" 
d="M558 0h-112l-231 357h-2l-89 -357h-92l177 712h92l-78 -314h2l354 314h127l-395 -345z" />
    <glyph glyph-name="L" unicode="L" horiz-adv-x="561" 
d="M507 82l-19 -82h-456l177 712h92l-157 -630h363z" />
    <glyph glyph-name="M" unicode="M" horiz-adv-x="934" 
d="M686 0l90 362l14 55q12 47 56 217h-2l-36 -60q-102 -169 -129 -212l-222 -362h-106l-43 362q-20 186 -28 272h-2l-66 -272l-90 -362h-90l177 712h142l41 -351q14 -123 27 -273h2q102 177 162 273l215 351h155l-177 -712h-90z" />
    <glyph glyph-name="N" unicode="N" horiz-adv-x="755" 
d="M470 0l-97 307q-56 180 -98 319h-2q-50 -218 -81 -341l-70 -285h-90l177 712h127l97 -307q45 -141 87 -282l11 -37h2q49 214 80 341l72 285h90l-177 -712h-128z" />
    <glyph glyph-name="O" unicode="O" horiz-adv-x="732" 
d="M591.5 689q61.5 -37 94 -103.5t32.5 -154.5q0 -105 -45.5 -208t-131.5 -170t-203 -67q-86 0 -147.5 37t-93.5 103.5t-32 154.5q0 105 45 208t131 170t203 67q86 0 147.5 -37zM290.5 587q-64.5 -55 -98.5 -139t-34 -167q0 -96 48.5 -153.5t134.5 -57.5t150.5 55
t98.5 138.5t34 166.5q0 97 -48.5 154.5t-134.5 57.5t-150.5 -55z" />
    <glyph glyph-name="P" unicode="P" horiz-adv-x="616" 
d="M589.5 661q58.5 -51 58.5 -143q0 -57 -30 -111t-91 -89.5t-151 -35.5h-182l-70 -282h-92l177 712h207q115 0 173.5 -51zM214 362h163q61 0 100.5 22.5t57.5 57t18 70.5q0 58 -36 89t-108 31h-128z" />
    <glyph glyph-name="Q" unicode="Q" horiz-adv-x="731" 
d="M678 236.5q-41 -99.5 -116 -164.5l58 -88l-65 -43l-57 86q-76 -41 -165 -41q-85 0 -145.5 36t-92.5 101.5t-32 152.5q0 106 46 210.5t133.5 172t205.5 67.5q85 0 146 -36t93 -101.5t32 -152.5q0 -100 -41 -199.5zM453 95l-74 111l65 43l71 -107q53 54 82.5 132t29.5 155
q0 97 -49 155t-136 58q-86 0 -151 -55.5t-99 -140t-34 -166.5q0 -98 48.5 -155.5t135.5 -57.5q60 0 111 28z" />
    <glyph glyph-name="R" unicode="R" horiz-adv-x="640" 
d="M584.5 668.5q52.5 -43.5 52.5 -125.5q0 -44 -21.5 -87.5t-62.5 -76.5t-98 -44v-2q31 -11 47 -40.5t25 -93.5l25 -199h-94l-21 188q-7 64 -31.5 88t-82.5 24h-124l-75 -300h-92l177 712h216q107 0 159.5 -43.5zM218 378h143q62 0 102.5 23t58.5 56.5t18 66.5
q0 109 -128 109h-131z" />
    <glyph glyph-name="S" unicode="S" horiz-adv-x="609" 
d="M610 548q0 -28 -7 -56h-93q5 27 5 43q0 56 -36 84t-104 28q-51 0 -86.5 -18t-53.5 -45.5t-18 -57.5q0 -46 32 -70.5t108 -49.5q62 -21 100.5 -42.5t62.5 -58.5t24 -96q0 -53 -32.5 -104.5t-96.5 -85t-153 -33.5q-113 0 -173.5 48.5t-60.5 140.5q0 30 7 61h94
q-6 -28 -6 -51q0 -60 38 -90t110 -30q60 0 100 20.5t58 51t18 61.5q0 34 -16 55.5t-44.5 36.5t-79.5 33q-63 22 -101 42.5t-61 56.5t-23 93q0 49 30 98t89.5 81t142.5 32q226 0 226 -178z" />
    <glyph glyph-name="T" unicode="T" horiz-adv-x="599" 
d="M440 630l-157 -630h-93l157 630h-243l20 82h579l-20 -82h-243z" />
    <glyph glyph-name="U" unicode="U" horiz-adv-x="705" 
d="M502.5 48q-77.5 -62 -193.5 -62q-108 0 -165.5 55.5t-57.5 158.5q0 47 13 100l104 412h92l-107 -431q-11 -40 -11 -75q0 -67 36 -101.5t104 -34.5q77 0 130.5 46t76.5 136l114 460h93l-121 -483q-30 -119 -107.5 -181z" />
    <glyph glyph-name="V" unicode="V" horiz-adv-x="624" 
d="M189 0l-68 712h90l29 -317q13 -134 25 -305h2q88 160 174 305l188 317h103l-423 -712h-120z" />
    <glyph glyph-name="W" unicode="W" horiz-adv-x="916" 
d="M545 0l2 311q0 107 6 319h-2q-62 -132 -154 -319l-152 -311h-132l11 712h88l-5 -288q-3 -169 -9 -335h2q62 133 162 336l141 287h129l-2 -287q0 -114 -4 -336h2q51 111 157 335l138 288h97l-343 -712h-132z" />
    <glyph glyph-name="X" unicode="X" horiz-adv-x="621" 
d="M551 0h-100l-122 293h-2l-262 -293h-121l339 370l-148 342h98l115 -277h2l245 277h119l-320 -352z" />
    <glyph glyph-name="Y" unicode="Y" horiz-adv-x="614" 
d="M290 0h-92l73 295l-153 417h96l51 -147q39 -116 61 -188h2q74 92 155 188l124 147h117l-360 -417z" />
    <glyph glyph-name="Z" unicode="Z" horiz-adv-x="566" 
d="M89 83v-2h415l-19 -81h-530l23 94l531 535v2h-386l20 81h500l-24 -94z" />
    <glyph glyph-name="bracketleft" unicode="[" horiz-adv-x="297" 
d="M267 682l-192 -771h118l-14 -59h-203l221 889h203l-14 -59h-119z" />
    <glyph glyph-name="backslash" unicode="\" horiz-adv-x="457" 
d="M320 -89h-74l-94 834h75z" />
    <glyph glyph-name="bracketright" unicode="]" horiz-adv-x="297" 
d="M51 -89l192 771h-118l14 59h203l-221 -889h-203l14 59h119z" />
    <glyph glyph-name="asciicircum" unicode="^" horiz-adv-x="449" 
d="M356 371l-130 270h-2l-130 -270h-83l166 341h95l166 -341h-82z" />
    <glyph glyph-name="underscore" unicode="_" horiz-adv-x="500" 
d="M-89 -101l13 51h500l-13 -51h-500z" />
    <glyph glyph-name="grave" unicode="`" horiz-adv-x="300" 
d="M328 569h-71l-93 143h109z" />
    <glyph glyph-name="a" unicode="a" horiz-adv-x="531" 
d="M435.5 484q45.5 -38 45.5 -115q0 -29 -9 -67l-43 -172q-21 -84 -21 -130h-80q0 26 9 64h-2q-69 -75 -176 -75q-73 0 -113.5 35.5t-40.5 95.5q0 145 224 179q89 13 160 16l3 9q6 30 6 45q0 43 -26 64t-73 21q-52 0 -86.5 -27.5t-44.5 -73.5h-88q16 74 76 121.5t148 47.5
q86 0 131.5 -38zM236 234q-78 -12 -108 -38.5t-30 -64.5q0 -34 23.5 -54t66.5 -20q64 0 110 39t64 109l11 43q-63 -3 -137 -14z" />
    <glyph glyph-name="b" unicode="b" 
d="M219 454q29 31 68.5 49t80.5 18q83 0 128.5 -52t45.5 -144q0 -76 -32 -154.5t-94 -130.5t-145 -52q-55 0 -94 27.5t-51 74.5h-2l-22 -90h-87l178 712h88l-64 -258h2zM242.5 411q-42.5 -39 -64 -98t-21.5 -116q0 -66 27.5 -102t78.5 -36q57 0 99.5 39t64.5 98t22 116
q0 66 -28 102t-79 36q-57 0 -99.5 -39z" />
    <glyph glyph-name="c" unicode="c" horiz-adv-x="534" 
d="M461.5 473.5q50.5 -48.5 50.5 -130.5q0 -16 -1 -25h-91q1 7 1 20q0 52 -27 82t-77 30q-58 0 -101 -40t-65.5 -99t-22.5 -114q0 -65 29.5 -102t81.5 -37q50 0 91 33.5t59 85.5h93q-29 -86 -96 -138.5t-153 -52.5q-91 0 -143.5 56t-52.5 153q0 74 33 150t97.5 126.5
t154.5 50.5q89 0 139.5 -48.5z" />
    <glyph glyph-name="d" unicode="d" horiz-adv-x="575" 
d="M347 0l14 55h-2q-30 -31 -70 -49.5t-81 -18.5q-83 0 -128.5 52t-45.5 144q0 76 32 154.5t94 130.5t145 52q54 0 92.5 -27t51.5 -72h2l72 291h88l-177 -712h-87zM213 410q-42 -39 -64 -98t-22 -116q0 -66 28 -102t79 -36q57 0 99 39t64 98t22 116q0 66 -28 102t-79 36
q-57 0 -99 -39z" />
    <glyph glyph-name="e" unicode="e" horiz-adv-x="551" 
d="M120 183q0 -64 32.5 -96.5t87.5 -32.5q51 0 90.5 27t57.5 71h90q-28 -71 -92.5 -118.5t-150.5 -47.5q-97 0 -148 54t-51 151q0 75 34 152t99.5 128t155.5 51q94 0 143.5 -51.5t49.5 -142.5q0 -34 -13 -92h-379q-6 -30 -6 -53zM212 414.5q-48 -39.5 -70 -111.5h291
q3 16 3 33q0 58 -30.5 88t-84.5 30q-61 0 -109 -39.5z" />
    <glyph glyph-name="f" unicode="f" horiz-adv-x="305" 
d="M406 711l-16 -67q-10 3 -28 3q-38 0 -61.5 -21.5t-35.5 -70.5l-12 -47h100l-17 -70h-100l-110 -438h-87l109 438h-89l17 70h90l17 70q35 139 168 139q29 0 55 -6z" />
    <glyph glyph-name="g" unicode="g" horiz-adv-x="573" 
d="M396 494q38 -27 53 -75h2l22 89h85l-124 -502q-24 -98 -91 -148.5t-167 -50.5q-91 0 -139 35t-48 98q0 13 3 28h87q-2 -7 -2 -21q0 -35 27 -53.5t76 -18.5q68 0 110 36.5t63 117.5l11 45h-2q-69 -69 -158 -69q-79 0 -122.5 53t-43.5 146q0 71 32 145t92 123t141 49
q55 0 93 -27zM212 410q-40 -38 -61 -93t-21 -104q0 -63 27 -98.5t77 -35.5q57 0 99 37t64 91.5t22 106.5q0 63 -30 98.5t-84 35.5q-53 0 -93 -38z" />
    <glyph glyph-name="h" unicode="h" 
d="M217 451q31 32 72 50t85 18q71 0 110.5 -37.5t39.5 -109.5q0 -35 -10 -75l-74 -297h-88l73 297q9 38 9 64q0 43 -22.5 64.5t-65.5 21.5q-56 0 -103.5 -41t-66.5 -115l-73 -291h-88l177 712h88l-65 -261h2z" />
    <glyph glyph-name="i" unicode="i" horiz-adv-x="244" 
d="M15 0l126 508h88l-126 -508h-88zM168 613l24 99h88l-24 -99h-88z" />
    <glyph glyph-name="j" unicode="j" horiz-adv-x="249" 
d="M-75 -189q-32 0 -56 7l17 68q13 -3 27 -3q40 0 64.5 23t38.5 79l130 523h88l-137 -548q-37 -149 -172 -149zM173 613l24 99h88l-24 -99h-88z" />
    <glyph glyph-name="k" unicode="k" horiz-adv-x="500" 
d="M446 0h-103l-174 259h-2l-64 -259h-88l177 712h88l-102 -410h2l244 206h121l-286 -237z" />
    <glyph glyph-name="l" unicode="l" horiz-adv-x="244" 
d="M15 0l177 712h88l-177 -712h-88z" />
    <glyph glyph-name="m" unicode="m" horiz-adv-x="863" 
d="M776 483.5q36 -35.5 36 -106.5q0 -33 -11 -80l-74 -297h-88l75 302q9 39 9 65q0 80 -80 80q-55 0 -97 -43t-60 -116l-71 -288h-88l77 312q7 25 7 49q0 42 -20 64t-59 22q-55 0 -97.5 -44.5t-61.5 -120.5l-70 -282h-88l126 508h85l-13 -55h2q65 66 143 66q54 0 88.5 -25
t45.5 -73q74 98 178 98q70 0 106 -35.5z" />
    <glyph glyph-name="n" unicode="n" 
d="M484.5 481.5q39.5 -37.5 39.5 -109.5q0 -35 -10 -75l-74 -297h-88l73 297q9 38 9 64q0 43 -22.5 64.5t-65.5 21.5q-56 0 -103.5 -41t-66.5 -115l-73 -291h-88l127 508h85l-16 -60h2q32 33 74 52t87 19q71 0 110.5 -37.5z" />
    <glyph glyph-name="o" unicode="o" horiz-adv-x="565" 
d="M473 466q53 -56 53 -158q0 -75 -33 -149.5t-97.5 -123.5t-153.5 -49q-98 0 -150.5 56t-52.5 158q0 75 32.5 149.5t96.5 123.5t153 49q99 0 152 -56zM213.5 410.5q-41.5 -39.5 -63 -97.5t-21.5 -113q0 -68 30.5 -105t89.5 -37t101.5 39.5t64 97.5t21.5 113q0 68 -31 105
t-91 37q-59 0 -100.5 -39.5z" />
    <glyph glyph-name="p" unicode="p" 
d="M496.5 469q45.5 -52 45.5 -144q0 -76 -32 -154.5t-94 -130.5t-145 -52q-54 0 -92.5 27t-51.5 72h-2l-68 -272h-88l173 693h87l-14 -55h2q30 31 69.5 49.5t81.5 18.5q83 0 128.5 -52zM242.5 411q-42.5 -39 -64 -98t-21.5 -116q0 -66 27.5 -102t78.5 -36q57 0 99.5 39
t64.5 98t22 116q0 66 -28 102t-79 36q-57 0 -99.5 -39z" />
    <glyph glyph-name="q" unicode="q" horiz-adv-x="575" 
d="M398.5 493q38.5 -28 51.5 -75h2l22 90h87l-173 -693h-88l59 239h-2q-29 -31 -68 -48.5t-81 -17.5q-83 0 -128.5 52t-45.5 144q0 76 32 154.5t94 130.5t146 52q54 0 92.5 -28zM213.5 411q-42.5 -39 -64 -98t-21.5 -116q0 -66 27.5 -102t78.5 -36q57 0 99.5 39t64 98
t21.5 116q0 66 -27.5 102t-78.5 36q-57 0 -99.5 -39z" />
    <glyph glyph-name="r" unicode="r" horiz-adv-x="362" 
d="M415 509l-20 -79q-33 3 -35 3q-72 0 -122 -45t-71 -129l-64 -259h-88l126 508h84l-18 -71h2q73 76 169 76q22 0 37 -4z" />
    <glyph glyph-name="s" unicode="s" horiz-adv-x="494" 
d="M419 487.5q45 -34.5 45 -99.5q0 -22 -4 -39h-85q3 27 3 31q0 36 -25.5 55t-73.5 19q-50 0 -79 -21t-29 -57q0 -22 10 -35t29.5 -21.5t61.5 -22.5q51 -17 80.5 -31t50 -42t20.5 -75q0 -42 -24.5 -79t-74 -60.5t-120.5 -23.5q-91 0 -141 36t-50 105q0 26 5 42h89
q-4 -15 -4 -34q0 -38 27.5 -58.5t80.5 -20.5q58 0 89 22.5t31 62.5q0 34 -25 51t-90 38q-46 15 -71.5 27.5t-43.5 38.5t-18 71q0 40 23.5 75.5t70 57.5t110.5 22q87 0 132 -34.5z" />
    <glyph glyph-name="t" unicode="t" horiz-adv-x="320" 
d="M157 119q0 -26 13.5 -38t42.5 -12q17 0 35 4l-19 -72q-18 -5 -42 -5q-62 0 -91 25t-29 80q0 26 9 62l69 275h-89l18 70h88l31 123h88l-31 -123h101l-18 -70h-100l-70 -281q-6 -22 -6 -38z" />
    <glyph glyph-name="u" unicode="u" 
d="M90.5 26.5q-39.5 37.5 -39.5 109.5q0 31 11 75l74 297h88l-74 -297q-8 -33 -8 -64q0 -43 22.5 -64.5t64.5 -21.5q57 0 104.5 41t66.5 115l73 291h88l-127 -508h-85l15 60h-2q-31 -33 -73 -52t-88 -19q-71 0 -110.5 37.5z" />
    <glyph glyph-name="v" unicode="v" horiz-adv-x="470" 
d="M114 0l-57 508h88l19 -213q12 -128 18 -226h2q66 118 129 226l126 213h100l-311 -508h-114z" />
    <glyph glyph-name="w" unicode="w" horiz-adv-x="770" 
d="M439 0l-5 220l-3 220h-2q-72 -147 -109 -220l-115 -220h-126l-9 508h85l1 -212q1 -37 1 -114q0 -76 -1 -114h2l21 43q59 119 90 180l111 217h127l4 -217q1 -52 1 -158v-65h2l16 34q41 87 95 194l107 212h94l-261 -508h-126z" />
    <glyph glyph-name="x" unicode="x" horiz-adv-x="480" 
d="M420 0h-96l-89 203h-2l-183 -203h-115l255 268l-113 240h94l80 -181h2l163 181h114l-234 -248z" />
    <glyph glyph-name="y" unicode="y" horiz-adv-x="472" 
d="M131.5 -124.5q-35.5 -35.5 -75 -50t-94.5 -14.5q-32 0 -52 7l18 72q16 -6 40 -6q34 0 58.5 10t46.5 34t51 70l-67 510h88l47 -404h2l247 404h100l-333 -531q-41 -66 -76.5 -101.5z" />
    <glyph glyph-name="z" unicode="z" horiz-adv-x="469" 
d="M94 74v-2h303l-17 -72h-417l20 81l382 353v2h-283l18 72h397l-20 -81z" />
    <glyph glyph-name="braceleft" unicode="{" horiz-adv-x="301" 
d="M311.5 662.5q-25.5 -20.5 -38.5 -70.5l-44 -179q-12 -48 -38 -73.5t-75 -39.5l-1 -3q31 -12 45 -32.5t14 -52.5q0 -22 -7 -49l-37 -148q-7 -25 -7 -45q0 -33 16 -47.5t52 -15.5l-14 -56h-13q-64 0 -94 26.5t-30 83.5q0 28 11 69l35 140q6 26 6 42q0 25 -11 39.5t-36 23.5
l15 61q39 10 59 29.5t30 59.5l43 172q19 76 60 110t114 34h32l-13 -56q-48 -2 -73.5 -22.5z" />
    <glyph glyph-name="bar" unicode="|" horiz-adv-x="273" 
d="M96 -205v937h81v-937h-81z" />
    <glyph glyph-name="braceright" unicode="}" horiz-adv-x="301" 
d="M10 -71q26 21 38 70l45 180q12 48 37.5 73.5t74.5 38.5l1 3q-30 13 -44 33t-14 52q0 23 7 50l37 147q7 25 7 46q0 33 -16 47t-52 15l14 57h12q64 0 94 -27t30 -83q0 -25 -10 -70l-35 -139q-6 -25 -6 -43q0 -25 11 -39.5t36 -22.5l-16 -61q-39 -11 -58.5 -30.5
t-29.5 -58.5l-43 -172q-20 -76 -60.5 -110t-113.5 -34h-33l14 56q47 1 73 22z" />
    <glyph glyph-name="asciitilde" unicode="~" horiz-adv-x="583" 
d="M269 394q28 -16 60 -46q27 -25 47 -37.5t46 -12.5q38 0 68.5 27.5t41.5 73.5h63q-21 -83 -69.5 -129t-111.5 -46q-41 0 -68 15.5t-61 46.5q-27 25 -47 37.5t-46 12.5q-38 0 -68.5 -28t-40.5 -74h-63q20 84 68.5 130t111.5 46q41 0 69 -16z" />
    <glyph glyph-name="uni00A0" unicode="&#xa0;" horiz-adv-x="230" 
 />
    <glyph glyph-name="exclamdown" unicode="&#xa1;" horiz-adv-x="276" 
d="M253 508l-27 -106h-103l26 106h104zM192 333l-112 -537h-113l155 537h70z" />
    <glyph glyph-name="cent" unicode="&#xa2;" horiz-adv-x="562" 
d="M453 417q0 39 -16.5 67t-46.5 38l-95 -383q43 8 76.5 40t48.5 77h94q-28 -83 -92 -135t-146 -56l-22 -89h-63l24 94q-69 14 -107.5 67.5t-38.5 136.5q0 73 32 148t95 126t151 53l22 87h62l-23 -92q65 -14 100.5 -60t35.5 -114q0 -16 -2 -24h-91q2 12 2 19zM179 189.5
q19 -34.5 54 -46.5l96 385q-52 -8 -90.5 -48.5t-58.5 -96t-20 -106.5q0 -53 19 -87.5z" />
    <glyph glyph-name="sterling" unicode="&#xa3;" horiz-adv-x="562" 
d="M541 647.5q45 -40.5 45 -114.5q0 -24 -6 -51h-88q5 23 5 38q0 43 -23.5 65.5t-68.5 22.5q-52 0 -86.5 -32t-49.5 -94l-28 -112h125l-19 -77h-126l-20 -81q-13 -53 -32.5 -83.5t-53.5 -50.5v-2h360l-19 -76h-495l19 77q98 0 130 134l21 82h-97l19 77h97l32 129
q24 94 83 141.5t148 47.5q83 0 128 -40.5z" />
    <glyph glyph-name="currency" unicode="&#xa4;" horiz-adv-x="562" 
d="M456 162l76 -81l-59 -55l-75 80q-51 -31 -117 -31t-117 31l-75 -80l-59 55l76 80q-37 54 -37 130t37 130l-76 80l59 55l75 -80q51 31 117 31t117 -31l75 80l59 -55l-76 -81q37 -54 37 -129t-37 -129zM378.5 188.5q36.5 38.5 36.5 102.5t-36.5 102.5t-97.5 38.5t-97 -38.5
t-36 -102.5t36 -102.5t97 -38.5t97.5 38.5z" />
    <glyph glyph-name="yen" unicode="&#xa5;" horiz-adv-x="562" 
d="M526 360l-14 -59h-173l-14 -56h173l-15 -59h-172l-46 -186h-93l46 186h-173l15 59h172l14 56h-172l14 59h137l-111 314h96l34 -103l15 -47q8 -24 19.5 -59t25.5 -82h2q72 93 152 188l85 103h115l-269 -314h137z" />
    <glyph glyph-name="brokenbar" unicode="&#xa6;" horiz-adv-x="273" 
d="M96 382v350h81v-350h-81zM96 -205v350h81v-350h-81z" />
    <glyph glyph-name="section" unicode="&#xa7;" horiz-adv-x="578" 
d="M506 691q42 -35 42 -103q0 -21 -2 -33h-88q2 16 2 24q0 73 -85 73q-48 0 -75.5 -27.5t-27.5 -64.5q0 -19 9.5 -33t29 -26.5t64.5 -39.5q78 -45 110 -80.5t32 -89.5t-30 -101.5t-95 -80.5v-2q26 -29 26 -76q0 -43 -24.5 -84.5t-73 -69t-117.5 -27.5q-86 0 -131.5 34.5
t-45.5 102.5q0 22 5 41h88q-3 -16 -3 -29q0 -75 92 -75q55 0 86.5 30t31.5 69q0 32 -23 54t-91 63q-70 43 -100 77t-30 87q0 50 30.5 98t91.5 79v2q-25 29 -25 69q0 41 24 81.5t71 66.5t110 26q80 0 122 -35zM190.5 383.5q-21.5 -29.5 -21.5 -60.5q0 -32 21.5 -58t74.5 -58
q48 -28 79 -51q39 20 62.5 51.5t23.5 64.5t-20.5 58.5t-72.5 55.5q-43 25 -83 50q-42 -23 -63.5 -52.5z" />
    <glyph glyph-name="dieresis" unicode="&#xa8;" horiz-adv-x="377" 
d="M140 613l24 99h82l-24 -99h-82zM335 613l24 99h82l-24 -99h-82z" />
    <glyph glyph-name="copyright" unicode="&#xa9;" horiz-adv-x="810" 
d="M592.5 678q81.5 -46 126.5 -129.5t45 -192.5t-45 -192.5t-126.5 -129.5t-187.5 -46t-187.5 46t-126 129.5t-44.5 192.5t44.5 192.5t126 129.5t187.5 46t187.5 -46zM241 637q-71 -40 -110 -112.5t-39 -168.5t39 -168.5t110 -112.5t164 -40t164 40t110 112.5t39 168.5
t-39 168.5t-110 112.5t-164 40t-164 -40zM540.5 552q50.5 -47 54.5 -122h-75q-4 47 -34 75.5t-80 28.5q-60 0 -94.5 -47.5t-34.5 -130.5q0 -82 34.5 -130t93.5 -48q48 0 79.5 29t37.5 79h76q-8 -80 -59 -126.5t-134 -46.5q-95 0 -149.5 65t-54.5 178t55 178t150 65
q84 0 134.5 -47z" />
    <glyph glyph-name="ordfeminine" unicode="&#xaa;" horiz-adv-x="393" 
d="M385 668.5q34 -27.5 34 -82.5q0 -22 -6 -46l-29 -116q-15 -64 -14 -94h-70q0 19 5 37h-2q-50 -45 -123 -45q-53 0 -83 26t-30 67q0 103 165 127q57 8 110 10l2 6q4 13 4 29q0 54 -67 54q-35 0 -57 -17t-29 -47h-76q12 52 56 85.5t111 33.5q65 0 99 -27.5zM239 490
q-53 -8 -73 -24.5t-20 -41.5q0 -21 16 -33.5t45 -12.5q43 0 74 25.5t43 70.5l6 26q-46 -4 -91 -10z" />
    <glyph glyph-name="guillemotleft" unicode="&#xab;" horiz-adv-x="464" 
d="M366 54h-77l-68 204l158 196h87l-162 -204zM194 54h-77l-68 204l158 196h87l-162 -204z" />
    <glyph glyph-name="logicalnot" unicode="&#xac;" horiz-adv-x="566" 
d="M422 140v240h-351v74h424v-314h-73z" />
    <glyph glyph-name="uni00AD" unicode="&#xad;" horiz-adv-x="300" 
d="M30 253l19 78h240l-19 -78h-240z" />
    <glyph glyph-name="registered" unicode="&#xae;" horiz-adv-x="587" 
d="M477.5 694q56.5 -32 87.5 -89.5t31 -133.5t-31 -134t-87.5 -90t-130.5 -32t-130 32t-87 90t-31 134t31 133.5t87 89.5t130 32t130.5 -32zM234.5 665.5q-48.5 -27.5 -75.5 -78t-27 -116.5t27 -116.5t75.5 -78t112.5 -27.5t112.5 27.5t75.5 78t27 116.5t-27 116.5t-75.5 78
t-112.5 27.5t-112.5 -27.5zM432.5 610q27.5 -24 27.5 -67q0 -28 -15.5 -50t-41.5 -27v-2q16 -5 25.5 -16t18.5 -36l33 -97h-58l-27 82q-7 25 -21 35.5t-38 10.5h-47v-128h-54v319h117q53 0 80.5 -24zM289 489h50q33 0 49.5 13.5t16.5 37.5q0 23 -15.5 35.5t-47.5 12.5h-53
v-99z" />
    <glyph glyph-name="macron" unicode="&#xaf;" horiz-adv-x="385" 
d="M141 616l15 64h285l-16 -64h-284z" />
    <glyph glyph-name="degree" unicode="&#xb0;" horiz-adv-x="319" 
d="M330.5 686.5q35.5 -35.5 35.5 -85.5t-35.5 -85t-85.5 -35q-49 0 -84.5 35.5t-35.5 84.5q0 50 35 85.5t85 35.5t85.5 -35.5zM198 649q-19 -20 -19 -48q0 -27 19 -46.5t47 -19.5t48 19.5t20 46.5q0 28 -20 48t-48 20t-47 -20z" />
    <glyph glyph-name="plusminus" unicode="&#xb1;" horiz-adv-x="566" 
d="M495 381v-74h-176v-171h-72v171h-176v74h176v172h72v-172h176zM71 0v74h424v-74h-424z" />
    <glyph glyph-name="twosuperior" unicode="&#xb2;" horiz-adv-x="419" 
d="M438 779q38 -33 38 -87q0 -57 -40 -98.5t-131 -84.5q-76 -36 -104.5 -59.5t-36.5 -53.5h253l-15 -66h-345q11 58 33 97t62 69.5t107 62.5q76 37 105.5 63t29.5 61q0 63 -66 63q-74 0 -100 -86h-83q19 73 68.5 112.5t119.5 39.5q67 0 105 -33z" />
    <glyph glyph-name="threesuperior" unicode="&#xb3;" horiz-adv-x="414" 
d="M435.5 780.5q39.5 -31.5 39.5 -86.5q0 -42 -27 -75.5t-85 -52.5v-1q64 -28 64 -95q0 -35 -22 -69.5t-64 -57.5t-101 -23q-77 0 -117 31t-40 88q0 21 5 36h79q-3 -15 -3 -27q0 -63 78 -63q49 0 78 26.5t29 58.5q0 33 -23.5 50t-67.5 17h-17l15 63h18q59 0 90.5 26.5
t31.5 60.5q0 28 -20 43.5t-56 15.5q-82 0 -103 -87h-80q16 72 66.5 112.5t120.5 40.5q72 0 111.5 -31.5z" />
    <glyph glyph-name="acute" unicode="&#xb4;" horiz-adv-x="299" 
d="M129 569l116 143h118l-153 -143h-81z" />
    <glyph glyph-name="mu" unicode="&#xb5;" horiz-adv-x="583" 
d="M465 99q0 -18 8 -25t26 -7q12 0 25 3l-17 -70q-17 -6 -46 -6q-40 0 -59 20.5t-17 61.5h-2q-25 -38 -68.5 -60.5t-91.5 -22.5q-81 0 -108 58l-59 -236h-88l173 693h88l-74 -294q-9 -45 -9 -63q0 -88 94 -88q53 0 98.5 40.5t64.5 114.5l71 290h88l-90 -363q-7 -28 -7 -46z
" />
    <glyph glyph-name="paragraph" unicode="&#xb6;" horiz-adv-x="588" 
d="M585 650l-192 -770h-66l191 770h-86l-192 -770h-66l106 428q-174 18 -174 185q0 52 25 102.5t73 83.5t112 33h364l-15 -62h-80z" />
    <glyph glyph-name="periodcentered" unicode="&#xb7;" horiz-adv-x="226" 
d="M57 247l29 117h108l-29 -117h-108z" />
    <glyph glyph-name="cedilla" unicode="&#xb8;" horiz-adv-x="313" 
d="M101 -60q29 0 47 -17.5t18 -49.5q0 -39 -36.5 -66t-91.5 -27q-57 0 -99 27l21 37q35 -21 76 -21q30 0 48 13t18 34q0 17 -11 26.5t-31 9.5q-18 0 -33 -6l-17 16l77 84h51l-56 -62q8 2 19 2z" />
    <glyph glyph-name="onesuperior" unicode="&#xb9;" horiz-adv-x="271" 
d="M139 330l82 332h-108l15 60q58 0 90.5 18.5t50.5 61.5h67l-118 -472h-79z" />
    <glyph glyph-name="ordmasculine" unicode="&#xba;" horiz-adv-x="415" 
d="M410 655.5q41 -40.5 41 -114.5q0 -51 -24 -102.5t-70.5 -85t-111.5 -33.5q-74 0 -114 40.5t-40 114.5q0 51 23.5 102.5t70 85t110.5 33.5q74 0 115 -40.5zM224.5 608.5q-27.5 -25.5 -41.5 -63t-14 -73.5q0 -44 20 -67.5t60 -23.5q39 0 67.5 25.5t42.5 63t14 73.5
q0 44 -20.5 67.5t-61.5 23.5q-39 0 -66.5 -25.5z" />
    <glyph glyph-name="guillemotright" unicode="&#xbb;" horiz-adv-x="464" 
d="M98 454h78l67 -204l-158 -196h-87l162 204zM269 454h78l68 -204l-158 -196h-88l163 204z" />
    <glyph glyph-name="onequarter" unicode="&#xbc;" horiz-adv-x="723" 
d="M107 270l70 278h-94l14 58q50 0 78.5 15.5t43.5 52.5h64l-101 -404h-75zM22 0l552 674h74l-553 -674h-73zM606 96l-24 -96h-74l24 96h-195l18 70l226 238h102l-62 -248h67l-15 -60h-67zM549 156l12 49q10 44 33 126h-2q-53 -57 -108 -114l-59 -61h124z" />
    <glyph glyph-name="onehalf" unicode="&#xbd;" horiz-adv-x="754" 
d="M107 270l70 278h-94l14 58q50 0 78.5 15.5t43.5 52.5h64l-101 -404h-75zM22 0l552 674h74l-553 -674h-73zM688.5 384q34.5 -29 34.5 -75q0 -48 -34.5 -84.5t-112.5 -73.5q-64 -30 -87.5 -48t-30.5 -39h217l-15 -64h-303q9 51 28 85t53.5 60.5t92.5 54.5q64 32 88.5 52.5
t24.5 49.5q0 48 -52 48q-60 0 -81 -70h-80q17 65 60 99t105 34q58 0 92.5 -29z" />
    <glyph glyph-name="threequarters" unicode="&#xbe;" horiz-adv-x="845" 
d="M368.5 656q34.5 -27 34.5 -75q0 -75 -92 -107v-2q51 -25 51 -81q0 -30 -19 -60t-55.5 -50t-87.5 -20q-68 0 -104 27t-36 77q0 16 4 32h77q-3 -13 -3 -24q0 -50 63 -50q40 0 63 21t23 47q0 52 -75 52h-13l15 62h14q48 0 73.5 21t25.5 49q0 22 -16 34t-45 12q-66 0 -84 -70
h-76q13 62 57.5 97t107.5 35t97.5 -27zM144 0l552 674h74l-553 -674h-73zM729 96l-24 -96h-74l24 96h-195l18 70l226 238h102l-62 -248h67l-15 -60h-67zM672 156l12 49q10 44 33 126h-2q-53 -57 -108 -114l-59 -61h124z" />
    <glyph glyph-name="questiondown" unicode="&#xbf;" horiz-adv-x="483" 
d="M391 508l-27 -106h-103l26 106h104zM22 -172.5q-53 45.5 -53 123.5q0 56 32 102.5t119 103.5q47 31 71.5 54t39 52t27.5 80h78q-14 -66 -30.5 -102.5t-43.5 -65t-81 -65.5q-51 -36 -77 -62.5t-34 -47t-8 -45.5q0 -44 28.5 -68.5t80.5 -24.5q58 0 98 32.5t57 96.5h92
q-27 -102 -92 -155.5t-158 -53.5t-146 45.5z" />
    <glyph glyph-name="Agrave" unicode="&#xc0;" horiz-adv-x="675" 
d="M177 212l-131 -212h-104l447 712h125l94 -712h-92l-25 212h-314zM474 358q-16 134 -32 290h-2q-80 -136 -173 -290l-40 -65h255zM459 760l-93 138h109l56 -138h-72z" />
    <glyph glyph-name="Aacute" unicode="&#xc1;" horiz-adv-x="675" 
d="M177 212l-131 -212h-104l447 712h125l94 -712h-92l-25 212h-314zM474 358q-16 134 -32 290h-2q-80 -136 -173 -290l-40 -65h255zM397 760l116 138h118l-153 -138h-81z" />
    <glyph glyph-name="Acircumflex" unicode="&#xc2;" horiz-adv-x="675" 
d="M177 212l-131 -212h-104l447 712h125l94 -712h-92l-25 212h-314zM474 358q-16 134 -32 290h-2q-80 -136 -173 -290l-40 -65h255zM547 898l79 -138h-79l-52 89l-96 -89h-98l149 138h97z" />
    <glyph glyph-name="Atilde" unicode="&#xc3;" horiz-adv-x="675" 
d="M177 212l-131 -212h-104l447 712h125l94 -712h-92l-25 212h-314zM474 358q-16 134 -32 290h-2q-80 -136 -173 -290l-40 -65h255zM621.5 807q-32.5 -30 -74.5 -30q-23 0 -40 7.5t-38 21.5q-20 12 -30.5 17t-24.5 5q-41 0 -58 -51h-60q15 54 47.5 84.5t74.5 30.5
q23 0 40.5 -7.5t39.5 -21.5q31 -22 53 -22q42 0 61 51h58q-16 -55 -48.5 -85z" />
    <glyph glyph-name="Adieresis" unicode="&#xc4;" horiz-adv-x="675" 
d="M177 212l-131 -212h-104l447 712h125l94 -712h-92l-25 212h-314zM474 358q-16 134 -32 290h-2q-80 -136 -173 -290l-40 -65h255zM329 775l25 99h82l-25 -99h-82zM524 775l25 99h82l-25 -99h-82z" />
    <glyph glyph-name="Aring" unicode="&#xc5;" horiz-adv-x="675" 
d="M177 212l-131 -212h-104l447 712h125l94 -712h-92l-25 212h-314zM474 358q-16 134 -32 290h-2q-80 -136 -173 -290l-40 -65h255zM547.5 923.5q29.5 -29.5 29.5 -71.5q0 -41 -29.5 -70.5t-71.5 -29.5q-41 0 -70.5 29.5t-29.5 70.5q0 42 29.5 71.5t70.5 29.5
q42 0 71.5 -29.5zM435 893q-17 -17 -17 -41t17 -40.5t41 -16.5q25 0 41.5 16.5t16.5 40.5t-16.5 41t-41.5 17q-24 0 -41 -17z" />
    <glyph glyph-name="AE" unicode="&#xc6;" horiz-adv-x="937" 
d="M581 405h310l-21 -81h-298l-24 -242h293l-20 -82h-367l22 224h-273l-163 -224h-109l526 712h530l-20 -82h-364zM501 634l-239 -329h223l32 329h-16z" />
    <glyph glyph-name="Ccedilla" unicode="&#xc7;" horiz-adv-x="690" 
d="M593 490q0 70 -42 111t-114 41q-87 0 -150.5 -56.5t-96 -142t-32.5 -167.5q0 -95 44 -150.5t124 -55.5q72 0 131 43.5t87 116.5h96q-35 -108 -115.5 -173t-186.5 -70l-44 -49q8 2 19 2q29 0 47 -17.5t18 -49.5q0 -39 -36.5 -66t-91.5 -27q-57 0 -99 27l21 37
q35 -21 76 -21q30 0 48 13t18 34q0 17 -11 26.5t-31 9.5q-18 0 -33 -6l-17 16l65 71q-107 10 -166 85t-59 196q0 106 44.5 212t131.5 176t209 70q74 0 129 -28.5t84 -80t29 -118.5q0 -22 -3 -43h-95q2 24 2 34z" />
    <glyph glyph-name="Egrave" unicode="&#xc8;" horiz-adv-x="618" 
d="M281 630l-56 -225h346l-20 -81h-347l-60 -242h378l-20 -82h-470l177 712h459l-20 -82h-367zM435 760l-93 138h109l56 -138h-72z" />
    <glyph glyph-name="Eacute" unicode="&#xc9;" horiz-adv-x="618" 
d="M281 630l-56 -225h346l-20 -81h-347l-60 -242h378l-20 -82h-470l177 712h459l-20 -82h-367zM373 760l116 138h118l-153 -138h-81z" />
    <glyph glyph-name="Ecircumflex" unicode="&#xca;" horiz-adv-x="618" 
d="M281 630l-56 -225h346l-20 -81h-347l-60 -242h378l-20 -82h-470l177 712h459l-20 -82h-367zM524 898l79 -138h-79l-52 89l-96 -89h-98l149 138h97z" />
    <glyph glyph-name="Edieresis" unicode="&#xcb;" horiz-adv-x="618" 
d="M281 630l-56 -225h346l-20 -81h-347l-60 -242h378l-20 -82h-470l177 712h459l-20 -82h-367zM306 775l25 99h82l-25 -99h-82zM501 775l25 99h82l-25 -99h-82z" />
    <glyph glyph-name="Igrave" unicode="&#xcc;" horiz-adv-x="282" 
d="M32 0l177 712h92l-177 -712h-92zM262 760l-93 138h109l56 -138h-72z" />
    <glyph glyph-name="Iacute" unicode="&#xcd;" horiz-adv-x="282" 
d="M32 0l177 712h92l-177 -712h-92zM200 760l116 138h118l-153 -138h-81z" />
    <glyph glyph-name="Icircumflex" unicode="&#xce;" horiz-adv-x="282" 
d="M32 0l177 712h92l-177 -712h-92zM350 898l79 -138h-79l-52 89l-96 -89h-98l149 138h97z" />
    <glyph glyph-name="Idieresis" unicode="&#xcf;" horiz-adv-x="282" 
d="M32 0l177 712h92l-177 -712h-92zM132 775l25 99h82l-25 -99h-82zM327 775l25 99h82l-25 -99h-82z" />
    <glyph glyph-name="Eth" unicode="&#xd0;" horiz-adv-x="724" 
d="M624 634q83 -78 83 -226q0 -99 -47 -192.5t-143.5 -154.5t-238.5 -61h-246l81 325h-66l18 71h65l79 316h171q161 0 244 -78zM467 131q74 49 108.5 122.5t34.5 148.5q0 112 -59 170t-175 58h-96l-58 -234h203l-19 -71h-202l-61 -243h139q111 0 185 49z" />
    <glyph glyph-name="Ntilde" unicode="&#xd1;" horiz-adv-x="755" 
d="M470 0l-97 307q-56 180 -98 319h-2q-50 -218 -81 -341l-70 -285h-90l177 712h127l97 -307q45 -141 87 -282l11 -37h2q49 214 80 341l72 285h90l-177 -712h-128zM662.5 807q-32.5 -30 -74.5 -30q-23 0 -40 7.5t-38 21.5q-20 12 -30.5 17t-24.5 5q-41 0 -58 -51h-60
q15 54 47.5 84.5t74.5 30.5q23 0 40.5 -7.5t39.5 -21.5q31 -22 53 -22q42 0 61 51h58q-16 -55 -48.5 -85z" />
    <glyph glyph-name="Ograve" unicode="&#xd2;" horiz-adv-x="732" 
d="M591.5 689q61.5 -37 94 -103.5t32.5 -154.5q0 -105 -45.5 -208t-131.5 -170t-203 -67q-86 0 -147.5 37t-93.5 103.5t-32 154.5q0 105 45 208t131 170t203 67q86 0 147.5 -37zM290.5 587q-64.5 -55 -98.5 -139t-34 -167q0 -96 48.5 -153.5t134.5 -57.5t150.5 55
t98.5 138.5t34 166.5q0 97 -48.5 154.5t-134.5 57.5t-150.5 -55zM463 760l-93 138h109l56 -138h-72z" />
    <glyph glyph-name="Oacute" unicode="&#xd3;" horiz-adv-x="732" 
d="M591.5 689q61.5 -37 94 -103.5t32.5 -154.5q0 -105 -45.5 -208t-131.5 -170t-203 -67q-86 0 -147.5 37t-93.5 103.5t-32 154.5q0 105 45 208t131 170t203 67q86 0 147.5 -37zM290.5 587q-64.5 -55 -98.5 -139t-34 -167q0 -96 48.5 -153.5t134.5 -57.5t150.5 55
t98.5 138.5t34 166.5q0 97 -48.5 154.5t-134.5 57.5t-150.5 -55zM401 760l116 138h118l-153 -138h-81z" />
    <glyph glyph-name="Ocircumflex" unicode="&#xd4;" horiz-adv-x="732" 
d="M591.5 689q61.5 -37 94 -103.5t32.5 -154.5q0 -105 -45.5 -208t-131.5 -170t-203 -67q-86 0 -147.5 37t-93.5 103.5t-32 154.5q0 105 45 208t131 170t203 67q86 0 147.5 -37zM290.5 587q-64.5 -55 -98.5 -139t-34 -167q0 -96 48.5 -153.5t134.5 -57.5t150.5 55
t98.5 138.5t34 166.5q0 97 -48.5 154.5t-134.5 57.5t-150.5 -55zM551 898l79 -138h-79l-52 89l-96 -89h-98l149 138h97z" />
    <glyph glyph-name="Otilde" unicode="&#xd5;" horiz-adv-x="732" 
d="M591.5 689q61.5 -37 94 -103.5t32.5 -154.5q0 -105 -45.5 -208t-131.5 -170t-203 -67q-86 0 -147.5 37t-93.5 103.5t-32 154.5q0 105 45 208t131 170t203 67q86 0 147.5 -37zM290.5 587q-64.5 -55 -98.5 -139t-34 -167q0 -96 48.5 -153.5t134.5 -57.5t150.5 55
t98.5 138.5t34 166.5q0 97 -48.5 154.5t-134.5 57.5t-150.5 -55zM626.5 807q-32.5 -30 -74.5 -30q-23 0 -40 7.5t-38 21.5q-20 12 -30.5 17t-24.5 5q-41 0 -58 -51h-60q15 54 47.5 84.5t74.5 30.5q23 0 40.5 -7.5t39.5 -21.5q31 -22 53 -22q42 0 61 51h58q-16 -55 -48.5 -85
z" />
    <glyph glyph-name="Odieresis" unicode="&#xd6;" horiz-adv-x="732" 
d="M591.5 689q61.5 -37 94 -103.5t32.5 -154.5q0 -105 -45.5 -208t-131.5 -170t-203 -67q-86 0 -147.5 37t-93.5 103.5t-32 154.5q0 105 45 208t131 170t203 67q86 0 147.5 -37zM290.5 587q-64.5 -55 -98.5 -139t-34 -167q0 -96 48.5 -153.5t134.5 -57.5t150.5 55
t98.5 138.5t34 166.5q0 97 -48.5 154.5t-134.5 57.5t-150.5 -55zM333 775l25 99h82l-25 -99h-82zM528 775l25 99h82l-25 -99h-82z" />
    <glyph glyph-name="multiply" unicode="&#xd7;" horiz-adv-x="566" 
d="M334 306l193 -192l-51 -51l-193 192l-192 -192l-52 51l193 192l-193 193l52 51l192 -192l193 192l51 -51z" />
    <glyph glyph-name="Oslash" unicode="&#xd8;" horiz-adv-x="732" 
d="M719 433q0 -105 -45.5 -208.5t-133 -171t-204.5 -67.5q-62 0 -112 19.5t-85 56.5l-69 -69l-43 44l76 75q-39 69 -39 167q0 105 45.5 208.5t132.5 171t204 67.5q62 0 111.5 -19.5t84.5 -55.5l69 68l44 -44l-75 -75q39 -72 39 -167zM172 182l406 404q-50 59 -137 59
q-86 0 -151 -56t-99.5 -140.5t-34.5 -167.5q0 -53 16 -99zM610 531l-406 -405q51 -59 137 -59t151 55.5t100 140t35 167.5q0 56 -17 101z" />
    <glyph glyph-name="Ugrave" unicode="&#xd9;" horiz-adv-x="705" 
d="M502.5 48q-77.5 -62 -193.5 -62q-108 0 -165.5 55.5t-57.5 158.5q0 47 13 100l104 412h92l-107 -431q-11 -40 -11 -75q0 -67 36 -101.5t104 -34.5q77 0 130.5 46t76.5 136l114 460h93l-121 -483q-30 -119 -107.5 -181zM464 760l-93 138h109l56 -138h-72z" />
    <glyph glyph-name="Uacute" unicode="&#xda;" horiz-adv-x="705" 
d="M502.5 48q-77.5 -62 -193.5 -62q-108 0 -165.5 55.5t-57.5 158.5q0 47 13 100l104 412h92l-107 -431q-11 -40 -11 -75q0 -67 36 -101.5t104 -34.5q77 0 130.5 46t76.5 136l114 460h93l-121 -483q-30 -119 -107.5 -181zM402 760l116 138h118l-153 -138h-81z" />
    <glyph glyph-name="Ucircumflex" unicode="&#xdb;" horiz-adv-x="705" 
d="M502.5 48q-77.5 -62 -193.5 -62q-108 0 -165.5 55.5t-57.5 158.5q0 47 13 100l104 412h92l-107 -431q-11 -40 -11 -75q0 -67 36 -101.5t104 -34.5q77 0 130.5 46t76.5 136l114 460h93l-121 -483q-30 -119 -107.5 -181zM552 898l79 -138h-79l-52 89l-96 -89h-98l149 138
h97z" />
    <glyph glyph-name="Udieresis" unicode="&#xdc;" horiz-adv-x="705" 
d="M502.5 48q-77.5 -62 -193.5 -62q-108 0 -165.5 55.5t-57.5 158.5q0 47 13 100l104 412h92l-107 -431q-11 -40 -11 -75q0 -67 36 -101.5t104 -34.5q77 0 130.5 46t76.5 136l114 460h93l-121 -483q-30 -119 -107.5 -181zM334 775l25 99h82l-25 -99h-82zM529 775l25 99h82
l-25 -99h-82z" />
    <glyph glyph-name="Yacute" unicode="&#xdd;" horiz-adv-x="614" 
d="M290 0h-92l73 295l-153 417h96l51 -147q39 -116 61 -188h2q74 92 155 188l124 147h117l-360 -417zM345 760l116 138h118l-153 -138h-81z" />
    <glyph glyph-name="Thorn" unicode="&#xde;" horiz-adv-x="613" 
d="M387 582q113 0 171 -50t58 -140q0 -58 -30 -113t-91.5 -90.5t-151.5 -35.5h-182l-37 -153h-92l177 712h92l-32 -130h118zM181 233h164q60 0 99.5 22.5t58 57t18.5 70.5q0 57 -36 88t-108 31h-128z" />
    <glyph glyph-name="germandbls" unicode="&#xdf;" horiz-adv-x="557" 
d="M513 687q47 -39 47 -106q0 -61 -40 -113t-117 -72v-2q104 -32 104 -154q0 -60 -31 -116.5t-93.5 -93t-150.5 -36.5q-33 0 -58 9l18 72q17 -5 38 -5q62 0 104.5 26t63 66t20.5 81q0 54 -32 84t-92 30h-5l19 78q58 0 94.5 20t52.5 50t16 61q0 42 -24.5 64t-70.5 22
q-111 0 -148 -148l-125 -504h-88l128 515q25 101 87.5 156t152.5 55q83 0 130 -39z" />
    <glyph glyph-name="agrave" unicode="&#xe0;" horiz-adv-x="531" 
d="M435.5 484q45.5 -38 45.5 -115q0 -29 -9 -67l-43 -172q-21 -84 -21 -130h-80q0 26 9 64h-2q-69 -75 -176 -75q-73 0 -113.5 35.5t-40.5 95.5q0 145 224 179q89 13 160 16l3 9q6 30 6 45q0 43 -26 64t-73 21q-52 0 -86.5 -27.5t-44.5 -73.5h-88q16 74 76 121.5t148 47.5
q86 0 131.5 -38zM236 234q-78 -12 -108 -38.5t-30 -64.5q0 -34 23.5 -54t66.5 -20q64 0 110 39t64 109l11 43q-63 -3 -137 -14zM388 569h-71l-93 143h109z" />
    <glyph glyph-name="aacute" unicode="&#xe1;" horiz-adv-x="531" 
d="M435.5 484q45.5 -38 45.5 -115q0 -29 -9 -67l-43 -172q-21 -84 -21 -130h-80q0 26 9 64h-2q-69 -75 -176 -75q-73 0 -113.5 35.5t-40.5 95.5q0 145 224 179q89 13 160 16l3 9q6 30 6 45q0 43 -26 64t-73 21q-52 0 -86.5 -27.5t-44.5 -73.5h-88q16 74 76 121.5t148 47.5
q86 0 131.5 -38zM236 234q-78 -12 -108 -38.5t-30 -64.5q0 -34 23.5 -54t66.5 -20q64 0 110 39t64 109l11 43q-63 -3 -137 -14zM255 569l116 143h118l-153 -143h-81z" />
    <glyph glyph-name="acircumflex" unicode="&#xe2;" horiz-adv-x="531" 
d="M435.5 484q45.5 -38 45.5 -115q0 -29 -9 -67l-43 -172q-21 -84 -21 -130h-80q0 26 9 64h-2q-69 -75 -176 -75q-73 0 -113.5 35.5t-40.5 95.5q0 145 224 179q89 13 160 16l3 9q6 30 6 45q0 43 -26 64t-73 21q-52 0 -86.5 -27.5t-44.5 -73.5h-88q16 74 76 121.5t148 47.5
q86 0 131.5 -38zM236 234q-78 -12 -108 -38.5t-30 -64.5q0 -34 23.5 -54t66.5 -20q64 0 110 39t64 109l11 43q-63 -3 -137 -14zM403 569l-52 93l-96 -93h-96l149 143h97l79 -143h-81z" />
    <glyph glyph-name="atilde" unicode="&#xe3;" horiz-adv-x="531" 
d="M435.5 484q45.5 -38 45.5 -115q0 -29 -9 -67l-43 -172q-21 -84 -21 -130h-80q0 26 9 64h-2q-69 -75 -176 -75q-73 0 -113.5 35.5t-40.5 95.5q0 145 224 179q89 13 160 16l3 9q6 30 6 45q0 43 -26 64t-73 21q-52 0 -86.5 -27.5t-44.5 -73.5h-88q16 74 76 121.5t148 47.5
q86 0 131.5 -38zM236 234q-78 -12 -108 -38.5t-30 -64.5q0 -34 23.5 -54t66.5 -20q64 0 110 39t64 109l11 43q-63 -3 -137 -14zM480 621q-32 -30 -74 -30q-23 0 -40 7.5t-38 21.5q-18 11 -29 16.5t-25 5.5q-41 0 -58 -51h-60q15 54 47.5 84.5t74.5 30.5q23 0 40.5 -7.5
t38.5 -21.5q17 -11 28.5 -16.5t24.5 -5.5q42 0 60 51h58q-16 -55 -48 -85z" />
    <glyph glyph-name="adieresis" unicode="&#xe4;" horiz-adv-x="531" 
d="M435.5 484q45.5 -38 45.5 -115q0 -29 -9 -67l-43 -172q-21 -84 -21 -130h-80q0 26 9 64h-2q-69 -75 -176 -75q-73 0 -113.5 35.5t-40.5 95.5q0 145 224 179q89 13 160 16l3 9q6 30 6 45q0 43 -26 64t-73 21q-52 0 -86.5 -27.5t-44.5 -73.5h-88q16 74 76 121.5t148 47.5
q86 0 131.5 -38zM236 234q-78 -12 -108 -38.5t-30 -64.5q0 -34 23.5 -54t66.5 -20q64 0 110 39t64 109l11 43q-63 -3 -137 -14zM194 613l24 99h82l-24 -99h-82zM389 613l24 99h82l-24 -99h-82z" />
    <glyph glyph-name="aring" unicode="&#xe5;" horiz-adv-x="531" 
d="M435.5 484q45.5 -38 45.5 -115q0 -29 -9 -67l-43 -172q-21 -84 -21 -130h-80q0 26 9 64h-2q-69 -75 -176 -75q-73 0 -113.5 35.5t-40.5 95.5q0 145 224 179q89 13 160 16l3 9q6 30 6 45q0 43 -26 64t-73 21q-52 0 -86.5 -27.5t-44.5 -73.5h-88q16 74 76 121.5t148 47.5
q86 0 131.5 -38zM236 234q-78 -12 -108 -38.5t-30 -64.5q0 -34 23.5 -54t66.5 -20q64 0 110 39t64 109l11 43q-63 -3 -137 -14zM406.5 736.5q29.5 -29.5 29.5 -70.5q0 -42 -29.5 -71.5t-71.5 -29.5q-41 0 -70.5 29.5t-29.5 71.5q0 41 29.5 70.5t70.5 29.5q42 0 71.5 -29.5z
M295 707q-17 -17 -17 -41t17 -41t40 -17q25 0 41.5 16.5t16.5 41.5q0 24 -16.5 41t-41.5 17q-23 0 -40 -17z" />
    <glyph glyph-name="ae" unicode="&#xe6;" horiz-adv-x="862" 
d="M448 183q0 -64 30 -96.5t82 -32.5q48 0 85 27t55 71h90q-27 -71 -89.5 -118.5t-145.5 -47.5q-66 0 -108 29.5t-60 85.5q-37 -55 -91.5 -85t-118.5 -30q-82 0 -127 37t-45 98q0 45 24.5 85t83 67t154.5 27h121l6 20q5 27 5 42q0 92 -99 92q-53 0 -87 -27.5t-45 -73.5h-88
q16 74 76 121.5t147 47.5q126 0 160 -86q76 86 183 86q89 0 136.5 -51.5t47.5 -142.5q0 -39 -15 -95h-362q-5 -23 -5 -50zM536 413.5q-46 -40.5 -67 -113.5h276q3 19 3 36q0 58 -28.5 88t-78.5 30q-59 0 -105 -40.5zM263 233q-165 0 -167 -100q1 -38 24 -58.5t68 -20.5
q66 0 113.5 42t65.5 119l5 18h-109z" />
    <glyph glyph-name="ccedilla" unicode="&#xe7;" horiz-adv-x="534" 
d="M421 338q0 52 -27 82t-77 30q-58 0 -101 -40t-65.5 -99t-22.5 -114q0 -65 29.5 -102t81.5 -37q50 0 91 33.5t59 85.5h93q-26 -77 -83.5 -128t-133.5 -61l-45 -50q8 2 19 2q29 0 47 -17.5t18 -49.5q0 -39 -36.5 -66t-91.5 -27q-57 0 -99 27l21 37q35 -21 76 -21
q30 0 48 13t18 34q0 17 -11 26.5t-31 9.5q-18 0 -33 -6l-17 16l65 71q-82 6 -129 61t-47 147q0 74 33 150t97.5 126.5t154.5 50.5q89 0 139.5 -48.5t50.5 -130.5q0 -16 -1 -25h-91q1 7 1 20z" />
    <glyph glyph-name="egrave" unicode="&#xe8;" horiz-adv-x="551" 
d="M120 183q0 -64 32.5 -96.5t87.5 -32.5q51 0 90.5 27t57.5 71h90q-28 -71 -92.5 -118.5t-150.5 -47.5q-97 0 -148 54t-51 151q0 75 34 152t99.5 128t155.5 51q94 0 143.5 -51.5t49.5 -142.5q0 -34 -13 -92h-379q-6 -30 -6 -53zM212 414.5q-48 -39.5 -70 -111.5h291
q3 16 3 33q0 58 -30.5 88t-84.5 30q-61 0 -109 -39.5zM400 569h-71l-93 143h109z" />
    <glyph glyph-name="eacute" unicode="&#xe9;" horiz-adv-x="551" 
d="M120 183q0 -64 32.5 -96.5t87.5 -32.5q51 0 90.5 27t57.5 71h90q-28 -71 -92.5 -118.5t-150.5 -47.5q-97 0 -148 54t-51 151q0 75 34 152t99.5 128t155.5 51q94 0 143.5 -51.5t49.5 -142.5q0 -34 -13 -92h-379q-6 -30 -6 -53zM212 414.5q-48 -39.5 -70 -111.5h291
q3 16 3 33q0 58 -30.5 88t-84.5 30q-61 0 -109 -39.5zM267 569l116 143h118l-153 -143h-81z" />
    <glyph glyph-name="ecircumflex" unicode="&#xea;" horiz-adv-x="551" 
d="M120 183q0 -64 32.5 -96.5t87.5 -32.5q51 0 90.5 27t57.5 71h90q-28 -71 -92.5 -118.5t-150.5 -47.5q-97 0 -148 54t-51 151q0 75 34 152t99.5 128t155.5 51q94 0 143.5 -51.5t49.5 -142.5q0 -34 -13 -92h-379q-6 -30 -6 -53zM212 414.5q-48 -39.5 -70 -111.5h291
q3 16 3 33q0 58 -30.5 88t-84.5 30q-61 0 -109 -39.5zM415 569l-52 93l-96 -93h-96l149 143h97l79 -143h-81z" />
    <glyph glyph-name="edieresis" unicode="&#xeb;" horiz-adv-x="551" 
d="M120 183q0 -64 32.5 -96.5t87.5 -32.5q51 0 90.5 27t57.5 71h90q-28 -71 -92.5 -118.5t-150.5 -47.5q-97 0 -148 54t-51 151q0 75 34 152t99.5 128t155.5 51q94 0 143.5 -51.5t49.5 -142.5q0 -34 -13 -92h-379q-6 -30 -6 -53zM212 414.5q-48 -39.5 -70 -111.5h291
q3 16 3 33q0 58 -30.5 88t-84.5 30q-61 0 -109 -39.5zM206 613l24 99h82l-24 -99h-82zM401 613l24 99h82l-24 -99h-82z" />
    <glyph glyph-name="igrave" unicode="&#xec;" horiz-adv-x="244" 
d="M15 0l126 508h88l-126 -508h-88zM268 569h-71l-93 143h109z" />
    <glyph glyph-name="iacute" unicode="&#xed;" horiz-adv-x="244" 
d="M15 0l126 508h88l-126 -508h-88zM135 569l116 143h118l-153 -143h-81z" />
    <glyph glyph-name="icircumflex" unicode="&#xee;" horiz-adv-x="244" 
d="M15 0l126 508h88l-126 -508h-88zM271 570l-39 93l-86 -93h-93l135 142h96l64 -142h-77z" />
    <glyph glyph-name="idieresis" unicode="&#xef;" horiz-adv-x="244" 
d="M15 0l126 508h88l-126 -508h-88zM94 613l24 99h82l-24 -99h-82zM248 613l24 99h82l-25 -99h-81z" />
    <glyph glyph-name="eth" unicode="&#xf0;" horiz-adv-x="566" 
d="M499.5 478.5q30.5 -77.5 30.5 -157.5q0 -79 -34 -156.5t-100 -128t-158 -50.5q-96 0 -148.5 56t-52.5 156q0 72 33 144.5t97 120.5t150 48q61 0 95 -31l1 2q-29 60 -73 113l-147 -59l-19 48l129 52q-17 18 -51 48l67 42q36 -33 60 -59l136 55l20 -48l-121 -49
q55 -69 85.5 -146.5zM348.5 98q44.5 40 67.5 98.5t23 111.5q0 66 -31 102.5t-88 36.5q-60 0 -103.5 -40.5t-66 -99.5t-23.5 -113q1 -65 30.5 -100.5t85.5 -35.5q61 0 105.5 40z" />
    <glyph glyph-name="ntilde" unicode="&#xf1;" 
d="M484.5 481.5q39.5 -37.5 39.5 -109.5q0 -35 -10 -75l-74 -297h-88l73 297q9 38 9 64q0 43 -22.5 64.5t-65.5 21.5q-56 0 -103.5 -41t-66.5 -115l-73 -291h-88l127 508h85l-16 -60h2q32 33 74 52t87 19q71 0 110.5 -37.5zM527 621q-32 -30 -74 -30q-23 0 -40 7.5t-38 21.5
q-18 11 -29 16.5t-25 5.5q-41 0 -58 -51h-60q15 54 47.5 84.5t74.5 30.5q23 0 40.5 -7.5t38.5 -21.5q17 -11 28.5 -16.5t24.5 -5.5q42 0 60 51h58q-16 -55 -48 -85z" />
    <glyph glyph-name="ograve" unicode="&#xf2;" horiz-adv-x="565" 
d="M473 466q53 -56 53 -158q0 -75 -33 -149.5t-97.5 -123.5t-153.5 -49q-98 0 -150.5 56t-52.5 158q0 75 32.5 149.5t96.5 123.5t153 49q99 0 152 -56zM213.5 410.5q-41.5 -39.5 -63 -97.5t-21.5 -113q0 -68 30.5 -105t89.5 -37t101.5 39.5t64 97.5t21.5 113q0 68 -31 105
t-91 37q-59 0 -100.5 -39.5zM408 569h-71l-93 143h109z" />
    <glyph glyph-name="oacute" unicode="&#xf3;" horiz-adv-x="565" 
d="M473 466q53 -56 53 -158q0 -75 -33 -149.5t-97.5 -123.5t-153.5 -49q-98 0 -150.5 56t-52.5 158q0 75 32.5 149.5t96.5 123.5t153 49q99 0 152 -56zM213.5 410.5q-41.5 -39.5 -63 -97.5t-21.5 -113q0 -68 30.5 -105t89.5 -37t101.5 39.5t64 97.5t21.5 113q0 68 -31 105
t-91 37q-59 0 -100.5 -39.5zM275 569l116 143h118l-153 -143h-81z" />
    <glyph glyph-name="ocircumflex" unicode="&#xf4;" horiz-adv-x="565" 
d="M473 466q53 -56 53 -158q0 -75 -33 -149.5t-97.5 -123.5t-153.5 -49q-98 0 -150.5 56t-52.5 158q0 75 32.5 149.5t96.5 123.5t153 49q99 0 152 -56zM213.5 410.5q-41.5 -39.5 -63 -97.5t-21.5 -113q0 -68 30.5 -105t89.5 -37t101.5 39.5t64 97.5t21.5 113q0 68 -31 105
t-91 37q-59 0 -100.5 -39.5zM423 569l-52 93l-96 -93h-96l149 143h97l79 -143h-81z" />
    <glyph glyph-name="otilde" unicode="&#xf5;" horiz-adv-x="565" 
d="M473 466q53 -56 53 -158q0 -75 -33 -149.5t-97.5 -123.5t-153.5 -49q-98 0 -150.5 56t-52.5 158q0 75 32.5 149.5t96.5 123.5t153 49q99 0 152 -56zM213.5 410.5q-41.5 -39.5 -63 -97.5t-21.5 -113q0 -68 30.5 -105t89.5 -37t101.5 39.5t64 97.5t21.5 113q0 68 -31 105
t-91 37q-59 0 -100.5 -39.5zM499 621q-32 -30 -74 -30q-23 0 -40 7.5t-38 21.5q-18 11 -29 16.5t-25 5.5q-41 0 -58 -51h-60q15 54 47.5 84.5t74.5 30.5q23 0 40.5 -7.5t38.5 -21.5q17 -11 28.5 -16.5t24.5 -5.5q42 0 60 51h58q-16 -55 -48 -85z" />
    <glyph glyph-name="odieresis" unicode="&#xf6;" horiz-adv-x="565" 
d="M473 466q53 -56 53 -158q0 -75 -33 -149.5t-97.5 -123.5t-153.5 -49q-98 0 -150.5 56t-52.5 158q0 75 32.5 149.5t96.5 123.5t153 49q99 0 152 -56zM213.5 410.5q-41.5 -39.5 -63 -97.5t-21.5 -113q0 -68 30.5 -105t89.5 -37t101.5 39.5t64 97.5t21.5 113q0 68 -31 105
t-91 37q-59 0 -100.5 -39.5zM213 613l24 99h82l-24 -99h-82zM408 613l24 99h82l-24 -99h-82z" />
    <glyph glyph-name="divide" unicode="&#xf7;" horiz-adv-x="566" 
d="M242 441v85h82v-85h-82zM71 280v73h424v-73h-424zM242 108v85h82v-85h-82z" />
    <glyph glyph-name="oslash" unicode="&#xf8;" horiz-adv-x="566" 
d="M527 308q0 -74 -33.5 -149t-99 -124t-155.5 -49q-88 0 -141 48l-59 -58l-38 38l64 64q-27 49 -27 122q0 74 33.5 149t98.5 124t155 49q88 0 140 -47l58 58l39 -38l-63 -62q28 -53 28 -125zM213.5 412q-43.5 -40 -66 -98.5t-22.5 -113.5q0 -30 6 -56l275 273
q-33 35 -88 35q-61 0 -104.5 -40zM351 96q44 40 66 98.5t22 113.5q0 28 -7 58l-275 -274q31 -36 89 -36q61 0 105 40z" />
    <glyph glyph-name="ugrave" unicode="&#xf9;" 
d="M90.5 26.5q-39.5 37.5 -39.5 109.5q0 31 11 75l74 297h88l-74 -297q-8 -33 -8 -64q0 -43 22.5 -64.5t64.5 -21.5q57 0 104.5 41t66.5 115l73 291h88l-127 -508h-85l15 60h-2q-31 -33 -73 -52t-88 -19q-71 0 -110.5 37.5zM423 569h-71l-93 143h109z" />
    <glyph glyph-name="uacute" unicode="&#xfa;" 
d="M90.5 26.5q-39.5 37.5 -39.5 109.5q0 31 11 75l74 297h88l-74 -297q-8 -33 -8 -64q0 -43 22.5 -64.5t64.5 -21.5q57 0 104.5 41t66.5 115l73 291h88l-127 -508h-85l15 60h-2q-31 -33 -73 -52t-88 -19q-71 0 -110.5 37.5zM290 569l116 143h118l-153 -143h-81z" />
    <glyph glyph-name="ucircumflex" unicode="&#xfb;" 
d="M90.5 26.5q-39.5 37.5 -39.5 109.5q0 31 11 75l74 297h88l-74 -297q-8 -33 -8 -64q0 -43 22.5 -64.5t64.5 -21.5q57 0 104.5 41t66.5 115l73 291h88l-127 -508h-85l15 60h-2q-31 -33 -73 -52t-88 -19q-71 0 -110.5 37.5zM438 569l-52 93l-96 -93h-96l149 143h97l79 -143
h-81z" />
    <glyph glyph-name="udieresis" unicode="&#xfc;" 
d="M90.5 26.5q-39.5 37.5 -39.5 109.5q0 31 11 75l74 297h88l-74 -297q-8 -33 -8 -64q0 -43 22.5 -64.5t64.5 -21.5q57 0 104.5 41t66.5 115l73 291h88l-127 -508h-85l15 60h-2q-31 -33 -73 -52t-88 -19q-71 0 -110.5 37.5zM229 613l24 99h82l-24 -99h-82zM424 613l24 99h82
l-24 -99h-82z" />
    <glyph glyph-name="yacute" unicode="&#xfd;" horiz-adv-x="472" 
d="M131.5 -124.5q-35.5 -35.5 -75 -50t-94.5 -14.5q-32 0 -52 7l18 72q16 -6 40 -6q34 0 58.5 10t46.5 34t51 70l-67 510h88l47 -404h2l247 404h100l-333 -531q-41 -66 -76.5 -101.5zM229 569l116 143h118l-153 -143h-81z" />
    <glyph glyph-name="thorn" unicode="&#xfe;" horiz-adv-x="577" 
d="M219 454q29 31 68.5 49t80.5 18q83 0 128.5 -52t45.5 -144q0 -76 -32 -154.5t-94 -130.5t-145 -52q-54 0 -92.5 27t-51.5 72h-2l-68 -272h-88l223 897h88l-63 -258h2zM242.5 411q-42.5 -39 -64 -98t-21.5 -116q0 -66 27.5 -102t78.5 -36q57 0 99.5 39t64.5 98t22 116
q0 66 -28 102t-79 36q-57 0 -99.5 -39z" />
    <glyph glyph-name="ydieresis" unicode="&#xff;" horiz-adv-x="472" 
d="M131.5 -124.5q-35.5 -35.5 -75 -50t-94.5 -14.5q-32 0 -52 7l18 72q16 -6 40 -6q34 0 58.5 10t46.5 34t51 70l-67 510h88l47 -404h2l247 404h100l-333 -531q-41 -66 -76.5 -101.5zM167 613l24 99h82l-24 -99h-82zM362 613l24 99h82l-24 -99h-82z" />
    <glyph glyph-name="Amacron" unicode="&#x100;" horiz-adv-x="675" 
d="M177 212l-131 -212h-104l447 712h125l94 -712h-92l-25 212h-314zM474 358q-16 134 -32 290h-2q-80 -136 -173 -290l-40 -65h255zM329 788l15 65h284l-15 -65h-284z" />
    <glyph glyph-name="amacron" unicode="&#x101;" horiz-adv-x="531" 
d="M435.5 484q45.5 -38 45.5 -115q0 -29 -9 -67l-43 -172q-21 -84 -21 -130h-80q0 26 9 64h-2q-69 -75 -176 -75q-73 0 -113.5 35.5t-40.5 95.5q0 145 224 179q89 13 160 16l3 9q6 30 6 45q0 43 -26 64t-73 21q-52 0 -86.5 -27.5t-44.5 -73.5h-88q16 74 76 121.5t148 47.5
q86 0 131.5 -38zM236 234q-78 -12 -108 -38.5t-30 -64.5q0 -34 23.5 -54t66.5 -20q64 0 110 39t64 109l11 43q-63 -3 -137 -14zM191 616l15 64h285l-16 -64h-284z" />
    <glyph glyph-name="Abreve" unicode="&#x102;" horiz-adv-x="675" 
d="M177 212l-131 -212h-104l447 712h125l94 -712h-92l-25 212h-314zM474 358q-16 134 -32 290h-2q-80 -136 -173 -290l-40 -65h255zM587 793q-48 -37 -117 -37q-62 0 -95.5 30.5t-33.5 86.5q0 16 2 25h59q-1 -5 -1 -14q0 -32 18.5 -49t52.5 -17q40 0 68.5 21t41.5 59h72
q-19 -68 -67 -105z" />
    <glyph glyph-name="abreve" unicode="&#x103;" horiz-adv-x="531" 
d="M435.5 484q45.5 -38 45.5 -115q0 -29 -9 -67l-43 -172q-21 -84 -21 -130h-80q0 26 9 64h-2q-69 -75 -176 -75q-73 0 -113.5 35.5t-40.5 95.5q0 145 224 179q89 13 160 16l3 9q6 30 6 45q0 43 -26 64t-73 21q-52 0 -86.5 -27.5t-44.5 -73.5h-88q16 74 76 121.5t148 47.5
q86 0 131.5 -38zM236 234q-78 -12 -108 -38.5t-30 -64.5q0 -34 23.5 -54t66.5 -20q64 0 110 39t64 109l11 43q-63 -3 -137 -14zM444.5 606.5q-48.5 -37.5 -116.5 -37.5q-63 0 -96 30.5t-33 87.5q0 16 2 25h59q-1 -5 -1 -15q0 -32 18 -49t53 -17q40 0 68.5 21t41.5 60h72
q-19 -68 -67.5 -105.5z" />
    <glyph glyph-name="Aogonek" unicode="&#x104;" horiz-adv-x="675" 
d="M538 -138q22 0 39 7l-14 -56q-23 -7 -52 -7q-44 0 -66 18.5t-22 52.5q0 32 25.5 61t80.5 62h-13l-25 212h-314l-131 -212h-104l447 712h125l94 -712q-58 -35 -80 -61.5t-22 -49.5q0 -27 32 -27zM474 358q-16 134 -32 290h-2q-80 -136 -173 -290l-40 -65h255z" />
    <glyph glyph-name="aogonek" unicode="&#x105;" horiz-adv-x="531" 
d="M435.5 484q45.5 -38 45.5 -115q0 -29 -9 -67l-43 -172q-21 -84 -21 -130q-58 -35 -80 -61.5t-22 -49.5q0 -27 32 -27q22 0 39 7l-14 -56q-23 -7 -52 -7q-44 0 -66 18.5t-22 52.5q0 32 25 61t80 62q0 26 9 64h-2q-69 -75 -176 -75q-73 0 -113.5 35.5t-40.5 95.5
q0 145 224 179q89 13 160 16l3 9q6 30 6 45q0 43 -26 64t-73 21q-52 0 -86.5 -27.5t-44.5 -73.5h-88q16 74 76 121.5t148 47.5q86 0 131.5 -38zM298 96q46 39 64 109l11 43q-63 -3 -137 -14q-78 -12 -108 -38.5t-30 -64.5q0 -34 23.5 -54t66.5 -20q64 0 110 39z" />
    <glyph glyph-name="Cacute" unicode="&#x106;" horiz-adv-x="690" 
d="M576 697.5q55 -28.5 84 -80t29 -118.5q0 -22 -3 -43h-95q2 24 2 34q0 70 -42 111t-114 41q-87 0 -150.5 -56.5t-96 -142t-32.5 -167.5q0 -95 44 -150.5t124 -55.5q72 0 131 43.5t87 116.5h96q-37 -113 -123 -178.5t-199 -65.5q-121 0 -188.5 76t-67.5 206q0 106 44.5 212
t131.5 176t209 70q74 0 129 -28.5zM398 760l116 138h118l-153 -138h-81z" />
    <glyph glyph-name="cacute" unicode="&#x107;" horiz-adv-x="534" 
d="M461.5 473.5q50.5 -48.5 50.5 -130.5q0 -16 -1 -25h-91q1 7 1 20q0 52 -27 82t-77 30q-58 0 -101 -40t-65.5 -99t-22.5 -114q0 -65 29.5 -102t81.5 -37q50 0 91 33.5t59 85.5h93q-29 -86 -96 -138.5t-153 -52.5q-91 0 -143.5 56t-52.5 153q0 74 33 150t97.5 126.5
t154.5 50.5q89 0 139.5 -48.5zM272 569l116 143h118l-153 -143h-81z" />
    <glyph glyph-name="Ccircumflex" unicode="&#x108;" horiz-adv-x="690" 
d="M576 697.5q55 -28.5 84 -80t29 -118.5q0 -22 -3 -43h-95q2 24 2 34q0 70 -42 111t-114 41q-87 0 -150.5 -56.5t-96 -142t-32.5 -167.5q0 -95 44 -150.5t124 -55.5q72 0 131 43.5t87 116.5h96q-37 -113 -123 -178.5t-199 -65.5q-121 0 -188.5 76t-67.5 206q0 106 44.5 212
t131.5 176t209 70q74 0 129 -28.5zM548 898l79 -138h-79l-52 89l-96 -89h-98l149 138h97z" />
    <glyph glyph-name="ccircumflex" unicode="&#x109;" horiz-adv-x="534" 
d="M461.5 473.5q50.5 -48.5 50.5 -130.5q0 -16 -1 -25h-91q1 7 1 20q0 52 -27 82t-77 30q-58 0 -101 -40t-65.5 -99t-22.5 -114q0 -65 29.5 -102t81.5 -37q50 0 91 33.5t59 85.5h93q-29 -86 -96 -138.5t-153 -52.5q-91 0 -143.5 56t-52.5 153q0 74 33 150t97.5 126.5
t154.5 50.5q89 0 139.5 -48.5zM420 569l-52 93l-96 -93h-96l149 143h97l79 -143h-81z" />
    <glyph glyph-name="Cdotaccent" unicode="&#x10a;" horiz-adv-x="690" 
d="M576 697.5q55 -28.5 84 -80t29 -118.5q0 -22 -3 -43h-95q2 24 2 34q0 70 -42 111t-114 41q-87 0 -150.5 -56.5t-96 -142t-32.5 -167.5q0 -95 44 -150.5t124 -55.5q72 0 131 43.5t87 116.5h96q-37 -113 -123 -178.5t-199 -65.5q-121 0 -188.5 76t-67.5 206q0 106 44.5 212
t131.5 176t209 70q74 0 129 -28.5zM424 775l25 99h88l-25 -99h-88z" />
    <glyph glyph-name="cdotaccent" unicode="&#x10b;" horiz-adv-x="534" 
d="M461.5 473.5q50.5 -48.5 50.5 -130.5q0 -16 -1 -25h-91q1 7 1 20q0 52 -27 82t-77 30q-58 0 -101 -40t-65.5 -99t-22.5 -114q0 -65 29.5 -102t81.5 -37q50 0 91 33.5t59 85.5h93q-29 -86 -96 -138.5t-153 -52.5q-91 0 -143.5 56t-52.5 153q0 74 33 150t97.5 126.5
t154.5 50.5q89 0 139.5 -48.5zM305 613l24 99h88l-24 -99h-88z" />
    <glyph glyph-name="Ccaron" unicode="&#x10c;" horiz-adv-x="690" 
d="M576 697.5q55 -28.5 84 -80t29 -118.5q0 -22 -3 -43h-95q2 24 2 34q0 70 -42 111t-114 41q-87 0 -150.5 -56.5t-96 -142t-32.5 -167.5q0 -95 44 -150.5t124 -55.5q72 0 131 43.5t87 116.5h96q-37 -113 -123 -178.5t-199 -65.5q-121 0 -188.5 76t-67.5 206q0 106 44.5 212
t131.5 176t209 70q74 0 129 -28.5zM415 760l-79 138h79l52 -88l96 88h98l-149 -138h-97z" />
    <glyph glyph-name="ccaron" unicode="&#x10d;" horiz-adv-x="534" 
d="M461.5 473.5q50.5 -48.5 50.5 -130.5q0 -16 -1 -25h-91q1 7 1 20q0 52 -27 82t-77 30q-58 0 -101 -40t-65.5 -99t-22.5 -114q0 -65 29.5 -102t81.5 -37q50 0 91 33.5t59 85.5h93q-29 -86 -96 -138.5t-153 -52.5q-91 0 -143.5 56t-52.5 153q0 74 33 150t97.5 126.5
t154.5 50.5q89 0 139.5 -48.5zM290 569l-79 143h81l52 -93l96 93h96l-149 -143h-97z" />
    <glyph glyph-name="Dcaron" unicode="&#x10e;" horiz-adv-x="723" 
d="M624 634q83 -78 83 -226q0 -99 -47 -192.5t-143.5 -154.5t-238.5 -61h-246l177 712h171q161 0 244 -78zM143 82h139q111 0 185 49t108.5 122.5t34.5 148.5q0 112 -59 170t-175 58h-96zM406 760l-79 138h79l52 -88l96 88h98l-149 -138h-97z" />
    <glyph glyph-name="dcaron" unicode="&#x10f;" horiz-adv-x="575" 
d="M347 0l14 55h-2q-30 -31 -70 -49.5t-81 -18.5q-83 0 -128.5 52t-45.5 144q0 76 32 154.5t94 130.5t145 52q54 0 92.5 -27t51.5 -72h2l72 291h88l-177 -712h-87zM213 410q-42 -39 -64 -98t-22 -116q0 -66 28 -102t79 -36q57 0 99 39t64 98t22 116q0 66 -28 102t-79 36
q-57 0 -99 -39zM602 536l73 176h79l-98 -176h-54z" />
    <glyph glyph-name="Dcroat" unicode="&#x110;" horiz-adv-x="724" 
d="M624 634q83 -78 83 -226q0 -99 -47 -192.5t-143.5 -154.5t-238.5 -61h-246l81 325h-66l18 71h65l79 316h171q161 0 244 -78zM467 131q74 49 108.5 122.5t34.5 148.5q0 112 -59 170t-175 58h-96l-58 -234h203l-19 -71h-202l-61 -243h139q111 0 185 49z" />
    <glyph glyph-name="dcroat" unicode="&#x111;" horiz-adv-x="570" 
d="M578 580l-144 -580h-87l14 55h-2q-30 -31 -70 -49.5t-81 -18.5q-83 0 -128.5 52t-45.5 144q0 76 32 154.5t94 130.5t145 52q54 0 92.5 -27t51.5 -72h2l39 159h-130l14 55h130l19 77h88l-19 -77h66l-14 -55h-66zM333 97q42 39 64 98t22 116q0 66 -28 102t-79 36
q-57 0 -99 -39t-64 -98t-22 -116q0 -66 28 -102t79 -36q57 0 99 39z" />
    <glyph glyph-name="Emacron" unicode="&#x112;" horiz-adv-x="618" 
d="M281 630l-56 -225h346l-20 -81h-347l-60 -242h378l-20 -82h-470l177 712h459l-20 -82h-367zM306 788l15 65h284l-15 -65h-284z" />
    <glyph glyph-name="emacron" unicode="&#x113;" horiz-adv-x="551" 
d="M120 183q0 -64 32.5 -96.5t87.5 -32.5q51 0 90.5 27t57.5 71h90q-28 -71 -92.5 -118.5t-150.5 -47.5q-97 0 -148 54t-51 151q0 75 34 152t99.5 128t155.5 51q94 0 143.5 -51.5t49.5 -142.5q0 -34 -13 -92h-379q-6 -30 -6 -53zM212 414.5q-48 -39.5 -70 -111.5h291
q3 16 3 33q0 58 -30.5 88t-84.5 30q-61 0 -109 -39.5zM203 616l15 64h285l-16 -64h-284z" />
    <glyph glyph-name="Ebreve" unicode="&#x114;" horiz-adv-x="618" 
d="M281 630l-56 -225h346l-20 -81h-347l-60 -242h378l-20 -82h-470l177 712h459l-20 -82h-367zM564 793q-48 -37 -117 -37q-62 0 -95.5 30.5t-33.5 86.5q0 16 2 25h59q-1 -5 -1 -14q0 -32 18.5 -49t52.5 -17q40 0 68.5 21t41.5 59h72q-19 -68 -67 -105z" />
    <glyph glyph-name="ebreve" unicode="&#x115;" horiz-adv-x="551" 
d="M120 183q0 -64 32.5 -96.5t87.5 -32.5q51 0 90.5 27t57.5 71h90q-28 -71 -92.5 -118.5t-150.5 -47.5q-97 0 -148 54t-51 151q0 75 34 152t99.5 128t155.5 51q94 0 143.5 -51.5t49.5 -142.5q0 -34 -13 -92h-379q-6 -30 -6 -53zM212 414.5q-48 -39.5 -70 -111.5h291
q3 16 3 33q0 58 -30.5 88t-84.5 30q-61 0 -109 -39.5zM456.5 606.5q-48.5 -37.5 -116.5 -37.5q-63 0 -96 30.5t-33 87.5q0 16 2 25h59q-1 -5 -1 -15q0 -32 18 -49t53 -17q40 0 68.5 21t41.5 60h72q-19 -68 -67.5 -105.5z" />
    <glyph glyph-name="Edotaccent" unicode="&#x116;" horiz-adv-x="618" 
d="M281 630l-56 -225h346l-20 -81h-347l-60 -242h378l-20 -82h-470l177 712h459l-20 -82h-367zM400 775l25 99h88l-25 -99h-88z" />
    <glyph glyph-name="edotaccent" unicode="&#x117;" horiz-adv-x="551" 
d="M120 183q0 -64 32.5 -96.5t87.5 -32.5q51 0 90.5 27t57.5 71h90q-28 -71 -92.5 -118.5t-150.5 -47.5q-97 0 -148 54t-51 151q0 75 34 152t99.5 128t155.5 51q94 0 143.5 -51.5t49.5 -142.5q0 -34 -13 -92h-379q-6 -30 -6 -53zM212 414.5q-48 -39.5 -70 -111.5h291
q3 16 3 33q0 58 -30.5 88t-84.5 30q-61 0 -109 -39.5zM300 613l24 99h88l-24 -99h-88z" />
    <glyph glyph-name="Eogonek" unicode="&#x118;" horiz-adv-x="618" 
d="M225 405h346l-20 -81h-347l-60 -242h378l-20 -82q-58 -35 -80 -61.5t-22 -49.5q0 -27 32 -27q22 0 39 7l-14 -56q-23 -7 -52 -7q-44 0 -66 18.5t-22 52.5q0 32 25.5 61t80.5 62h-391l177 712h459l-20 -82h-367z" />
    <glyph glyph-name="eogonek" unicode="&#x119;" horiz-adv-x="549" 
d="M119 183q0 -64 32.5 -96.5t87.5 -32.5q51 0 90.5 27t57.5 71h90q-30 -75 -114 -137q-61 -43 -83.5 -72t-22.5 -54q0 -27 33 -27q21 0 39 7l-14 -56q-23 -7 -52 -7q-44 0 -66 18.5t-22 52.5q0 28 18.5 54t59.5 54v2l-19 -1q-97 0 -148 54t-51 151q0 75 34 152t99.5 128
t155.5 51q94 0 143.5 -51.5t49.5 -142.5q0 -36 -14 -92h-379q-5 -33 -5 -53zM211 414.5q-48 -39.5 -70 -111.5h291q3 16 3 33q0 58 -30.5 88t-85.5 30q-60 0 -108 -39.5z" />
    <glyph glyph-name="Ecaron" unicode="&#x11a;" horiz-adv-x="618" 
d="M281 630l-56 -225h346l-20 -81h-347l-60 -242h378l-20 -82h-470l177 712h459l-20 -82h-367zM391 760l-79 138h79l52 -88l96 88h98l-149 -138h-97z" />
    <glyph glyph-name="ecaron" unicode="&#x11b;" horiz-adv-x="551" 
d="M120 183q0 -64 32.5 -96.5t87.5 -32.5q51 0 90.5 27t57.5 71h90q-28 -71 -92.5 -118.5t-150.5 -47.5q-97 0 -148 54t-51 151q0 75 34 152t99.5 128t155.5 51q94 0 143.5 -51.5t49.5 -142.5q0 -34 -13 -92h-379q-6 -30 -6 -53zM212 414.5q-48 -39.5 -70 -111.5h291
q3 16 3 33q0 58 -30.5 88t-84.5 30q-61 0 -109 -39.5zM285 569l-79 143h81l52 -93l96 93h96l-149 -143h-97z" />
    <glyph glyph-name="Gcircumflex" unicode="&#x11c;" horiz-adv-x="731" 
d="M642.5 669q64.5 -57 64.5 -155q0 -12 -2 -32h-98q1 6 1 17q0 68 -40.5 105.5t-113.5 37.5q-93 0 -160.5 -57t-102 -143.5t-34.5 -172.5q0 -95 43 -149t125 -54q81 0 148 54t94 163h-196l20 79h284l-90 -362h-82l20 82h-2q-36 -44 -95.5 -69.5t-124.5 -25.5q-74 0 -128 35
t-82 98t-28 147q0 110 46.5 216t137.5 174.5t216 68.5q115 0 179.5 -57zM552 898l79 -138h-79l-52 89l-96 -89h-98l149 138h97z" />
    <glyph glyph-name="gcircumflex" unicode="&#x11d;" horiz-adv-x="573" 
d="M396 494q38 -27 53 -75h2l22 89h85l-124 -502q-24 -98 -91 -148.5t-167 -50.5q-91 0 -139 35t-48 98q0 13 3 28h87q-2 -7 -2 -21q0 -35 27 -53.5t76 -18.5q68 0 110 36.5t63 117.5l11 45h-2q-69 -69 -158 -69q-79 0 -122.5 53t-43.5 146q0 71 32 145t92 123t141 49
q55 0 93 -27zM212 410q-40 -38 -61 -93t-21 -104q0 -63 27 -98.5t77 -35.5q57 0 99 37t64 91.5t22 106.5q0 63 -30 98.5t-84 35.5q-53 0 -93 -38zM435 569l-52 93l-96 -93h-96l149 143h97l79 -143h-81z" />
    <glyph glyph-name="Gbreve" unicode="&#x11e;" horiz-adv-x="731" 
d="M642.5 669q64.5 -57 64.5 -155q0 -12 -2 -32h-98q1 6 1 17q0 68 -40.5 105.5t-113.5 37.5q-93 0 -160.5 -57t-102 -143.5t-34.5 -172.5q0 -95 43 -149t125 -54q81 0 148 54t94 163h-196l20 79h284l-90 -362h-82l20 82h-2q-36 -44 -95.5 -69.5t-124.5 -25.5q-74 0 -128 35
t-82 98t-28 147q0 110 46.5 216t137.5 174.5t216 68.5q115 0 179.5 -57zM592 793q-48 -37 -117 -37q-62 0 -95.5 30.5t-33.5 86.5q0 16 2 25h59q-1 -5 -1 -14q0 -32 18.5 -49t52.5 -17q40 0 68.5 21t41.5 59h72q-19 -68 -67 -105z" />
    <glyph glyph-name="gbreve" unicode="&#x11f;" horiz-adv-x="573" 
d="M396 494q38 -27 53 -75h2l22 89h85l-124 -502q-24 -98 -91 -148.5t-167 -50.5q-91 0 -139 35t-48 98q0 13 3 28h87q-2 -7 -2 -21q0 -35 27 -53.5t76 -18.5q68 0 110 36.5t63 117.5l11 45h-2q-69 -69 -158 -69q-79 0 -122.5 53t-43.5 146q0 71 32 145t92 123t141 49
q55 0 93 -27zM212 410q-40 -38 -61 -93t-21 -104q0 -63 27 -98.5t77 -35.5q57 0 99 37t64 91.5t22 106.5q0 63 -30 98.5t-84 35.5q-53 0 -93 -38zM476.5 606.5q-48.5 -37.5 -116.5 -37.5q-63 0 -96 30.5t-33 87.5q0 16 2 25h59q-1 -5 -1 -15q0 -32 18 -49t53 -17
q40 0 68.5 21t41.5 60h72q-19 -68 -67.5 -105.5z" />
    <glyph glyph-name="Gdotaccent" unicode="&#x120;" horiz-adv-x="731" 
d="M642.5 669q64.5 -57 64.5 -155q0 -12 -2 -32h-98q1 6 1 17q0 68 -40.5 105.5t-113.5 37.5q-93 0 -160.5 -57t-102 -143.5t-34.5 -172.5q0 -95 43 -149t125 -54q81 0 148 54t94 163h-196l20 79h284l-90 -362h-82l20 82h-2q-36 -44 -95.5 -69.5t-124.5 -25.5q-74 0 -128 35
t-82 98t-28 147q0 110 46.5 216t137.5 174.5t216 68.5q115 0 179.5 -57zM428 775l25 99h88l-25 -99h-88z" />
    <glyph glyph-name="gdotaccent" unicode="&#x121;" horiz-adv-x="573" 
d="M396 494q38 -27 53 -75h2l22 89h85l-124 -502q-24 -98 -91 -148.5t-167 -50.5q-91 0 -139 35t-48 98q0 13 3 28h87q-2 -7 -2 -21q0 -35 27 -53.5t76 -18.5q68 0 110 36.5t63 117.5l11 45h-2q-69 -69 -158 -69q-79 0 -122.5 53t-43.5 146q0 71 32 145t92 123t141 49
q55 0 93 -27zM212 410q-40 -38 -61 -93t-21 -104q0 -63 27 -98.5t77 -35.5q57 0 99 37t64 91.5t22 106.5q0 63 -30 98.5t-84 35.5q-53 0 -93 -38zM320 613l24 99h88l-24 -99h-88z" />
    <glyph glyph-name="Gcommaaccent" unicode="&#x122;" horiz-adv-x="731" 
d="M642.5 669q64.5 -57 64.5 -155q0 -12 -2 -32h-98q1 6 1 17q0 68 -40.5 105.5t-113.5 37.5q-93 0 -160.5 -57t-102 -143.5t-34.5 -172.5q0 -95 43 -149t125 -54q81 0 148 54t94 163h-196l20 79h284l-90 -362h-82l20 82h-2q-36 -44 -95.5 -69.5t-124.5 -25.5q-74 0 -128 35
t-82 98t-28 147q0 110 46.5 216t137.5 174.5t216 68.5q115 0 179.5 -57zM227 -257h-38l64 103h-33l21 89h89l-22 -89z" />
    <glyph glyph-name="gcommaaccent" unicode="&#x123;" horiz-adv-x="573" 
d="M396 494q38 -27 53 -75h2l22 89h85l-124 -502q-24 -98 -91 -148.5t-167 -50.5q-91 0 -139 35t-48 98q0 13 3 28h87q-2 -7 -2 -21q0 -35 27 -53.5t76 -18.5q68 0 110 36.5t63 117.5l11 45h-2q-69 -69 -158 -69q-79 0 -122.5 53t-43.5 146q0 71 32 145t92 123t141 49
q55 0 93 -27zM212 410q-40 -38 -61 -93t-21 -104q0 -63 27 -98.5t77 -35.5q57 0 99 37t64 91.5t22 106.5q0 63 -30 98.5t-84 35.5q-53 0 -93 -38zM420 672l-21 -89h-89l21 89l82 103h38l-64 -103h33z" />
    <glyph glyph-name="Hcircumflex" unicode="&#x124;" horiz-adv-x="737" 
d="M487 0l82 329h-363l-82 -329h-92l177 712h92l-75 -302h364l74 302h93l-177 -712h-93zM578 898l79 -138h-79l-52 89l-96 -89h-98l149 138h97z" />
    <glyph glyph-name="hcircumflex" unicode="&#x125;" 
d="M217 451q31 32 72 50t85 18q71 0 110.5 -37.5t39.5 -109.5q0 -35 -10 -75l-74 -297h-88l73 297q9 38 9 64q0 43 -22.5 64.5t-65.5 21.5q-56 0 -103.5 -41t-66.5 -115l-73 -291h-88l177 712h88l-65 -261h2zM497 898l79 -138h-79l-52 89l-96 -89h-98l149 138h97z" />
    <glyph glyph-name="Hbar" unicode="&#x126;" horiz-adv-x="737" 
d="M723 574l-143 -574h-93l82 329h-363l-82 -329h-92l143 574h-59l15 58h58l20 80h92l-20 -80h363l20 80h93l-20 -80h58l-14 -58h-58zM267 574l-41 -164h364l40 164h-363z" />
    <glyph glyph-name="hbar" unicode="&#x127;" 
d="M484.5 481.5q39.5 -37.5 39.5 -109.5q0 -35 -10 -75l-74 -297h-88l73 297q9 38 9 64q0 43 -22.5 64.5t-65.5 21.5q-56 0 -103.5 -41t-66.5 -115l-73 -291h-88l144 580h-71l13 52h71l20 80h88l-20 -80h125l-13 -52h-125l-32 -129h2q31 32 72 50t85 18q71 0 110.5 -37.5z
" />
    <glyph glyph-name="Itilde" unicode="&#x128;" horiz-adv-x="282" 
d="M32 0l177 712h92l-177 -712h-92zM425.5 807q-32.5 -30 -74.5 -30q-23 0 -40 7.5t-38 21.5q-20 12 -30.5 17t-24.5 5q-41 0 -58 -51h-60q15 54 47.5 84.5t74.5 30.5q23 0 40.5 -7.5t39.5 -21.5q31 -22 53 -22q42 0 61 51h58q-16 -55 -48.5 -85z" />
    <glyph glyph-name="itilde" unicode="&#x129;" horiz-adv-x="244" 
d="M15 0l126 508h88l-126 -508h-88zM343 621q-30 -30 -69 -30q-19 0 -34 7.5t-33 21.5q-18 12 -27 17t-20 5q-35 0 -50 -51h-59q17 55 47 85t68 30q20 0 35.5 -8t33.5 -22q14 -11 24 -16t21 -5q35 0 53 51h56q-16 -55 -46 -85z" />
    <glyph glyph-name="Imacron" unicode="&#x12a;" horiz-adv-x="282" 
d="M32 0l177 712h92l-177 -712h-92zM133 788l15 65h284l-15 -65h-284z" />
    <glyph glyph-name="imacron" unicode="&#x12b;" horiz-adv-x="244" 
d="M15 0l126 508h88l-126 -508h-88zM83 616l16 64h257l-16 -64h-257z" />
    <glyph glyph-name="Ibreve" unicode="&#x12c;" horiz-adv-x="282" 
d="M32 0l177 712h92l-177 -712h-92zM390 793q-48 -37 -117 -37q-62 0 -95.5 30.5t-33.5 86.5q0 16 2 25h59q-1 -5 -1 -14q0 -32 18.5 -49t52.5 -17q40 0 68.5 21t41.5 59h72q-19 -68 -67 -105z" />
    <glyph glyph-name="ibreve" unicode="&#x12d;" horiz-adv-x="244" 
d="M15 0l126 508h88l-126 -508h-88zM312.5 606.5q-44.5 -37.5 -105.5 -37.5q-54 0 -83.5 29.5t-29.5 83.5q0 17 3 30h58q-1 -5 -1 -18q0 -30 15.5 -46.5t43.5 -16.5q33 0 57 21t36 60h69q-18 -68 -62.5 -105.5z" />
    <glyph glyph-name="Iogonek" unicode="&#x12e;" horiz-adv-x="282" 
d="M44 -61.5q-22 -26.5 -22 -49.5q0 -27 32 -27q22 0 39 7l-14 -56q-23 -7 -52 -7q-44 0 -66 18.5t-22 52.5q0 32 25.5 61t80.5 62h-13l177 712h92l-177 -712q-58 -35 -80 -61.5z" />
    <glyph glyph-name="iogonek" unicode="&#x12f;" horiz-adv-x="244" 
d="M256 613h-88l24 99h88zM229 508l-126 -508q-58 -35 -80 -61.5t-22 -49.5q0 -27 32 -27q22 0 39 7l-14 -56q-23 -7 -52 -7q-44 0 -66 18.5t-22 52.5q0 32 25.5 61t80.5 62h-9l126 508h88z" />
    <glyph glyph-name="Idotaccent" unicode="&#x130;" horiz-adv-x="282" 
d="M32 0l177 712h92l-177 -712h-92zM227 775l25 99h88l-25 -99h-88z" />
    <glyph glyph-name="dotlessi" unicode="&#x131;" horiz-adv-x="244" 
d="M15 0l126 508h88l-126 -508h-88z" />
    <glyph glyph-name="IJ" unicode="&#x132;" horiz-adv-x="637" 
d="M32 0l177 712h92l-177 -712h-92zM293 -5q-37 0 -58 9l19 79q20 -5 38 -5q61 0 98.5 33t56.5 111l123 490h92l-130 -521q-48 -196 -239 -196z" />
    <glyph glyph-name="ij" unicode="&#x133;" horiz-adv-x="493" 
d="M168 613l24 99h88l-24 -99h-88zM417 613l24 99h88l-24 -99h-88zM15 0l126 508h88l-126 -508h-88zM169 -189q-32 0 -56 7l17 68q14 -3 27 -3q40 0 64.5 23t38.5 79l130 523h88l-137 -548q-37 -149 -172 -149z" />
    <glyph glyph-name="Jcircumflex" unicode="&#x134;" horiz-adv-x="356" 
d="M11 -5q-37 0 -58 9l19 79q20 -5 38 -5q61 0 98.5 33t56.5 111l123 490h92l-130 -521q-48 -196 -239 -196zM429 898l79 -138h-79l-52 89l-96 -89h-98l149 138h97z" />
    <glyph glyph-name="jcircumflex" unicode="&#x135;" horiz-adv-x="249" 
d="M-75 -189q-32 0 -56 7l17 68q13 -3 27 -3q40 0 64.5 23t38.5 79l130 523h88l-137 -548q-37 -149 -172 -149zM276 570l-39 93l-86 -93h-93l135 142h96l64 -142h-77z" />
    <glyph glyph-name="Kcommaaccent" unicode="&#x136;" horiz-adv-x="625" 
d="M558 0h-112l-231 357h-2l-89 -357h-92l177 712h92l-78 -314h2l354 314h127l-395 -345zM189 -257h-38l64 103h-33l21 89h89l-22 -89z" />
    <glyph glyph-name="kcommaaccent" unicode="&#x137;" horiz-adv-x="500" 
d="M446 0h-103l-174 259h-2l-64 -259h-88l177 712h88l-102 -410h2l244 206h121l-286 -237zM146 -257h-38l64 103h-33l21 89h89l-22 -89z" />
    <glyph glyph-name="kgreenlandic" unicode="&#x138;" horiz-adv-x="517" 
d="M446 0h-103l-174 259h-2l-64 -259h-88l126 508h88l-51 -206h2l244 206h121l-286 -237z" />
    <glyph glyph-name="Lacute" unicode="&#x139;" horiz-adv-x="561" 
d="M507 82l-19 -82h-456l177 712h92l-157 -630h363zM232 760l116 138h118l-153 -138h-81z" />
    <glyph glyph-name="lacute" unicode="&#x13a;" horiz-adv-x="244" 
d="M15 0l177 712h88l-177 -712h-88zM205 773l116 143h118l-153 -143h-81z" />
    <glyph glyph-name="Lcommaaccent" unicode="&#x13b;" horiz-adv-x="561" 
d="M507 82l-19 -82h-456l177 712h92l-157 -630h363zM184 -257h-38l64 103h-33l21 89h89l-22 -89z" />
    <glyph glyph-name="lcommaaccent" unicode="&#x13c;" horiz-adv-x="244" 
d="M15 0l177 712h88l-177 -712h-88zM-11 -257h-38l64 103h-33l21 89h89l-22 -89z" />
    <glyph glyph-name="Lcaron" unicode="&#x13d;" horiz-adv-x="561" 
d="M507 82l-19 -82h-456l177 712h92l-157 -630h363zM306 494l83 218h80l-109 -218h-54z" />
    <glyph glyph-name="lcaron" unicode="&#x13e;" horiz-adv-x="244" 
d="M15 0l177 712h88l-177 -712h-88zM272 536l73 176h79l-98 -176h-54z" />
    <glyph glyph-name="Ldot" unicode="&#x13f;" horiz-adv-x="641" 
d="M507 82l-19 -82h-456l177 712h92l-157 -630h363zM429 354l29 117h108l-29 -117h-108z" />
    <glyph glyph-name="ldot" unicode="&#x140;" horiz-adv-x="406" 
d="M15 0l177 712h88l-177 -712h-88zM281 297l29 117h108l-29 -117h-108z" />
    <glyph glyph-name="Lslash" unicode="&#x141;" horiz-adv-x="561" 
d="M488 0h-456l75 300l-92 -47l23 91l91 48l80 320h92l-68 -273l170 88l-23 -92l-170 -88l-66 -265h363z" />
    <glyph glyph-name="lslash" unicode="&#x142;" horiz-adv-x="285" 
d="M217 373l-93 -373h-88l82 330l-102 -52l22 88l102 52l73 294h88l-62 -251l101 53l-22 -88z" />
    <glyph glyph-name="Nacute" unicode="&#x143;" horiz-adv-x="755" 
d="M470 0l-97 307q-56 180 -98 319h-2q-50 -218 -81 -341l-70 -285h-90l177 712h127l97 -307q45 -141 87 -282l11 -37h2q49 214 80 341l72 285h90l-177 -712h-128zM437 760l116 138h118l-153 -138h-81z" />
    <glyph glyph-name="nacute" unicode="&#x144;" 
d="M484.5 481.5q39.5 -37.5 39.5 -109.5q0 -35 -10 -75l-74 -297h-88l73 297q9 38 9 64q0 43 -22.5 64.5t-65.5 21.5q-56 0 -103.5 -41t-66.5 -115l-73 -291h-88l127 508h85l-16 -60h2q32 33 74 52t87 19q71 0 110.5 -37.5zM303 569l116 143h118l-153 -143h-81z" />
    <glyph glyph-name="Ncommaaccent" unicode="&#x145;" horiz-adv-x="755" 
d="M470 0l-97 307q-56 180 -98 319h-2q-50 -218 -81 -341l-70 -285h-90l177 712h127l97 -307q45 -141 87 -282l11 -37h2q49 214 80 341l72 285h90l-177 -712h-128zM240 -257h-38l64 103h-33l21 89h89l-22 -89z" />
    <glyph glyph-name="ncommaaccent" unicode="&#x146;" 
d="M484.5 481.5q39.5 -37.5 39.5 -109.5q0 -35 -10 -75l-74 -297h-88l73 297q9 38 9 64q0 43 -22.5 64.5t-65.5 21.5q-56 0 -103.5 -41t-66.5 -115l-73 -291h-88l127 508h85l-16 -60h2q32 33 74 52t87 19q71 0 110.5 -37.5zM152 -257h-38l64 103h-33l21 89h89l-22 -89z" />
    <glyph glyph-name="Ncaron" unicode="&#x147;" horiz-adv-x="755" 
d="M470 0l-97 307q-56 180 -98 319h-2q-50 -218 -81 -341l-70 -285h-90l177 712h127l97 -307q45 -141 87 -282l11 -37h2q49 214 80 341l72 285h90l-177 -712h-128zM455 760l-79 138h79l52 -88l96 88h98l-149 -138h-97z" />
    <glyph glyph-name="ncaron" unicode="&#x148;" 
d="M484.5 481.5q39.5 -37.5 39.5 -109.5q0 -35 -10 -75l-74 -297h-88l73 297q9 38 9 64q0 43 -22.5 64.5t-65.5 21.5q-56 0 -103.5 -41t-66.5 -115l-73 -291h-88l127 508h85l-16 -60h2q32 33 74 52t87 19q71 0 110.5 -37.5zM320 569l-79 143h81l52 -93l96 93h96l-149 -143
h-97z" />
    <glyph glyph-name="napostrophe" unicode="&#x149;" horiz-adv-x="694" 
d="M175 470h-53l69 134h-34l26 108h100l-27 -108zM603.5 481.5q39.5 -37.5 39.5 -109.5q0 -35 -10 -75l-74 -297h-88l73 297q9 38 9 64q0 43 -22.5 64.5t-65.5 21.5q-56 0 -103.5 -41t-66.5 -115l-73 -291h-88l127 508h85l-16 -60h2q32 33 74 52t87 19q71 0 110.5 -37.5z
" />
    <glyph glyph-name="Eng" unicode="&#x14a;" horiz-adv-x="744" 
d="M575 -42q-37 -148 -177 -148q-31 0 -52 7l16 68q15 -3 30 -3q38 0 62 21.5t36 72.5l7 25l-122 327q-40 107 -102 287h-2q-23 -105 -75 -315l-74 -300h-90l177 712h117l104 -285q35 -95 103 -287h2q34 153 74 315l64 257h91z" />
    <glyph glyph-name="eng" unicode="&#x14b;" 
d="M484.5 481.5q39.5 -37.5 39.5 -109.5q0 -35 -10 -75l-85 -337q-19 -78 -64 -113.5t-108 -35.5q-33 0 -57 7l17 68q15 -3 28 -3q40 0 64 23t38 79l78 312q9 38 9 64q0 43 -22.5 64.5t-65.5 21.5q-56 0 -103.5 -41t-66.5 -115l-73 -291h-88l127 508h85l-16 -60h2
q32 33 74 52t87 19q71 0 110.5 -37.5z" />
    <glyph glyph-name="Omacron" unicode="&#x14c;" horiz-adv-x="732" 
d="M591.5 689q61.5 -37 94 -103.5t32.5 -154.5q0 -105 -45.5 -208t-131.5 -170t-203 -67q-86 0 -147.5 37t-93.5 103.5t-32 154.5q0 105 45 208t131 170t203 67q86 0 147.5 -37zM290.5 587q-64.5 -55 -98.5 -139t-34 -167q0 -96 48.5 -153.5t134.5 -57.5t150.5 55
t98.5 138.5t34 166.5q0 97 -48.5 154.5t-134.5 57.5t-150.5 -55zM334 788l15 65h284l-15 -65h-284z" />
    <glyph glyph-name="omacron" unicode="&#x14d;" horiz-adv-x="565" 
d="M473 466q53 -56 53 -158q0 -75 -33 -149.5t-97.5 -123.5t-153.5 -49q-98 0 -150.5 56t-52.5 158q0 75 32.5 149.5t96.5 123.5t153 49q99 0 152 -56zM213.5 410.5q-41.5 -39.5 -63 -97.5t-21.5 -113q0 -68 30.5 -105t89.5 -37t101.5 39.5t64 97.5t21.5 113q0 68 -31 105
t-91 37q-59 0 -100.5 -39.5zM211 616l15 64h285l-16 -64h-284z" />
    <glyph glyph-name="Obreve" unicode="&#x14e;" horiz-adv-x="732" 
d="M591.5 689q61.5 -37 94 -103.5t32.5 -154.5q0 -105 -45.5 -208t-131.5 -170t-203 -67q-86 0 -147.5 37t-93.5 103.5t-32 154.5q0 105 45 208t131 170t203 67q86 0 147.5 -37zM290.5 587q-64.5 -55 -98.5 -139t-34 -167q0 -96 48.5 -153.5t134.5 -57.5t150.5 55
t98.5 138.5t34 166.5q0 97 -48.5 154.5t-134.5 57.5t-150.5 -55zM591 793q-48 -37 -117 -37q-62 0 -95.5 30.5t-33.5 86.5q0 16 2 25h59q-1 -5 -1 -14q0 -32 18.5 -49t52.5 -17q40 0 68.5 21t41.5 59h72q-19 -68 -67 -105z" />
    <glyph glyph-name="obreve" unicode="&#x14f;" horiz-adv-x="565" 
d="M473 466q53 -56 53 -158q0 -75 -33 -149.5t-97.5 -123.5t-153.5 -49q-98 0 -150.5 56t-52.5 158q0 75 32.5 149.5t96.5 123.5t153 49q99 0 152 -56zM213.5 410.5q-41.5 -39.5 -63 -97.5t-21.5 -113q0 -68 30.5 -105t89.5 -37t101.5 39.5t64 97.5t21.5 113q0 68 -31 105
t-91 37q-59 0 -100.5 -39.5zM464.5 606.5q-48.5 -37.5 -116.5 -37.5q-63 0 -96 30.5t-33 87.5q0 16 2 25h59q-1 -5 -1 -15q0 -32 18 -49t53 -17q40 0 68.5 21t41.5 60h72q-19 -68 -67.5 -105.5z" />
    <glyph glyph-name="Ohungarumlaut" unicode="&#x150;" horiz-adv-x="732" 
d="M591.5 689q61.5 -37 94 -103.5t32.5 -154.5q0 -105 -45.5 -208t-131.5 -170t-203 -67q-86 0 -147.5 37t-93.5 103.5t-32 154.5q0 105 45 208t131 170t203 67q86 0 147.5 -37zM290.5 587q-64.5 -55 -98.5 -139t-34 -167q0 -96 48.5 -153.5t134.5 -57.5t150.5 55
t98.5 138.5t34 166.5q0 97 -48.5 154.5t-134.5 57.5t-150.5 -55zM320 756l138 142h109l-168 -142h-79zM480 756l138 142h109l-168 -142h-79z" />
    <glyph glyph-name="ohungarumlaut" unicode="&#x151;" horiz-adv-x="565" 
d="M473 466q53 -56 53 -158q0 -75 -33 -149.5t-97.5 -123.5t-153.5 -49q-98 0 -150.5 56t-52.5 158q0 75 32.5 149.5t96.5 123.5t153 49q99 0 152 -56zM213.5 410.5q-41.5 -39.5 -63 -97.5t-21.5 -113q0 -68 30.5 -105t89.5 -37t101.5 39.5t64 97.5t21.5 113q0 68 -31 105
t-91 37q-59 0 -100.5 -39.5zM203 569l136 143h109l-166 -143h-79zM363 569l136 143h109l-166 -143h-79z" />
    <glyph glyph-name="OE" unicode="&#x152;" horiz-adv-x="999" 
d="M662 630l-56 -225h347l-21 -81h-346l-61 -242h378l-20 -82h-511q-150 0 -227 78t-77 226q0 99 46 192.5t142 154.5t236 61h557l-20 -82h-367zM305 581q-73 -49 -107 -122.5t-34 -148.5q0 -112 54 -170t161 -58h54l137 548h-82q-110 0 -183 -49z" />
    <glyph glyph-name="oe" unicode="&#x153;" horiz-adv-x="897" 
d="M486 181q0 -63 29.5 -95t79.5 -32q48 0 85 27t56 71h90q-28 -71 -91 -118.5t-146 -47.5q-61 0 -102 27.5t-60 78.5q-36 -49 -86.5 -77.5t-113.5 -28.5q-91 0 -140 55.5t-49 155.5q0 75 32.5 150.5t95 125t148.5 49.5q63 0 106 -29t63 -83q36 52 87 82t114 30
q89 0 135 -50.5t46 -140.5q0 -42 -13 -95h-360q-6 -30 -6 -55zM574 414.5q-45 -39.5 -66 -111.5h273q3 18 3 35q0 57 -28.5 86.5t-80.5 29.5q-56 0 -101 -39.5zM337.5 98q41.5 40 62.5 99t21 114q0 66 -27.5 102.5t-81.5 36.5q-58 0 -99.5 -40t-63 -99t-21.5 -114
q0 -66 28.5 -102.5t82.5 -36.5q57 0 98.5 40z" />
    <glyph glyph-name="Racute" unicode="&#x154;" horiz-adv-x="640" 
d="M584.5 668.5q52.5 -43.5 52.5 -125.5q0 -44 -21.5 -87.5t-62.5 -76.5t-98 -44v-2q31 -11 47 -40.5t25 -93.5l25 -199h-94l-21 188q-7 64 -31.5 88t-82.5 24h-124l-75 -300h-92l177 712h216q107 0 159.5 -43.5zM218 378h143q62 0 102.5 23t58.5 56.5t18 66.5
q0 109 -128 109h-131zM355 760l116 138h118l-153 -138h-81z" />
    <glyph glyph-name="racute" unicode="&#x155;" horiz-adv-x="362" 
d="M415 509l-20 -79q-33 3 -35 3q-72 0 -122 -45t-71 -129l-64 -259h-88l126 508h84l-18 -71h2q73 76 169 76q22 0 37 -4zM219 569l116 143h118l-153 -143h-81z" />
    <glyph glyph-name="Rcommaaccent" unicode="&#x156;" horiz-adv-x="640" 
d="M584.5 668.5q52.5 -43.5 52.5 -125.5q0 -44 -21.5 -87.5t-62.5 -76.5t-98 -44v-2q31 -11 47 -40.5t25 -93.5l25 -199h-94l-21 188q-7 64 -31.5 88t-82.5 24h-124l-75 -300h-92l177 712h216q107 0 159.5 -43.5zM218 378h143q62 0 102.5 23t58.5 56.5t18 66.5
q0 109 -128 109h-131zM214 -257h-38l64 103h-33l21 89h89l-22 -89z" />
    <glyph glyph-name="rcommaaccent" unicode="&#x157;" horiz-adv-x="362" 
d="M415 509l-20 -79q-33 3 -35 3q-72 0 -122 -45t-71 -129l-64 -259h-88l126 508h84l-18 -71h2q73 76 169 76q22 0 37 -4zM-11 -257h-38l64 103h-33l21 89h89l-22 -89z" />
    <glyph glyph-name="Rcaron" unicode="&#x158;" horiz-adv-x="640" 
d="M584.5 668.5q52.5 -43.5 52.5 -125.5q0 -44 -21.5 -87.5t-62.5 -76.5t-98 -44v-2q31 -11 47 -40.5t25 -93.5l25 -199h-94l-21 188q-7 64 -31.5 88t-82.5 24h-124l-75 -300h-92l177 712h216q107 0 159.5 -43.5zM218 378h143q62 0 102.5 23t58.5 56.5t18 66.5
q0 109 -128 109h-131zM373 760l-79 138h79l52 -88l96 88h98l-149 -138h-97z" />
    <glyph glyph-name="rcaron" unicode="&#x159;" horiz-adv-x="362" 
d="M415 509l-20 -79q-33 3 -35 3q-72 0 -122 -45t-71 -129l-64 -259h-88l126 508h84l-18 -71h2q73 76 169 76q22 0 37 -4zM237 569l-79 143h81l52 -93l96 93h96l-149 -143h-97z" />
    <glyph glyph-name="Sacute" unicode="&#x15a;" horiz-adv-x="609" 
d="M610 548q0 -28 -7 -56h-93q5 27 5 43q0 56 -36 84t-104 28q-51 0 -86.5 -18t-53.5 -45.5t-18 -57.5q0 -46 32 -70.5t108 -49.5q62 -21 100.5 -42.5t62.5 -58.5t24 -96q0 -53 -32.5 -104.5t-96.5 -85t-153 -33.5q-113 0 -173.5 48.5t-60.5 140.5q0 30 7 61h94
q-6 -28 -6 -51q0 -60 38 -90t110 -30q60 0 100 20.5t58 51t18 61.5q0 34 -16 55.5t-44.5 36.5t-79.5 33q-63 22 -101 42.5t-61 56.5t-23 93q0 49 30 98t89.5 81t142.5 32q226 0 226 -178zM331 760l116 138h118l-153 -138h-81z" />
    <glyph glyph-name="sacute" unicode="&#x15b;" horiz-adv-x="494" 
d="M419 487.5q45 -34.5 45 -99.5q0 -22 -4 -39h-85q3 27 3 31q0 36 -25.5 55t-73.5 19q-50 0 -79 -21t-29 -57q0 -22 10 -35t29.5 -21.5t61.5 -22.5q51 -17 80.5 -31t50 -42t20.5 -75q0 -42 -24.5 -79t-74 -60.5t-120.5 -23.5q-91 0 -141 36t-50 105q0 26 5 42h89
q-4 -15 -4 -34q0 -38 27.5 -58.5t80.5 -20.5q58 0 89 22.5t31 62.5q0 34 -25 51t-90 38q-46 15 -71.5 27.5t-43.5 38.5t-18 71q0 40 23.5 75.5t70 57.5t110.5 22q87 0 132 -34.5zM241 569l116 143h118l-153 -143h-81z" />
    <glyph glyph-name="Scircumflex" unicode="&#x15c;" horiz-adv-x="609" 
d="M610 548q0 -28 -7 -56h-93q5 27 5 43q0 56 -36 84t-104 28q-51 0 -86.5 -18t-53.5 -45.5t-18 -57.5q0 -46 32 -70.5t108 -49.5q62 -21 100.5 -42.5t62.5 -58.5t24 -96q0 -53 -32.5 -104.5t-96.5 -85t-153 -33.5q-113 0 -173.5 48.5t-60.5 140.5q0 30 7 61h94
q-6 -28 -6 -51q0 -60 38 -90t110 -30q60 0 100 20.5t58 51t18 61.5q0 34 -16 55.5t-44.5 36.5t-79.5 33q-63 22 -101 42.5t-61 56.5t-23 93q0 49 30 98t89.5 81t142.5 32q226 0 226 -178zM481 898l79 -138h-79l-52 89l-96 -89h-98l149 138h97z" />
    <glyph glyph-name="scircumflex" unicode="&#x15d;" horiz-adv-x="494" 
d="M419 487.5q45 -34.5 45 -99.5q0 -22 -4 -39h-85q3 27 3 31q0 36 -25.5 55t-73.5 19q-50 0 -79 -21t-29 -57q0 -22 10 -35t29.5 -21.5t61.5 -22.5q51 -17 80.5 -31t50 -42t20.5 -75q0 -42 -24.5 -79t-74 -60.5t-120.5 -23.5q-91 0 -141 36t-50 105q0 26 5 42h89
q-4 -15 -4 -34q0 -38 27.5 -58.5t80.5 -20.5q58 0 89 22.5t31 62.5q0 34 -25 51t-90 38q-46 15 -71.5 27.5t-43.5 38.5t-18 71q0 40 23.5 75.5t70 57.5t110.5 22q87 0 132 -34.5zM389 569l-52 93l-96 -93h-96l149 143h97l79 -143h-81z" />
    <glyph glyph-name="Scedilla" unicode="&#x15e;" horiz-adv-x="609" 
d="M515 535q0 56 -36 84t-104 28q-51 0 -86.5 -18t-53.5 -45.5t-18 -57.5q0 -46 32 -70.5t108 -49.5q62 -21 100.5 -42.5t62.5 -58.5t24 -96q0 -50 -29 -99.5t-86.5 -83.5t-138.5 -39l-44 -49q8 2 19 2q29 0 47 -17.5t18 -49.5q0 -39 -36.5 -66t-91.5 -27q-57 0 -99 27
l21 37q35 -21 76 -21q30 0 48 13t18 34q0 17 -11 26.5t-31 9.5q-18 0 -33 -6l-17 16l65 71q-102 5 -156.5 53t-54.5 135q0 30 7 61h94q-6 -28 -6 -51q0 -60 38 -90t110 -30q60 0 100 20.5t58 51t18 61.5q0 34 -16 55.5t-44.5 36.5t-79.5 33q-63 22 -101 42.5t-61 56.5
t-23 93q0 49 30 98t89.5 81t142.5 32q226 0 226 -178q0 -28 -7 -56h-93q5 27 5 43z" />
    <glyph glyph-name="scedilla" unicode="&#x15f;" horiz-adv-x="494" 
d="M378 380q0 36 -25.5 55t-73.5 19q-50 0 -79 -21t-29 -57q0 -22 10 -35t29.5 -21.5t61.5 -22.5q51 -17 80.5 -31t50 -42t20.5 -75q0 -39 -21.5 -74t-64.5 -59t-105 -29l-44 -49q8 2 19 2q29 0 47 -17.5t18 -49.5q0 -39 -36.5 -66t-91.5 -27q-57 0 -99 27l21 37
q35 -21 76 -21q30 0 48 13t18 34q0 17 -11 26.5t-31 9.5q-18 0 -33 -6l-17 16l65 71q-81 5 -124.5 40.5t-43.5 99.5q0 26 5 42h89q-4 -15 -4 -34q0 -38 27.5 -58.5t80.5 -20.5q58 0 89 22.5t31 62.5q0 34 -25 51t-90 38q-46 15 -71.5 27.5t-43.5 38.5t-18 71q0 40 23.5 75.5
t70 57.5t110.5 22q87 0 132 -34.5t45 -99.5q0 -22 -4 -39h-85q3 27 3 31z" />
    <glyph glyph-name="Scaron" unicode="&#x160;" horiz-adv-x="609" 
d="M610 548q0 -28 -7 -56h-93q5 27 5 43q0 56 -36 84t-104 28q-51 0 -86.5 -18t-53.5 -45.5t-18 -57.5q0 -46 32 -70.5t108 -49.5q62 -21 100.5 -42.5t62.5 -58.5t24 -96q0 -53 -32.5 -104.5t-96.5 -85t-153 -33.5q-113 0 -173.5 48.5t-60.5 140.5q0 30 7 61h94
q-6 -28 -6 -51q0 -60 38 -90t110 -30q60 0 100 20.5t58 51t18 61.5q0 34 -16 55.5t-44.5 36.5t-79.5 33q-63 22 -101 42.5t-61 56.5t-23 93q0 49 30 98t89.5 81t142.5 32q226 0 226 -178zM349 760l-79 138h79l52 -88l96 88h98l-149 -138h-97z" />
    <glyph glyph-name="scaron" unicode="&#x161;" horiz-adv-x="494" 
d="M419 487.5q45 -34.5 45 -99.5q0 -22 -4 -39h-85q3 27 3 31q0 36 -25.5 55t-73.5 19q-50 0 -79 -21t-29 -57q0 -22 10 -35t29.5 -21.5t61.5 -22.5q51 -17 80.5 -31t50 -42t20.5 -75q0 -42 -24.5 -79t-74 -60.5t-120.5 -23.5q-91 0 -141 36t-50 105q0 26 5 42h89
q-4 -15 -4 -34q0 -38 27.5 -58.5t80.5 -20.5q58 0 89 22.5t31 62.5q0 34 -25 51t-90 38q-46 15 -71.5 27.5t-43.5 38.5t-18 71q0 40 23.5 75.5t70 57.5t110.5 22q87 0 132 -34.5zM259 569l-79 143h81l52 -93l96 93h96l-149 -143h-97z" />
    <glyph glyph-name="uni0162" unicode="&#x162;" horiz-adv-x="599" 
d="M440 630l-157 -630h-93l157 630h-243l20 82h579l-20 -82h-243zM166 -257h-38l64 103h-33l21 89h89l-22 -89z" />
    <glyph glyph-name="uni0163" unicode="&#x163;" horiz-adv-x="320" 
d="M157 119q0 -26 13.5 -38t42.5 -12q17 0 35 4l-19 -72q-18 -5 -42 -5q-62 0 -91 25t-29 80q0 26 9 62l69 275h-89l18 70h88l31 123h88l-31 -123h101l-18 -70h-100l-70 -281q-6 -22 -6 -38zM153 -65l-22 -89l-81 -103h-38l64 103h-33l21 89h89z" />
    <glyph glyph-name="Tcaron" unicode="&#x164;" horiz-adv-x="599" 
d="M440 630l-157 -630h-93l157 630h-243l20 82h579l-20 -82h-243zM368 760l-79 138h79l52 -88l96 88h98l-149 -138h-97z" />
    <glyph glyph-name="tcaron" unicode="&#x165;" horiz-adv-x="320" 
d="M157 119q0 -26 13.5 -38t42.5 -12q17 0 35 4l-19 -72q-18 -5 -42 -5q-62 0 -91 25t-29 80q0 26 9 62l69 275h-89l18 70h88l31 123h88l-31 -123h101l-18 -70h-100l-70 -281q-6 -22 -6 -38zM291 536l73 176h79l-98 -176h-54z" />
    <glyph glyph-name="Tbar" unicode="&#x166;" horiz-adv-x="599" 
d="M385 409h141l-18 -72h-141l-84 -337h-93l84 337h-141l18 72h141l55 221h-243l20 82h579l-20 -82h-243z" />
    <glyph glyph-name="tbar" unicode="&#x167;" horiz-adv-x="318" 
d="M199 302h97l-14 -59h-98l-21 -86q-6 -22 -6 -38q0 -26 13.5 -38t42.5 -12q17 0 35 4l-19 -72q-18 -5 -42 -5q-62 0 -90.5 25t-28.5 80q0 31 9 62l20 80h-86l14 59h86l34 136h-89l18 70h89l30 123h88l-31 -123h101l-18 -70h-100z" />
    <glyph glyph-name="Utilde" unicode="&#x168;" horiz-adv-x="705" 
d="M502.5 48q-77.5 -62 -193.5 -62q-108 0 -165.5 55.5t-57.5 158.5q0 47 13 100l104 412h92l-107 -431q-11 -40 -11 -75q0 -67 36 -101.5t104 -34.5q77 0 130.5 46t76.5 136l114 460h93l-121 -483q-30 -119 -107.5 -181zM626.5 807q-32.5 -30 -74.5 -30q-23 0 -40 7.5
t-38 21.5q-20 12 -30.5 17t-24.5 5q-41 0 -58 -51h-60q15 54 47.5 84.5t74.5 30.5q23 0 40.5 -7.5t39.5 -21.5q31 -22 53 -22q42 0 61 51h58q-16 -55 -48.5 -85z" />
    <glyph glyph-name="utilde" unicode="&#x169;" 
d="M90.5 26.5q-39.5 37.5 -39.5 109.5q0 31 11 75l74 297h88l-74 -297q-8 -33 -8 -64q0 -43 22.5 -64.5t64.5 -21.5q57 0 104.5 41t66.5 115l73 291h88l-127 -508h-85l15 60h-2q-31 -33 -73 -52t-88 -19q-71 0 -110.5 37.5zM515 621q-32 -30 -74 -30q-23 0 -40 7.5t-38 21.5
q-18 11 -29 16.5t-25 5.5q-41 0 -58 -51h-60q15 54 47.5 84.5t74.5 30.5q23 0 40.5 -7.5t38.5 -21.5q17 -11 28.5 -16.5t24.5 -5.5q42 0 60 51h58q-16 -55 -48 -85z" />
    <glyph glyph-name="Umacron" unicode="&#x16a;" horiz-adv-x="705" 
d="M502.5 48q-77.5 -62 -193.5 -62q-108 0 -165.5 55.5t-57.5 158.5q0 47 13 100l104 412h92l-107 -431q-11 -40 -11 -75q0 -67 36 -101.5t104 -34.5q77 0 130.5 46t76.5 136l114 460h93l-121 -483q-30 -119 -107.5 -181zM334 788l15 65h284l-15 -65h-284z" />
    <glyph glyph-name="umacron" unicode="&#x16b;" 
d="M90.5 26.5q-39.5 37.5 -39.5 109.5q0 31 11 75l74 297h88l-74 -297q-8 -33 -8 -64q0 -43 22.5 -64.5t64.5 -21.5q57 0 104.5 41t66.5 115l73 291h88l-127 -508h-85l15 60h-2q-31 -33 -73 -52t-88 -19q-71 0 -110.5 37.5zM226 616l15 64h285l-16 -64h-284z" />
    <glyph glyph-name="Ubreve" unicode="&#x16c;" horiz-adv-x="705" 
d="M502.5 48q-77.5 -62 -193.5 -62q-108 0 -165.5 55.5t-57.5 158.5q0 47 13 100l104 412h92l-107 -431q-11 -40 -11 -75q0 -67 36 -101.5t104 -34.5q77 0 130.5 46t76.5 136l114 460h93l-121 -483q-30 -119 -107.5 -181zM592 793q-48 -37 -117 -37q-62 0 -95.5 30.5
t-33.5 86.5q0 16 2 25h59q-1 -5 -1 -14q0 -32 18.5 -49t52.5 -17q40 0 68.5 21t41.5 59h72q-19 -68 -67 -105z" />
    <glyph glyph-name="ubreve" unicode="&#x16d;" 
d="M90.5 26.5q-39.5 37.5 -39.5 109.5q0 31 11 75l74 297h88l-74 -297q-8 -33 -8 -64q0 -43 22.5 -64.5t64.5 -21.5q57 0 104.5 41t66.5 115l73 291h88l-127 -508h-85l15 60h-2q-31 -33 -73 -52t-88 -19q-71 0 -110.5 37.5zM480.5 606.5q-48.5 -37.5 -116.5 -37.5
q-63 0 -96 30.5t-33 87.5q0 16 2 25h59q-1 -5 -1 -15q0 -32 18 -49t53 -17q40 0 68.5 21t41.5 60h72q-19 -68 -67.5 -105.5z" />
    <glyph glyph-name="Uring" unicode="&#x16e;" horiz-adv-x="705" 
d="M502.5 48q-77.5 -62 -193.5 -62q-108 0 -165.5 55.5t-57.5 158.5q0 47 13 100l104 412h92l-107 -431q-11 -40 -11 -75q0 -67 36 -101.5t104 -34.5q77 0 130.5 46t76.5 136l114 460h93l-121 -483q-30 -119 -107.5 -181zM552.5 923.5q29.5 -29.5 29.5 -71.5
q0 -41 -29.5 -70.5t-71.5 -29.5q-41 0 -70.5 29.5t-29.5 70.5q0 42 29.5 71.5t70.5 29.5q42 0 71.5 -29.5zM440 893q-17 -17 -17 -41t17 -40.5t41 -16.5q25 0 41.5 16.5t16.5 40.5t-16.5 41t-41.5 17q-24 0 -41 -17z" />
    <glyph glyph-name="uring" unicode="&#x16f;" 
d="M90.5 26.5q-39.5 37.5 -39.5 109.5q0 31 11 75l74 297h88l-74 -297q-8 -33 -8 -64q0 -43 22.5 -64.5t64.5 -21.5q57 0 104.5 41t66.5 115l73 291h88l-127 -508h-85l15 60h-2q-31 -33 -73 -52t-88 -19q-71 0 -110.5 37.5zM441.5 736.5q29.5 -29.5 29.5 -70.5
q0 -42 -29.5 -71.5t-71.5 -29.5q-41 0 -70.5 29.5t-29.5 71.5q0 41 29.5 70.5t70.5 29.5q42 0 71.5 -29.5zM330 707q-17 -17 -17 -41t17 -41t40 -17q25 0 41.5 16.5t16.5 41.5q0 24 -16.5 41t-41.5 17q-23 0 -40 -17z" />
    <glyph glyph-name="Uhungarumlaut" unicode="&#x170;" horiz-adv-x="705" 
d="M502.5 48q-77.5 -62 -193.5 -62q-108 0 -165.5 55.5t-57.5 158.5q0 47 13 100l104 412h92l-107 -431q-11 -40 -11 -75q0 -67 36 -101.5t104 -34.5q77 0 130.5 46t76.5 136l114 460h93l-121 -483q-30 -119 -107.5 -181zM321 756l138 142h109l-168 -142h-79zM481 756
l138 142h109l-168 -142h-79z" />
    <glyph glyph-name="uhungarumlaut" unicode="&#x171;" 
d="M90.5 26.5q-39.5 37.5 -39.5 109.5q0 31 11 75l74 297h88l-74 -297q-8 -33 -8 -64q0 -43 22.5 -64.5t64.5 -21.5q57 0 104.5 41t66.5 115l73 291h88l-127 -508h-85l15 60h-2q-31 -33 -73 -52t-88 -19q-71 0 -110.5 37.5zM219 569l136 143h109l-166 -143h-79zM379 569
l136 143h109l-166 -143h-79z" />
    <glyph glyph-name="Uogonek" unicode="&#x172;" horiz-adv-x="705" 
d="M481 32q-82 -54 -111.5 -85.5t-29.5 -57.5q0 -27 32 -27q22 0 40 7l-14 -56q-24 -7 -52 -7q-44 0 -66 18.5t-22 52.5q0 29 19.5 55t62.5 54v2q-10 -2 -31 -2q-110 0 -166.5 54t-56.5 160q0 47 13 100l104 412h92l-107 -431q-11 -40 -11 -75q0 -67 36 -101.5t104 -34.5
q78 0 131.5 47.5t76.5 139.5l113 455h93l-119 -478q-35 -137 -131 -202z" />
    <glyph glyph-name="uogonek" unicode="&#x173;" 
d="M354 -61.5q-22 -26.5 -22 -49.5q0 -27 32 -27q22 0 39 7l-14 -56q-23 -7 -52 -7q-44 0 -66 18.5t-22 52.5q0 32 25.5 61t80.5 62h-6l15 60h-2q-31 -33 -73 -52t-88 -19q-71 0 -110.5 37.5t-39.5 109.5q0 31 11 75l74 297h88l-74 -297q-8 -33 -8 -64q0 -43 22.5 -64.5
t64.5 -21.5q57 0 104.5 41t66.5 115l73 291h88l-127 -508q-58 -35 -80 -61.5z" />
    <glyph glyph-name="Wcircumflex" unicode="&#x174;" horiz-adv-x="916" 
d="M545 0l2 311q0 107 6 319h-2q-62 -132 -154 -319l-152 -311h-132l11 712h88l-5 -288q-3 -169 -9 -335h2q62 133 162 336l141 287h129l-2 -287q0 -114 -4 -336h2q51 111 157 335l138 288h97l-343 -712h-132zM663 898l79 -138h-79l-52 89l-96 -89h-98l149 138h97z" />
    <glyph glyph-name="wcircumflex" unicode="&#x175;" horiz-adv-x="770" 
d="M439 0l-5 220l-3 220h-2q-72 -147 -109 -220l-115 -220h-126l-9 508h85l1 -212q1 -37 1 -114q0 -76 -1 -114h2l21 43q59 119 90 180l111 217h127l4 -217q1 -52 1 -158v-65h2l16 34q41 87 95 194l107 212h94l-261 -508h-126zM541 569l-52 93l-96 -93h-96l149 143h97
l79 -143h-81z" />
    <glyph glyph-name="Ycircumflex" unicode="&#x176;" horiz-adv-x="614" 
d="M290 0h-92l73 295l-153 417h96l51 -147q39 -116 61 -188h2q74 92 155 188l124 147h117l-360 -417zM495 898l79 -138h-79l-52 89l-96 -89h-98l149 138h97z" />
    <glyph glyph-name="ycircumflex" unicode="&#x177;" horiz-adv-x="472" 
d="M131.5 -124.5q-35.5 -35.5 -75 -50t-94.5 -14.5q-32 0 -52 7l18 72q16 -6 40 -6q34 0 58.5 10t46.5 34t51 70l-67 510h88l47 -404h2l247 404h100l-333 -531q-41 -66 -76.5 -101.5zM377 569l-52 93l-96 -93h-96l149 143h97l79 -143h-81z" />
    <glyph glyph-name="Ydieresis" unicode="&#x178;" horiz-adv-x="614" 
d="M290 0h-92l73 295l-153 417h96l51 -147q39 -116 61 -188h2q74 92 155 188l124 147h117l-360 -417zM277 775l25 99h82l-25 -99h-82zM472 775l25 99h82l-25 -99h-82z" />
    <glyph glyph-name="Zacute" unicode="&#x179;" horiz-adv-x="566" 
d="M89 83v-2h415l-19 -81h-530l23 94l531 535v2h-386l20 81h500l-24 -94zM328 760l116 138h118l-153 -138h-81z" />
    <glyph glyph-name="zacute" unicode="&#x17a;" horiz-adv-x="469" 
d="M94 74v-2h303l-17 -72h-417l20 81l382 353v2h-283l18 72h397l-20 -81zM228 569l116 143h118l-153 -143h-81z" />
    <glyph glyph-name="Zdotaccent" unicode="&#x17b;" horiz-adv-x="566" 
d="M89 83v-2h415l-19 -81h-530l23 94l531 535v2h-386l20 81h500l-24 -94zM355 775l25 99h88l-25 -99h-88z" />
    <glyph glyph-name="zdotaccent" unicode="&#x17c;" horiz-adv-x="469" 
d="M94 74v-2h303l-17 -72h-417l20 81l382 353v2h-283l18 72h397l-20 -81zM261 613l24 99h88l-24 -99h-88z" />
    <glyph glyph-name="Zcaron" unicode="&#x17d;" horiz-adv-x="566" 
d="M89 83v-2h415l-19 -81h-530l23 94l531 535v2h-386l20 81h500l-24 -94zM346 760l-79 138h79l52 -88l96 88h98l-149 -138h-97z" />
    <glyph glyph-name="zcaron" unicode="&#x17e;" horiz-adv-x="469" 
d="M94 74v-2h303l-17 -72h-417l20 81l382 353v2h-283l18 72h397l-20 -81zM246 569l-79 143h81l52 -93l96 93h96l-149 -143h-97z" />
    <glyph glyph-name="longs" unicode="&#x17f;" horiz-adv-x="305" 
d="M406 711l-16 -67q-10 3 -28 3q-38 0 -61.5 -21.5t-35.5 -70.5l-139 -555h-87l109 438h-89l17 70h90l17 70q35 139 168 139q29 0 55 -6z" />
    <glyph glyph-name="florin" unicode="&#x192;" horiz-adv-x="562" 
d="M655 711l-18 -71q-13 4 -39 4q-44 0 -74.5 -23.5t-58.5 -80.5l-36 -72h107l-17 -68h-123l-205 -407q-34 -68 -66.5 -107.5t-71 -57.5t-90.5 -18q-30 0 -50 7l18 73q17 -5 36 -5q41 0 70.5 24t64.5 94l199 397h-98l17 68h114l41 81q46 92 97 131t126 39q31 0 57 -8z" />
    <glyph glyph-name="Scommaaccent" unicode="&#x218;" horiz-adv-x="609" 
d="M610 548q0 -28 -7 -56h-93q5 27 5 43q0 56 -36 84t-104 28q-51 0 -86.5 -18t-53.5 -45.5t-18 -57.5q0 -46 32 -70.5t108 -49.5q62 -21 100.5 -42.5t62.5 -58.5t24 -96q0 -53 -32.5 -104.5t-96.5 -85t-153 -33.5q-113 0 -173.5 48.5t-60.5 140.5q0 30 7 61h94
q-6 -28 -6 -51q0 -60 38 -90t110 -30q60 0 100 20.5t58 51t18 61.5q0 34 -16 55.5t-44.5 36.5t-79.5 33q-63 22 -101 42.5t-61 56.5t-23 93q0 49 30 98t89.5 81t142.5 32q226 0 226 -178zM181 -257h-38l64 103h-33l21 89h89l-22 -89z" />
    <glyph glyph-name="scommaaccent" unicode="&#x219;" horiz-adv-x="494" 
d="M419 487.5q45 -34.5 45 -99.5q0 -22 -4 -39h-85q3 27 3 31q0 36 -25.5 55t-73.5 19q-50 0 -79 -21t-29 -57q0 -22 10 -35t29.5 -21.5t61.5 -22.5q51 -17 80.5 -31t50 -42t20.5 -75q0 -42 -24.5 -79t-74 -60.5t-120.5 -23.5q-91 0 -141 36t-50 105q0 26 5 42h89
q-4 -15 -4 -34q0 -38 27.5 -58.5t80.5 -20.5q58 0 89 22.5t31 62.5q0 34 -25 51t-90 38q-46 15 -71.5 27.5t-43.5 38.5t-18 71q0 40 23.5 75.5t70 57.5t110.5 22q87 0 132 -34.5zM123 -257h-38l64 103h-33l21 89h89l-22 -89z" />
    <glyph glyph-name="uni021A" unicode="&#x21a;" horiz-adv-x="599" 
d="M440 630l-157 -630h-93l157 630h-243l20 82h579l-20 -82h-243zM166 -257h-38l64 103h-33l21 89h89l-22 -89z" />
    <glyph glyph-name="uni021B" unicode="&#x21b;" horiz-adv-x="320" 
d="M157 119q0 -26 13.5 -38t42.5 -12q17 0 35 4l-19 -72q-18 -5 -42 -5q-62 0 -91 25t-29 80q0 26 9 62l69 275h-89l18 70h88l31 123h88l-31 -123h101l-18 -70h-100l-70 -281q-6 -22 -6 -38zM50 -257h-38l64 103h-33l21 89h89l-22 -89z" />
    <glyph glyph-name="dotlessj" unicode="&#x237;" horiz-adv-x="249" 
d="M-75 -189q-32 0 -56 7l17 68q13 -3 27 -3q40 0 64.5 23t38.5 79l130 523h88l-137 -548q-37 -149 -172 -149z" />
    <glyph glyph-name="uni02BC" unicode="&#x2bc;" horiz-adv-x="237" 
d="M175 470h-53l69 134h-34l26 108h100l-26 -108z" />
    <glyph glyph-name="circumflex" unicode="&#x2c6;" horiz-adv-x="425" 
d="M373 569l-52 93l-96 -93h-96l149 143h97l79 -143h-81z" />
    <glyph glyph-name="caron" unicode="&#x2c7;" horiz-adv-x="425" 
d="M243 569l-79 143h81l52 -93l96 93h96l-149 -143h-97z" />
    <glyph glyph-name="uni02C9" unicode="&#x2c9;" horiz-adv-x="385" 
d="M141 616l15 64h285l-16 -64h-284z" />
    <glyph glyph-name="breve" unicode="&#x2d8;" horiz-adv-x="411" 
d="M407.5 606.5q-48.5 -37.5 -116.5 -37.5q-63 0 -96 30.5t-33 87.5q0 16 2 25h59q-1 -5 -1 -15q0 -32 18 -49t53 -17q40 0 68.5 21t41.5 60h72q-19 -68 -67.5 -105.5z" />
    <glyph glyph-name="dotaccent" unicode="&#x2d9;" horiz-adv-x="189" 
d="M140 613l24 99h88l-24 -99h-88z" />
    <glyph glyph-name="ring" unicode="&#x2da;" horiz-adv-x="308" 
d="M327.5 736.5q29.5 -29.5 29.5 -70.5q0 -42 -29.5 -71.5t-71.5 -29.5q-41 0 -70.5 29.5t-29.5 71.5q0 41 29.5 70.5t70.5 29.5q42 0 71.5 -29.5zM216 707q-17 -17 -17 -41t17 -41t40 -17q25 0 41.5 16.5t16.5 41.5q0 24 -16.5 41t-41.5 17q-23 0 -40 -17z" />
    <glyph glyph-name="ogonek" unicode="&#x2db;" horiz-adv-x="259" 
d="M63 -61.5q-22 -26.5 -22 -49.5q0 -27 32 -27q22 0 39 7l-14 -56q-23 -7 -52 -7q-44 0 -66 18.5t-22 52.5q0 33 26 62.5t83 62.5l76 -2q-58 -35 -80 -61.5z" />
    <glyph glyph-name="tilde" unicode="&#x2dc;" horiz-adv-x="445" 
d="M459 621q-32 -30 -74 -30q-23 0 -40 7.5t-38 21.5q-18 11 -29 16.5t-25 5.5q-41 0 -58 -51h-60q15 54 47.5 84.5t74.5 30.5q23 0 40.5 -7.5t38.5 -21.5q17 -11 28.5 -16.5t24.5 -5.5q42 0 60 51h58q-16 -55 -48 -85z" />
    <glyph glyph-name="hungarumlaut" unicode="&#x2dd;" horiz-adv-x="470" 
d="M129 569l136 143h109l-166 -143h-79zM289 569l136 143h109l-166 -143h-79z" />
    <glyph glyph-name="uni0312" unicode="&#x312;" horiz-adv-x="0" 
d="M243 672l-21 -89h-89l21 89l82 103h38l-64 -103h33z" />
    <glyph glyph-name="commaaccent" unicode="&#x326;" horiz-adv-x="0" 
d="M-39 -257h-38l64 103h-33l21 89h89l-22 -89z" />
    <glyph glyph-name="uni0394" unicode="&#x394;" horiz-adv-x="675" 
d="M-58 0l448 712h125l93 -712h-666zM475 358q-16 134 -32 290h-2q-80 -137 -173 -290l-170 -276h410z" />
    <glyph glyph-name="uni03A9" unicode="&#x3a9;" horiz-adv-x="729" 
d="M649.5 665q70.5 -61 70.5 -182q0 -110 -60.5 -207t-179.5 -193v-2h168l-20 -81h-269l20 84q122 98 181.5 189.5t59.5 190.5q0 88 -47 133t-130 45q-86 0 -148 -46.5t-93.5 -118.5t-31.5 -145q0 -68 21.5 -125.5t62.5 -122.5l-21 -84h-258l20 81h172v2q-42 66 -65 128.5
t-23 133.5q0 91 42.5 179t127.5 145t205 57q125 0 195.5 -61z" />
    <glyph glyph-name="uni03BC" unicode="&#x3bc;" horiz-adv-x="583" 
d="M465 99q0 -18 8 -25t26 -7q12 0 25 3l-17 -70q-17 -6 -46 -6q-40 0 -59 20.5t-17 61.5h-2q-25 -38 -68.5 -60.5t-91.5 -22.5q-81 0 -108 58l-59 -236h-88l173 693h88l-74 -294q-9 -45 -9 -63q0 -88 94 -88q53 0 98.5 40.5t64.5 114.5l71 290h88l-90 -363q-7 -28 -7 -46z
" />
    <glyph glyph-name="pi" unicode="&#x3c0;" horiz-adv-x="652" 
d="M562 438l-67 -272q-8 -30 -8 -48q0 -29 14 -41t43 -12q15 0 24 3l-17 -69q-18 -5 -43 -5q-56 0 -84 23.5t-28 78.5q0 25 11 72l67 270h-225l-109 -438h-88l109 438h-104l18 70h621l-17 -70h-117z" />
    <glyph glyph-name="Wgrave" unicode="&#x1e80;" horiz-adv-x="916" 
d="M545 0l2 311q0 107 6 319h-2q-62 -132 -154 -319l-152 -311h-132l11 712h88l-5 -288q-3 -169 -9 -335h2q62 133 162 336l141 287h129l-2 -287q0 -114 -4 -336h2q51 111 157 335l138 288h97l-343 -712h-132zM575 760l-93 138h109l56 -138h-72z" />
    <glyph glyph-name="wgrave" unicode="&#x1e81;" horiz-adv-x="770" 
d="M439 0l-5 220l-3 220h-2q-72 -147 -109 -220l-115 -220h-126l-9 508h85l1 -212q1 -37 1 -114q0 -76 -1 -114h2l21 43q59 119 90 180l111 217h127l4 -217q1 -52 1 -158v-65h2l16 34q41 87 95 194l107 212h94l-261 -508h-126zM526 569h-71l-93 143h109z" />
    <glyph glyph-name="Wacute" unicode="&#x1e82;" horiz-adv-x="916" 
d="M545 0l2 311q0 107 6 319h-2q-62 -132 -154 -319l-152 -311h-132l11 712h88l-5 -288q-3 -169 -9 -335h2q62 133 162 336l141 287h129l-2 -287q0 -114 -4 -336h2q51 111 157 335l138 288h97l-343 -712h-132zM513 760l116 138h118l-153 -138h-81z" />
    <glyph glyph-name="wacute" unicode="&#x1e83;" horiz-adv-x="770" 
d="M439 0l-5 220l-3 220h-2q-72 -147 -109 -220l-115 -220h-126l-9 508h85l1 -212q1 -37 1 -114q0 -76 -1 -114h2l21 43q59 119 90 180l111 217h127l4 -217q1 -52 1 -158v-65h2l16 34q41 87 95 194l107 212h94l-261 -508h-126zM393 569l116 143h118l-153 -143h-81z" />
    <glyph glyph-name="Wdieresis" unicode="&#x1e84;" horiz-adv-x="916" 
d="M545 0l2 311q0 107 6 319h-2q-62 -132 -154 -319l-152 -311h-132l11 712h88l-5 -288q-3 -169 -9 -335h2q62 133 162 336l141 287h129l-2 -287q0 -114 -4 -336h2q51 111 157 335l138 288h97l-343 -712h-132zM445 775l25 99h82l-25 -99h-82zM640 775l25 99h82l-25 -99h-82z
" />
    <glyph glyph-name="wdieresis" unicode="&#x1e85;" horiz-adv-x="770" 
d="M439 0l-5 220l-3 220h-2q-72 -147 -109 -220l-115 -220h-126l-9 508h85l1 -212q1 -37 1 -114q0 -76 -1 -114h2l21 43q59 119 90 180l111 217h127l4 -217q1 -52 1 -158v-65h2l16 34q41 87 95 194l107 212h94l-261 -508h-126zM332 613l24 99h82l-24 -99h-82zM527 613l24 99
h82l-24 -99h-82z" />
    <glyph glyph-name="Germandbls" unicode="&#x1e9e;" horiz-adv-x="768" 
d="M707 218q0 -58 -30 -110.5t-89.5 -86t-143.5 -33.5q-96 0 -145.5 37.5t-49.5 110.5q0 24 4 45h92q-4 -15 -4 -32q0 -40 27.5 -60.5t83.5 -20.5q54 0 89.5 21t52.5 53.5t17 67.5q0 67 -47 103t-140 45l16 68l190 163q-22 26 -59.5 41t-85.5 15q-104 0 -171 -55.5
t-95 -165.5l-105 -424h-92l107 432q36 142 130 217.5t236 75.5q88 0 153 -35.5t98 -96.5l-206 -177q167 -48 167 -198z" />
    <glyph glyph-name="Ygrave" unicode="&#x1ef2;" horiz-adv-x="614" 
d="M290 0h-92l73 295l-153 417h96l51 -147q39 -116 61 -188h2q74 92 155 188l124 147h117l-360 -417zM407 760l-93 138h109l56 -138h-72z" />
    <glyph glyph-name="ygrave" unicode="&#x1ef3;" horiz-adv-x="472" 
d="M131.5 -124.5q-35.5 -35.5 -75 -50t-94.5 -14.5q-32 0 -52 7l18 72q16 -6 40 -6q34 0 58.5 10t46.5 34t51 70l-67 510h88l47 -404h2l247 404h100l-333 -531q-41 -66 -76.5 -101.5zM362 569h-71l-93 143h109z" />
    <glyph glyph-name="uni2010" unicode="&#x2010;" horiz-adv-x="300" 
d="M30 253l19 78h240l-19 -78h-240z" />
    <glyph glyph-name="endash" unicode="&#x2013;" horiz-adv-x="500" 
d="M20 253l19 78h460l-19 -78h-460z" />
    <glyph glyph-name="emdash" unicode="&#x2014;" horiz-adv-x="1000" 
d="M20 253l19 78h960l-19 -78h-960z" />
    <glyph glyph-name="uni2015" unicode="&#x2015;" horiz-adv-x="1000" 
d="M-43 253l19 78h960l-19 -78h-960z" />
    <glyph glyph-name="underscoredbl" unicode="&#x2017;" horiz-adv-x="500" 
d="M-88 -99l12 49h500l-12 -49h-500zM-121 -228l13 49h500l-13 -49h-500z" />
    <glyph glyph-name="quoteleft" unicode="&#x2018;" horiz-adv-x="237" 
d="M231 712h53l-69 -134h34l-27 -108h-99l26 108z" />
    <glyph glyph-name="quoteright" unicode="&#x2019;" horiz-adv-x="237" 
d="M175 470h-53l69 134h-34l26 108h100l-27 -108z" />
    <glyph glyph-name="quotesinglbase" unicode="&#x201a;" horiz-adv-x="237" 
d="M24 -134h-53l69 134h-34l26 108h100l-27 -108z" />
    <glyph glyph-name="quotedblleft" unicode="&#x201c;" horiz-adv-x="398" 
d="M231 712h53l-69 -134h34l-27 -108h-99l26 108zM392 712h52l-69 -134h34l-26 -108h-100l27 108z" />
    <glyph glyph-name="quotedblright" unicode="&#x201d;" horiz-adv-x="398" 
d="M175 470h-53l69 134h-34l26 108h100l-27 -108zM336 470h-53l69 134h-34l26 108h100l-27 -108z" />
    <glyph glyph-name="quotedblbase" unicode="&#x201e;" horiz-adv-x="398" 
d="M24 -134h-53l69 134h-34l26 108h100l-27 -108zM185 -134h-53l69 134h-34l26 108h100l-27 -108z" />
    <glyph glyph-name="dagger" unicode="&#x2020;" horiz-adv-x="536" 
d="M549 522l-18 -74h-169l-142 -568h-90l142 568h-169l18 74h169l47 190h90l-47 -190h169z" />
    <glyph glyph-name="daggerdbl" unicode="&#x2021;" horiz-adv-x="536" 
d="M549 523l-18 -74h-169l-66 -264h169l-18 -74h-170l-57 -231h-90l57 231h-169l18 74h170l66 264h-169l18 74h169l47 189h90l-47 -189h169z" />
    <glyph glyph-name="bullet" unicode="&#x2022;" horiz-adv-x="335" 
d="M86.5 275q-33.5 34 -33.5 81q0 48 33.5 81.5t80.5 33.5q48 0 81.5 -33.5t33.5 -81.5q0 -47 -33.5 -81t-81.5 -34q-47 0 -80.5 34z" />
    <glyph glyph-name="ellipsis" unicode="&#x2026;" horiz-adv-x="753" 
d="M-4 0l28 117h109l-29 -117h-108zM260 0l28 117h109l-29 -117h-108zM523 0l28 117h109l-29 -117h-108z" />
    <glyph glyph-name="perthousand" unicode="&#x2030;" horiz-adv-x="1014" 
d="M26 -30l605 734h70l-605 -734h-70zM342.5 657.5q28.5 -30.5 28.5 -87.5q0 -49 -18.5 -98.5t-56 -82t-89.5 -32.5q-55 0 -84 30.5t-29 88.5q0 48 19 97t56.5 82t89.5 33q55 0 83.5 -30.5zM206 603.5q-21 -25.5 -31.5 -61t-10.5 -64.5q0 -61 45 -61q29 0 49.5 25.5t31 62
t10.5 65.5q0 59 -44 59q-29 0 -50 -25.5zM605.5 286.5q28.5 -30.5 28.5 -87.5q0 -49 -18.5 -98t-56 -81.5t-89.5 -32.5q-55 0 -84 30t-29 88q0 48 19 97t56.5 82t89.5 33q55 0 83.5 -30.5zM933.5 286.5q28.5 -30.5 28.5 -87.5q0 -49 -18.5 -98t-56 -81.5t-89.5 -32.5
q-55 0 -84 30t-29 88q0 48 19 97t56.5 82t89.5 33q55 0 83.5 -30.5zM469 232.5q-21 -25.5 -31.5 -61t-10.5 -64.5q0 -61 45 -61q29 0 49.5 25.5t31 61.5t10.5 66q0 59 -44 59q-29 0 -50 -25.5zM797 232.5q-21 -25.5 -31.5 -61t-10.5 -64.5q0 -61 45 -61q29 0 49.5 25.5
t31 61.5t10.5 66q0 59 -44 59q-29 0 -50 -25.5z" />
    <glyph glyph-name="guilsinglleft" unicode="&#x2039;" horiz-adv-x="292" 
d="M194 54h-77l-68 204l158 196h87l-162 -204z" />
    <glyph glyph-name="guilsinglright" unicode="&#x203a;" horiz-adv-x="292" 
d="M98 454h78l67 -204l-158 -196h-87l162 204z" />
    <glyph glyph-name="interrobang" unicode="&#x203d;" horiz-adv-x="516" 
d="M495 590q36 -41 36 -103q0 -49 -32 -92t-113 -91q-43 -25 -64.5 -42t-33.5 -38.5t-22 -58.5h-73l87 400q-80 -22 -105 -116h-92q24 88 79.5 139t135.5 60l14 64h100l-19 -67q66 -14 102 -55zM418.5 426.5q18.5 26.5 18.5 55.5q0 31 -17.5 52.5t-49.5 29.5l-66 -231h2
q16 15 45 34q49 33 67.5 59.5zM270 106l-27 -106h-103l26 106h104z" />
    <glyph glyph-name="overline" unicode="&#x203e;" horiz-adv-x="500" 
d="M134 788l15 65h500l-15 -65h-500z" />
    <glyph glyph-name="fraction" unicode="&#x2044;" horiz-adv-x="147" 
d="M-218 0l552 674h74l-553 -674h-73z" />
    <glyph glyph-name="zero.superior" unicode="&#x2070;" horiz-adv-x="433" 
d="M445.5 768.5q36.5 -43.5 36.5 -127.5q0 -67 -27 -142.5t-79.5 -127t-126.5 -51.5q-71 0 -107 43t-36 127q0 68 26.5 143t79 127t126.5 52q71 0 107.5 -43.5zM254.5 701.5q-33.5 -44.5 -51 -105t-17.5 -106.5q0 -51 17.5 -78.5t50.5 -27.5q46 0 79.5 44t51 105t17.5 107
q0 51 -17.5 78.5t-50.5 27.5q-46 0 -79.5 -44.5z" />
    <glyph glyph-name="four.superior" unicode="&#x2074;" horiz-adv-x="406" 
d="M364 445l-29 -115h-77l29 115h-229l18 74l269 283h108l-73 -293h78l-15 -64h-79zM304 509l15 61q25 101 42 158h-2l-137 -145l-71 -74h153z" />
    <glyph glyph-name="five.superior" unicode="&#x2075;" horiz-adv-x="415" 
d="M256 736l-42 -120h2q17 12 39.5 19t44.5 7q64 0 99.5 -36t35.5 -99q0 -43 -23.5 -86.5t-69.5 -72t-109 -28.5q-69 0 -108.5 29t-39.5 81q0 13 3 28h81q-2 -7 -2 -17q0 -27 20 -41.5t54 -14.5q37 0 62.5 18.5t38 45t12.5 52.5q0 37 -20.5 57.5t-55.5 20.5q-30 0 -54 -16.5
t-38 -45.5l-77 4l97 281h284l-17 -66h-217z" />
    <glyph glyph-name="six.superior" unicode="&#x2076;" horiz-adv-x="417" 
d="M446 780.5q37 -31.5 37 -84.5q0 -12 -1 -19h-80v7q0 63 -64 63q-44 0 -81.5 -38t-59.5 -112h2q47 41 108 41q62 0 98 -37.5t36 -100.5q0 -40 -22.5 -82t-66 -70t-100.5 -28q-72 0 -109.5 41t-37.5 121q0 69 27.5 146t81.5 130.5t129 53.5q66 0 103 -31.5zM231.5 559.5
q-24.5 -16.5 -37.5 -42.5t-13 -52q0 -36 19.5 -58t53.5 -22q33 0 57 17.5t36.5 43t12.5 49.5q0 37 -19 59t-52 22t-57.5 -16.5z" />
    <glyph glyph-name="seven.superior" unicode="&#x2077;" horiz-adv-x="366" 
d="M331.5 552q-68.5 -105 -120.5 -222h-93q59 126 129.5 229t139.5 175h-258l18 68h343l-16 -67q-74 -78 -142.5 -183z" />
    <glyph glyph-name="eight.superior" unicode="&#x2078;" horiz-adv-x="419" 
d="M440 779q41 -33 41 -87q0 -43 -29.5 -78.5t-82.5 -47.5v-2q30 -10 47.5 -37.5t17.5 -63.5q0 -35 -22 -68t-64.5 -54t-100.5 -21q-74 0 -116.5 35t-42.5 97q0 44 33 81t91 48v2q-28 14 -43.5 38.5t-15.5 55.5q0 32 21 63t61.5 51.5t94.5 20.5q69 0 110 -33zM253.5 723
q-25.5 -24 -25.5 -56q0 -30 20 -46.5t57 -16.5q47 0 72.5 25t25.5 56q0 29 -21 45.5t-57 16.5q-46 0 -71.5 -24zM195 514q-27 -26 -27 -59t22.5 -51.5t61.5 -18.5q50 0 77.5 26.5t27.5 60.5q0 32 -22.5 50t-62.5 18q-50 0 -77 -26z" />
    <glyph glyph-name="nine.superior" unicode="&#x2079;" horiz-adv-x="417" 
d="M127 351.5q-37 31.5 -37 84.5q0 12 1 19h79v-7q0 -63 64 -63q44 0 81.5 38t60.5 112h-2q-48 -41 -109 -41q-62 0 -98 37.5t-36 100.5q0 40 22.5 82t66 70t100.5 28q73 0 110.5 -41t37.5 -121q0 -69 -28 -146t-82 -130.5t-129 -53.5q-65 0 -102 31.5zM341.5 572.5
q24.5 16.5 37.5 42.5t13 52q0 37 -19.5 58.5t-54.5 21.5q-33 0 -56.5 -17.5t-36 -43t-12.5 -49.5q0 -37 19 -59t52 -22t57.5 16.5z" />
    <glyph glyph-name="plussuperior" unicode="&#x207a;" horiz-adv-x="407" 
d="M358 583v-63h-123v-118h-63v118h-123v63h123v119h63v-119h123z" />
    <glyph glyph-name="uni207B" unicode="&#x207b;" horiz-adv-x="409" 
d="M49 520v63h309v-63h-309z" />
    <glyph glyph-name="equalsuperior" unicode="&#x207c;" horiz-adv-x="407" 
d="M49 582v62h308v-62h-308zM49 459v62h308v-62h-308z" />
    <glyph glyph-name="parenleftsuperior" unicode="&#x207d;" horiz-adv-x="220" 
d="M214 624.5q-44 -113.5 -44 -219.5q0 -81 22 -178h-61q-37 102 -37 204q0 103 47 212.5t139 205.5h67q-89 -111 -133 -224.5z" />
    <glyph glyph-name="parenrightsuperior" unicode="&#x207e;" horiz-adv-x="220" 
d="M148 452.5q44 113.5 44 218.5q0 73 -22 178h60q37 -98 37 -204q0 -103 -46.5 -212.5t-138.5 -205.5h-67q89 112 133 225.5z" />
    <glyph glyph-name="zero.inferior" unicode="&#x2080;" horiz-adv-x="433" 
d="M320.5 266.5q36.5 -43.5 36.5 -127.5q0 -67 -27 -142.5t-79.5 -127t-126.5 -51.5q-71 0 -107 43t-36 127q0 68 26.5 143t79 127t126.5 52q71 0 107.5 -43.5zM129.5 199.5q-33.5 -44.5 -51 -105t-17.5 -106.5q0 -51 17.5 -78.5t50.5 -27.5q46 0 79.5 44t51 105t17.5 107
q0 51 -17.5 78.5t-50.5 27.5q-46 0 -79.5 -44.5z" />
    <glyph glyph-name="one.inferior" unicode="&#x2081;" horiz-adv-x="270" 
d="M14 -172l82 332h-108l15 60q58 0 90.5 18.5t50.5 61.5h67l-118 -472h-79z" />
    <glyph glyph-name="two.inferior" unicode="&#x2082;" horiz-adv-x="419" 
d="M313 277q38 -33 38 -87q0 -57 -40 -98.5t-131 -84.5q-76 -36 -104.5 -59.5t-36.5 -53.5h253l-15 -66h-345q11 58 33 97t62 69.5t107 62.5q76 37 105.5 63t29.5 61q0 63 -66 63q-74 0 -100 -86h-83q19 73 68.5 112.5t119.5 39.5q67 0 105 -33z" />
    <glyph glyph-name="three.inferior" unicode="&#x2083;" horiz-adv-x="414" 
d="M310.5 278.5q39.5 -31.5 39.5 -86.5q0 -42 -27 -75.5t-85 -52.5v-1q64 -28 64 -95q0 -35 -22 -69.5t-64 -57.5t-101 -23q-77 0 -117 31t-40 88q0 21 5 36h79q-3 -15 -3 -27q0 -63 78 -63q49 0 78 26.5t29 58.5q0 33 -23.5 50t-67.5 17h-17l15 63h18q59 0 90.5 26.5
t31.5 60.5q0 28 -20 43.5t-56 15.5q-82 0 -103 -87h-80q16 72 66.5 112.5t120.5 40.5q72 0 111.5 -31.5z" />
    <glyph glyph-name="four.inferior" unicode="&#x2084;" horiz-adv-x="406" 
d="M239 -57l-29 -115h-77l29 115h-229l18 74l269 283h108l-73 -293h78l-15 -64h-79zM179 7l15 61q25 101 42 158h-2l-137 -145l-71 -74h153z" />
    <glyph glyph-name="five.inferior" unicode="&#x2085;" horiz-adv-x="416" 
d="M132 234l-42 -120h2q17 12 39.5 19t44.5 7q64 0 99.5 -36t35.5 -99q0 -43 -23.5 -86.5t-69.5 -72t-109 -28.5q-69 0 -108.5 29t-39.5 81q0 13 3 28h81q-2 -7 -2 -17q0 -27 20 -41.5t54 -14.5q37 0 62.5 18.5t38 45t12.5 52.5q0 37 -20.5 57.5t-55.5 20.5q-30 0 -54 -16.5
t-38 -45.5l-77 4l97 281h284l-17 -66h-217z" />
    <glyph glyph-name="six.inferior" unicode="&#x2086;" horiz-adv-x="416" 
d="M321 278.5q37 -31.5 37 -84.5q0 -12 -1 -19h-80v7q0 63 -64 63q-44 0 -81.5 -38t-59.5 -112h2q47 41 108 41q62 0 98 -37.5t36 -100.5q0 -40 -22.5 -82t-66 -70t-100.5 -28q-72 0 -109.5 41t-37.5 121q0 69 27.5 146t81.5 130.5t129 53.5q66 0 103 -31.5zM106.5 57.5
q-24.5 -16.5 -37.5 -42.5t-13 -52q0 -36 19.5 -58t53.5 -22q33 0 57 17.5t36.5 43t12.5 49.5q0 37 -19 59t-52 22t-57.5 -16.5z" />
    <glyph glyph-name="seven.inferior" unicode="&#x2087;" horiz-adv-x="366" 
d="M206.5 50q-68.5 -105 -120.5 -222h-93q59 126 129.5 229t139.5 175h-258l18 68h343l-16 -67q-74 -78 -142.5 -183z" />
    <glyph glyph-name="eight.inferior" unicode="&#x2088;" horiz-adv-x="418" 
d="M314 277q41 -33 41 -87q0 -43 -29.5 -78.5t-82.5 -47.5v-2q30 -10 47.5 -37.5t17.5 -63.5q0 -35 -22 -68t-64.5 -54t-100.5 -21q-74 0 -116.5 35t-42.5 97q0 44 33 81t91 48v2q-28 14 -43.5 38.5t-15.5 55.5q0 32 21 63t61.5 51.5t94.5 20.5q69 0 110 -33zM127.5 221
q-25.5 -24 -25.5 -56q0 -30 20 -46.5t57 -16.5q47 0 72.5 25t25.5 56q0 29 -21 45.5t-57 16.5q-46 0 -71.5 -24zM69 12q-27 -26 -27 -59t22.5 -51.5t61.5 -18.5q50 0 77.5 26.5t27.5 60.5q0 32 -22.5 50t-62.5 18q-50 0 -77 -26z" />
    <glyph glyph-name="nine.inferior" unicode="&#x2089;" horiz-adv-x="417" 
d="M2 -150.5q-37 31.5 -37 84.5q0 12 1 19h79v-7q0 -63 64 -63q44 0 81.5 38t60.5 112h-2q-48 -41 -109 -41q-62 0 -98 37.5t-36 100.5q0 40 22.5 82t66 70t100.5 28q73 0 110.5 -41t37.5 -121q0 -69 -28 -146t-82 -130.5t-129 -53.5q-65 0 -102 31.5zM216.5 70.5
q24.5 16.5 37.5 42.5t13 52q0 37 -19.5 58.5t-54.5 21.5q-33 0 -56.5 -17.5t-36 -43t-12.5 -49.5q0 -37 19 -59t52 -22t57.5 16.5z" />
    <glyph glyph-name="uni208A" unicode="&#x208a;" horiz-adv-x="408" 
d="M358 81v-63h-123v-118h-63v118h-123v63h123v119h63v-119h123z" />
    <glyph glyph-name="uni208B" unicode="&#x208b;" horiz-adv-x="408" 
d="M49 18v63h309v-63h-309z" />
    <glyph glyph-name="uni208C" unicode="&#x208c;" horiz-adv-x="408" 
d="M49 80v62h308v-62h-308zM49 -43v62h308v-62h-308z" />
    <glyph glyph-name="uni208D" unicode="&#x208d;" horiz-adv-x="220" 
d="M89 122.5q-44 -113.5 -44 -219.5q0 -81 22 -178h-61q-37 102 -37 204q0 103 47 212.5t139 205.5h67q-89 -111 -133 -224.5z" />
    <glyph glyph-name="uni208E" unicode="&#x208e;" horiz-adv-x="220" 
d="M22 -49.5q44 113.5 44 218.5q0 73 -22 178h60q37 -98 37 -204q0 -103 -46.5 -212.5t-138.5 -205.5h-67q89 112 133 225.5z" />
    <glyph glyph-name="franc" unicode="&#x20a3;" horiz-adv-x="562" 
d="M238 404h308l-21 -81h-307l-29 -118h173l-19 -73h-172l-33 -132h-93l33 132h-84l18 73h84l117 469h422l-20 -82h-330z" />
    <glyph glyph-name="lira" unicode="&#x20a4;" horiz-adv-x="562" 
d="M541 647.5q45 -40.5 45 -114.5q0 -24 -6 -51h-88q5 23 5 38q0 43 -23.5 65.5t-68.5 22.5q-52 0 -86.5 -32t-49.5 -94l-17 -68h125l-14 -58h-126l-14 -57h125l-14 -58h-126l-7 -29q-13 -53 -32.5 -83.5t-53.5 -50.5v-2h360l-19 -76h-495l19 77q98 0 130 134l8 30h-97
l14 58h97l14 57h-96l14 58h97l21 85q24 94 83 141.5t148 47.5q83 0 128 -40.5z" />
    <glyph glyph-name="peseta" unicode="&#x20a7;" horiz-adv-x="839" 
d="M676 119q0 -26 13.5 -38t42.5 -12q17 0 35 4l-19 -72q-18 -5 -42 -5q-62 0 -91 25t-29 80q0 26 9 62l69 275h-67q-10 -51 -42.5 -95t-89.5 -71.5t-135 -27.5h-146l-60 -244h-92l167 674h170q106 0 164 -43.5t67 -122.5h81l31 123h88l-31 -123h101l-17 -70h-101l-70 -281
q-6 -22 -6 -38zM430.5 346.5q39.5 22.5 58 57t18.5 70.5q0 58 -36 89t-108 31h-92l-67 -270h127q60 0 99.5 22.5z" />
    <glyph glyph-name="Euro" unicode="&#x20ac;" horiz-adv-x="562" 
d="M508 495q0 55 -29 84t-85 29q-71 0 -122.5 -53t-81.5 -135h257l-25 -58h-250q-4 -16 -11 -57h236l-26 -58h-214q0 -89 32 -135t95 -46q53 0 94.5 35.5t63.5 100.5h92q-34 -103 -102 -159.5t-158 -56.5q-103 0 -155.5 66t-52.5 194v1h-67l26 58h45q3 29 9 57h-51l25 58h42
q38 116 117 192t191 76q95 0 146 -45.5t51 -131.5q0 -19 -3 -40h-91q2 18 2 24z" />
    <glyph glyph-name="uni20B9" unicode="&#x20b9;" horiz-adv-x="562" 
d="M424 607q52 -24 59 -84h118l-33 -65h-91q-18 -53 -72.5 -93.5t-141.5 -54.5v-2q32 -13 51.5 -41t33.5 -79l50 -188h-99l-44 176q-16 62 -46 88.5t-83 26.5h-16l17 67h54q79 0 127.5 28.5t67.5 71.5h-297l33 65h271q-15 86 -151 86h-115l34 65h489l-34 -65h-182v-2z" />
    <glyph glyph-name="uni20BA" unicode="&#x20ba;" horiz-adv-x="562" 
d="M420 77q-103 -82 -271 -82q-38 0 -100 6l69 275l-106 -51l18 71l105 50l22 86l-106 -50l18 71l105 50l43 171h92l-32 -129l190 91l-18 -71l-189 -90l-22 -87l190 92l-18 -71l-189 -91l-60 -240q118 0 196 62t99 178h96q-29 -159 -132 -241z" />
    <glyph glyph-name="uni20BC" unicode="&#x20bc;" horiz-adv-x="656" 
d="M587.5 533q42.5 -52 42.5 -150q0 -47 -17 -113l-66 -270h-87l69 279q14 58 14 97q0 64 -26 97t-81 41l-128 -514h-87l128 517q-58 -2 -96 -24t-63 -66.5t-44 -119.5l-76 -307h-87l81 325q36 145 107 210t198 67h2l27 110h87l-28 -114q88 -13 130.5 -65z" />
    <glyph glyph-name="uni20BD" unicode="&#x20bd;" horiz-adv-x="562" 
d="M535 626q54 -48 54 -133q0 -53 -27.5 -104.5t-84 -84.5t-139.5 -33h-150l-17 -67h198l-19 -73h-197l-32 -131h-91l32 131h-81l18 73h82l16 67h-81l18 75h82l82 328h178q105 0 159 -48zM207 346h128q55 0 91 21.5t52.5 54t16.5 66.5q0 54 -32.5 83t-97.5 29h-95z" />
    <glyph glyph-name="uni2113" unicode="&#x2113;" horiz-adv-x="440" 
d="M163 116q0 -29 14 -42.5t44 -13.5q28 0 49 7l-17 -70q-27 -6 -55 -6q-63 0 -93.5 27t-30.5 85q0 28 10 64l6 25q-16 1 -54 8l13 53q32 -6 51 -6h4l64 257q25 103 62.5 143.5t95.5 40.5q49 0 77 -34.5t28 -107.5q0 -69 -29 -141t-85.5 -127.5t-136.5 -75.5l-11 -44
q-6 -24 -6 -42zM294 336q40 48 60 104.5t20 107.5q0 77 -42 77q-25 0 -42 -24t-32 -87l-62 -249q58 23 98 71z" />
    <glyph glyph-name="uni2117" unicode="&#x2117;" horiz-adv-x="810" 
d="M592.5 678q81.5 -46 126.5 -129.5t45 -192.5t-45 -192.5t-126.5 -129.5t-187.5 -46t-187.5 46t-126 129.5t-44.5 192.5t44.5 192.5t126 129.5t187.5 46t187.5 -46zM241 637q-71 -40 -110 -112.5t-39 -168.5t39 -168.5t110 -112.5t164 -40t164 40t110 112.5t39 168.5
t-39 168.5t-110 112.5t-164 40t-164 -40zM566 546q46 -39 46 -109q0 -69 -46 -108.5t-131 -39.5h-94v-174h-74v470h168q85 0 131 -39zM341 354h89q52 0 79 21t27 62t-27 62t-79 21h-89v-166z" />
    <glyph glyph-name="trademark" unicode="&#x2122;" horiz-adv-x="801" 
d="M287 653l-74 -297h-67l74 297h-116l15 59h299l-15 -59h-116zM715 356l43 170q14 60 32 126h-2l-26 -46q-34 -60 -45 -79l-100 -171h-77l-13 171l-9 125h-2l-20 -84l-10 -42l-43 -170h-64l89 356h102l13 -156q6 -90 8 -134h2q41 75 75 134l91 156h109l-89 -356h-64z" />
    <glyph glyph-name="Omega" unicode="&#x2126;" horiz-adv-x="729" 
d="M649.5 665q70.5 -61 70.5 -182q0 -110 -60.5 -207t-179.5 -193v-2h168l-20 -81h-269l20 84q122 98 181.5 189.5t59.5 190.5q0 88 -47 133t-130 45q-86 0 -148 -46.5t-93.5 -118.5t-31.5 -145q0 -68 21.5 -125.5t62.5 -122.5l-21 -84h-258l20 81h172v2q-42 66 -65 128.5
t-23 133.5q0 91 42.5 179t127.5 145t205 57q125 0 195.5 -61z" />
    <glyph glyph-name="estimated" unicode="&#x212e;" horiz-adv-x="860" 
d="M634.5 639q86.5 -49 132.5 -131.5t46 -180.5h-611q-6 0 -9.5 -4t-3.5 -9v-166q0 -17 3 -26.5t12 -17.5q93 -91 227 -91q72 0 135 30t103 79h69q-40 -55 -118 -94.5t-189 -39.5q-115 0 -202 44.5t-134.5 123.5t-47.5 180q0 100 46.5 180t133.5 126t204 46t203.5 -49z
M204 569q-9 -9 -12 -17.5t-3 -23.5v-167q0 -5 3.5 -8.5t9.5 -3.5h455q6 0 9.5 3.5t3.5 8.5v167q0 15 -3 23.5t-12 17.5q-94 93 -224 93q-134 0 -227 -93z" />
    <glyph glyph-name="oneeighth" unicode="&#x215b;" horiz-adv-x="752" 
d="M107 270l70 278h-94l14 58q50 0 78.5 15.5t43.5 52.5h64l-101 -404h-75zM22 0l552 674h74l-553 -674h-73zM689.5 384.5q36.5 -28.5 36.5 -75.5q0 -38 -26 -67.5t-73 -39.5v-2q28 -9 43 -31t15 -54q0 -31 -19 -59.5t-55.5 -46.5t-86.5 -18q-67 0 -104.5 30.5t-37.5 83.5
q0 39 28.5 70.5t78.5 39.5v2q-24 10 -38 32t-14 49t18.5 53.5t53.5 44t83 17.5q61 0 97.5 -28.5zM529 332.5q-20 -18.5 -20 -44.5q0 -24 17 -37.5t47 -13.5q38 0 58 19.5t20 44.5q0 23 -16.5 36.5t-47.5 13.5q-38 0 -58 -18.5zM480.5 156q-21.5 -21 -21.5 -48
q0 -26 18 -40.5t50 -14.5q40 0 62 21.5t22 48.5q0 26 -18 40t-50 14q-41 0 -62.5 -21z" />
    <glyph glyph-name="threeeighths" unicode="&#x215c;" horiz-adv-x="875" 
d="M368.5 656q34.5 -27 34.5 -75q0 -75 -92 -107v-2q51 -25 51 -81q0 -30 -19 -60t-55.5 -50t-87.5 -20q-68 0 -104 27t-36 77q0 16 4 32h77q-3 -13 -3 -24q0 -50 63 -50q40 0 63 21t23 47q0 52 -75 52h-13l15 62h14q48 0 73.5 21t25.5 49q0 22 -16 34t-45 12q-66 0 -84 -70
h-76q13 62 57.5 97t107.5 35t97.5 -27zM144 0l552 674h74l-553 -674h-73zM812.5 384.5q36.5 -28.5 36.5 -75.5q0 -38 -26 -67.5t-73 -39.5v-2q28 -9 43 -31t15 -54q0 -31 -19 -59.5t-55.5 -46.5t-86.5 -18q-67 0 -104.5 30.5t-37.5 83.5q0 39 28.5 70.5t78.5 39.5v2
q-24 10 -38 32t-14 49t18.5 53.5t53.5 44t83 17.5q61 0 97.5 -28.5zM652 332.5q-20 -18.5 -20 -44.5q0 -24 17 -37.5t47 -13.5q38 0 58 19.5t20 44.5q0 23 -16.5 36.5t-47.5 13.5q-38 0 -58 -18.5zM603.5 156q-21.5 -21 -21.5 -48q0 -26 18 -40.5t50 -14.5q40 0 62 21.5
t22 48.5q0 26 -18 40t-50 14q-41 0 -62.5 -21z" />
    <glyph glyph-name="fiveeighths" unicode="&#x215d;" horiz-adv-x="875" 
d="M214 610l-34 -93h2q28 22 69 22q56 0 87.5 -31.5t31.5 -85.5q0 -37 -20.5 -74.5t-60.5 -62t-95 -24.5q-62 0 -97 25.5t-35 70.5q0 11 3 24h77q-1 -5 -1 -13q0 -21 16.5 -33t43.5 -12q29 0 50 15t31 36.5t10 41.5q0 30 -16.5 46.5t-45.5 16.5q-25 0 -44 -13.5t-30 -37.5
l-74 5l83 241h251l-16 -64h-186zM145 0l552 674h74l-553 -674h-73zM813.5 384.5q36.5 -28.5 36.5 -75.5q0 -38 -26 -67.5t-73 -39.5v-2q28 -9 43 -31t15 -54q0 -31 -19 -59.5t-55.5 -46.5t-86.5 -18q-67 0 -104.5 30.5t-37.5 83.5q0 39 28.5 70.5t78.5 39.5v2q-24 10 -38 32
t-14 49t18.5 53.5t53.5 44t83 17.5q61 0 97.5 -28.5zM653 332.5q-20 -18.5 -20 -44.5q0 -24 17 -37.5t47 -13.5q38 0 58 19.5t20 44.5q0 23 -16.5 36.5t-47.5 13.5q-38 0 -58 -18.5zM604.5 156q-21.5 -21 -21.5 -48q0 -26 18 -40.5t50 -14.5q40 0 62 21.5t22 48.5
q0 26 -18 40t-50 14q-41 0 -62.5 -21z" />
    <glyph glyph-name="seveneighths" unicode="&#x215e;" horiz-adv-x="781" 
d="M279 457.5q-58 -89.5 -100 -187.5h-91q52 107 112 194.5t115 144.5h-217l16 65h300l-15 -64q-62 -63 -120 -152.5zM51 0l552 674h74l-553 -674h-73zM719.5 384.5q36.5 -28.5 36.5 -75.5q0 -38 -26 -67.5t-73 -39.5v-2q28 -9 43 -31t15 -54q0 -31 -19 -59.5t-55.5 -46.5
t-86.5 -18q-67 0 -104.5 30.5t-37.5 83.5q0 39 28.5 70.5t78.5 39.5v2q-24 10 -38 32t-14 49t18.5 53.5t53.5 44t83 17.5q61 0 97.5 -28.5zM559 332.5q-20 -18.5 -20 -44.5q0 -24 17 -37.5t47 -13.5q38 0 58 19.5t20 44.5q0 23 -16.5 36.5t-47.5 13.5q-38 0 -58 -18.5z
M510.5 156q-21.5 -21 -21.5 -48q0 -26 18 -40.5t50 -14.5q40 0 62 21.5t22 48.5q0 26 -18 40t-50 14q-41 0 -62.5 -21z" />
    <glyph glyph-name="partialdiff" unicode="&#x2202;" horiz-adv-x="601" 
d="M516 662q54 -64 54 -182q0 -103 -38.5 -218.5t-116 -195.5t-187.5 -80q-95 0 -144 52.5t-49 145.5q0 59 31 128t93 117.5t150 48.5q66 0 106 -27t55 -69h2q6 21 10 50t4 54q0 78 -32 119.5t-95 41.5q-46 0 -77.5 -26.5t-46.5 -75.5h-93q21 84 76.5 132.5t138.5 48.5
q105 0 159 -64zM213.5 367q-42.5 -36 -64 -88.5t-21.5 -97.5q0 -55 26.5 -85.5t80.5 -30.5q62 0 105.5 36.5t65.5 88t22 92.5q0 56 -29 88.5t-84 32.5q-59 0 -101.5 -36z" />
    <glyph glyph-name="Delta" unicode="&#x2206;" horiz-adv-x="675" 
d="M-58 0l448 712h125l93 -712h-666zM475 358q-16 134 -32 290h-2q-80 -137 -173 -290l-170 -276h410z" />
    <glyph glyph-name="product" unicode="&#x220f;" horiz-adv-x="661" 
d="M474 -120v750h-287v-750h-92v832h471v-832h-92z" />
    <glyph glyph-name="summation" unicode="&#x2211;" horiz-adv-x="486" 
d="M137 631l200 -338l-200 -332h314v-81h-416v81l203 332l-203 338v81h416v-81h-314z" />
    <glyph glyph-name="minus" unicode="&#x2212;" horiz-adv-x="566" 
d="M71 280v73h424v-73h-424z" />
    <glyph glyph-name="uni2215" unicode="&#x2215;" horiz-adv-x="457" 
d="M-119 -89l503 834h86l-503 -834h-86z" />
    <glyph glyph-name="uni2219" unicode="&#x2219;" horiz-adv-x="344" 
d="M118 247v117h108v-117h-108z" />
    <glyph glyph-name="radical" unicode="&#x221a;" horiz-adv-x="575" 
d="M203 -120l-96 408h-82v72h141l95 -397h2l213 749h79l-238 -832h-114z" />
    <glyph glyph-name="infinity" unicode="&#x221e;" horiz-adv-x="629" 
d="M575 418q39 -42 39 -110t-39 -110t-101 -42q-53 0 -89.5 25.5t-70.5 70.5q-33 -45 -70 -70.5t-89 -25.5q-63 0 -101.5 42t-38.5 110t38.5 110t101.5 42q52 0 89 -25.5t70 -70.5q34 45 70.5 70.5t89.5 25.5q62 0 101 -42zM221 247.5q25 20.5 54 60.5q-29 40 -54 60.5
t-58 20.5q-36 0 -55.5 -21.5t-19.5 -59.5t19.5 -59.5t55.5 -21.5q33 0 58 20.5zM521 248.5q20 21.5 20 59.5t-20 59.5t-55 21.5q-33 0 -58.5 -21t-53.5 -60q28 -39 53.5 -60t58.5 -21q35 0 55 21.5z" />
    <glyph glyph-name="integral" unicode="&#x222b;" horiz-adv-x="314" 
d="M303 712v-68q-9 3 -29 3q-38 0 -55.5 -20t-17.5 -66v-605q0 -73 -35.5 -109.5t-104.5 -36.5q-30 0 -50 5v68q9 -3 29 -3q38 0 55.5 20t17.5 66v605q0 73 35.5 109.5t103.5 36.5q31 0 51 -5z" />
    <glyph glyph-name="approxequal" unicode="&#x2248;" horiz-adv-x="566" 
d="M243.5 480.5q23.5 -12.5 56.5 -38.5q25 -20 41.5 -29.5t35.5 -9.5q28 0 44 21t16 56h63q0 -66 -33 -106.5t-89 -40.5q-31 0 -56 13t-55 37q-26 20 -42.5 29.5t-35.5 9.5q-28 0 -44 -20.5t-16 -55.5h-63q0 66 33 106.5t89 40.5q32 0 55.5 -12.5zM244 288.5
q24 -12.5 56 -37.5q25 -20 41.5 -29.5t35.5 -9.5q28 0 44 20.5t16 55.5h63q0 -66 -33 -106.5t-89 -40.5q-32 0 -57 13.5t-54 37.5q-26 20 -42.5 29.5t-35.5 9.5q-28 0 -44 -21t-16 -56h-63q0 66 33 106.5t89 40.5q32 0 56 -12.5z" />
    <glyph glyph-name="notequal" unicode="&#x2260;" horiz-adv-x="566" 
d="M292 271h203v-74h-249l-80 -127h-75l80 127h-100v74h146l57 91h-203v74h249l80 127h76l-80 -127h99v-74h-145z" />
    <glyph glyph-name="lessequal" unicode="&#x2264;" horiz-adv-x="566" 
d="M153 328v-2l342 -135v-77l-424 166v95l424 165v-77zM495 0h-424v72h424v-72z" />
    <glyph glyph-name="greaterequal" unicode="&#x2265;" horiz-adv-x="566" 
d="M495 280l-424 -166v77l342 135v2l-342 135v77l424 -165v-95zM71 0v72h424v-72h-424z" />
    <glyph glyph-name="lozenge" unicode="&#x25ca;" horiz-adv-x="597" 
d="M356 0h-115l-201 356l201 356h115l201 -356zM299 64l167 292l-167 292l-168 -292z" />
    <glyph glyph-name="uniF8FF" unicode="&#xf8ff;" horiz-adv-x="600" 
d="M568 742q35 -35 35 -96v-580q0 -61 -35 -96t-96 -35h-321q-60 0 -95.5 35t-35.5 96v580q0 61 35.5 96t95.5 35h321q61 0 96 -35zM91 706q-22 -22 -22 -60v-580q0 -38 22 -60t60 -22h321q38 0 60 22t22 60v580q0 38 -22 60t-60 22h-321q-38 0 -60 -22zM433 606
q47 -40 47 -107q0 -42 -16 -71t-64 -72q-30 -26 -44 -45t-19 -43t-5 -66h-72v27q0 60 14.5 92t61.5 76q36 34 46.5 53.5t10.5 47.5q0 35 -22.5 55.5t-61.5 20.5q-89 0 -94 -98h-84q4 83 50 126.5t128 43.5q77 0 124 -40zM249 65v91h94v-91h-94z" />
    <glyph glyph-name="ff" unicode="&#xfb00;" horiz-adv-x="578" 
d="M679 711l-17 -67q-9 3 -27 3q-38 0 -62 -21.5t-36 -70.5l-12 -47h101l-18 -70h-100l-109 -438h-87l109 438h-185l-110 -438h-87l109 438h-89l17 70h90l17 70q35 139 168 139q29 0 55 -6l-16 -67q-10 3 -28 3q-38 0 -61.5 -21.5t-35.5 -70.5l-12 -47h186l17 70
q35 139 168 139q29 0 55 -6z" />
    <glyph glyph-name="fi" unicode="&#xfb01;" horiz-adv-x="549" 
d="M406 711l-16 -67q-10 3 -28 3q-38 0 -61.5 -21.5t-35.5 -70.5l-12 -47h100l-17 -70h-100l-110 -438h-87l109 438h-89l17 70h90l17 70q35 139 168 139q29 0 55 -6zM320 0l126 508h88l-126 -508h-88zM473 613l24 99h88l-24 -99h-88z" />
    <glyph glyph-name="fl" unicode="&#xfb02;" horiz-adv-x="549" 
d="M406 711l-16 -67q-10 3 -28 3q-38 0 -61.5 -21.5t-35.5 -70.5l-12 -47h100l-17 -70h-100l-110 -438h-87l109 438h-89l17 70h90l17 70q35 139 168 139q29 0 55 -6zM320 0l177 712h88l-177 -712h-88z" />
    <glyph glyph-name="ffi" unicode="&#xfb03;" horiz-adv-x="822" 
d="M399 0h-87l109 438h-185l-110 -438h-87l109 438h-89l17 70h90l17 70q35 139 168 139q29 0 55 -6l-16 -67q-10 3 -28 3q-38 0 -61.5 -21.5t-35.5 -70.5l-12 -47h186l17 70q35 139 168 139q29 0 55 -6l-17 -67q-9 3 -27 3q-38 0 -62 -21.5t-36 -70.5l-12 -47h101l-18 -70
h-100zM834 613h-88l24 99h88zM807 508l-126 -508h-88l126 508h88z" />
    <glyph glyph-name="ffl" unicode="&#xfb04;" horiz-adv-x="822" 
d="M399 0h-87l109 438h-185l-110 -438h-87l109 438h-89l17 70h90l17 70q35 139 168 139q29 0 55 -6l-16 -67q-10 3 -28 3q-38 0 -61.5 -21.5t-35.5 -70.5l-12 -47h186l17 70q35 139 168 139q29 0 55 -6l-17 -67q-9 3 -27 3q-38 0 -62 -21.5t-36 -70.5l-12 -47h101l-18 -70
h-100zM681 0h-88l177 712h88z" />
    <glyph glyph-name="uniFEFF" unicode="&#xfeff;" horiz-adv-x="0" 
 />
    <glyph glyph-name="J.acute.loclNLD" horiz-adv-x="356" 
d="M11 -5q-37 0 -58 9l19 79q20 -5 38 -5q61 0 98.5 33t56.5 111l123 490h92l-130 -521q-48 -196 -239 -196zM283 773l116 143h118l-153 -143h-81z" />
    <glyph glyph-name="Ccedilla.ss01" horiz-adv-x="690" 
d="M576 697.5q55 -28.5 84 -80t29 -118.5q0 -22 -3 -43h-95q2 24 2 34q0 70 -42 111t-114 41q-87 0 -150.5 -56.5t-96 -142t-32.5 -167.5q0 -95 44 -150.5t124 -55.5q72 0 131 43.5t87 116.5h96q-37 -113 -123 -178.5t-199 -65.5q-121 0 -188.5 76t-67.5 206q0 106 44.5 212
t131.5 176t209 70q74 0 129 -28.5zM95 -211l165 162h84l-134 -162h-115z" />
    <glyph glyph-name="Scedilla.ss01" horiz-adv-x="609" 
d="M610 548q0 -28 -7 -56h-93q5 27 5 43q0 56 -36 84t-104 28q-51 0 -86.5 -18t-53.5 -45.5t-18 -57.5q0 -46 32 -70.5t108 -49.5q62 -21 100.5 -42.5t62.5 -58.5t24 -96q0 -53 -32.5 -104.5t-96.5 -85t-153 -33.5q-113 0 -173.5 48.5t-60.5 140.5q0 30 7 61h94
q-6 -28 -6 -51q0 -60 38 -90t110 -30q60 0 100 20.5t58 51t18 61.5q0 34 -16 55.5t-44.5 36.5t-79.5 33q-63 22 -101 42.5t-61 56.5t-23 93q0 49 30 98t89.5 81t142.5 32q226 0 226 -178zM47 -211l165 162h84l-134 -162h-115z" />
    <glyph glyph-name="uni0162.ss01" horiz-adv-x="599" 
d="M440 630l-157 -630h-93l157 630h-243l20 82h579l-20 -82h-243zM33 -211l165 162h84l-134 -162h-115z" />
    <glyph glyph-name="i.loclTRK" horiz-adv-x="244" 
d="M15 0l126 508h88l-126 -508h-88zM168 613l24 99h88l-24 -99h-88z" />
    <glyph glyph-name="j.acute.loclNLD" horiz-adv-x="249" 
d="M-75 -189q-32 0 -56 7l17 68q13 -3 27 -3q40 0 64.5 23t38.5 79l130 523h88l-137 -548q-37 -149 -172 -149zM140 569l116 143h118l-153 -143h-81z" />
    <glyph glyph-name="ccedilla.ss01" horiz-adv-x="534" 
d="M461.5 473.5q50.5 -48.5 50.5 -130.5q0 -16 -1 -25h-91q1 7 1 20q0 52 -27 82t-77 30q-58 0 -101 -40t-65.5 -99t-22.5 -114q0 -65 29.5 -102t81.5 -37q50 0 91 33.5t59 85.5h93q-29 -86 -96 -138.5t-153 -52.5q-91 0 -143.5 56t-52.5 153q0 74 33 150t97.5 126.5
t154.5 50.5q89 0 139.5 -48.5zM21 -211l165 162h84l-134 -162h-115z" />
    <glyph glyph-name="scedilla.ss01" horiz-adv-x="494" 
d="M419 487.5q45 -34.5 45 -99.5q0 -22 -4 -39h-85q3 27 3 31q0 36 -25.5 55t-73.5 19q-50 0 -79 -21t-29 -57q0 -22 10 -35t29.5 -21.5t61.5 -22.5q51 -17 80.5 -31t50 -42t20.5 -75q0 -42 -24.5 -79t-74 -60.5t-120.5 -23.5q-91 0 -141 36t-50 105q0 26 5 42h89
q-4 -15 -4 -34q0 -38 27.5 -58.5t80.5 -20.5q58 0 89 22.5t31 62.5q0 34 -25 51t-90 38q-46 15 -71.5 27.5t-43.5 38.5t-18 71q0 40 23.5 75.5t70 57.5t110.5 22q87 0 132 -34.5zM-11 -211l165 162h84l-134 -162h-115z" />
    <glyph glyph-name="uni0163.ss01" horiz-adv-x="320" 
d="M157 119q0 -26 13.5 -38t42.5 -12q17 0 35 4l-19 -72q-18 -5 -42 -5q-62 0 -91 25t-29 80q0 26 9 62l69 275h-89l18 70h88l31 123h88l-31 -123h101l-18 -70h-100l-70 -281q-6 -22 -6 -38zM-83 -211l165 162h84l-134 -162h-115z" />
    <glyph glyph-name="a.sups" horiz-adv-x="393" 
d="M385 668.5q34 -27.5 34 -82.5q0 -22 -6 -46l-29 -116q-15 -64 -14 -94h-70q0 19 5 37h-2q-50 -45 -123 -45q-53 0 -83 26t-30 67q0 103 165 127q57 8 110 10l2 6q4 13 4 29q0 54 -67 54q-35 0 -57 -17t-29 -47h-76q12 52 56 85.5t111 33.5q65 0 99 -27.5zM239 490
q-53 -8 -73 -24.5t-20 -41.5q0 -21 16 -33.5t45 -12.5q43 0 74 25.5t43 70.5l6 26q-46 -4 -91 -10z" />
    <glyph glyph-name="b.sups" horiz-adv-x="424" 
d="M232 654q20 19 47 30t56 11q60 0 93.5 -36.5t33.5 -102.5q0 -53 -23.5 -108t-68 -91t-104.5 -36q-37 0 -64.5 17.5t-38.5 46.5h-1l-14 -55h-74l125 498h75l-44 -174h2zM244 611q-28 -25 -43 -63.5t-15 -75.5q0 -42 18.5 -66t52.5 -24q39 0 67 25t42.5 63t14.5 75
q0 43 -18.5 67t-52.5 24q-38 0 -66 -25z" />
    <glyph glyph-name="c.sups" horiz-adv-x="393" 
d="M404.5 660.5q38.5 -35.5 38.5 -95.5q0 -5 -2 -15h-78q2 6 2 13q0 33 -19.5 52.5t-53.5 19.5q-38 0 -66 -26t-43 -64.5t-15 -73.5q0 -42 19.5 -66t53.5 -24q33 0 59 22t37 55h81q-21 -62 -70 -100t-113 -38q-67 0 -106.5 40.5t-39.5 110.5q0 51 24 103t71 87t114 35
q68 0 106.5 -35.5z" />
    <glyph glyph-name="d.sups" horiz-adv-x="423" 
d="M314 330l9 33h-2q-21 -19 -49 -30.5t-56 -11.5q-61 0 -94.5 36.5t-33.5 102.5q0 53 23.5 108t68.5 91t105 36q36 0 63 -17t38 -45h2l48 195h76l-124 -498h-74zM226.5 609q-28.5 -25 -43 -63t-14.5 -75q0 -43 18.5 -67t52.5 -24q38 0 66.5 25t43 63.5t14.5 75.5
q0 42 -18.5 66t-52.5 24q-38 0 -66.5 -25z" />
    <glyph glyph-name="e.sups" horiz-adv-x="404" 
d="M161 459q0 -42 22 -62.5t59 -20.5q33 0 59.5 17t38.5 44h77q-20 -50 -67 -83.5t-110 -33.5q-74 0 -112 39t-38 110q0 52 24 104.5t71.5 87.5t113.5 35q71 0 108 -37t37 -103q0 -24 -10 -64h-269q-4 -16 -4 -33zM223 614.5q-32 -25.5 -47 -72.5h195q2 16 2 23q0 37 -20 56
t-57 19q-41 0 -73 -25.5z" />
    <glyph glyph-name="egrave.sups" horiz-adv-x="404" 
d="M212 828h97l49 -99h-67zM161 459q0 -42 22 -62.5t59 -20.5q33 0 59.5 17t38.5 44h77q-20 -50 -67 -83.5t-110 -33.5q-74 0 -112 39t-38 110q0 52 24 104.5t71.5 87.5t113.5 35q71 0 108 -37t37 -103q0 -24 -10 -64h-269q-4 -16 -4 -33zM223 614.5q-32 -25.5 -47 -72.5
h195q2 16 2 23q0 37 -20 56t-57 19q-41 0 -73 -25.5z" />
    <glyph glyph-name="f.sups" horiz-adv-x="230" 
d="M364 828l-14 -57q-15 3 -21 3q-27 0 -43 -14t-25 -47l-7 -27h71l-14 -59h-71l-74 -297h-75l74 297h-63l15 59h63l11 46q26 100 128 100q21 0 45 -4z" />
    <glyph glyph-name="g.sups" horiz-adv-x="421" 
d="M346 678.5q27 -16.5 40 -46.5h1l14 54h72l-87 -354q-17 -69 -66 -103.5t-125 -34.5q-67 0 -102.5 25t-35.5 70q0 12 2 19h73q-1 -5 -1 -14q0 -22 17.5 -33.5t50.5 -11.5q46 0 74.5 24t42.5 77l5 23h-1q-48 -40 -108 -40q-57 0 -89 38t-32 105q0 49 23 100t66 85t101 34
q38 0 65 -16.5zM223.5 610q-26.5 -25 -40.5 -60.5t-14 -67.5q0 -40 18 -63.5t51 -23.5q39 0 67.5 24t43 59t14.5 69q0 42 -20.5 65t-57.5 23q-35 0 -61.5 -25z" />
    <glyph glyph-name="h.sups" horiz-adv-x="422" 
d="M230 648q21 22 49.5 34t59.5 12q52 0 81 -27t29 -78q0 -26 -7 -51l-52 -208h-76l52 207q6 24 6 41q0 27 -15 41t-43 14q-38 0 -70.5 -27t-44.5 -77l-50 -199h-75l124 498h75l-44 -180h1z" />
    <glyph glyph-name="i.sups" horiz-adv-x="185" 
d="M180 754l18 74h75l-18 -74h-75zM74 330l88 356h75l-88 -356h-75z" />
    <glyph glyph-name="j.sups" horiz-adv-x="190" 
d="M184 754l18 74h76l-18 -74h-76zM99.5 223.5q-33.5 -26.5 -80.5 -26.5q-26 0 -47 6l14 58q7 -3 20 -3q29 0 46 15.5t26 53.5l89 359h76l-96 -381q-14 -55 -47.5 -81.5z" />
    <glyph glyph-name="k.sups" horiz-adv-x="372" 
d="M397 330h-88l-113 180h-2l-45 -180h-75l124 498h75l-70 -282h2l160 140h103l-197 -168z" />
    <glyph glyph-name="l.sups" horiz-adv-x="185" 
d="M74 330l124 498h75l-124 -498h-75z" />
    <glyph glyph-name="m.sups" horiz-adv-x="631" 
d="M631 668q27 -26 27 -77q0 -21 -8 -55l-52 -206h-75l52 210q7 30 7 43q0 26 -13.5 38t-40.5 12q-36 0 -64.5 -28.5t-40.5 -77.5l-49 -197h-76l54 214q4 17 4 33q0 27 -13.5 41.5t-38.5 14.5q-37 0 -65.5 -29.5t-40.5 -79.5l-49 -194h-75l89 356h72l-9 -39h1q43 47 101 47
q38 0 63 -17t34 -50q53 67 128 67q51 0 78 -26z" />
    <glyph glyph-name="n.sups" horiz-adv-x="421" 
d="M420 667q29 -27 29 -78q0 -22 -8 -51l-52 -208h-75l51 207q6 19 6 41q0 27 -15 41t-42 14q-39 0 -71 -27t-44 -77l-50 -199h-75l89 356h72l-11 -41h2q22 23 51.5 36t61.5 13q52 0 81 -27z" />
    <glyph glyph-name="o.sups" horiz-adv-x="415" 
d="M410 655.5q41 -40.5 41 -114.5q0 -51 -24 -102.5t-70.5 -85t-111.5 -33.5q-74 0 -114 40.5t-40 114.5q0 51 23.5 102.5t70 85t110.5 33.5q74 0 115 -40.5zM224.5 608.5q-27.5 -25.5 -41.5 -63t-14 -73.5q0 -44 20 -67.5t60 -23.5q39 0 67.5 25.5t42.5 63t14 73.5
q0 44 -20.5 67.5t-61.5 23.5q-39 0 -66.5 -25.5z" />
    <glyph glyph-name="p.sups" horiz-adv-x="423" 
d="M427.5 658.5q33.5 -36.5 33.5 -102.5q0 -53 -23.5 -108t-68 -91t-104.5 -36q-36 0 -63 17t-38 45h-2l-46 -183h-75l121 486h74l-9 -34h2q21 20 48.5 31.5t56.5 11.5q60 0 93.5 -36.5zM243 611q-28 -25 -42.5 -63.5t-14.5 -75.5q0 -42 18.5 -66t52.5 -24q38 0 66.5 25
t43 63t14.5 75q0 43 -19 67t-53 24q-38 0 -66 -25z" />
    <glyph glyph-name="q.sups" horiz-adv-x="424" 
d="M348.5 677.5q27.5 -17.5 38.5 -47.5h2l14 56h74l-122 -486h-75l40 162h-1q-21 -19 -48 -30t-55 -11q-61 0 -94.5 36.5t-33.5 102.5q0 53 23.5 108t68.5 91t105 36q36 0 63.5 -17.5zM226.5 609q-28.5 -25 -43 -63t-14.5 -75q0 -43 18.5 -67t52.5 -24q38 0 66.5 25t43 63.5
t14.5 75.5q0 42 -18.5 66t-52.5 24q-38 0 -66.5 -25z" />
    <glyph glyph-name="r.sups" horiz-adv-x="273" 
d="M373 687l-16 -69q-12 3 -29 3q-51 0 -86 -31t-49 -88l-43 -172h-75l88 356h72l-12 -49h1q50 53 121 53q15 0 28 -3z" />
    <glyph glyph-name="s.sups" horiz-adv-x="366" 
d="M373.5 671.5q34.5 -24.5 34.5 -70.5q0 -17 -3 -26h-73q2 12 2 19q0 47 -66 47q-33 0 -52 -12t-19 -35q0 -21 13 -29t57 -22q38 -12 59 -22t37 -30.5t16 -54.5q0 -30 -18 -56.5t-54.5 -43t-89.5 -16.5q-69 0 -107 26t-38 74q0 16 4 28h76q-3 -10 -3 -21q0 -25 19 -38
t55 -13q39 0 59 13.5t20 38.5q0 22 -17 33t-65 26q-34 11 -52.5 19.5t-32 27.5t-13.5 52q0 28 17.5 53.5t52 41t82.5 15.5q65 0 99.5 -24.5z" />
    <glyph glyph-name="t.sups" horiz-adv-x="240" 
d="M190 424q0 -18 9.5 -26.5t30.5 -8.5q4 0 25 3l-15 -61q-13 -4 -34 -4q-48 0 -70.5 19t-22.5 61q0 25 6 44l44 176h-62l14 59h62l22 87h76l-22 -87h72l-15 -59h-71l-45 -179q-4 -12 -4 -24z" />
    <glyph glyph-name="u.sups" horiz-adv-x="421" 
d="M128 349q-29 27 -29 78q0 22 8 51l52 208h75l-51 -207q-6 -24 -6 -41q0 -27 15 -41t42 -14q39 0 71 27t44 77l50 199h76l-89 -356h-73l11 41h-2q-22 -23 -51.5 -36t-61.5 -13q-52 0 -81 27z" />
    <glyph glyph-name="v.sups" horiz-adv-x="349" 
d="M143 330l-39 356h76l12 -142q6 -78 10 -154h2l87 154l84 142h86l-218 -356h-100z" />
    <glyph glyph-name="w.sups" horiz-adv-x="565" 
d="M379 330l-2 146l-1 153h-2q-38 -83 -74 -153l-76 -146h-105l-7 356h72v-143q0 -54 -2 -156h2q48 101 75 152l75 147h105l2 -147q1 -35 1 -108v-44h2q42 94 74 156l70 143h80l-183 -356h-106z" />
    <glyph glyph-name="x.sups" horiz-adv-x="357" 
d="M378 330h-82l-59 136h-1l-121 -136h-97l180 188l-81 168h81l52 -122h2l106 122h96l-164 -174z" />
    <glyph glyph-name="y.sups" horiz-adv-x="353" 
d="M151 223q-39 -26 -100 -26q-22 0 -40 5l14 59q13 -3 27 -3q36 0 56.5 14.5t48.5 57.5l-53 356h76l33 -275h2l165 275h85l-231 -367q-44 -70 -83 -96z" />
    <glyph glyph-name="z.sups" horiz-adv-x="342" 
d="M150 393v-2h208l-15 -61h-305l16 66l258 227v2h-194l15 61h293l-17 -66z" />
    <glyph glyph-name="a.smcp" horiz-adv-x="565" 
d="M138 146l-91 -146h-105l352 548h123l80 -548h-91l-18 146h-250zM372 270l-7 58q-10 72 -19 154h-2q-68 -115 -129 -212l-28 -45h191z" />
    <glyph glyph-name="aacute.smcp" horiz-adv-x="565" 
d="M138 146l-91 -146h-105l352 548h123l80 -548h-91l-18 146h-250zM372 270l-7 58q-10 72 -19 154h-2q-68 -115 -129 -212l-28 -45h191zM295 609l116 143h118l-153 -143h-81z" />
    <glyph glyph-name="abreve.smcp" horiz-adv-x="565" 
d="M138 146l-91 -146h-105l352 548h123l80 -548h-91l-18 146h-250zM372 270l-7 58q-10 72 -19 154h-2q-68 -115 -129 -212l-28 -45h191zM484.5 646.5q-48.5 -37.5 -116.5 -37.5q-63 0 -96 30.5t-33 87.5q0 16 2 25h59q-1 -5 -1 -15q0 -32 18 -49t53 -17q40 0 68.5 21
t41.5 60h72q-19 -68 -67.5 -105.5z" />
    <glyph glyph-name="acircumflex.smcp" horiz-adv-x="565" 
d="M138 146l-91 -146h-105l352 548h123l80 -548h-91l-18 146h-250zM372 270l-7 58q-10 72 -19 154h-2q-68 -115 -129 -212l-28 -45h191zM443 609l-52 93l-96 -93h-96l149 143h97l79 -143h-81z" />
    <glyph glyph-name="adieresis.smcp" horiz-adv-x="565" 
d="M138 146l-91 -146h-105l352 548h123l80 -548h-91l-18 146h-250zM372 270l-7 58q-10 72 -19 154h-2q-68 -115 -129 -212l-28 -45h191zM233 653l24 99h82l-24 -99h-82zM428 653l24 99h82l-24 -99h-82z" />
    <glyph glyph-name="agrave.smcp" horiz-adv-x="565" 
d="M138 146l-91 -146h-105l352 548h123l80 -548h-91l-18 146h-250zM372 270l-7 58q-10 72 -19 154h-2q-68 -115 -129 -212l-28 -45h191zM428 609h-71l-93 143h109z" />
    <glyph glyph-name="amacron.smcp" horiz-adv-x="565" 
d="M138 146l-91 -146h-105l352 548h123l80 -548h-91l-18 146h-250zM372 270l-7 58q-10 72 -19 154h-2q-68 -115 -129 -212l-28 -45h191zM231 656l15 64h285l-16 -64h-284z" />
    <glyph glyph-name="aogonek.smcp" horiz-adv-x="565" 
d="M427 -138q22 0 39 7l-14 -56q-23 -7 -52 -7q-44 0 -66 18.5t-22 52.5q0 32 25.5 61t80.5 62h-12l-18 146h-250l-91 -146h-105l352 548h123l80 -548q-58 -35 -80 -61.5t-22 -49.5q0 -27 32 -27zM372 270l-7 58q-10 72 -19 154h-2q-68 -115 -129 -212l-28 -45h191z" />
    <glyph glyph-name="aring.smcp" horiz-adv-x="565" 
d="M138 146l-91 -146h-105l352 548h123l80 -548h-91l-18 146h-250zM372 270l-7 58q-10 72 -19 154h-2q-68 -115 -129 -212l-28 -45h191zM445.5 776.5q29.5 -29.5 29.5 -70.5q0 -42 -29.5 -71.5t-71.5 -29.5q-41 0 -70.5 29.5t-29.5 71.5q0 41 29.5 70.5t70.5 29.5
q42 0 71.5 -29.5zM334 747q-17 -17 -17 -41t17 -41t40 -17q25 0 41.5 16.5t16.5 41.5q0 24 -16.5 41t-41.5 17q-23 0 -40 -17z" />
    <glyph glyph-name="atilde.smcp" horiz-adv-x="565" 
d="M138 146l-91 -146h-105l352 548h123l80 -548h-91l-18 146h-250zM372 270l-7 58q-10 72 -19 154h-2q-68 -115 -129 -212l-28 -45h191zM519 661q-32 -30 -74 -30q-23 0 -40 7.5t-38 21.5q-18 11 -29 16.5t-25 5.5q-41 0 -58 -51h-60q15 54 47.5 84.5t74.5 30.5
q23 0 40.5 -7.5t38.5 -21.5q17 -11 28.5 -16.5t24.5 -5.5q42 0 60 51h58q-16 -55 -48 -85z" />
    <glyph glyph-name="ae.smcp" horiz-adv-x="787" 
d="M482 319h248l-20 -78h-235l-14 -162h234l-19 -79h-312l14 157h-218l-117 -157h-111l413 548h459l-19 -79h-290zM406 470h-13l-174 -234h166z" />
    <glyph glyph-name="b.smcp" horiz-adv-x="547" 
d="M474 514.5q42 -33.5 42 -93.5q0 -46 -33.5 -86t-95.5 -57v-2q38 -11 58.5 -37.5t20.5 -65.5q0 -41 -24 -81t-72.5 -66t-117.5 -26h-235l136 548h195q84 0 126 -33.5zM186 315h105q71 0 101 26t30 66q0 33 -24 49.5t-75 16.5h-98zM126 75h117q68 0 98 27.5t30 68.5
q0 36 -24.5 53.5t-78.5 17.5h-100z" />
    <glyph glyph-name="c.smcp" 
d="M500 514q53 -48 53 -131q0 -17 -3 -35h-95q1 9 1 25q0 51 -30.5 79t-83.5 28q-68 0 -116 -42t-72.5 -103.5t-24.5 -119.5q0 -71 32.5 -109t93.5 -38q57 0 101.5 29.5t64.5 81.5h97q-30 -90 -102.5 -141.5t-169.5 -51.5q-102 0 -157 58.5t-55 164.5q0 80 36.5 162
t108 136.5t171.5 54.5q97 0 150 -48z" />
    <glyph glyph-name="cacute.smcp" 
d="M500 514q53 -48 53 -131q0 -17 -3 -35h-95q1 9 1 25q0 51 -30.5 79t-83.5 28q-68 0 -116 -42t-72.5 -103.5t-24.5 -119.5q0 -71 32.5 -109t93.5 -38q57 0 101.5 29.5t64.5 81.5h97q-30 -90 -102.5 -141.5t-169.5 -51.5q-102 0 -157 58.5t-55 164.5q0 80 36.5 162
t108 136.5t171.5 54.5q97 0 150 -48zM294 609l116 143h118l-153 -143h-81z" />
    <glyph glyph-name="ccaron.smcp" 
d="M500 514q53 -48 53 -131q0 -17 -3 -35h-95q1 9 1 25q0 51 -30.5 79t-83.5 28q-68 0 -116 -42t-72.5 -103.5t-24.5 -119.5q0 -71 32.5 -109t93.5 -38q57 0 101.5 29.5t64.5 81.5h97q-30 -90 -102.5 -141.5t-169.5 -51.5q-102 0 -157 58.5t-55 164.5q0 80 36.5 162
t108 136.5t171.5 54.5q97 0 150 -48zM312 609l-79 143h81l52 -93l96 93h96l-149 -143h-97z" />
    <glyph glyph-name="ccedilla.smcp" 
d="M456 373q0 51 -30.5 79t-83.5 28q-68 0 -116 -42t-72.5 -103.5t-24.5 -119.5q0 -71 32.5 -109t93.5 -38q57 0 101.5 29.5t64.5 81.5h97q-27 -81 -89 -131t-146 -60l-45 -50q8 2 19 2q29 0 47 -17.5t18 -49.5q0 -39 -36.5 -66t-91.5 -27q-57 0 -99 27l21 37q35 -21 76 -21
q30 0 48 13t18 34q0 17 -11 26.5t-31 9.5q-18 0 -33 -6l-17 16l65 70q-95 4 -146 62.5t-51 160.5q0 80 36.5 162t108 136.5t171.5 54.5q97 0 150 -48t53 -131q0 -17 -3 -35h-95q1 9 1 25z" />
    <glyph glyph-name="ccircumflex.smcp" 
d="M500 514q53 -48 53 -131q0 -17 -3 -35h-95q1 9 1 25q0 51 -30.5 79t-83.5 28q-68 0 -116 -42t-72.5 -103.5t-24.5 -119.5q0 -71 32.5 -109t93.5 -38q57 0 101.5 29.5t64.5 81.5h97q-30 -90 -102.5 -141.5t-169.5 -51.5q-102 0 -157 58.5t-55 164.5q0 80 36.5 162
t108 136.5t171.5 54.5q97 0 150 -48zM442 609l-52 93l-96 -93h-96l149 143h97l79 -143h-81z" />
    <glyph glyph-name="cdotaccent.smcp" 
d="M500 514q53 -48 53 -131q0 -17 -3 -35h-95q1 9 1 25q0 51 -30.5 79t-83.5 28q-68 0 -116 -42t-72.5 -103.5t-24.5 -119.5q0 -71 32.5 -109t93.5 -38q57 0 101.5 29.5t64.5 81.5h97q-30 -90 -102.5 -141.5t-169.5 -51.5q-102 0 -157 58.5t-55 164.5q0 80 36.5 162
t108 136.5t171.5 54.5q97 0 150 -48zM327 653l24 99h88l-24 -99h-88z" />
    <glyph glyph-name="d.smcp" horiz-adv-x="609" 
d="M502.5 486.5q68.5 -61.5 68.5 -176.5q0 -75 -35 -146t-108.5 -117.5t-183.5 -46.5h-227l136 548h151q130 0 198.5 -61.5zM127 80h122q77 0 128.5 34t75.5 86t24 108q0 78 -45 119t-132 41h-75z" />
    <glyph glyph-name="eth.smcp" horiz-adv-x="616" 
d="M508.5 486.5q68.5 -61.5 68.5 -176.5q0 -75 -34.5 -146t-108 -117.5t-183.5 -46.5h-228l61 244h-63l16 66h63l59 238h152q129 0 197.5 -61.5zM383.5 114q51.5 34 75.5 86t24 108q0 78 -45 119t-132 41h-75l-39 -158h146l-16 -66h-147l-41 -164h121q77 0 128.5 34z" />
    <glyph glyph-name="dcaron.smcp" horiz-adv-x="609" 
d="M502.5 486.5q68.5 -61.5 68.5 -176.5q0 -75 -35 -146t-108.5 -117.5t-183.5 -46.5h-227l136 548h151q130 0 198.5 -61.5zM127 80h122q77 0 128.5 34t75.5 86t24 108q0 78 -45 119t-132 41h-75zM305 609l-79 143h81l52 -93l96 93h96l-149 -143h-97z" />
    <glyph glyph-name="dcroat.smcp" horiz-adv-x="616" 
d="M508.5 486.5q68.5 -61.5 68.5 -176.5q0 -75 -34.5 -146t-108 -117.5t-183.5 -46.5h-228l61 244h-63l16 66h63l59 238h152q129 0 197.5 -61.5zM383.5 114q51.5 34 75.5 86t24 108q0 78 -45 119t-132 41h-75l-39 -158h146l-16 -66h-147l-41 -164h121q77 0 128.5 34z" />
    <glyph glyph-name="e.smcp" horiz-adv-x="526" 
d="M230 469l-37 -150h276l-20 -78h-276l-40 -162h301l-19 -79h-393l136 548h385l-19 -79h-294z" />
    <glyph glyph-name="eacute.smcp" horiz-adv-x="526" 
d="M230 469l-37 -150h276l-20 -78h-276l-40 -162h301l-19 -79h-393l136 548h385l-19 -79h-294zM300 609l116 143h118l-153 -143h-81z" />
    <glyph glyph-name="ebreve.smcp" horiz-adv-x="526" 
d="M230 469l-37 -150h276l-20 -78h-276l-40 -162h301l-19 -79h-393l136 548h385l-19 -79h-294zM490.5 646.5q-48.5 -37.5 -116.5 -37.5q-63 0 -96 30.5t-33 87.5q0 16 2 25h59q-1 -5 -1 -15q0 -32 18 -49t53 -17q40 0 68.5 21t41.5 60h72q-19 -68 -67.5 -105.5z" />
    <glyph glyph-name="ecaron.smcp" horiz-adv-x="526" 
d="M230 469l-37 -150h276l-20 -78h-276l-40 -162h301l-19 -79h-393l136 548h385l-19 -79h-294zM318 609l-79 143h81l52 -93l96 93h96l-149 -143h-97z" />
    <glyph glyph-name="ecircumflex.smcp" horiz-adv-x="526" 
d="M230 469l-37 -150h276l-20 -78h-276l-40 -162h301l-19 -79h-393l136 548h385l-19 -79h-294zM448 609l-52 93l-96 -93h-96l149 143h97l79 -143h-81z" />
    <glyph glyph-name="edieresis.smcp" horiz-adv-x="526" 
d="M230 469l-37 -150h276l-20 -78h-276l-40 -162h301l-19 -79h-393l136 548h385l-19 -79h-294zM239 653l24 99h82l-24 -99h-82zM434 653l24 99h82l-24 -99h-82z" />
    <glyph glyph-name="edotaccent.smcp" horiz-adv-x="526" 
d="M230 469l-37 -150h276l-20 -78h-276l-40 -162h301l-19 -79h-393l136 548h385l-19 -79h-294zM333 653l24 99h88l-24 -99h-88z" />
    <glyph glyph-name="egrave.smcp" horiz-adv-x="526" 
d="M230 469l-37 -150h276l-20 -78h-276l-40 -162h301l-19 -79h-393l136 548h385l-19 -79h-294zM433 609h-71l-93 143h109z" />
    <glyph glyph-name="emacron.smcp" horiz-adv-x="526" 
d="M230 469l-37 -150h276l-20 -78h-276l-40 -162h301l-19 -79h-393l136 548h385l-19 -79h-294zM236 656l15 64h285l-16 -64h-284z" />
    <glyph glyph-name="eogonek.smcp" horiz-adv-x="526" 
d="M193 319h276l-20 -78h-276l-40 -162h301l-19 -79q-58 -35 -80 -61.5t-22 -49.5q0 -27 32 -27q22 0 39 7l-14 -56q-23 -7 -52 -7q-44 0 -66 18.5t-22 52.5q0 32 25.5 61t80.5 62h-314l136 548h385l-19 -79h-294z" />
    <glyph glyph-name="f.smcp" horiz-adv-x="489" 
d="M230 468l-41 -166h265l-20 -80h-265l-55 -222h-92l136 548h375l-19 -80h-284z" />
    <glyph glyph-name="fi.smcp" horiz-adv-x="751" 
d="M230 468l-41 -166h265l-20 -80h-265l-55 -222h-92l136 548h375l-19 -80h-284zM511 0l136 548h92l-136 -548h-92z" />
    <glyph glyph-name="fl.smcp" horiz-adv-x="965" 
d="M230 468l-41 -166h265l-20 -80h-265l-55 -222h-92l136 548h375l-19 -80h-284zM911 80l-19 -80h-381l136 548h92l-117 -468h289z" />
    <glyph glyph-name="g.smcp" horiz-adv-x="612" 
d="M514 515.5q54 -46.5 54 -126.5q0 -12 -1 -18h-97v7q0 51 -31 77t-88 26q-70 0 -120.5 -42t-76.5 -105t-26 -123q0 -69 34 -107t96 -38q67 0 115 35.5t67 109.5h-151l18 75h238l-71 -286h-81l13 55h-2q-30 -31 -75.5 -48.5t-96.5 -17.5q-95 0 -147 57t-52 160
q0 82 38.5 164.5t113.5 137t180 54.5q95 0 149 -46.5z" />
    <glyph glyph-name="gbreve.smcp" horiz-adv-x="612" 
d="M514 515.5q54 -46.5 54 -126.5q0 -12 -1 -18h-97v7q0 51 -31 77t-88 26q-70 0 -120.5 -42t-76.5 -105t-26 -123q0 -69 34 -107t96 -38q67 0 115 35.5t67 109.5h-151l18 75h238l-71 -286h-81l13 55h-2q-30 -31 -75.5 -48.5t-96.5 -17.5q-95 0 -147 57t-52 160
q0 82 38.5 164.5t113.5 137t180 54.5q95 0 149 -46.5zM490.5 646.5q-48.5 -37.5 -116.5 -37.5q-63 0 -96 30.5t-33 87.5q0 16 2 25h59q-1 -5 -1 -15q0 -32 18 -49t53 -17q40 0 68.5 21t41.5 60h72q-19 -68 -67.5 -105.5z" />
    <glyph glyph-name="gcircumflex.smcp" horiz-adv-x="612" 
d="M514 515.5q54 -46.5 54 -126.5q0 -12 -1 -18h-97v7q0 51 -31 77t-88 26q-70 0 -120.5 -42t-76.5 -105t-26 -123q0 -69 34 -107t96 -38q67 0 115 35.5t67 109.5h-151l18 75h238l-71 -286h-81l13 55h-2q-30 -31 -75.5 -48.5t-96.5 -17.5q-95 0 -147 57t-52 160
q0 82 38.5 164.5t113.5 137t180 54.5q95 0 149 -46.5zM449 609l-52 93l-96 -93h-96l149 143h97l79 -143h-81z" />
    <glyph glyph-name="gcommaaccent.smcp" horiz-adv-x="612" 
d="M514 515.5q54 -46.5 54 -126.5q0 -12 -1 -18h-97v7q0 51 -31 77t-88 26q-70 0 -120.5 -42t-76.5 -105t-26 -123q0 -69 34 -107t96 -38q67 0 115 35.5t67 109.5h-151l18 75h238l-71 -286h-81l13 55h-2q-30 -31 -75.5 -48.5t-96.5 -17.5q-95 0 -147 57t-52 160
q0 82 38.5 164.5t113.5 137t180 54.5q95 0 149 -46.5zM179 -257h-38l64 103h-33l21 89h89l-22 -89z" />
    <glyph glyph-name="gdotaccent.smcp" horiz-adv-x="612" 
d="M514 515.5q54 -46.5 54 -126.5q0 -12 -1 -18h-97v7q0 51 -31 77t-88 26q-70 0 -120.5 -42t-76.5 -105t-26 -123q0 -69 34 -107t96 -38q67 0 115 35.5t67 109.5h-151l18 75h238l-71 -286h-81l13 55h-2q-30 -31 -75.5 -48.5t-96.5 -17.5q-95 0 -147 57t-52 160
q0 82 38.5 164.5t113.5 137t180 54.5q95 0 149 -46.5zM334 653l24 99h88l-24 -99h-88z" />
    <glyph glyph-name="h.smcp" horiz-adv-x="630" 
d="M390 0l61 244h-277l-60 -244h-92l136 548h92l-56 -224h276l56 224h92l-136 -548h-92z" />
    <glyph glyph-name="hbar.smcp" horiz-adv-x="630" 
d="M590 437l-108 -437h-92l61 244h-277l-60 -244h-92l108 437h-45l13 55h46l14 56h92l-14 -56h276l14 56h92l-14 -56h45l-14 -55h-45zM222 437l-28 -113h276l28 113h-276z" />
    <glyph glyph-name="uni0125.smcp" horiz-adv-x="630" 
d="M390 0l61 244h-277l-60 -244h-92l136 548h92l-56 -224h276l56 224h92l-136 -548h-92zM486 609l-52 93l-96 -93h-96l149 143h97l79 -143h-81z" />
    <glyph glyph-name="i.smcp" horiz-adv-x="262" 
d="M22 0l136 548h92l-136 -548h-92z" />
    <glyph glyph-name="iacute.smcp" horiz-adv-x="262" 
d="M22 0l136 548h92l-136 -548h-92zM153 609l116 143h118l-153 -143h-81z" />
    <glyph glyph-name="ibreve.smcp" horiz-adv-x="262" 
d="M22 0l136 548h92l-136 -548h-92zM331.5 646.5q-44.5 -37.5 -105.5 -37.5q-54 0 -83.5 29.5t-29.5 83.5q0 17 3 30h58q-1 -5 -1 -18q0 -30 15.5 -46.5t43.5 -16.5q33 0 57 21t36 60h69q-18 -68 -62.5 -105.5z" />
    <glyph glyph-name="icircumflex.smcp" horiz-adv-x="262" 
d="M22 0l136 548h92l-136 -548h-92zM290 610l-39 93l-86 -93h-93l135 142h96l64 -142h-77z" />
    <glyph glyph-name="idieresis.smcp" horiz-adv-x="262" 
d="M22 0l136 548h92l-136 -548h-92zM113 653l24 99h82l-24 -99h-82zM267 653l24 99h82l-25 -99h-81z" />
    <glyph glyph-name="i.loclTRK.smcp" horiz-adv-x="262" 
d="M22 0l136 548h92l-136 -548h-92zM186 653l24 99h88l-24 -99h-88z" />
    <glyph glyph-name="igrave.smcp" horiz-adv-x="262" 
d="M22 0l136 548h92l-136 -548h-92zM286 609h-71l-93 143h109z" />
    <glyph glyph-name="ij.smcp" horiz-adv-x="572" 
d="M22 0l136 548h92l-136 -548h-92zM264 -4q-28 0 -51 7l19 77q15 -3 30 -3q49 0 78 25t44 85l90 361h91l-97 -390q-40 -162 -204 -162z" />
    <glyph glyph-name="imacron.smcp" horiz-adv-x="262" 
d="M22 0l136 548h92l-136 -548h-92zM102 656l16 64h257l-16 -64h-257z" />
    <glyph glyph-name="iogonek.smcp" horiz-adv-x="262" 
d="M34 -61.5q-22 -26.5 -22 -49.5q0 -27 32 -27q22 0 39 7l-14 -56q-23 -7 -52 -7q-44 0 -66 18.5t-22 52.5q0 32 25.5 61t80.5 62h-13l136 548h92l-136 -548q-58 -35 -80 -61.5z" />
    <glyph glyph-name="itilde.smcp" horiz-adv-x="262" 
d="M22 0l136 548h92l-136 -548h-92zM362 661q-30 -30 -69 -30q-19 0 -34 7.5t-33 21.5q-18 12 -27 17t-20 5q-35 0 -50 -51h-59q17 55 47 85t68 30q20 0 35.5 -8t33.5 -22q14 -11 24 -16t21 -5q35 0 53 51h56q-16 -55 -46 -85z" />
    <glyph glyph-name="j.smcp" horiz-adv-x="311" 
d="M2 -4q-28 0 -51 7l19 77q15 -3 30 -3q49 0 78 25t44 85l90 361h91l-97 -390q-40 -162 -204 -162z" />
    <glyph glyph-name="jcircumflex.smcp" horiz-adv-x="311" 
d="M2 -4q-28 0 -51 7l19 77q15 -3 30 -3q49 0 78 25t44 85l90 361h91l-97 -390q-40 -162 -204 -162zM343 610l-39 93l-86 -93h-93l135 142h96l64 -142h-77z" />
    <glyph glyph-name="k.smcp" horiz-adv-x="540" 
d="M468 0h-109l-181 269h-2l-67 -269h-92l136 548h92l-59 -238h2l264 238h129l-309 -268z" />
    <glyph glyph-name="kcommaaccent.smcp" horiz-adv-x="540" 
d="M468 0h-109l-181 269h-2l-67 -269h-92l136 548h92l-59 -238h2l264 238h129l-309 -268zM150 -257h-38l64 103h-33l21 89h89l-22 -89z" />
    <glyph glyph-name="l.smcp" horiz-adv-x="476" 
d="M422 80l-19 -80h-381l136 548h92l-117 -468h289z" />
    <glyph glyph-name="lacute.smcp" horiz-adv-x="476" 
d="M422 80l-19 -80h-381l136 548h92l-117 -468h289zM185 609l116 143h118l-153 -143h-81z" />
    <glyph glyph-name="lcaron.smcp" horiz-adv-x="476" 
d="M422 80l-19 -80h-381l136 548h92l-117 -468h289zM258 372l73 176h79l-98 -176h-54z" />
    <glyph glyph-name="lcommaaccent.smcp" horiz-adv-x="476" 
d="M422 80l-19 -80h-381l136 548h92l-117 -468h289zM134 -257h-38l64 103h-33l21 89h89l-22 -89z" />
    <glyph glyph-name="ldot.smcp" horiz-adv-x="536" 
d="M422 80l-19 -80h-381l136 548h92l-117 -468h289zM352 283l29 117h108l-29 -117h-108z" />
    <glyph glyph-name="j.acute.loclNLD.smcp" horiz-adv-x="311" 
d="M2 -4q-28 0 -51 7l19 77q15 -3 30 -3q49 0 78 25t44 85l90 361h91l-97 -390q-40 -162 -204 -162zM206 609l116 143h118l-153 -143h-81z" />
    <glyph glyph-name="lslash.smcp" horiz-adv-x="472" 
d="M399 0h-381l58 235l-77 -38l19 75l77 38l59 238h92l-48 -194l132 66l-19 -75l-132 -65l-50 -200h289z" />
    <glyph glyph-name="m.smcp" horiz-adv-x="802" 
d="M565 0l67 271q22 85 53 202h-2q-66 -111 -123 -202l-168 -271h-108l-33 271q-10 84 -22 202h-2q-24 -109 -48 -202l-68 -271h-89l136 548h143l31 -257q16 -133 22 -207h2q22 39 110 187l12 20l159 257h153l-136 -548h-89z" />
    <glyph glyph-name="n.smcp" horiz-adv-x="648" 
d="M368 0l-74 230q-34 102 -73 234h-2q-28 -126 -60 -252l-53 -212h-89l136 548h127l75 -230q26 -81 72 -234h2q28 126 60 252l53 212h89l-136 -548h-127z" />
    <glyph glyph-name="nacute.smcp" horiz-adv-x="648" 
d="M368 0l-74 230q-34 102 -73 234h-2q-28 -126 -60 -252l-53 -212h-89l136 548h127l75 -230q26 -81 72 -234h2q28 126 60 252l53 212h89l-136 -548h-127zM331 609l116 143h118l-153 -143h-81z" />
    <glyph glyph-name="ncaron.smcp" horiz-adv-x="648" 
d="M368 0l-74 230q-34 102 -73 234h-2q-28 -126 -60 -252l-53 -212h-89l136 548h127l75 -230q26 -81 72 -234h2q28 126 60 252l53 212h89l-136 -548h-127zM349 609l-79 143h81l52 -93l96 93h96l-149 -143h-97z" />
    <glyph glyph-name="ncommaaccent.smcp" horiz-adv-x="648" 
d="M368 0l-74 230q-34 102 -73 234h-2q-28 -126 -60 -252l-53 -212h-89l136 548h127l75 -230q26 -81 72 -234h2q28 126 60 252l53 212h89l-136 -548h-127zM191 -257h-38l64 103h-33l21 89h89l-22 -89z" />
    <glyph glyph-name="eng.smcp" horiz-adv-x="640" 
d="M477 -36q-16 -63 -55.5 -93t-95.5 -30q-32 0 -53 7l16 64q16 -2 26 -2q29 0 47.5 15t26.5 49l7 26l-97 244q-32 76 -81 210h-2q-17 -79 -55 -237l-55 -217h-89l136 548h115l83 -205l16 -42q39 -98 65 -168h2q19 88 55 236l44 179h89z" />
    <glyph glyph-name="ntilde.smcp" horiz-adv-x="648" 
d="M368 0l-74 230q-34 102 -73 234h-2q-28 -126 -60 -252l-53 -212h-89l136 548h127l75 -230q26 -81 72 -234h2q28 126 60 252l53 212h89l-136 -548h-127zM556 661q-32 -30 -74 -30q-23 0 -40 7.5t-38 21.5q-18 11 -29 16.5t-25 5.5q-41 0 -58 -51h-60q15 54 47.5 84.5
t74.5 30.5q23 0 40.5 -7.5t38.5 -21.5q17 -11 28.5 -16.5t24.5 -5.5q42 0 60 51h58q-16 -55 -48 -85z" />
    <glyph glyph-name="o.smcp" horiz-adv-x="614" 
d="M517 498q60 -64 60 -177q0 -77 -36.5 -154.5t-106.5 -129t-167 -51.5q-110 0 -170 64t-60 177q0 77 36.5 154.5t107 129t167.5 51.5q109 0 169 -64zM228 440q-48 -40 -72.5 -100t-24.5 -117q0 -73 36.5 -114t103.5 -41t115.5 40t73 100t24.5 117q0 73 -36.5 114
t-104.5 41q-67 0 -115 -40z" />
    <glyph glyph-name="oacute.smcp" horiz-adv-x="614" 
d="M517 498q60 -64 60 -177q0 -77 -36.5 -154.5t-106.5 -129t-167 -51.5q-110 0 -170 64t-60 177q0 77 36.5 154.5t107 129t167.5 51.5q109 0 169 -64zM228 440q-48 -40 -72.5 -100t-24.5 -117q0 -73 36.5 -114t103.5 -41t115.5 40t73 100t24.5 117q0 73 -36.5 114
t-104.5 41q-67 0 -115 -40zM304 609l116 143h118l-153 -143h-81z" />
    <glyph glyph-name="obreve.smcp" horiz-adv-x="614" 
d="M517 498q60 -64 60 -177q0 -77 -36.5 -154.5t-106.5 -129t-167 -51.5q-110 0 -170 64t-60 177q0 77 36.5 154.5t107 129t167.5 51.5q109 0 169 -64zM228 440q-48 -40 -72.5 -100t-24.5 -117q0 -73 36.5 -114t103.5 -41t115.5 40t73 100t24.5 117q0 73 -36.5 114
t-104.5 41q-67 0 -115 -40zM494.5 646.5q-48.5 -37.5 -116.5 -37.5q-63 0 -96 30.5t-33 87.5q0 16 2 25h59q-1 -5 -1 -15q0 -32 18 -49t53 -17q40 0 68.5 21t41.5 60h72q-19 -68 -67.5 -105.5z" />
    <glyph glyph-name="ocircumflex.smcp" horiz-adv-x="614" 
d="M517 498q60 -64 60 -177q0 -77 -36.5 -154.5t-106.5 -129t-167 -51.5q-110 0 -170 64t-60 177q0 77 36.5 154.5t107 129t167.5 51.5q109 0 169 -64zM228 440q-48 -40 -72.5 -100t-24.5 -117q0 -73 36.5 -114t103.5 -41t115.5 40t73 100t24.5 117q0 73 -36.5 114
t-104.5 41q-67 0 -115 -40zM452 609l-52 93l-96 -93h-96l149 143h97l79 -143h-81z" />
    <glyph glyph-name="odieresis.smcp" horiz-adv-x="614" 
d="M517 498q60 -64 60 -177q0 -77 -36.5 -154.5t-106.5 -129t-167 -51.5q-110 0 -170 64t-60 177q0 77 36.5 154.5t107 129t167.5 51.5q109 0 169 -64zM228 440q-48 -40 -72.5 -100t-24.5 -117q0 -73 36.5 -114t103.5 -41t115.5 40t73 100t24.5 117q0 73 -36.5 114
t-104.5 41q-67 0 -115 -40zM243 653l24 99h82l-24 -99h-82zM438 653l24 99h82l-24 -99h-82z" />
    <glyph glyph-name="ograve.smcp" horiz-adv-x="614" 
d="M517 498q60 -64 60 -177q0 -77 -36.5 -154.5t-106.5 -129t-167 -51.5q-110 0 -170 64t-60 177q0 77 36.5 154.5t107 129t167.5 51.5q109 0 169 -64zM228 440q-48 -40 -72.5 -100t-24.5 -117q0 -73 36.5 -114t103.5 -41t115.5 40t73 100t24.5 117q0 73 -36.5 114
t-104.5 41q-67 0 -115 -40zM437 609h-71l-93 143h109z" />
    <glyph glyph-name="ohungarumlaut.smcp" horiz-adv-x="614" 
d="M517 498q60 -64 60 -177q0 -77 -36.5 -154.5t-106.5 -129t-167 -51.5q-110 0 -170 64t-60 177q0 77 36.5 154.5t107 129t167.5 51.5q109 0 169 -64zM228 440q-48 -40 -72.5 -100t-24.5 -117q0 -73 36.5 -114t103.5 -41t115.5 40t73 100t24.5 117q0 73 -36.5 114
t-104.5 41q-67 0 -115 -40zM233 609l136 143h109l-166 -143h-79zM393 609l136 143h109l-166 -143h-79z" />
    <glyph glyph-name="omacron.smcp" horiz-adv-x="614" 
d="M517 498q60 -64 60 -177q0 -77 -36.5 -154.5t-106.5 -129t-167 -51.5q-110 0 -170 64t-60 177q0 77 36.5 154.5t107 129t167.5 51.5q109 0 169 -64zM228 440q-48 -40 -72.5 -100t-24.5 -117q0 -73 36.5 -114t103.5 -41t115.5 40t73 100t24.5 117q0 73 -36.5 114
t-104.5 41q-67 0 -115 -40zM240 656l15 64h285l-16 -64h-284z" />
    <glyph glyph-name="oslash.smcp" horiz-adv-x="614" 
d="M577 321q0 -77 -36.5 -154.5t-106.5 -129t-167 -51.5q-100 0 -160 54l-56 -54l-43 45l61 58q-32 56 -32 138q0 77 36.5 154.5t107 129t167.5 51.5q99 0 159 -54l56 54l43 -45l-61 -58q32 -56 32 -138zM226 442q-49 -41 -73.5 -101.5t-24.5 -117.5q0 -40 10 -67l305 292
q-40 35 -100 35q-68 0 -117 -41zM388 106q49 41 74 101.5t25 117.5q0 37 -11 68l-305 -292q38 -36 100 -36q68 0 117 41z" />
    <glyph glyph-name="otilde.smcp" horiz-adv-x="614" 
d="M517 498q60 -64 60 -177q0 -77 -36.5 -154.5t-106.5 -129t-167 -51.5q-110 0 -170 64t-60 177q0 77 36.5 154.5t107 129t167.5 51.5q109 0 169 -64zM228 440q-48 -40 -72.5 -100t-24.5 -117q0 -73 36.5 -114t103.5 -41t115.5 40t73 100t24.5 117q0 73 -36.5 114
t-104.5 41q-67 0 -115 -40zM529 661q-32 -30 -74 -30q-23 0 -40 7.5t-38 21.5q-18 11 -29 16.5t-25 5.5q-41 0 -58 -51h-60q15 54 47.5 84.5t74.5 30.5q23 0 40.5 -7.5t38.5 -21.5q17 -11 28.5 -16.5t24.5 -5.5q42 0 60 51h58q-16 -55 -48 -85z" />
    <glyph glyph-name="oe.smcp" horiz-adv-x="828" 
d="M533 469l-38 -150h277l-20 -78h-276l-41 -162h302l-20 -79h-412q-129 0 -197.5 61.5t-68.5 176.5q0 75 35 146t108.5 117.5t182.5 46.5h481l-20 -79h-293zM233.5 435q-51.5 -34 -75.5 -86.5t-24 -108.5q0 -79 44.5 -120t130.5 -41h35l98 390h-81q-76 0 -127.5 -34z" />
    <glyph glyph-name="p.smcp" horiz-adv-x="526" 
d="M475 506q48 -42 48 -119q0 -46 -22.5 -88.5t-70 -70t-117.5 -27.5h-154l-50 -201h-92l136 548h180q94 0 142 -42zM178 279h134q61 0 90 32t29 74t-26.5 63.5t-77.5 21.5h-101z" />
    <glyph glyph-name="thorn.smcp" horiz-adv-x="526" 
d="M309 453q94 0 142 -42.5t48 -118.5q0 -46 -22.5 -88.5t-70 -70t-117.5 -27.5h-154l-26 -106h-92l136 548h92l-24 -95h88zM154 184h135q60 0 89 32t29 74q0 41 -26 63t-77 22h-102z" />
    <glyph glyph-name="q.smcp" horiz-adv-x="614" 
d="M546 179q-31 -72 -87 -122l49 -68l-61 -44l-51 70q-60 -29 -129 -29q-110 0 -170 64t-60 177q0 77 36.5 154.5t107 129t167.5 51.5q109 0 169 -64t60 -177q0 -70 -31 -142zM167.5 106.5q36.5 -41.5 104.5 -41.5q39 0 76 16l-61 84l62 45l61 -84q37 39 56.5 93t19.5 105
q0 73 -37 114.5t-105 41.5q-67 0 -115.5 -40.5t-73 -100.5t-24.5 -117q0 -74 36.5 -115.5z" />
    <glyph glyph-name="r.smcp" horiz-adv-x="546" 
d="M523 415q0 -34 -16.5 -67.5t-49 -58.5t-77.5 -34v-2q26 -10 36.5 -30t18.5 -69l25 -154h-92l-19 139q-7 47 -26.5 64.5t-63.5 17.5h-90l-55 -221h-92l136 548h176q189 0 189 -133zM187 295h109q47 0 77 16t42.5 40t12.5 47q0 39 -27.5 56.5t-81.5 17.5h-88z" />
    <glyph glyph-name="racute.smcp" horiz-adv-x="546" 
d="M523 415q0 -34 -16.5 -67.5t-49 -58.5t-77.5 -34v-2q26 -10 36.5 -30t18.5 -69l25 -154h-92l-19 139q-7 47 -26.5 64.5t-63.5 17.5h-90l-55 -221h-92l136 548h176q189 0 189 -133zM187 295h109q47 0 77 16t42.5 40t12.5 47q0 39 -27.5 56.5t-81.5 17.5h-88zM295 609
l116 143h118l-153 -143h-81z" />
    <glyph glyph-name="rcaron.smcp" horiz-adv-x="546" 
d="M523 415q0 -34 -16.5 -67.5t-49 -58.5t-77.5 -34v-2q26 -10 36.5 -30t18.5 -69l25 -154h-92l-19 139q-7 47 -26.5 64.5t-63.5 17.5h-90l-55 -221h-92l136 548h176q189 0 189 -133zM187 295h109q47 0 77 16t42.5 40t12.5 47q0 39 -27.5 56.5t-81.5 17.5h-88zM313 609
l-79 143h81l52 -93l96 93h96l-149 -143h-97z" />
    <glyph glyph-name="rcommaaccent.smcp" horiz-adv-x="546" 
d="M523 415q0 -34 -16.5 -67.5t-49 -58.5t-77.5 -34v-2q26 -10 36.5 -30t18.5 -69l25 -154h-92l-19 139q-7 47 -26.5 64.5t-63.5 17.5h-90l-55 -221h-92l136 548h176q189 0 189 -133zM187 295h109q47 0 77 16t42.5 40t12.5 47q0 39 -27.5 56.5t-81.5 17.5h-88zM153 -257h-38
l64 103h-33l21 89h89l-22 -89z" />
    <glyph glyph-name="s.smcp" horiz-adv-x="523" 
d="M491 419q0 -20 -4 -39h-91q4 13 4 26q0 81 -108 81q-57 0 -88.5 -26t-31.5 -59q0 -32 25 -48t88 -36q50 -16 83 -33t53.5 -46.5t20.5 -76.5q0 -42 -27 -82.5t-80 -67t-128 -26.5q-96 0 -147 39t-51 113q0 23 5 43h91q-4 -17 -4 -36q0 -83 116 -83q65 0 98.5 28t33.5 64
q0 33 -26.5 52t-85.5 37q-52 17 -84 33.5t-52 44.5t-20 72q0 40 25 79t74.5 64.5t118.5 25.5q192 0 192 -143z" />
    <glyph glyph-name="sacute.smcp" horiz-adv-x="523" 
d="M491 419q0 -20 -4 -39h-91q4 13 4 26q0 81 -108 81q-57 0 -88.5 -26t-31.5 -59q0 -32 25 -48t88 -36q50 -16 83 -33t53.5 -46.5t20.5 -76.5q0 -42 -27 -82.5t-80 -67t-128 -26.5q-96 0 -147 39t-51 113q0 23 5 43h91q-4 -17 -4 -36q0 -83 116 -83q65 0 98.5 28t33.5 64
q0 33 -26.5 52t-85.5 37q-52 17 -84 33.5t-52 44.5t-20 72q0 40 25 79t74.5 64.5t118.5 25.5q192 0 192 -143zM247 609l116 143h118l-153 -143h-81z" />
    <glyph glyph-name="scaron.smcp" horiz-adv-x="523" 
d="M491 419q0 -20 -4 -39h-91q4 13 4 26q0 81 -108 81q-57 0 -88.5 -26t-31.5 -59q0 -32 25 -48t88 -36q50 -16 83 -33t53.5 -46.5t20.5 -76.5q0 -42 -27 -82.5t-80 -67t-128 -26.5q-96 0 -147 39t-51 113q0 23 5 43h91q-4 -17 -4 -36q0 -83 116 -83q65 0 98.5 28t33.5 64
q0 33 -26.5 52t-85.5 37q-52 17 -84 33.5t-52 44.5t-20 72q0 40 25 79t74.5 64.5t118.5 25.5q192 0 192 -143zM265 609l-79 143h81l52 -93l96 93h96l-149 -143h-97z" />
    <glyph glyph-name="scedilla.smcp" horiz-adv-x="523" 
d="M400 406q0 81 -108 81q-57 0 -88.5 -26t-31.5 -59q0 -32 25 -48t88 -36q50 -16 83 -33t53.5 -46.5t20.5 -76.5q0 -38 -22.5 -76t-67.5 -65t-109 -33l-45 -50q8 2 19 2q29 0 47 -17.5t18 -49.5q0 -39 -36.5 -66t-91.5 -27q-57 0 -99 27l21 37q35 -21 76 -21q30 0 48 13
t18 34q0 17 -11 26.5t-31 9.5q-18 0 -33 -6l-17 16l64 70q-88 4 -134.5 42.5t-46.5 109.5q0 23 5 43h91q-4 -17 -4 -36q0 -83 116 -83q65 0 98.5 28t33.5 64q0 33 -26.5 52t-85.5 37q-52 17 -84 33.5t-52 44.5t-20 72q0 40 25 79t74.5 64.5t118.5 25.5q192 0 192 -143
q0 -20 -4 -39h-91q4 13 4 26z" />
    <glyph glyph-name="scircumflex.smcp" horiz-adv-x="523" 
d="M491 419q0 -20 -4 -39h-91q4 13 4 26q0 81 -108 81q-57 0 -88.5 -26t-31.5 -59q0 -32 25 -48t88 -36q50 -16 83 -33t53.5 -46.5t20.5 -76.5q0 -42 -27 -82.5t-80 -67t-128 -26.5q-96 0 -147 39t-51 113q0 23 5 43h91q-4 -17 -4 -36q0 -83 116 -83q65 0 98.5 28t33.5 64
q0 33 -26.5 52t-85.5 37q-52 17 -84 33.5t-52 44.5t-20 72q0 40 25 79t74.5 64.5t118.5 25.5q192 0 192 -143zM395 609l-52 93l-96 -93h-96l149 143h97l79 -143h-81z" />
    <glyph glyph-name="scommaaccent.smcp" horiz-adv-x="523" 
d="M491 419q0 -20 -4 -39h-91q4 13 4 26q0 81 -108 81q-57 0 -88.5 -26t-31.5 -59q0 -32 25 -48t88 -36q50 -16 83 -33t53.5 -46.5t20.5 -76.5q0 -42 -27 -82.5t-80 -67t-128 -26.5q-96 0 -147 39t-51 113q0 23 5 43h91q-4 -17 -4 -36q0 -83 116 -83q65 0 98.5 28t33.5 64
q0 33 -26.5 52t-85.5 37q-52 17 -84 33.5t-52 44.5t-20 72q0 40 25 79t74.5 64.5t118.5 25.5q192 0 192 -143zM133 -257h-38l64 103h-33l21 89h89l-22 -89z" />
    <glyph glyph-name="germandbls.smcp" horiz-adv-x="666" 
d="M583 166q0 -45 -24.5 -86.5t-73 -67.5t-116.5 -26q-81 0 -122.5 31.5t-41.5 92.5q0 20 5 36h87q-2 -7 -2 -21q0 -62 83 -62q54 0 82.5 30t28.5 68q0 48 -37 72.5t-112 32.5l16 66l136 114q-41 38 -114 38q-154 0 -196 -166l-78 -318h-92l82 330q28 112 104 172t191 60
q77 0 134 -29.5t87 -80.5l-155 -130q128 -39 128 -156z" />
    <glyph glyph-name="t.smcp" horiz-adv-x="500" 
d="M349 468l-116 -468h-92l117 468h-194l19 80h480l-20 -80h-194z" />
    <glyph glyph-name="tbar.smcp" horiz-adv-x="500" 
d="M310 311h109l-15 -66h-110l-61 -245h-92l61 245h-109l16 66h110l39 157h-194l19 80h480l-20 -80h-194z" />
    <glyph glyph-name="tcaron.smcp" horiz-adv-x="500" 
d="M349 468l-116 -468h-92l117 468h-194l19 80h480l-20 -80h-194zM290 609l-79 143h81l52 -93l96 93h96l-149 -143h-97z" />
    <glyph glyph-name="uni0163.smcp" horiz-adv-x="500" 
d="M349 468l-116 -468h-92l117 468h-194l19 80h480l-20 -80h-194zM111 -257h-38l64 103h-33l21 89h89l-22 -89z" />
    <glyph glyph-name="uni021B.smcp" horiz-adv-x="500" 
d="M349 468l-116 -468h-92l117 468h-194l19 80h480l-20 -80h-194zM111 -257h-38l64 103h-33l21 89h89l-22 -89z" />
    <glyph glyph-name="u.smcp" horiz-adv-x="602" 
d="M417 36.5q-64 -50.5 -162 -50.5q-93 0 -141.5 45.5t-48.5 130.5q0 35 10 74l77 312h92l-82 -329q-7 -25 -7 -49q0 -50 27.5 -76t79.5 -26q59 0 99.5 33t55.5 98l87 349h92l-92 -366q-23 -95 -87 -145.5z" />
    <glyph glyph-name="uacute.smcp" horiz-adv-x="602" 
d="M417 36.5q-64 -50.5 -162 -50.5q-93 0 -141.5 45.5t-48.5 130.5q0 35 10 74l77 312h92l-82 -329q-7 -25 -7 -49q0 -50 27.5 -76t79.5 -26q59 0 99.5 33t55.5 98l87 349h92l-92 -366q-23 -95 -87 -145.5zM313 609l116 143h118l-153 -143h-81z" />
    <glyph glyph-name="ubreve.smcp" horiz-adv-x="602" 
d="M417 36.5q-64 -50.5 -162 -50.5q-93 0 -141.5 45.5t-48.5 130.5q0 35 10 74l77 312h92l-82 -329q-7 -25 -7 -49q0 -50 27.5 -76t79.5 -26q59 0 99.5 33t55.5 98l87 349h92l-92 -366q-23 -95 -87 -145.5zM502.5 646.5q-48.5 -37.5 -116.5 -37.5q-63 0 -96 30.5t-33 87.5
q0 16 2 25h59q-1 -5 -1 -15q0 -32 18 -49t53 -17q40 0 68.5 21t41.5 60h72q-19 -68 -67.5 -105.5z" />
    <glyph glyph-name="ucircumflex.smcp" horiz-adv-x="602" 
d="M417 36.5q-64 -50.5 -162 -50.5q-93 0 -141.5 45.5t-48.5 130.5q0 35 10 74l77 312h92l-82 -329q-7 -25 -7 -49q0 -50 27.5 -76t79.5 -26q59 0 99.5 33t55.5 98l87 349h92l-92 -366q-23 -95 -87 -145.5zM461 609l-52 93l-96 -93h-96l149 143h97l79 -143h-81z" />
    <glyph glyph-name="udieresis.smcp" horiz-adv-x="602" 
d="M417 36.5q-64 -50.5 -162 -50.5q-93 0 -141.5 45.5t-48.5 130.5q0 35 10 74l77 312h92l-82 -329q-7 -25 -7 -49q0 -50 27.5 -76t79.5 -26q59 0 99.5 33t55.5 98l87 349h92l-92 -366q-23 -95 -87 -145.5zM252 653l24 99h82l-24 -99h-82zM447 653l24 99h82l-24 -99h-82z
" />
    <glyph glyph-name="ugrave.smcp" horiz-adv-x="602" 
d="M417 36.5q-64 -50.5 -162 -50.5q-93 0 -141.5 45.5t-48.5 130.5q0 35 10 74l77 312h92l-82 -329q-7 -25 -7 -49q0 -50 27.5 -76t79.5 -26q59 0 99.5 33t55.5 98l87 349h92l-92 -366q-23 -95 -87 -145.5zM446 609h-71l-93 143h109z" />
    <glyph glyph-name="uhungarumlaut.smcp" horiz-adv-x="602" 
d="M417 36.5q-64 -50.5 -162 -50.5q-93 0 -141.5 45.5t-48.5 130.5q0 35 10 74l77 312h92l-82 -329q-7 -25 -7 -49q0 -50 27.5 -76t79.5 -26q59 0 99.5 33t55.5 98l87 349h92l-92 -366q-23 -95 -87 -145.5zM241 609l136 143h109l-166 -143h-79zM401 609l136 143h109
l-166 -143h-79z" />
    <glyph glyph-name="umacron.smcp" horiz-adv-x="602" 
d="M417 36.5q-64 -50.5 -162 -50.5q-93 0 -141.5 45.5t-48.5 130.5q0 35 10 74l77 312h92l-82 -329q-7 -25 -7 -49q0 -50 27.5 -76t79.5 -26q59 0 99.5 33t55.5 98l87 349h92l-92 -366q-23 -95 -87 -145.5zM249 656l15 64h285l-16 -64h-284z" />
    <glyph glyph-name="uogonek.smcp" horiz-adv-x="602" 
d="M377 3q-58 -38 -80 -64.5t-22 -49.5q0 -27 32 -27q22 0 40 7l-14 -56q-25 -7 -52 -7q-44 0 -66 18.5t-22 52.5q0 28 20 54.5t63 53.5v2q-7 -1 -21 -1q-93 0 -141.5 45.5t-48.5 130.5q0 35 10 74l77 312h92l-82 -329q-7 -25 -7 -49q0 -50 27.5 -76t79.5 -26q59 0 99.5 33
t55.5 98l87 349h92l-92 -366q-27 -115 -127 -179z" />
    <glyph glyph-name="uring.smcp" horiz-adv-x="602" 
d="M417 36.5q-64 -50.5 -162 -50.5q-93 0 -141.5 45.5t-48.5 130.5q0 35 10 74l77 312h92l-82 -329q-7 -25 -7 -49q0 -50 27.5 -76t79.5 -26q59 0 99.5 33t55.5 98l87 349h92l-92 -366q-23 -95 -87 -145.5zM464.5 776.5q29.5 -29.5 29.5 -70.5q0 -42 -29.5 -71.5
t-71.5 -29.5q-41 0 -70.5 29.5t-29.5 71.5q0 41 29.5 70.5t70.5 29.5q42 0 71.5 -29.5zM353 747q-17 -17 -17 -41t17 -41t40 -17q25 0 41.5 16.5t16.5 41.5q0 24 -16.5 41t-41.5 17q-23 0 -40 -17z" />
    <glyph glyph-name="utilde.smcp" horiz-adv-x="602" 
d="M417 36.5q-64 -50.5 -162 -50.5q-93 0 -141.5 45.5t-48.5 130.5q0 35 10 74l77 312h92l-82 -329q-7 -25 -7 -49q0 -50 27.5 -76t79.5 -26q59 0 99.5 33t55.5 98l87 349h92l-92 -366q-23 -95 -87 -145.5zM538 661q-32 -30 -74 -30q-23 0 -40 7.5t-38 21.5q-18 11 -29 16.5
t-25 5.5q-41 0 -58 -51h-60q15 54 47.5 84.5t74.5 30.5q23 0 40.5 -7.5t38.5 -21.5q17 -11 28.5 -16.5t24.5 -5.5q42 0 60 51h58q-16 -55 -48 -85z" />
    <glyph glyph-name="v.smcp" horiz-adv-x="521" 
d="M136 0l-57 548h90l24 -241q10 -96 19 -222h2q68 121 128 222l143 241h103l-329 -548h-123z" />
    <glyph glyph-name="w.smcp" horiz-adv-x="769" 
d="M435 0l1 237q0 79 2 233h-2q-55 -121 -111 -233l-117 -237h-133l7 548h87l-4 -212q-2 -128 -6 -252h2q70 147 123 253l105 211h129v-211q0 -85 -2 -253h2q76 165 118 252l102 212h95l-265 -548h-133z" />
    <glyph glyph-name="wacute.smcp" horiz-adv-x="769" 
d="M435 0l1 237q0 79 2 233h-2q-55 -121 -111 -233l-117 -237h-133l7 548h87l-4 -212q-2 -128 -6 -252h2q70 147 123 253l105 211h129v-211q0 -85 -2 -253h2q76 165 118 252l102 212h95l-265 -548h-133zM395 609l116 143h118l-153 -143h-81z" />
    <glyph glyph-name="wcircumflex.smcp" horiz-adv-x="769" 
d="M435 0l1 237q0 79 2 233h-2q-55 -121 -111 -233l-117 -237h-133l7 548h87l-4 -212q-2 -128 -6 -252h2q70 147 123 253l105 211h129v-211q0 -85 -2 -253h2q76 165 118 252l102 212h95l-265 -548h-133zM543 609l-52 93l-96 -93h-96l149 143h97l79 -143h-81z" />
    <glyph glyph-name="wdieresis.smcp" horiz-adv-x="769" 
d="M435 0l1 237q0 79 2 233h-2q-55 -121 -111 -233l-117 -237h-133l7 548h87l-4 -212q-2 -128 -6 -252h2q70 147 123 253l105 211h129v-211q0 -85 -2 -253h2q76 165 118 252l102 212h95l-265 -548h-133zM334 653l24 99h82l-24 -99h-82zM529 653l24 99h82l-24 -99h-82z" />
    <glyph glyph-name="wgrave.smcp" horiz-adv-x="769" 
d="M435 0l1 237q0 79 2 233h-2q-55 -121 -111 -233l-117 -237h-133l7 548h87l-4 -212q-2 -128 -6 -252h2q70 147 123 253l105 211h129v-211q0 -85 -2 -253h2q76 165 118 252l102 212h95l-265 -548h-133zM528 609h-71l-93 143h109z" />
    <glyph glyph-name="x.smcp" horiz-adv-x="524" 
d="M455 0h-98l-96 216h-2l-194 -216h-121l268 289l-121 259h96l89 -201h2l182 201h120l-254 -270z" />
    <glyph glyph-name="y.smcp" horiz-adv-x="516" 
d="M235 0h-91l55 222l-128 326h94l40 -108q28 -78 48 -140h2q39 49 116 140l93 108h116l-289 -326z" />
    <glyph glyph-name="yacute.smcp" horiz-adv-x="516" 
d="M235 0h-91l55 222l-128 326h94l40 -108q28 -78 48 -140h2q39 49 116 140l93 108h116l-289 -326zM255 609l116 143h118l-153 -143h-81z" />
    <glyph glyph-name="ycircumflex.smcp" horiz-adv-x="516" 
d="M235 0h-91l55 222l-128 326h94l40 -108q28 -78 48 -140h2q39 49 116 140l93 108h116l-289 -326zM403 609l-52 93l-96 -93h-96l149 143h97l79 -143h-81z" />
    <glyph glyph-name="ydieresis.smcp" horiz-adv-x="516" 
d="M235 0h-91l55 222l-128 326h94l40 -108q28 -78 48 -140h2q39 49 116 140l93 108h116l-289 -326zM193 653l24 99h82l-24 -99h-82zM388 653l24 99h82l-24 -99h-82z" />
    <glyph glyph-name="ygrave.smcp" horiz-adv-x="516" 
d="M235 0h-91l55 222l-128 326h94l40 -108q28 -78 48 -140h2q39 49 116 140l93 108h116l-289 -326zM388 609h-71l-93 143h109z" />
    <glyph glyph-name="z.smcp" horiz-adv-x="471" 
d="M90 81v-2h321l-20 -79h-437l21 86l402 381v2h-297l19 79h413l-21 -86z" />
    <glyph glyph-name="zacute.smcp" horiz-adv-x="471" 
d="M90 81v-2h321l-20 -79h-437l21 86l402 381v2h-297l19 79h413l-21 -86zM236 609l116 143h118l-153 -143h-81z" />
    <glyph glyph-name="zcaron.smcp" horiz-adv-x="471" 
d="M90 81v-2h321l-20 -79h-437l21 86l402 381v2h-297l19 79h413l-21 -86zM253 609l-79 143h81l52 -93l96 93h96l-149 -143h-97z" />
    <glyph glyph-name="zdotaccent.smcp" horiz-adv-x="471" 
d="M90 81v-2h321l-20 -79h-437l21 86l402 381v2h-297l19 79h413l-21 -86zM269 653l24 99h88l-24 -99h-88z" />
    <glyph glyph-name="ccedilla.smcp.ss01" 
d="M500 514q53 -48 53 -131q0 -17 -3 -35h-95q1 9 1 25q0 51 -30.5 79t-83.5 28q-68 0 -116 -42t-72.5 -103.5t-24.5 -119.5q0 -71 32.5 -109t93.5 -38q57 0 101.5 29.5t64.5 81.5h97q-30 -90 -102.5 -141.5t-169.5 -51.5q-102 0 -157 58.5t-55 164.5q0 80 36.5 162
t108 136.5t171.5 54.5q97 0 150 -48zM39 -211l165 162h84l-134 -162h-115z" />
    <glyph glyph-name="scedilla.smcp.ss01" horiz-adv-x="523" 
d="M491 419q0 -20 -4 -39h-91q4 13 4 26q0 81 -108 81q-57 0 -88.5 -26t-31.5 -59q0 -32 25 -48t88 -36q50 -16 83 -33t53.5 -46.5t20.5 -76.5q0 -42 -27 -82.5t-80 -67t-128 -26.5q-96 0 -147 39t-51 113q0 23 5 43h91q-4 -17 -4 -36q0 -83 116 -83q65 0 98.5 28t33.5 64
q0 33 -26.5 52t-85.5 37q-52 17 -84 33.5t-52 44.5t-20 72q0 40 25 79t74.5 64.5t118.5 25.5q192 0 192 -143zM-1 -211l165 162h84l-134 -162h-115z" />
    <glyph glyph-name="uni0163.smcp.ss01" horiz-adv-x="500" 
d="M349 468l-116 -468h-92l117 468h-194l19 80h480l-20 -80h-194zM-22 -211l165 162h84l-134 -162h-115z" />
    <glyph glyph-name="zero.lf" horiz-adv-x="590" 
d="M522 627.5q48 -60.5 48 -176.5q0 -97 -36.5 -205.5t-109 -184t-174.5 -75.5q-94 0 -141.5 60.5t-47.5 176.5q0 97 36.5 205.5t108.5 184t174 75.5q94 0 142 -60.5zM255 541q-50 -66 -75.5 -156.5t-25.5 -160.5q0 -78 26 -118.5t76 -40.5q69 0 119 66t75.5 156.5
t25.5 160.5q0 78 -25.5 118.5t-76.5 40.5q-69 0 -119 -66z" />
    <glyph glyph-name="one.lf" horiz-adv-x="360" 
d="M103 0l122 491h-151l17 70q80 0 124 26t69 87h78l-168 -674h-91z" />
    <glyph glyph-name="two.lf" horiz-adv-x="569" 
d="M512 642.5q51 -45.5 51 -121.5q0 -80 -55.5 -140t-183.5 -123q-75 -37 -116.5 -66t-61 -54.5t-29.5 -58.5h357l-19 -79h-463q15 79 46 133.5t86 98t149 89.5q75 37 116 66t59 58t18 66q0 47 -25.5 72t-73.5 25q-57 0 -95.5 -34.5t-56.5 -97.5h-97q27 102 94.5 157
t160.5 55q88 0 139 -45.5z" />
    <glyph glyph-name="three.lf" horiz-adv-x="563" 
d="M506.5 643.5q52.5 -44.5 52.5 -121.5q0 -61 -38.5 -110t-119.5 -74v-2q43 -18 66 -52.5t23 -83.5q0 -50 -29.5 -99.5t-87.5 -82t-138 -32.5q-101 0 -154 43.5t-53 123.5q0 25 6 50h92q-5 -20 -5 -42q0 -47 29.5 -71.5t87.5 -24.5q50 0 86.5 20t55.5 51.5t19 62.5
q0 51 -33.5 77t-98.5 26h-27l20 77h25q61 0 102 20.5t60.5 52t19.5 63.5q0 43 -30.5 68.5t-83.5 25.5q-59 0 -98.5 -33.5t-55.5 -100.5h-93q23 100 90.5 156.5t162.5 56.5t147.5 -44.5z" />
    <glyph glyph-name="four.lf" horiz-adv-x="550" 
d="M404 174l-43 -174h-91l43 174h-318l22 89l384 411h128l-106 -424h110l-19 -76h-110zM334 250l22 93l24 92q32 122 40 151h-2q-139 -153 -207 -225l-105 -111h228z" />
    <glyph glyph-name="five.lf" horiz-adv-x="562" 
d="M258 596l-67 -195h2q25 20 58 31t67 11q87 0 135.5 -51t48.5 -139q0 -61 -32.5 -123t-95 -103t-148.5 -41q-91 0 -143 40.5t-52 111.5q0 18 5 41h93q-3 -15 -3 -27q0 -41 29.5 -63.5t79.5 -22.5q56 0 95 28.5t58 70.5t19 82q0 56 -30 87t-84 31q-45 0 -81 -24.5
t-58 -70.5l-90 6l137 398h382l-20 -78h-305z" />
    <glyph glyph-name="six.lf" horiz-adv-x="567" 
d="M523.5 644.5q48.5 -43.5 48.5 -118.5q0 -15 -2 -25h-93q1 5 1 12q0 95 -97 95q-66 0 -123 -59.5t-90 -177.5h2q70 68 162 68q84 0 131.5 -53t47.5 -143q0 -57 -31 -117t-90 -100t-138 -40q-96 0 -145.5 55.5t-49.5 165.5q0 99 38.5 212t113 191t176.5 78
q90 0 138.5 -43.5zM220.5 336.5q-37.5 -27.5 -57 -68t-19.5 -79.5q0 -58 29 -90.5t82 -32.5q50 0 86.5 27t55 67t18.5 77q0 59 -28 93t-78 34q-51 0 -88.5 -27.5z" />
    <glyph glyph-name="seven.lf" horiz-adv-x="470" 
d="M331 325q-99 -151 -175 -325h-102q88 189 189.5 338.5t201.5 255.5h-346l21 80h438l-20 -81q-108 -117 -207 -268z" />
    <glyph glyph-name="eight.lf" horiz-adv-x="568" 
d="M513.5 642.5q54.5 -45.5 54.5 -121.5q0 -62 -40.5 -111t-116.5 -71v-2q43 -20 66 -57t23 -88q0 -50 -30 -97.5t-88 -78t-137 -30.5q-99 0 -155.5 49t-56.5 135q0 65 44 116t129 72v2q-38 21 -59 55t-21 79t29 90t84 74.5t129 29.5q91 0 145.5 -45.5zM281 590
q-33 -19 -50 -47.5t-17 -58.5q0 -46 30.5 -72t84.5 -26q49 0 82 19t49 48t16 58q0 46 -31 72t-84 26q-47 0 -80 -19zM198 287.5q-36 -20.5 -54 -51.5t-18 -63q0 -50 33 -78.5t92 -28.5q51 0 87 21t54 52t18 63q0 49 -33.5 77.5t-91.5 28.5q-51 0 -87 -20.5z" />
    <glyph glyph-name="nine.lf" horiz-adv-x="567" 
d="M85.5 29.5q-48.5 43.5 -48.5 118.5q0 15 1 25h93l-1 -12q0 -95 97 -95q67 0 124 59.5t89 177.5h-2q-33 -33 -74.5 -50.5t-87.5 -17.5q-83 0 -131 53t-48 143q0 57 31.5 117t90.5 100t138 40q96 0 145 -55.5t49 -165.5q0 -99 -38.5 -212t-113 -191t-175.5 -78
q-90 0 -138.5 43.5zM387.5 337.5q37.5 27.5 57 68t19.5 79.5q0 58 -28.5 90.5t-81.5 32.5q-51 0 -87.5 -27t-55 -67t-18.5 -77q0 -59 28 -93t78 -34q51 0 88.5 27.5z" />
    <glyph glyph-name="zero.denominator" horiz-adv-x="378" 
d="M308.5 375.5q31.5 -37.5 31.5 -109.5q0 -58 -23.5 -122.5t-69.5 -108.5t-110 -44q-62 0 -93.5 37.5t-31.5 110.5q0 58 23 122t69 108t110 44q63 0 94.5 -37.5zM143.5 313q-27.5 -37 -42 -87.5t-14.5 -87.5q0 -41 14.5 -63.5t40.5 -22.5q38 0 65 36.5t41 87t14 89.5
q0 85 -54 85q-37 0 -64.5 -37z" />
    <glyph glyph-name="one.denominator" horiz-adv-x="240" 
d="M40 0l70 278h-94l14 58q50 0 78.5 15.5t43.5 52.5h64l-101 -404h-75z" />
    <glyph glyph-name="two.denominator" horiz-adv-x="367" 
d="M301.5 384q34.5 -29 34.5 -75q0 -48 -34.5 -84.5t-112.5 -73.5q-64 -30 -87.5 -48t-30.5 -39h217l-15 -64h-303q9 51 28 85t53.5 60.5t92.5 54.5q64 32 88.5 52.5t24.5 49.5q0 48 -52 48q-60 0 -81 -70h-80q17 65 60 99t105 34q58 0 92.5 -29z" />
    <glyph glyph-name="three.denominator" horiz-adv-x="362" 
d="M301.5 386q34.5 -27 34.5 -75q0 -75 -93 -107v-2q51 -25 51 -81q0 -30 -18.5 -60t-55.5 -50t-88 -20q-68 0 -103.5 27t-35.5 77q0 14 3 32h77q-2 -18 -2 -24q0 -50 63 -50q40 0 63 21t23 47q0 52 -76 52h-13l15 62h15q48 0 73.5 21t25.5 49q0 22 -16 34t-45 12
q-66 0 -84 -70h-76q13 62 57.5 97t107.5 35t97.5 -27z" />
    <glyph glyph-name="four.denominator" horiz-adv-x="355" 
d="M239 96l-24 -96h-74l24 96h-195l18 70l226 238h102l-62 -248h67l-15 -60h-67zM182 156l12 49q10 44 33 126h-2q-53 -57 -108 -114l-59 -61h124z" />
    <glyph glyph-name="five.denominator" horiz-adv-x="363" 
d="M146 340l-34 -93h2q27 22 69 22q56 0 87.5 -31.5t31.5 -85.5q0 -37 -20.5 -74.5t-60.5 -62t-95 -24.5q-62 0 -97 25.5t-35 70.5q0 11 3 24h77q-1 -5 -1 -13q0 -21 16.5 -33t43.5 -12q29 0 50 15t31 36.5t10 41.5q0 30 -16.5 46.5t-45.5 16.5q-25 0 -44 -13.5t-30 -37.5
l-74 5l83 241h251l-16 -64h-186z" />
    <glyph glyph-name="six.denominator" horiz-adv-x="365" 
d="M308 386q33 -27 33 -73q0 -12 -1 -18h-76v6q0 50 -52 50q-36 0 -66.5 -29.5t-47.5 -88.5h2q38 32 92 32q52 0 83 -32t31 -87q0 -35 -19.5 -71t-57 -60t-87.5 -24q-65 0 -98 36t-33 106q0 59 23.5 124.5t70 110.5t110.5 45q60 0 93 -27zM108 177.5q-24 -27.5 -24 -61.5
q0 -28 16 -45t44 -17q39 0 61.5 28.5t22.5 59.5q0 28 -14.5 45.5t-42.5 17.5q-39 0 -63 -27.5z" />
    <glyph glyph-name="seven.denominator" horiz-adv-x="319" 
d="M212 187.5q-58 -89.5 -101 -187.5h-90q51 106 111 193.5t115 145.5h-217l16 65h301l-16 -64q-61 -63 -119 -152.5z" />
    <glyph glyph-name="eight.denominator" horiz-adv-x="365" 
d="M302.5 384.5q36.5 -28.5 36.5 -75.5q0 -38 -26 -67.5t-73 -39.5v-2q28 -9 43 -31t15 -54q0 -31 -19 -59.5t-55.5 -46.5t-86.5 -18q-67 0 -104.5 30.5t-37.5 83.5q0 39 28.5 70.5t78.5 39.5v2q-24 10 -38 32t-14 49t18.5 53.5t53.5 44t83 17.5q61 0 97.5 -28.5zM142 332.5
q-20 -18.5 -20 -44.5q0 -24 17 -37.5t47 -13.5q38 0 58 19.5t20 44.5q0 23 -16.5 36.5t-47.5 13.5q-38 0 -58 -18.5zM93.5 156q-21.5 -21 -21.5 -48q0 -26 18 -40.5t50 -14.5q40 0 62 21.5t22 48.5q0 26 -18 40t-50 14q-41 0 -62.5 -21z" />
    <glyph glyph-name="nine.denominator" horiz-adv-x="365" 
d="M31 18q-33 27 -33 73q0 12 1 18h76v-6q0 -50 51 -50q37 0 67 29.5t48 88.5h-2q-22 -18 -44 -25t-48 -7q-52 0 -83 32t-31 87q0 35 19.5 71t57 60t87.5 24q65 0 98 -36t33 -106q0 -59 -24 -124.5t-70.5 -110.5t-110.5 -45q-59 0 -92 27zM230.5 227q24.5 28 24.5 61
q0 27 -16.5 44.5t-43.5 17.5q-26 0 -45.5 -14t-29.5 -34.5t-10 -39.5q0 -28 15 -45.5t42 -17.5q39 0 63.5 28z" />
    <glyph glyph-name="zero.numerator" horiz-adv-x="378" 
d="M376.5 645.5q31.5 -37.5 31.5 -109.5q0 -58 -23.5 -122.5t-69.5 -108.5t-110 -44q-62 0 -93.5 37.5t-31.5 110.5q0 58 23 122t69 108t110 44q63 0 94.5 -37.5zM211.5 583q-27.5 -37 -42 -87.5t-14.5 -87.5q0 -41 14.5 -63.5t40.5 -22.5q38 0 65 36.5t41 87t14 89.5
q0 85 -54 85q-37 0 -64.5 -37z" />
    <glyph glyph-name="one.numerator" horiz-adv-x="240" 
d="M107 270l70 278h-94l14 58q50 0 78.5 15.5t43.5 52.5h64l-101 -404h-75z" />
    <glyph glyph-name="two.numerator" horiz-adv-x="367" 
d="M368.5 654q34.5 -29 34.5 -75q0 -48 -34.5 -84.5t-112.5 -73.5q-64 -30 -87.5 -48t-30.5 -39h217l-15 -64h-303q9 51 28 85t53.5 60.5t92.5 54.5q64 32 88.5 52.5t24.5 49.5q0 48 -52 48q-60 0 -81 -70h-80q17 65 60 99t105 34q58 0 92.5 -29z" />
    <glyph glyph-name="three.numerator" horiz-adv-x="362" 
d="M368.5 656q34.5 -27 34.5 -75q0 -75 -92 -107v-2q51 -25 51 -81q0 -30 -19 -60t-55.5 -50t-87.5 -20q-68 0 -104 27t-36 77q0 16 4 32h77q-3 -13 -3 -24q0 -50 63 -50q40 0 63 21t23 47q0 52 -75 52h-13l15 62h14q48 0 73.5 21t25.5 49q0 22 -16 34t-45 12q-66 0 -84 -70
h-76q13 62 57.5 97t107.5 35t97.5 -27z" />
    <glyph glyph-name="four.numerator" horiz-adv-x="355" 
d="M306 366l-24 -96h-74l24 96h-195l18 70l226 238h102l-62 -248h67l-15 -60h-67zM249 426l12 49q10 44 33 126h-2q-53 -57 -108 -114l-59 -61h124z" />
    <glyph glyph-name="five.numerator" horiz-adv-x="363" 
d="M214 610l-34 -93h2q28 22 69 22q56 0 87.5 -31.5t31.5 -85.5q0 -37 -20.5 -74.5t-60.5 -62t-95 -24.5q-62 0 -97 25.5t-35 70.5q0 11 3 24h77q-1 -5 -1 -13q0 -21 16.5 -33t43.5 -12q29 0 50 15t31 36.5t10 41.5q0 30 -16.5 46.5t-45.5 16.5q-25 0 -44 -13.5t-30 -37.5
l-74 5l83 241h251l-16 -64h-186z" />
    <glyph glyph-name="six.numerator" horiz-adv-x="365" 
d="M375 656q33 -27 33 -73q0 -12 -1 -18h-76v6q0 50 -52 50q-36 0 -66.5 -29.5t-47.5 -88.5h2q38 32 92 32q52 0 83 -32t31 -87q0 -35 -19.5 -71t-57 -60t-87.5 -24q-65 0 -98 36t-33 106q0 59 23.5 124.5t70 110.5t110.5 45q60 0 93 -27zM175 447.5q-24 -27.5 -24 -61.5
q0 -28 16 -45t44 -17q39 0 61.5 28.5t22.5 59.5q0 28 -14.5 45.5t-42.5 17.5q-39 0 -63 -27.5z" />
    <glyph glyph-name="seven.numerator" horiz-adv-x="319" 
d="M279 457.5q-58 -89.5 -100 -187.5h-91q52 107 112 194.5t115 144.5h-217l16 65h300l-15 -64q-62 -63 -120 -152.5z" />
    <glyph glyph-name="eight.numerator" horiz-adv-x="365" 
d="M370.5 654.5q36.5 -28.5 36.5 -75.5q0 -38 -26 -67.5t-73 -39.5v-2q28 -9 43 -31t15 -54q0 -31 -19 -59.5t-55.5 -46.5t-86.5 -18q-67 0 -104.5 30.5t-37.5 83.5q0 39 28.5 70.5t78.5 39.5v2q-24 10 -38 32t-14 49t18.5 53.5t53.5 44t83 17.5q61 0 97.5 -28.5zM210 602.5
q-20 -18.5 -20 -44.5q0 -24 17 -37.5t47 -13.5q38 0 58 19.5t20 44.5q0 23 -16.5 36.5t-47.5 13.5q-38 0 -58 -18.5zM161.5 426q-21.5 -21 -21.5 -48q0 -26 18 -40.5t50 -14.5q40 0 62 21.5t22 48.5q0 26 -18 40t-50 14q-41 0 -62.5 -21z" />
    <glyph glyph-name="nine.numerator" horiz-adv-x="365" 
d="M98 288q-33 27 -33 73q0 12 1 18h76v-6q0 -50 51 -50q37 0 67 29.5t48 88.5h-2q-22 -18 -44 -25t-48 -7q-52 0 -83 32t-31 87q0 35 19.5 71t57 60t87.5 24q65 0 98 -36t33 -106q0 -59 -24 -124.5t-70.5 -110.5t-110.5 -45q-59 0 -92 27zM297.5 497q24.5 28 24.5 61
q0 27 -16.5 44.5t-43.5 17.5q-26 0 -45.5 -14t-29.5 -34.5t-10 -39.5q0 -28 15 -45.5t42 -17.5q39 0 63.5 28z" />
    <glyph glyph-name="zero.smcp" horiz-adv-x="478" 
d="M419.5 510q41.5 -50 41.5 -147q0 -79 -31 -167t-92 -148t-146 -60q-82 0 -123.5 50t-41.5 147q0 79 31 167t92 148t146 60q82 0 123.5 -50zM197.5 431.5q-38.5 -51.5 -58.5 -122.5t-20 -124q0 -59 20.5 -90t58.5 -31q53 0 91.5 51t58.5 121.5t20 124.5q0 59 -20 90.5
t-59 31.5q-53 0 -91.5 -51.5z" />
    <glyph glyph-name="one.smcp" horiz-adv-x="478" 
d="M148 0l97 386h-128l18 69q68 0 105.5 21.5t58.5 71.5h78l-137 -548h-92z" />
    <glyph glyph-name="two.smcp" horiz-adv-x="478" 
d="M415.5 521.5q44.5 -38.5 44.5 -101.5q0 -65 -46 -113.5t-151 -98.5q-88 -43 -121 -70t-43 -61h293l-18 -77h-398q12 67 37.5 112.5t71.5 81t123 72.5q61 30 93.5 51.5t48 43.5t15.5 50q0 35 -19.5 53.5t-56.5 18.5q-43 0 -72 -26t-43 -74h-97q23 85 80.5 131t137.5 46
q76 0 120.5 -38.5z" />
    <glyph glyph-name="three.smcp" horiz-adv-x="478" 
d="M418 523.5q45 -36.5 45 -100.5q0 -48 -31 -87.5t-96 -61.5v-2q69 -30 71 -108q0 -41 -25 -82t-73.5 -67.5t-115.5 -26.5q-90 0 -137.5 36t-47.5 103q0 20 6 42h92q-4 -16 -4 -32q0 -73 94 -73q37 0 64.5 15t41.5 37.5t14 46.5q0 38 -26.5 57.5t-77.5 19.5h-20l18 74h21
q46 0 77.5 15t47 38t15.5 48q0 32 -22.5 50.5t-61.5 18.5q-98 0 -123 -101h-93q19 83 78.5 130t143.5 47q80 0 125 -36.5z" />
    <glyph glyph-name="four.smcp" horiz-adv-x="478" 
d="M338 134l-34 -134h-90l34 134h-262l20 86l310 328h125l-85 -340h91l-19 -74h-90zM268 208l18 73q21 89 48 181h-2l-158 -168l-82 -86h176z" />
    <glyph glyph-name="five.smcp" horiz-adv-x="478" 
d="M210 471l-49 -141h2q21 16 47.5 24.5t51.5 8.5q72 0 113.5 -42.5t41.5 -114.5q0 -50 -27.5 -100.5t-81 -84t-127.5 -33.5q-78 0 -123 34t-45 94q0 13 5 33h92q-2 -14 -2 -20q0 -31 22.5 -48t59.5 -17q44 0 74 21t44.5 52.5t14.5 61.5q0 43 -23 66t-65 23q-35 0 -62 -18.5
t-44 -53.5l-89 6l112 326h328l-19 -77h-251z" />
    <glyph glyph-name="six.smcp" horiz-adv-x="478" 
d="M428.5 523.5q42.5 -36.5 42.5 -99.5q0 -14 -1 -21h-93v8q0 73 -74 73q-51 0 -94 -44t-68 -131h2q52 49 125 49q71 0 112.5 -43t41.5 -117q0 -47 -26 -96t-76 -81.5t-116 -32.5q-84 0 -127 47t-43 140q0 81 32 171t95 152t149 62q76 0 118.5 -36.5zM179.5 266
q-27.5 -19 -41.5 -48.5t-14 -60.5q0 -43 21.5 -67.5t61.5 -24.5q38 0 65.5 20t41.5 49.5t14 57.5q0 43 -21.5 68t-60.5 25t-66.5 -19z" />
    <glyph glyph-name="seven.smcp" horiz-adv-x="478" 
d="M322 258.5q-79 -121.5 -138 -258.5h-109q70 147 151.5 267.5t158.5 201.5h-295l19 79h397l-19 -78q-86 -90 -165 -211.5z" />
    <glyph glyph-name="eight.smcp" horiz-adv-x="478" 
d="M420.5 522q47.5 -38 47.5 -101q0 -49 -35.5 -90.5t-92.5 -56.5v-2q34 -12 53 -43t19 -72t-25 -80t-73.5 -64t-115.5 -25q-87 0 -135.5 40.5t-48.5 111.5q0 52 37 95.5t102 55.5v2q-63 37 -63 109q0 37 24 73.5t70.5 60.5t108.5 24q80 0 127.5 -38zM204.5 456.5
q-28.5 -27.5 -28.5 -62.5q0 -36 23.5 -56t65.5 -20q54 0 82.5 29t28.5 66q0 33 -23.5 52t-65.5 19q-54 0 -82.5 -27.5zM160 230q-27 -15 -40 -38.5t-13 -47.5q0 -38 25 -59t71 -21q39 0 66 15t40.5 38.5t13.5 47.5q0 37 -25.5 58.5t-71.5 21.5q-39 0 -66 -15z" />
    <glyph glyph-name="nine.smcp" horiz-adv-x="478" 
d="M60 24.5q-42 36.5 -42 99.5q0 14 1 21h92v-8q0 -73 74 -73q51 0 94.5 44t68.5 131h-2q-53 -49 -126 -49q-71 0 -112.5 43t-41.5 117q0 47 26 96t76 81.5t116 32.5q84 0 127.5 -47t43.5 -140q0 -81 -32.5 -171t-95.5 -152t-149 -62q-76 0 -118 36.5zM309 282
q28 19 42 48.5t14 60.5q0 43 -22 67.5t-62 24.5q-38 0 -65.5 -20t-41.5 -49.5t-14 -57.5q0 -43 21.5 -68t60.5 -25t67 19z" />
    <glyph glyph-name="zero.lf.smcp" horiz-adv-x="509" 
d="M435.5 510q41.5 -50 41.5 -147q0 -79 -31 -167t-92 -148t-146 -60q-82 0 -123.5 50t-41.5 147q0 79 31 167t92 148t146 60q82 0 123.5 -50zM213.5 431.5q-38.5 -51.5 -58.5 -122.5t-20 -124q0 -59 20.5 -90t58.5 -31q53 0 91.5 51t58.5 121.5t20 124.5q0 59 -20 90.5
t-59 31.5q-53 0 -91.5 -51.5z" />
    <glyph glyph-name="one.lf.smcp" horiz-adv-x="324" 
d="M77 0l97 386h-128l18 69q68 0 105.5 21.5t58.5 71.5h78l-137 -548h-92z" />
    <glyph glyph-name="two.lf.smcp" horiz-adv-x="493" 
d="M425.5 521.5q44.5 -38.5 44.5 -101.5q0 -65 -46 -113.5t-151 -98.5q-88 -43 -121 -70t-43 -61h293l-18 -77h-398q12 67 37.5 112.5t71.5 81t123 72.5q61 30 93.5 51.5t48 43.5t15.5 50q0 35 -19.5 53.5t-56.5 18.5q-43 0 -72 -26t-43 -74h-97q23 85 80.5 131t137.5 46
q76 0 120.5 -38.5z" />
    <glyph glyph-name="three.lf.smcp" horiz-adv-x="490" 
d="M425 523.5q45 -36.5 45 -100.5q0 -48 -31 -87.5t-96 -61.5v-2q69 -30 71 -108q0 -41 -25 -82t-73.5 -67.5t-115.5 -26.5q-90 0 -137.5 36t-47.5 103q0 20 6 42h92q-4 -16 -4 -32q0 -73 94 -73q37 0 64.5 15t41.5 37.5t14 46.5q0 38 -26.5 57.5t-77.5 19.5h-20l18 74h21
q46 0 77.5 15t47 38t15.5 48q0 32 -22.5 50.5t-61.5 18.5q-98 0 -123 -101h-93q19 83 78.5 130t143.5 47q80 0 125 -36.5z" />
    <glyph glyph-name="four.lf.smcp" horiz-adv-x="471" 
d="M336 134l-34 -134h-90l34 134h-262l20 86l310 328h125l-85 -340h91l-19 -74h-90zM266 208l18 73q21 89 48 181h-2l-158 -168l-82 -86h176z" />
    <glyph glyph-name="five.lf.smcp" horiz-adv-x="488" 
d="M216 471l-49 -141h2q21 16 47.5 24.5t51.5 8.5q72 0 113.5 -42.5t41.5 -114.5q0 -50 -27.5 -100.5t-81 -84t-127.5 -33.5q-78 0 -123 34t-45 94q0 13 5 33h92q-2 -14 -2 -20q0 -31 22.5 -48t59.5 -17q44 0 74 21t44.5 52.5t14.5 61.5q0 43 -23 66t-65 23q-35 0 -62 -18.5
t-44 -53.5l-89 6l112 326h328l-19 -77h-251z" />
    <glyph glyph-name="six.lf.smcp" horiz-adv-x="489" 
d="M434.5 523.5q42.5 -36.5 42.5 -99.5q0 -14 -1 -21h-93v8q0 73 -74 73q-51 0 -94 -44t-68 -131h2q52 49 125 49q71 0 112.5 -43t41.5 -117q0 -47 -26 -96t-76 -81.5t-116 -32.5q-84 0 -127 47t-43 140q0 81 32 171t95 152t149 62q76 0 118.5 -36.5zM185.5 266
q-27.5 -19 -41.5 -48.5t-14 -60.5q0 -43 21.5 -67.5t61.5 -24.5q38 0 65.5 20t41.5 49.5t14 57.5q0 43 -21.5 68t-60.5 25t-66.5 -19z" />
    <glyph glyph-name="seven.lf.smcp" horiz-adv-x="424" 
d="M299 258.5q-79 -121.5 -138 -258.5h-109q70 147 151.5 267.5t158.5 201.5h-295l19 79h397l-19 -78q-86 -90 -165 -211.5z" />
    <glyph glyph-name="eight.lf.smcp" horiz-adv-x="490" 
d="M426.5 522q47.5 -38 47.5 -101q0 -49 -35.5 -90.5t-92.5 -56.5v-2q34 -12 53 -43t19 -72t-25 -80t-73.5 -64t-115.5 -25q-87 0 -135.5 40.5t-48.5 111.5q0 52 37 95.5t102 55.5v2q-63 37 -63 109q0 37 24 73.5t70.5 60.5t108.5 24q80 0 127.5 -38zM210.5 456.5
q-28.5 -27.5 -28.5 -62.5q0 -36 23.5 -56t65.5 -20q54 0 82.5 29t28.5 66q0 33 -23.5 52t-65.5 19q-54 0 -82.5 -27.5zM166 230q-27 -15 -40 -38.5t-13 -47.5q0 -38 25 -59t71 -21q39 0 66 15t40.5 38.5t13.5 47.5q0 37 -25.5 58.5t-71.5 21.5q-39 0 -66 -15z" />
    <glyph glyph-name="nine.lf.smcp" horiz-adv-x="489" 
d="M65 24.5q-42 36.5 -42 99.5q0 14 1 21h92v-8q0 -73 74 -73q51 0 94.5 44t68.5 131h-2q-53 -49 -126 -49q-71 0 -112.5 43t-41.5 117q0 47 26 96t76 81.5t116 32.5q84 0 127.5 -47t43.5 -140q0 -81 -32.5 -171t-95.5 -152t-149 -62q-76 0 -118 36.5zM314 282
q28 19 42 48.5t14 60.5q0 43 -22 67.5t-62 24.5q-38 0 -65.5 -20t-41.5 -49.5t-14 -57.5q0 -43 21.5 -68t60.5 -25t67 19z" />
    <glyph glyph-name="periodcentered.case" horiz-adv-x="226" 
d="M70 297l29 117h108l-29 -117h-108z" />
    <glyph glyph-name="exclamdown.case" horiz-adv-x="275" 
d="M303 712l-27 -106h-103l26 106h104zM242 537l-112 -537h-113l155 537h70z" />
    <glyph glyph-name="periodcentered.loclCAT.case" horiz-adv-x="80" 
d="M-132 354l29 117h108l-29 -117h-108z" />
    <glyph glyph-name="questiondown.case" horiz-adv-x="516" 
d="M442 712l-27 -106h-103l26 106h104zM73 31.5q-53 45.5 -53 123.5q0 56 32 102.5t119 103.5q47 31 71.5 54t39 52t27.5 80h78q-14 -66 -30.5 -102.5t-43.5 -65t-81 -65.5q-51 -36 -77 -62.5t-34 -47t-8 -45.5q0 -44 28.5 -68.5t80.5 -24.5q58 0 98 32.5t57 96.5h92
q-27 -102 -92 -155.5t-158 -53.5t-146 45.5z" />
    <glyph glyph-name="slash.case" horiz-adv-x="462" 
d="M-1 0l428 712h86l-428 -712h-86z" />
    <glyph glyph-name="periodcentered.loclCAT" horiz-adv-x="155" 
d="M33 297l29 117h108l-29 -117h-108z" />
    <glyph glyph-name="braceleft.case" horiz-adv-x="301" 
d="M319.5 693.5q-25.5 -20.5 -38.5 -70.5l-37 -150q-12 -48 -37.5 -73.5t-74.5 -38.5l-1 -3q30 -13 44 -33t14 -52q0 -23 -7 -50l-30 -118q-7 -25 -7 -46q0 -33 16 -47t52 -15l-14 -57h-12q-64 0 -94 27t-30 83q0 25 10 70l28 110q7 30 7 43q0 24 -11.5 39t-35.5 23l15 61
q39 11 58.5 30.5t29.5 58.5l36 143q19 76 60 110t114 34h32l-13 -56q-48 -2 -73.5 -22.5z" />
    <glyph glyph-name="braceright.case" horiz-adv-x="301" 
d="M32.5 18.5q25.5 20.5 38.5 70.5l37 150q12 48 37.5 73.5t74.5 38.5l1 3q-30 13 -44 33t-14 52q0 23 7 50l30 118q7 25 7 46q0 33 -16 47t-52 15l14 57h12q64 0 94 -27t30 -83q0 -25 -10 -70l-28 -110q-6 -25 -6 -43q0 -25 11 -39.5t36 -22.5l-16 -61q-39 -11 -58.5 -30.5
t-29.5 -58.5l-36 -143q-19 -76 -60 -110t-114 -34h-32l13 56q48 2 73.5 22.5z" />
    <glyph glyph-name="bracketleft.case" horiz-adv-x="297" 
d="M275 713l-178 -714h118l-14 -59h-203l207 832h203l-14 -59h-119z" />
    <glyph glyph-name="bracketright.case" horiz-adv-x="297" 
d="M73 -1l178 714h-118l14 59h203l-207 -832h-203l14 59h119z" />
    <glyph glyph-name="parenleft.case" horiz-adv-x="292" 
d="M212 480q-59 -150 -59 -290q0 -112 31 -250h-73q-50 138 -50 279q0 137 63.5 282.5t186.5 270.5h80q-120 -142 -179 -292z" />
    <glyph glyph-name="parenright.case" horiz-adv-x="292" 
d="M131 232q59 150 59 290q0 109 -30 250h72q50 -138 50 -279q0 -138 -63 -283t-186 -270h-81q120 142 179 292z" />
    <glyph glyph-name="bracketleft.sups" horiz-adv-x="222" 
d="M262 794l-128 -512h82l-14 -55h-156l155 622h156l-13 -55h-82z" />
    <glyph glyph-name="bracketright.sups" horiz-adv-x="222" 
d="M8 227l13 55h82l128 512h-82l14 55h155l-155 -622h-155z" />
    <glyph glyph-name="emdash.case" horiz-adv-x="1000" 
d="M36 316l19 78h960l-19 -78h-960z" />
    <glyph glyph-name="endash.case" horiz-adv-x="500" 
d="M36 316l19 78h460l-19 -78h-460z" />
    <glyph glyph-name="hyphen.case" horiz-adv-x="300" 
d="M46 316l19 78h240l-19 -78h-240z" />
    <glyph glyph-name="guillemotleft.case" horiz-adv-x="463" 
d="M219 156h-77l-68 204l158 196h87l-162 -204zM391 156h-77l-68 204l158 196h87l-162 -204z" />
    <glyph glyph-name="guillemotright.case" horiz-adv-x="463" 
d="M123 556h78l67 -204l-158 -196h-87l162 204zM294 556h78l68 -204l-158 -196h-88l163 204z" />
    <glyph glyph-name="guilsinglleft.case" horiz-adv-x="292" 
d="M219 156h-77l-68 204l158 196h87l-162 -204z" />
    <glyph glyph-name="guilsinglright.case" horiz-adv-x="291" 
d="M123 556h78l67 -204l-158 -196h-87l162 204z" />
    <glyph glyph-name="quoteright.loclFRA" horiz-adv-x="274" 
d="M194 470h-53l69 134h-34l26 108h100l-27 -108z" />
    <glyph glyph-name="periodcentered.loclCAT.smcp" horiz-adv-x="60" 
d="M-124 283l30 117h108l-29 -117h-109z" />
    </font>
</defs>
</svg>
